<svg width="15" height="20" viewBox="0 0 15 20" fill="none" xmlns="http://www.w3.org/2000/svg">
<path d="M9.73134 2.41551L10.4513 0.900014C10.4606 0.880595 10.4664 0.85925 10.4685 0.837198C10.4707 0.815145 10.4691 0.792817 10.4638 0.771489C10.4585 0.75016 10.4497 0.730249 10.4379 0.712892C10.426 0.695534 10.4114 0.681071 10.3947 0.670327C10.3781 0.659583 10.3598 0.652769 10.3409 0.650275C10.322 0.64778 10.3028 0.649654 10.2846 0.655788C10.2663 0.661923 10.2492 0.672198 10.2343 0.686028C10.2194 0.699857 10.2071 0.71697 10.1978 0.736389L9.47034 2.26764C8.84931 1.94997 8.17857 1.78596 7.50047 1.78596C6.82237 1.78596 6.15163 1.94997 5.53059 2.26764L4.80309 0.736389C4.7845 0.696938 4.75323 0.667723 4.71616 0.65517C4.6791 0.642616 4.63928 0.647754 4.60547 0.669452C4.57165 0.69115 4.54661 0.727631 4.53585 0.77087C4.52509 0.814109 4.5295 0.860563 4.54809 0.900014L5.26809 2.41551C4.58304 2.80969 4.00424 3.41634 3.59518 4.16893C3.18612 4.92153 2.96259 5.791 2.94909 6.68201H12.0518C12.0382 5.79082 11.8145 4.92122 11.4051 4.16861C10.9958 3.41599 10.4167 2.80945 9.73134 2.41551ZM5.40009 4.73864C5.32486 4.73864 5.25131 4.7126 5.18876 4.66381C5.12621 4.61503 5.07748 4.54569 5.04872 4.46458C5.01996 4.38347 5.01247 4.29422 5.02721 4.20814C5.04194 4.12207 5.07823 4.04302 5.13148 3.98101C5.18474 3.91901 5.25256 3.87683 5.32637 3.85981C5.40018 3.84279 5.47666 3.8517 5.54613 3.88541C5.6156 3.91912 5.67493 3.97612 5.71663 4.04919C5.75832 4.12226 5.78049 4.20811 5.78034 4.29589C5.78014 4.41339 5.74 4.52601 5.66871 4.60901C5.59742 4.69202 5.50081 4.73864 5.40009 4.73864ZM9.60159 4.73864C9.52636 4.73864 9.45281 4.7126 9.39026 4.66381C9.32771 4.61503 9.27898 4.54569 9.25022 4.46458C9.22146 4.38347 9.21397 4.29422 9.22871 4.20814C9.24344 4.12207 9.27973 4.04302 9.33298 3.98101C9.38624 3.91901 9.45406 3.87683 9.52787 3.85981C9.60168 3.84279 9.67816 3.8517 9.74763 3.88541C9.8171 3.91912 9.87643 3.97612 9.91813 4.04919C9.95982 4.12226 9.98199 4.20811 9.98184 4.29589C9.98164 4.41339 9.94149 4.52601 9.87021 4.60901C9.79892 4.69202 9.70231 4.73864 9.60159 4.73864ZM2.94759 14.7985C2.9474 14.9675 2.97578 15.1348 3.03113 15.2909C3.08647 15.447 3.16769 15.5888 3.27011 15.7082C3.37254 15.8277 3.49416 15.9223 3.62801 15.9868C3.76185 16.0512 3.90529 16.0842 4.05009 16.0839H4.77984V18.7089C4.77984 19.0246 4.88735 19.3274 5.0787 19.5507C5.27006 19.7739 5.5296 19.8993 5.80022 19.8993C6.07084 19.8993 6.33038 19.7739 6.52173 19.5507C6.71309 19.3274 6.82059 19.0246 6.82059 18.7089V16.0839H8.18109V18.7089C8.18109 19.0245 8.28856 19.3272 8.47984 19.5503C8.67113 19.7735 8.93057 19.8989 9.20109 19.8989C9.47161 19.8989 9.73106 19.7735 9.92234 19.5503C10.1136 19.3272 10.2211 19.0245 10.2211 18.7089V16.0839H10.9516C11.0962 16.084 11.2394 16.0509 11.373 15.9863C11.5067 15.9218 11.6281 15.8272 11.7303 15.7079C11.8326 15.5886 11.9137 15.447 11.969 15.2911C12.0243 15.1352 12.0527 14.9681 12.0526 14.7994V7.10201H2.94759V14.7985ZM1.54734 6.89726C1.27682 6.89773 1.01749 7.02337 0.826268 7.24663C0.635046 7.46988 0.527542 7.77252 0.527344 8.08814V13.0485C0.527344 13.2048 0.553727 13.3595 0.604987 13.5039C0.656246 13.6483 0.731379 13.7795 0.826095 13.89C0.920811 14.0005 1.03325 14.0881 1.15701 14.1479C1.28076 14.2077 1.4134 14.2385 1.54734 14.2385C1.68129 14.2385 1.81393 14.2077 1.93768 14.1479C2.06143 14.0881 2.17388 14.0005 2.26859 13.89C2.36331 13.7795 2.43844 13.6483 2.4897 13.5039C2.54096 13.3595 2.56734 13.2048 2.56734 13.0485V8.08814C2.56695 7.77267 2.45936 7.47026 2.26815 7.24719C2.07695 7.02413 1.81774 6.8986 1.54734 6.89814V6.89726ZM13.4513 6.89726C13.1808 6.89773 12.9215 7.02337 12.7303 7.24663C12.539 7.46988 12.4315 7.77252 12.4313 8.08814V13.0485C12.4313 13.2048 12.4577 13.3595 12.509 13.5039C12.5602 13.6483 12.6354 13.7795 12.7301 13.89C12.8248 14.0005 12.9373 14.0881 13.061 14.1479C13.1848 14.2077 13.3174 14.2385 13.4513 14.2385C13.5853 14.2385 13.7179 14.2077 13.8417 14.1479C13.9654 14.0881 14.0779 14.0005 14.1726 13.89C14.2673 13.7795 14.3424 13.6483 14.3937 13.5039C14.445 13.3595 14.4713 13.2048 14.4713 13.0485V8.08814C14.4709 7.77267 14.3634 7.47026 14.1722 7.24719C13.981 7.02413 13.7217 6.8986 13.4513 6.89814V6.89726Z" fill="white"/>
</svg>
