<svg width="32" height="32" viewBox="0 0 32 32" fill="none" xmlns="http://www.w3.org/2000/svg">
<path d="M4.89351 21.681L5.61351 22.3877L4.78684 23.201C5.12141 23.7225 5.49586 24.2174 5.90684 24.681L24.6802 5.89436C24.2151 5.49499 23.7252 5.12537 23.2135 4.7877L22.3868 5.60103L21.6802 4.89436L22.3202 4.25436C19.7951 2.89646 16.8995 2.38866 14.063 2.80629C11.2265 3.22392 8.60023 4.54473 6.57365 6.5728C4.54708 8.60087 3.22821 11.2282 2.81267 14.065C2.39714 16.9017 2.90708 19.7969 4.26684 22.321L4.89351 21.681ZM19.8135 6.76103L20.5202 7.4677L18.6668 9.33436L17.9602 8.6277L19.8135 6.76103ZM16.0935 10.4944L16.7868 11.201L14.9335 13.0677L14.2268 12.361L16.0935 10.4944ZM12.3602 14.2277L13.0668 14.9344L11.2002 16.7877L10.4935 16.081L12.3602 14.2277ZM8.62684 17.9477L9.33351 18.6677L7.46684 20.5344L6.76018 19.8277L8.62684 17.9477ZM8.78684 27.2144L9.61351 26.401L10.3202 27.1077L9.68018 27.7477C12.2053 29.1056 15.1008 29.6134 17.9373 29.1958C20.7738 28.7781 23.4001 27.4573 25.4267 25.4293C27.4533 23.4012 28.7721 20.7739 29.1877 17.9371C29.6032 15.1003 29.0933 12.2051 27.7335 9.68103L27.1068 10.321L26.3868 9.61436L27.2135 8.80103C26.8789 8.27952 26.5045 7.78471 26.0935 7.32103L7.32018 26.1077C7.7853 26.5071 8.27516 26.8767 8.78684 27.2144ZM24.5335 11.481L25.2402 12.1877L23.3735 14.0544L22.6668 13.3344L24.5335 11.481ZM20.8002 15.2144L21.5068 15.921L19.6402 17.7744L18.9335 17.0677L20.8002 15.2144ZM17.0668 18.9344L17.7735 19.641L15.9202 21.5077L15.2002 20.801L17.0668 18.9344ZM13.3335 22.6677L14.0402 23.3744L12.1735 25.241L11.4668 24.5344L13.3335 22.6677Z" fill="white"/>
</svg>
