<svg width="32" height="32" viewBox="0 0 32 32" fill="none" xmlns="http://www.w3.org/2000/svg">
<path d="M26.85 5.75C26.582 5.96346 26.325 6.19042 26.08 6.43C24.9338 7.43898 23.9815 8.64883 23.27 10C23.5352 10 23.7896 10.1054 23.9771 10.2929C24.1646 10.4804 24.27 10.7348 24.27 11C24.27 11.2652 24.1646 11.5196 23.9771 11.7071C23.7896 11.8946 23.5352 12 23.27 12H22.4C22.0819 12.9722 21.8838 13.9797 21.81 15H22.26C22.5252 15 22.7796 15.1054 22.9671 15.2929C23.1546 15.4804 23.26 15.7348 23.26 16C23.26 16.2652 23.1546 16.5196 22.9671 16.7071C22.7796 16.8946 22.5252 17 22.26 17H21.81C21.8857 18.02 22.0838 19.0273 22.4 20H23.26C23.5252 20 23.7796 20.1054 23.9671 20.2929C24.1546 20.4804 24.26 20.7348 24.26 21C24.26 21.2652 24.1546 21.5196 23.9671 21.7071C23.7796 21.8946 23.5252 22 23.26 22C23.9724 23.3597 24.9166 24.5847 26.05 25.62C26.31 25.86 26.58 26.08 26.85 26.3C29.5001 23.524 30.9853 19.8378 31 16C31.0067 12.1728 29.5174 8.49452 26.85 5.75ZM8.74 10C8.04675 8.66498 7.11858 7.46581 6 6.46C5.74 6.21 5.47 5.98 5.19 5.75C2.51247 8.49108 1.00933 12.1682 1 16C1.01474 19.8378 2.49995 23.524 5.15 26.3C5.42149 26.0904 5.68184 25.8668 5.93 25.63C7.07458 24.5963 8.02608 23.3671 8.74 22C8.47478 22 8.22043 21.8946 8.03289 21.7071C7.84536 21.5196 7.74 21.2652 7.74 21C7.74 20.7348 7.84536 20.4804 8.03289 20.2929C8.22043 20.1054 8.47478 20 8.74 20H9.6C9.9162 19.0273 10.1143 18.02 10.19 17H9.75C9.48478 17 9.23043 16.8946 9.04289 16.7071C8.85536 16.5196 8.75 16.2652 8.75 16C8.75 15.7348 8.85536 15.4804 9.04289 15.2929C9.23043 15.1054 9.48478 15 9.75 15H10.19C10.1162 13.9797 9.9181 12.9722 9.6 12H8.74C8.47478 12 8.22043 11.8946 8.03289 11.7071C7.84536 11.5196 7.74 11.2652 7.74 11C7.74 10.7348 7.84536 10.4804 8.03289 10.2929C8.22043 10.1054 8.47478 10 8.74 10Z" fill="white"/>
<path d="M24.6872 27.0905C23.1101 25.6748 21.8522 23.9397 20.9972 22.0005H20.2272C19.962 22.0005 19.7076 21.8952 19.5201 21.7076C19.3325 21.5201 19.2272 21.2658 19.2272 21.0005C19.2272 20.7353 19.3325 20.481 19.5201 20.2934C19.7076 20.1059 19.962 20.0005 20.2272 20.0005H20.2972C20.0238 19.0205 19.8496 18.0154 19.7772 17.0005H19.2272C18.962 17.0005 18.7076 16.8952 18.5201 16.7076C18.3325 16.5201 18.2272 16.2658 18.2272 16.0005C18.2272 15.7353 18.3325 15.481 18.5201 15.2934C18.7076 15.1059 18.962 15.0005 19.2272 15.0005H19.7772C19.8488 13.9856 20.023 12.9804 20.2972 12.0005H20.2272C19.962 12.0005 19.7076 11.8952 19.5201 11.7076C19.3325 11.5201 19.2272 11.2658 19.2272 11.0005C19.2272 10.7353 19.3325 10.481 19.5201 10.2934C19.7076 10.1059 19.962 10.0005 20.2272 10.0005H20.9972C21.852 8.08712 23.1108 6.38139 24.6872 5.00054C24.8972 4.79054 25.1272 4.61054 25.3472 4.42054C22.7358 2.2059 19.4212 0.993493 15.9972 1.00054C12.5672 0.970762 9.23982 2.16975 6.61719 4.38054L7.31719 4.99054C8.89256 6.374 10.1482 8.0835 10.9972 10.0005H11.7672C12.0324 10.0005 12.2868 10.1059 12.4743 10.2934C12.6618 10.481 12.7672 10.7353 12.7672 11.0005C12.7672 11.2658 12.6618 11.5201 12.4743 11.7076C12.2868 11.8952 12.0324 12.0005 11.7672 12.0005H11.6972C11.9762 12.9793 12.1505 13.985 12.2172 15.0005H12.7772C13.0424 15.0005 13.2968 15.1059 13.4843 15.2934C13.6718 15.481 13.7772 15.7353 13.7772 16.0005C13.7772 16.2658 13.6718 16.5201 13.4843 16.7076C13.2968 16.8952 13.0424 17.0005 12.7772 17.0005H12.2172C12.1448 18.0154 11.9706 19.0205 11.6972 20.0005H11.7672C12.0324 20.0005 12.2868 20.1059 12.4743 20.2934C12.6618 20.481 12.7672 20.7353 12.7672 21.0005C12.7672 21.2658 12.6618 21.5201 12.4743 21.7076C12.2868 21.8952 12.0324 22.0005 11.7672 22.0005H10.9972C10.1474 23.943 8.89274 25.6817 7.31719 27.1005C7.10719 27.3005 6.87719 27.4905 6.64719 27.6705C9.27977 29.8376 12.5874 31.0156 15.9972 31.0005C19.4171 31.0218 22.7362 29.8435 25.3772 27.6705C25.1472 27.4805 24.9072 27.3005 24.6872 27.0905Z" fill="white"/>
</svg>
