<svg width="30" height="92" viewBox="0 0 30 92" fill="none" xmlns="http://www.w3.org/2000/svg">
<path opacity="0.3" d="M-46.4391 11.5C-40.6172 6.37891 -33.5016 2.69531 -25.6492 1.00625C-24.9844 3.43203 -24.625 5.9836 -24.625 8.625C-24.625 15.525 -27.0508 21.868 -31.1117 26.8273L-46.4391 11.5ZM-50.5 15.5609L-35.1906 30.8703C-40.132 34.9492 -46.475 37.375 -53.375 37.375C-56.0164 37.375 -58.568 37.0156 -60.9937 36.3508C-59.3047 28.4984 -55.6211 21.3828 -50.5 15.5609ZM-16 1.26199e-06C-4.33828 1.26199e-06 6.31718 4.34844 14.4391 11.5L-16 41.9391L-27.0328 30.9062C-21.9477 24.8867 -18.875 17.1242 -18.875 8.625C-18.875 5.71406 -19.2344 2.875 -19.9172 0.16172C-18.6143 0.0536518 -17.3074 -0.000300883 -16 1.26199e-06ZM-53.375 43.125C-44.8758 43.125 -37.1133 40.0523 -31.0937 34.9672L-20.0609 46L-50.5 76.4391C-57.6516 68.3172 -62 57.6617 -62 46C-62 44.6883 -61.9461 43.3766 -61.8383 42.0828C-59.125 42.7656 -56.2859 43.125 -53.375 43.125ZM29.8383 49.9172C27.125 49.2344 24.2859 48.875 21.375 48.875C12.8758 48.875 5.11328 51.9477 -0.90625 57.0328L-11.9391 46L18.5 15.5609C25.6516 23.6648 30 34.3203 30 46C30 47.3117 29.9461 48.6234 29.8383 49.9172ZM28.9938 55.6492C27.3047 63.5016 23.6211 70.6172 18.5 76.4391L3.19062 61.1297C8.13203 57.0508 14.475 54.625 21.375 54.625C24.0164 54.625 26.568 54.9844 28.9938 55.6492ZM-0.888279 65.1727L14.4391 80.5C8.61719 85.6211 1.50156 89.3047 -6.35078 90.9938C-7.01562 88.568 -7.375 86.0164 -7.375 83.375C-7.375 76.475 -4.94922 70.132 -0.888279 65.1727ZM-4.96719 61.0938C-10.0523 67.1133 -13.125 74.8758 -13.125 83.375C-13.125 86.2859 -12.7656 89.125 -12.0828 91.8383C-13.3766 91.9461 -14.6883 92 -16 92C-27.6617 92 -38.3172 87.6516 -46.4391 80.5L-16 50.0609L-4.96719 61.0938Z" fill="#00862B"/>
</svg>
