<svg width="111" height="221" viewBox="0 0 111 221" fill="none" xmlns="http://www.w3.org/2000/svg">
<path d="M13.4495 162.147C4.80426 145.744 0.225412 127.139 0.696036 107.938C6.70783 107.751 12.841 108.344 18.9817 109.823C35.0229 113.687 48.4106 122.879 57.6661 135.097L13.4495 162.147ZM20.6163 173.862L64.781 146.844C71.4964 160.616 73.5838 176.72 69.7197 192.762C68.2405 198.902 65.9762 204.633 63.0721 209.9C45.7628 201.576 31.2832 189.028 20.6163 173.862ZM3.76033 84.9417C10.291 57.8304 26.3674 35.4937 47.5417 20.6168L101.261 108.428L69.4329 127.899C58.2864 112.706 41.9608 101.215 22.2018 96.4556C15.4344 94.8254 8.63288 94.071 1.94264 94.139C2.42105 91.0494 3.02747 87.981 3.76033 84.9417ZM83.0874 195.982C87.847 176.223 85.0507 156.456 76.5997 139.614L108.427 120.143L162.146 207.954C139.259 220.032 112.052 224.174 84.9411 217.643C81.8916 216.909 78.8723 216.049 75.925 215.074C79.0319 209.148 81.4572 202.749 83.0874 195.982ZM145.478 6.33049C142.371 12.256 139.946 18.655 138.316 25.4224C133.556 45.1814 136.352 64.9484 144.803 81.7904L112.976 101.261L59.2568 13.4501C82.1017 1.36231 109.309 -2.77983 136.462 3.76088C139.511 4.49545 142.531 5.35534 145.478 6.33049ZM158.331 11.5038C175.64 19.828 190.12 32.3764 200.787 47.5422L156.622 74.5602C149.907 60.7882 147.819 44.6836 151.683 28.6424C153.162 22.5016 155.427 16.771 158.331 11.5038ZM163.737 86.307L207.953 59.2573C216.599 75.6599 221.178 94.2652 220.707 113.466C214.695 113.653 208.562 113.06 202.421 111.581C186.38 107.717 172.992 98.5252 163.737 86.307ZM151.97 93.5055C163.116 108.698 179.442 120.189 199.201 124.948C205.969 126.579 212.77 127.333 219.46 127.265C218.986 130.333 218.377 133.413 217.643 136.462C211.112 163.574 195.036 185.91 173.861 200.787L120.142 112.976L151.97 93.5055Z" fill="#b0d8bd"/>
</svg>
