<svg width="32" height="32" viewBox="0 0 32 32" fill="none" xmlns="http://www.w3.org/2000/svg">
<path d="M16.002 2.66406C13.7723 2.66634 11.5788 3.22775 9.62212 4.29691C7.66549 5.36607 6.00822 6.90884 4.80196 8.78406C3.10538 11.4448 2.40749 14.621 2.83239 17.7479C3.2573 20.8748 4.77746 23.7496 7.12253 25.8611C9.4676 27.9727 12.4856 29.184 15.6397 29.2798C18.7939 29.3755 21.8798 28.3495 24.3486 26.3841C26.4974 24.6545 28.0568 22.3012 28.8121 19.6483C29.5673 16.9954 29.4813 14.1735 28.5657 11.5716C27.6501 8.9697 25.9501 6.71577 23.7 5.12043C21.4498 3.5251 18.7603 2.66689 16.002 2.66406ZM18.6686 5.6774C20.5111 6.15432 22.1924 7.1155 23.5381 8.46124C24.8839 9.80699 25.845 11.4883 26.322 13.3307C24.0926 13.3935 21.9166 14.027 20.002 15.1707C19.0405 14.08 17.9681 13.0925 16.802 12.2241C17.9768 10.2387 18.6197 7.98383 18.6686 5.6774ZM16.002 5.33073C15.9976 7.2441 15.4721 9.12013 14.482 10.7574C14.282 10.6507 14.0953 10.5307 13.8953 10.4374C12.1784 9.53152 10.3427 8.87171 8.44196 8.4774C9.43269 7.48076 10.6106 6.68971 11.908 6.1497C13.2054 5.60969 14.5967 5.33137 16.002 5.33073ZM6.66863 10.8774C8.75985 11.1679 10.7852 11.8175 12.6553 12.7974L12.8286 12.9041C11.8445 13.8873 10.676 14.6666 9.3902 15.1974C8.10435 15.7282 6.72639 16.0001 5.33529 15.9974C5.34271 14.2058 5.80126 12.445 6.66863 10.8774ZM13.3353 26.3174C11.4928 25.8405 9.81155 24.8793 8.46581 23.5335C7.12006 22.1878 6.15888 20.5065 5.68196 18.6641C7.46283 18.6245 9.21727 18.2249 10.8396 17.4894C12.462 16.7538 13.9187 15.6975 15.122 14.3841C16.0858 15.0966 16.9789 15.9003 17.7886 16.7841C16.4385 17.9879 15.3474 19.4539 14.5818 21.0928C13.8162 22.7318 13.3921 24.5094 13.3353 26.3174ZM16.002 26.6641C16.0048 25.1992 16.3094 23.7507 16.8966 22.4087C17.4839 21.0668 18.3413 19.8601 19.4153 18.8641C19.4953 18.9707 19.5753 19.0641 19.642 19.1707C20.7593 20.8817 21.5881 22.7645 22.0953 24.7441C20.3107 25.9971 18.1825 26.6677 16.002 26.6641ZM24.282 22.6641C23.7029 20.9001 22.8961 19.2192 21.882 17.6641L21.602 17.3307C23.1522 16.4683 24.8946 16.0097 26.6686 15.9974C26.6554 18.4266 25.8134 20.7784 24.282 22.6641Z" fill="white"/>
</svg>
