<svg width="375" height="444" viewBox="0 0 375 444" fill="none" xmlns="http://www.w3.org/2000/svg">
<mask id="path-1-outside-1_8445_143295" maskUnits="userSpaceOnUse" x="-226.953" y="19.5469" width="807" height="401" fill="black">
<rect fill="white" x="-226.953" y="19.5469" width="807" height="401"/>
<path fill-rule="evenodd" clip-rule="evenodd" d="M-225.947 217.263H-225.953V33.8398C-225.953 33.8398 -60.8824 99.7751 76.6765 50.5325C149.197 24.5721 181.737 33.3732 213.284 41.9057C241.577 49.558 269.071 56.9943 323.89 38.9458C439.832 0.77261 578.963 33.8398 578.963 33.8398V217.263H578.969V407.968C578.969 407.968 442.321 373.257 276.339 390.613C201.062 398.484 153.086 392.925 112.316 388.2C63.1895 382.508 24.5249 378.028 -38.8349 399.717C-154.777 439.405 -225.947 407.968 -225.947 407.968V217.263Z"/>
</mask>
<path fill-rule="evenodd" clip-rule="evenodd" d="M-225.947 217.263H-225.953V33.8398C-225.953 33.8398 -60.8824 99.7751 76.6765 50.5325C149.197 24.5721 181.737 33.3732 213.284 41.9057C241.577 49.558 269.071 56.9943 323.89 38.9458C439.832 0.77261 578.963 33.8398 578.963 33.8398V217.263H578.969V407.968C578.969 407.968 442.321 373.257 276.339 390.613C201.062 398.484 153.086 392.925 112.316 388.2C63.1895 382.508 24.5249 378.028 -38.8349 399.717C-154.777 439.405 -225.947 407.968 -225.947 407.968V217.263Z" fill="url(#paint0_linear_8445_143295)"/>
<path d="M-225.953 217.263H-226.602V217.912H-225.953V217.263ZM-225.947 217.263H-225.298V216.614H-225.947V217.263ZM-225.953 33.8398L-225.712 33.2368L-226.602 32.8813V33.8398H-225.953ZM76.6765 50.5325L76.8954 51.1438L76.6765 50.5325ZM213.284 41.9057L213.115 42.5325L213.284 41.9057ZM323.89 38.9458L323.686 38.3291L323.89 38.9458ZM578.963 33.8398H579.612V33.3267L579.113 33.2081L578.963 33.8398ZM578.963 217.263H578.314V217.912H578.963V217.263ZM578.969 217.263H579.618V216.614H578.969V217.263ZM578.969 407.968L578.809 408.598L579.618 408.803V407.968H578.969ZM276.339 390.613L276.272 389.967L276.339 390.613ZM112.316 388.2L112.391 387.556L112.316 388.2ZM-38.8349 399.717L-39.0452 399.102L-38.8349 399.717ZM-225.947 407.968H-226.597V408.391L-226.21 408.562L-225.947 407.968ZM-225.953 217.912H-225.947V216.614H-225.953V217.912ZM-226.602 33.8398V217.263H-225.304V33.8398H-226.602ZM76.4577 49.9212C7.83134 74.4877 -67.6963 70.3326 -126.11 60.0127C-155.31 54.8541 -180.216 48.1581 -197.821 42.7521C-206.623 40.0492 -213.599 37.669 -218.373 35.9652C-220.76 35.1134 -222.597 34.4306 -223.836 33.9611C-224.455 33.7263 -224.925 33.5449 -225.24 33.4224C-225.397 33.3611 -225.516 33.3145 -225.595 33.2834C-225.634 33.2678 -225.664 33.2561 -225.683 33.2483C-225.693 33.2444 -225.701 33.2415 -225.705 33.2396C-225.708 33.2386 -225.71 33.2379 -225.711 33.2374C-225.712 33.237 -225.712 33.2368 -225.953 33.8398C-226.194 34.4428 -226.193 34.4431 -226.192 34.4436C-226.19 34.4442 -226.188 34.445 -226.186 34.446C-226.181 34.4481 -226.173 34.4512 -226.163 34.4553C-226.142 34.4634 -226.112 34.4755 -226.071 34.4914C-225.99 34.5232 -225.87 34.5705 -225.711 34.6325C-225.393 34.7564 -224.919 34.9392 -224.296 35.1754C-223.049 35.6477 -221.205 36.3334 -218.81 37.1883C-214.019 38.898 -207.025 41.2843 -198.202 43.9935C-180.558 49.4115 -155.599 56.1217 -126.336 61.2915C-67.8244 71.6287 7.96275 75.8199 76.8954 51.1438L76.4577 49.9212ZM213.454 41.279C197.679 37.0123 181.583 32.6569 160.346 32.635C139.109 32.6131 112.769 36.9227 76.4577 49.9212L76.8954 51.1438C113.104 38.1818 139.294 33.9119 160.344 33.9336C181.394 33.9553 197.342 38.2666 213.115 42.5325L213.454 41.279ZM323.686 38.3291C296.335 47.3342 275.834 49.9713 258.661 49.4146C241.483 48.8578 227.603 45.1059 213.454 41.279L213.115 42.5325C227.258 46.3579 241.272 50.1503 258.619 50.7125C275.971 51.275 296.625 48.6059 324.093 39.5625L323.686 38.3291ZM578.963 33.8398C579.113 33.2081 579.113 33.2079 579.111 33.2076C579.11 33.2074 579.109 33.207 579.106 33.2064C579.102 33.2054 579.095 33.2039 579.087 33.2018C579.069 33.1977 579.044 33.1917 579.01 33.1837C578.942 33.1678 578.84 33.1442 578.706 33.1133C578.438 33.0516 578.038 32.9607 577.513 32.8439C576.463 32.6103 574.908 32.273 572.889 31.8575C568.852 31.0265 562.956 29.8824 555.52 28.6292C540.649 26.1229 519.613 23.1795 494.951 21.4302C445.637 17.9323 381.772 19.2048 323.686 38.3291L324.093 39.5625C381.949 20.5136 445.622 19.2331 494.859 22.7255C519.472 24.4713 540.465 27.4089 555.304 29.9098C562.724 31.1601 568.604 32.3013 572.627 33.1294C574.639 33.5435 576.187 33.8794 577.231 34.1116C577.753 34.2276 578.15 34.3178 578.415 34.3788C578.547 34.4094 578.647 34.4326 578.714 34.4482C578.747 34.456 578.772 34.4618 578.789 34.4657C578.797 34.4677 578.803 34.4691 578.807 34.4701C578.809 34.4706 578.811 34.4709 578.812 34.4712C578.813 34.4714 578.813 34.4715 578.963 33.8398ZM579.612 217.263V33.8398H578.314V217.263H579.612ZM578.969 216.614H578.963V217.912H578.969V216.614ZM579.618 407.968V217.263H578.319V407.968H579.618ZM276.407 391.259C359.337 382.587 434.945 386.923 489.821 393.427C517.258 396.679 539.51 400.473 554.901 403.453C562.596 404.943 568.576 406.23 572.63 407.144C574.658 407.601 576.204 407.965 577.242 408.214C577.761 408.339 578.154 408.435 578.416 408.5C578.547 408.532 578.646 408.557 578.711 408.573C578.744 408.581 578.769 408.587 578.785 408.592C578.793 408.594 578.799 408.595 578.803 408.596C578.805 408.597 578.807 408.597 578.808 408.597C578.808 408.597 578.809 408.598 578.969 407.968C579.129 407.339 579.128 407.339 579.127 407.339C579.126 407.338 579.124 407.338 579.122 407.337C579.117 407.336 579.111 407.335 579.103 407.332C579.086 407.328 579.06 407.322 579.027 407.313C578.96 407.297 578.86 407.272 578.727 407.239C578.462 407.173 578.067 407.077 577.545 406.951C576.501 406.701 574.949 406.336 572.916 405.877C568.849 404.961 562.857 403.671 555.148 402.178C539.73 399.193 517.446 395.394 489.974 392.137C435.031 385.625 359.323 381.283 276.272 389.967L276.407 391.259ZM112.241 388.845C153.027 393.572 201.059 399.137 276.407 391.259L276.272 389.967C201.066 397.831 153.146 392.278 112.391 387.556L112.241 388.845ZM-38.6246 400.331C24.5939 378.69 63.1395 383.156 112.241 388.845L112.391 387.556C63.2396 381.86 24.4559 377.365 -39.0452 399.102L-38.6246 400.331ZM-225.947 407.968C-226.21 408.562 -226.209 408.562 -226.208 408.563C-226.208 408.563 -226.207 408.564 -226.205 408.564C-226.203 408.565 -226.199 408.567 -226.194 408.569C-226.185 408.573 -226.171 408.579 -226.153 408.587C-226.116 408.603 -226.063 408.626 -225.992 408.656C-225.85 408.715 -225.64 408.803 -225.362 408.914C-224.805 409.138 -223.977 409.459 -222.883 409.852C-220.695 410.64 -217.446 411.718 -213.187 412.886C-204.669 415.223 -192.112 417.92 -175.928 419.372C-143.557 422.278 -96.687 420.207 -38.6246 400.331L-39.0452 399.102C-96.9253 418.916 -143.612 420.97 -175.812 418.079C-191.913 416.634 -204.394 413.952 -212.844 411.634C-217.069 410.475 -220.286 409.407 -222.443 408.631C-223.522 408.242 -224.336 407.927 -224.878 407.709C-225.149 407.6 -225.353 407.516 -225.487 407.459C-225.555 407.431 -225.605 407.409 -225.638 407.395C-225.655 407.388 -225.667 407.382 -225.675 407.379C-225.678 407.377 -225.681 407.376 -225.683 407.375C-225.684 407.375 -225.684 407.375 -225.685 407.374C-225.685 407.374 -225.685 407.374 -225.947 407.968ZM-226.597 217.263V407.968H-225.298V217.263H-226.597Z" fill="#4AFF85" mask="url(#path-1-outside-1_8445_143295)"/>
<g opacity="0.6">
<mask id="path-3-outside-2_8445_143295" maskUnits="userSpaceOnUse" x="-247.594" y="9.16406" width="848" height="422" fill="black">
<rect fill="white" x="-247.594" y="9.16406" width="848" height="422"/>
<path fill-rule="evenodd" clip-rule="evenodd" d="M-246.592 216.964H-246.594V24.1384C-246.594 24.1384 -73.0611 93.4537 71.5494 41.6868C147.787 14.3956 181.995 23.6479 215.16 32.6178C244.903 40.6624 273.807 48.4799 331.435 29.5061C453.321 -10.6239 599.584 24.1384 599.584 24.1384V216.964H599.586V417.446C599.586 417.446 455.934 380.955 281.443 399.201C202.307 407.475 151.872 401.631 109.011 396.664C57.3667 390.68 16.72 385.97 -49.8878 408.771C-171.774 450.494 -246.592 417.446 -246.592 417.446V216.964Z"/>
</mask>
<path fill-rule="evenodd" clip-rule="evenodd" d="M-246.592 216.964H-246.594V24.1384C-246.594 24.1384 -73.0611 93.4537 71.5494 41.6868C147.787 14.3956 181.995 23.6479 215.16 32.6178C244.903 40.6624 273.807 48.4799 331.435 29.5061C453.321 -10.6239 599.584 24.1384 599.584 24.1384V216.964H599.586V417.446C599.586 417.446 455.934 380.955 281.443 399.201C202.307 407.475 151.872 401.631 109.011 396.664C57.3667 390.68 16.72 385.97 -49.8878 408.771C-171.774 450.494 -246.592 417.446 -246.592 417.446V216.964Z" fill="url(#paint1_linear_8445_143295)"/>
<path d="M-246.594 216.964H-247.243V217.613H-246.594V216.964ZM-246.592 216.964H-245.943V216.315H-246.592V216.964ZM-246.594 24.1384L-246.353 23.5354L-247.243 23.1799V24.1384H-246.594ZM71.5494 41.6868L71.7682 42.2981L71.5494 41.6868ZM215.16 32.6178L214.99 33.2446L215.16 32.6178ZM331.435 29.5061L331.638 30.1229L331.435 29.5061ZM599.584 24.1384H600.234V23.6253L599.734 23.5067L599.584 24.1384ZM599.584 216.964H598.935V217.613H599.584V216.964ZM599.586 216.964H600.235V216.315H599.586V216.964ZM599.586 417.446L599.426 418.075L600.235 418.28V417.446H599.586ZM281.443 399.201L281.51 399.846L281.443 399.201ZM109.011 396.664L108.937 397.309L109.011 396.664ZM-49.8878 408.771L-50.098 408.157L-49.8878 408.771ZM-246.592 417.446H-247.241V417.869L-246.855 418.04L-246.592 417.446ZM-246.594 217.613H-246.592V216.315H-246.594V217.613ZM-247.243 24.1384V216.964H-245.944V24.1384H-247.243ZM71.3305 41.0755C-0.821579 66.9041 -80.2276 62.5351 -141.638 51.6858C-172.336 46.2624 -198.521 39.2228 -217.029 33.5394C-226.283 30.6978 -233.617 28.1955 -238.637 26.4042C-241.146 25.5085 -243.077 24.7907 -244.379 24.297C-245.031 24.0502 -245.525 23.8595 -245.856 23.7306C-246.021 23.6662 -246.146 23.6172 -246.229 23.5844C-246.271 23.5681 -246.302 23.5557 -246.323 23.5475C-246.333 23.5434 -246.341 23.5404 -246.346 23.5383C-246.348 23.5373 -246.35 23.5366 -246.351 23.5361C-246.352 23.5356 -246.353 23.5354 -246.594 24.1384C-246.835 24.7414 -246.834 24.7417 -246.832 24.7423C-246.831 24.7428 -246.829 24.7437 -246.826 24.7448C-246.821 24.747 -246.812 24.7502 -246.802 24.7545C-246.78 24.763 -246.748 24.7757 -246.706 24.7924C-246.621 24.8259 -246.494 24.8756 -246.327 24.9407C-245.993 25.071 -245.495 25.2631 -244.84 25.5114C-243.53 26.0078 -241.591 26.7286 -239.073 27.6272C-234.037 29.4244 -226.685 31.9329 -217.41 34.7808C-198.862 40.4762 -172.625 47.53 -141.864 52.9646C-80.3557 63.8312 -0.69017 68.2364 71.7682 42.2981L71.3305 41.0755ZM215.329 31.991C198.746 27.5057 181.829 22.9281 159.508 22.9051C137.187 22.8821 109.5 27.4116 71.3305 41.0755L71.7682 42.2981C109.836 28.6708 137.372 24.1809 159.506 24.2037C181.64 24.2265 198.409 28.76 214.99 33.2446L215.329 31.991ZM331.232 28.8894C302.476 38.3572 280.919 41.1302 262.861 40.5449C244.799 39.9594 230.204 36.0141 215.329 31.991L214.99 33.2446C229.859 37.2661 244.588 41.2518 262.819 41.8428C281.056 42.4339 302.766 39.6289 331.638 30.1229L331.232 28.8894ZM599.584 24.1384C599.734 23.5067 599.734 23.5065 599.733 23.5062C599.731 23.506 599.73 23.5055 599.727 23.505C599.723 23.5039 599.716 23.5023 599.707 23.5001C599.689 23.4958 599.662 23.4895 599.626 23.4811C599.554 23.4644 599.448 23.4396 599.307 23.4072C599.025 23.3423 598.605 23.2467 598.053 23.124C596.949 22.8785 595.315 22.5239 593.192 22.0871C588.948 21.2135 582.751 20.0109 574.934 18.6936C559.301 16.0589 537.188 12.9648 511.263 11.1258C459.423 7.4488 392.29 8.78669 331.232 28.8894L331.638 30.1229C392.467 10.0956 459.408 8.74959 511.171 12.4212C537.047 14.2566 559.118 17.3449 574.718 19.9741C582.518 21.2886 588.7 22.4883 592.931 23.3591C595.046 23.7944 596.673 24.1475 597.771 24.3916C598.32 24.5137 598.737 24.6085 599.015 24.6727C599.155 24.7048 599.26 24.7292 599.33 24.7456C599.365 24.7538 599.391 24.7599 599.409 24.764C599.417 24.7661 599.424 24.7676 599.428 24.7686C599.43 24.7692 599.432 24.7695 599.433 24.7698C599.434 24.77 599.434 24.7701 599.584 24.1384ZM600.234 216.964V24.1384H598.935V216.964H600.234ZM599.586 216.315H599.584V217.613H599.586V216.315ZM600.235 417.446V216.964H598.937V417.446H600.235ZM281.51 399.846C368.695 390.73 448.181 395.288 505.872 402.126C534.716 405.545 558.11 409.533 574.29 412.667C582.38 414.233 588.667 415.586 592.93 416.547C595.061 417.027 596.687 417.409 597.779 417.672C598.324 417.803 598.737 417.904 599.013 417.972C599.151 418.006 599.254 418.032 599.323 418.049C599.358 418.058 599.384 418.064 599.401 418.069C599.409 418.071 599.416 418.072 599.42 418.073C599.422 418.074 599.424 418.074 599.425 418.075C599.426 418.075 599.426 418.075 599.586 417.446C599.746 416.816 599.745 416.816 599.744 416.816C599.743 416.816 599.741 416.815 599.739 416.814C599.734 416.813 599.727 416.812 599.719 416.809C599.701 416.805 599.674 416.798 599.639 416.789C599.569 416.772 599.464 416.746 599.324 416.711C599.046 416.642 598.63 416.541 598.082 416.409C596.984 416.145 595.353 415.762 593.215 415.28C588.94 414.316 582.641 412.961 574.537 411.392C558.33 408.253 534.905 404.259 506.025 400.836C448.267 393.99 368.681 389.426 281.375 398.555L281.51 399.846ZM108.937 397.309C151.813 402.278 202.304 408.128 281.51 399.846L281.375 398.555C202.311 406.822 151.931 400.984 109.086 396.02L108.937 397.309ZM-49.6775 409.385C16.789 386.633 57.3166 391.328 108.937 397.309L109.086 396.02C57.4167 390.032 16.651 385.308 -50.098 408.157L-49.6775 409.385ZM-246.592 417.446C-246.855 418.04 -246.854 418.04 -246.853 418.04C-246.852 418.04 -246.851 418.041 -246.85 418.042C-246.847 418.043 -246.843 418.044 -246.838 418.047C-246.828 418.051 -246.814 418.057 -246.795 418.065C-246.757 418.082 -246.7 418.106 -246.626 418.137C-246.477 418.2 -246.256 418.292 -245.964 418.409C-245.379 418.644 -244.509 418.981 -243.359 419.395C-241.06 420.223 -237.645 421.356 -233.169 422.584C-224.216 425.039 -211.017 427.874 -194.005 429.401C-159.98 432.456 -110.712 430.278 -49.6775 409.385L-50.098 408.157C-110.95 428.987 -160.034 431.147 -193.889 428.108C-210.818 426.588 -223.941 423.768 -232.826 421.331C-237.268 420.113 -240.651 418.99 -242.919 418.173C-244.054 417.765 -244.91 417.433 -245.48 417.204C-245.766 417.089 -245.98 417.001 -246.122 416.941C-246.192 416.911 -246.245 416.888 -246.28 416.873C-246.297 416.866 -246.31 416.86 -246.319 416.857C-246.323 416.855 -246.326 416.853 -246.328 416.853C-246.329 416.852 -246.329 416.852 -246.33 416.852C-246.33 416.852 -246.33 416.852 -246.592 417.446ZM-247.241 216.964V417.446H-245.943V216.964H-247.241Z" fill="#4AFF85" mask="url(#path-3-outside-2_8445_143295)"/>
</g>
<g opacity="0.4">
<mask id="path-5-outside-3_8445_143295" maskUnits="userSpaceOnUse" x="-270" y="0" width="893" height="444" fill="black">
<rect fill="white" x="-270" width="893" height="444"/>
<path fill-rule="evenodd" clip-rule="evenodd" d="M-268.995 218.787H-269V15.7168C-269 15.7168 -86.2477 88.7148 66.046 34.1975C146.334 5.45638 182.36 15.2002 217.286 24.6467C248.61 33.1187 279.049 41.3516 339.739 21.3697C468.101 -20.8924 622.135 15.7168 622.135 15.7168V218.787H622.141V429.92C622.141 429.92 470.856 391.491 287.095 410.706C203.754 419.42 150.64 413.265 105.502 408.035C51.1135 401.733 8.30725 396.773 -61.8394 420.785C-190.201 464.725 -268.995 429.92 -268.995 429.92V218.787Z"/>
</mask>
<path fill-rule="evenodd" clip-rule="evenodd" d="M-268.995 218.787H-269V15.7168C-269 15.7168 -86.2477 88.7148 66.046 34.1975C146.334 5.45638 182.36 15.2002 217.286 24.6467C248.61 33.1187 279.049 41.3516 339.739 21.3697C468.101 -20.8924 622.135 15.7168 622.135 15.7168V218.787H622.141V429.92C622.141 429.92 470.856 391.491 287.095 410.706C203.754 419.42 150.64 413.265 105.502 408.035C51.1135 401.733 8.30725 396.773 -61.8394 420.785C-190.201 464.725 -268.995 429.92 -268.995 429.92V218.787Z" fill="url(#paint2_linear_8445_143295)"/>
<path d="M-269 218.787H-269.649V219.437H-269V218.787ZM-268.995 218.787H-268.345V218.138H-268.995V218.787ZM-269 15.7168L-268.759 15.1138L-269.649 14.7583V15.7168H-269ZM66.046 34.1975L65.8271 33.5862L66.046 34.1975ZM217.286 24.6467L217.117 25.2735L217.286 24.6467ZM339.739 21.3697L339.536 20.753L339.739 21.3697ZM622.135 15.7168H622.785V15.2037L622.285 15.0851L622.135 15.7168ZM622.135 218.787H621.486V219.437H622.135V218.787ZM622.141 218.787H622.79V218.138H622.141V218.787ZM622.141 429.92L621.981 430.55L622.79 430.755V429.92H622.141ZM287.095 410.706L287.162 411.352L287.095 410.706ZM105.502 408.035L105.577 407.39L105.502 408.035ZM-61.8394 420.785L-61.6291 421.399L-61.8394 420.785ZM-268.995 429.92H-269.644V430.343L-269.257 430.514L-268.995 429.92ZM-269 219.437H-268.995V218.138H-269V219.437ZM-269.649 15.7168V218.787H-268.351V15.7168H-269.649ZM65.8271 33.5862C-10.1666 60.79 -93.7983 56.1879 -158.474 44.7617C-190.805 39.0499 -218.382 31.6359 -237.875 25.6502C-247.621 22.6575 -255.345 20.022 -260.632 18.1354C-263.275 17.1921 -265.308 16.436 -266.68 15.9161C-267.366 15.6562 -267.887 15.4552 -268.236 15.3195C-268.41 15.2516 -268.541 15.2 -268.629 15.1655C-268.672 15.1482 -268.705 15.1352 -268.727 15.1266C-268.738 15.1223 -268.746 15.119 -268.751 15.1169C-268.754 15.1158 -268.756 15.1151 -268.757 15.1145C-268.759 15.114 -268.759 15.1138 -269 15.7168C-269.241 16.3198 -269.24 16.3201 -269.238 16.3207C-269.237 16.3213 -269.235 16.3222 -269.232 16.3233C-269.226 16.3256 -269.218 16.3291 -269.206 16.3335C-269.184 16.3425 -269.15 16.3559 -269.105 16.3735C-269.016 16.4087 -268.883 16.461 -268.707 16.5296C-268.354 16.6667 -267.83 16.8691 -267.141 17.1304C-265.761 17.6532 -263.72 18.4122 -261.068 19.3585C-255.765 21.251 -248.022 23.8926 -238.256 26.8916C-218.724 32.8894 -191.094 40.3175 -158.7 46.0405C-93.9264 57.484 -10.0351 62.1223 66.2648 34.8088L65.8271 33.5862ZM217.456 24.0199C199.991 19.2963 182.18 14.4767 158.677 14.4525C135.176 14.4282 106.022 19.1974 65.8271 33.5862L66.2648 34.8088C106.358 20.4565 135.361 15.727 158.676 15.751C181.99 15.7751 199.655 20.5506 217.117 25.2735L217.456 24.0199ZM339.536 20.753C309.249 30.7248 286.543 33.646 267.521 33.0295C248.494 32.4127 233.121 28.2567 217.456 24.0199L217.117 25.2735C232.776 29.5087 248.283 33.7051 267.479 34.3274C286.68 34.9497 309.539 31.9965 339.942 21.9864L339.536 20.753ZM622.135 15.7168C622.285 15.0851 622.285 15.0849 622.283 15.0846C622.282 15.0843 622.28 15.0839 622.278 15.0833C622.273 15.0821 622.266 15.0804 622.256 15.0782C622.237 15.0737 622.209 15.067 622.171 15.0582C622.096 15.0406 621.984 15.0145 621.835 14.9803C621.538 14.912 621.096 14.8114 620.515 14.6822C619.352 14.4236 617.632 14.0503 615.397 13.5903C610.927 12.6704 604.401 11.404 596.17 10.0167C579.707 7.24218 556.42 3.98381 529.119 2.04729C474.527 -1.82497 403.832 -0.415787 339.536 20.753L339.942 21.9864C404.009 0.893099 474.512 -0.524178 529.027 3.34263C556.279 5.27564 579.524 8.52819 595.954 11.2972C604.169 12.6817 610.679 13.9452 615.135 14.8622C617.363 15.3208 619.077 15.6927 620.233 15.9498C620.811 16.0783 621.25 16.1782 621.544 16.2458C621.691 16.2796 621.801 16.3054 621.875 16.3226C621.912 16.3313 621.94 16.3378 621.958 16.3421C621.967 16.3443 621.974 16.3459 621.979 16.347C621.981 16.3475 621.982 16.3479 621.984 16.3481C621.985 16.3484 621.985 16.3485 622.135 15.7168ZM622.785 218.787V15.7168H621.486V218.787H622.785ZM622.141 218.138H622.135V219.437H622.141V218.138ZM622.79 429.92V218.787H621.491V429.92H622.79ZM287.162 411.352C378.982 401.751 462.694 406.551 523.452 413.752C553.83 417.353 578.467 421.554 595.508 424.853C604.028 426.503 610.649 427.928 615.138 428.94C617.383 429.446 619.095 429.849 620.245 430.125C620.82 430.263 621.255 430.369 621.545 430.441C621.69 430.477 621.8 430.504 621.872 430.522C621.909 430.531 621.936 430.538 621.954 430.543C621.963 430.545 621.97 430.547 621.974 430.548C621.977 430.549 621.978 430.549 621.979 430.549C621.98 430.549 621.981 430.55 622.141 429.92C622.3 429.291 622.3 429.291 622.299 429.29C622.297 429.29 622.295 429.29 622.293 429.289C622.288 429.288 622.281 429.286 622.272 429.284C622.253 429.279 622.225 429.272 622.188 429.263C622.114 429.244 622.003 429.217 621.857 429.18C621.564 429.108 621.126 429.001 620.548 428.862C619.393 428.585 617.675 428.18 615.424 427.673C610.922 426.659 604.289 425.231 595.755 423.579C578.687 420.273 554.018 416.068 523.605 412.463C462.78 405.253 378.968 400.446 287.027 410.06L287.162 411.352ZM105.427 408.68C150.58 413.912 203.751 420.073 287.162 411.352L287.027 410.06C203.758 418.767 150.699 412.619 105.577 407.39L105.427 408.68ZM-61.6291 421.399C8.37625 397.435 51.0634 402.381 105.427 408.68L105.577 407.39C51.1635 401.085 8.23825 396.11 -62.0496 420.17L-61.6291 421.399ZM-268.995 429.92C-269.257 430.514 -269.256 430.514 -269.255 430.515C-269.255 430.515 -269.253 430.516 -269.252 430.516C-269.249 430.518 -269.245 430.519 -269.24 430.522C-269.23 430.526 -269.214 430.533 -269.194 430.541C-269.154 430.559 -269.095 430.584 -269.017 430.617C-268.86 430.683 -268.628 430.779 -268.32 430.903C-267.705 431.15 -266.788 431.505 -265.578 431.941C-263.158 432.812 -259.562 434.005 -254.849 435.298C-245.423 437.884 -231.524 440.869 -213.611 442.477C-177.782 445.693 -125.901 443.4 -61.6291 421.399L-62.0496 420.17C-126.139 442.109 -177.836 444.384 -213.495 441.183C-231.325 439.583 -245.147 436.613 -254.506 434.046C-259.185 432.762 -262.748 431.579 -265.138 430.719C-266.333 430.289 -267.235 429.939 -267.837 429.698C-268.137 429.577 -268.363 429.484 -268.512 429.42C-268.587 429.389 -268.643 429.365 -268.68 429.349C-268.698 429.341 -268.712 429.335 -268.72 429.332C-268.725 429.33 -268.728 429.328 -268.73 429.327C-268.731 429.327 -268.731 429.327 -268.732 429.326C-268.732 429.326 -268.732 429.326 -268.995 429.92ZM-269.644 218.787V429.92H-268.345V218.787H-269.644Z" fill="#4AFF85" mask="url(#path-5-outside-3_8445_143295)"/>
</g>
<defs>
<linearGradient id="paint0_linear_8445_143295" x1="176.508" y1="110.352" x2="176.522" y2="401.608" gradientUnits="userSpaceOnUse">
<stop stop-color="#C7FFD8" stop-opacity="0.74"/>
<stop offset="0.0001" stop-color="#B4FFCA" stop-opacity="0.74"/>
<stop offset="0.401042" stop-color="#D7FFF4"/>
<stop offset="0.677083" stop-color="#DBFFE0"/>
<stop offset="1" stop-color="#9AFFA4"/>
</linearGradient>
<linearGradient id="paint1_linear_8445_143295" x1="176.496" y1="104.573" x2="177.296" y2="419.656" gradientUnits="userSpaceOnUse">
<stop stop-color="#B4FFCA" stop-opacity="0.74"/>
<stop offset="0.0001" stop-color="#B4FFCA" stop-opacity="0.74"/>
<stop offset="0.401042" stop-color="#C8FFF0"/>
<stop offset="0.677083" stop-color="#E7FFEA"/>
<stop offset="1" stop-color="#DFFFDA"/>
</linearGradient>
<linearGradient id="paint2_linear_8445_143295" x1="176.57" y1="100.425" x2="177.413" y2="432.248" gradientUnits="userSpaceOnUse">
<stop stop-color="#B4FFCA" stop-opacity="0.74"/>
<stop offset="0.0001" stop-color="#B4FFCA" stop-opacity="0.74"/>
<stop offset="0.401042" stop-color="#C8FFF0"/>
<stop offset="0.677083" stop-color="#E7FFEA"/>
<stop offset="1" stop-color="#DFFFDA"/>
</linearGradient>
</defs>
</svg>
