<svg width="834" height="538" viewBox="0 0 834 538" fill="none" xmlns="http://www.w3.org/2000/svg">
<mask id="path-1-outside-1_8445_143294" maskUnits="userSpaceOnUse" x="-96.4766" y="23.7031" width="937" height="486" fill="black">
<rect fill="white" x="-96.4766" y="23.7031" width="937" height="486"/>
<path fill-rule="evenodd" clip-rule="evenodd" d="M-95.4759 263.255H-95.4766V40.823C-95.4766 40.823 96.2681 120.781 256.055 61.0657C340.294 29.5844 378.093 40.2572 414.738 50.6044C447.602 59.8841 479.539 68.9019 543.216 47.0149C677.894 0.72347 839.507 40.823 839.507 40.823V263.255H839.508V494.517C839.508 494.517 680.779 452.425 487.976 473.471C400.535 483.016 344.806 476.274 297.448 470.546C240.383 463.642 195.471 458.209 121.872 484.511C-12.8054 532.64 -95.4759 494.517 -95.4759 494.517V263.255Z"/>
</mask>
<path fill-rule="evenodd" clip-rule="evenodd" d="M-95.4759 263.255H-95.4766V40.823C-95.4766 40.823 96.2681 120.781 256.055 61.0657C340.294 29.5844 378.093 40.2572 414.738 50.6044C447.602 59.8841 479.539 68.9019 543.216 47.0149C677.894 0.72347 839.507 40.823 839.507 40.823V263.255H839.508V494.517C839.508 494.517 680.779 452.425 487.976 473.471C400.535 483.016 344.806 476.274 297.448 470.546C240.383 463.642 195.471 458.209 121.872 484.511C-12.8054 532.64 -95.4759 494.517 -95.4759 494.517V263.255Z" fill="url(#paint0_linear_8445_143294)"/>
<path d="M-95.4766 263.255H-96.1259V263.904H-95.4766V263.255ZM-95.4759 263.255H-94.8266V262.605H-95.4759V263.255ZM-95.4766 40.823L-95.2267 40.2238L-96.1259 39.8488V40.823H-95.4766ZM256.055 61.0657L256.283 61.6739L256.055 61.0657ZM414.738 50.6044L414.561 51.2292L414.738 50.6044ZM543.216 47.0149L543.427 47.629L543.216 47.0149ZM839.507 40.823H840.156V40.3152L839.664 40.1928L839.507 40.823ZM839.507 263.255H838.858V263.904H839.507V263.255ZM839.508 263.255H840.157V262.605H839.508V263.255ZM839.508 494.517L839.341 495.145L840.157 495.361V494.517H839.508ZM487.976 473.471L488.046 474.116L487.976 473.471ZM297.448 470.546L297.526 469.901L297.448 470.546ZM121.872 484.511L121.654 483.899L121.872 484.511ZM-95.4759 494.517H-96.1252V494.933L-95.7478 495.107L-95.4759 494.517ZM-95.4766 263.904H-95.4759V262.605H-95.4766V263.904ZM-96.1259 40.823V263.255H-94.8273V40.823H-96.1259ZM255.828 60.4575C176.093 90.2558 88.3454 85.2146 20.487 72.699C-13.435 66.4425 -42.3691 58.3216 -62.8216 51.7651C-73.0475 48.487 -81.1521 45.6002 -86.6988 43.5337C-89.472 42.5004 -91.6058 41.6722 -93.0453 41.1027C-93.7651 40.8179 -94.3113 40.5978 -94.6771 40.4491C-94.86 40.3747 -94.9979 40.3182 -95.0897 40.2804C-95.1357 40.2615 -95.1701 40.2472 -95.193 40.2377C-95.2044 40.233 -95.2129 40.2295 -95.2186 40.2271C-95.2214 40.226 -95.2234 40.2251 -95.2248 40.2245C-95.2261 40.224 -95.2267 40.2238 -95.4766 40.823C-95.7265 41.4223 -95.7256 41.4227 -95.7239 41.4234C-95.7224 41.424 -95.7201 41.425 -95.717 41.4262C-95.711 41.4288 -95.702 41.4325 -95.6901 41.4374C-95.6664 41.4472 -95.6311 41.4619 -95.5842 41.4811C-95.4905 41.5197 -95.3509 41.577 -95.1662 41.6521C-94.7966 41.8023 -94.2467 42.0239 -93.523 42.3102C-92.0758 42.8828 -89.934 43.7141 -87.1521 44.7505C-81.5886 46.8234 -73.4648 49.7168 -63.218 53.0017C-42.725 59.5712 -13.7362 67.7075 20.2514 73.9761C88.2122 86.5106 176.23 91.5908 256.283 61.6739L255.828 60.4575ZM414.914 49.9795C396.59 44.8056 377.903 39.5266 353.245 39.5001C328.588 39.4735 298 44.6973 255.828 60.4575L256.283 61.6739C298.35 45.9528 328.78 40.7723 353.243 40.7987C377.705 40.825 396.24 46.056 414.561 51.2292L414.914 49.9795ZM543.005 46.4009C511.226 57.3238 487.402 60.5236 467.444 59.8482C447.48 59.1727 431.35 54.6203 414.914 49.9795L414.561 51.2292C430.99 55.8682 447.26 60.4645 467.4 61.1461C487.546 61.8278 511.529 58.593 543.427 47.629L543.005 46.4009ZM839.507 40.823C839.664 40.1928 839.663 40.1927 839.661 40.1923C839.66 40.192 839.658 40.1915 839.656 40.1909C839.65 40.1896 839.643 40.1877 839.633 40.1853C839.613 40.1804 839.583 40.173 839.544 40.1634C839.465 40.1441 839.347 40.1155 839.191 40.0781C838.88 40.0032 838.416 39.8931 837.806 39.7515C836.586 39.4684 834.781 39.0594 832.436 38.5556C827.747 37.548 820.9 36.1609 812.263 34.6413C794.991 31.6023 770.558 28.0333 741.914 25.9122C684.635 21.6707 610.462 23.2144 543.005 46.4009L543.427 47.629C610.647 24.524 684.62 22.9717 741.818 27.2072C770.411 29.3245 794.799 32.8872 812.038 35.9203C820.657 37.4367 827.488 38.8207 832.163 39.8252C834.501 40.3275 836.299 40.7349 837.512 41.0165C838.119 41.1573 838.579 41.2667 838.888 41.3407C839.042 41.3778 839.158 41.406 839.235 41.4249C839.274 41.4344 839.303 41.4415 839.322 41.4462C839.332 41.4486 839.339 41.4504 839.344 41.4515C839.346 41.4521 839.348 41.4525 839.349 41.4528C839.35 41.4531 839.351 41.4532 839.507 40.823ZM840.156 263.255V40.823H838.858V263.255H840.156ZM839.508 262.605H839.507V263.904H839.508V262.605ZM840.157 494.517V263.255H838.859V494.517H840.157ZM488.046 474.116C584.385 463.6 672.216 468.858 735.963 476.746C767.836 480.69 793.686 485.291 811.565 488.906C820.505 490.713 827.452 492.273 832.162 493.382C834.517 493.936 836.314 494.377 837.52 494.68C838.124 494.831 838.58 494.947 838.884 495.026C839.037 495.065 839.151 495.095 839.228 495.115C839.266 495.125 839.294 495.133 839.313 495.138C839.323 495.14 839.33 495.142 839.335 495.143C839.337 495.144 839.339 495.144 839.34 495.145C839.341 495.145 839.341 495.145 839.508 494.517C839.674 493.89 839.674 493.89 839.672 493.889C839.671 493.889 839.669 493.888 839.666 493.888C839.661 493.886 839.654 493.884 839.644 493.882C839.625 493.877 839.595 493.869 839.556 493.859C839.479 493.838 839.363 493.808 839.209 493.768C838.901 493.689 838.442 493.572 837.836 493.42C836.623 493.116 834.821 492.673 832.46 492.118C827.737 491.006 820.776 489.443 811.823 487.633C793.915 484.013 768.033 479.406 736.123 475.457C672.306 467.561 584.37 462.295 487.905 472.825L488.046 474.116ZM297.37 471.19C344.745 476.921 400.531 483.67 488.046 474.116L487.905 472.825C400.538 482.362 344.868 475.628 297.526 469.901L297.37 471.19ZM122.091 485.122C195.543 458.873 240.331 464.29 297.37 471.19L297.526 469.901C240.435 462.995 195.399 457.546 121.654 483.899L122.091 485.122ZM-95.4759 494.517C-95.7478 495.107 -95.7472 495.107 -95.7462 495.108C-95.7455 495.108 -95.7442 495.109 -95.7428 495.109C-95.7398 495.111 -95.7356 495.113 -95.7301 495.115C-95.7192 495.12 -95.7032 495.127 -95.6823 495.137C-95.6403 495.156 -95.5782 495.183 -95.4962 495.219C-95.3322 495.292 -95.0883 495.397 -94.7655 495.533C-94.1199 495.803 -93.1586 496.192 -91.889 496.669C-89.35 497.623 -85.578 498.93 -80.633 500.346C-70.7431 503.178 -56.161 506.448 -37.3665 508.209C0.225159 511.732 54.6579 509.221 122.091 485.122L121.654 483.899C54.4091 507.93 0.167717 510.422 -37.2453 506.916C-55.9532 505.163 -70.4561 501.91 -80.2755 499.098C-85.1853 497.692 -88.9241 496.396 -91.4322 495.454C-92.6862 494.982 -93.6325 494.599 -94.2637 494.335C-94.5793 494.203 -94.816 494.1 -94.9731 494.031C-95.0516 493.996 -95.1101 493.97 -95.1487 493.953C-95.1679 493.944 -95.1822 493.938 -95.1914 493.933C-95.196 493.931 -95.1994 493.93 -95.2015 493.929C-95.2025 493.928 -95.2032 493.928 -95.2037 493.928C-95.204 493.928 -95.204 493.928 -95.4759 494.517ZM-96.1252 263.255V494.517H-94.8266V263.255H-96.1252Z" fill="#4AFF85" mask="url(#path-1-outside-1_8445_143294)"/>
<g opacity="0.6">
<mask id="path-3-outside-2_8445_143294" maskUnits="userSpaceOnUse" x="-120.445" y="11.1094" width="985" height="511" fill="black">
<rect fill="white" x="-120.445" y="11.1094" width="985" height="511"/>
<path fill-rule="evenodd" clip-rule="evenodd" d="M863.471 262.89H863.468V506.007C863.468 506.007 696.603 461.757 493.916 483.882C401.992 493.916 343.407 486.829 293.621 480.807C233.631 473.55 186.416 467.838 109.045 495.488C-32.5369 546.084 -119.445 506.007 -119.445 506.007V262.89H-119.442V29.0556C-119.442 29.0556 82.1317 113.112 250.11 50.336C338.667 17.2409 378.403 28.4608 416.927 39.3384C451.476 49.0938 485.05 58.5738 551.991 35.5649C693.573 -13.0995 863.471 29.0556 863.471 29.0556V262.89Z"/>
</mask>
<path fill-rule="evenodd" clip-rule="evenodd" d="M863.471 262.89H863.468V506.007C863.468 506.007 696.603 461.757 493.916 483.882C401.992 493.916 343.407 486.829 293.621 480.807C233.631 473.55 186.416 467.838 109.045 495.488C-32.5369 546.084 -119.445 506.007 -119.445 506.007V262.89H-119.442V29.0556C-119.442 29.0556 82.1317 113.112 250.11 50.336C338.667 17.2409 378.403 28.4608 416.927 39.3384C451.476 49.0938 485.05 58.5738 551.991 35.5649C693.573 -13.0995 863.471 29.0556 863.471 29.0556V262.89Z" fill="url(#paint1_linear_8445_143294)"/>
<path d="M863.468 262.89V262.24H862.819V262.89H863.468ZM863.471 262.89V263.539H864.12V262.89H863.471ZM863.468 506.007L863.301 506.635L864.117 506.851V506.007H863.468ZM493.916 483.882L493.986 484.528L493.916 483.882ZM293.621 480.807L293.543 481.451L293.621 480.807ZM109.045 495.488L109.263 496.099L109.045 495.488ZM-119.445 506.007H-120.095V506.423L-119.717 506.597L-119.445 506.007ZM-119.445 262.89V262.24H-120.095V262.89H-119.445ZM-119.442 262.89V263.539H-118.793V262.89H-119.442ZM-119.442 29.0556L-119.192 28.4564L-120.092 28.0814V29.0556H-119.442ZM250.11 50.336L250.337 50.9442L250.11 50.336ZM416.927 39.3384L416.75 39.9632L416.927 39.3384ZM551.991 35.5649L551.78 34.9509L551.991 35.5649ZM863.471 29.0556H864.12V28.5478L863.627 28.4254L863.471 29.0556ZM863.468 263.539H863.471V262.24H863.468V263.539ZM864.117 506.007V262.89H862.819V506.007H864.117ZM493.986 484.528C595.266 473.472 687.602 478.999 754.62 487.292C788.127 491.438 815.303 496.275 834.1 500.075C843.498 501.975 850.801 503.616 855.753 504.781C858.229 505.364 860.118 505.828 861.387 506.146C862.021 506.305 862.5 506.427 862.821 506.51C862.981 506.551 863.102 506.583 863.182 506.604C863.222 506.614 863.252 506.622 863.272 506.627C863.282 506.63 863.289 506.632 863.294 506.633C863.297 506.634 863.299 506.634 863.3 506.635C863.301 506.635 863.301 506.635 863.468 506.007C863.634 505.38 863.634 505.38 863.632 505.379C863.631 505.379 863.629 505.378 863.626 505.378C863.621 505.376 863.613 505.374 863.603 505.371C863.582 505.366 863.551 505.358 863.51 505.347C863.429 505.326 863.307 505.294 863.145 505.252C862.822 505.169 862.34 505.046 861.702 504.886C860.428 504.567 858.533 504.101 856.051 503.517C851.086 502.349 843.769 500.705 834.357 498.802C815.532 494.997 788.324 490.154 754.779 486.003C687.692 477.702 595.252 472.167 493.845 483.237L493.986 484.528ZM293.543 481.451C343.345 487.476 401.988 494.57 493.986 484.528L493.845 483.237C401.996 493.263 343.469 486.183 293.699 480.162L293.543 481.451ZM109.263 496.099C186.488 468.502 233.579 474.197 293.543 481.451L293.699 480.162C233.683 472.902 186.344 467.174 108.826 494.876L109.263 496.099ZM-119.445 506.007C-119.717 506.597 -119.717 506.597 -119.716 506.598C-119.715 506.598 -119.714 506.599 -119.712 506.599C-119.709 506.601 -119.704 506.603 -119.699 506.605C-119.687 506.611 -119.671 506.618 -119.649 506.628C-119.605 506.648 -119.539 506.677 -119.453 506.715C-119.281 506.791 -119.025 506.902 -118.686 507.044C-118.007 507.328 -116.997 507.737 -115.663 508.238C-112.994 509.241 -109.03 510.615 -103.832 512.103C-93.4373 515.08 -78.1097 518.516 -58.354 520.368C-18.8399 524.071 38.3783 521.431 109.263 496.099L108.826 494.876C38.1296 520.141 -18.8973 522.761 -58.2328 519.075C-77.9019 517.232 -93.1503 513.811 -103.475 510.855C-108.637 509.376 -112.569 508.014 -115.206 507.023C-116.525 506.527 -117.52 506.124 -118.184 505.846C-118.516 505.707 -118.765 505.599 -118.93 505.527C-119.013 505.49 -119.074 505.463 -119.115 505.444C-119.135 505.435 -119.15 505.428 -119.16 505.424C-119.165 505.422 -119.168 505.42 -119.171 505.419C-119.172 505.418 -119.172 505.418 -119.173 505.418C-119.173 505.418 -119.173 505.418 -119.445 506.007ZM-120.095 262.89V506.007H-118.796V262.89H-120.095ZM-119.442 262.24H-119.445V263.539H-119.442V262.24ZM-120.092 29.0556V262.89H-118.793V29.0556H-120.092ZM249.883 49.7278C166.052 81.0566 73.7994 75.7561 2.45977 62.5984C-33.2028 56.0209 -63.6215 47.4832 -85.1235 40.5903C-95.8741 37.1439 -104.395 34.109 -110.226 31.9364C-113.142 30.8501 -115.385 29.9793 -116.899 29.3805C-117.655 29.0811 -118.23 28.8497 -118.614 28.6933C-118.807 28.6152 -118.952 28.5557 -119.048 28.5159C-119.097 28.496 -119.133 28.4811 -119.157 28.4711C-119.169 28.4661 -119.178 28.4624 -119.184 28.4599C-119.187 28.4587 -119.189 28.4578 -119.19 28.4572C-119.192 28.4566 -119.192 28.4564 -119.442 29.0556C-119.692 29.6549 -119.691 29.6553 -119.69 29.656C-119.688 29.6567 -119.685 29.6577 -119.682 29.659C-119.676 29.6617 -119.667 29.6656 -119.654 29.6707C-119.629 29.6811 -119.592 29.6964 -119.543 29.7167C-119.444 29.7572 -119.298 29.8174 -119.103 29.8963C-118.715 30.0542 -118.137 30.2871 -117.376 30.5881C-115.855 31.1899 -113.604 32.0638 -110.68 33.1533C-104.831 35.3322 -96.2915 38.3738 -85.5199 41.8269C-63.9774 48.7328 -33.504 57.2858 2.22424 63.8754C73.6662 77.052 166.19 82.3916 250.337 50.9442L249.883 49.7278ZM417.103 38.7135C397.84 33.2744 378.199 27.726 352.282 27.6981C326.365 27.6702 294.214 33.1607 249.883 49.7278L250.337 50.9442C294.563 34.4162 326.558 28.969 352.28 28.9967C378.001 29.0244 397.49 34.5248 416.75 39.9632L417.103 38.7135ZM551.78 34.9509C518.369 46.4348 493.32 49.7995 472.334 49.0894C451.342 48.379 434.381 43.5921 417.103 38.7135L416.75 39.9632C434.022 44.84 451.122 49.6709 472.29 50.3872C493.464 51.1037 518.672 47.704 552.202 36.179L551.78 34.9509ZM863.471 29.0556C863.627 28.4254 863.626 28.4252 863.625 28.4249C863.624 28.4246 863.622 28.424 863.619 28.4234C863.614 28.4221 863.606 28.4201 863.595 28.4175C863.574 28.4123 863.543 28.4046 863.501 28.3945C863.418 28.3742 863.295 28.3442 863.131 28.3049C862.803 28.2262 862.316 28.1104 861.675 27.9616C860.393 27.664 858.495 27.2341 856.03 26.7045C851.101 25.6453 843.903 24.1872 834.825 22.5898C816.668 19.3952 790.984 15.6434 760.872 13.4136C700.659 8.95486 622.69 10.5779 551.78 34.9509L552.202 36.179C622.874 11.8875 700.644 10.2559 760.776 14.7086C790.837 16.9346 816.476 20.68 834.6 23.8687C843.661 25.463 850.843 26.918 855.758 27.9741C858.215 28.5022 860.106 28.9305 861.381 29.2266C862.019 29.3746 862.503 29.4896 862.827 29.5675C862.99 29.6065 863.112 29.6361 863.193 29.656C863.234 29.666 863.264 29.6735 863.285 29.6784C863.295 29.6809 863.302 29.6828 863.307 29.684C863.31 29.6847 863.312 29.6851 863.313 29.6854C863.314 29.6857 863.315 29.6858 863.471 29.0556ZM864.12 262.89V29.0556H862.822V262.89H864.12Z" fill="#4AFF85" mask="url(#path-3-outside-2_8445_143294)"/>
</g>
<g opacity="0.4">
<mask id="path-5-outside-3_8445_143294" maskUnits="userSpaceOnUse" x="-146.473" y="0" width="1037" height="538" fill="black">
<rect fill="white" x="-146.473" width="1037" height="538"/>
<path fill-rule="evenodd" clip-rule="evenodd" d="M-145.471 265.104H-145.473V18.8466C-145.473 18.8466 66.8109 107.369 243.714 41.2576C336.976 6.40412 378.823 18.2202 419.393 29.6757C455.778 39.9494 491.136 49.9331 561.634 25.7017C710.738 -25.5482 889.662 18.8466 889.662 18.8466V265.104H889.664V521.139C889.664 521.139 713.933 474.537 500.478 497.838C403.67 508.405 341.973 500.942 289.541 494.599C226.364 486.956 176.64 480.941 95.1588 510.06C-53.9451 563.345 -145.471 521.139 -145.471 521.139V265.104Z"/>
</mask>
<path fill-rule="evenodd" clip-rule="evenodd" d="M-145.471 265.104H-145.473V18.8466C-145.473 18.8466 66.8109 107.369 243.714 41.2576C336.976 6.40412 378.823 18.2202 419.393 29.6757C455.778 39.9494 491.136 49.9331 561.634 25.7017C710.738 -25.5482 889.662 18.8466 889.662 18.8466V265.104H889.664V521.139C889.664 521.139 713.933 474.537 500.478 497.838C403.67 508.405 341.973 500.942 289.541 494.599C226.364 486.956 176.64 480.941 95.1588 510.06C-53.9451 563.345 -145.471 521.139 -145.471 521.139V265.104Z" fill="url(#paint2_linear_8445_143294)"/>
<path d="M-145.473 265.104H-146.122V265.753H-145.473V265.104ZM-145.471 265.104H-144.822V264.455H-145.471V265.104ZM-145.473 18.8466L-145.223 18.2473L-146.122 17.8724V18.8466H-145.473ZM243.714 41.2576L243.487 40.6494L243.714 41.2576ZM419.393 29.6757L419.57 29.0508L419.393 29.6757ZM561.634 25.7017L561.845 26.3158L561.634 25.7017ZM889.662 18.8466H890.312V18.3387L889.819 18.2164L889.662 18.8466ZM889.662 265.104H889.013V265.753H889.662V265.104ZM889.664 265.104H890.313V264.455H889.664V265.104ZM889.664 521.139L889.498 521.766L890.313 521.983V521.139H889.664ZM500.478 497.838L500.407 497.192L500.478 497.838ZM289.541 494.599L289.619 493.954L289.541 494.599ZM95.1588 510.06L95.3773 510.672L95.1588 510.06ZM-145.471 521.139H-146.12V521.554L-145.743 521.728L-145.471 521.139ZM-145.473 265.753H-145.471V264.455H-145.473V265.753ZM-146.122 18.8466V265.104H-144.823V18.8466H-146.122ZM243.487 40.6494C155.194 73.6459 58.0324 68.0627 -17.1003 54.2054C-54.6593 47.2781 -86.6956 38.2864 -109.341 31.027C-120.663 27.3973 -129.637 24.201 -135.779 21.9127C-138.85 20.7686 -141.212 19.8515 -142.807 19.2209C-143.604 18.9055 -144.209 18.6618 -144.614 18.497C-144.816 18.4147 -144.969 18.3521 -145.071 18.3101C-145.122 18.2892 -145.16 18.2734 -145.185 18.2629C-145.198 18.2576 -145.207 18.2537 -145.214 18.2511C-145.217 18.2498 -145.219 18.2489 -145.221 18.2482C-145.222 18.2476 -145.223 18.2473 -145.473 18.8466C-145.723 19.4459 -145.722 19.4463 -145.72 19.447C-145.718 19.4477 -145.716 19.4488 -145.712 19.4502C-145.706 19.453 -145.696 19.4571 -145.682 19.4625C-145.656 19.4734 -145.617 19.4896 -145.565 19.5109C-145.462 19.5536 -145.307 19.6169 -145.103 19.7C-144.694 19.8662 -144.085 20.1115 -143.284 20.4284C-141.682 21.0621 -139.312 21.9823 -136.232 23.1296C-130.074 25.4242 -121.081 28.6272 -109.737 32.2636C-87.0515 39.536 -54.9605 48.543 -17.3358 55.4824C57.8991 69.3586 155.331 74.9808 243.941 41.8658L243.487 40.6494ZM419.57 29.0508C399.284 23.3227 378.603 17.4808 351.314 17.4515C324.026 17.4221 290.17 23.2031 243.487 40.6494L243.941 41.8658C290.52 24.4586 324.219 18.7209 351.312 18.7501C378.405 18.7792 398.933 24.5731 419.217 30.3005L419.57 29.0508ZM561.423 25.0877C526.234 37.1828 499.849 40.7272 477.743 39.9792C455.632 39.2309 437.766 34.1886 419.57 29.0508L419.217 30.3005C437.406 35.4365 455.412 40.5228 477.699 41.277C499.993 42.0314 526.536 38.452 561.845 26.3158L561.423 25.0877ZM889.662 18.8466C889.819 18.2164 889.818 18.2162 889.816 18.2158C889.815 18.2155 889.813 18.2149 889.81 18.2143C889.804 18.2129 889.796 18.2108 889.785 18.2081C889.763 18.2026 889.73 18.1945 889.686 18.1839C889.599 18.1625 889.469 18.1309 889.296 18.0895C888.952 18.0067 888.438 17.8848 887.763 17.7281C886.413 17.4146 884.415 16.962 881.819 16.4043C876.628 15.2889 869.049 13.7534 859.488 12.0712C840.367 8.70701 813.32 4.75604 781.61 2.4079C718.2 -2.28755 636.093 -0.578069 561.423 25.0877L561.845 26.3158C636.278 0.731555 718.185 -0.986527 781.514 3.70295C813.173 6.04727 840.176 9.9919 859.263 13.3502C868.806 15.0293 876.37 16.5616 881.547 17.6739C884.135 18.23 886.126 18.6811 887.47 18.993C888.141 19.149 888.651 19.2701 888.993 19.3521C889.164 19.3932 889.292 19.4244 889.378 19.4454C889.421 19.4559 889.453 19.4638 889.474 19.469C889.485 19.4716 889.493 19.4736 889.498 19.4749C889.501 19.4756 889.503 19.476 889.504 19.4764C889.505 19.4767 889.506 19.4768 889.662 18.8466ZM890.312 265.104V18.8466H889.013V265.104H890.312ZM889.664 264.455H889.662V265.753H889.664V264.455ZM890.313 521.139V265.104H889.015V521.139H890.313ZM500.548 498.483C607.213 486.84 704.457 492.661 775.037 501.395C810.326 505.761 838.946 510.856 858.742 514.858C868.64 516.859 876.332 518.586 881.547 519.814C884.155 520.427 886.144 520.916 887.481 521.251C888.149 521.418 888.654 521.547 888.991 521.634C889.16 521.678 889.287 521.711 889.372 521.733C889.414 521.744 889.446 521.752 889.467 521.758C889.477 521.761 889.485 521.763 889.49 521.764C889.493 521.765 889.495 521.765 889.496 521.766C889.497 521.766 889.498 521.766 889.664 521.139C889.83 520.511 889.83 520.511 889.828 520.51C889.827 520.51 889.825 520.509 889.822 520.509C889.816 520.507 889.808 520.505 889.797 520.502C889.776 520.497 889.743 520.488 889.7 520.477C889.614 520.454 889.486 520.421 889.316 520.377C888.975 520.289 888.467 520.159 887.796 519.991C886.454 519.655 884.459 519.165 881.845 518.55C876.617 517.319 868.912 515.589 859 513.585C839.175 509.577 810.522 504.477 775.196 500.106C704.547 491.364 607.198 485.535 500.407 497.192L500.548 498.483ZM289.463 495.244C341.911 501.588 403.667 509.059 500.548 498.483L500.407 497.192C403.674 507.752 342.034 500.295 289.619 493.954L289.463 495.244ZM95.3773 510.672C176.713 481.605 226.312 487.604 289.463 495.244L289.619 493.954C226.416 486.309 176.568 480.278 94.9403 509.449L95.3773 510.672ZM-145.471 521.139C-145.743 521.728 -145.742 521.729 -145.741 521.729C-145.74 521.729 -145.739 521.73 -145.737 521.731C-145.734 521.732 -145.73 521.734 -145.724 521.737C-145.712 521.743 -145.694 521.75 -145.671 521.761C-145.625 521.782 -145.556 521.812 -145.465 521.852C-145.284 521.932 -145.015 522.049 -144.658 522.198C-143.944 522.498 -142.88 522.928 -141.475 523.456C-138.666 524.512 -134.492 525.958 -129.019 527.525C-118.073 530.659 -101.934 534.278 -81.1306 536.228C-39.5219 540.127 20.7312 537.348 95.3773 510.672L94.9403 509.449C20.4824 536.058 -39.5793 538.817 -81.0095 534.935C-101.726 532.993 -117.786 529.391 -128.662 526.277C-134.099 524.719 -138.24 523.284 -141.019 522.24C-142.408 521.718 -143.456 521.294 -144.156 521.001C-144.506 520.854 -144.768 520.74 -144.942 520.664C-145.029 520.625 -145.094 520.596 -145.137 520.577C-145.159 520.567 -145.175 520.56 -145.185 520.555C-145.19 520.553 -145.194 520.551 -145.196 520.55C-145.197 520.55 -145.198 520.549 -145.199 520.549C-145.199 520.549 -145.199 520.549 -145.471 521.139ZM-146.12 265.104V521.139H-144.822V265.104H-146.12Z" fill="#4AFF85" mask="url(#path-5-outside-3_8445_143294)"/>
</g>
<defs>
<linearGradient id="paint0_linear_8445_143294" x1="372.016" y1="133.607" x2="372.034" y2="486.804" gradientUnits="userSpaceOnUse">
<stop stop-color="#C7FFD8" stop-opacity="0.74"/>
<stop offset="0.0001" stop-color="#B4FFCA" stop-opacity="0.74"/>
<stop offset="0.401042" stop-color="#D7FFF4"/>
<stop offset="0.677083" stop-color="#DBFFE0"/>
<stop offset="1" stop-color="#9AFFA4"/>
</linearGradient>
<linearGradient id="paint1_linear_8445_143294" x1="372.013" y1="126.596" x2="373.026" y2="508.687" gradientUnits="userSpaceOnUse">
<stop stop-color="#B4FFCA" stop-opacity="0.74"/>
<stop offset="0.0001" stop-color="#B4FFCA" stop-opacity="0.74"/>
<stop offset="0.401042" stop-color="#C8FFF0"/>
<stop offset="0.677083" stop-color="#E7FFEA"/>
<stop offset="1" stop-color="#DFFFDA"/>
</linearGradient>
<linearGradient id="paint2_linear_8445_143294" x1="372.096" y1="121.569" x2="373.162" y2="523.961" gradientUnits="userSpaceOnUse">
<stop stop-color="#B4FFCA" stop-opacity="0.74"/>
<stop offset="0.0001" stop-color="#B4FFCA" stop-opacity="0.74"/>
<stop offset="0.401042" stop-color="#C8FFF0"/>
<stop offset="0.677083" stop-color="#E7FFEA"/>
<stop offset="1" stop-color="#DFFFDA"/>
</linearGradient>
</defs>
</svg>
