<svg width="851" height="471" viewBox="0 0 851 471" fill="none" xmlns="http://www.w3.org/2000/svg">
<path d="M698.018 5.90003V5.58121L698.307 5.44671L698.518 5.90003C698.307 5.44671 698.307 5.44664 698.307 5.44652L698.308 5.44599L698.313 5.44396L698.33 5.43606L698.395 5.40562C698.453 5.37911 698.536 5.34054 698.641 5.2922C698.851 5.19552 699.148 5.0597 699.494 4.903C700.185 4.58993 701.076 4.1922 701.871 3.85669C702.269 3.68904 702.645 3.53553 702.962 3.41546C703.268 3.29936 703.55 3.20249 703.742 3.16251C703.792 3.15216 703.854 3.14174 703.918 3.13931L703.919 3.13926C703.958 3.13776 704.108 3.13201 704.253 3.22242C704.346 3.28036 704.44 3.37977 704.48 3.52353C704.518 3.65597 704.494 3.7696 704.472 3.83651C704.432 3.9561 704.358 4.03922 704.327 4.073C704.19 4.22089 703.911 4.41697 703.533 4.65929C702.766 5.14959 701.351 5.97363 699.018 7.26448V439.222C700.032 439.363 700.857 439.53 701.519 439.717C702.322 439.945 702.927 440.213 703.345 440.531C703.772 440.857 704.035 441.264 704.053 441.742C704.071 442.198 703.861 442.608 703.597 442.944C703.33 443.286 702.966 443.605 702.574 443.892C701.789 444.469 700.816 444.979 700.052 445.34C699.668 445.522 699.331 445.669 699.09 445.771C698.969 445.822 698.872 445.861 698.805 445.888C698.771 445.902 698.745 445.912 698.727 445.919L698.706 445.927L698.701 445.93L698.699 445.93C698.699 445.93 698.698 445.931 698.518 445.464L698.698 445.931L698.018 446.194V445.464V440.104C694.153 439.669 687.762 439.554 677.593 440.04C663.822 440.697 643.184 442.451 612.631 445.961C490.355 460.008 389.887 460.137 234.432 435.514C211.33 431.854 193.913 429.516 181.002 428.184V445.464V446.166L180.338 445.937L180.502 445.464C180.338 445.937 180.338 445.937 180.337 445.936L180.333 445.935L180.319 445.93L180.264 445.911L180.05 445.836C179.862 445.77 179.586 445.673 179.233 445.548C178.527 445.296 177.512 444.931 176.275 444.475C173.802 443.563 170.442 442.287 166.896 440.833C163.351 439.38 159.614 437.745 156.388 436.115C153.177 434.493 150.421 432.85 148.881 431.372C148.125 430.645 147.567 429.871 147.506 429.084C147.438 428.211 147.98 427.537 148.897 427.063C149.802 426.594 151.177 426.254 153.063 426.038C154.96 425.82 157.416 425.723 160.515 425.767C165.326 425.835 171.713 426.243 180.002 427.077V2V1.30108L180.663 1.52679L180.502 2C180.663 1.52679 180.664 1.52695 180.665 1.52731L180.669 1.529L180.69 1.53585L180.771 1.56326C180.843 1.58757 180.95 1.62384 181.093 1.67156C181.378 1.767 181.804 1.90823 182.363 2.09106C183.48 2.45673 185.131 2.9888 187.264 3.6538C191.53 4.9838 197.721 6.84545 205.422 8.97091C220.823 13.222 242.258 18.5276 266.39 22.7459C314.685 31.1875 373.675 35.2538 416.765 17.9046C460.168 0.429135 505.912 10.5251 546.024 22.1776C551.616 23.8019 557.095 25.4558 562.444 27.0702C576.308 31.2545 589.292 35.1732 601.06 37.6234C617.377 41.0207 631.209 41.5582 641.697 36.1581C674.329 19.3553 690.54 10.7939 698.018 6.67463V5.90003Z" fill="url(#paint0_linear_7544_142312)" stroke="#4AFF85"/>
<path opacity="0.6" d="M67.4534 17.0198L67.3658 16.5276L66.9534 16.601V17.0198L66.9534 436.973L66.8543 436.951C66.6834 436.913 66.4831 436.867 66.2549 436.816C65.4081 436.626 64.1766 436.351 62.6372 436.009C59.5586 435.325 55.2487 434.376 50.3232 433.315C40.4737 431.193 28.1577 428.622 18.3045 426.828C13.3798 425.932 9.06028 425.228 5.96895 424.872C4.42708 424.695 3.17063 424.602 2.29156 424.618C1.85818 424.626 1.47911 424.662 1.19444 424.744C1.05375 424.784 0.895401 424.847 0.763794 424.957C0.617959 425.078 0.497513 425.266 0.500036 425.509C0.502271 425.724 0.601521 425.898 0.692822 426.017C0.788112 426.141 0.913745 426.257 1.05239 426.365C1.33063 426.582 1.72969 426.821 2.24143 427.085C3.26981 427.615 4.83267 428.284 6.9956 429.11C11.326 430.766 18.117 433.073 27.978 436.184C37.8954 439.314 51.734 441.249 68.6432 442.34C85.5597 443.431 105.58 443.68 127.877 443.425C158.348 443.075 193.091 441.784 229.994 440.413C247.093 439.777 264.656 439.125 282.473 438.54C395.049 434.849 517.742 433.895 597.968 457.229C678.403 480.625 741.491 469.331 784.477 452.174C805.966 443.596 822.429 433.555 833.521 425.656C839.067 421.706 843.272 418.291 846.091 415.862C847.501 414.647 848.565 413.679 849.277 413.013C849.44 412.861 849.585 412.725 849.711 412.605C849.86 412.462 849.984 412.343 850.082 412.249C850.171 412.161 850.239 412.095 850.285 412.05L850.336 411.998L850.35 411.985L850.353 411.982C850.354 411.981 850.355 411.98 850 411.628L850.355 411.98L850.5 411.834V411.628L850.5 17.0198V16.6156L850.105 16.5309L850 17.0198C850.105 16.5309 850.104 16.5308 850.104 16.5307L850.102 16.5303L850.097 16.5292L850.08 16.5258L850.06 16.522L850.018 16.5142C849.965 16.5043 849.885 16.4904 849.775 16.473C849.555 16.4383 849.214 16.3899 848.722 16.333C847.737 16.2191 846.144 16.0711 843.694 15.9315C838.796 15.6522 830.467 15.4061 816.725 15.5354C789.242 15.7941 740.094 17.5548 653.417 23.5612C598.13 27.3924 547.493 34.7722 499.214 41.8083C471.802 45.8034 445.15 49.6876 418.838 52.7487C346.157 61.2043 275.98 63.3955 199.25 44.3753C139.042 29.4505 106.111 22.4874 88.2275 19.2554C79.2861 17.6394 74.0997 16.9549 71.1426 16.6749C69.6639 16.5348 68.738 16.4954 68.1759 16.4919C67.8946 16.4901 67.7025 16.4973 67.5764 16.5057C67.5132 16.5099 67.466 16.5144 67.4321 16.5183C67.4151 16.5202 67.4013 16.5221 67.3904 16.5237L67.3761 16.5258L67.3705 16.5268L67.368 16.5272C67.3669 16.5274 67.3658 16.5276 67.4534 17.0198Z" fill="url(#paint1_linear_7544_142312)" stroke="#4AFF85"/>
<g opacity="0.2">
<path d="M455.201 265.557L446.484 247.775C486.283 227.736 510.54 215.083 549.054 192.993C562.906 185.059 571.42 173.706 573.041 160.985C574.258 151.342 571.285 141.904 565.068 135.748C553.311 124.19 531.351 119.129 511.621 123.369C504.121 125.011 497.296 127.473 491.283 130.824L481.823 113.384C489.526 109.076 498.175 105.929 507.567 103.878C534.122 98.1327 562.095 105.04 578.785 121.454C589.393 131.918 594.596 147.649 592.569 163.447C590.136 182.46 578.177 199.08 558.784 210.159C519.932 232.455 495.472 245.244 455.268 265.42L455.201 265.557Z" fill="#DCDC00"/>
<path d="M395.732 265.553C355.596 245.377 331.136 232.588 292.216 210.292C272.824 199.212 260.864 182.593 258.431 163.58C256.404 147.713 261.607 132.051 272.216 121.587C288.905 105.173 316.811 98.2655 343.433 104.01C352.825 105.994 361.474 109.208 369.177 113.517L359.718 130.957C353.704 127.606 346.879 125.075 339.379 123.502C319.649 119.262 297.689 124.391 285.932 135.881C279.716 142.037 276.743 151.406 277.959 161.118C279.581 173.771 288.094 185.124 301.946 193.125C340.393 215.216 364.65 227.869 404.516 247.908L395.799 265.69L395.732 265.553Z" fill="#DCDC00"/>
<path d="M445.6 327.793C446.816 308.643 455.195 290.656 469.114 277.661C500.128 248.595 520.331 209.611 526.21 167.208L539.251 73.3741C539.994 67.9027 535.805 63.0469 530.399 63.0469H319.313C313.84 63.0469 309.719 67.9027 310.462 73.3741L323.503 167.208C329.381 209.611 349.584 248.595 380.599 277.661C394.518 290.724 402.964 308.643 404.113 327.793V331.418C404.113 362.741 385.193 390.919 356.409 402.409H424.856H493.304C464.519 390.919 445.6 362.741 445.6 331.418V327.793V327.793Z" fill="#FCEB00"/>
<path d="M502.419 398.852H347.213C342.585 398.852 338.834 402.648 338.834 407.332C338.834 412.016 342.585 415.813 347.213 415.813H502.419C507.046 415.813 510.797 412.016 510.797 407.332C510.797 402.648 507.046 398.852 502.419 398.852Z" fill="url(#paint2_linear_7544_142312)"/>
<path d="M542.488 56H307.279C301.57 56 296.941 60.685 296.941 66.4641V66.5325C296.941 72.3116 301.57 76.9964 307.279 76.9964H542.488C548.197 76.9964 552.826 72.3116 552.826 66.5325V66.4641C552.826 60.685 548.197 56 542.488 56Z" fill="url(#paint3_linear_7544_142312)"/>
<path d="M444.247 321.836H405.395C401.178 321.836 397.76 325.296 397.76 329.564C397.76 333.832 401.178 337.293 405.395 337.293H444.247C448.464 337.293 451.883 333.832 451.883 329.564C451.883 325.296 448.464 321.836 444.247 321.836Z" fill="#00953C"/>
<path d="M355.255 88.9688H333.363C330.39 88.9688 328.025 91.4992 328.16 94.5085C329.376 116.12 335.863 195.387 365.593 235.875C369.039 240.594 376.404 236.833 374.715 231.224C367.755 208.587 359.512 166.389 360.39 94.3033C360.39 91.3625 358.093 89.0371 355.187 89.0371L355.255 88.9688Z" fill="white"/>
<path d="M408.64 358.093C406.546 365.89 401.411 381.209 392.086 389.553C390.735 390.716 391.613 392.973 393.37 392.973H400.329C404.451 392.973 408.032 390.1 408.911 386.065C410.127 380.525 411.276 371.429 410.262 358.298C410.195 357.341 408.911 357.204 408.64 358.161V358.093Z" fill="#FBEFB7"/>
<path d="M416.743 113.453L438.365 143.614L475.19 142.657L453.568 172.817L465.798 208.04L430.797 196.481L401.54 219.119V181.845L371.201 160.712L406.202 149.154L416.743 113.453Z" fill="#93C200"/>
<path d="M416.75 113.453L438.372 143.614L475.197 142.657L453.575 172.817L465.805 208.04L430.804 196.481L416.75 113.453Z" fill="#26AC63"/>
</g>
<defs>
<linearGradient id="paint0_linear_7544_142312" x1="445.257" y1="3.91717" x2="445.257" y2="465.961" gradientUnits="userSpaceOnUse">
<stop stop-color="#BAFFD9" stop-opacity="0.31"/>
<stop offset="0.546875" stop-color="#C8FFE1"/>
<stop offset="1" stop-color="#ECFFE9"/>
</linearGradient>
<linearGradient id="paint1_linear_7544_142312" x1="460.592" y1="-0.121094" x2="460.592" y2="441.966" gradientUnits="userSpaceOnUse">
<stop stop-color="#BAFFD9" stop-opacity="0.31"/>
<stop offset="0.546875" stop-color="#BAFFD9"/>
<stop offset="1" stop-color="#ECFFE9"/>
</linearGradient>
<linearGradient id="paint2_linear_7544_142312" x1="338.834" y1="407.332" x2="510.865" y2="407.332" gradientUnits="userSpaceOnUse">
<stop stop-color="#008B3E"/>
<stop offset="0.44" stop-color="#009340"/>
<stop offset="1" stop-color="#00A547"/>
</linearGradient>
<linearGradient id="paint3_linear_7544_142312" x1="296.941" y1="66.464" x2="552.758" y2="66.464" gradientUnits="userSpaceOnUse">
<stop stop-color="#008B3E"/>
<stop offset="0.44" stop-color="#009340"/>
<stop offset="1" stop-color="#00A547"/>
</linearGradient>
</defs>
</svg>
