<svg width="375" height="1010" viewBox="0 0 375 1010" fill="none" xmlns="http://www.w3.org/2000/svg">
<path d="M755 2L754.895 1.51121L755.5 1.38082V2L755.5 894.846V895.326L755.02 895.345L755 894.846C755.02 895.345 755.019 895.345 755.017 895.346L755.009 895.346L754.975 895.347L754.842 895.352C754.725 895.357 754.549 895.364 754.316 895.373C753.85 895.39 753.156 895.416 752.244 895.448C750.42 895.513 747.724 895.604 744.234 895.709C737.255 895.921 727.102 896.192 714.405 896.43C689.01 896.905 653.437 897.247 612.725 896.714C531.306 895.647 429.306 891.08 347.042 877.07C282.59 866.093 219.965 872.983 149.403 880.745C130.039 882.875 110.077 885.071 89.3154 886.982C-7.07147 895.852 -120.552 898.542 -271.125 859.811C-421.476 821.136 -524.464 858.021 -589.863 904.536C-622.57 927.799 -645.886 953.478 -661.024 973.341C-668.593 983.272 -674.117 991.748 -677.747 997.738C-679.562 1000.73 -680.903 1003.11 -681.791 1004.73C-682.041 1005.19 -682.255 1005.59 -682.434 1005.92C-682.571 1006.18 -682.688 1006.4 -682.783 1006.59C-682.892 1006.8 -682.974 1006.96 -683.028 1007.06L-683.088 1007.18L-683.103 1007.21L-683.107 1007.22C-683.107 1007.22 -683.108 1007.22 -683.556 1007L-683.108 1007.22L-683.669 1008.35L-684.034 1007.14L-864.479 410.155L-864.574 409.841L-864.323 409.629L-864 410.011C-864.323 409.629 -864.32 409.627 -864.316 409.623L-864.295 409.606L-864.214 409.538L-863.893 409.267C-863.735 409.135 -863.535 408.967 -863.292 408.764C-863.095 408.6 -862.871 408.413 -862.62 408.204C-861.494 407.267 -859.819 405.88 -857.62 404.079C-853.224 400.477 -846.734 395.22 -838.361 388.597C-821.616 375.35 -797.336 356.641 -767.198 334.786C-706.924 291.075 -623.212 234.777 -529.465 184.429C-435.722 134.084 -331.923 89.6777 -231.48 69.7696C-131.039 49.8619 -33.897 54.4412 46.4741 102.142C85.0825 125.057 116.965 132.078 146.862 129.759C176.779 127.439 204.755 115.764 235.562 101.183C240.953 98.6315 246.429 95.9917 252.016 93.2987C310.277 65.2132 380.573 31.3267 491.581 31.3267C554.027 31.3267 619.855 23.8738 670.078 16.4188C695.188 12.6915 716.394 8.96427 731.322 6.16896C738.785 4.77132 744.68 3.60668 748.707 2.79155C750.721 2.38399 752.269 2.0638 753.312 1.84556C753.834 1.73643 754.23 1.6528 754.495 1.59647L754.795 1.53268L754.87 1.51657L754.889 1.51254L754.893 1.51153C754.894 1.51132 754.895 1.51121 755 2Z" fill="url(#paint0_linear_6772_185014)" stroke="#4AFF85"/>
<defs>
<linearGradient id="paint0_linear_6772_185014" x1="158.154" y1="-0.74358" x2="158.154" y2="1055.65" gradientUnits="userSpaceOnUse">
<stop stop-color="#BAFFD9" stop-opacity="0.31"/>
<stop offset="0.546875" stop-color="#C8FFE1"/>
<stop offset="1" stop-color="#ECFFE9"/>
</linearGradient>
</defs>
</svg>
