<svg width="1913" height="466" viewBox="0 0 1913 466" fill="none" xmlns="http://www.w3.org/2000/svg">
<path d="M1893.18 5.98613V5.55225L1893.61 5.49112L1893.68 5.98613C1893.61 5.49112 1893.61 5.49106 1893.61 5.49094L1893.61 5.49043L1893.63 5.4884L1893.69 5.4804L1893.9 5.44948C1894.09 5.42252 1894.37 5.38324 1894.72 5.33399C1895.42 5.23548 1896.41 5.09704 1897.56 4.93733C1899.87 4.61794 1902.83 4.21329 1905.47 3.87261C1908.1 3.53301 1910.43 3.25403 1911.45 3.18955C1911.58 3.18139 1911.69 3.17625 1911.78 3.17516C1911.86 3.17421 1911.97 3.17534 1912.06 3.19223C1912.08 3.19702 1912.12 3.20568 1912.16 3.22224C1912.2 3.2356 1912.29 3.27196 1912.36 3.35676C1912.46 3.46459 1912.53 3.63407 1912.49 3.82116C1912.45 3.96656 1912.36 4.05301 1912.33 4.0839C1912.26 4.14979 1912.18 4.18501 1912.15 4.19761C1912.11 4.2162 1912.06 4.23252 1912.02 4.24684C1911.7 4.35268 1910.93 4.52429 1909.63 4.77818C1907.04 5.28473 1902.21 6.14477 1894.18 7.50201V448.841C1897.95 448.99 1900.95 449.171 1903.3 449.374C1905.9 449.598 1907.72 449.853 1908.91 450.131C1909.5 450.269 1909.97 450.42 1910.3 450.589C1910.6 450.74 1910.95 450.99 1911 451.406C1911.06 451.845 1910.75 452.15 1910.52 452.317C1910.27 452.505 1909.92 452.674 1909.52 452.829C1908.72 453.141 1907.61 453.442 1906.35 453.723C1903.84 454.288 1900.69 454.795 1898.16 455.16C1896.9 455.343 1895.8 455.49 1895.01 455.592C1894.61 455.643 1894.29 455.682 1894.08 455.709C1893.97 455.723 1893.88 455.733 1893.83 455.74L1893.76 455.748L1893.74 455.75L1893.74 455.75C1893.74 455.75 1893.74 455.75 1893.68 455.254L1893.74 455.75L1893.18 455.816V455.254V449.803C1862.98 448.686 1785.78 449.454 1606.5 455.753C1198.02 470.106 862.421 470.238 343.071 445.078C265.077 441.3 206.443 438.897 163.111 437.542V455.254V455.809L162.559 455.751L162.611 455.254C162.559 455.751 162.557 455.751 162.555 455.751L162.543 455.749L162.497 455.744L162.315 455.725L161.602 455.649C160.976 455.582 160.056 455.483 158.878 455.354C156.523 455.098 153.136 454.725 149.009 454.26C140.757 453.329 129.547 452.027 117.718 450.544C94.0839 447.58 67.9073 443.882 57.9609 440.961C56.7141 440.595 55.6998 440.235 54.9694 439.881C54.605 439.705 54.293 439.521 54.0541 439.328C53.8245 439.141 53.6063 438.901 53.5288 438.595C53.4404 438.247 53.5615 437.933 53.7787 437.696C53.9783 437.477 54.2697 437.306 54.6023 437.163C55.2747 436.875 56.3014 436.625 57.6864 436.406C63.2368 435.527 75.1769 435.043 95.8013 435.133C112.085 435.203 133.806 435.631 162.111 436.511V2V1.4451L162.663 1.5027L162.611 2C162.663 1.5027 162.665 1.5029 162.669 1.50329L162.686 1.50507L162.754 1.51219L163.027 1.54043C163.269 1.56541 163.63 1.60264 164.109 1.65157C165.066 1.74942 166.49 1.89407 168.361 2.08126C172.101 2.45562 177.626 3.00009 184.76 3.68043C199.028 5.04112 219.734 6.94531 245.485 9.11918C296.985 13.4669 368.662 18.8933 449.367 23.2079C610.787 31.8377 808.287 36.0175 952.702 18.2335C1097.22 0.436586 1249.63 10.7063 1383.67 22.6157C1402.31 24.2722 1420.6 25.9602 1438.46 27.609C1484.81 31.8882 1528.3 35.9024 1567.69 38.4111C1622.27 41.8867 1668.95 42.4687 1704.49 36.8726C1814.12 19.6062 1868.33 10.8484 1893.18 6.65675V5.98613Z" fill="url(#paint0_linear_7544_142370)" stroke="#4AFF85"/>
<path opacity="0.6" d="M148.037 14.4538L147.574 14.4886V14.9524L147.574 407.19L147.377 407.171C146.887 407.124 146.163 407.056 145.226 406.967C143.353 406.789 140.628 406.532 137.222 406.213C130.41 405.574 120.873 404.688 109.974 403.697C88.1771 401.716 60.9307 399.316 39.1383 397.642C28.2429 396.805 18.7065 396.15 11.895 395.819C8.49077 395.653 5.75873 395.569 3.87549 395.584C2.93695 395.591 2.19261 395.624 1.67652 395.687C1.42335 395.717 1.19513 395.759 1.01922 395.821C0.9338 395.85 0.824953 395.897 0.729086 395.976C0.628835 396.057 0.494308 396.218 0.500174 396.456C0.505508 396.673 0.626089 396.82 0.699172 396.892C0.77853 396.97 0.872416 397.03 0.957381 397.077C1.13004 397.172 1.36317 397.264 1.64024 397.355C2.20083 397.54 3.03343 397.752 4.14811 397.994C6.3824 398.48 9.80651 399.099 14.5849 399.87C24.1444 401.412 39.1544 403.564 60.9745 406.469C104.653 412.285 183.131 413.691 281.794 413.214C349.219 412.888 426.093 411.682 507.758 410.401C545.605 409.808 584.481 409.198 623.924 408.653C873.042 405.206 1144.74 404.309 1322.45 426.121C1500.26 447.945 1639.68 437.408 1734.66 421.411C1782.15 413.413 1818.52 404.049 1843.03 396.684C1855.28 393.002 1864.57 389.819 1870.8 387.555C1873.91 386.424 1876.26 385.522 1877.83 384.903C1878.61 384.593 1879.2 384.354 1879.6 384.192C1879.8 384.111 1879.95 384.05 1880.04 384.008L1880.16 383.961L1880.19 383.949L1880.19 383.946C1880.19 383.946 1880.2 383.945 1880 383.485L1880.2 383.945L1880.5 383.816V383.485L1880.5 14.9524V14.4956L1880.05 14.4545L1880 14.9524C1880.05 14.4545 1880.04 14.4544 1880.04 14.4544L1880.04 14.4542L1880.03 14.4535L1880 14.4509L1879.88 14.441C1879.77 14.4324 1879.6 14.4199 1879.36 14.4041C1878.89 14.3726 1878.15 14.3281 1877.07 14.2754C1874.91 14.1701 1871.4 14.0324 1865.99 13.9023C1855.18 13.6422 1836.76 13.4123 1806.36 13.533C1745.56 13.7745 1636.81 15.4184 1444.99 21.0276C1322.62 24.6058 1210.62 31.4941 1103.8 38.0641C875.644 52.0962 671.097 64.6765 439.552 40.4563C306.306 26.5184 233.445 20.0176 193.892 17.0012C174.116 15.493 162.665 14.8557 156.155 14.5955C152.9 14.4655 150.878 14.4296 149.668 14.4264C149.062 14.4247 148.659 14.4313 148.405 14.4384C148.278 14.4419 148.189 14.4456 148.13 14.4485C148.1 14.4499 148.078 14.4512 148.063 14.4521L148.045 14.4533L148.04 14.4536L148.038 14.4538C148.037 14.4538 148.037 14.4538 148.074 14.9524L148.037 14.4538Z" fill="url(#paint1_linear_7544_142370)" stroke="#4AFF85"/>
<g opacity="0.4">
<path d="M388.583 171.799L385.331 165.621C400.181 158.659 409.232 154.264 423.603 146.59C428.772 143.833 431.949 139.889 432.554 135.47C433.008 132.12 431.898 128.841 429.579 126.703C425.192 122.687 416.998 120.929 409.636 122.402C406.837 122.972 404.291 123.828 402.047 124.992L398.517 118.933C401.391 117.436 404.618 116.343 408.123 115.631C418.031 113.635 428.469 116.034 434.697 121.737C438.655 125.372 440.596 130.837 439.84 136.325C438.932 142.931 434.47 148.704 427.234 152.553C412.737 160.299 403.61 164.742 388.609 171.751L388.583 171.799Z" fill="#DCDC00"/>
<path d="M366.392 171.798C351.416 164.789 342.289 160.346 327.767 152.6C320.531 148.751 316.069 142.977 315.161 136.372C314.405 130.86 316.346 125.419 320.304 121.784C326.532 116.081 336.944 113.682 346.878 115.677C350.383 116.366 353.61 117.483 356.484 118.98L352.954 125.039C350.71 123.875 348.164 122.995 345.365 122.449C338.003 120.976 329.809 122.758 325.422 126.749C323.103 128.888 321.994 132.143 322.447 135.517C323.052 139.912 326.229 143.856 331.398 146.636C345.744 154.311 354.795 158.706 369.67 165.668L366.418 171.846L366.392 171.798Z" fill="#DCDC00"/>
<path d="M385 193.427C385.454 186.774 388.58 180.526 393.774 176.011C405.346 165.913 412.885 152.37 415.078 137.639L419.944 105.041C420.222 103.14 418.658 101.453 416.641 101.453H337.878C335.836 101.453 334.298 103.14 334.575 105.041L339.441 137.639C341.635 152.37 349.173 165.913 360.746 176.011C365.939 180.549 369.091 186.774 369.52 193.427V194.686C369.52 205.568 362.46 215.357 351.72 219.349H377.26H402.8C392.059 215.357 385 205.568 385 194.686V193.427V193.427Z" fill="#FCEB00"/>
<path d="M406.199 218.109H348.286C346.56 218.109 345.16 219.428 345.16 221.056C345.16 222.683 346.56 224.002 348.286 224.002H406.199C407.926 224.002 409.326 222.683 409.326 221.056C409.326 219.428 407.926 218.109 406.199 218.109Z" fill="url(#paint2_linear_7544_142370)"/>
<path d="M421.151 99H333.387C331.256 99 329.529 100.628 329.529 102.635V102.659C329.529 104.667 331.256 106.294 333.387 106.294H421.151C423.281 106.294 425.008 104.667 425.008 102.659V102.635C425.008 100.628 423.281 99 421.151 99Z" fill="url(#paint3_linear_7544_142370)"/>
<path d="M384.495 191.359H369.997C368.424 191.359 367.148 192.561 367.148 194.044C367.148 195.527 368.424 196.729 369.997 196.729H384.495C386.068 196.729 387.344 195.527 387.344 194.044C387.344 192.561 386.068 191.359 384.495 191.359Z" fill="#00953C"/>
<path d="M351.29 110.453H343.121C342.012 110.453 341.129 111.332 341.18 112.378C341.634 119.886 344.054 147.423 355.147 161.489C356.433 163.129 359.181 161.822 358.551 159.873C355.954 152.009 352.878 137.349 353.206 112.306C353.206 111.285 352.349 110.477 351.265 110.477L351.29 110.453Z" fill="white"/>
<path d="M371.209 203.945C370.427 206.654 368.511 211.976 365.032 214.875C364.528 215.279 364.855 216.063 365.511 216.063H368.108C369.646 216.063 370.982 215.065 371.31 213.663C371.763 211.739 372.192 208.579 371.814 204.017C371.789 203.684 371.31 203.637 371.209 203.969V203.945Z" fill="#FBEFB7"/>
<path d="M374.232 118.961L382.3 129.439L396.041 129.106L387.973 139.584L392.537 151.821L379.477 147.805L368.56 155.67V142.721L357.239 135.379L370.299 131.364L374.232 118.961Z" fill="#93C200"/>
<path d="M374.234 118.961L382.302 129.439L396.043 129.106L387.975 139.584L392.539 151.821L379.479 147.805L374.234 118.961Z" fill="#26AC63"/>
</g>
<g opacity="0.4">
<path d="M1530.58 171.799L1527.33 165.621C1542.18 158.66 1551.23 154.264 1565.6 146.59C1570.77 143.833 1573.95 139.889 1574.55 135.47C1575.01 132.12 1573.9 128.841 1571.58 126.703C1567.19 122.687 1559 120.929 1551.63 122.402C1548.84 122.972 1546.29 123.828 1544.05 124.992L1540.52 118.933C1543.39 117.436 1546.62 116.343 1550.12 115.631C1560.03 113.635 1570.47 116.034 1576.7 121.737C1580.65 125.372 1582.6 130.837 1581.84 136.325C1580.93 142.931 1576.47 148.704 1569.23 152.553C1554.74 160.299 1545.61 164.742 1530.61 171.751L1530.58 171.799Z" fill="#DCDC00"/>
<path d="M1508.39 171.798C1493.42 164.789 1484.29 160.346 1469.77 152.6C1462.53 148.751 1458.07 142.977 1457.16 136.372C1456.4 130.86 1458.35 125.419 1462.3 121.784C1468.53 116.081 1478.94 113.682 1488.88 115.677C1492.38 116.366 1495.61 117.483 1498.48 118.98L1494.95 125.039C1492.71 123.875 1490.16 122.995 1487.37 122.449C1480 120.976 1471.81 122.758 1467.42 126.749C1465.1 128.888 1463.99 132.143 1464.45 135.517C1465.05 139.912 1468.23 143.857 1473.4 146.636C1487.74 154.311 1496.79 158.707 1511.67 165.668L1508.42 171.846L1508.39 171.798Z" fill="#DCDC00"/>
<path d="M1527 193.42C1527.45 186.767 1530.58 180.518 1535.77 176.004C1547.35 165.906 1554.89 152.363 1557.08 137.632L1561.94 105.033C1562.22 103.132 1560.66 101.445 1558.64 101.445H1479.88C1477.84 101.445 1476.3 103.132 1476.58 105.033L1481.44 137.632C1483.63 152.363 1491.17 165.906 1502.75 176.004C1507.94 180.542 1511.09 186.767 1511.52 193.42V194.679C1511.52 205.561 1504.46 215.35 1493.72 219.342H1519.26H1544.8C1534.06 215.35 1527 205.561 1527 194.679V193.42V193.42Z" fill="#FCEB00"/>
<path d="M1548.2 218.109H1490.29C1488.56 218.109 1487.16 219.428 1487.16 221.056C1487.16 222.683 1488.56 224.002 1490.29 224.002H1548.2C1549.93 224.002 1551.33 222.683 1551.33 221.056C1551.33 219.428 1549.93 218.109 1548.2 218.109Z" fill="url(#paint4_linear_7544_142370)"/>
<path d="M1563.15 99H1475.39C1473.26 99 1471.53 100.628 1471.53 102.635V102.659C1471.53 104.667 1473.26 106.294 1475.39 106.294H1563.15C1565.28 106.294 1567.01 104.667 1567.01 102.659V102.635C1567.01 100.628 1565.28 99 1563.15 99Z" fill="url(#paint5_linear_7544_142370)"/>
<path d="M1526.5 191.352H1512C1510.42 191.352 1509.15 192.554 1509.15 194.036C1509.15 195.519 1510.42 196.721 1512 196.721H1526.5C1528.07 196.721 1529.34 195.519 1529.34 194.036C1529.34 192.554 1528.07 191.352 1526.5 191.352Z" fill="#00953C"/>
<path d="M1493.29 110.453H1485.12C1484.01 110.453 1483.13 111.332 1483.18 112.378C1483.63 119.886 1486.05 147.423 1497.15 161.489C1498.43 163.129 1501.18 161.822 1500.55 159.874C1497.95 152.009 1494.88 137.349 1495.21 112.306C1495.21 111.285 1494.35 110.477 1493.26 110.477L1493.29 110.453Z" fill="white"/>
<path d="M1513.21 203.945C1512.43 206.654 1510.51 211.976 1507.03 214.875C1506.53 215.279 1506.86 216.063 1507.51 216.063H1510.11C1511.65 216.063 1512.98 215.065 1513.31 213.663C1513.76 211.739 1514.19 208.579 1513.81 204.017C1513.79 203.684 1513.31 203.637 1513.21 203.969V203.945Z" fill="#FBEFB7"/>
<path d="M1516.23 118.953L1524.3 129.431L1538.04 129.099L1529.97 139.577L1534.54 151.813L1521.48 147.798L1510.56 155.662V142.713L1499.24 135.371L1512.3 131.356L1516.23 118.953Z" fill="#93C200"/>
<path d="M1516.24 118.953L1524.3 129.431L1538.04 129.099L1529.98 139.577L1534.54 151.813L1521.48 147.798L1516.24 118.953Z" fill="#26AC63"/>
</g>
<defs>
<linearGradient id="paint0_linear_7544_142370" x1="1047.35" y1="3.95949" x2="1047.35" y2="476.203" gradientUnits="userSpaceOnUse">
<stop stop-color="#BAFFD9" stop-opacity="0.31"/>
<stop offset="0.546875" stop-color="#C8FFE1"/>
<stop offset="1" stop-color="#ECFFE9"/>
</linearGradient>
<linearGradient id="paint1_linear_7544_142370" x1="1018.16" y1="-1.05582" x2="1018.16" y2="411.819" gradientUnits="userSpaceOnUse">
<stop stop-color="#BAFFD9" stop-opacity="0.31"/>
<stop offset="0.546875" stop-color="#BAFFD9"/>
<stop offset="1" stop-color="#ECFFE9"/>
</linearGradient>
<linearGradient id="paint2_linear_7544_142370" x1="345.16" y1="221.056" x2="409.351" y2="221.056" gradientUnits="userSpaceOnUse">
<stop stop-color="#008B3E"/>
<stop offset="0.44" stop-color="#009340"/>
<stop offset="1" stop-color="#00A547"/>
</linearGradient>
<linearGradient id="paint3_linear_7544_142370" x1="329.529" y1="102.635" x2="424.983" y2="102.635" gradientUnits="userSpaceOnUse">
<stop stop-color="#008B3E"/>
<stop offset="0.44" stop-color="#009340"/>
<stop offset="1" stop-color="#00A547"/>
</linearGradient>
<linearGradient id="paint4_linear_7544_142370" x1="1487.16" y1="221.056" x2="1551.35" y2="221.056" gradientUnits="userSpaceOnUse">
<stop stop-color="#008B3E"/>
<stop offset="0.44" stop-color="#009340"/>
<stop offset="1" stop-color="#00A547"/>
</linearGradient>
<linearGradient id="paint5_linear_7544_142370" x1="1471.53" y1="102.635" x2="1566.99" y2="102.635" gradientUnits="userSpaceOnUse">
<stop stop-color="#008B3E"/>
<stop offset="0.44" stop-color="#009340"/>
<stop offset="1" stop-color="#00A547"/>
</linearGradient>
</defs>
</svg>
