<svg width="32" height="32" viewBox="0 0 32 32" fill="none" xmlns="http://www.w3.org/2000/svg">
<path d="M14.8454 16.1529L14.051 19.3733C15.0316 19.6195 18.056 20.6016 18.5029 18.785C18.9702 16.8904 15.8259 16.4004 14.8454 16.1529ZM15.9289 11.758L15.2088 14.6787C16.0253 14.8846 18.5425 15.7241 18.9504 14.0717C19.3753 12.348 16.7455 11.9638 15.9289 11.758ZM15.9974 2.66406C13.3603 2.66406 10.7825 3.44605 8.5898 4.91113C6.39714 6.37622 4.68818 8.4586 3.67901 10.8949C2.66984 13.3313 2.4058 16.0122 2.92026 18.5986C3.43473 21.185 4.70461 23.5608 6.56931 25.4255C8.43401 27.2902 10.8098 28.5601 13.3962 29.0745C15.9826 29.589 18.6635 29.325 21.0998 28.3158C23.5362 27.3066 25.6186 25.5977 27.0837 23.405C28.5487 21.2123 29.3307 18.6345 29.3307 15.9974C29.3307 14.2464 28.9859 12.5126 28.3158 10.8949C27.6457 9.27727 26.6636 7.80742 25.4255 6.56931C24.1874 5.33119 22.7175 4.34906 21.0998 3.679C19.4822 3.00894 17.7484 2.66406 15.9974 2.66406ZM21.8081 14.0979C21.78 14.6095 21.5838 15.0974 21.2497 15.4859C20.9157 15.8744 20.4627 16.1415 19.9611 16.2459C20.2907 16.3801 20.589 16.5812 20.8371 16.8364C21.0853 17.0916 21.2778 17.3954 21.4027 17.7287C21.5275 18.062 21.582 18.4176 21.5626 18.773C21.5433 19.1284 21.4505 19.476 21.2902 19.7938C20.5095 22.0499 18.6547 22.2404 16.1881 21.7683L15.5895 24.1946L14.143 23.83L14.7338 21.4362C14.3589 21.3421 13.9758 21.2421 13.5811 21.1338L12.9882 23.5386L11.5434 23.1741L12.142 20.7432C11.8041 20.6558 11.461 20.5628 11.1108 20.4741L9.22847 19.9995L9.94656 18.325C9.94656 18.325 11.0123 18.6116 10.9979 18.5904C11.0643 18.6116 11.1341 18.6194 11.2035 18.6133C11.2729 18.6073 11.3403 18.5875 11.402 18.5552C11.4637 18.5229 11.5183 18.4786 11.5627 18.425C11.6072 18.3714 11.6405 18.3095 11.6608 18.2429L13.2841 11.6592C13.3049 11.4575 13.2461 11.2556 13.1202 11.0966C12.9942 10.9377 12.8112 10.8342 12.6101 10.8084C12.6327 10.793 11.5594 10.5442 11.5594 10.5442L11.9442 8.98169L13.939 9.48544L13.9374 9.493C14.2373 9.56836 14.5463 9.64005 14.8611 9.71257L15.4539 7.31006L16.8996 7.67464L16.3187 10.03C16.7068 10.1196 17.0974 10.21 17.4777 10.3059L18.0544 7.9659L19.5009 8.33049L18.9085 10.7338C20.7347 11.37 22.0704 12.3238 21.8081 14.0979Z" fill="white"/>
</svg>
