<svg width="129" height="224" viewBox="0 0 129 224" fill="none" xmlns="http://www.w3.org/2000/svg">
<g opacity="0.3" clip-path="url(#clip0_6790_213663)">
<path d="M189.189 156.716C164.484 199.86 109.471 214.769 66.3939 190.082C23.2491 165.377 8.33907 110.366 33.0257 67.2901C57.7307 24.1466 112.675 9.21783 155.82 33.9238C198.916 58.5423 213.894 113.572 189.189 156.716Z" fill="url(#paint0_linear_6790_213663)"/>
<path d="M155.392 112.884C160.338 101.861 153.371 93.1666 142.496 85.632L150.843 71.1138L142.041 66.0656L133.945 80.2162C131.614 78.899 129.215 77.5626 126.797 76.2938L134.912 62.0756L126.111 57.0275L117.851 71.4972C115.888 70.4301 113.992 69.3822 112.164 68.3534L112.183 68.2858L99.9769 61.3243L94.602 70.7644C94.602 70.7644 101.179 74.3792 101.024 74.4085C104.613 76.4469 104.562 79.2093 103.852 81.2007L94.3519 97.7307C94.6034 97.875 94.9225 98.0383 95.271 98.3562C94.9519 98.1928 94.6328 98.0294 94.3328 97.7984L81.0634 120.935C80.2643 121.951 78.5488 123.365 76.1016 121.942C76.131 122.096 69.6793 118.298 69.6793 118.298L61.8612 127.85L73.3616 134.466C75.4896 135.726 77.5691 136.899 79.6295 138.139L71.2449 152.793L80.0467 157.841L88.393 143.323C90.7725 144.727 93.152 146.131 95.4153 147.429L87.1558 161.899L95.9576 166.947L104.342 152.293C119.718 159.933 132.241 162.161 141.469 148.915C148.927 138.311 146.531 130.252 139.27 123.375C145.964 123.734 151.8 120.928 155.392 112.884ZM125.059 137.184C118.819 148.133 100.728 136.144 94.7597 132.702L105.885 113.27C111.853 116.713 131.656 125.751 125.059 137.184ZM136.708 107.378C130.958 117.369 116.001 107.218 111.039 104.352L121.135 86.7488C126.097 89.6143 142.641 96.9993 136.708 107.378Z" fill="white"/>
</g>
<defs>
<linearGradient id="paint0_linear_6790_213663" x1="135.575" y1="25.3481" x2="86.5588" y2="198.572" gradientUnits="userSpaceOnUse">
<stop stop-color="#F9AA4B"/>
<stop offset="1" stop-color="#F7931A"/>
</linearGradient>
<clipPath id="clip0_6790_213663">
<rect width="180" height="180" fill="white" transform="translate(49.0098 0.898438) rotate(15.7995)"/>
</clipPath>
</defs>
</svg>
