<svg width="180" height="180" viewBox="0 0 180 180" fill="none" xmlns="http://www.w3.org/2000/svg">
<g opacity="0.3" clip-path="url(#clip0_6790_213252)">
<path d="M180.343 116.501C180.343 117.59 180.343 118.68 180.208 119.92C178.318 119.716 176.556 119.376 174.808 119.001C164.844 116.862 154.881 114.72 144.921 112.569C134.252 110.264 123.588 107.948 112.921 105.639C110.566 105.129 110.581 105.151 109.992 106.892C108.558 111.127 107.084 115.355 105.623 119.586C104.287 123.454 102.965 127.325 101.594 131.187C101.336 131.914 101.388 132.303 102.56 132.543C106.626 133.375 110.651 134.313 114.701 135.186C124.663 137.332 134.634 139.456 144.595 141.606C152.581 143.329 160.562 145.068 168.535 146.825C169.635 147.068 170.038 146.784 170.381 146.049C173.24 139.911 176.136 133.782 179.068 127.663C179.315 127.147 179.91 126.72 180.343 126.251C180.343 144.247 180.343 162.244 180.343 180.246C120.36 180.246 60.378 180.246 0.342773 180.246C0.342773 150.27 0.342773 120.289 0.342773 90.3083C0.342773 60.3145 0.342773 30.3207 0.342773 0.289062C60.3427 0.289062 120.343 0.289062 180.343 0.289062C180.343 8.77125 180.343 17.2695 180.21 25.8818C179.638 25.9073 179.194 25.8274 178.758 25.7289C171.437 24.0742 164.065 22.6352 156.331 22.4286C145.788 22.1471 135.927 23.6137 127.048 28.0057C120.07 31.4573 117.857 36.6172 121.503 42.2246C123.207 44.8453 125.299 47.3335 126.979 49.9615C128.912 52.9863 129.755 56.1634 128.986 59.5441C127.998 63.8867 125.838 67.8996 122.386 71.4564C120.071 73.8421 117.23 75.9738 114.444 78.0935C113.322 78.9474 111.805 78.7288 110.973 77.9453C110.168 77.187 110.317 76.0908 111.485 75.3838C117.93 71.4809 121.461 66.3075 123.773 60.5919C124.274 59.353 124.446 58.1932 123.096 57.1031C122.033 56.2446 121.272 55.1866 120.198 54.3375C118.451 52.9574 116.512 51.7014 113.897 51.2634C110.715 50.7302 108.371 51.9826 106.247 53.4138C99.6718 57.845 97.4345 63.59 97.4352 69.8544C97.4357 74.9102 98.9481 79.8519 100.577 84.7449C102.073 89.2357 104.076 93.6091 107.429 97.583C109.503 100.041 111.894 102.169 116.207 102.667C118.156 102.892 120.014 103.52 121.927 103.933C133.083 106.341 144.242 108.74 155.401 111.14C163.714 112.929 172.029 114.714 180.343 116.501ZM32.9646 55.8656C31.7447 56.8541 30.4502 57.7997 29.3177 58.8387C24.2727 63.4671 21.7825 68.6374 22.9439 74.6216C23.7361 78.7041 25.9107 82.3752 29.0071 85.7555C33.1689 90.2989 38.8973 93.3693 46.3123 94.4211C53.4032 95.4269 60.4064 94.7816 67.2974 93.2483C76.5813 91.1826 84.9498 87.6799 93.582 84.58C95.1277 84.0249 95.2339 83.3946 94.9193 82.3217C93.2579 76.6559 91.7733 70.9688 93.0827 65.1344C94.3298 59.5774 97.2139 54.61 103.068 50.7465C108.133 47.4036 113.234 46.7365 118.404 48.7478C119.319 49.1036 120.141 49.5847 121.006 50.008C120.889 49.1124 120.536 48.3478 119.985 47.6682C117.206 44.2445 114.599 40.7942 114.839 36.6177C114.856 36.3355 114.294 35.9202 113.865 35.7579C110.254 34.3934 106.377 33.7917 102.327 33.6676C93.4228 33.395 85.1298 35.1478 77.1818 37.8262C69.1089 40.5466 61.1622 43.4651 53.1486 46.2793C45.9248 48.8161 39.0256 51.7093 32.9646 55.8656ZM44.9842 120.635C47.2498 121.895 49.4716 123.199 51.7894 124.406C58.1286 127.706 64.7322 130.664 72.3206 132.221C75.0787 132.786 77.9691 133.31 80.7082 132.385C86.2987 130.497 91.8128 128.487 97.3033 126.449C97.9941 126.193 98.622 125.513 98.8244 124.944C101.243 118.145 103.566 111.327 105.941 104.519C106.347 103.353 106.648 102.278 105.138 101.341C104.509 100.951 104.137 100.337 103.673 99.8125C100.579 96.32 98.6049 92.4697 96.9704 88.5214C96.6189 87.6724 96.2014 87.559 95.1652 87.961C92.649 88.9371 90.0873 89.8512 87.5412 90.7862C79.4711 93.7497 71.302 96.5289 62.3254 97.7461C60.2756 98.0241 58.2019 98.2085 55.9645 98.4551C56.2865 99.0591 56.5344 99.5131 56.7711 99.9701C59.1855 104.634 60.3669 109.425 59.4518 114.41C59.173 115.929 58.2646 116.449 56.5649 116.284C55.1111 116.142 54.5025 115.345 54.7255 113.89C55.5084 108.78 54.0265 103.957 51.1039 99.3458C50.8014 98.8687 49.8144 98.4011 49.0715 98.3287C45.0731 97.9391 41.1488 97.3401 37.6246 95.8932C35.8716 95.1735 34.5094 95.3406 33.3895 96.3305C32.5101 97.1078 31.6787 98.0506 31.3738 99.0119C29.9411 103.529 31.3742 107.731 34.2899 111.764C36.8473 115.302 40.5294 118.089 44.9842 120.635ZM132.961 148.14C135.86 147.088 138.759 146.035 141.658 144.982C140.405 144.392 139.081 144.188 137.865 143.803C136.161 143.264 134.73 143.585 133.17 144.147C124.321 147.335 115.397 150.413 106.588 153.657C103.692 154.723 102.662 153.939 101.603 152.355C98.6538 147.949 95.7262 143.536 92.7714 139.132C91.1854 136.768 91.4366 136.275 94.7859 135.159C95.3305 134.978 96.1105 134.676 96.1926 134.351C96.3964 133.545 96.2596 132.693 96.2596 131.738C91.3778 133.34 86.5917 134.911 81.709 136.513C81.7587 136.598 81.8643 136.824 82.0185 137.031C85.0351 141.085 88.0569 145.138 91.0786 149.19C93.4472 152.366 95.8774 155.519 98.1535 158.73C98.9362 159.835 99.7556 160.033 101.21 159.463C103.068 158.734 104.995 158.098 106.891 157.421C115.501 154.35 124.112 151.279 132.961 148.14ZM124.896 141.016C117.86 139.483 110.825 137.945 103.783 136.427C103.313 136.326 102.704 136.246 102.294 136.378C100.698 136.89 99.1563 137.491 97.545 138.078C97.768 138.532 97.8935 138.893 98.1147 139.221C100.323 142.49 102.623 145.728 104.721 149.034C105.376 150.067 105.965 150.019 107.135 149.592C111.709 147.923 116.326 146.317 120.918 144.675C123.342 143.807 125.748 142.911 128.162 142.028C128.158 141.927 128.154 141.825 128.15 141.724C127.148 141.516 126.146 141.307 124.896 141.016Z" fill="white"/>
<path d="M180.343 116.379C172.029 114.71 163.715 112.924 155.401 111.136C144.242 108.736 133.083 106.336 121.927 103.928C120.015 103.516 118.157 102.888 116.207 102.663C111.895 102.165 109.503 100.036 107.429 97.5784C104.076 93.6045 102.073 89.2311 100.578 84.7403C98.9484 79.8473 97.4361 74.9056 97.4355 69.8498C97.4349 63.5854 99.6722 57.8404 106.248 53.4092C108.372 51.978 110.715 50.7256 113.898 51.2588C116.512 51.6968 118.452 52.9528 120.198 54.3329C121.273 55.1821 122.034 56.24 123.097 57.0985C124.446 58.1886 124.275 59.3484 123.773 60.5873C121.461 66.3029 117.93 71.4763 111.485 75.3792C110.318 76.0862 110.168 77.1824 110.973 77.9407C111.805 78.7242 113.322 78.9428 114.444 78.0889C117.23 75.9692 120.071 73.8375 122.386 71.4518C125.838 67.895 127.998 63.8821 128.986 59.5395C129.756 56.1588 128.913 52.9817 126.979 49.9569C125.299 47.3289 123.208 44.8407 121.504 42.22C117.857 36.6126 120.071 31.4527 127.048 28.0011C135.927 23.6091 145.788 22.1425 156.332 22.424C164.065 22.6306 171.437 24.0696 178.759 25.7243C179.194 25.8228 179.638 25.9027 180.21 25.9939C180.343 56.0851 180.343 86.1737 180.343 116.379ZM143.443 59.1115C141.986 59.1588 141.378 59.8854 141.015 60.7649C140.02 63.1835 139.047 65.6072 138.078 68.0317C137.571 69.3021 138.03 70.2058 139.32 70.5431C140.718 70.9086 142.159 70.4649 142.681 69.2597C143.81 66.6546 144.84 64.0229 145.738 61.3712C146.176 60.0779 145.539 59.5434 143.443 59.1115ZM145.812 43.7596C145.371 42.6043 144.247 42.2397 142.778 42.5317C141.506 42.7846 140.995 43.524 141.143 44.4638C141.55 47.0615 141.99 49.6563 142.4 52.2537C142.596 53.4951 143.531 54.2426 144.922 54.2255C146.463 54.2066 147.483 53.4624 147.308 52.1006C146.957 49.3743 146.382 46.6632 145.812 43.7596ZM134.579 34.4441C135.421 35.4278 136.195 36.4477 137.128 37.3838C137.905 38.1627 139.008 38.5131 140.258 37.9134C141.459 37.3374 141.987 36.4739 141.167 35.5577C138.997 33.1322 136.755 30.7377 134.423 28.393C133.527 27.4919 131.964 27.4415 130.942 28.139C129.865 28.8746 129.831 29.7356 130.692 30.5949C131.932 31.8328 133.2 33.0561 134.579 34.4441ZM132.296 85.4505C134.184 82.801 136.125 80.1701 137.934 77.492C138.588 76.5234 137.907 75.4177 136.637 75.1113C135.259 74.7786 134.192 75.0988 133.524 76.0797C131.903 78.4575 130.288 80.8379 128.613 83.1957C127.975 84.0939 128.018 84.9358 128.995 85.5905C129.934 86.2198 131.088 86.1716 132.296 85.4505ZM117.801 99.6436C120.354 97.7697 122.989 95.9505 125.426 93.9998C126.742 92.9456 126.546 91.9976 125.32 91.2993C124.16 90.639 122.831 90.8852 121.619 91.8703C119.762 93.3785 117.757 94.7933 115.976 96.3458C115.359 96.8838 114.717 97.8612 114.999 98.3717C115.324 98.9619 116.655 99.2584 117.801 99.6436Z" fill="#00862B"/>
<path d="M180.343 126.136C179.91 126.721 179.316 127.149 179.069 127.665C176.136 133.784 173.24 139.913 170.381 146.05C170.039 146.785 169.636 147.069 168.535 146.827C160.563 145.07 152.582 143.331 144.595 141.607C134.635 139.458 124.664 137.334 114.702 135.187C110.651 134.315 106.627 133.377 102.561 132.544C101.389 132.304 101.336 131.915 101.594 131.189C102.966 127.327 104.288 123.456 105.624 119.587C107.084 115.357 108.558 111.129 109.992 106.894C110.581 105.153 110.566 105.131 112.921 105.641C123.588 107.95 134.253 110.266 144.922 112.57C154.881 114.721 164.844 116.864 174.808 119.003C176.556 119.378 178.318 119.717 180.209 120.038C180.343 122.008 180.343 124.013 180.343 126.136ZM119.12 110.875C117.796 110.928 117.123 111.445 116.749 112.372C114.61 117.673 112.411 122.962 110.229 128.254C109.692 129.555 110.306 130.446 112.108 130.85C114.673 131.426 117.253 131.964 119.825 132.525C127.643 134.228 135.454 135.947 143.278 137.635C149.464 138.97 155.658 140.289 161.865 141.571C163.762 141.963 164.826 141.503 165.389 140.138C167.538 134.923 169.672 129.705 171.767 124.479C172.406 122.886 171.71 122.063 169.499 121.585C165.504 120.722 161.505 119.872 157.512 119.006C149.632 117.297 141.761 115.563 133.873 113.874C129.057 112.842 124.216 111.875 119.12 110.875Z" fill="#626565"/>
<path d="M33.0636 55.8141C39.0264 51.7102 45.9256 48.8169 53.1494 46.2801C61.1631 43.466 69.1097 40.5475 77.1826 37.8271C85.1306 35.1487 93.4236 33.3958 102.328 33.6685C106.378 33.7925 110.255 34.3942 113.866 35.7588C114.295 35.921 114.856 36.3363 114.84 36.6185C114.599 40.7951 117.207 44.2454 119.985 47.6691C120.537 48.3487 120.89 49.1133 121.007 50.0088C120.142 49.5856 119.319 49.1045 118.405 48.7487C113.235 46.7374 108.134 47.4045 103.069 50.7474C97.2147 54.6109 94.3306 59.5782 93.0835 65.1353C91.7741 70.9697 93.2587 76.6568 94.9201 82.3226C95.2347 83.3954 95.1285 84.0258 93.5828 84.5809C84.9507 87.6807 76.5821 91.1835 67.2983 93.2492C60.4073 94.7825 53.404 95.4278 46.3132 94.422C38.8981 93.3702 33.1697 90.2998 29.0079 85.7564C25.9115 82.3761 23.7369 78.705 22.9447 74.6225C21.7833 68.6382 24.2736 63.468 29.3185 58.8395C30.4511 57.8005 31.7455 56.855 33.0636 55.8141Z" fill="#00862B"/>
<path d="M44.8862 120.579C40.53 118.086 36.848 115.299 34.2906 111.761C31.3749 107.728 29.9418 103.526 31.3745 99.0088C31.6794 98.0475 32.5108 97.1047 33.3902 96.3274C34.5101 95.3375 35.8723 95.1704 37.6253 95.8901C41.1495 97.337 45.0738 97.9361 49.0722 98.3256C49.8151 98.398 50.8021 98.8656 51.1046 99.3427C54.0272 103.954 55.5091 108.777 54.7261 113.887C54.5032 115.342 55.1118 116.139 56.5656 116.281C58.2653 116.446 59.1737 115.925 59.4525 114.407C60.3676 109.422 59.1862 104.631 56.7717 99.967C56.5351 99.51 56.2872 99.0561 55.9652 98.4521C58.2026 98.2054 60.2763 98.021 62.3261 97.7431C71.3027 96.5259 79.4718 93.7466 87.5418 90.7831C90.088 89.8481 92.6497 88.934 95.1659 87.9579C96.2021 87.5559 96.6195 87.6693 96.971 88.5183C98.6056 92.4666 100.58 96.3169 103.674 99.8094C104.138 100.333 104.51 100.948 105.139 101.338C106.649 102.275 106.348 103.35 105.941 104.516C103.567 111.324 101.244 118.142 98.8251 124.941C98.6227 125.51 97.9948 126.19 97.304 126.446C91.8135 128.484 86.2994 130.494 80.7089 132.382C77.9698 133.307 75.0794 132.783 72.3213 132.217C64.7329 130.661 58.1293 127.703 51.7901 124.403C49.4723 123.196 47.2505 121.892 44.8862 120.579Z" fill="#00862B"/>
<path d="M132.842 148.17C124.113 151.274 115.502 154.346 106.892 157.417C104.996 158.094 103.069 158.73 101.211 159.459C99.7566 160.029 98.9372 159.83 98.1544 158.726C95.8783 155.515 93.4482 152.362 91.0796 149.186C88.0578 145.134 85.0361 141.081 82.0195 137.027C81.8653 136.82 81.7597 136.593 81.71 136.509C86.5927 134.907 91.3788 133.336 96.2605 131.734C96.2605 132.689 96.3973 133.541 96.1935 134.347C96.1114 134.672 95.3314 134.974 94.7868 135.155C91.4376 136.271 91.1863 136.763 92.7724 139.128C95.7271 143.532 98.6548 147.945 101.604 152.351C102.663 153.935 103.693 154.719 106.589 153.653C115.398 150.408 124.322 147.331 133.171 144.143C134.73 143.581 136.162 143.26 137.865 143.799C139.082 144.184 140.406 144.388 141.659 144.978C138.76 146.031 135.861 147.084 132.842 148.17Z" fill="#4E4F51"/>
<path d="M125.021 141.054C126.147 141.303 127.149 141.511 128.151 141.72C128.155 141.821 128.159 141.923 128.163 142.024C125.749 142.907 123.343 143.803 120.919 144.671C116.327 146.313 111.71 147.919 107.136 149.587C105.966 150.015 105.377 150.063 104.722 149.03C102.624 145.724 100.324 142.486 98.1156 139.217C97.8944 138.889 97.7689 138.528 97.5459 138.073C99.1572 137.487 100.699 136.886 102.294 136.374C102.705 136.242 103.314 136.322 103.783 136.423C110.826 137.941 117.86 139.479 125.021 141.054Z" fill="#00862B"/>
<path d="M143.569 59.1172C145.539 59.5471 146.176 60.0816 145.738 61.3749C144.839 64.0266 143.809 66.6584 142.681 69.2634C142.159 70.4686 140.718 70.9123 139.32 70.5468C138.03 70.2095 137.571 69.3058 138.078 68.0354C139.047 65.6109 140.02 63.1872 141.015 60.7686C141.377 59.8891 141.986 59.1626 143.569 59.1172Z" fill="white"/>
<path d="M145.856 43.8536C146.382 46.6641 146.957 49.3751 147.308 52.1014C147.483 53.4632 146.463 54.2074 144.922 54.2263C143.531 54.2434 142.597 53.4959 142.401 52.2546C141.991 49.6571 141.55 47.0623 141.143 44.4646C140.995 43.5248 141.506 42.7854 142.778 42.5325C144.247 42.2405 145.371 42.6051 145.856 43.8536Z" fill="white"/>
<path d="M134.518 34.3679C133.201 33.0591 131.933 31.8358 130.693 30.5979C129.832 29.7386 129.866 28.8776 130.943 28.142C131.965 27.4445 133.528 27.4949 134.424 28.396C136.755 30.7407 138.997 33.1352 141.168 35.5607C141.987 36.4768 141.46 37.3404 140.259 37.9164C139.008 38.516 137.905 38.1657 137.129 37.3868C136.196 36.4507 135.422 35.4308 134.518 34.3679Z" fill="white"/>
<path d="M132.22 85.5276C131.088 86.1717 129.935 86.2199 128.996 85.5906C128.018 84.9359 127.976 84.094 128.614 83.1958C130.288 80.838 131.903 78.4576 133.524 76.0798C134.193 75.099 135.259 74.7787 136.638 75.1114C137.907 75.4178 138.589 76.5235 137.935 77.4921C136.126 80.1702 134.185 82.8011 132.22 85.5276Z" fill="white"/>
<path d="M117.676 99.6705C116.655 99.2659 115.324 98.9694 114.999 98.3792C114.717 97.8687 115.359 96.8913 115.976 96.3533C117.757 94.8008 119.762 93.386 121.619 91.8777C122.831 90.8927 124.16 90.6464 125.32 91.3068C126.546 92.005 126.743 92.9531 125.426 94.0073C122.989 95.958 120.354 97.7771 117.676 99.6705Z" fill="white"/>
<path d="M119.253 110.875C124.216 111.873 129.058 112.84 133.873 113.872C141.762 115.561 149.632 117.295 157.513 119.004C161.506 119.87 165.505 120.72 169.499 121.583C171.71 122.061 172.406 122.883 171.767 124.477C169.672 129.703 167.538 134.921 165.389 140.136C164.827 141.501 163.762 141.961 161.865 141.569C155.658 140.287 149.465 138.968 143.278 137.633C135.454 135.945 127.643 134.226 119.825 132.523C117.254 131.962 114.673 131.424 112.109 130.848C110.306 130.444 109.693 129.553 110.229 128.252C112.412 122.96 114.611 117.671 116.75 112.37C117.123 111.443 117.797 110.926 119.253 110.875ZM146.964 120.433C138.297 118.538 129.63 116.644 120.863 114.728C120.493 115.616 120.181 116.362 119.871 117.109C118.532 120.327 117.183 123.543 115.864 126.766C115.615 127.374 115.431 127.954 116.692 128.211C120.698 129.026 124.681 129.902 128.67 130.764C136.981 132.559 145.29 134.361 153.6 136.16C156.092 136.699 158.585 137.237 161.246 137.812C163.055 133.414 164.814 129.135 166.588 124.822C166.25 124.686 166.021 124.552 165.76 124.495C159.587 123.148 153.411 121.81 146.964 120.433Z" fill="#060403"/>
<path d="M147.099 120.45C153.411 121.808 159.587 123.147 165.76 124.494C166.021 124.551 166.25 124.685 166.587 124.821C164.814 129.134 163.054 133.413 161.246 137.811C158.585 137.236 156.092 136.698 153.6 136.158C145.29 134.36 136.981 132.558 128.67 130.763C124.681 129.901 120.698 129.025 116.691 128.21C115.431 127.953 115.614 127.373 115.864 126.765C117.183 123.542 118.531 120.326 119.87 117.108C120.181 116.361 120.493 115.615 120.863 114.727C129.63 116.643 138.297 118.537 147.099 120.45Z" fill="#00862B"/>
</g>
<defs>
<clipPath id="clip0_6790_213252">
<rect width="180" height="180" fill="white"/>
</clipPath>
</defs>
</svg>
