<svg width="154" height="180" viewBox="0 0 154 180" fill="none" xmlns="http://www.w3.org/2000/svg">
<g opacity="0.3" clip-path="url(#clip0_6790_213267)">
<path d="M180.336 177.497C180.336 178.414 180.336 179.33 180.336 180.247C120.349 180.247 60.362 180.247 0.355469 180.247C0.355469 120.27 0.355469 60.2926 0.355469 0.28125C60.3357 0.28125 120.336 0.28125 180.336 0.28125C180.336 15.3557 180.336 30.4358 180.18 45.6301C178.247 45.9094 176.474 46.1019 174.693 46.2341C171.042 46.5051 167.386 46.7481 163.732 46.9949C158.751 47.3312 153.771 47.6651 148.789 47.991C144.639 48.2625 140.488 48.5211 136.189 48.7694C133.233 48.923 130.417 49.0455 127.617 49.2761C125.07 49.4857 122.807 51.3841 122.933 53.269C123.197 57.2145 122.614 61.1476 123.446 65.1243C124.194 68.6974 123.826 72.402 123.913 76.0491C124.039 81.3567 124.132 86.6648 124.107 91.9768C123.856 91.911 123.652 91.8536 123.629 91.7692C122.598 87.9198 120.43 84.3592 118.503 80.7445C117.148 78.2028 115.566 75.726 114.008 73.2476C112.637 71.0686 111.202 68.9107 109.707 66.7774C108.975 65.7322 108.212 64.7432 108.459 63.4909C108.719 62.165 108.881 60.8284 109.109 59.4034C109.138 59.1216 109.145 58.9328 109.253 58.687C109.376 58.2523 109.398 57.8746 109.443 57.3894C109.674 56.1021 109.883 54.9222 110.104 53.6825C110.117 53.6227 110.079 53.5049 110.103 53.4127C110.147 53.1331 110.166 52.9457 110.291 52.7098C110.408 52.3565 110.418 52.0517 110.452 51.6344C110.686 49.6774 110.896 47.8328 111.133 45.8914C111.382 44.851 111.659 43.9126 111.812 42.963C112.115 41.0877 112.328 39.2043 112.617 37.3277C113.006 34.8019 113.462 32.2817 113.835 29.7547C114.218 27.1594 114.519 24.5576 114.886 21.9609C115.184 19.8511 115.646 17.75 115.812 15.6354C115.968 13.6575 114.478 12.1782 111.887 11.6742C109.009 11.1147 106.087 10.6709 103.164 10.2563C101.335 9.99674 99.4472 9.95957 97.6228 9.68549C95.5228 9.37 93.4826 8.83363 91.3825 8.5187C88.2839 8.05405 85.1523 7.71297 82.0404 7.2957C78.8977 6.87428 75.7668 6.40317 72.6211 5.99505C70.9456 5.77768 69.2324 5.71177 67.5673 5.4624C65.2557 5.1162 62.9859 4.61571 60.6752 4.26551C57.8014 3.82998 54.9053 3.47533 52.0163 3.0966C51.1033 2.97691 50.154 2.96504 49.2706 2.77611C47.4028 2.37663 45.712 2.88733 44.1365 3.41719C43.1581 3.74623 41.9938 4.47657 41.7538 5.1847C40.9674 7.50558 40.5657 9.89873 39.9909 12.3671C39.7053 13.4564 39.4563 14.4444 39.1814 15.4284C38.915 16.3821 38.6219 17.3317 38.3362 18.3881C37.8836 20.1107 37.3871 21.7219 37.0009 23.3475C36.6003 25.034 36.2922 26.733 35.9707 28.4293C35.7016 29.8495 35.5499 31.2843 35.2065 32.6938C34.6306 35.0578 33.9473 37.4073 33.3015 39.7617C33.0514 40.6734 32.7806 41.5819 32.3977 42.54C31.9358 44.489 31.5953 46.3899 31.1507 48.333C31.0129 48.6662 30.9794 48.9572 30.9234 49.3541C30.5602 50.5488 30.2195 51.6375 29.8017 52.7499C29.6103 52.8245 29.5755 52.8966 29.577 53.0555C29.4263 53.175 29.3188 53.229 29.1324 53.2855C28.9367 53.3334 28.9067 53.4003 28.9325 53.5824C28.2236 54.638 27.5456 55.6001 26.7735 56.575C26.6269 56.7222 26.5745 56.8563 26.4258 57.0397C25.8274 57.8891 25.3252 58.6894 24.7094 59.5139C22.4616 62.6586 20.236 65.7469 18.2242 68.9105C16.7845 71.1744 15.5618 73.5197 14.3675 75.864C12.8604 78.8223 11.4595 81.8111 10.0567 84.7982C9.49442 85.9954 9.01437 87.2159 8.55878 88.4385C7.93284 90.1183 7.36568 91.8102 6.71096 93.5841C6.53662 94.0656 6.4164 94.4589 6.31398 94.8547C5.55079 97.8038 4.3813 100.735 4.1422 103.708C3.8879 106.869 3.39445 110.122 5.01113 113.245C5.92528 115.01 6.48981 116.877 7.41439 118.639C9.2047 122.051 12.124 124.902 15.3264 127.677C19.2805 131.104 24.1073 133.599 29.3284 135.697C32.7443 137.069 36.3827 138.16 40.007 139.213C44.0876 140.4 48.2095 141.546 52.4172 142.438C55.5307 143.098 58.8074 143.657 62.0164 143.672C67.914 143.7 73.8463 144.188 79.7252 143.038C84.0337 142.195 88.0293 141.236 91.3663 138.811C94.1455 136.79 95.5814 134.418 96.3374 131.741C96.7089 130.425 96.4797 129.021 96.7468 127.682C97.0754 126.034 97.4206 124.237 99.9196 123.584C102.146 123.002 104.473 122.588 106.797 122.268C110.453 121.764 113.819 120.878 116.576 118.939C116.773 118.801 117.174 118.824 117.502 118.877C117.64 119.332 117.822 119.679 117.863 120.035C118.218 123.132 118.546 126.23 118.891 129.328C118.909 129.487 119.03 129.639 119.064 129.798C119.455 131.599 119.871 133.396 120.215 135.201C120.599 137.217 120.906 139.241 121.266 141.259C121.418 142.11 121.638 142.954 121.796 143.805C122.191 145.942 122.569 148.081 122.935 150.323C122.579 151.275 122.084 152.107 121.931 152.973C121.053 157.922 120.379 162.872 122.565 167.758C123.785 170.484 126.007 172.788 128.992 174.421C132.782 176.495 137.215 177.548 142.089 177.521C154.837 177.45 167.587 177.497 180.336 177.497Z" fill="white"/>
<path d="M136.337 48.7896C140.488 48.5253 144.639 48.2667 148.789 47.9952C153.771 47.6693 158.751 47.3354 163.731 46.9991C167.386 46.7523 171.041 46.5093 174.693 46.2383C176.474 46.1061 178.247 45.9137 180.18 45.75C180.336 69.09 180.336 92.4286 180.227 115.918C177.216 117.163 174.508 118.449 171.27 119.145C167.076 120.045 162.912 120.037 158.899 119.361C154.776 118.666 150.815 117.335 147.532 115.158C143.367 112.396 139.868 109.211 138.993 105.059C138.133 100.98 137.979 96.8104 137.726 92.6735C137.469 88.4797 137.501 84.2766 137.349 80.0787C137.159 74.8052 136.87 69.5337 136.698 64.26C136.529 59.1041 136.453 53.9465 136.337 48.7896ZM167.54 85.5502C167.782 85.2641 167.945 84.9061 168.279 84.7058C169.189 84.1609 170.191 83.7028 171.117 83.1726C172.075 82.6243 172.768 81.9046 171.933 81.0501C171.175 80.2736 170.037 80.2054 168.971 80.7797C167.359 81.6487 165.788 82.5598 163.96 83.4747C163.477 83.292 162.96 83.1452 162.516 82.9201C161.094 82.1999 159.726 81.4197 158.284 80.7231C157.253 80.2251 156.189 80.3281 155.487 81.096C154.787 81.8606 155.294 82.5579 156.156 83.0441C157.383 83.7361 158.693 84.3468 159.993 85.1854C159.661 85.4861 159.385 85.839 158.985 86.0769C158.035 86.6427 157.028 87.1552 156.042 87.6872C155.136 88.1759 154.926 88.8014 155.47 89.5209C156.064 90.3069 157.102 90.5275 158.024 90.0752C159.852 89.1793 161.541 88.1269 163.506 87.1395C165.324 88.048 167.15 88.9475 168.956 89.8683C170.03 90.416 171.046 90.462 171.859 89.6396C172.638 88.8516 172.273 88.1586 171.275 87.628C170.066 86.9848 168.833 86.3652 167.54 85.5502ZM156.154 56.9672C155.837 57.3054 155.597 57.7136 155.185 57.9675C154.293 58.5183 153.307 58.9851 152.37 59.4961C151.427 60.0099 151.107 60.7027 151.732 61.4458C152.403 62.2436 153.426 62.3741 154.47 61.822C156.18 60.9179 157.849 59.9721 159.775 59.0404C161.559 59.9257 163.352 60.8015 165.123 61.6999C166.258 62.2754 167.322 62.3383 168.146 61.4259C168.974 60.5101 168.227 59.8537 167.274 59.3334C166.12 58.7036 164.909 58.1317 163.709 57.3357C164.056 57.0369 164.354 56.6922 164.76 56.4484C165.751 55.8546 166.941 55.4028 167.756 54.7038C168.205 54.3196 168.351 53.4736 168.112 52.9736C167.751 52.2163 166.587 51.9934 165.722 52.4184C163.889 53.3185 162.196 54.3765 160.222 55.3823C159.974 55.3187 159.689 55.2931 159.482 55.1856C157.801 54.3148 156.15 53.412 154.458 52.5537C153.488 52.0613 152.522 52.1416 151.83 52.8689C151.155 53.5776 151.273 54.2792 152.255 54.8083C153.509 55.484 154.792 56.1305 156.154 56.9672ZM161.823 73.0686C163.539 73.9644 165.264 74.8505 166.967 75.7597C168.007 76.3152 169.054 76.4655 169.887 75.6329C170.691 74.8295 170.367 74.0941 169.297 73.5042C167.968 72.7716 166.667 72.0113 165.515 71.1211C166.888 70.3577 168.387 69.686 169.573 68.7863C170.055 68.4208 170.185 67.4352 169.863 66.964C169.62 66.609 168.15 66.3119 167.662 66.5299C165.829 67.3498 164.174 68.3913 162.226 69.3983C161.783 69.2723 161.289 69.2026 160.907 69.0102C159.433 68.2685 157.989 67.4947 156.547 66.7188C155.534 66.1738 154.556 66.1223 153.776 66.9106C152.94 67.7545 153.38 68.5112 154.389 69.0644C155.636 69.7481 156.96 70.3531 158.217 71.1719C157.752 71.5112 157.321 71.8838 156.813 72.1823C155.942 72.6935 154.98 73.1222 154.133 73.6528C153.262 74.1984 153.032 74.8772 153.764 75.6257C154.512 76.3906 155.425 76.3944 156.372 75.8918C158.132 74.9573 159.861 73.99 161.823 73.0686Z" fill="#00862B"/>
<path d="M180.336 177.387C167.587 177.504 154.837 177.457 142.089 177.527C137.214 177.554 132.782 176.501 128.992 174.427C126.007 172.794 123.785 170.491 122.565 167.764C120.378 162.878 121.053 157.929 121.93 152.979C122.084 152.114 122.579 151.281 123.051 150.326C123.434 150.015 123.76 149.842 123.914 149.606C125.78 146.746 127.687 143.906 130.742 141.615C132.775 140.09 134.637 138.376 136.952 137.137C139.898 135.56 143.157 134.277 146.41 133.059C148.673 132.211 151.097 131.521 153.55 131.056C156.551 130.488 159.644 130.15 162.722 129.861C165.088 129.639 167.5 129.509 169.878 129.583C173.37 129.692 176.85 130.019 180.336 130.254C180.336 145.926 180.336 161.597 180.336 177.387Z" fill="#00862B"/>
<path d="M180.336 130.134C176.851 130.017 173.371 129.69 169.879 129.581C167.501 129.507 165.089 129.637 162.723 129.859C159.645 130.148 156.551 130.485 153.551 131.054C151.098 131.518 148.674 132.209 146.411 133.056C143.158 134.275 139.898 135.557 136.952 137.134C134.637 138.373 132.776 140.087 130.742 141.612C127.687 143.904 125.78 146.744 123.915 149.603C123.761 149.839 123.434 150.013 123.071 150.219C122.569 148.085 122.192 145.946 121.796 143.809C121.639 142.958 121.418 142.114 121.266 141.263C120.906 139.245 120.6 137.221 120.216 135.205C119.872 133.4 119.456 131.603 119.065 129.803C119.03 129.643 118.909 129.491 118.891 129.332C118.547 126.234 118.219 123.136 117.863 120.04C117.822 119.683 117.64 119.336 117.596 118.827C118.09 118.188 118.478 117.688 118.942 117.23C120.588 115.61 122.453 114.093 123.878 112.372C126.402 109.324 127.665 106.016 126.659 102.374C126.308 101.1 126.167 99.7942 125.928 98.4049C125.364 96.1968 124.802 94.0867 124.24 91.9766C124.133 86.6688 124.04 81.3607 123.913 76.0532C123.826 72.406 124.194 68.7014 123.447 65.1283C122.614 61.1516 123.198 57.2185 122.934 53.273C122.808 51.3881 125.071 49.4898 127.618 49.2801C130.417 49.0496 133.233 48.9271 136.19 48.7734C136.454 53.9463 136.53 59.1039 136.698 64.2598C136.871 69.5335 137.159 74.805 137.35 80.0785C137.501 84.2764 137.47 88.4795 137.726 92.6733C137.98 96.8102 138.134 100.98 138.993 105.058C139.868 109.21 143.368 112.396 147.533 115.158C150.816 117.335 154.777 118.666 158.9 119.361C162.913 120.037 167.076 120.045 171.27 119.144C174.509 118.449 177.217 117.163 180.227 116.035C180.336 120.673 180.336 125.345 180.336 130.134Z" fill="#00862B"/>
<path d="M125.93 98.5002C126.167 99.7916 126.308 101.098 126.659 102.372C127.665 106.014 126.401 109.322 123.878 112.369C122.453 114.09 120.587 115.607 118.942 117.228C118.478 117.685 118.09 118.185 117.574 118.719C117.175 118.825 116.773 118.802 116.577 118.94C113.82 120.88 110.453 121.766 106.797 122.269C104.473 122.589 102.147 123.003 99.9201 123.585C97.4211 124.238 97.0759 126.035 96.7473 127.683C96.4802 129.022 96.7094 130.427 96.3379 131.742C95.5819 134.419 94.146 136.792 91.3668 138.812C88.0298 141.238 84.0342 142.196 79.7257 143.039C73.8468 144.189 67.9146 143.702 62.0169 143.674C58.8079 143.658 55.5312 143.1 52.4177 142.439C48.21 141.547 44.0881 140.401 40.0075 139.215C36.3832 138.161 32.7448 137.071 29.3289 135.698C24.1078 133.6 19.281 131.106 15.3269 127.679C12.1246 124.903 9.20521 122.052 7.41491 118.64C6.49032 116.878 5.92579 115.012 5.01164 113.246C3.39496 110.124 3.88841 106.871 4.14271 103.709C4.38181 100.737 5.55131 97.8052 6.31449 94.856C6.41691 94.4603 6.53713 94.067 6.82505 93.6094C7.43761 94.3144 6.79147 96.6748 5.76574 97.5374C6.61533 97.6176 7.30835 97.7384 8.00205 97.7407C36.8957 97.8333 65.7893 97.9198 94.683 97.9956C102.343 98.0157 110.004 97.9553 117.663 98.0216C120.421 98.0455 123.175 98.333 125.93 98.5002Z" fill="#00862B"/>
<path d="M125.927 98.4044C123.174 98.3352 120.42 98.0477 117.662 98.0238C110.003 97.9575 102.342 98.0179 94.6819 97.9978C65.7882 97.922 36.8946 97.8355 8.00096 97.7429C7.30726 97.7406 6.61424 97.6199 5.76465 97.5396C6.79038 96.677 7.43652 94.3166 6.88633 93.5244C7.3651 91.8138 7.93226 90.1218 8.5582 88.4421C9.01379 87.2194 9.49384 85.999 10.0561 84.8018C11.4589 81.8147 12.8599 78.8259 14.3669 75.8675C15.5612 73.5232 16.7839 71.178 18.2236 68.9141C20.2354 65.7505 22.461 62.6622 24.868 59.5197C32.3956 59.582 39.6502 59.7264 46.9053 59.7392C66.1927 59.7734 85.4804 59.7562 104.768 59.74C106.207 59.7388 107.647 59.5836 109.086 59.5C108.881 60.8319 108.719 62.1686 108.458 63.4945C108.212 64.7467 108.975 65.7358 109.707 66.7809C111.201 68.9143 112.636 71.0722 114.007 73.2511C115.566 75.7296 117.148 78.2064 118.502 80.7481C120.429 84.3628 122.597 87.9234 123.628 91.7727C123.651 91.8571 123.855 91.9146 124.107 91.9804C124.801 94.0863 125.363 96.1964 125.927 98.4044Z" fill="#00862B"/>
<path d="M32.5195 42.4931C32.7809 41.5832 33.0518 40.6746 33.3019 39.763C33.9476 37.4085 34.631 35.059 35.2069 32.695C35.5502 31.2855 35.7019 29.8507 35.9711 28.4305C36.2925 26.7342 36.6007 25.0352 37.0013 23.3487C37.3874 21.7231 37.884 20.1119 38.4558 18.3539C39.0962 18.0599 39.6257 17.7586 40.1272 17.7826C41.3443 17.8407 42.5456 18.0644 43.7582 18.1964C52.9186 19.1933 62.08 20.1843 71.2412 21.1768C75.9274 21.6844 80.6137 22.1911 85.4267 22.7252C90.5098 23.4402 91.5888 25.7562 90.7004 28.8621C90.1255 30.8725 89.9747 32.9501 89.5864 35.0915C89.3634 36.1251 89.1879 37.0649 88.929 38.0665C88.8106 38.4187 88.7757 38.7091 88.708 39.1075C88.4436 40.5593 88.2119 41.9031 87.8997 43.3021C87.7986 43.5715 87.7782 43.7857 87.7215 44.1079C87.563 44.8722 87.4369 45.5282 87.319 46.185C86.6953 49.6591 83.0934 51.4588 78.5035 50.6823C75.16 50.1166 71.7787 49.6744 68.352 49.1C67.9141 48.9516 67.5385 48.8805 67.0281 48.7832C65.744 48.6028 64.5946 48.4485 63.3963 48.2323C63.1634 48.1501 62.9794 48.1299 62.6748 48.0754C62.2978 48.0309 62.0415 48.0206 61.7098 47.9518C61.3505 47.8626 61.0666 47.8318 60.6684 47.7695C60.1529 47.7168 59.7517 47.6956 59.2971 47.6026C58.9732 47.4894 58.7026 47.448 58.3152 47.3606C57.9371 47.2993 57.6758 47.2841 57.3488 47.2025C56.9944 47.1081 56.7056 47.0799 56.2855 47.0243C55.0139 46.8252 53.8736 46.6536 52.6756 46.4239C52.4285 46.3604 52.2391 46.3548 51.9405 46.3176C51.6764 46.2825 51.5215 46.2792 51.276 46.2126C50.6908 46.0971 50.1963 46.0449 49.5861 45.956C48.641 45.7938 47.8117 45.6684 46.8941 45.4717C42.6454 44.737 38.4767 44.0998 34.3327 43.3832C33.6714 43.2689 33.1211 42.7988 32.5195 42.4931Z" fill="#F4E9DC"/>
<path d="M40.0156 12.2637C40.5652 9.89831 40.9668 7.50516 41.7533 5.18428C41.9932 4.47614 43.1576 3.74581 44.1359 3.41677C45.7114 2.88691 47.4022 2.37621 49.2701 2.77568C50.1535 2.96462 51.1028 2.97649 52.0158 3.09617C54.9048 3.47491 57.8009 3.82956 60.6746 4.26509C62.9854 4.61528 65.2551 5.11578 67.5667 5.46197C69.2318 5.71134 70.9451 5.77726 72.6205 5.99463C75.7663 6.40275 78.8972 6.87386 82.0399 7.29527C85.1518 7.71255 88.2834 8.05362 91.382 8.51828C93.4821 8.83321 95.5223 9.36957 97.6223 9.68506C99.4466 9.95914 101.334 9.99632 103.164 10.2558C106.087 10.6705 109.009 11.1143 111.886 11.6738C114.478 12.1777 115.967 13.6571 115.812 15.6349C115.645 17.7496 115.183 19.8507 114.885 21.9605C114.519 24.5572 114.217 27.159 113.835 29.7543C113.462 32.2813 113.006 34.8015 112.617 37.3272C112.327 39.2039 112.115 41.0872 111.812 42.9626C111.659 43.9121 111.381 44.8506 111.012 45.8484C106.09 45.0845 101.236 45.2476 96.3741 45.1795C96.3432 45.0674 96.333 45.0222 96.4046 44.939C96.5121 44.7669 96.5378 44.6327 96.6026 44.3982C96.6732 43.9498 96.7047 43.6018 96.8274 43.2038C96.93 42.9355 96.9414 42.7172 96.9695 42.3917C97.2219 40.6851 97.4575 39.0857 97.7773 37.4483C97.8975 37.2728 97.9335 37.1354 98.0011 36.8891C98.2223 35.6034 98.4118 34.4266 98.6629 33.1544C99.2931 29.9567 100.008 26.8641 100.379 23.7488C100.632 21.6245 98.3966 19.504 95.7859 18.8925C95.5046 18.7433 95.2723 18.6639 94.9295 18.5619C94.6669 18.5379 94.5148 18.5364 94.2275 18.5126C92.2881 18.2478 90.4894 17.979 88.6786 17.7684C85.1608 17.3594 81.6351 16.9885 78.1146 16.5918C73.3851 16.0588 68.6581 15.5129 63.9287 14.9791C60.6827 14.6127 57.433 14.2648 54.1877 13.8955C49.4624 13.3577 44.7395 12.8082 40.0156 12.2637Z" fill="#00862B"/>
<path d="M96.3954 45.2538C101.236 45.2549 106.091 45.0918 110.986 45.9527C110.896 47.8397 110.686 49.6843 110.344 51.6622C110.203 52.1188 110.194 52.442 110.185 52.7652C110.166 52.9526 110.147 53.14 110.063 53.4443C109.946 53.642 109.978 53.7047 110.092 53.7493C109.883 54.9291 109.674 56.1089 109.339 57.4149C109.193 57.9443 109.173 58.3476 109.152 58.7509C109.145 58.9397 109.138 59.1285 109.109 59.4103C107.647 59.5869 106.208 59.7421 104.769 59.7433C85.4812 59.7595 66.1935 59.7767 46.906 59.7425C39.651 59.7297 32.3964 59.5853 24.9824 59.4987C25.3254 58.6962 25.8275 57.896 26.5016 57.0121C26.7383 56.8085 26.803 56.6887 26.8678 56.569C27.5458 55.6069 28.2238 54.6449 28.9854 53.5633C29.1331 53.4009 29.1806 53.3497 29.2115 53.2899C29.319 53.2359 29.4265 53.1819 29.637 53.0284C29.8116 52.8735 29.858 52.8082 29.879 52.733C30.2197 51.6443 30.5604 50.5557 31.0625 49.36C31.5039 49.2392 31.784 49.2254 32.1995 49.197C33.3088 49.2648 34.2826 49.3471 35.3923 49.4551C36.6222 49.5847 37.7162 49.6885 38.8608 49.8615C39.148 49.9926 39.3845 50.0546 39.7445 50.1508C40.1294 50.1991 40.3906 50.2131 40.7207 50.2911C41.0732 50.388 41.3568 50.4209 41.7748 50.4753C43.0541 50.6618 44.1991 50.827 45.3999 51.0508C45.6393 51.1331 45.8228 51.1566 46.1183 51.2038C46.3803 51.2568 46.5303 51.2861 46.6973 51.3808C46.9279 51.463 47.1416 51.4797 47.4835 51.4921C47.8623 51.5249 48.113 51.562 48.4022 51.6784C48.8843 51.833 49.3279 51.9083 49.8714 51.971C50.1036 51.9393 50.2357 51.9202 50.4922 51.9294C50.8751 51.9669 51.1338 51.9762 51.4649 52.0467C51.8205 52.1397 52.1036 52.1714 52.5213 52.2246C53.8 52.4126 54.9442 52.5792 56.1456 52.8032C56.3861 52.8798 56.5693 52.899 56.8643 52.9451C57.1262 53.005 57.2764 53.0379 57.4443 53.1361C57.6769 53.2139 57.8918 53.2266 58.2366 53.246C61.635 53.7731 64.9036 54.2935 68.189 54.8793C68.4191 54.9636 68.6322 54.9824 68.9784 55.001C72.2687 55.5169 75.4259 56.0329 78.6051 56.6238C78.9474 56.7179 79.2678 56.7372 79.721 56.7536C80.9971 56.9321 82.1405 57.1135 83.2996 57.3624C83.5316 57.4501 83.748 57.4702 84.1005 57.4899C84.6189 57.5379 85.0148 57.5541 85.3813 57.6398C89.6753 58.6441 93.9821 56.7648 94.9236 53.4873C95.0125 53.3145 95.0191 53.1573 95.0227 52.8958C95.4783 50.2789 95.9369 47.7664 96.3954 45.2538Z" fill="#00862B"/>
<path d="M39.991 12.3672C44.7402 12.8087 49.463 13.3582 54.1884 13.8959C57.4337 14.2653 60.6834 14.6132 63.9293 14.9796C68.6587 15.5134 73.3857 16.0593 78.1153 16.5923C81.6357 16.989 85.1614 17.3598 88.6792 17.7689C90.4901 17.9795 92.2887 18.2483 94.202 18.5962C93.9567 18.88 93.6335 19.1288 93.2425 19.2252C90.4606 19.9112 87.6584 20.5518 84.879 21.243C84.3307 21.3794 83.853 21.6729 83.286 21.9185C84.1333 22.2461 84.7165 22.4716 85.2997 22.6971C80.6135 22.19 75.9271 21.6832 71.2409 21.1756C62.0798 20.1832 52.9183 19.1921 43.758 18.1952C42.5454 18.0633 41.3441 17.8396 40.1269 17.7814C39.6255 17.7575 39.096 18.0588 38.46 18.2476C38.6221 17.3317 38.9151 16.3822 39.1815 15.4285C39.4564 14.4445 39.7054 13.4565 39.991 12.3672Z" fill="#5B5A5C"/>
<path d="M35.2552 49.4294C34.2814 49.3471 33.3076 49.2648 32.1491 49.1214C31.7275 48.8061 31.4907 48.5518 31.2539 48.2976C31.5943 46.3967 31.9348 44.4959 32.3967 42.5469C33.1198 42.8044 33.67 43.2745 34.3313 43.3888C38.4753 44.1054 42.644 44.7426 46.7894 45.5384C43.0138 45.7859 39.4113 46.4134 35.9434 47.497C33.859 48.1483 33.8004 48.2814 35.2552 49.4294Z" fill="#575657"/>
<path d="M31.1504 48.3359C31.4914 48.548 31.7282 48.8024 32.0143 49.1323C31.7835 49.2218 31.5034 49.2356 31.0844 49.2504C30.9791 48.9604 31.0126 48.6693 31.1504 48.3359Z" fill="#00862B"/>
<path d="M110.291 52.7159C110.194 52.4411 110.203 52.1177 110.321 51.7734C110.419 52.0575 110.408 52.3625 110.291 52.7159Z" fill="#00862B"/>
<path d="M109.252 58.6877C109.172 58.3412 109.192 57.9377 109.316 57.5156C109.397 57.8749 109.375 58.2528 109.252 58.6877Z" fill="#00862B"/>
<path d="M26.7729 56.5781C26.8022 56.685 26.7375 56.8049 26.5971 56.9593C26.5739 56.8596 26.6263 56.7253 26.7729 56.5781Z" fill="#00862B"/>
<path d="M110.105 53.6876C109.978 53.7029 109.946 53.6402 110.038 53.5346C110.079 53.5099 110.118 53.6277 110.105 53.6876Z" fill="#00862B"/>
<path d="M29.8017 52.75C29.8578 52.8015 29.8114 52.8668 29.68 52.9561C29.5755 52.8967 29.6103 52.8246 29.8017 52.75Z" fill="#00862B"/>
<path d="M29.1333 53.2891C29.1813 53.3464 29.1338 53.3976 29.017 53.4664C28.9076 53.4039 28.9376 53.3369 29.1333 53.2891Z" fill="#00862B"/>
<path d="M158.25 70.9913C156.959 70.3523 155.635 69.7473 154.389 69.0636C153.38 68.5104 152.94 67.7537 153.775 66.9098C154.556 66.1215 155.533 66.173 156.546 66.7179C157.988 67.4939 159.433 68.2677 160.907 69.0093C161.289 69.2018 161.783 69.2715 162.388 69.4623C163.485 70.1055 164.419 70.6838 165.353 71.2621C166.666 72.0105 167.967 72.7708 169.296 73.5033C170.366 74.0932 170.691 74.8287 169.887 75.6321C169.053 76.4647 168.007 76.3143 166.967 75.7589C165.264 74.8497 163.539 73.9636 161.609 73.0084C160.346 72.2964 159.298 71.6438 158.25 70.9913Z" fill="#F3E3D6"/>
<path d="M163.723 57.5352C164.909 58.1321 166.12 58.7039 167.274 59.3337C168.227 59.854 168.974 60.5104 168.146 61.4263C167.322 62.3386 166.258 62.2757 165.123 61.7002C163.351 60.8018 161.559 59.9261 159.606 58.9634C158.312 58.1873 157.187 57.4886 156.062 56.7899C154.792 56.1308 153.509 55.4843 152.255 54.8086C151.273 54.2795 151.155 53.5779 151.83 52.8692C152.522 52.1419 153.488 52.0617 154.458 52.554C156.15 53.4124 157.801 54.3152 159.482 55.1859C159.689 55.2935 159.973 55.3191 160.385 55.4637C161.607 56.2083 162.665 56.8718 163.723 57.5352Z" fill="#F3E4D7"/>
<path d="M156.109 56.875C157.188 57.4849 158.313 58.1836 159.487 58.9614C157.85 59.9688 156.181 60.9146 154.471 61.8186C153.427 62.3707 152.404 62.2403 151.733 61.4424C151.108 60.6993 151.428 60.0065 152.371 59.4927C153.309 58.9818 154.294 58.515 155.186 57.9641C155.598 57.7102 155.838 57.302 156.109 56.875Z" fill="#E0D4C2"/>
<path d="M158.234 71.0781C159.299 71.6408 160.347 72.2933 161.499 72.9892C159.862 73.9861 158.133 74.9534 156.372 75.8879C155.425 76.3905 154.512 76.3867 153.764 75.6218C153.033 74.8733 153.262 74.1945 154.134 73.6489C154.981 73.1183 155.942 72.6896 156.813 72.1784C157.322 71.8799 157.752 71.5073 158.234 71.0781Z" fill="#E0D3C1"/>
<path d="M35.3928 49.4559C33.8021 48.2822 33.8607 48.1491 35.9451 47.4978C39.413 46.4142 43.0155 45.7866 46.8793 45.6104C47.812 45.6747 48.6413 45.8002 49.6109 46.0486C50.2897 46.2085 50.8283 46.2454 51.3669 46.2822C51.5218 46.2856 51.6768 46.2889 51.9619 46.3878C52.306 46.485 52.5198 46.4867 52.7336 46.4884C53.8739 46.66 55.0142 46.8316 56.3078 47.1049C56.7789 47.2295 57.0969 47.2523 57.4148 47.2752C57.6761 47.2904 57.9374 47.3057 58.365 47.4392C58.8044 47.5985 59.0776 47.6397 59.3507 47.6808C59.752 47.702 60.1532 47.7232 60.6908 47.8505C61.1466 47.9766 61.466 47.9966 61.7855 48.0167C62.0418 48.027 62.2981 48.0372 62.6938 48.1418C63.0374 48.2576 63.2415 48.2791 63.4456 48.3006C64.5949 48.4549 65.7443 48.6092 67.0682 48.8786C67.6334 49.057 68.024 49.1203 68.4146 49.1836C71.779 49.6808 75.1603 50.123 78.5038 50.6887C83.0937 51.4652 86.6956 49.6655 87.3193 46.1913C87.4372 45.5346 87.5633 44.8786 87.8199 44.0951C87.963 43.7298 87.9718 43.4915 87.9806 43.2532C88.2122 41.9095 88.4439 40.5657 88.8132 39.0928C88.9714 38.6461 88.9921 38.3285 89.0127 38.011C89.1882 37.0713 89.3638 36.1315 89.7262 35.0981C90.5999 34.8849 91.2929 34.7822 91.9722 34.6427C94.185 34.1883 96.3928 33.7205 98.6025 33.2578C98.413 34.4346 98.2235 35.6114 97.9176 36.9089C97.7655 37.1846 97.7299 37.3395 97.6943 37.4944C97.4587 39.0938 97.2231 40.6931 96.8733 42.4183C96.7519 42.7834 96.7447 43.0226 96.7374 43.2618C96.7059 43.6098 96.6744 43.9578 96.5269 44.4205C96.3819 44.6851 96.3529 44.8351 96.324 44.985C96.3342 45.0302 96.3445 45.0754 96.3753 45.1876C95.9374 47.7671 95.4788 50.2796 94.9502 52.9426C94.8674 53.2299 94.8546 53.3668 94.8419 53.5037C93.9826 56.7655 89.6758 58.6448 85.3818 57.6406C85.0153 57.5548 84.6194 57.5386 84.0402 57.4338C83.657 57.3502 83.4707 57.3228 83.2844 57.2955C82.141 57.1142 80.9976 56.9328 79.6502 56.6914C79.1587 56.604 78.8712 56.5769 78.5837 56.5497C75.4264 56.0336 72.2692 55.5176 68.9213 54.9436C68.5447 54.862 68.3587 54.8383 68.1727 54.8145C64.9041 54.2942 61.6355 53.7739 58.1738 53.1932C57.7961 53.1124 57.6116 53.092 57.4271 53.0715C57.2769 53.0386 57.1267 53.0057 56.8464 52.8839C56.5072 52.7788 56.298 52.7627 56.0888 52.7465C54.9447 52.5799 53.8005 52.4133 52.5002 52.1521C52.027 52.0337 51.71 52.01 51.393 51.9862C51.1343 51.9769 50.8756 51.9676 50.454 51.8527C49.8613 51.6694 49.4318 51.5917 48.8949 51.5249C48.6465 51.5571 48.5053 51.5785 48.3641 51.5999C48.1135 51.5628 47.8628 51.5256 47.4216 51.4387C47.0477 51.3646 46.8643 51.3404 46.6808 51.3162C46.5308 51.2868 46.3808 51.2575 46.1017 51.1414C45.7632 51.0341 45.5539 51.0134 45.3445 50.9928C44.1996 50.8277 43.0546 50.6626 41.7541 50.403C41.2831 50.2817 40.9678 50.2548 40.6524 50.2279C40.3911 50.2139 40.1299 50.1999 39.7083 50.0833C39.3022 49.9182 39.0564 49.8556 38.8106 49.7931C37.7167 49.6893 36.6227 49.5854 35.3928 49.4559Z" fill="#535254"/>
<path d="M98.6627 33.1574C96.3913 33.7155 94.1835 34.1834 91.9707 34.6378C91.2914 34.7773 90.5984 34.8799 89.7722 34.9992C89.9735 32.9515 90.1243 30.8739 90.6993 28.8635C91.5876 25.7576 90.5086 23.4417 85.4255 22.7266C84.7156 22.4742 84.1324 22.2487 83.2852 21.921C83.8521 21.6755 84.3299 21.382 84.8781 21.2456C87.6575 20.5544 90.4597 19.9138 93.2416 19.2278C93.6326 19.1314 93.9558 18.8825 94.3364 18.6211C94.5146 18.5394 94.6667 18.5409 94.9593 18.6395C95.3447 18.8128 95.5896 18.8891 95.8346 18.9654C98.3963 19.5071 100.632 21.6275 100.379 23.7519C100.008 26.8672 99.2929 29.9598 98.6627 33.1574Z" fill="#575657"/>
<path d="M51.2753 46.2142C50.8273 46.2406 50.2887 46.2038 49.7256 46.0806C50.1956 46.0465 50.6901 46.0987 51.2753 46.2142Z" fill="#575657"/>
<path d="M88.9278 38.0703C88.9906 38.3261 88.9699 38.6438 88.8444 38.9826C88.7745 38.7133 88.8095 38.4227 88.9278 38.0703Z" fill="#575657"/>
<path d="M87.8997 43.3047C87.9715 43.4878 87.9627 43.7262 87.8558 43.9838C87.7782 43.7886 87.7986 43.5743 87.8997 43.3047Z" fill="#575657"/>
<path d="M57.3485 47.2076C57.0963 47.2511 56.7783 47.2282 56.4385 47.1311C56.7053 47.085 56.9941 47.1131 57.3485 47.2076Z" fill="#575657"/>
<path d="M61.7097 47.9554C61.4657 47.9938 61.1462 47.9738 60.8047 47.8791C61.0665 47.8353 61.3504 47.8661 61.7097 47.9554Z" fill="#575657"/>
<path d="M68.3514 49.1029C68.0231 49.1168 67.6325 49.0535 67.2021 48.9011C67.5379 48.8833 67.9135 48.9545 68.3514 49.1029Z" fill="#575657"/>
<path d="M52.6751 46.4263C52.519 46.4827 52.3052 46.481 52.0703 46.4155C52.2386 46.3572 52.428 46.3627 52.6751 46.4263Z" fill="#575657"/>
<path d="M59.297 47.6025C59.0772 47.6332 58.8041 47.592 58.4814 47.4786C58.7025 47.4478 58.9731 47.4893 59.297 47.6025Z" fill="#575657"/>
<path d="M63.3956 48.2386C63.2404 48.279 63.0363 48.2575 62.8135 48.176C62.9787 48.1362 63.1626 48.1564 63.3956 48.2386Z" fill="#575657"/>
<path d="M96.8279 43.2021C96.7439 43.0129 96.7512 42.7735 96.8558 42.5156C96.9419 42.7154 96.9305 42.9337 96.8279 43.2021Z" fill="#575657"/>
<path d="M96.4057 44.942C96.3528 44.83 96.3818 44.6799 96.4876 44.5156C96.5388 44.6356 96.5132 44.7698 96.4057 44.942Z" fill="#575657"/>
<path d="M95.7862 18.8978C95.5902 18.8913 95.3453 18.8149 95.0703 18.6641C95.2726 18.669 95.5049 18.7485 95.7862 18.8978Z" fill="#5B5A5C"/>
<path d="M97.7779 37.4465C97.7293 37.3296 97.7649 37.1747 97.8852 37.0078C97.934 37.1334 97.8981 37.2709 97.7779 37.4465Z" fill="#575657"/>
<path d="M78.6055 56.617C78.8711 56.5692 79.1586 56.5964 79.5174 56.6866C79.2683 56.7303 78.9478 56.7111 78.6055 56.617Z" fill="#00862B"/>
<path d="M49.001 51.5078C49.4306 51.5856 49.8601 51.6633 50.3285 51.8185C50.235 51.915 50.1029 51.934 49.7995 51.9125C49.4192 51.7505 49.2101 51.6292 49.001 51.5078Z" fill="#575657"/>
<path d="M40.7207 50.2893C40.9672 50.2523 41.2826 50.2792 41.6192 50.3791C41.3568 50.4192 41.0732 50.3862 40.7207 50.2893Z" fill="#575657"/>
<path d="M48.8946 51.5234C49.2109 51.6339 49.4201 51.7553 49.7004 51.9298C49.328 51.9077 48.8845 51.8324 48.4023 51.6778C48.505 51.5771 48.6461 51.5557 48.8946 51.5234Z" fill="#00862B"/>
<path d="M51.4648 52.0403C51.7095 52.0028 52.0265 52.0266 52.3651 52.1236C52.1036 52.1651 51.8204 52.1333 51.4648 52.0403Z" fill="#575657"/>
<path d="M57.4443 53.133C57.6112 53.0881 57.7957 53.1086 58.0435 53.1826C57.8919 53.2235 57.677 53.2109 57.4443 53.133Z" fill="#00862B"/>
<path d="M56.1455 52.8033C56.2974 52.762 56.5065 52.7782 56.7341 52.8564C56.5692 52.8991 56.386 52.8799 56.1455 52.8033Z" fill="#575657"/>
<path d="M38.8604 49.852C39.0554 49.8454 39.3012 49.908 39.5837 50.0389C39.384 50.0452 39.1475 49.9832 38.8604 49.852Z" fill="#575657"/>
<path d="M94.9237 53.4804C94.8542 53.3591 94.8669 53.2222 94.9527 53.0391C95.0191 53.1502 95.0126 53.3075 94.9237 53.4804Z" fill="#00862B"/>
<path d="M45.3994 51.0496C45.5529 51.0115 45.7622 51.0322 45.9887 51.1159C45.8223 51.1555 45.6388 51.1319 45.3994 51.0496Z" fill="#575657"/>
<path d="M83.2998 57.3542C83.4704 57.314 83.6567 57.3413 83.9037 57.4254C83.7481 57.4621 83.5318 57.442 83.2998 57.3542Z" fill="#00862B"/>
<path d="M46.6973 51.3792C46.8638 51.338 47.0472 51.3622 47.2929 51.4407C47.1416 51.4781 46.9279 51.4614 46.6973 51.3792Z" fill="#00862B"/>
<path d="M68.1885 54.8718C68.3576 54.83 68.5436 54.8537 68.7872 54.9356C68.6317 54.975 68.4185 54.9561 68.1885 54.8718Z" fill="#00862B"/>
</g>
<defs>
<clipPath id="clip0_6790_213267">
<rect width="180" height="180" fill="white"/>
</clipPath>
</defs>
</svg>
