<svg width="32" height="32" viewBox="0 0 32 32" fill="none" xmlns="http://www.w3.org/2000/svg">
<path d="M26.482 9.33075C26.052 7.44564 24.9974 5.76122 23.4895 4.55099C21.9815 3.34077 20.1088 2.67581 18.1753 2.66408H13.6286C12.5144 2.66164 11.4108 2.87949 10.3811 3.30511C9.35135 3.73072 8.41595 4.35569 7.62863 5.14408L7.44196 5.33075C7.02204 5.79083 6.71537 6.34262 6.54639 6.94216C6.37741 7.54171 6.35078 8.17243 6.46863 8.78408C6.56817 9.29179 6.77252 9.77316 7.06863 10.1974C6.92566 10.2762 6.79156 10.37 6.66863 10.4774C6.13236 10.9677 5.7127 11.5719 5.44044 12.2457C5.16819 12.9194 5.05025 13.6455 5.0953 14.3707C5.14039 16.196 5.80849 17.9509 6.98863 19.3441L8.16196 20.8107C8.48492 21.2157 8.86174 21.5746 9.28196 21.8774V27.9974C9.28196 28.351 9.42244 28.6902 9.67249 28.9402C9.92254 29.1903 10.2617 29.3307 10.6153 29.3307H21.282C21.6356 29.3307 21.9747 29.1903 22.2248 28.9402C22.4748 28.6902 22.6153 28.351 22.6153 27.9974V21.5841C23.2909 21.1101 23.8891 20.5344 24.3886 19.8774L24.8553 19.2774C26.0108 17.7883 26.6476 15.9621 26.6686 14.0774V11.0774C26.6723 10.49 26.6096 9.9041 26.482 9.33075ZM12.002 26.6641V25.3307H20.002V26.6641H12.002ZM24.002 14.0774C24.0001 15.3693 23.5738 16.6248 22.7886 17.6507L22.322 18.2507C21.8765 18.8401 21.3135 19.3304 20.6686 19.6908C20.4652 19.8082 20.2963 19.9774 20.1793 20.1811C20.0622 20.3848 20.001 20.6158 20.002 20.8507V22.6641H12.002V21.1441C11.9979 20.9088 11.9316 20.6787 11.8098 20.4773C11.688 20.2759 11.5151 20.1103 11.3086 19.9974C10.9205 19.7844 10.5766 19.4993 10.2953 19.1574L9.10863 17.6908C8.30979 16.7669 7.84075 15.6037 7.7753 14.3841C7.7425 14.0433 7.78261 13.6993 7.89295 13.3752C8.0033 13.0511 8.18136 12.7541 8.4153 12.5041C8.95218 12.1075 9.61826 11.9267 10.282 11.9974H10.5353H16.1353C16.4653 12.0306 16.7711 12.1856 16.993 12.4321C17.2149 12.6787 17.337 12.9991 17.3353 13.3307C17.348 13.4979 17.3266 13.666 17.2725 13.8247C17.2184 13.9834 17.1327 14.1295 17.0205 14.2541C16.9084 14.3788 16.7721 14.4794 16.6199 14.5498C16.4678 14.6203 16.3029 14.6592 16.1353 14.6641H13.3353C12.9817 14.6641 12.6425 14.8046 12.3925 15.0546C12.1424 15.3047 12.002 15.6438 12.002 15.9974C12.002 16.351 12.1424 16.6902 12.3925 16.9402C12.6425 17.1903 12.9817 17.3307 13.3353 17.3307H16.1353C17.1729 17.2961 18.1564 16.8595 18.8779 16.1131C19.5995 15.3666 20.0025 14.3689 20.002 13.3307C20.0058 12.8282 19.9107 12.3298 19.722 11.8641C20.3788 11.7258 21.0091 11.4827 21.5886 11.1441C21.7388 11.0526 21.8694 10.9323 21.9728 10.7901C22.0763 10.6479 22.1506 10.4867 22.1915 10.3156C22.2324 10.1446 22.2391 9.9672 22.2111 9.79359C22.1832 9.61999 22.1211 9.45362 22.0286 9.30408C21.8439 9.00448 21.5482 8.79009 21.206 8.70767C20.8638 8.62524 20.5029 8.68147 20.202 8.86408C19.5837 9.18774 18.8996 9.36561 18.202 9.38408H10.5086C10.2417 9.33715 9.98187 9.25651 9.7353 9.14408C9.56694 9.07046 9.41928 8.95654 9.30535 8.81238C9.19141 8.66821 9.11469 8.49823 9.08196 8.31742C9.02501 8.11819 9.01834 7.90795 9.06255 7.70551C9.10676 7.50308 9.20047 7.31476 9.3353 7.15742L9.4553 7.02408C10.0038 6.47904 10.6552 6.04861 11.3717 5.75789C12.0882 5.46717 12.8554 5.32197 13.6286 5.33075H18.1753C19.5073 5.32641 20.8008 5.77758 21.8412 6.60941C22.8816 7.44124 23.6064 8.60374 23.8953 9.90408C23.9753 10.2899 24.0111 10.6835 24.002 11.0774V14.0774Z" fill="white"/>
</svg>
