<svg width="154" height="180" viewBox="0 0 154 180" fill="none" xmlns="http://www.w3.org/2000/svg">
<g opacity="0.3" clip-path="url(#clip0_6790_213323)">
<path d="M-26.3428 63.4989C-26.3428 62.4096 -26.3428 61.3203 -26.208 60.0798C-24.3177 60.2844 -22.5556 60.6238 -20.8079 60.9989C-10.8436 63.1379 -0.880707 65.2802 9.07863 67.4313C19.7478 69.7358 30.4122 72.052 41.0795 74.361C43.4343 74.8707 43.4192 74.8489 44.0085 73.108C45.4421 68.8727 46.9161 64.6446 48.3769 60.4142C49.7127 56.5457 51.0348 52.6747 52.4062 48.8129C52.6642 48.0864 52.612 47.6974 51.4399 47.4574C47.374 46.6249 43.3492 45.6869 39.2986 44.8141C29.3369 42.6677 19.3659 40.5439 9.40546 38.3943C1.4187 36.6707 -6.562 34.932 -14.5349 33.1748C-15.6355 32.9323 -16.0381 33.2163 -16.3806 33.9513C-19.2398 40.0889 -22.1357 46.2177 -25.0681 52.337C-25.3153 52.8527 -25.9097 53.2803 -26.3428 53.7489C-26.3428 35.7526 -26.3428 17.7563 -26.3428 -0.245529C33.6396 -0.245529 93.622 -0.245529 153.657 -0.245529C153.657 29.7298 153.657 59.7108 153.657 89.6917C153.657 119.685 153.657 149.679 153.657 179.711C93.6573 179.711 33.6572 179.711 -26.3428 179.711C-26.3428 171.229 -26.3428 162.731 -26.2101 154.118C-25.6375 154.093 -25.194 154.173 -24.7583 154.271C-17.4368 155.926 -10.065 157.365 -2.33128 157.571C8.21236 157.853 18.0734 156.386 26.9521 151.994C33.9297 148.543 36.1434 143.383 32.4969 137.775C30.7927 135.155 28.7014 132.667 27.0215 130.038C25.0879 127.014 24.2446 123.837 25.0139 120.456C26.0021 116.113 28.162 112.1 31.6139 108.544C33.9293 106.158 36.7701 104.026 39.5562 101.906C40.6784 101.053 42.1951 101.271 43.0269 102.055C43.8319 102.813 43.6826 103.909 42.5151 104.616C36.0703 108.519 32.5393 113.693 30.2269 119.408C29.7257 120.647 29.5542 121.807 30.9036 122.897C31.9666 123.755 32.7277 124.813 33.8022 125.662C35.5487 127.043 37.488 128.299 40.1025 128.737C43.2853 129.27 45.6288 128.017 47.7526 126.586C54.3282 122.155 56.5655 116.41 56.5648 110.146C56.5643 105.09 55.0519 100.148 53.4225 95.2551C51.927 90.7643 49.9245 86.3909 46.5712 82.417C44.4971 79.9592 42.1058 77.8306 37.7931 77.3326C35.8437 77.1076 33.9856 76.4798 32.073 76.0669C20.9172 73.6591 9.75792 71.2599 -1.40092 68.8595C-9.71431 67.0712 -18.0288 65.2856 -26.3428 63.4989ZM121.035 124.134C122.255 123.146 123.55 122.2 124.682 121.161C129.727 116.533 132.217 111.363 131.056 105.378C130.264 101.296 128.089 97.6248 124.993 94.2445C120.831 89.7011 115.103 86.6307 107.688 85.5789C100.597 84.5731 93.5936 85.2184 86.7026 86.7517C77.4187 88.8174 69.0502 92.3201 60.418 95.42C58.8723 95.9751 58.7661 96.6054 59.0807 97.6783C60.7421 103.344 62.2267 109.031 60.9173 114.866C59.6702 120.423 56.7861 125.39 50.9322 129.254C45.8673 132.596 40.7657 133.264 35.5959 131.252C34.6813 130.896 33.8588 130.415 32.9939 129.992C33.1106 130.888 33.464 131.652 34.0154 132.332C36.7936 135.755 39.4014 139.206 39.1606 143.382C39.1443 143.665 39.7058 144.08 40.1351 144.242C43.7455 145.607 47.6233 146.208 51.6733 146.332C60.5772 146.605 68.8702 144.852 76.8182 142.174C84.8911 139.453 92.8378 136.535 100.851 133.721C108.075 131.184 114.974 128.291 121.035 124.134ZM109.016 59.3652C106.75 58.1054 104.528 56.801 102.211 55.5943C95.8714 52.2937 89.2678 49.3359 81.6794 47.7795C78.9213 47.2138 76.0309 46.6903 73.2918 47.6151C67.7013 49.5025 62.1872 51.5125 56.6967 53.5507C56.0059 53.8071 55.378 54.4865 55.1756 55.0556C52.7568 61.8551 50.4338 68.6727 48.0593 75.4806C47.6525 76.647 47.3517 77.7223 48.8617 78.6586C49.4906 79.0485 49.8626 79.6634 50.3269 80.1875C53.4211 83.68 55.3951 87.5303 57.0296 91.4786C57.3811 92.3276 57.7986 92.441 58.8348 92.039C61.351 91.0629 63.9127 90.1488 66.4588 89.2138C74.5289 86.2503 82.698 83.4711 91.6746 82.2539C93.7244 81.9759 95.7981 81.7915 98.0355 81.5449C97.7135 80.9409 97.4656 80.4869 97.2289 80.0299C94.8145 75.3662 93.6331 70.5749 94.5482 65.5901C94.827 64.0715 95.7354 63.5507 97.4351 63.7161C98.8889 63.8575 99.4975 64.6552 99.2745 66.1101C98.4916 71.2198 99.9735 76.0432 102.896 80.6542C103.199 81.1313 104.186 81.5989 104.928 81.6713C108.927 82.0609 112.851 82.6599 116.375 84.1068C118.128 84.8265 119.491 84.6594 120.61 83.6695C121.49 82.8922 122.321 81.9494 122.626 80.9881C124.059 76.4707 122.626 72.269 119.71 68.2358C117.153 64.6983 113.471 61.9106 109.016 59.3652ZM21.0389 31.8595C18.1399 32.9124 15.241 33.9652 12.342 35.0181C13.5948 35.6078 14.9189 35.8124 16.1355 36.197C17.8393 36.7355 19.2705 36.4146 20.8303 35.8526C29.6787 32.6647 38.6034 29.5875 47.4123 26.3434C50.308 25.277 51.3376 26.0613 52.3973 27.6446C55.3462 32.0507 58.2738 36.4644 61.2286 40.8684C62.8146 43.2325 62.5634 43.7252 59.2141 44.841C58.6695 45.0224 57.8895 45.3239 57.8074 45.6487C57.6036 46.4548 57.7404 47.3065 57.7404 48.2616C62.6222 46.6596 67.4083 45.089 72.291 43.4867C72.2413 43.4025 72.1357 43.1761 71.9815 42.9689C68.9649 38.9146 65.9431 34.8624 62.9214 30.8102C60.5528 27.6339 58.1226 24.4807 55.8465 21.2697C55.0638 20.1655 54.2444 19.9666 52.7896 20.5374C50.9319 21.2663 49.0054 21.9023 47.1089 22.5788C38.4986 25.65 29.8885 28.7215 21.0389 31.8595ZM29.1041 38.9835C36.1404 40.5169 43.1749 42.0549 50.2175 43.5731C50.687 43.6743 51.2962 43.7538 51.7064 43.6222C53.3021 43.1101 54.8437 42.5087 56.455 41.9224C56.232 41.4684 56.1065 41.1066 55.8853 40.7791C53.6771 37.5098 51.3766 34.2718 49.279 30.9655C48.6238 29.9328 48.035 29.9813 46.8646 30.4084C42.2912 32.0773 37.674 33.6826 33.0824 35.3253C30.6576 36.1928 28.2519 37.0886 25.8376 37.9716C25.8417 38.0731 25.8458 38.1746 25.8499 38.2761C26.852 38.4845 27.8541 38.6928 29.1041 38.9835Z" fill="white"/>
<path d="M-26.3432 63.6206C-18.0292 65.2902 -9.71471 67.0758 -1.40131 68.8641C9.75753 71.2645 20.9168 73.6637 32.0726 76.0715C33.9853 76.4844 35.8433 77.1122 37.7927 77.3372C42.1054 77.8352 44.4967 79.9638 46.5708 82.4216C49.9241 86.3955 51.9267 90.7689 53.4221 95.2597C55.0516 100.153 56.5639 105.094 56.5645 110.15C56.5651 116.415 54.3278 122.16 47.7522 126.591C45.6284 128.022 43.2849 129.274 40.1021 128.741C37.4876 128.303 35.5484 127.047 33.8018 125.667C32.7273 124.818 31.9662 123.76 30.9033 122.901C29.5538 121.811 29.7253 120.652 30.2265 119.413C32.5389 113.697 36.0699 108.524 42.5148 104.621C43.6822 103.914 43.8315 102.818 43.0265 102.059C42.1947 101.276 40.678 101.057 39.5558 101.911C36.7697 104.031 33.9289 106.162 31.6135 108.548C28.1616 112.105 26.0017 116.118 25.0135 120.461C24.2442 123.841 25.0875 127.018 27.0211 130.043C28.701 132.671 30.7923 135.159 32.4965 137.78C36.143 143.387 33.9293 148.547 26.9517 151.999C18.073 156.391 8.21196 157.858 -2.33168 157.576C-10.0653 157.369 -17.4372 155.93 -24.7586 154.276C-25.1943 154.177 -25.6379 154.097 -26.2105 154.006C-26.3432 123.915 -26.3432 93.8263 -26.3432 63.6206ZM10.5575 120.889C12.0137 120.841 12.6225 120.115 12.9845 119.235C13.9802 116.816 14.9532 114.393 15.9216 111.968C16.429 110.698 15.9698 109.794 14.6798 109.457C13.2821 109.091 11.8406 109.535 11.3186 110.74C10.1904 113.345 9.16043 115.977 8.26217 118.629C7.82405 119.922 8.46069 120.457 10.5575 120.889ZM8.18829 136.24C8.62932 137.396 9.7531 137.76 11.2222 137.468C12.4945 137.215 13.0048 136.476 12.8575 135.536C12.4505 132.939 12.0097 130.344 11.5996 127.746C11.4036 126.505 10.469 125.757 9.07844 125.775C7.53706 125.793 6.51733 126.538 6.69239 127.899C7.04284 130.626 7.61822 133.337 8.18829 136.24ZM19.4213 145.556C18.5786 144.572 17.8047 143.552 16.8717 142.616C16.0955 141.837 14.9925 141.487 13.7418 142.087C12.5407 142.663 12.0134 143.526 12.8331 144.442C15.0034 146.868 17.2453 149.262 19.5767 151.607C20.4727 152.508 22.0361 152.558 23.0577 151.861C24.1352 151.125 24.1692 150.264 23.3081 149.405C22.0677 148.167 20.8 146.944 19.4213 145.556ZM21.7042 94.5495C19.8156 97.199 17.8747 99.8299 16.066 102.508C15.4119 103.477 16.0935 104.582 17.3629 104.889C18.7411 105.221 19.8075 104.901 20.4762 103.92C22.0972 101.542 23.7123 99.1621 25.3869 96.8043C26.0248 95.9061 25.9821 95.0642 25.0049 94.4095C24.0655 93.7802 22.9124 93.8284 21.7042 94.5495ZM36.1986 80.3564C33.6461 82.2303 31.0109 84.0495 28.5743 86.0002C27.2575 87.0544 27.4539 88.0024 28.6803 88.7007C29.84 89.361 31.1688 89.1148 32.3814 88.1297C34.2382 86.6215 36.2435 85.2067 38.0243 83.6542C38.6413 83.1162 39.2826 82.1388 39.0012 81.6283C38.6759 81.0381 37.3447 80.7416 36.1986 80.3564Z" fill="#00862B"/>
<path d="M-26.3433 53.8645C-25.9102 53.2788 -25.3158 52.8512 -25.0687 52.3354C-22.1362 46.2161 -19.2404 40.0874 -16.3811 33.9498C-16.0387 33.2147 -15.636 32.9307 -14.5355 33.1733C-6.56254 34.9304 1.41814 36.6692 9.4049 38.3928C19.3654 40.5423 29.3363 42.6661 39.2981 44.8126C43.3487 45.6854 47.3735 46.6234 51.4393 47.4559C52.6115 47.6958 52.6636 48.0848 52.4056 48.8113C51.0343 52.6731 49.7122 56.5442 48.3764 60.4127C46.9156 64.6431 45.4416 68.8711 44.0079 73.1064C43.4186 74.8473 43.4338 74.8692 41.0789 74.3595C30.4116 72.0505 19.7473 69.7342 9.07808 67.4298C-0.88126 65.2787 -10.8442 63.1363 -20.8084 60.9974C-22.5561 60.6222 -24.3183 60.2829 -26.2086 59.9622C-26.3433 57.9921 -26.3433 55.9869 -26.3433 53.8645ZM34.8803 69.1245C36.2037 69.0721 36.877 68.5547 37.2508 67.6281C39.3895 62.3267 41.5886 57.0381 43.7712 51.7461C44.3076 50.4454 43.694 49.5543 41.8915 49.1498C39.3269 48.5741 36.7466 48.0356 34.1754 47.4754C26.3575 45.7721 18.546 44.0533 10.722 42.365C4.53555 41.0301 -1.65762 39.7109 -7.86506 38.429C-9.76167 38.0373 -10.8264 38.4971 -11.3888 39.8619C-13.5378 45.0766 -15.6717 50.2946 -17.7669 55.5209C-18.4058 57.1145 -17.7101 57.937 -15.4986 58.4148C-11.5044 59.2776 -7.50517 60.1282 -3.51226 60.9942C4.36813 62.7034 12.2386 64.437 20.127 66.1263C24.9427 67.1577 29.7843 68.1252 34.8803 69.1245Z" fill="#626565"/>
<path d="M120.936 124.186C114.974 128.29 108.074 131.183 100.851 133.72C92.8369 136.534 84.8903 139.452 76.8174 142.173C68.8694 144.851 60.5764 146.604 51.6725 146.332C47.6225 146.207 43.7447 145.606 40.1342 144.241C39.705 144.079 39.1435 143.664 39.1598 143.381C39.4006 139.205 36.7928 135.755 34.0146 132.331C33.4632 131.651 33.1098 130.887 32.993 129.991C33.858 130.414 34.6805 130.895 35.595 131.251C40.7649 133.263 45.8664 132.595 50.9314 129.253C56.7853 125.389 59.6694 120.422 60.9165 114.865C62.2259 109.03 60.7413 103.343 59.0799 97.6774C58.7653 96.6046 58.8715 95.9742 60.4172 95.4191C69.0493 92.3193 77.4179 88.8165 86.7017 86.7508C93.5927 85.2175 100.596 84.5722 107.687 85.578C115.102 86.6298 120.83 89.7002 124.992 94.2436C128.088 97.6239 130.263 101.295 131.055 105.378C132.217 111.362 129.726 116.532 124.681 121.16C123.549 122.199 122.255 123.145 120.936 124.186Z" fill="#00862B"/>
<path d="M109.114 59.4208C113.47 61.9137 117.152 64.7014 119.709 68.2389C122.625 72.2721 124.058 76.4738 122.626 80.9912C122.321 81.9525 121.489 82.8953 120.61 83.6726C119.49 84.6625 118.128 84.8296 116.375 84.1099C112.85 82.663 108.926 82.0639 104.928 81.6744C104.185 81.602 103.198 81.1344 102.895 80.6573C99.9728 76.0463 98.4909 71.2229 99.2739 66.1132C99.4968 64.6582 98.8882 63.8606 97.4344 63.7192C95.7347 63.5538 94.8263 64.0746 94.5475 65.5932C93.6324 70.578 94.8138 75.3692 97.2283 80.033C97.4649 80.49 97.7128 80.9439 98.0348 81.5479C95.7974 81.7946 93.7237 81.979 91.6739 82.2569C82.6973 83.4741 74.5282 86.2534 66.4582 89.2169C63.912 90.1519 61.3503 91.066 58.8341 92.0421C57.7979 92.4441 57.3805 92.3307 57.029 91.4817C55.3944 87.5334 53.4204 83.6831 50.3262 80.1906C49.8619 79.6665 49.4899 79.0516 48.861 78.6617C47.351 77.7253 47.6518 76.6501 48.0586 75.4837C50.4331 68.6758 52.7561 61.8582 55.1749 55.0587C55.3773 54.4896 56.0052 53.8102 56.696 53.5538C62.1865 51.5156 67.7006 49.5056 73.2911 47.6182C76.0302 46.6934 78.9206 47.2169 81.6787 47.7826C89.2671 49.339 95.8707 52.2968 102.21 55.5973C104.528 56.8041 106.75 58.1085 109.114 59.4208Z" fill="#00862B"/>
<path d="M21.1576 31.8302C29.8875 28.7255 38.4977 25.6541 47.108 22.5828C49.0045 21.9063 50.931 21.2704 52.7886 20.5415C54.2434 19.9706 55.0628 20.1696 55.8456 21.2738C58.1217 24.4848 60.5518 27.638 62.9204 30.8143C65.9422 34.8665 68.9639 38.9187 71.9805 42.9729C72.1347 43.1801 72.2403 43.4065 72.29 43.4908C67.4073 45.0931 62.6212 46.6637 57.7395 48.2656C57.7395 47.3106 57.6027 46.4589 57.8065 45.6528C57.8886 45.3279 58.6686 45.0265 59.2132 44.8451C62.5624 43.7293 62.8137 43.2365 61.2276 40.8725C58.2729 36.4684 55.3452 32.0548 52.3963 27.6486C51.3367 26.0654 50.3071 25.2811 47.4114 26.3475C38.6025 29.5916 29.6778 32.6687 20.8293 35.8567C19.2695 36.4186 17.8383 36.7396 16.1345 36.201C14.9179 35.8164 13.5938 35.6119 12.3411 35.0222C15.24 33.9693 18.139 32.9165 21.1576 31.8302Z" fill="#4E4F51"/>
<path d="M28.9793 38.9464C27.8532 38.6969 26.8511 38.4886 25.849 38.2803C25.8449 38.1787 25.8408 38.0772 25.8367 37.9757C28.251 37.0927 30.6567 36.197 33.0815 35.3295C37.6731 33.6868 42.2903 32.0815 46.8637 30.4125C48.0341 29.9854 48.6229 29.9369 49.2781 30.9697C51.3757 34.2759 53.6762 37.5139 55.8844 40.7833C56.1056 41.1107 56.2311 41.4725 56.4541 41.9265C54.8428 42.5128 53.3012 43.1142 51.7055 43.6263C51.2953 43.758 50.6861 43.6784 50.2166 43.5772C43.174 42.0591 36.1395 40.521 28.9793 38.9464Z" fill="#00862B"/>
<path d="M10.4308 120.883C8.46084 120.453 7.8242 119.918 8.26232 118.625C9.16058 115.973 10.1905 113.342 11.3187 110.737C11.8407 109.531 13.2823 109.088 14.6799 109.453C15.9699 109.79 16.4291 110.694 15.9217 111.965C14.9533 114.389 13.9804 116.813 12.9847 119.231C12.6226 120.111 12.0139 120.837 10.4308 120.883Z" fill="white"/>
<path d="M8.14427 136.146C7.61797 133.336 7.04259 130.625 6.69214 127.899C6.51708 126.537 7.53681 125.793 9.07819 125.774C10.4688 125.757 11.4033 126.504 11.5994 127.745C12.0095 130.343 12.4502 132.938 12.8572 135.535C13.0045 136.475 12.4942 137.215 11.222 137.467C9.75285 137.759 8.62907 137.395 8.14427 136.146Z" fill="white"/>
<path d="M19.4819 145.632C20.7993 146.941 22.067 148.164 23.3074 149.402C24.1685 150.261 24.1345 151.122 23.057 151.858C22.0354 152.555 20.472 152.505 19.576 151.604C17.2446 149.259 15.0027 146.865 12.8324 144.439C12.0127 143.523 12.54 142.66 13.7411 142.084C14.9918 141.484 16.0948 141.834 16.871 142.613C17.804 143.549 18.5779 144.569 19.4819 145.632Z" fill="white"/>
<path d="M21.7797 94.4724C22.9118 93.8283 24.065 93.7801 25.0044 94.4094C25.9815 95.0641 26.0242 95.906 25.3863 96.8042C23.7117 99.162 22.0966 101.542 20.4756 103.92C19.807 104.901 18.7406 105.221 17.3623 104.889C16.0929 104.582 15.4114 103.476 16.0655 102.508C17.8741 99.8298 19.8151 97.1989 21.7797 94.4724Z" fill="white"/>
<path d="M36.3243 80.3295C37.3446 80.7341 38.6758 81.0306 39.0011 81.6208C39.2825 82.1313 38.6413 83.1087 38.0242 83.6467C36.2434 85.1992 34.2381 86.614 32.3814 88.1223C31.1687 89.1073 29.8399 89.3536 28.6802 88.6932C27.4539 87.995 27.2574 87.0469 28.5742 85.9927C31.0108 84.042 33.646 82.2229 36.3243 80.3295Z" fill="white"/>
<path d="M34.747 69.125C29.7839 68.1273 24.9424 67.1597 20.1266 66.1284C12.2382 64.4391 4.36777 62.7054 -3.51263 60.9962C-7.50553 60.1302 -11.5047 59.2797 -15.4989 58.4168C-17.7105 57.9391 -18.4062 57.1165 -17.7673 55.5229C-15.6721 50.2967 -13.5381 45.0786 -11.3892 39.8639C-10.8267 38.4991 -9.76204 38.0394 -7.86543 38.431C-1.65798 39.7129 4.53518 41.0321 10.7216 42.367C18.5456 44.0553 26.3571 45.7741 34.175 47.4774C36.7462 48.0376 39.3265 48.5761 41.8912 49.1518C43.6936 49.5563 44.3073 50.4474 43.7708 51.7481C41.5883 57.0402 39.3892 62.3287 37.2504 67.6301C36.8766 68.5567 36.2033 69.0741 34.747 69.125ZM7.03646 59.5671C15.703 61.4615 24.3696 63.356 33.1365 65.2724C33.5069 64.384 33.8187 63.6375 34.1294 62.8909C35.4682 59.6728 36.817 56.4568 38.136 53.2344C38.3852 52.6257 38.5687 52.0457 37.3082 51.7892C33.3017 50.9741 29.3185 50.0981 25.3301 49.2364C17.0187 47.4408 8.70978 45.6392 0.39967 43.8405C-2.09248 43.3011 -4.5852 42.763 -7.24627 42.1879C-9.05474 46.5859 -10.8143 50.8651 -12.5878 55.178C-12.2503 55.314 -12.0212 55.4483 -11.7603 55.5052C-5.58747 56.852 0.588764 58.1904 7.03646 59.5671Z" fill="#060403"/>
<path d="M6.90083 59.5498C0.589172 58.1915 -5.58706 56.8531 -11.7599 55.5063C-12.0208 55.4494 -12.2499 55.315 -12.5874 55.1791C-10.8139 50.8662 -9.05433 46.587 -7.24586 42.1889C-4.58479 42.7641 -2.09207 43.3021 0.400078 43.8416C8.71019 45.6403 17.0191 47.4419 25.3305 49.2375C29.3189 50.0991 33.3021 50.9751 37.3086 51.7903C38.5691 52.0468 38.3856 52.6268 38.1365 53.2355C36.8174 56.4579 35.4686 59.6738 34.1298 62.8919C33.8191 63.6386 33.5073 64.385 33.1369 65.2734C24.37 63.357 15.7034 61.4626 6.90083 59.5498Z" fill="#00862B"/>
</g>
<defs>
<clipPath id="clip0_6790_213323">
<rect width="180" height="180" fill="white" transform="matrix(-1 0 0 -1 154 180)"/>
</clipPath>
</defs>
</svg>
