<svg width="123" height="180" viewBox="0 0 123 180" fill="none" xmlns="http://www.w3.org/2000/svg">
<g opacity="0.3" clip-path="url(#clip0_6790_214722)">
<path d="M-39.6846 140.502C-39.6846 124.247 -39.6846 107.991 -39.5768 91.7008C-38.0833 91.3579 -36.6944 91.0593 -35.3127 90.7407C-33.1348 90.2386 -30.9391 89.7763 -28.792 89.2012C-25.2119 88.2424 -21.5207 87.6447 -17.7978 87.2984C-13.7289 86.92 -9.6197 87.0681 -5.51933 86.5796C-1.15332 86.0594 3.33327 86.184 7.76503 85.995C11.0755 85.8537 14.3825 85.6614 17.6911 85.4919C17.7436 85.4892 17.7964 85.4896 17.8488 85.4856C21.0901 85.2422 24.326 84.914 27.5745 84.785C29.6997 84.7005 31.711 84.6468 33.5102 83.5378C35.4288 82.3552 37.453 81.2689 39.5157 80.2476C41.0071 79.5091 42.5621 78.7526 44.2226 78.3508C46.4545 77.8109 48.8173 77.6128 51.1203 77.2536C54.0318 76.7996 56.9585 76.3931 59.8405 75.8412C61.1495 75.5906 62.4249 75.1242 63.6148 74.6097C67.4275 72.961 70.5118 70.3343 74.8255 69.3537C76.8842 68.8857 78.9448 68.4189 81.0228 68.0098C83.0538 67.61 85.2516 67.5284 87.1052 66.846C88.4902 66.3361 89.1286 66.5672 90.0049 67.2617C91.7224 68.6228 93.4873 69.9464 95.2331 71.3804C95.0648 72.57 94.2803 73.1291 92.9076 73.3254C90.4314 73.6794 87.9736 74.1137 85.5061 74.5066C82.5914 74.9706 79.6745 75.4262 76.6558 75.9017C77.1693 77.9461 77.6427 79.8309 78.1203 81.7323C78.6049 81.7133 78.8682 81.7285 79.1179 81.6893C82.9244 81.0909 86.7452 80.5418 90.5295 79.8652C94.119 79.2235 98.0922 79.3462 100.848 76.9805C100.895 79.0741 100.921 81.0423 100.914 83.1043C99.8212 85.4132 100.252 87.6657 100.624 89.9149C100.632 89.9643 100.793 89.9978 100.881 90.1428C101.019 90.8887 101.024 91.5731 101.324 92.164C102.267 94.024 103.387 95.8283 104.317 97.6921C105.713 100.489 107.006 103.318 108.371 106.193C107.89 106.498 107.373 106.873 106.799 107.181C103.761 108.811 100.721 110.438 97.6506 112.029C97.1046 112.312 96.5787 112.617 95.7376 112.115C93.6825 110.89 91.48 109.818 89.3169 108.708C87.9558 108.01 86.5587 107.356 85.0646 106.627C84.1275 108.501 83.2341 110.445 82.1901 112.336C80.885 114.701 79.4315 117.014 78.0889 119.366C77.1801 120.959 76.3827 122.591 75.4813 124.186C73.8517 127.07 72.1983 129.946 70.5098 132.808C70.2655 133.223 69.8596 133.669 69.3751 133.883C68.3864 134.32 67.3018 134.627 66.2413 134.956C63.985 135.657 61.6903 136.285 59.463 137.039C55.4222 138.406 51.378 139.775 47.4167 141.278C45.2981 142.081 42.6011 142.337 41.7402 144.591C41.5312 145.139 40.8372 145.563 40.4039 146.065C39.1684 147.495 37.95 148.934 36.7298 150.371C36.0065 151.224 35.5494 152.145 35.8279 153.186C35.9634 153.693 36.3259 154.164 36.4377 154.672C36.8499 156.542 37.2029 158.421 37.5731 160.298C37.9372 162.144 38.2405 163.998 38.6703 165.834C39.1647 167.947 39.6025 170.082 40.37 172.135C41.2006 174.358 42.3833 176.498 43.4466 178.747C42.9887 178.859 42.7071 178.988 42.4249 178.989C37.6879 179.001 32.9507 179.008 28.214 178.976C27.8498 178.974 27.326 178.747 27.1514 178.502C25.412 176.062 23.2557 173.739 23.7835 170.664C23.9521 169.683 23.8189 168.668 23.8041 167.668C23.7999 167.383 23.8259 167.058 23.67 166.821C21.6748 163.784 19.5784 160.787 17.6479 157.725C14.8992 153.365 12.282 148.952 9.5681 144.578C9.16233 143.924 8.69761 143.14 7.97261 142.801C6.98965 142.341 5.74224 142.201 4.5848 142.017C2.71496 141.718 0.825211 141.499 -1.05454 141.239C-1.96632 141.112 -2.87524 140.973 -3.78414 140.834C-5.58134 140.56 -7.38627 140.026 -9.17229 140.064C-11.9563 140.123 -14.7332 140.536 -17.5017 140.861C-19.6341 141.111 -21.7489 141.455 -23.9751 141.72C-24.5225 141.719 -24.9839 141.706 -25.4071 141.801C-27.8824 142.356 -30.3541 142.432 -32.8545 141.898C-35.1244 141.413 -37.4074 140.966 -39.6846 140.502Z" fill="#00862B"/>
<path d="M-23.8715 141.756C-21.7489 141.454 -19.6341 141.109 -17.5017 140.859C-14.7333 140.534 -11.9563 140.121 -9.17229 140.062C-7.38627 140.024 -5.58134 140.558 -3.78415 140.832C-2.87524 140.971 -1.96632 141.111 -1.05454 141.237C0.825207 141.497 2.71496 141.716 4.58479 142.015C5.74224 142.199 6.98964 142.339 7.97261 142.799C8.6976 143.138 9.16233 143.922 9.56809 144.576C12.282 148.95 14.8992 153.363 17.6479 157.723C19.5784 160.785 21.6748 163.782 23.67 166.819C23.8259 167.056 23.7999 167.381 23.8041 167.666C23.8189 168.666 23.9521 169.681 23.7835 170.662C23.2557 173.737 25.412 176.06 27.1514 178.5C27.326 178.745 27.8498 178.972 28.214 178.974C32.9507 179.006 37.6879 178.999 42.4249 178.987C42.7071 178.986 42.9887 178.857 43.4466 178.745C42.3833 176.496 41.2006 174.356 40.37 172.134C39.6025 170.08 39.1647 167.945 38.6703 165.832C38.2405 163.996 37.9372 162.142 37.5731 160.296C37.2029 158.419 36.8499 156.54 36.4377 154.67C36.3259 154.162 35.9634 153.691 35.8279 153.185C35.5494 152.143 36.0065 151.222 36.7298 150.37C37.95 148.932 39.1684 147.493 40.4039 146.063C40.8372 145.561 41.5312 145.137 41.7402 144.589C42.6011 142.335 45.2981 142.079 47.4167 141.276C51.378 139.773 55.4222 138.404 59.463 137.037C61.6903 136.283 63.985 135.655 66.2413 134.954C67.3018 134.625 68.3864 134.318 69.3751 133.881C69.8596 133.667 70.2655 133.221 70.5098 132.806C72.1983 129.944 73.8517 127.068 75.4813 124.184C76.3827 122.589 77.1801 120.957 78.0889 119.365C79.4315 117.012 80.885 114.699 82.1901 112.335C83.2341 110.443 84.1275 108.5 85.0646 106.625C86.5587 107.354 87.9558 108.008 89.3169 108.706C91.48 109.816 93.6825 110.888 95.7376 112.113C96.5787 112.615 97.1046 112.31 97.6506 112.027C100.721 110.437 103.761 108.809 106.799 107.179C107.373 106.871 107.89 106.496 108.371 106.191C107.006 103.316 105.713 100.487 104.317 97.6902C103.387 95.8264 102.267 94.0221 101.324 92.1621C101.024 91.5712 101.019 90.8868 101.015 90.1246C102.116 89.8991 103.096 89.8481 104.042 89.6782C106.048 89.3181 108.041 88.9123 110.029 88.4941C111.464 88.1924 113.405 88.1932 114.208 87.4455C116.739 85.0908 118.817 82.4335 121.122 79.9232C121.76 79.2286 122.579 78.6382 123.315 78C123.315 112.068 123.315 146.136 123.315 180.227C68.9821 180.227 14.6488 180.227 -39.6846 180.228C-39.6846 176.398 -39.6846 172.566 -39.5775 168.565C-37.4681 169.507 -37.0725 171.361 -36.2609 172.976C-35.2783 174.93 -34.6376 176.993 -33.8851 178.917C-27.2779 178.917 -20.8832 178.917 -14.3673 178.917C-14.4509 178.461 -14.4539 178.084 -14.594 177.742C-15.2514 176.139 -16.2112 174.582 -16.5715 172.941C-17.2583 169.813 -19.7814 167.491 -21.7358 164.926C-23.2462 162.943 -25.072 161.113 -26.7045 159.187C-28.8346 156.674 -30.9123 154.133 -33.053 151.556C-31.2851 149.679 -29.4816 147.772 -27.6877 145.859C-26.409 144.495 -25.1431 143.124 -23.8715 141.756Z" fill="white"/>
<path d="M95.2332 71.2837C93.488 69.9445 91.7231 68.6209 90.0056 67.2598C89.1293 66.5653 88.4909 66.3342 87.1059 66.8441C85.2523 67.5265 83.0546 67.6081 81.0235 68.0079C78.9455 68.417 76.8849 68.8838 74.8263 69.3518C70.5125 70.3324 67.4282 72.959 63.6155 74.6078C62.4257 75.1223 61.1502 75.5887 59.8412 75.8393C56.9593 76.3911 54.0325 76.7977 51.121 77.2517C48.818 77.6109 46.4552 77.809 44.2233 78.3489C42.5628 78.7507 41.0078 79.5072 39.5164 80.2456C37.4537 81.267 35.4295 82.3533 33.5109 83.5358C31.7117 84.6449 29.7004 84.6986 27.5752 84.783C24.3267 84.9121 21.0908 85.2403 17.8495 85.4837C17.7971 85.4877 17.7443 85.4873 17.6918 85.49C14.3832 85.6595 11.0762 85.8518 7.76574 85.993C3.33398 86.1821 -1.15261 86.0575 -5.51862 86.5776C-9.61899 87.0662 -13.7282 86.9181 -17.7971 87.2965C-21.52 87.6428 -25.2112 88.2405 -28.7913 89.1993C-30.9384 89.7744 -33.1341 90.2367 -35.312 90.7388C-36.6936 91.0574 -38.0826 91.3559 -39.5761 91.5817C-39.6839 85.8281 -39.6839 80.1562 -39.5623 74.3615C-36.6505 73.3328 -34.0139 72.3759 -32.6122 69.9653C-31.2695 67.6562 -29.5315 65.492 -27.9898 63.2544C-26.6962 61.3769 -25.431 59.487 -24.1606 57.5995C-22.3812 54.9556 -20.6062 52.3098 -18.8343 49.6627C-18.0294 48.4602 -17.2665 47.2394 -16.4301 46.0509C-15.5161 44.7521 -14.4172 43.5256 -13.6338 42.1818C-13.1373 41.3301 -12.7795 41.3411 -11.9445 41.831C-10.0728 42.9291 -8.16102 43.9855 -6.24446 45.0348C-2.96012 46.8328 0.345535 48.6065 3.63278 50.4012C7.8097 52.6817 11.9773 54.9729 16.1487 57.2597C18.005 58.2774 19.8579 59.2991 21.7174 60.3131C25.5163 62.3849 29.2814 64.4977 33.1349 66.504C35.1654 67.5612 37.7074 66.9575 38.8832 65.4289C39.3329 64.8444 39.7673 64.2493 40.1474 63.6352C41.2807 61.8041 42.3435 59.9452 43.5093 58.1274C44.7845 56.1392 46.1942 54.2047 47.4528 52.2102C48.7612 50.1368 49.9298 48.0085 51.2123 45.9246C52.9224 43.1461 54.6635 40.3792 56.4371 37.6258C56.8655 36.9608 57.2963 36.1305 58.0322 35.787C60.3228 34.7174 62.7531 33.8332 65.1429 32.8991C67.8078 31.8574 70.4992 30.8581 73.1577 29.8064C75.6029 28.839 78.0068 27.8063 80.4526 26.8398C82.8809 25.8801 85.3563 24.9945 87.7794 24.0268C91.0843 22.7068 94.3486 21.323 97.6503 19.998C100.603 18.813 103.583 17.6705 106.551 16.5095C107.865 15.9955 109.179 15.4823 110.493 14.9687C110.607 15.0367 110.721 15.1047 110.834 15.1726C109.677 18.0647 108.519 20.9567 107.295 24.015C107.964 23.9488 108.353 23.9853 108.646 23.8695C111.43 22.769 114.208 21.6585 116.96 20.5093C117.454 20.3031 118.015 19.9687 118.209 19.5865C118.741 18.5407 119.095 17.4382 119.517 16.3577C120.37 14.1715 121.183 11.9744 122.106 9.80665C122.313 9.31887 122.903 8.93286 123.316 8.5C123.316 31.3386 123.316 54.1771 123.23 77.2164C121.236 76.3737 119.354 75.2981 117.4 74.3131C116.988 74.1055 115.972 74.0429 115.804 74.2311C114.231 75.9988 112.811 77.8515 111.283 79.645C110.581 80.4683 109.907 81.6743 108.921 81.9063C106.352 82.51 103.617 82.671 100.948 83.0085C100.922 81.0404 100.896 79.0722 100.936 76.929C102.69 74.6774 104.389 72.6058 106.061 70.5213C106.661 69.7722 107.2 68.9918 107.718 68.2921C105.228 66.956 103.064 65.795 100.834 64.5982C100.174 65.4822 99.6613 66.257 99.0458 66.9767C97.8045 68.4282 96.5073 69.8498 95.2332 71.2837Z" fill="white"/>
<path d="M-39.6846 65.2478C-39.6846 43.593 -39.6846 21.9382 -39.6846 0.265625C14.6488 0.265625 68.9821 0.265625 123.315 0.265934C123.315 2.0153 123.315 3.76435 123.185 5.63121C122.053 5.49867 121.054 5.24181 120.049 4.99918C117.22 4.31595 114.381 3.65773 111.561 2.95062C110.201 2.60944 108.893 2.13347 107.527 1.81017C106.782 1.63369 105.821 1.39888 105.203 1.61969C102.29 2.65896 99.4585 3.84208 96.6091 4.99085C96.3796 5.08336 96.0396 5.38713 96.0829 5.4506C96.2291 5.66448 96.4888 5.90119 96.7697 5.97487C99.411 6.6677 102.071 7.3151 104.713 8.00652C105.528 8.21974 106.303 8.52781 107.235 8.83878C103.997 10.1125 100.929 11.3145 97.8671 12.5248C93.6338 14.1978 89.4016 15.8726 85.1745 17.5553C82.2979 18.7005 79.4391 19.8736 76.5576 21.0109C72.9199 22.4466 69.2681 23.8599 65.6209 25.2804C61.5195 26.8779 57.3897 28.4317 53.3332 30.0974C52.33 30.5093 51.2725 31.1527 50.7401 31.9099C49.0566 34.3042 47.6006 36.7991 46.0749 39.2621C44.8237 41.2819 43.6361 43.3269 42.3515 45.3331C41.0667 47.3397 39.6519 49.2942 38.3753 51.3038C36.8223 53.7486 35.3542 56.2272 33.7698 58.8213C30.8491 57.2117 28.1003 55.6912 25.3442 54.1791C19.46 50.9506 13.5786 47.7189 7.68327 44.5032C3.56297 42.2557 -0.582886 40.0376 -4.70878 37.7965C-7.17813 36.4552 -9.57532 35.0249 -12.1071 33.763C-14.6021 32.5193 -17.184 33.3909 -18.4056 35.1171C-19.7452 37.0099 -20.8218 39.0186 -22.1365 40.9235C-24.1495 43.8403 -26.3049 46.6954 -28.3304 49.6069C-29.9484 51.9328 -31.4339 54.3162 -33.0313 56.6513C-34.7856 59.2158 -36.5806 61.7633 -38.4108 64.2943C-38.6887 64.6786 -39.2528 64.9332 -39.6846 65.2478Z" fill="white"/>
<path d="M-39.6846 65.3662C-39.2528 64.9345 -38.6887 64.6799 -38.4108 64.2956C-36.5806 61.7646 -34.7856 59.217 -33.0313 56.6525C-31.4339 54.3174 -29.9484 51.934 -28.3304 49.6082C-26.3049 46.6966 -24.1495 43.8415 -22.1365 40.9247C-20.8218 39.0199 -19.7452 37.0112 -18.4056 35.1183C-17.184 33.3921 -14.6021 32.5205 -12.1071 33.7642C-9.57532 35.0262 -7.17813 36.4565 -4.70878 37.7978C-0.582886 40.0389 3.56297 42.257 7.68327 44.5045C13.5786 47.7202 19.46 50.9519 25.3442 54.1803C28.1003 55.6925 30.8491 57.2129 33.7698 58.8226C35.3542 56.2285 36.8223 53.7499 38.3753 51.3051C39.6519 49.2954 41.0667 47.3409 42.3515 45.3344C43.6361 43.3282 44.8237 41.2832 46.0749 39.2634C47.6006 36.8003 49.0566 34.3054 50.7401 31.9112C51.2725 31.154 52.33 30.5105 53.3332 30.0986C57.3897 28.433 61.5195 26.8791 65.6209 25.2817C69.2681 23.8612 72.9199 22.4479 76.5576 21.0121C79.4391 19.8749 82.2979 18.7017 85.1745 17.5566C89.4016 15.8738 93.6338 14.1991 97.8671 12.526C100.929 11.3158 103.997 10.1138 107.235 8.84003C106.303 8.52906 105.528 8.22099 104.713 8.00776C102.071 7.31634 99.411 6.66895 96.7697 5.97612C96.4888 5.90243 96.2291 5.66573 96.0829 5.45184C96.0396 5.38838 96.3796 5.0846 96.6091 4.99209C99.4585 3.84333 102.29 2.6602 105.203 1.62094C105.821 1.40012 106.782 1.63494 107.527 1.81142C108.893 2.13472 110.201 2.61069 111.561 2.95186C114.381 3.65898 117.22 4.3172 120.049 5.00042C121.054 5.24306 122.053 5.49991 123.185 5.74965C123.315 6.58936 123.315 7.42968 123.315 8.38452C122.902 8.9319 122.312 9.31791 122.105 9.80569C121.182 11.9735 120.37 14.1705 119.516 16.3567C119.094 17.4373 118.74 18.5398 118.208 19.5855C118.014 19.9677 117.453 20.3021 116.959 20.5084C114.207 21.6575 111.429 22.7681 108.645 23.8685C108.352 23.9844 107.963 23.9478 107.294 24.0141C108.518 20.9558 109.676 18.0637 110.833 15.1717C110.72 15.1037 110.606 15.0357 110.493 14.9678C109.178 15.4814 107.864 15.9946 106.55 16.5086C103.582 17.6695 100.602 18.8121 97.6496 19.997C94.3478 21.3221 91.0836 22.7059 87.7786 24.0258C85.3556 24.9936 82.8802 25.8791 80.4518 26.8388C78.0061 27.8053 75.6022 28.838 73.1569 29.8054C70.4985 30.8571 67.8071 31.8565 65.1422 32.8981C62.7524 33.8323 60.3221 34.7164 58.0314 35.786C57.2956 36.1296 56.8648 36.9599 56.4364 37.6248C54.6628 40.3782 52.9217 43.1451 51.2116 45.9236C49.9291 48.0075 48.7605 50.1358 47.4521 52.2092C46.1935 54.2037 44.7837 56.1382 43.5086 58.1265C42.3427 59.9442 41.28 61.8032 40.1467 63.6342C39.7666 64.2483 39.3322 64.8435 38.8825 65.428C37.7067 66.9566 35.1647 67.5602 33.1342 66.5031C29.2807 64.4967 25.5156 62.384 21.7167 60.3122C19.8572 59.2981 18.0043 58.2764 16.148 57.2588C11.9766 54.9719 7.809 52.6808 3.63207 50.4003C0.344826 48.6055 -2.96083 46.8319 -6.24517 45.0338C-8.16173 43.9845 -10.0735 42.9282 -11.9452 41.83C-12.7802 41.3401 -13.138 41.3291 -13.6345 42.1808C-14.4179 43.5246 -15.5168 44.7512 -16.4309 46.05C-17.2673 47.2385 -18.0301 48.4593 -18.835 49.6618C-20.6069 52.3089 -22.3819 54.9546 -24.1613 57.5985C-25.4317 59.4861 -26.6969 61.3759 -27.9905 63.2534C-29.5322 65.491 -31.2702 67.6553 -32.6129 69.9643C-34.0146 72.375 -36.6512 73.3319 -39.563 74.2433C-39.6846 71.3271 -39.6846 68.4053 -39.6846 65.3662Z" fill="#2CB457"/>
<path d="M100.915 83.1008C103.617 82.6693 106.352 82.5084 108.921 81.9047C109.907 81.6727 110.581 80.4667 111.283 79.6434C112.811 77.8499 114.231 75.9972 115.804 74.2295C115.972 74.0413 116.988 74.1039 117.4 74.3115C119.354 75.2965 121.236 76.3721 123.23 77.3319C123.316 77.4359 123.316 77.6234 123.316 77.9046C122.58 78.6366 121.761 79.227 121.123 79.9216C118.818 82.4319 116.74 85.0892 114.209 87.4439C113.406 88.1916 111.464 88.1908 110.03 88.4925C108.042 88.9107 106.049 89.3165 104.043 89.6766C103.097 89.8464 102.117 89.8975 101.018 90.0188C100.794 89.9942 100.633 89.9607 100.624 89.9114C100.253 87.6622 99.8219 85.4097 100.915 83.1008Z" fill="#9096AA"/>
<path d="M95.2335 71.374C96.5071 69.8453 97.8042 68.4237 99.0455 66.9722C99.661 66.2525 100.174 65.4778 100.833 64.5938C103.064 65.7905 105.227 66.9515 107.717 68.2876C107.2 68.9873 106.661 69.7677 106.06 70.5168C104.388 72.6013 102.69 74.6729 100.915 76.7991C98.0926 79.3398 94.1194 79.2171 90.5299 79.8588C86.7456 80.5354 82.9248 81.0845 79.1183 81.6829C78.8686 81.7221 78.6053 81.7069 78.1207 81.7259C77.6432 79.8245 77.1697 77.9397 76.6562 75.8953C79.6749 75.4198 82.5918 74.9642 85.5065 74.5002C87.974 74.1073 90.4318 73.673 92.908 73.319C94.2807 73.1227 95.0652 72.5636 95.2335 71.374Z" fill="#BFC2D0"/>
</g>
<defs>
<clipPath id="clip0_6790_214722">
<rect width="163" height="180" fill="white" transform="translate(-40)"/>
</clipPath>
</defs>
</svg>
