<svg width="375" height="4530" viewBox="0 0 375 4530" fill="none" xmlns="http://www.w3.org/2000/svg">
<path d="M1803.92 199.799L1803.92 4434.86C1808.15 4436.31 1811.52 4438.07 1814.16 4440.07C1819.95 4444.46 1822.19 4449.96 1822.27 4455.73C1822.35 4461.47 1820.3 4467.44 1817.57 4472.83C1814.83 4478.23 1811.38 4483.08 1808.62 4486.57C1807.24 4488.32 1806.03 4489.74 1805.17 4490.71C1804.73 4491.2 1804.39 4491.58 1804.15 4491.84C1804.03 4491.97 1803.94 4492.07 1803.87 4492.13L1803.8 4492.21L1803.78 4492.23L1803.78 4492.23C1803.78 4492.23 1803.78 4492.23 1803.42 4491.89L1803.78 4492.23L1802.92 4493.13V4491.89V4435.58C1798.13 4434.01 1792.23 4432.82 1785.01 4432.13C1771.06 4430.8 1752.23 4431.33 1727.12 4434.54C1676.91 4440.96 1601.67 4458.09 1490.3 4492.37C1267.39 4560.96 1047.86 4519.83 821.591 4469.39C804.421 4465.56 787.213 4461.68 769.961 4457.79C559.833 4410.4 343.284 4361.56 112.167 4390.4C23.4801 4401.46 -39.9368 4411.81 -84.2581 4421.34V4491.89V4492.46L-84.8226 4492.38L-84.7954 4492.17C-84.8234 4492.38 -84.8246 4492.38 -84.8263 4492.38L-84.8369 4492.38L-84.8785 4492.38L-85.0424 4492.35L-85.6815 4492.27C-85.9406 4492.23 -86.2559 4492.19 -86.624 4492.14C-87.0519 4492.08 -87.5511 4492 -88.1165 4491.92C-90.2201 4491.62 -93.2395 4491.16 -96.9041 4490.56C-104.233 4489.35 -114.145 4487.56 -124.476 4485.22C-134.805 4482.87 -145.566 4479.97 -154.586 4476.55C-159.096 4474.83 -163.182 4472.98 -166.565 4471C-169.942 4469.02 -172.65 4466.89 -174.373 4464.61C-176.105 4462.31 -176.857 4459.83 -176.259 4457.2C-175.665 4454.59 -173.764 4451.94 -170.396 4449.22C-163.667 4443.79 -150.864 4437.94 -129.9 4431.7C-117.866 4428.11 -103.121 4424.39 -85.2581 4420.53L-85.2581 161.662V161.045L-84.6548 161.172L-84.7581 161.662C-84.6548 161.172 -84.6528 161.173 -84.6488 161.174L-84.6305 161.178L-84.5571 161.193L-84.2645 161.254C-84.005 161.308 -83.6169 161.389 -83.1031 161.495C-82.0758 161.707 -80.5459 162.021 -78.5366 162.426C-74.5182 163.236 -68.5822 164.413 -60.9136 165.88C-45.5764 168.813 -23.3092 172.904 4.40894 177.536C59.8453 186.802 137.083 198.232 224.288 206.893C398.717 224.216 612.951 230.449 772.364 186.152C917.711 145.764 1066.58 188.761 1200.17 227.345C1213.34 231.148 1226.36 234.909 1239.21 238.543C1310.87 258.799 1377.33 275.107 1435.57 272.99C1493.77 270.874 1543.73 250.359 1582.45 196.952C1662.74 86.2046 1716.72 30.9008 1752.56 10.3096C1770.48 0.0121432 1783.98 -1.67079 1793.99 2.90125C1803.98 7.46772 1810.29 18.1898 1814.06 32.2384C1821.58 60.3434 1819.03 102.277 1814.61 137.119C1812.4 154.553 1809.73 170.235 1807.6 181.558C1806.54 187.22 1805.62 191.793 1804.96 194.951C1804.63 196.53 1804.36 197.755 1804.18 198.586C1804.09 199.001 1804.02 199.318 1803.98 199.531L1803.92 199.772L1803.92 199.799Z" fill="url(#paint0_linear_6850_148381)" stroke="#4AFF85"/>
<defs>
<linearGradient id="paint0_linear_6850_148381" x1="949.502" y1="205.354" x2="949.502" y2="4717" gradientUnits="userSpaceOnUse">
<stop stop-color="#BAFFD9" stop-opacity="0.31"/>
<stop offset="0.546875" stop-color="#C8FFE1"/>
<stop offset="1" stop-color="#ECFFE9"/>
</linearGradient>
</defs>
</svg>
