<!-- width="834" height="3504" -->

<svg preserveAspectRatio="none" viewBox="0 0 834 3504" fill="none" xmlns="http://www.w3.org/2000/svg">
<path d="M1193.67 152.899L1193.67 3388.19C1197.52 3389.3 1200.6 3390.64 1203.01 3392.16C1208.33 3395.52 1210.42 3399.76 1210.5 3404.24C1210.57 3408.67 1208.67 3413.27 1206.16 3417.4C1203.64 3421.53 1200.47 3425.24 1197.94 3427.91C1196.68 3429.25 1195.56 3430.33 1194.77 3431.08C1194.37 3431.45 1194.05 3431.74 1193.83 3431.94C1193.73 3432.04 1193.64 3432.11 1193.58 3432.17L1193.52 3432.22L1193.5 3432.24L1193.49 3432.24C1193.49 3432.24 1193.49 3432.24 1193.44 3432.19L1193.49 3432.24L1192.67 3432.96V3431.87V3388.95C1188.29 3387.76 1182.89 3386.86 1176.29 3386.33C1163.49 3385.31 1146.22 3385.72 1123.19 3388.17C1077.15 3393.08 1008.15 3406.16 906.013 3432.35C497.344 3537.12 161.569 3538.08 -357.996 3354.42C-435.956 3326.87 -494.558 3309.34 -537.86 3299.46V3431.87V3432.88L-538.666 3432.26L-538.36 3431.87C-538.666 3432.26 -538.667 3432.26 -538.67 3432.26L-538.681 3432.25L-538.728 3432.21L-538.911 3432.07L-539.133 3431.9L-539.625 3431.51C-540.251 3431.02 -541.172 3430.3 -542.351 3429.36C-544.708 3427.49 -548.098 3424.77 -552.227 3421.37C-560.485 3414.58 -571.703 3405.07 -583.541 3394.24C-595.377 3383.41 -607.839 3371.24 -618.584 3359.13C-629.322 3347.02 -638.369 3334.93 -643.35 3324.26C-648.318 3313.61 -649.324 3304.18 -643.612 3297.58C-640.772 3294.3 -636.315 3291.78 -630.011 3290.17C-623.706 3288.56 -615.52 3287.83 -605.174 3288.16C-588.874 3288.67 -567.15 3291.8 -538.86 3298.2L-538.86 123.739V123.144L-538.274 123.247L-538.36 123.739C-538.274 123.247 -538.272 123.247 -538.268 123.248L-538.251 123.251L-538.184 123.263L-537.916 123.309C-537.677 123.351 -537.322 123.412 -536.85 123.494C-535.908 123.656 -534.505 123.895 -532.663 124.205C-528.977 124.824 -523.534 125.723 -516.501 126.843C-502.436 129.084 -482.016 132.209 -456.597 135.749C-405.76 142.827 -334.929 151.56 -254.958 158.176C-94.999 171.411 101.469 176.173 247.663 142.33C380.94 111.477 517.448 144.323 639.953 173.8C652.03 176.705 663.97 179.578 675.758 182.354C741.469 197.829 802.423 210.289 855.836 208.672C909.227 207.055 955.04 191.374 990.527 150.596C1064.16 65.985 1113.67 23.7265 1146.54 7.99237C1162.98 0.123797 1175.35 -1.15487 1184.51 2.33262C1193.68 5.82499 1199.49 14.0399 1202.96 24.8107C1209.87 46.3252 1207.52 78.3992 1203.47 105.017C1201.45 118.341 1198.99 130.326 1197.04 138.979C1196.07 143.306 1195.22 146.801 1194.61 149.214C1194.31 150.421 1194.07 151.358 1193.9 151.993C1193.82 152.311 1193.76 152.553 1193.71 152.716L1193.67 152.899Z" fill="url(#paint0_linear_6758_233408)" stroke="#4AFF85"/>
<defs>
<linearGradient id="paint0_linear_6758_233408" x1="346.613" y1="138.042" x2="346.613" y2="3584.77" gradientUnits="userSpaceOnUse">
<stop stop-color="#BAFFD9" stop-opacity="0.31"/>
<stop offset="0.546875" stop-color="#C8FFE1"/>
<stop offset="1" stop-color="#ECFFE9"/>
</linearGradient>
</defs>
</svg>
