<svg width="32" height="32" viewBox="0 0 32 32" fill="none" xmlns="http://www.w3.org/2000/svg">
<path d="M25.4288 6.5736C24.1947 5.32968 22.7261 4.34294 21.108 3.67052C19.4898 2.9981 17.7544 2.65336 16.0022 2.65627C14.2495 2.65353 12.5138 2.99833 10.8952 3.67073C9.27671 4.34313 7.80758 5.32978 6.57283 6.5736C1.37416 11.7709 1.37416 20.2309 6.57283 25.4296C7.80761 26.6738 9.27693 27.6606 10.8957 28.333C12.5145 29.0055 14.2506 29.3501 16.0035 29.3469C17.7557 29.35 19.491 29.0055 21.1091 28.3333C22.7272 27.6611 24.1959 26.6746 25.4302 25.4309C30.6288 20.2336 30.6288 11.7736 25.4288 6.5736ZM16.2422 5.33493H15.7635C15.8448 5.3336 15.9222 5.32293 16.0035 5.32293C16.0848 5.32293 16.1608 5.3336 16.2422 5.33493ZM24.3248 22.6683H21.3342L19.6568 26.0229C18.4867 26.4552 17.2496 26.6777 16.0022 26.6803C14.7525 26.678 13.513 26.455 12.3408 26.0216L10.6675 22.6816H7.68749C6.58808 21.3148 5.84458 19.6968 5.5235 17.9723L8.00083 14.6683L6.37949 11.4243C6.89684 10.3237 7.60002 9.32059 8.45816 8.45893C9.65921 7.25368 11.1313 6.35348 12.7515 5.8336L16.0008 8.0016L19.2515 5.83493C20.8712 6.35518 22.3431 7.25482 23.5448 8.45893C24.402 9.31956 25.1047 10.3213 25.6222 11.4203L24.0008 14.6683L26.4782 17.9723C26.1586 19.6912 25.4188 21.3044 24.3248 22.6683Z" fill="#023C1D"/>
<path d="M11.334 14.6693L13.334 20.0026H18.6673L20.6673 14.6693L16.0007 11.3359L11.334 14.6693Z" fill="#023C1D"/>
</svg>
