<svg width="49" height="46" viewBox="0 0 49 46" fill="none" xmlns="http://www.w3.org/2000/svg">
<g opacity="0.3">
<path d="M7.2778 12.485C10.1423 9.63312 14.4767 8.1875 20.1587 8.1875H22.2003V13.4731L20.5588 13.775C17.7618 14.2887 15.816 15.2994 14.7748 16.7825C14.2315 17.5815 13.9234 18.4963 13.8805 19.4375H20.1587C20.7002 19.4375 21.2195 19.635 21.6023 19.9867C21.9852 20.3383 22.2003 20.8152 22.2003 21.3125V34.4375C22.2003 36.5056 20.369 38.1875 18.117 38.1875H5.867C5.32552 38.1875 4.80621 37.99 4.42333 37.6383C4.04044 37.2867 3.82534 36.8098 3.82534 36.3125V26.9375L3.83146 21.4644C3.81309 21.2562 3.42517 16.325 7.2778 12.485ZM40.5753 38.1875H28.3253C27.7839 38.1875 27.2645 37.99 26.8817 37.6383C26.4988 37.2867 26.2837 36.8098 26.2837 36.3125V26.9375L26.2898 21.4644C26.2714 21.2562 25.8835 16.325 29.7361 12.485C32.6006 9.63312 36.935 8.1875 42.617 8.1875H44.6587V13.4731L43.0172 13.775C40.2201 14.2887 38.2744 15.2994 37.2331 16.7825C36.6898 17.5815 36.3817 18.4963 36.3389 19.4375H42.617C43.1585 19.4375 43.6778 19.635 44.0607 19.9867C44.4436 20.3383 44.6587 20.8152 44.6587 21.3125V34.4375C44.6587 36.5056 42.8273 38.1875 40.5753 38.1875Z" fill="#0169B6"/>
</g>
</svg>
