<svg width="32" height="32" viewBox="0 0 32 32" fill="none" xmlns="http://www.w3.org/2000/svg">
<path d="M11.9507 8.23107C11.9649 8.1532 11.9974 8.082 11.9974 8V5.33333C11.9974 4.5964 11.4003 4 10.6641 4C9.9278 4 9.33073 4.5964 9.33073 5.33333V8C9.33073 8.082 9.36326 8.1532 9.3774 8.23107C7.80473 8.77013 6.66406 10.2469 6.66406 12V16C6.66406 17.7359 7.78206 19.2021 9.33073 19.7543V26.6667C9.33073 27.4036 9.9278 28 10.6641 28C11.4003 28 11.9974 27.4036 11.9974 26.6667V19.7543C13.5461 19.2021 14.6641 17.7359 14.6641 16V12C14.6641 10.2469 13.5234 8.77013 11.9507 8.23107ZM11.9974 16C11.9974 16.7357 11.3991 17.3333 10.6641 17.3333C9.929 17.3333 9.33073 16.7357 9.33073 16V12C9.33073 11.2643 9.929 10.6667 10.6641 10.6667C11.3991 10.6667 11.9974 11.2643 11.9974 12V16ZM22.6641 12.2457V5.33333C22.6641 4.5964 22.067 4 21.3307 4C20.5945 4 19.9974 4.5964 19.9974 5.33333V12.2457C18.4487 12.7979 17.3307 14.2641 17.3307 16V21.3333C17.3307 23.0692 18.4487 24.5355 19.9974 25.0876V26.6667C19.9974 27.4036 20.5945 28 21.3307 28C22.067 28 22.6641 27.4036 22.6641 26.6667V25.0876C24.2127 24.5355 25.3307 23.0692 25.3307 21.3333V16C25.3307 14.2641 24.2127 12.7979 22.6641 12.2457ZM22.6641 21.3333C22.6641 22.0691 22.0658 22.6667 21.3307 22.6667C20.5957 22.6667 19.9974 22.0691 19.9974 21.3333V16C19.9974 15.2643 20.5957 14.6667 21.3307 14.6667C22.0658 14.6667 22.6641 15.2643 22.6641 16V21.3333Z" fill="white"/>
</svg>
