<svg width="17" height="20" viewBox="0 0 17 20" fill="none" xmlns="http://www.w3.org/2000/svg">
<path d="M8.652 16.096C7.788 16.096 7.01467 15.9093 6.332 15.536C5.66 15.1627 5.132 14.6507 4.748 14C4.364 13.3493 4.172 12.6027 4.172 11.76C4.172 10.9173 4.364 10.1707 4.748 9.52C5.132 8.86933 5.66 8.36267 6.332 8C7.01467 7.62667 7.788 7.44 8.652 7.44C9.42 7.44 10.1027 7.59467 10.7 7.904C11.308 8.20267 11.7773 8.65067 12.108 9.248L10.94 10C10.6627 9.584 10.3213 9.28 9.916 9.088C9.52133 8.88533 9.09467 8.784 8.636 8.784C8.08133 8.784 7.58533 8.90667 7.148 9.152C6.71067 9.39733 6.364 9.744 6.108 10.192C5.852 10.6293 5.724 11.152 5.724 11.76C5.724 12.368 5.852 12.896 6.108 13.344C6.364 13.792 6.71067 14.1387 7.148 14.384C7.58533 14.6293 8.08133 14.752 8.636 14.752C9.09467 14.752 9.52133 14.656 9.916 14.464C10.3213 14.2613 10.6627 13.952 10.94 13.536L12.108 14.272C11.7773 14.8587 11.308 15.312 10.7 15.632C10.1027 15.9413 9.42 16.096 8.652 16.096Z" fill="white"/>
<circle cx="8.5" cy="12" r="7.5" stroke="white"/>
</svg>
