<svg width="28" height="28" viewBox="0 0 28 28" fill="none" xmlns="http://www.w3.org/2000/svg">
<path d="M2.89351 19.681L3.61351 20.3877L2.78684 21.201C3.12141 21.7225 3.49586 22.2174 3.90684 22.681L22.6802 3.89436C22.2151 3.49499 21.7252 3.12537 21.2135 2.7877L20.3868 3.60103L19.6802 2.89436L20.3202 2.25436C17.7951 0.896461 14.8995 0.388662 12.063 0.806292C9.22655 1.22392 6.60023 2.54473 4.57365 4.5728C2.54708 6.60087 1.22821 9.22816 0.812674 12.065C0.397138 14.9017 0.907075 17.7969 2.26684 20.321L2.89351 19.681ZM17.8135 4.76103L18.5202 5.4677L16.6668 7.33436L15.9602 6.6277L17.8135 4.76103ZM14.0935 8.49436L14.7868 9.20103L12.9335 11.0677L12.2268 10.361L14.0935 8.49436ZM10.3602 12.2277L11.0668 12.9344L9.20018 14.7877L8.49351 14.081L10.3602 12.2277ZM6.62684 15.9477L7.33351 16.6677L5.46684 18.5344L4.76018 17.8277L6.62684 15.9477ZM6.78684 25.2144L7.61351 24.401L8.32018 25.1077L7.68018 25.7477C10.2053 27.1056 13.1008 27.6134 15.9373 27.1958C18.7738 26.7781 21.4001 25.4573 23.4267 23.4293C25.4533 21.4012 26.7721 18.7739 27.1877 15.9371C27.6032 13.1003 27.0933 10.2051 25.7335 7.68103L25.1068 8.32103L24.3868 7.61436L25.2135 6.80103C24.8789 6.27952 24.5045 5.78471 24.0935 5.32103L5.32018 24.1077C5.7853 24.5071 6.27516 24.8767 6.78684 25.2144ZM22.5335 9.48103L23.2402 10.1877L21.3735 12.0544L20.6668 11.3344L22.5335 9.48103ZM18.8002 13.2144L19.5068 13.921L17.6402 15.7744L16.9335 15.0677L18.8002 13.2144ZM15.0668 16.9344L15.7735 17.641L13.9202 19.5077L13.2002 18.801L15.0668 16.9344ZM11.3335 20.6677L12.0402 21.3744L10.1735 23.241L9.46684 22.5344L11.3335 20.6677Z" fill="#023C1D"/>
</svg>
