<svg width="1423" height="792" viewBox="0 0 1423 792" fill="none" xmlns="http://www.w3.org/2000/svg">
<path d="M1422 128.403L1422.12 127.918L1422.5 128.012V128.403L1422.5 774.319V774.956L1421.88 774.805L1422 774.319C1421.88 774.805 1421.88 774.804 1421.88 774.803L1421.86 774.8L1421.81 774.787L1421.59 774.735C1421.4 774.688 1421.12 774.619 1420.74 774.528C1419.99 774.346 1418.87 774.076 1417.4 773.725C1414.47 773.024 1410.14 772.001 1404.59 770.712C1393.48 768.135 1377.45 764.496 1357.75 760.248C1318.37 751.752 1264.34 740.823 1205.79 731.088C1147.23 721.352 1084.15 712.813 1026.66 709.095C969.148 705.377 917.272 706.486 881.097 716.02C844.885 725.563 819.543 737.163 796.792 748.133C794.662 749.16 792.554 750.182 790.462 751.196C770.211 761.013 751.427 770.12 727.989 776.476C676.259 790.506 601.928 791.128 438.908 756.828C275.958 722.542 162.02 727.041 88.8392 740.098C52.2482 746.626 25.8442 755.295 8.59521 762.326C-0.0294189 765.842 -6.3656 768.949 -10.5422 771.174C-12.6305 772.287 -14.179 773.179 -15.2037 773.792C-15.7161 774.099 -16.0975 774.336 -16.35 774.495C-16.4763 774.575 -16.5703 774.636 -16.6323 774.676L-16.7015 774.721L-16.7181 774.732L-16.7219 774.734C-16.7227 774.735 -16.7229 774.735 -17 774.319L-16.7229 774.735L-17.5 775.253V774.319L-17.5 128.403V128.034L-17.1469 127.925L-17 128.403C-17.1469 127.925 -17.1451 127.925 -17.142 127.924L-17.1282 127.92L-17.0731 127.903L-16.8549 127.837L-16.5532 127.746C-16.3962 127.698 -16.2084 127.642 -15.99 127.577C-15.2249 127.349 -14.0851 127.012 -12.5852 126.578C-9.58533 125.711 -5.1449 124.455 0.619751 122.9C12.1493 119.79 28.9763 115.485 50.1711 110.702C92.5604 101.136 152.423 89.6564 222.321 82.0035C362.105 66.6988 542.071 66.6917 702.678 127.936C780.026 157.431 865.977 178.749 946.573 184.429C1027.18 190.11 1102.37 180.146 1158.25 147.143C1208.82 117.273 1274.81 112.486 1328.11 115.144C1354.76 116.473 1378.26 119.666 1395.1 122.526C1403.52 123.957 1410.27 125.304 1414.92 126.294C1417.24 126.789 1419.04 127.195 1420.26 127.477C1420.87 127.618 1421.34 127.728 1421.65 127.803C1421.8 127.841 1421.92 127.869 1422 127.889L1422.09 127.911L1422.11 127.916L1422.12 127.918C1422.12 127.918 1422.12 127.918 1422 128.403Z" fill="url(#paint0_linear_8355_143294)" stroke="#4AFF85"/>
<path opacity="0.6" d="M-17 61.0572L-17.1052 60.5684L-17.5 60.6534V61.0572L-17.5 774.099V774.77L-16.8569 774.578L-17 774.099C-16.8569 774.578 -16.8558 774.578 -16.8533 774.577L-16.8424 774.574L-16.7985 774.561L-16.6233 774.509C-16.4678 774.463 -16.2355 774.394 -15.9281 774.303C-15.3134 774.122 -14.3986 773.854 -13.1991 773.507C-10.8001 772.811 -7.26215 771.796 -2.70747 770.52C6.40192 767.966 19.578 764.365 35.8429 760.176C68.3731 751.797 113.256 741.065 162.669 731.651C212.083 722.237 266.019 714.143 316.656 711.038C367.303 707.933 414.609 709.821 450.784 720.346C474.261 727.176 497.292 734.842 520.435 742.546C568.698 758.61 617.446 774.837 671.742 783.982C752.123 797.52 844.715 795.561 966.148 754.724C1087.4 713.948 1201.32 718.904 1284.92 734.059C1326.72 741.636 1360.95 751.762 1384.72 759.992C1396.6 764.107 1405.87 767.749 1412.17 770.36C1415.32 771.666 1417.72 772.715 1419.34 773.436C1420.15 773.797 1420.76 774.076 1421.17 774.265C1421.38 774.359 1421.53 774.431 1421.63 774.479L1421.75 774.533L1421.78 774.546L1421.78 774.55C1421.78 774.55 1421.79 774.551 1422 774.099L1421.79 774.551L1422.5 774.891V774.099L1422.5 61.0572V60.6988L1422.16 60.5837L1422 61.0572C1422.16 60.5837 1422.16 60.5832 1422.16 60.5821L1422.14 60.5774L1422.09 60.5588L1421.87 60.4856C1421.68 60.4209 1421.39 60.3248 1421 60.1988C1420.24 59.9468 1419.1 59.5752 1417.6 59.0963C1414.6 58.1387 1410.16 56.7521 1404.39 55.0356C1392.86 51.6027 1376.04 46.85 1354.84 41.5696C1312.45 31.0088 1252.58 18.3361 1182.68 9.88756C1042.9 -7.0082 862.921 -7.01645 702.306 60.5964C624.951 93.16 530.741 122.666 444.886 135.826C401.959 142.406 361.137 144.898 325.563 141.649C289.983 138.399 259.696 129.412 237.799 113.073C181.943 71.3948 118.21 58.2746 68.4647 55.5671C43.5894 54.2132 22.203 55.4624 7.03388 57.0504C-0.550976 57.8444 -6.58221 58.7231 -10.7189 59.4037C-12.7872 59.744 -14.382 60.0348 -15.4606 60.2407C-15.9999 60.3437 -16.4101 60.4254 -16.686 60.4815C-16.8239 60.5095 -16.9283 60.5312 -16.9984 60.5458L-17.0777 60.5626L-17.098 60.5669L-17.1032 60.568C-17.1045 60.5683 -17.1052 60.5684 -17 61.0572Z" fill="url(#paint1_linear_8355_143294)" stroke="#4AFF85"/>
<defs>
<linearGradient id="paint0_linear_8355_143294" x1="706.969" y1="128.403" x2="706.969" y2="807.351" gradientUnits="userSpaceOnUse">
<stop stop-color="#BAFFD9" stop-opacity="0.31"/>
<stop offset="0.546875" stop-color="#C8FFE1"/>
<stop offset="1" stop-color="#ECFFE9"/>
</linearGradient>
<linearGradient id="paint1_linear_8355_143294" x1="698.031" y1="61.0566" x2="698.031" y2="810.564" gradientUnits="userSpaceOnUse">
<stop stop-color="#BAFFD9" stop-opacity="0.31"/>
<stop offset="0.546875" stop-color="#BAFFD9"/>
<stop offset="1" stop-color="#ECFFE9"/>
</linearGradient>
</defs>
</svg>
