<svg width="109" height="242" viewBox="0 0 109 242" fill="none" xmlns="http://www.w3.org/2000/svg">
<g opacity="0.3">
<path fill-rule="evenodd" clip-rule="evenodd" d="M-125.649 85.3842L-100.698 99.7908L-109.543 115.056L-129.741 103.393C-136.713 150.699 -114.987 199.616 -71.0649 224.966C-27.1428 250.316 26.0673 244.678 63.5466 214.987L43.3637 203.333L52.16 188.04L77.1073 202.434C81.099 198.124 84.7717 193.436 88.1678 188.428L-119.066 68.7919C-121.692 74.2342 -123.89 79.7523 -125.649 85.3842ZM-63.6968 141.538L-54.8463 126.244L-85.444 108.598L-94.2403 123.891L-63.6968 141.538ZM-8.97189 152.732L-17.8096 168.022L-48.3692 150.366L-39.5695 135.086L-8.97189 152.732ZM28.0615 194.498L36.8899 179.224L6.29231 161.578L-2.50739 176.858L28.0615 194.498Z" fill="#00862B"/>
<path fill-rule="evenodd" clip-rule="evenodd" d="M-85.6069 26.9426L-65.4333 38.6123L-74.233 53.8923L-99.1641 39.5077C-103.201 43.8893 -106.898 48.5717 -110.225 53.5144L96.9802 173.144C99.6193 167.698 101.833 162.19 103.579 156.561L78.6351 142.18L87.4856 126.886L107.685 138.549C114.659 91.2555 92.9242 42.3544 48.9987 16.9917C5.07323 -8.37089 -48.1369 -2.73257 -85.6069 26.9426ZM32.7768 115.701L63.3744 133.347L72.174 118.067L41.6145 100.411L32.7768 115.701ZM-13.0977 89.2133L-4.24048 73.9451L26.303 91.5917L17.4999 106.859L-13.0977 89.2133ZM-50.1345 47.4351L-58.9723 62.7254L-28.3678 80.3964L-19.5715 65.1037L-50.1345 47.4351Z" fill="#00862B"/>
</g>
</svg>
