<svg width="1440" height="1331" viewBox="0 0 1440 1331" fill="none" xmlns="http://www.w3.org/2000/svg">
<g opacity="0.4">
<mask id="path-1-outside-1_6790_203985" maskUnits="userSpaceOnUse" x="-23" y="0" width="1487" height="1331" fill="black">
<rect fill="white" x="-23" width="1487" height="1331"/>
<path fill-rule="evenodd" clip-rule="evenodd" d="M1462.59 23.7738V663.684L1462.59 1329C1462.59 1329 1200.53 1220.25 895.253 1260.95C589.979 1301.65 370.796 1306.82 174.913 1260.95L-20.9699 1215.08L-22 663.684V23.7738C-22 23.7738 38.3113 111.597 453.789 32.3472C678.857 -10.5831 745.867 19.0119 799.122 42.5318C844.177 62.43 879.386 77.98 992.129 41.5871C1238.13 -37.8225 1462.59 23.7738 1462.59 23.7738Z"/>
</mask>
<path fill-rule="evenodd" clip-rule="evenodd" d="M1462.59 23.7738V663.684L1462.59 1329C1462.59 1329 1200.53 1220.25 895.253 1260.95C589.979 1301.65 370.796 1306.82 174.913 1260.95L-20.9699 1215.08L-22 663.684V23.7738C-22 23.7738 38.3113 111.597 453.789 32.3472C678.857 -10.5831 745.867 19.0119 799.122 42.5318C844.177 62.43 879.386 77.98 992.129 41.5871C1238.13 -37.8225 1462.59 23.7738 1462.59 23.7738Z" fill="url(#paint0_linear_6790_203985)"/>
<path d="M1462.59 663.684H1463.59H1462.59ZM1462.59 23.7738H1463.59V23.0112L1462.85 22.8094L1462.59 23.7738ZM1462.59 1329L1462.2 1329.92L1463.59 1330.5V1329H1462.59ZM174.913 1260.95L175.141 1259.98L174.913 1260.95ZM-20.9699 1215.08L-21.9699 1215.09L-21.9684 1215.88L-21.1979 1216.06L-20.9699 1215.08ZM-22 663.684H-23L-23 663.686L-22 663.684ZM-22 23.7738L-21.1757 23.2077L-23 20.5511V23.7738H-22ZM453.789 32.3472L453.977 33.3295L453.789 32.3472ZM799.122 42.5318L798.719 43.4465L799.122 42.5318ZM992.129 41.5871L991.822 40.6355L992.129 41.5871ZM1463.59 663.684V23.7738H1461.59V663.684H1463.59ZM1463.59 1329L1463.59 663.684H1461.59L1461.59 1329H1463.59ZM895.385 1261.94C1047.87 1241.61 1189.59 1258.61 1293.19 1280.69C1344.99 1291.73 1387.25 1304.04 1416.56 1313.59C1431.21 1318.37 1442.63 1322.45 1450.38 1325.34C1454.25 1326.79 1457.21 1327.93 1459.2 1328.72C1460.2 1329.11 1460.95 1329.41 1461.45 1329.62C1461.7 1329.72 1461.89 1329.8 1462.02 1329.85C1462.08 1329.87 1462.13 1329.89 1462.16 1329.9C1462.17 1329.91 1462.18 1329.92 1462.19 1329.92C1462.2 1329.92 1462.2 1329.92 1462.2 1329.92C1462.2 1329.92 1462.2 1329.92 1462.59 1329C1462.97 1328.08 1462.97 1328.08 1462.97 1328.07C1462.96 1328.07 1462.96 1328.07 1462.96 1328.07C1462.95 1328.07 1462.94 1328.06 1462.92 1328.06C1462.89 1328.04 1462.84 1328.02 1462.77 1328C1462.65 1327.94 1462.45 1327.87 1462.2 1327.76C1461.69 1327.56 1460.94 1327.25 1459.94 1326.86C1457.94 1326.07 1454.97 1324.92 1451.08 1323.47C1443.3 1320.57 1431.86 1316.48 1417.18 1311.69C1387.81 1302.12 1345.48 1289.79 1293.61 1278.73C1189.86 1256.62 1047.9 1239.59 895.121 1259.96L895.385 1261.94ZM174.685 1261.93C370.747 1307.83 590.075 1302.65 895.385 1261.94L895.121 1259.96C589.883 1300.66 370.845 1305.8 175.141 1259.98L174.685 1261.93ZM-21.1979 1216.06L174.685 1261.93L175.141 1259.98L-20.7419 1214.11L-21.1979 1216.06ZM-23 663.686L-21.9699 1215.09L-19.9699 1215.08L-21 663.682L-23 663.686ZM-23 23.7738V663.684H-21V23.7738H-23ZM453.602 31.3649C245.924 70.9783 127.112 68.8144 60.2674 56.795C26.8509 50.7864 6.442 42.3182 -5.58544 35.3914C-11.5988 31.9281 -15.5184 28.8494 -17.9227 26.6542C-19.1251 25.5564 -19.9491 24.679 -20.467 24.0841C-20.726 23.7866 -20.9085 23.5597 -21.0236 23.4111C-21.0812 23.3368 -21.1219 23.282 -21.1468 23.2478C-21.1593 23.2307 -21.1679 23.2187 -21.1726 23.212C-21.175 23.2086 -21.1764 23.2066 -21.1769 23.2059C-21.1772 23.2055 -21.1769 23.2059 -21.177 23.2058C-21.1764 23.2066 -21.1757 23.2077 -22 23.7738C-22.8243 24.3399 -22.8231 24.3417 -22.8216 24.3438C-22.8208 24.345 -22.8191 24.3474 -22.8175 24.3497C-22.8143 24.3543 -22.8101 24.3603 -22.805 24.3675C-22.7948 24.382 -22.7807 24.4017 -22.7626 24.4265C-22.7264 24.4761 -22.6742 24.5461 -22.605 24.6355C-22.4665 24.8144 -22.2596 25.071 -21.9755 25.3974C-21.407 26.0502 -20.5296 26.9823 -19.2713 28.1312C-16.7544 30.4292 -12.7162 33.5925 -6.58358 37.1245C5.68105 44.1879 26.3174 52.7225 59.9135 58.7635C127.094 70.8433 246.177 72.9662 453.977 33.3295L453.602 31.3649ZM799.526 41.617C772.868 29.8435 742.685 16.5132 690.982 11.5253C639.31 6.54044 566.188 9.88986 453.602 31.3649L453.977 33.3295C566.458 11.8743 639.376 8.55607 690.79 13.5161C742.172 18.473 772.122 31.7001 798.719 43.4465L799.526 41.617ZM991.822 40.6355C935.508 58.8132 898.656 63.985 870.307 62.1706C841.975 60.3575 822.055 51.5667 799.526 41.617L798.719 43.4465C821.245 53.3951 841.456 62.3284 870.179 64.1666C898.883 66.0036 936.007 60.7539 992.436 42.5388L991.822 40.6355ZM1462.59 23.7738C1462.85 22.8094 1462.85 22.8091 1462.85 22.8086C1462.85 22.8081 1462.84 22.8073 1462.84 22.8063C1462.83 22.8043 1462.82 22.8014 1462.81 22.7976C1462.78 22.79 1462.74 22.7787 1462.68 22.7638C1462.57 22.7341 1462.41 22.6901 1462.19 22.6327C1461.75 22.5177 1461.11 22.3488 1460.25 22.1321C1458.54 21.6986 1456 21.0741 1452.69 20.3078C1446.05 18.7754 1436.31 16.6763 1423.85 14.4063C1398.93 9.86655 1363.15 4.64308 1319.67 1.90383C1232.72 -3.57436 1114.98 0.881314 991.822 40.6355L992.436 42.5388C1115.29 2.88332 1232.77 -1.56768 1319.55 3.89987C1362.93 6.63349 1398.64 11.846 1423.49 16.374C1435.92 18.6379 1445.63 20.7306 1452.24 22.2565C1455.54 23.0195 1458.06 23.6407 1459.76 24.0708C1460.61 24.2858 1461.25 24.4531 1461.68 24.5664C1461.89 24.623 1462.06 24.6662 1462.16 24.6951C1462.22 24.7095 1462.26 24.7204 1462.28 24.7276C1462.3 24.7312 1462.31 24.7339 1462.31 24.7356C1462.32 24.7365 1462.32 24.7371 1462.32 24.7376C1462.32 24.738 1462.32 24.7381 1462.59 23.7738Z" fill="#4AFF85" mask="url(#path-1-outside-1_6790_203985)"/>
</g>
<g opacity="0.6">
<mask id="path-3-outside-2_6790_203985" maskUnits="userSpaceOnUse" x="-11.707" y="11.5234" width="1463" height="1310" fill="black">
<rect fill="white" x="-11.707" y="11.5234" width="1463" height="1310"/>
<path fill-rule="evenodd" clip-rule="evenodd" d="M-10.7063 664.893H-10.707V34.9428C-10.707 34.9428 48.6461 121.399 457.523 43.3828C679.015 1.12066 744.961 30.255 797.37 53.4088C841.708 72.9973 876.358 88.3053 987.31 52.4789C1229.41 -25.6948 1450.29 34.9428 1450.29 34.9428L1450.29 664.893V1319.85C1450.29 1319.85 1192.4 1212.8 891.974 1252.86C591.55 1292.93 375.849 1298.02 183.078 1252.86L-9.69247 1207.71L-10.7063 664.893Z"/>
</mask>
<path fill-rule="evenodd" clip-rule="evenodd" d="M-10.7063 664.893H-10.707V34.9428C-10.707 34.9428 48.6461 121.399 457.523 43.3828C679.015 1.12066 744.961 30.255 797.37 53.4088C841.708 72.9973 876.358 88.3053 987.31 52.4789C1229.41 -25.6948 1450.29 34.9428 1450.29 34.9428L1450.29 664.893V1319.85C1450.29 1319.85 1192.4 1212.8 891.974 1252.86C591.55 1292.93 375.849 1298.02 183.078 1252.86L-9.69247 1207.71L-10.7063 664.893Z" fill="url(#paint1_linear_6790_203985)"/>
<path d="M-10.707 664.893H-11.707V665.893H-10.707V664.893ZM-10.7063 664.893L-9.70631 664.891L-9.70818 663.893H-10.7063V664.893ZM-10.707 34.9428L-9.88261 34.3768L-11.707 31.7193V34.9428H-10.707ZM457.523 43.3828L457.711 44.3651L457.523 43.3828ZM797.37 53.4088L797.774 52.4941L797.37 53.4088ZM987.31 52.4789L987.002 51.5272L987.31 52.4789ZM1450.29 34.9428H1451.29V34.1803L1450.56 33.9784L1450.29 34.9428ZM1450.29 664.893H1451.29H1450.29ZM1450.29 1319.85L1449.91 1320.78L1451.29 1321.35V1319.85H1450.29ZM891.974 1252.86L892.106 1253.86L891.974 1252.86ZM183.078 1252.86L182.85 1253.84L183.078 1252.86ZM-9.69247 1207.71L-10.6925 1207.71L-10.691 1208.5L-9.92053 1208.68L-9.69247 1207.71ZM-10.707 665.893H-10.7063V663.893H-10.707V665.893ZM-11.707 34.9428V664.893H-9.70703V34.9428H-11.707ZM457.336 42.4005C252.958 81.3971 136.036 79.2665 70.2562 67.4348C37.3721 61.5199 17.2892 53.1841 5.45479 46.3661C-0.462093 42.9573 -4.31846 39.9272 -6.68373 37.7669C-7.8665 36.6867 -8.67702 35.8233 -9.18632 35.2382C-9.441 34.9455 -9.62044 34.7224 -9.73351 34.5763C-9.79005 34.5033 -9.83001 34.4495 -9.85448 34.4159C-9.86672 34.3991 -9.87509 34.3874 -9.87973 34.3808C-9.88205 34.3776 -9.88344 34.3756 -9.88392 34.3749C-9.88415 34.3746 -9.88382 34.375 -9.88394 34.3749C-9.88339 34.3757 -9.88261 34.3768 -10.707 34.9428C-11.5315 35.5087 -11.5302 35.5105 -11.5288 35.5127C-11.528 35.5138 -11.5263 35.5162 -11.5247 35.5185C-11.5215 35.5231 -11.5174 35.529 -11.5123 35.5361C-11.5022 35.5504 -11.4883 35.5699 -11.4704 35.5944C-11.4347 35.6433 -11.3833 35.7123 -11.3151 35.8005C-11.1786 35.9768 -10.9748 36.2296 -10.695 36.5512C-10.1352 37.1943 -9.27125 38.1123 -8.0325 39.2437C-5.55472 41.5068 -1.57977 44.6216 4.4564 48.0991C16.5281 55.0537 36.8383 63.456 69.9021 69.4032C136.018 81.2955 253.211 83.385 457.711 44.3651L457.336 42.4005ZM797.774 52.4941C771.539 40.9036 741.833 27.78 690.949 22.8694C640.096 17.962 568.134 21.2595 457.336 42.4005L457.711 44.3651C568.404 23.2439 640.161 19.9776 690.756 24.8602C741.32 29.7397 770.792 42.7602 796.966 54.3235L797.774 52.4941ZM987.002 51.5272C931.585 69.4217 895.32 74.5124 867.424 72.7265C839.546 70.9418 819.944 62.2889 797.774 52.4941L796.966 54.3235C819.134 64.1172 839.027 72.9126 867.296 74.7224C895.547 76.531 932.083 71.3624 987.617 53.4305L987.002 51.5272ZM1450.29 34.9428C1450.56 33.9784 1450.56 33.9781 1450.55 33.9776C1450.55 33.9771 1450.55 33.9763 1450.55 33.9754C1450.54 33.9734 1450.53 33.9706 1450.51 33.9668C1450.49 33.9593 1450.45 33.9482 1450.39 33.9335C1450.28 33.9043 1450.12 33.861 1449.91 33.8044C1449.48 33.6912 1448.84 33.5249 1448 33.3115C1446.31 32.8848 1443.82 32.2699 1440.55 31.5156C1434.03 30.007 1424.44 27.9405 1412.18 25.7058C1387.65 21.2366 1352.44 16.0943 1309.65 13.3977C1224.08 8.00466 1108.2 12.391 987.002 51.5272L987.617 53.4305C1108.51 14.393 1224.13 10.0113 1309.52 15.3937C1352.22 18.0847 1387.36 23.216 1411.82 27.6734C1424.05 29.9021 1433.6 31.9621 1440.1 33.4642C1443.35 34.2153 1445.84 34.8268 1447.51 35.2502C1448.34 35.4619 1448.97 35.6265 1449.4 35.738C1449.61 35.7938 1449.77 35.8363 1449.87 35.8647C1449.92 35.8789 1449.96 35.8896 1449.99 35.8967C1450 35.9003 1450.01 35.9029 1450.02 35.9046C1450.02 35.9055 1450.02 35.9061 1450.03 35.9066C1450.03 35.9069 1450.03 35.9071 1450.29 34.9428ZM1451.29 664.893L1451.29 34.9428L1449.29 34.9428L1449.29 664.893H1451.29ZM1451.29 1319.85V664.893H1449.29V1319.85H1451.29ZM892.106 1253.86C1042.17 1233.84 1181.63 1250.57 1283.58 1272.31C1334.56 1283.18 1376.15 1295.3 1404.99 1304.7C1419.41 1309.4 1430.65 1313.42 1438.28 1316.27C1442.09 1317.69 1445 1318.82 1446.96 1319.59C1447.93 1319.98 1448.67 1320.27 1449.17 1320.48C1449.42 1320.58 1449.6 1320.65 1449.73 1320.7C1449.79 1320.73 1449.83 1320.75 1449.86 1320.76C1449.88 1320.77 1449.89 1320.77 1449.9 1320.77C1449.9 1320.77 1449.91 1320.78 1449.91 1320.78C1449.91 1320.78 1449.91 1320.78 1450.29 1319.85C1450.68 1318.93 1450.68 1318.93 1450.67 1318.93C1450.67 1318.93 1450.67 1318.93 1450.66 1318.93C1450.66 1318.92 1450.64 1318.92 1450.63 1318.91C1450.6 1318.9 1450.55 1318.88 1450.48 1318.85C1450.36 1318.8 1450.17 1318.72 1449.92 1318.62C1449.42 1318.42 1448.67 1318.12 1447.69 1317.73C1445.72 1316.95 1442.8 1315.82 1438.97 1314.4C1431.32 1311.54 1420.06 1307.51 1405.61 1302.8C1376.71 1293.38 1335.05 1281.24 1284 1270.36C1181.9 1248.58 1042.2 1231.82 891.841 1251.87L892.106 1253.86ZM182.85 1253.84C375.8 1299.03 591.646 1293.93 892.106 1253.86L891.841 1251.87C591.454 1291.94 375.898 1297 183.306 1251.89L182.85 1253.84ZM-9.92053 1208.68L182.85 1253.84L183.306 1251.89L-9.46441 1206.74L-9.92053 1208.68ZM-11.7063 664.895L-10.6925 1207.71L-8.69247 1207.71L-9.70631 664.891L-11.7063 664.895Z" fill="#4AFF85" mask="url(#path-3-outside-2_6790_203985)"/>
</g>
<mask id="path-5-outside-3_6790_203985" maskUnits="userSpaceOnUse" x="-0.707031" y="23.4531" width="1442" height="1291" fill="black">
<rect fill="white" x="-0.707031" y="23.4531" width="1442" height="1291"/>
<path fill-rule="evenodd" clip-rule="evenodd" d="M0.293701 667.234H0.292969V46.5429C0.292969 46.5429 58.793 131.729 461.793 54.8589C680.101 13.218 745.099 41.9241 796.755 64.7376C840.456 84.0382 874.608 99.1212 983.964 63.8213C1222.58 -13.2034 1440.29 46.5429 1440.29 46.5429V667.234L1440.29 1312.57C1440.29 1312.57 1186.1 1207.09 889.999 1246.56C593.893 1286.04 381.293 1291.05 191.293 1246.56L1.29297 1202.07L0.293701 667.234Z"/>
</mask>
<path fill-rule="evenodd" clip-rule="evenodd" d="M0.293701 667.234H0.292969V46.5429C0.292969 46.5429 58.793 131.729 461.793 54.8589C680.101 13.218 745.099 41.9241 796.755 64.7376C840.456 84.0382 874.608 99.1212 983.964 63.8213C1222.58 -13.2034 1440.29 46.5429 1440.29 46.5429V667.234L1440.29 1312.57C1440.29 1312.57 1186.1 1207.09 889.999 1246.56C593.893 1286.04 381.293 1291.05 191.293 1246.56L1.29297 1202.07L0.293701 667.234Z" fill="url(#paint2_linear_6790_203985)"/>
<path d="M0.292969 667.234H-0.707031V668.234H0.292969V667.234ZM0.293701 667.234L1.2937 667.233L1.29183 666.234H0.293701V667.234ZM0.292969 46.5429L1.11731 45.9768L-0.707031 43.3203V46.5429H0.292969ZM461.793 54.8589L461.98 55.8412L461.793 54.8589ZM796.755 64.7376L797.159 63.8228L796.755 64.7376ZM983.964 63.8213L983.657 62.8696L983.964 63.8213ZM1440.29 46.5429H1441.29V45.7804L1440.56 45.5786L1440.29 46.5429ZM1440.29 667.234H1439.29H1440.29ZM1440.29 1312.57L1439.91 1313.49L1441.29 1314.07V1312.57H1440.29ZM1.29297 1202.07L0.29297 1202.08L0.294449 1202.87L1.06498 1203.05L1.29297 1202.07ZM0.292969 668.234H0.293701V666.234H0.292969V668.234ZM-0.707031 46.5429V667.234H1.29297V46.5429H-0.707031ZM461.606 53.8766C260.167 92.2999 144.927 90.2003 80.0949 78.5429C47.6847 72.7152 27.8922 64.5023 16.2295 57.7856C10.3986 54.4274 6.59847 51.4424 4.26802 49.3146C3.10265 48.2506 2.30417 47.4004 1.80255 46.8242C1.55172 46.5361 1.37504 46.3164 1.26376 46.1727C1.20812 46.1009 1.16883 46.048 1.14478 46.015C1.13276 45.9986 1.12455 45.9871 1.12002 45.9807C1.11775 45.9775 1.1164 45.9755 1.11596 45.9749C1.11573 45.9746 1.11607 45.9751 1.11596 45.9749C1.11652 45.9757 1.11731 45.9768 0.292969 46.5429C-0.531368 47.109 -0.530138 47.1108 -0.52868 47.1129C-0.527894 47.1141 -0.526207 47.1165 -0.524629 47.1188C-0.521471 47.1233 -0.517395 47.1291 -0.512384 47.1362C-0.502363 47.1503 -0.488604 47.1696 -0.470971 47.1937C-0.435703 47.2421 -0.384942 47.3102 -0.317596 47.3972C-0.1829 47.5712 0.0181026 47.8204 0.294127 48.1375C0.846222 48.7716 1.69813 49.6765 2.91948 50.7916C5.36247 53.0222 9.28114 56.0918 15.2314 59.5187C27.1312 66.3721 47.1512 74.6513 79.741 80.5113C144.909 92.2293 260.419 94.2878 461.98 55.8412L461.606 53.8766ZM797.159 63.8228C771.3 52.4025 742.02 39.471 691.865 34.6324C641.741 29.7969 570.812 33.0462 461.606 53.8766L461.98 55.8412C571.082 35.0306 641.806 31.8125 691.672 36.6232C741.507 41.4308 770.554 54.2591 796.351 65.6523L797.159 63.8228ZM983.657 62.8696C929.037 80.5009 893.296 85.5162 865.803 83.7566C838.328 81.9983 819.011 73.4737 797.159 63.8228L796.351 65.6523C818.2 75.3021 837.809 83.9692 865.675 85.7526C893.522 87.5347 929.535 82.4416 984.272 64.7729L983.657 62.8696ZM1440.29 46.5429C1440.56 45.5786 1440.56 45.5783 1440.55 45.5778C1440.55 45.5773 1440.55 45.5765 1440.55 45.5756C1440.54 45.5736 1440.53 45.5708 1440.51 45.5671C1440.49 45.5597 1440.45 45.5488 1440.39 45.5343C1440.29 45.5055 1440.13 45.4628 1439.92 45.407C1439.49 45.2955 1438.86 45.1316 1438.03 44.9214C1436.38 44.5009 1433.91 43.8951 1430.7 43.1518C1424.26 41.6653 1414.81 39.6291 1402.73 37.4273C1378.55 33.0237 1343.84 27.9569 1301.67 25.2998C1217.33 19.986 1103.12 24.3079 983.657 62.8696L984.272 64.7729C1103.43 26.3099 1217.38 21.9927 1301.55 27.2959C1343.63 29.9473 1378.26 35.0031 1402.37 39.3949C1414.42 41.5907 1423.84 43.6205 1430.25 45.1005C1433.45 45.8405 1435.9 46.443 1437.54 46.8601C1438.37 47.0687 1438.99 47.2309 1439.41 47.3408C1439.61 47.3957 1439.77 47.4375 1439.87 47.4655C1439.93 47.4795 1439.96 47.4901 1439.99 47.4971C1440 47.5006 1440.01 47.5032 1440.02 47.5049C1440.02 47.5057 1440.02 47.5063 1440.03 47.5068C1440.03 47.5071 1440.03 47.5073 1440.29 46.5429ZM1441.29 667.234V46.5429H1439.29V667.234H1441.29ZM1441.29 1312.57L1441.29 667.234H1439.29L1439.29 1312.57H1441.29ZM890.131 1247.56C1038.04 1227.84 1175.49 1244.32 1275.98 1265.74C1326.22 1276.45 1367.21 1288.39 1395.64 1297.65C1409.85 1302.29 1420.93 1306.25 1428.44 1309.05C1432.2 1310.45 1435.07 1311.56 1437 1312.32C1437.96 1312.7 1438.69 1313 1439.18 1313.19C1439.42 1313.29 1439.61 1313.37 1439.73 1313.42C1439.79 1313.44 1439.83 1313.46 1439.87 1313.47C1439.88 1313.48 1439.89 1313.49 1439.9 1313.49C1439.9 1313.49 1439.91 1313.49 1439.91 1313.49C1439.91 1313.49 1439.91 1313.49 1440.29 1312.57C1440.68 1311.65 1440.68 1311.64 1440.67 1311.64C1440.67 1311.64 1440.67 1311.64 1440.66 1311.64C1440.66 1311.64 1440.64 1311.63 1440.63 1311.63C1440.6 1311.61 1440.55 1311.59 1440.49 1311.57C1440.36 1311.52 1440.18 1311.44 1439.93 1311.34C1439.44 1311.14 1438.7 1310.85 1437.73 1310.46C1435.79 1309.7 1432.91 1308.58 1429.14 1307.18C1421.6 1304.36 1410.5 1300.39 1396.26 1295.75C1367.77 1286.47 1326.71 1274.51 1276.39 1263.78C1175.76 1242.33 1038.07 1225.81 889.867 1245.57L890.131 1247.56ZM191.065 1247.54C381.244 1292.07 593.989 1287.04 890.131 1247.56L889.867 1245.57C593.798 1285.05 381.342 1290.04 191.521 1245.59L191.065 1247.54ZM1.06498 1203.05L191.065 1247.54L191.521 1245.59L1.52096 1201.1L1.06498 1203.05ZM-0.706297 667.236L0.29297 1202.08L2.29297 1202.07L1.2937 667.233L-0.706297 667.236Z" fill="#4AFF85" mask="url(#path-5-outside-3_6790_203985)"/>
<defs>
<linearGradient id="paint0_linear_6790_203985" x1="720.293" y1="299.724" x2="720.378" y2="1268.54" gradientUnits="userSpaceOnUse">
<stop stop-color="#B4FFCA" stop-opacity="0.74"/>
<stop offset="0.401042" stop-color="#D7FFF4"/>
<stop offset="0.677083" stop-color="#DBFFE0"/>
<stop offset="1" stop-color="#B4FFBB"/>
</linearGradient>
<linearGradient id="paint1_linear_6790_203985" x1="719.793" y1="306.598" x2="719.877" y2="1260.34" gradientUnits="userSpaceOnUse">
<stop stop-color="#B4FFCA" stop-opacity="0.74"/>
<stop offset="0.401042" stop-color="#D7FFF4"/>
<stop offset="0.677083" stop-color="#DBFFE0"/>
<stop offset="1" stop-color="#B4FFBB"/>
</linearGradient>
<linearGradient id="paint2_linear_6790_203985" x1="720.293" y1="314.205" x2="720.375" y2="1253.93" gradientUnits="userSpaceOnUse">
<stop stop-color="#B4FFCA" stop-opacity="0.74"/>
<stop offset="0.401042" stop-color="#D7FFF4"/>
<stop offset="0.677083" stop-color="#DBFFE0"/>
<stop offset="1" stop-color="#B4FFBB"/>
</linearGradient>
</defs>
</svg>
