<svg width="101" height="242" viewBox="0 0 101 242" fill="none" xmlns="http://www.w3.org/2000/svg">
<g opacity="0.3">
<path fill-rule="evenodd" clip-rule="evenodd" d="M5.3826 85.3842L30.3333 99.7908L21.4887 115.056L1.2898 103.393C-5.68168 150.699 16.0443 199.616 59.9664 224.966C103.888 250.316 157.099 244.678 194.578 214.987L174.395 203.333L183.191 188.04L208.139 202.434C212.13 198.124 215.803 193.436 219.199 188.428L11.9653 68.7919C9.33894 74.2342 7.14126 79.7523 5.3826 85.3842ZM67.3344 141.538L76.1849 126.244L45.5872 108.598L36.791 123.891L67.3344 141.538ZM122.059 152.732L113.222 168.022L82.6621 150.366L91.4618 135.086L122.059 152.732ZM159.093 194.498L167.921 179.224L137.324 161.578L128.524 176.858L159.093 194.498Z" fill="#00862B"/>
<path fill-rule="evenodd" clip-rule="evenodd" d="M45.4244 26.9426L65.5979 38.6123L56.7983 53.8923L31.8671 39.5077C27.8303 43.8893 24.1328 48.5717 20.8065 53.5144L228.011 173.144C230.651 167.698 232.864 162.19 234.61 156.561L209.666 142.18L218.517 126.886L238.716 138.549C245.691 91.2555 223.955 42.3544 180.03 16.9917C136.104 -8.37089 82.8944 -2.73257 45.4244 26.9426ZM163.808 115.701L194.406 133.347L203.205 118.067L172.646 100.411L163.808 115.701ZM117.934 89.2133L126.791 73.9451L157.334 91.5917L148.531 106.859L117.934 89.2133ZM80.8967 47.4351L72.059 62.7254L102.663 80.3964L111.46 65.1037L80.8967 47.4351Z" fill="#00862B"/>
</g>
</svg>
