<svg width="834" height="1006" viewBox="0 0 834 1006" fill="none" xmlns="http://www.w3.org/2000/svg">
<path d="M985 153L984.913 152.508L985.5 152.404V153L985.5 908.143V908.627L985.016 908.643L985 908.143C985.016 908.643 985.015 908.643 985.013 908.643L985.005 908.643L984.97 908.644L984.833 908.649C984.711 908.653 984.529 908.659 984.288 908.666C983.806 908.681 983.089 908.702 982.146 908.73C980.261 908.784 977.473 908.861 973.865 908.951C966.65 909.13 956.152 909.359 943.024 909.56C916.767 909.962 879.987 910.251 837.893 909.8C753.71 908.898 648.251 905.035 563.201 893.187C520.757 887.274 480.464 889.949 438.617 895.888C417.751 898.849 396.505 902.621 374.411 906.543L374.223 906.576C352.065 910.51 329.055 914.592 304.74 918.154C207.46 932.407 89.2951 938.33 -79.2744 893.175C-247.658 848.07 -353.333 875.645 -416.893 914.422C-448.681 933.816 -469.955 956.022 -483.28 973.375C-489.942 982.052 -494.617 989.515 -497.625 994.805C-499.129 997.45 -500.216 999.552 -500.926 1000.99C-501.281 1001.71 -501.542 1002.26 -501.714 1002.64C-501.8 1002.82 -501.863 1002.96 -501.905 1003.06L-501.952 1003.16L-501.963 1003.19L-501.966 1003.2C-501.966 1003.2 -501.966 1003.2 -502.426 1003L-501.966 1003.2L-502.461 1004.35L-502.895 1003.17L-689.469 498.257L-689.603 497.893L-689.284 497.672L-689 498.084C-689.284 497.672 -689.282 497.671 -689.277 497.667L-689.256 497.653L-689.172 497.595L-688.84 497.367C-688.545 497.165 -688.105 496.864 -687.523 496.467C-686.359 495.675 -684.627 494.502 -682.354 492.978C-677.808 489.932 -671.098 485.486 -662.441 479.884C-645.127 468.681 -620.023 452.857 -588.862 434.373C-526.54 397.404 -439.985 349.789 -343.057 307.208C-246.131 264.628 -138.814 227.074 -34.9718 210.239C68.8653 193.404 169.279 197.278 252.359 237.611C292.286 256.995 325.271 262.941 356.211 260.978C387.164 259.014 416.104 249.134 447.957 236.802C453.531 234.644 459.193 232.411 464.969 230.134C525.211 206.38 597.877 177.727 712.633 177.727C777.207 177.727 845.277 171.422 897.208 165.117C923.173 161.964 945.101 158.812 960.537 156.447C968.255 155.265 974.349 154.28 978.515 153.591C980.597 153.246 982.197 152.975 983.276 152.79C983.816 152.698 984.225 152.627 984.5 152.58L984.81 152.526L984.887 152.512L984.907 152.509L984.912 152.508C984.913 152.508 984.913 152.508 985 153Z" fill="url(#paint0_linear_8356_143297)" stroke="#4AFF85"/>
<path opacity="0.6" d="M-471 2L-470.984 1.50027L-471.5 1.48331V2L-471.5 939.772V940.473L-470.838 940.245L-471 939.772C-470.838 940.245 -470.836 940.245 -470.834 940.244L-470.821 940.24L-470.771 940.223L-470.57 940.154C-470.392 940.093 -470.126 940.003 -469.774 939.884C-469.07 939.646 -468.022 939.294 -466.649 938.836C-463.901 937.921 -459.849 936.587 -454.633 934.908C-444.2 931.549 -429.111 926.813 -410.483 921.304C-373.228 910.284 -321.826 896.169 -265.236 883.788C-208.645 871.407 -146.875 860.762 -88.8834 856.679C-30.8813 852.595 23.2954 855.078 64.7261 868.92C91.6477 877.915 118.026 887.998 144.533 898.131C158.903 903.624 173.31 909.131 187.862 914.488C229.242 929.718 271.756 943.711 317.775 952.612C409.831 970.417 515.871 967.84 654.938 914.134C793.806 860.505 924.264 867.024 1020.01 886.955C1067.89 896.92 1107.08 910.237 1134.3 921.063C1147.91 926.475 1158.53 931.264 1165.75 934.699C1169.35 936.417 1172.11 937.796 1173.96 938.745C1174.89 939.22 1175.59 939.587 1176.06 939.835C1176.29 939.959 1176.47 940.053 1176.59 940.116L1176.72 940.188L1176.75 940.206L1176.76 940.21C1176.76 940.21 1176.76 940.211 1176.81 940.122L1176.76 940.211L1177.5 940.615V939.772L1177.5 298.351V298.014L1177.19 297.888L1177 298.351C1177.19 297.888 1177.19 297.887 1177.18 297.886L1177.17 297.88L1177.11 297.857L1176.88 297.765C1176.68 297.684 1176.38 297.564 1175.98 297.406C1175.19 297.089 1174 296.622 1172.43 296.016C1169.29 294.804 1164.64 293.039 1158.59 290.827C1146.47 286.403 1128.71 280.19 1106.16 273.031C1061.06 258.712 996.773 240.609 920.009 225.465C766.488 195.181 563.042 176.731 363.42 224.113C163.94 271.46 42.2078 265.711 -42.2215 237.387C-113.178 213.583 -157.823 173.831 -200.198 136.099C-208.248 128.931 -216.216 121.836 -224.268 114.938C-288.172 60.1793 -349.834 31.82 -395.529 17.1505C-418.376 9.8159 -437.231 5.90367 -450.378 3.82494C-456.951 2.78557 -462.098 2.20455 -465.604 1.88331C-467.357 1.72268 -468.699 1.627 -469.605 1.57143C-470.058 1.54365 -470.401 1.5259 -470.632 1.51507C-470.748 1.50966 -470.835 1.50598 -470.894 1.50364L-470.96 1.50109L-470.977 1.50048L-470.982 1.50033C-470.983 1.50029 -470.984 1.50027 -471 2Z" fill="url(#paint1_linear_8356_143297)" stroke="#4AFF85"/>
<defs>
<linearGradient id="paint0_linear_8356_143297" x1="367.878" y1="150.68" x2="367.878" y2="1044.15" gradientUnits="userSpaceOnUse">
<stop stop-color="#BAFFD9" stop-opacity="0.31"/>
<stop offset="0.546875" stop-color="#C8FFE1"/>
<stop offset="1" stop-color="#ECFFE9"/>
</linearGradient>
<linearGradient id="paint1_linear_8356_143297" x1="379.108" y1="62.41" x2="379.108" y2="1048.14" gradientUnits="userSpaceOnUse">
<stop stop-color="#BAFFD9" stop-opacity="0.31"/>
<stop offset="0.546875" stop-color="#BAFFD9"/>
<stop offset="1" stop-color="#ECFFE9"/>
</linearGradient>
</defs>
</svg>
