<svg width="834" height="1827" viewBox="0 0 834 1827" fill="none" xmlns="http://www.w3.org/2000/svg">
<mask id="path-1-outside-1_8417_143295" maskUnits="userSpaceOnUse" x="-1036.34" y="55" width="2895" height="1689" fill="black">
<rect fill="white" x="-1036.34" y="55" width="2895" height="1689"/>
<path fill-rule="evenodd" clip-rule="evenodd" d="M-1035.34 857.43H-1035.34V77.804C-1035.34 77.804 -482.026 373.699 31.5559 171.615C316.406 59.5323 416.603 82.2286 531.124 108.17C623.083 129 724.278 151.922 937.731 108.834C1417.01 12.0866 1856.98 77.804 1856.98 77.804V857.43L1856.98 1668.01C1856.98 1668.01 1360.73 1507.86 765.984 1557.44C527.181 1577.35 333.133 1557.14 172.348 1540.39C-67.3076 1515.43 -233.065 1498.16 -362.986 1632.94C-580.072 1858.13 -1035.34 1668.01 -1035.34 1668.01V857.43Z"/>
</mask>
<path fill-rule="evenodd" clip-rule="evenodd" d="M-1035.34 857.43H-1035.34V77.804C-1035.34 77.804 -482.026 373.699 31.5559 171.615C316.406 59.5323 416.603 82.2286 531.124 108.17C623.083 129 724.278 151.922 937.731 108.834C1417.01 12.0866 1856.98 77.804 1856.98 77.804V857.43L1856.98 1668.01C1856.98 1668.01 1360.73 1507.86 765.984 1557.44C527.181 1577.35 333.133 1557.14 172.348 1540.39C-67.3076 1515.43 -233.065 1498.16 -362.986 1632.94C-580.072 1858.13 -1035.34 1668.01 -1035.34 1668.01V857.43Z" fill="url(#paint0_linear_8417_143295)"/>
<path d="M-1035.34 857.43H-1036.34V858.43H-1035.34V857.43ZM-1035.34 857.43H-1034.34V856.43H-1035.34V857.43ZM-1035.34 77.804L-1034.87 76.9222L-1036.34 76.1353V77.804H-1035.34ZM31.5559 171.615L31.1897 170.685L31.5559 171.615ZM531.124 108.17L530.903 109.145L531.124 108.17ZM937.731 108.834L937.533 107.854L937.731 108.834ZM1856.98 77.804H1857.98V76.9423L1857.13 76.815L1856.98 77.804ZM1856.98 857.43H1855.98H1856.98ZM1856.98 1668.01L1856.68 1668.96L1857.98 1669.38V1668.01H1856.98ZM765.984 1557.44L765.901 1556.45L765.984 1557.44ZM172.348 1540.39L172.451 1539.4L172.348 1540.39ZM-362.986 1632.94L-363.706 1632.24L-362.986 1632.94ZM-1035.34 1668.01H-1036.34V1668.67L-1035.73 1668.93L-1035.34 1668.01ZM-1035.34 858.43H-1035.34V856.43H-1035.34V858.43ZM-1036.34 77.804V857.43H-1034.34V77.804H-1036.34ZM31.1897 170.685C-225.335 271.622 -491.83 248.207 -694.253 199.519C-795.457 175.177 -880.622 144.523 -940.483 119.955C-970.414 107.671 -994.017 96.91 -1010.13 89.221C-1018.19 85.3765 -1024.38 82.3002 -1028.55 80.1858C-1030.64 79.1286 -1032.22 78.3119 -1033.28 77.7599C-1033.81 77.4839 -1034.21 77.274 -1034.47 77.1334C-1034.61 77.0631 -1034.71 77.0101 -1034.77 76.9748C-1034.81 76.9571 -1034.83 76.9439 -1034.85 76.9351C-1034.86 76.9307 -1034.86 76.9275 -1034.87 76.9253C-1034.87 76.9232 -1034.87 76.9222 -1035.34 77.804C-1035.82 78.6859 -1035.81 78.6871 -1035.81 78.6896C-1035.8 78.6919 -1035.8 78.6954 -1035.79 78.7C-1035.77 78.7092 -1035.75 78.7228 -1035.71 78.7409C-1035.64 78.7771 -1035.54 78.8309 -1035.41 78.902C-1035.14 79.0443 -1034.74 79.2558 -1034.2 79.5335C-1033.14 80.0889 -1031.55 80.909 -1029.46 81.9697C-1025.27 84.091 -1019.07 87.1744 -1011 91.0261C-994.848 98.7295 -971.211 109.506 -941.243 121.805C-881.308 146.403 -796.044 177.092 -694.721 201.463C-492.09 250.202 -225.134 273.692 31.9221 172.546L31.1897 170.685ZM531.345 107.194C474.078 94.2222 420.274 82.0313 345.146 87.1357C270.035 92.2389 173.667 114.623 31.1897 170.685L31.9221 172.546C174.295 116.525 270.451 94.2153 345.281 89.1311C420.094 84.0482 473.649 96.1759 530.903 109.145L531.345 107.194ZM937.533 107.854C830.872 129.385 752.293 134.416 688.913 131.472C625.534 128.528 577.321 117.609 531.345 107.194L530.903 109.145C576.885 119.561 625.249 130.517 688.821 133.47C752.392 136.423 831.137 131.372 937.929 109.814L937.533 107.854ZM1856.98 77.804C1857.13 76.815 1857.13 76.8147 1857.13 76.8142C1857.12 76.8137 1857.12 76.8129 1857.11 76.8119C1857.1 76.8099 1857.08 76.8069 1857.05 76.8029C1857 76.7949 1856.92 76.783 1856.81 76.7673C1856.59 76.736 1856.27 76.6894 1855.85 76.6286C1855 76.5069 1853.73 76.328 1852.06 76.0989C1848.72 75.6406 1843.75 74.9813 1837.27 74.1768C1824.29 72.5677 1805.22 70.3775 1780.84 68.0519C1732.09 63.4007 1662.09 58.2077 1577.11 56.0391C1407.16 51.702 1177.27 59.4609 937.533 107.854L937.929 109.814C1177.47 61.46 1407.21 53.7038 1577.06 58.0385C1661.99 60.2057 1731.94 65.3954 1780.65 70.0429C1805.01 72.3666 1824.06 74.5547 1837.02 76.1616C1843.5 76.9651 1848.45 77.6232 1851.79 78.0804C1853.46 78.3089 1854.72 78.4872 1855.57 78.6084C1855.99 78.6689 1856.31 78.7152 1856.52 78.7462C1856.62 78.7618 1856.7 78.7735 1856.76 78.7814C1856.78 78.7853 1856.8 78.7882 1856.82 78.7902C1856.82 78.7912 1856.83 78.7919 1856.83 78.7924C1856.83 78.7928 1856.84 78.7931 1856.98 77.804ZM1857.98 857.43V77.804H1855.98V857.43H1857.98ZM1857.98 1668.01L1857.98 857.43H1855.98L1855.98 1668.01H1857.98ZM766.067 1558.44C1063.33 1533.66 1336 1561.29 1534.35 1595.12C1633.52 1612.03 1714.11 1630.49 1769.9 1644.73C1797.8 1651.85 1819.5 1657.9 1834.22 1662.18C1841.58 1664.32 1847.2 1666.02 1850.97 1667.18C1852.86 1667.76 1854.29 1668.2 1855.24 1668.5C1855.72 1668.65 1856.08 1668.77 1856.32 1668.85C1856.44 1668.88 1856.53 1668.91 1856.59 1668.93C1856.62 1668.94 1856.64 1668.95 1856.66 1668.95C1856.66 1668.96 1856.67 1668.96 1856.67 1668.96C1856.68 1668.96 1856.68 1668.96 1856.98 1668.01C1857.29 1667.06 1857.29 1667.06 1857.29 1667.05C1857.28 1667.05 1857.28 1667.05 1857.27 1667.05C1857.25 1667.04 1857.23 1667.04 1857.2 1667.03C1857.14 1667.01 1857.05 1666.98 1856.93 1666.94C1856.68 1666.86 1856.32 1666.75 1855.84 1666.6C1854.88 1666.29 1853.45 1665.85 1851.56 1665.27C1847.78 1664.1 1842.15 1662.41 1834.78 1660.26C1820.04 1655.98 1798.32 1649.91 1770.4 1642.79C1714.56 1628.55 1633.92 1610.07 1534.68 1593.15C1336.22 1559.3 1063.38 1531.65 765.901 1556.45L766.067 1558.44ZM172.244 1541.39C333.033 1558.14 527.162 1578.36 766.067 1558.44L765.901 1556.45C527.2 1576.35 333.234 1556.15 172.451 1539.4L172.244 1541.39ZM-362.266 1633.63C-297.499 1566.44 -223.813 1537.15 -136.363 1527.76C-48.8539 1518.36 52.3827 1528.9 172.244 1541.39L172.451 1539.4C52.6573 1526.92 -48.8125 1516.34 -136.576 1525.77C-224.4 1535.2 -298.553 1564.65 -363.706 1632.24L-362.266 1633.63ZM-1035.34 1668.01C-1035.73 1668.93 -1035.73 1668.93 -1035.72 1668.93C-1035.72 1668.93 -1035.71 1668.94 -1035.71 1668.94C-1035.69 1668.95 -1035.67 1668.95 -1035.64 1668.97C-1035.59 1668.99 -1035.5 1669.02 -1035.39 1669.07C-1035.17 1669.16 -1034.84 1669.3 -1034.41 1669.47C-1033.54 1669.83 -1032.24 1670.35 -1030.54 1671.02C-1027.15 1672.36 -1022.15 1674.29 -1015.7 1676.68C-1002.82 1681.44 -984.167 1687.99 -961.112 1695.15C-915.003 1709.47 -851.254 1726.21 -780.708 1735.91C-639.686 1755.3 -471.161 1746.59 -362.266 1633.63L-363.706 1632.24C-471.898 1744.47 -639.551 1753.3 -780.436 1733.93C-850.843 1724.25 -914.48 1707.54 -960.519 1693.24C-983.536 1686.09 -1002.15 1679.55 -1015.01 1674.8C-1021.44 1672.42 -1026.43 1670.49 -1029.81 1669.16C-1031.5 1668.49 -1032.79 1667.97 -1033.65 1667.62C-1034.09 1667.44 -1034.41 1667.31 -1034.63 1667.22C-1034.74 1667.18 -1034.82 1667.14 -1034.88 1667.12C-1034.9 1667.11 -1034.92 1667.1 -1034.94 1667.09C-1034.94 1667.09 -1034.95 1667.09 -1034.95 1667.09C-1034.96 1667.09 -1034.96 1667.09 -1035.34 1668.01ZM-1036.34 857.43V1668.01H-1034.34V857.43H-1036.34Z" fill="#4AFF85" mask="url(#path-1-outside-1_8417_143295)"/>
<g opacity="0.6">
<mask id="path-3-outside-2_8417_143295" maskUnits="userSpaceOnUse" x="-1110.47" y="9" width="3043" height="1735" fill="black">
<rect fill="white" x="-1110.47" y="9" width="3043" height="1735"/>
<path fill-rule="evenodd" clip-rule="evenodd" d="M-1109.47 869.29H-1109.47V35.5123C-1109.47 35.5123 -500.815 376.363 42.5388 172.906C325.286 67.0322 427.356 93.5752 535.365 121.663C634.917 147.551 739.513 174.75 995.274 100.789C1528.53 -53.417 1931.12 35.5123 1931.12 35.5123V869.29H1931.12V1736.17C1931.12 1736.17 1260.15 1484.22 776.09 1580.57C556.188 1624.34 381.802 1596.64 215.898 1570.28C16.6093 1538.62 -170.441 1508.9 -409.448 1607.35C-847.425 1787.76 -1109.47 1736.17 -1109.47 1736.17V869.29Z"/>
</mask>
<path fill-rule="evenodd" clip-rule="evenodd" d="M-1109.47 869.29H-1109.47V35.5123C-1109.47 35.5123 -500.815 376.363 42.5388 172.906C325.286 67.0322 427.356 93.5752 535.365 121.663C634.917 147.551 739.513 174.75 995.274 100.789C1528.53 -53.417 1931.12 35.5123 1931.12 35.5123V869.29H1931.12V1736.17C1931.12 1736.17 1260.15 1484.22 776.09 1580.57C556.188 1624.34 381.802 1596.64 215.898 1570.28C16.6093 1538.62 -170.441 1508.9 -409.448 1607.35C-847.425 1787.76 -1109.47 1736.17 -1109.47 1736.17V869.29Z" fill="url(#paint1_linear_8417_143295)"/>
<path d="M-1109.47 869.29H-1110.47V870.29H-1109.47V869.29ZM-1109.47 869.29H-1108.47V868.29H-1109.47V869.29ZM-1109.47 35.5123L-1108.98 34.6398L-1110.47 33.8061V35.5123H-1109.47ZM42.5388 172.906L42.8895 173.842L42.5388 172.906ZM535.365 121.663L535.114 122.63L535.365 121.663ZM995.274 100.789L995.552 101.75L995.274 100.789ZM1931.12 35.5123H1932.12V34.709L1931.34 34.5358L1931.12 35.5123ZM1931.12 869.29H1930.12V870.29H1931.12V869.29ZM1931.12 869.29H1932.12V868.29H1931.12V869.29ZM1931.12 1736.17L1930.77 1737.11L1932.12 1737.61V1736.17H1931.12ZM776.09 1580.57L776.286 1581.55L776.09 1580.57ZM215.898 1570.28L216.055 1569.29L215.898 1570.28ZM-409.448 1607.35L-409.067 1608.27L-409.448 1607.35ZM-1109.47 1736.17H-1110.47V1736.99L-1109.66 1737.15L-1109.47 1736.17ZM-1109.47 870.29H-1109.47V868.29H-1109.47V870.29ZM-1110.47 35.5123V869.29H-1108.47V35.5123H-1110.47ZM42.1881 171.969C-229.209 273.593 -516.974 239.295 -736.962 179.541C-846.946 149.666 -939.961 113.436 -1005.48 84.6755C-1038.24 70.2955 -1064.12 57.7834 -1081.81 48.8678C-1090.65 44.41 -1097.45 40.8514 -1102.03 38.408C-1104.33 37.1863 -1106.07 36.2435 -1107.23 35.6064C-1107.81 35.2879 -1108.25 35.0458 -1108.55 34.8836C-1108.69 34.8025 -1108.8 34.7413 -1108.88 34.7005C-1108.91 34.6801 -1108.94 34.6648 -1108.96 34.6547C-1108.97 34.6496 -1108.97 34.6459 -1108.98 34.6433C-1108.98 34.6409 -1108.98 34.6398 -1109.47 35.5123C-1109.96 36.3848 -1109.96 36.3862 -1109.95 36.389C-1109.95 36.3916 -1109.94 36.3956 -1109.93 36.4009C-1109.91 36.4115 -1109.89 36.4272 -1109.85 36.448C-1109.77 36.4896 -1109.66 36.5515 -1109.51 36.6335C-1109.22 36.7974 -1108.78 37.0411 -1108.19 37.3613C-1107.02 38.0016 -1105.27 38.9479 -1102.97 40.173C-1098.38 42.6232 -1091.57 46.1888 -1082.71 50.6538C-1064.99 59.5837 -1039.08 72.1111 -1006.28 86.5069C-940.696 115.298 -847.587 151.565 -737.487 181.471C-517.308 241.277 -229.067 275.676 42.8895 173.842L42.1881 171.969ZM535.617 120.695C481.604 106.649 428.959 92.9555 354.437 96.0497C279.932 99.1432 183.619 119.011 42.1881 171.969L42.8895 173.842C184.206 120.927 280.301 101.13 354.52 98.048C428.723 94.9671 481.118 108.589 535.114 122.63L535.617 120.695ZM994.997 99.8285C867.181 136.79 777.192 148.459 706.753 147.669C636.321 146.88 585.386 133.637 535.617 120.695L535.114 122.63C584.896 135.576 636.035 148.877 706.73 149.669C777.417 150.461 867.607 138.749 995.552 101.75L994.997 99.8285ZM1931.12 35.5123C1931.34 34.5358 1931.34 34.5354 1931.33 34.5347C1931.33 34.534 1931.32 34.5329 1931.32 34.5315C1931.31 34.5287 1931.29 34.5246 1931.26 34.5191C1931.21 34.5083 1931.14 34.4921 1931.04 34.4709C1930.84 34.4283 1930.55 34.3654 1930.16 34.2833C1929.38 34.119 1928.21 33.878 1926.67 33.5705C1923.58 32.9554 1918.99 32.0741 1912.96 31.0075C1900.89 28.8745 1883.07 26.0006 1860.01 23.0347C1813.9 17.1029 1746.88 10.8025 1663.19 9.32354C1495.8 6.36558 1261.74 22.6926 994.997 99.8285L995.552 101.75C1262.06 24.6795 1495.92 8.36809 1663.15 11.3232C1746.76 12.8008 1813.71 19.0949 1859.76 25.0184C1882.78 27.9801 1900.57 30.8491 1912.61 32.977C1918.63 34.0409 1923.2 34.9196 1926.28 35.5319C1927.81 35.8381 1928.97 36.0776 1929.75 36.2405C1930.13 36.3219 1930.42 36.3841 1930.62 36.4259C1930.71 36.4468 1930.79 36.4626 1930.84 36.4731C1930.86 36.4784 1930.88 36.4823 1930.89 36.4849C1930.9 36.4862 1930.9 36.4872 1930.9 36.4878C1930.91 36.4885 1930.91 36.4887 1931.12 35.5123ZM1932.12 869.29V35.5123H1930.12V869.29H1932.12ZM1931.12 868.29H1931.12V870.29H1931.12V868.29ZM1932.12 1736.17V869.29H1930.12V1736.17H1932.12ZM776.286 1581.55C1018.1 1533.42 1306.69 1572.28 1534.91 1623.22C1649 1648.68 1747.97 1677.16 1818.42 1699.26C1853.65 1710.32 1881.74 1719.78 1901.02 1726.48C1910.66 1729.83 1918.1 1732.48 1923.13 1734.31C1925.65 1735.22 1927.56 1735.92 1928.84 1736.39C1929.48 1736.63 1929.96 1736.81 1930.29 1736.93C1930.45 1736.99 1930.57 1737.03 1930.65 1737.06C1930.69 1737.08 1930.72 1737.09 1930.74 1737.1C1930.75 1737.1 1930.76 1737.1 1930.77 1737.1C1930.77 1737.11 1930.77 1737.11 1931.12 1736.17C1931.48 1735.23 1931.47 1735.23 1931.47 1735.23C1931.46 1735.23 1931.46 1735.23 1931.45 1735.22C1931.42 1735.22 1931.39 1735.2 1931.35 1735.19C1931.27 1735.16 1931.15 1735.11 1930.99 1735.05C1930.66 1734.93 1930.17 1734.75 1929.53 1734.51C1928.25 1734.04 1926.33 1733.34 1923.81 1732.42C1918.78 1730.6 1911.33 1727.94 1901.68 1724.59C1882.38 1717.88 1854.26 1708.42 1819.02 1697.36C1748.53 1675.23 1649.51 1646.74 1535.35 1621.26C1307.06 1570.31 1018.13 1531.37 775.895 1579.59L776.286 1581.55ZM215.741 1571.27C381.648 1597.62 556.191 1625.36 776.286 1581.55L775.895 1579.59C556.184 1623.32 381.956 1595.65 216.055 1569.29L215.741 1571.27ZM-409.067 1608.27C-170.342 1509.94 16.4591 1539.6 215.741 1571.27L216.055 1569.29C16.7594 1537.63 -170.541 1507.86 -409.829 1606.42L-409.067 1608.27ZM-1109.47 1736.17C-1109.66 1737.15 -1109.66 1737.15 -1109.66 1737.15C-1109.66 1737.15 -1109.65 1737.15 -1109.65 1737.15C-1109.64 1737.16 -1109.63 1737.16 -1109.61 1737.16C-1109.58 1737.17 -1109.53 1737.18 -1109.46 1737.19C-1109.33 1737.21 -1109.14 1737.25 -1108.88 1737.3C-1108.37 1737.39 -1107.6 1737.53 -1106.58 1737.69C-1104.55 1738.03 -1101.51 1738.5 -1097.49 1739.03C-1089.44 1740.09 -1077.47 1741.4 -1061.75 1742.41C-1030.29 1744.43 -983.8 1745.24 -923.62 1740.41C-803.26 1730.75 -628.153 1698.52 -409.067 1608.27L-409.829 1606.42C-628.72 1696.59 -803.623 1728.77 -923.78 1738.42C-983.86 1743.24 -1030.25 1742.43 -1061.62 1740.42C-1077.3 1739.41 -1089.22 1738.1 -1097.22 1737.04C-1101.22 1736.52 -1104.24 1736.05 -1106.26 1735.72C-1107.27 1735.55 -1108.02 1735.42 -1108.53 1735.33C-1108.78 1735.28 -1108.97 1735.25 -1109.09 1735.23C-1109.16 1735.21 -1109.2 1735.2 -1109.23 1735.2C-1109.25 1735.2 -1109.26 1735.19 -1109.27 1735.19C-1109.27 1735.19 -1109.27 1735.19 -1109.27 1735.19C-1109.28 1735.19 -1109.28 1735.19 -1109.47 1736.17ZM-1110.47 869.29V1736.17H-1108.47V869.29H-1110.47Z" fill="#4AFF85" mask="url(#path-3-outside-2_8417_143295)"/>
</g>
<g opacity="0.4">
<mask id="path-5-outside-3_8417_143295" maskUnits="userSpaceOnUse" x="-1140" y="0" width="3216" height="1827" fill="black">
<rect fill="white" x="-1140" width="3216" height="1827"/>
<path fill-rule="evenodd" clip-rule="evenodd" d="M2063.14 916.898H2075V14.8882C2075 14.8882 1849.66 -45.3517 1153.89 85.0874C814.201 148.77 661.453 126.36 539.076 108.406C410.794 89.5848 315.886 75.6604 74.0002 170.935C-398.634 357.097 -1127.14 14.8882 -1127.14 14.8882V887.179H-1139V1825C-1139 1825 -887.309 1684.41 -383.049 1585.44C-118.87 1533.59 40.423 1557.49 214.518 1583.63C372.732 1607.37 543.171 1632.95 815.668 1605.18C1388.01 1546.83 2063.14 1825 2063.14 1825V916.898Z"/>
</mask>
<path fill-rule="evenodd" clip-rule="evenodd" d="M2063.14 916.898H2075V14.8882C2075 14.8882 1849.66 -45.3517 1153.89 85.0874C814.201 148.77 661.453 126.36 539.076 108.406C410.794 89.5848 315.886 75.6604 74.0002 170.935C-398.634 357.097 -1127.14 14.8882 -1127.14 14.8882V887.179H-1139V1825C-1139 1825 -887.309 1684.41 -383.049 1585.44C-118.87 1533.59 40.423 1557.49 214.518 1583.63C372.732 1607.37 543.171 1632.95 815.668 1605.18C1388.01 1546.83 2063.14 1825 2063.14 1825V916.898Z" fill="url(#paint2_linear_8417_143295)"/>
<path d="M2063.14 916.898V915.898H2062.14V916.898H2063.14ZM2075 916.898V917.898H2076V916.898H2075ZM2075 14.8882H2076V14.1204L2075.26 13.9221L2075 14.8882ZM1153.89 85.0874L1153.71 84.1046L1153.89 85.0874ZM539.076 108.406L539.222 107.416L539.076 108.406ZM74.0002 170.935L73.6337 170.004L74.0002 170.935ZM-1127.14 14.8882L-1126.72 13.9831L-1128.14 13.3136V14.8882H-1127.14ZM-1127.14 887.179V888.179H-1126.14V887.179H-1127.14ZM-1139 887.179V886.179H-1140V887.179H-1139ZM-1139 1825H-1140V1826.71L-1138.51 1825.87L-1139 1825ZM-383.049 1585.44L-382.856 1586.42L-383.049 1585.44ZM214.518 1583.63L214.666 1582.64L214.518 1583.63ZM815.668 1605.18L815.769 1606.17L815.668 1605.18ZM2063.14 1825L2062.76 1825.93L2064.14 1826.49V1825H2063.14ZM2063.14 917.898H2075V915.898H2063.14V917.898ZM2076 916.898V14.8882H2074V916.898H2076ZM2075 14.8882C2075.26 13.9221 2075.26 13.9217 2075.25 13.9211C2075.25 13.9206 2075.25 13.9197 2075.25 13.9187C2075.24 13.9167 2075.23 13.9137 2075.21 13.9099C2075.18 13.9022 2075.14 13.891 2075.08 13.8764C2074.97 13.8471 2074.8 13.804 2074.57 13.7482C2074.12 13.6367 2073.44 13.474 2072.52 13.2679C2070.69 12.8556 2067.91 12.2697 2064.14 11.5712C2056.6 10.1743 2045.05 8.3273 2029.03 6.52011C1996.99 2.90574 1947.04 -0.549599 1875.35 0.0731767C1731.98 1.31872 1501.64 18.8766 1153.71 84.1046L1154.07 86.0703C1501.92 20.8592 1732.13 3.31742 1875.37 2.0731C1946.99 1.45095 1996.86 4.90312 2028.81 8.5075C2044.78 10.3097 2056.28 12.1499 2063.78 13.5378C2067.52 14.2317 2070.27 14.8126 2072.08 15.2191C2072.98 15.4224 2073.65 15.582 2074.09 15.6904C2074.31 15.7447 2074.48 15.786 2074.59 15.8137C2074.64 15.8275 2074.68 15.8378 2074.71 15.8446C2074.72 15.848 2074.73 15.8506 2074.73 15.8522C2074.74 15.853 2074.74 15.8535 2074.74 15.8539C2074.74 15.8542 2074.74 15.8542 2075 14.8882ZM1153.71 84.1046C814.148 147.763 661.515 125.358 539.222 107.416L538.931 109.395C661.391 127.362 814.253 149.778 1154.07 86.0703L1153.71 84.1046ZM539.222 107.416C475.085 98.0065 419.181 89.8014 349.053 95.8883C278.927 101.975 194.631 122.346 73.6337 170.004L74.3667 171.865C195.255 124.249 279.356 103.945 349.226 97.8808C419.094 91.8165 474.785 99.9839 538.931 109.395L539.222 107.416ZM73.6337 170.004C-162.372 262.963 -462.391 224.026 -703.558 161.754C-824.115 130.625 -929.91 93.6798 -1005.57 64.5164C-1043.39 49.935 -1073.69 37.2998 -1094.52 28.3107C-1104.93 23.8162 -1112.99 20.2333 -1118.43 17.7745C-1121.16 16.5451 -1123.23 15.5967 -1124.62 14.956C-1125.31 14.6356 -1125.84 14.3921 -1126.19 14.2288C-1126.36 14.1472 -1126.5 14.0856 -1126.58 14.0445C-1126.63 14.024 -1126.66 14.0086 -1126.68 13.9983C-1126.69 13.9932 -1126.7 13.9893 -1126.71 13.9868C-1126.71 13.9843 -1126.72 13.9831 -1127.14 14.8882C-1127.57 15.7933 -1127.56 15.7947 -1127.56 15.7974C-1127.55 15.8 -1127.54 15.804 -1127.53 15.8093C-1127.51 15.8198 -1127.48 15.8355 -1127.43 15.8563C-1127.34 15.8979 -1127.21 15.96 -1127.03 16.0421C-1126.68 16.2064 -1126.15 16.451 -1125.45 16.7724C-1124.06 17.4152 -1121.98 18.3657 -1119.26 19.5973C-1113.8 22.0604 -1105.74 25.6479 -1095.31 30.147C-1074.46 39.1453 -1044.14 51.7907 -1006.29 66.3826C-930.578 95.5658 -824.707 132.538 -704.058 163.691C-462.813 225.983 -162.261 265.069 74.3667 171.865L73.6337 170.004ZM-1128.14 14.8882V887.179H-1126.14V14.8882H-1128.14ZM-1127.14 886.179H-1139V888.179H-1127.14V886.179ZM-1140 887.179V1825H-1138V887.179H-1140ZM-1139 1825C-1138.51 1825.87 -1138.51 1825.87 -1138.51 1825.87C-1138.51 1825.87 -1138.51 1825.87 -1138.5 1825.87C-1138.49 1825.86 -1138.48 1825.86 -1138.47 1825.85C-1138.44 1825.83 -1138.39 1825.81 -1138.33 1825.77C-1138.21 1825.71 -1138.03 1825.61 -1137.78 1825.47C-1137.29 1825.2 -1136.56 1824.81 -1135.58 1824.28C-1133.62 1823.23 -1130.67 1821.67 -1126.74 1819.66C-1118.89 1815.62 -1107.1 1809.75 -1091.37 1802.39C-1059.92 1787.68 -1012.72 1767.02 -949.769 1743.27C-823.863 1695.77 -634.929 1635.9 -382.856 1586.42L-383.241 1584.46C-635.428 1633.96 -824.47 1693.86 -950.475 1741.4C-1013.48 1765.17 -1060.72 1785.84 -1092.22 1800.58C-1107.97 1807.95 -1119.78 1813.83 -1127.66 1817.88C-1131.6 1819.9 -1134.55 1821.46 -1136.52 1822.52C-1137.51 1823.04 -1138.25 1823.45 -1138.74 1823.72C-1138.99 1823.85 -1139.18 1823.96 -1139.3 1824.02C-1139.36 1824.06 -1139.41 1824.08 -1139.44 1824.1C-1139.46 1824.11 -1139.47 1824.12 -1139.48 1824.12C-1139.48 1824.12 -1139.48 1824.13 -1139.48 1824.13C-1139.49 1824.13 -1139.49 1824.13 -1139 1825ZM-382.856 1586.42C-118.848 1534.6 40.3085 1558.49 214.369 1584.61L214.666 1582.64C40.5374 1556.5 -118.892 1532.57 -383.241 1584.46L-382.856 1586.42ZM214.369 1584.61C372.609 1608.36 543.147 1633.96 815.769 1606.17L815.566 1604.18C543.195 1631.95 372.854 1606.38 214.666 1582.64L214.369 1584.61ZM815.769 1606.17C1101.77 1577.01 1413.5 1631.94 1653.78 1694.18C1773.91 1725.29 1876.16 1758.23 1948.38 1783.39C1984.49 1795.97 2013.09 1806.61 2032.66 1814.1C2042.44 1817.84 2049.97 1820.8 2055.05 1822.82C2057.59 1823.83 2059.52 1824.61 2060.81 1825.13C2061.46 1825.39 2061.95 1825.59 2062.27 1825.73C2062.43 1825.79 2062.56 1825.84 2062.64 1825.88C2062.68 1825.89 2062.71 1825.9 2062.73 1825.91C2062.74 1825.92 2062.75 1825.92 2062.75 1825.92C2062.76 1825.92 2062.76 1825.93 2063.14 1825C2063.52 1824.08 2063.52 1824.08 2063.51 1824.07C2063.51 1824.07 2063.5 1824.07 2063.49 1824.06C2063.47 1824.05 2063.44 1824.04 2063.4 1824.03C2063.31 1823.99 2063.19 1823.94 2063.03 1823.87C2062.7 1823.74 2062.21 1823.54 2061.56 1823.28C2060.27 1822.75 2058.33 1821.97 2055.79 1820.96C2050.7 1818.94 2043.16 1815.98 2033.37 1812.23C2013.78 1804.73 1985.17 1794.09 1949.04 1781.5C1876.78 1756.33 1774.48 1723.37 1654.28 1692.24C1413.91 1629.98 1101.91 1574.99 815.566 1604.18L815.769 1606.17ZM2064.14 1825V916.898H2062.14V1825H2064.14Z" fill="#4AFF85" mask="url(#path-5-outside-3_8417_143295)"/>
</g>
<defs>
<linearGradient id="paint0_linear_8417_143295" x1="410.82" y1="435.478" x2="410.891" y2="1666.2" gradientUnits="userSpaceOnUse">
<stop stop-color="#C7FFD8" stop-opacity="0.74"/>
<stop offset="0.0001" stop-color="#B4FFCA" stop-opacity="0.74"/>
<stop offset="0.401042" stop-color="#D7FFF4"/>
<stop offset="0.677083" stop-color="#DBFFE0"/>
<stop offset="1" stop-color="#9AFFA4"/>
</linearGradient>
<linearGradient id="paint1_linear_8417_143295" x1="410.826" y1="399.826" x2="414.623" y2="1700.84" gradientUnits="userSpaceOnUse">
<stop stop-color="#B4FFCA" stop-opacity="0.74"/>
<stop offset="0.0001" stop-color="#B4FFCA" stop-opacity="0.74"/>
<stop offset="0.401042" stop-color="#C8FFF0"/>
<stop offset="0.677083" stop-color="#E7FFEA"/>
<stop offset="1" stop-color="#DFFFDA"/>
</linearGradient>
<linearGradient id="paint2_linear_8417_143295" x1="468" y1="411.296" x2="471.979" y2="1780.63" gradientUnits="userSpaceOnUse">
<stop stop-color="#B4FFCA" stop-opacity="0.74"/>
<stop offset="0.0001" stop-color="#B4FFCA" stop-opacity="0.74"/>
<stop offset="0.401042" stop-color="#C8FFF0"/>
<stop offset="0.677083" stop-color="#E7FFEA"/>
<stop offset="1" stop-color="#DFFFDA"/>
</linearGradient>
</defs>
</svg>
