<?xml version="1.0" standalone="no"?>
<!DOCTYPE svg PUBLIC "-//W3C//DTD SVG 1.1//EN" "http://www.w3.org/Graphics/SVG/1.1/DTD/svg11.dtd"><svg xmlns="http://www.w3.org/2000/svg" style="background-color:#FFF" width="834" height="3504"><path stroke="black" fill="none" stroke-width="1" d="M835, 3449.62L830.18, 3450.76L792.79, 3459.01L755.68, 3466.61L718.81, 3473.55L682.13, 3479.8L645.6, 3485.36L609.17, 3490.2L572.79, 3494.32L536.41, 3497.69L499.99, 3500.31L463.48, 3502.16L426.83, 3503.22L390, 3503.48L352.93, 3502.93L315.59, 3501.55L277.93, 3499.32L239.89, 3496.23L201.44, 3492.27L162.51, 3487.41L123.08, 3481.66L83.08, 3474.98L42.48, 3467.37L1.23, 3458.81L1, 3458.76M835, 208.62L825.01, 208.17L814.41, 207.42L803.64, 206.4L792.71, 205.14L781.63, 203.64L770.41, 201.92L759.04, 200.01L747.53, 197.91L735.88, 195.64L724.11, 193.22L700.17, 187.99L675.76, 182.35L657.96, 178.13L639.95, 173.8L616.82, 168.25L593.39, 162.72L569.68, 157.31L545.72, 152.11L521.53, 147.23L497.14, 142.75L472.57, 138.79L447.85, 135.44L423, 132.8L410.54, 131.77L398.05, 130.96L385.55, 130.37L373.03, 130.02L360.5, 129.92L347.96, 130.09L335.41, 130.52L322.86, 131.25L310.31, 132.28L297.76, 133.62L285.22, 135.28L272.69, 137.28L260.17, 139.62L247.66, 142.33L233.81, 145.39L219.68, 148.23L205.29, 150.86L190.65, 153.27L175.78, 155.48L160.7, 157.49L145.41, 159.31L129.95, 160.94L114.31, 162.39L98.53, 163.67L82.6, 164.77L66.56, 165.71L34.18, 167.1L1.51, 167.91L1, 167.91"/></svg>