<svg width="96" height="194" viewBox="0 0 96 194" fill="none" xmlns="http://www.w3.org/2000/svg">
<g opacity="0.3" clip-path="url(#clip0_6790_213666)">
<path d="M89.7628 186.76C139.337 190.372 182.453 153.113 186.065 103.539C189.678 53.9644 152.418 10.8482 102.844 7.23595C53.2699 3.62366 10.1537 40.8831 6.54139 90.4573C2.9291 140.032 40.1886 183.148 89.7628 186.76Z" fill="black"/>
<path d="M139.045 62.2802L125.081 68.1659L57.5997 96.5638C57.1916 89.3747 58.7888 82.2135 62.2132 75.8792C65.6375 69.5449 70.7544 64.2866 76.9929 60.6907C83.2315 57.0948 90.3464 55.3029 97.5439 55.5148C104.741 55.7267 111.739 57.934 117.755 61.8906L125.749 58.5252L126.942 58.02C120.016 52.1804 111.564 48.4447 102.583 47.254C93.6025 46.0633 84.4686 47.4673 76.2601 51.3002C68.0516 55.1331 61.1113 61.2348 56.2588 68.8848C51.4062 76.5348 48.844 85.4137 48.8748 94.4729C48.88 96.1768 48.3808 97.8441 47.4403 99.265C46.4998 100.686 45.1599 101.797 43.5893 102.457L39.3707 104.237L38.666 113.909L51.0828 108.677L55.1037 106.979L59.066 105.311L130.202 75.3577L138.196 71.9979L154.721 65.041L155.425 55.3748L139.045 62.2802ZM154.021 74.7189L62.4127 113.253L54.4182 116.619L37.9685 123.558L37.2641 133.225L53.6019 126.35L67.5722 120.465L135.124 92.0214C135.546 99.2224 133.955 106.399 130.529 112.747C127.104 119.095 121.979 124.365 115.729 127.966C109.479 131.567 102.35 133.358 95.1402 133.137C87.9302 132.917 80.9238 130.694 74.9053 126.718L74.41 126.936L65.7403 130.59C72.6672 136.433 81.1218 140.171 90.1051 141.362C99.0884 142.553 108.225 141.148 116.435 137.313C124.646 133.478 131.587 127.373 136.438 119.719C141.29 112.065 143.85 103.183 143.815 94.121C143.811 92.4188 144.31 90.7534 145.249 89.3338C146.188 87.9143 147.526 86.8037 149.094 86.1417L153.318 84.3627L154.021 74.7245L154.021 74.7189Z" fill="white"/>
</g>
<defs>
<clipPath id="clip0_6790_213666">
<rect width="180" height="180" fill="white" transform="translate(13.082 0.695312) rotate(4.16757)"/>
</clipPath>
</defs>
</svg>
