<svg width="133" height="252" viewBox="0 0 133 252" fill="none" xmlns="http://www.w3.org/2000/svg">
<g opacity="0.3" clip-path="url(#clip0_6790_213670)">
<path d="M57.6141 200.44C98.7241 172.501 109.401 116.525 81.4615 75.4148C53.522 34.3047 -2.45364 23.6279 -43.5637 51.5674C-84.6737 79.5068 -95.3506 135.483 -67.4111 176.593C-39.4716 217.703 16.504 228.379 57.6141 200.44Z" fill="#627EEA"/>
<path d="M-28.5996 68.6016L-0.554396 109.867L44.9157 101.748L-28.5996 68.6016Z" fill="white" fill-opacity="0.602"/>
<path d="M-28.5997 68.6053L-24.8452 149.163L-0.554492 109.871L-28.5997 68.6053Z" fill="white"/>
<path d="M28.2114 152.2L47.2676 180.239L49.3525 108.233L28.2114 152.2Z" fill="white" fill-opacity="0.602"/>
<path d="M47.2675 180.235L28.2081 152.191L-20.4316 155.656L47.2675 180.235Z" fill="white"/>
<path d="M23.8012 145.71L44.9159 101.755L-0.547852 109.883L23.8012 145.71Z" fill="white" fill-opacity="0.2"/>
<path d="M-24.8449 149.162L23.8011 145.706L-0.547948 109.879L-24.8449 149.162Z" fill="white" fill-opacity="0.602"/>
</g>
<defs>
<clipPath id="clip0_6790_213670">
<rect width="180" height="180" fill="white" transform="translate(-118 102.156) rotate(-34.2011)"/>
</clipPath>
</defs>
</svg>
