<!-- width="767" height="675" -->

<svg preserveAspectRatio="none" viewBox="0 0 767 675" fill="none" xmlns="http://www.w3.org/2000/svg">
<path d="M725.5 367.503C725.5 530.322 589.258 675.004 409.559 675.004C229.86 675.004 39.5 445.823 39.5 283.003C81.4126 90.6287 267.5 196.457 580.5 88.503C811 9.0033 725.5 228.004 725.5 367.503Z" fill="url(#paint0_linear_6790_206831)"/>
<mask id="mask0_6790_206831" style="mask-type:alpha" maskUnits="userSpaceOnUse" x="0" y="0" width="767" height="675">
<path d="M709.013 372.694C709.013 535.514 589.257 675 409.558 675C229.859 675 -105.501 608.5 33.9992 232.786C75.9118 40.4119 280.499 163.5 589.341 21.9218C898.999 -80.9997 709.013 209.875 709.013 372.694Z" fill="url(#paint1_linear_6790_206831)"/>
</mask>
<g mask="url(#mask0_6790_206831)">
<g filter="url(#filter0_d_6790_206831)">
<path d="M475.021 455.16C483.568 432.215 503.764 412.389 528.17 410.031C513.497 432.26 507.172 458.953 510.314 485.389C511.563 495.58 514.015 506.785 508.513 515.459C505.089 520.856 499.055 524.178 492.836 525.678C486.615 527.177 480.134 527.061 473.737 526.936L472.304 527.642C467.805 503.578 466.473 478.104 475.021 455.16Z" fill="#F0F0F0"/>
<path d="M528.287 410.531C511.649 422.135 499.097 438.678 492.413 457.811C491.006 461.918 489.936 466.207 489.875 470.569C489.847 474.821 490.961 479.003 493.1 482.68C495.025 486.149 497.397 489.474 498.444 493.349C499.548 497.434 498.648 501.566 496.393 505.095C493.634 509.413 489.486 512.484 485.324 515.346C480.704 518.524 475.854 521.752 473.027 526.745C472.684 527.349 471.764 526.783 472.106 526.179C477.025 517.494 487.348 514.339 493.663 506.961C496.61 503.518 498.535 499.168 497.624 494.584C496.827 490.575 494.385 487.144 492.405 483.649C490.326 479.979 488.968 476.17 488.809 471.924C488.647 467.581 489.551 463.241 490.847 459.116C493.854 449.782 498.314 440.98 504.06 433.029C510.569 423.919 518.59 415.988 527.777 409.579C528.346 409.182 528.852 410.137 528.287 410.531V410.531Z" fill="white"/>
<path d="M494.203 451.525C491.14 449.969 488.73 447.378 487.405 444.212C486.079 441.047 485.923 437.515 486.966 434.245C487.179 433.585 488.218 433.884 488.004 434.546C487.028 437.588 487.173 440.879 488.413 443.824C489.654 446.769 491.908 449.174 494.769 450.606C495.39 450.918 494.82 451.835 494.203 451.525Z" fill="white"/>
<path d="M491.891 481.055C498.59 478.942 504.245 474.387 507.729 468.297C508.073 467.694 508.993 468.259 508.649 468.862C505.012 475.193 499.117 479.921 492.142 482.104C491.477 482.312 491.23 481.261 491.891 481.055V481.055Z" fill="white"/>
<path d="M511.309 425.141C512.369 425.99 513.623 426.562 514.958 426.807C516.294 427.052 517.67 426.962 518.963 426.545C519.625 426.329 519.871 427.38 519.213 427.594C517.783 428.048 516.264 428.146 514.787 427.879C513.311 427.611 511.922 426.987 510.743 426.061C510.625 425.982 510.54 425.862 510.507 425.724C510.474 425.587 510.495 425.441 510.566 425.318C510.641 425.197 510.762 425.11 510.901 425.077C511.04 425.044 511.187 425.067 511.309 425.141V425.141Z" fill="white"/>
<path d="M586.996 468.516C586.586 468.663 586.176 468.81 585.764 468.965C580.268 470.964 574.944 473.405 569.844 476.264C569.446 476.479 569.046 476.703 568.656 476.929C556.442 483.949 545.641 493.172 536.8 504.129C533.286 508.492 530.109 513.116 527.298 517.96C523.416 524.65 519.739 532.213 514.038 537.089C513.449 537.604 512.828 538.083 512.18 538.521L473.277 529.331C473.2 529.266 473.119 529.209 473.041 529.144L471.471 528.848C471.598 528.588 471.736 528.321 471.864 528.061C471.937 527.91 472.019 527.761 472.092 527.61C472.144 527.51 472.196 527.41 472.237 527.316C472.254 527.283 472.271 527.25 472.286 527.225C472.327 527.132 472.375 527.05 472.414 526.965C473.18 525.471 473.959 523.98 474.749 522.492C474.751 522.483 474.751 522.483 474.762 522.476C480.811 511.151 487.86 500.231 496.346 490.726C496.601 490.44 496.858 490.145 497.132 489.863C500.98 485.6 505.172 481.658 509.664 478.076C512.13 476.123 514.693 474.296 517.344 472.601C524.203 468.236 531.706 464.976 539.579 462.939C555.275 458.88 572.097 459.878 585.944 467.894C586.298 468.099 586.644 468.302 586.996 468.516Z" fill="#F0F0F0"/>
<path d="M586.79 468.99C566.508 468.254 546.509 473.918 529.635 485.177C526.034 487.611 522.594 490.392 519.914 493.838C517.328 497.217 515.696 501.225 515.186 505.446C514.632 509.373 514.52 513.454 513.019 517.177C511.437 521.102 508.227 523.861 504.298 525.323C499.491 527.113 494.327 527.071 489.278 526.855C483.672 526.615 477.854 526.277 472.586 528.564C471.947 528.841 471.554 527.836 472.191 527.559C481.357 523.581 491.502 527.267 500.993 525.172C505.422 524.194 509.583 521.878 511.62 517.67C513.401 513.991 513.52 509.783 514.047 505.802C514.6 501.622 515.812 497.765 518.247 494.28C520.737 490.714 524.075 487.792 527.598 485.277C535.627 479.633 544.496 475.285 553.879 472.391C564.57 469.03 575.757 467.519 586.958 467.924C587.651 467.949 587.479 469.015 586.79 468.99L586.79 468.99Z" fill="white"/>
<path d="M534.855 481.234C533.348 478.151 532.987 474.633 533.837 471.309C534.688 467.985 536.694 465.071 539.498 463.087C540.066 462.688 540.715 463.551 540.145 463.951C537.531 465.794 535.662 468.509 534.877 471.606C534.091 474.703 534.441 477.978 535.862 480.84C536.17 481.463 535.162 481.853 534.855 481.234V481.234Z" fill="white"/>
<path d="M515.205 503.417C521.827 505.757 529.09 505.519 535.544 502.75C536.183 502.475 536.577 503.48 535.938 503.755C529.216 506.623 521.658 506.855 514.772 504.405C514.116 504.171 514.552 503.184 515.205 503.417Z" fill="white"/>
<path d="M564.423 470.451C564.758 471.765 565.414 472.976 566.333 473.975C567.251 474.973 568.404 475.728 569.688 476.172C570.347 476.398 569.91 477.385 569.255 477.161C567.839 476.664 566.567 475.828 565.549 474.727C564.532 473.627 563.8 472.293 563.417 470.845C563.369 470.711 563.375 470.565 563.431 470.435C563.488 470.305 563.593 470.202 563.723 470.146C563.856 470.094 564.005 470.098 564.136 470.155C564.267 470.212 564.37 470.318 564.423 470.451V470.451Z" fill="white"/>
<path d="M249.616 665.475C227.345 655.233 209.069 633.631 208.557 609.156C229.65 625.442 255.833 633.754 282.474 632.622C292.746 632.148 304.123 630.554 312.37 636.686C317.502 640.502 320.365 646.76 321.392 653.065C322.42 659.371 321.815 665.814 321.207 672.174L321.804 673.653C297.429 676.315 271.887 675.717 249.616 665.475Z" fill="#F0F0F0"/>
<path d="M209.064 609.08C219.398 626.519 234.973 640.265 253.577 648.364C257.573 650.075 261.776 651.463 266.128 651.854C270.373 652.202 274.633 651.409 278.467 649.558C282.077 647.903 285.577 645.793 289.527 645.043C293.69 644.252 297.749 645.46 301.104 647.972C305.208 651.044 307.962 655.406 310.506 659.765C313.332 664.605 316.189 669.677 320.962 672.868C321.54 673.255 320.905 674.128 320.328 673.742C312.024 668.189 309.653 657.674 302.761 650.83C299.545 647.637 295.345 645.392 290.698 645.952C286.634 646.443 283.023 648.616 279.382 650.323C275.56 652.115 271.654 653.179 267.401 653.016C263.051 652.85 258.784 651.623 254.762 650.021C245.667 646.322 237.212 641.218 229.705 634.897C221.098 627.729 213.783 619.145 208.075 609.515C207.722 608.919 208.713 608.488 209.064 609.08H209.064Z" fill="white"/>
<path d="M247.433 646.106C245.648 649.037 242.878 651.24 239.616 652.321C236.355 653.402 232.815 653.29 229.628 652.005C228.984 651.743 229.362 650.732 230.007 650.994C232.972 652.196 236.27 652.3 239.305 651.287C242.34 650.275 244.912 648.212 246.558 645.473C246.916 644.878 247.789 645.514 247.433 646.106Z" fill="white"/>
<path d="M276.748 650.639C275.144 643.81 271.022 637.837 265.202 633.909C264.625 633.52 265.26 632.647 265.836 633.035C271.884 637.134 276.162 643.359 277.815 650.468C277.972 651.146 276.904 651.313 276.748 650.639Z" fill="white"/>
<path d="M222.377 627.08C223.304 626.089 223.971 624.884 224.316 623.572C224.662 622.261 224.676 620.885 224.357 619.567C224.191 618.891 225.259 618.725 225.424 619.396C225.769 620.854 225.752 622.374 225.374 623.824C224.995 625.274 224.267 626.609 223.252 627.713C223.165 627.825 223.039 627.9 222.899 627.922C222.759 627.944 222.615 627.912 222.498 627.833C222.382 627.749 222.305 627.622 222.282 627.481C222.26 627.34 222.294 627.196 222.377 627.08Z" fill="white"/>
<path d="M271.413 555.008C271.529 555.427 271.644 555.845 271.768 556.267C273.349 561.89 275.385 567.374 277.856 572.667C278.041 573.08 278.234 573.495 278.43 573.901C284.519 586.59 292.915 598.039 303.191 607.668C307.283 611.496 311.662 615.007 316.288 618.172C322.677 622.542 329.953 626.773 334.392 632.817C334.862 633.442 335.293 634.096 335.682 634.775L323.565 672.809C323.494 672.882 323.432 672.958 323.361 673.031L322.947 674.571C322.697 674.425 322.44 674.267 322.19 674.121C322.045 674.036 321.902 673.943 321.757 673.859C321.661 673.8 321.565 673.741 321.475 673.693C321.443 673.673 321.411 673.653 321.387 673.637C321.297 673.589 321.219 673.535 321.137 673.49C319.703 672.614 318.273 671.727 316.846 670.828C316.837 670.825 316.837 670.825 316.831 670.814C305.977 663.936 295.602 656.094 286.75 646.928C286.483 646.653 286.208 646.374 285.948 646.081C281.98 641.928 278.36 637.458 275.122 632.715C273.357 630.113 271.726 627.423 270.233 624.656C266.392 617.498 263.702 609.782 262.262 601.79C259.393 585.858 261.661 569.187 270.712 556.008C270.944 555.671 271.173 555.342 271.413 555.008Z" fill="#F0F0F0"/>
<path d="M271.869 555.248C269.603 575.384 273.749 595.721 283.719 613.371C285.878 617.139 288.397 620.774 291.636 623.701C294.815 626.531 298.695 628.459 302.873 629.285C306.753 630.134 310.82 630.553 314.426 632.328C318.227 634.2 320.74 637.604 321.904 641.626C323.328 646.546 322.896 651.684 322.299 656.694C321.636 662.256 320.859 668.023 322.745 673.441C322.974 674.097 321.94 674.413 321.712 673.757C318.43 664.332 322.878 654.511 321.502 644.904C320.86 640.421 318.862 636.104 314.813 633.759C311.272 631.707 307.078 631.271 303.142 630.446C299.01 629.58 295.249 628.082 291.951 625.395C288.578 622.647 285.912 619.103 283.666 615.406C278.635 606.986 274.962 597.828 272.781 588.269C270.231 577.373 269.566 566.121 270.816 555.001C270.894 554.313 271.946 554.565 271.869 555.248V555.248Z" fill="white"/>
<path d="M280.173 607.877C276.98 609.145 273.44 609.238 270.184 608.141C266.928 607.043 264.169 604.826 262.399 601.885C262.043 601.289 262.955 600.708 263.311 601.306C264.954 604.047 267.524 606.112 270.558 607.128C273.592 608.144 276.89 608.044 279.856 606.845C280.501 606.586 280.814 607.619 280.173 607.877Z" fill="white"/>
<path d="M300.848 629.117C303.685 622.701 303.996 615.453 301.719 608.819C301.492 608.162 302.526 607.846 302.752 608.502C305.109 615.411 304.77 622.952 301.803 629.622C301.52 630.258 300.567 629.749 300.848 629.117Z" fill="white"/>
<path d="M271.641 577.626C272.979 577.393 274.238 576.831 275.304 575.992C276.371 575.152 277.212 574.062 277.752 572.818C278.027 572.179 278.98 572.688 278.707 573.323C278.104 574.695 277.173 575.898 275.997 576.828C274.82 577.758 273.434 578.386 271.958 578.658C271.821 578.695 271.675 578.679 271.55 578.612C271.424 578.546 271.329 578.435 271.283 578.3C271.242 578.164 271.256 578.016 271.323 577.89C271.39 577.764 271.504 577.669 271.641 577.626Z" fill="white"/>
<path d="M300.894 530.227C281.215 510.886 272.903 490.708 277.49 473.411C283.376 451.214 309.524 435.867 349.23 431.305L349.377 432.578C310.224 437.077 284.474 452.079 278.731 473.739C274.267 490.573 282.458 510.31 301.795 529.315L300.894 530.227Z" fill="#F0F0F0"/>
<path d="M490.766 598.883C466.205 598.883 439.515 595.239 413.004 588.232C380.221 579.567 350.161 566.488 326.076 550.409L326.789 549.344C350.758 565.345 380.685 578.364 413.333 586.993C442.837 594.792 472.562 598.405 499.283 597.451L499.33 598.731C496.508 598.833 493.653 598.883 490.766 598.883Z" fill="#F0F0F0"/>
<path d="M527.973 586.289L527.562 585.075C549.528 577.66 563.267 565.716 567.294 550.532C572.412 531.229 561.293 508.83 535.983 487.46C510.545 465.981 473.862 448.159 432.691 437.278L433.02 436.039C474.371 446.968 511.232 464.883 536.812 486.482C562.521 508.189 573.787 531.052 568.535 550.86C564.393 566.479 550.367 578.73 527.973 586.289Z" fill="#F0F0F0"/>
<path d="M345.408 599.416C297.147 578.046 259.959 550.322 240.693 521.35L241.763 520.641C260.895 549.413 297.888 576.972 345.928 598.244L345.408 599.416Z" fill="#F0F0F0"/>
<path d="M515.091 636.436C510.113 636.436 505.05 636.325 499.902 636.103L499.958 634.823C538.375 636.484 572.271 631.894 597.988 621.547L598.468 622.736C576.034 631.76 547.441 636.436 515.091 636.436Z" fill="#F0F0F0"/>
<path d="M487.088 432.446C479.112 429.854 470.907 427.439 462.702 425.271C415.487 412.792 369.074 408.361 328.479 412.46L328.35 411.185C369.096 407.072 415.668 411.514 463.03 424.032C471.258 426.207 479.486 428.628 487.486 431.228L487.088 432.446Z" fill="#F0F0F0"/>
<path d="M270.732 532.149C251.053 512.808 242.741 492.63 247.328 475.333C253.214 453.136 279.362 437.789 319.068 433.227L319.215 434.5C280.061 438.998 254.312 454.001 248.569 475.661C244.105 492.494 252.296 512.231 271.633 531.236L270.732 532.149Z" fill="#F0F0F0"/>
<path d="M460.606 600.805C436.045 600.805 409.355 597.161 382.844 590.154C350.06 581.489 320.001 568.41 295.916 552.331L296.629 551.266C320.598 567.267 350.524 580.286 383.173 588.915C412.676 596.713 442.401 600.327 469.123 599.373L469.17 600.653C466.348 600.755 463.493 600.805 460.606 600.805Z" fill="#F0F0F0"/>
<path d="M516.95 592.742L516.538 591.528C538.505 584.114 552.244 572.169 556.27 556.985C561.389 537.683 550.269 515.283 524.96 493.913C499.522 472.434 462.839 454.613 421.668 443.731L421.996 442.492C463.347 453.422 500.208 471.336 525.788 492.935C551.498 514.642 562.764 537.505 557.511 557.313C553.37 572.932 539.343 585.183 516.95 592.742Z" fill="#F0F0F0"/>
<path d="M484.929 626.413C479.951 626.413 474.888 626.302 469.74 626.08L469.795 624.8C508.213 626.46 542.109 621.87 567.826 611.523L568.306 612.712C545.872 621.737 517.279 626.413 484.929 626.413Z" fill="#F0F0F0"/>
<path d="M456.928 434.368C448.951 431.776 440.747 429.361 432.542 427.193C385.327 414.714 338.914 410.283 298.319 414.382L298.189 413.107C338.936 408.994 385.508 413.436 432.87 425.954C441.098 428.129 449.326 430.55 457.325 433.15L456.928 434.368Z" fill="#F0F0F0"/>
<path d="M329.422 529.516C326.785 529.519 324.256 530.566 322.391 532.428C320.527 534.289 319.478 536.814 319.475 539.446C315.693 567.246 314.43 595.33 315.701 623.356C315.777 625.146 315.86 626.783 315.957 628.362C316.098 630.97 316.278 633.723 316.49 636.546C316.612 638.211 316.74 639.882 316.881 641.547C317.117 644.258 317.375 647.014 317.651 649.736C317.824 651.399 318.003 653.071 318.195 654.735C318.564 658.004 318.982 661.355 319.472 664.98C319.467 667.62 320.512 670.153 322.378 672.024C324.244 673.894 326.778 674.948 329.422 674.954H496.274C498.911 674.951 501.44 673.904 503.305 672.042C505.169 670.18 506.218 667.656 506.221 665.023L506.229 664.954C506.972 661.574 507.664 658.129 508.287 654.714C508.619 652.914 508.907 651.279 509.165 649.716C509.633 646.871 510.049 644.116 510.402 641.53C510.643 639.794 510.861 638.113 511.049 636.531C511.36 633.943 511.641 631.267 511.908 628.352C512.055 626.767 512.189 625.13 512.319 623.348V623.348C514.359 595.256 512.307 567.018 506.229 539.515L506.221 539.446C506.218 536.814 505.169 534.289 503.305 532.428C501.44 530.566 498.911 529.519 496.274 529.516L329.422 529.516Z" fill="#305344"/>
<path d="M419.325 572.037C383.172 572.037 344.863 568.757 294.725 562.196H294.72C292.12 562.192 289.614 561.231 287.681 559.496C285.748 557.761 284.524 555.375 284.244 552.795C284.198 552.408 284.176 552.017 284.178 551.627V521.514C284.177 521.45 284.18 521.385 284.187 521.321C284.243 518.554 285.382 515.92 287.359 513.98C289.336 512.04 291.995 510.95 294.767 510.942C381.996 499.101 434.984 499.103 530.967 510.945H530.971C533.741 510.963 536.395 512.062 538.364 514.008C540.333 515.953 541.462 518.59 541.51 521.356C541.515 521.408 541.517 521.461 541.516 521.514V551.627C541.517 552.018 541.495 552.41 541.449 552.799C541.165 555.385 539.934 557.776 537.992 559.511C536.049 561.246 533.533 562.203 530.927 562.198C489.458 568.756 455.469 572.037 419.325 572.037Z" fill="#F9D126"/>
<path d="M425.124 592.949H403.189C400.397 592.945 397.72 591.837 395.746 589.866C393.772 587.895 392.661 585.223 392.658 582.435V502.873C392.661 500.085 393.772 497.413 395.746 495.442C397.72 493.471 400.397 492.363 403.189 492.359H425.124C427.916 492.363 430.593 493.471 432.567 495.442C434.541 497.413 435.652 500.085 435.655 502.873V582.435C435.652 585.223 434.541 587.895 432.567 589.866C430.593 591.837 427.916 592.946 425.124 592.949Z" fill="#EA5455"/>
<path d="M474.926 477.133C474.767 475.641 474.487 474.165 474.09 472.718C473.66 471.269 473.117 469.856 472.464 468.492C470.124 463.479 466.177 459.388 461.247 456.864C455.129 453.857 448.129 453.611 441.551 455.06C436.021 456.297 430.828 458.724 426.335 462.172C424.006 463.925 421.877 465.928 419.989 468.148C418.04 470.483 414.414 476.898 414.153 477.492C412.102 472.845 409.161 468.644 405.494 465.126C401.231 461.086 396.143 458.016 390.579 456.127C387.621 455.132 384.55 454.509 381.438 454.272C378.145 453.998 374.829 454.287 371.632 455.126C365.891 456.731 360.925 460.355 357.651 465.33C354.53 469.953 352.998 475.463 353.284 481.03C353.442 483.841 354.049 486.609 355.082 489.229C355.636 490.647 356.293 492.022 357.048 493.345C357.829 494.651 358.702 495.9 359.661 497.083C363.423 501.692 368.49 505.061 374.201 506.749C380.297 508.63 386.764 508.692 393.033 507.808C399.471 506.901 405.667 504.821 411.731 502.542C412.54 502.238 413.345 501.925 414.152 501.616C419.542 503.686 424.978 505.683 430.621 506.95C436.969 508.481 443.557 508.744 450.007 507.726C456.019 506.741 461.609 504.015 466.083 499.886C470.223 495.997 473.12 490.974 474.412 485.447C475.049 482.724 475.223 479.913 474.926 477.133ZM391.359 501.619C387.879 502.064 384.359 502.084 380.874 501.68C378.377 501.319 375.93 500.668 373.583 499.743C368.052 497.443 363.642 493.072 361.299 487.566C360.598 485.83 360.1 484.02 359.812 482.17C359.628 480.525 359.627 478.865 359.811 477.219C360.084 475.488 360.551 473.794 361.205 472.167C361.911 470.586 362.789 469.085 363.822 467.694C364.824 466.449 365.955 465.314 367.198 464.308C368.376 463.438 369.644 462.696 370.98 462.096C372.575 461.474 374.234 461.031 375.926 460.775C378.219 460.521 380.534 460.539 382.822 460.829C385.545 461.248 388.211 461.982 390.765 463.014C393.481 464.191 396.048 465.686 398.413 467.466C400.6 469.196 402.583 471.17 404.323 473.349C406.046 475.636 407.49 478.12 408.626 480.747C409.73 483.488 410.506 486.35 410.937 489.273L410.942 489.316C410.774 490.785 410.69 492.262 410.69 493.74C410.691 494.31 410.716 494.878 410.745 495.447C410.474 495.707 410.248 496.011 410.076 496.345C405.606 498.096 401.024 499.547 396.36 500.688C394.707 501.069 393.04 501.379 391.359 501.619ZM468.506 482.17C468.218 484.02 467.719 485.83 467.019 487.566C464.687 493.08 460.274 497.454 454.735 499.743C452.388 500.668 449.941 501.319 447.444 501.68C443.953 502.085 440.426 502.064 436.94 501.617C430.749 500.733 424.776 498.782 418.934 496.604C418.693 496.514 418.455 496.42 418.215 496.329C418.052 496 417.835 495.7 417.575 495.441C417.678 493.378 417.614 491.31 417.383 489.257C417.815 486.34 418.589 483.483 419.692 480.747C420.828 478.12 422.272 475.637 423.995 473.349C425.734 471.17 427.717 469.197 429.905 467.466C432.269 465.686 434.837 464.191 437.553 463.014C440.107 461.982 442.773 461.248 445.496 460.829C447.784 460.539 450.099 460.521 452.391 460.775C454.084 461.031 455.743 461.474 457.338 462.096C458.674 462.697 459.942 463.438 461.12 464.308C462.363 465.314 463.494 466.449 464.496 467.694C465.529 469.086 466.406 470.586 467.113 472.167C467.767 473.794 468.234 475.488 468.507 477.219C468.691 478.865 468.69 480.525 468.506 482.17Z" fill="#EA5455"/>
<path d="M347.39 596.47C349.516 596.47 351.24 594.749 351.24 592.625C351.24 590.502 349.516 588.781 347.39 588.781C345.263 588.781 343.539 590.502 343.539 592.625C343.539 594.749 345.263 596.47 347.39 596.47Z" fill="#F9D126"/>
<path d="M374.985 586.86C377.112 586.86 378.836 585.139 378.836 583.016C378.836 580.893 377.112 579.172 374.985 579.172C372.859 579.172 371.135 580.893 371.135 583.016C371.135 585.139 372.859 586.86 374.985 586.86Z" fill="#F9D126"/>
<path d="M362.792 616.97C364.918 616.97 366.642 615.248 366.642 613.125C366.642 611.002 364.918 609.281 362.792 609.281C360.665 609.281 358.941 611.002 358.941 613.125C358.941 615.248 360.665 616.97 362.792 616.97Z" fill="#F9D126"/>
<path d="M477.022 596.47C479.149 596.47 480.873 594.749 480.873 592.625C480.873 590.502 479.149 588.781 477.022 588.781C474.896 588.781 473.172 590.502 473.172 592.625C473.172 594.749 474.896 596.47 477.022 596.47Z" fill="#F9D126"/>
<path d="M449.427 586.86C451.553 586.86 453.277 585.139 453.277 583.016C453.277 580.893 451.553 579.172 449.427 579.172C447.3 579.172 445.576 580.893 445.576 583.016C445.576 585.139 447.3 586.86 449.427 586.86Z" fill="#F9D126"/>
<path d="M461.62 616.97C463.747 616.97 465.47 615.248 465.47 613.125C465.47 611.002 463.747 609.281 461.62 609.281C459.493 609.281 457.77 611.002 457.77 613.125C457.77 615.248 459.493 616.97 461.62 616.97Z" fill="#F9D126"/>
<path d="M480.229 663.743C482.356 663.743 484.08 662.022 484.08 659.899C484.08 657.776 482.356 656.055 480.229 656.055C478.103 656.055 476.379 657.776 476.379 659.899C476.379 662.022 478.103 663.743 480.229 663.743Z" fill="#F9D126"/>
<path d="M489.856 636.196C491.983 636.196 493.707 634.475 493.707 632.352C493.707 630.229 491.983 628.508 489.856 628.508C487.73 628.508 486.006 630.229 486.006 632.352C486.006 634.475 487.73 636.196 489.856 636.196Z" fill="#F9D126"/>
<path d="M459.694 648.368C461.821 648.368 463.545 646.647 463.545 644.524C463.545 642.401 461.821 640.68 459.694 640.68C457.568 640.68 455.844 642.401 455.844 644.524C455.844 646.647 457.568 648.368 459.694 648.368Z" fill="#F9D126"/>
<path d="M369.85 663.743C371.977 663.743 373.701 662.022 373.701 659.899C373.701 657.776 371.977 656.055 369.85 656.055C367.724 656.055 366 657.776 366 659.899C366 662.022 367.724 663.743 369.85 663.743Z" fill="#F9D126"/>
<path d="M379.477 636.196C381.604 636.196 383.328 634.475 383.328 632.352C383.328 630.229 381.604 628.508 379.477 628.508C377.351 628.508 375.627 630.229 375.627 632.352C375.627 634.475 377.351 636.196 379.477 636.196Z" fill="#F9D126"/>
<path d="M349.315 648.368C351.442 648.368 353.166 646.647 353.166 644.524C353.166 642.401 351.442 640.68 349.315 640.68C347.189 640.68 345.465 642.401 345.465 644.524C345.465 646.647 347.189 648.368 349.315 648.368Z" fill="#F9D126"/>
<path d="M459.946 392.242C461.404 392.85 462.994 393.072 464.563 392.888C466.133 392.704 467.628 392.12 468.905 391.191C472.162 388.767 473.382 384.534 474.405 380.61L477.425 369L472.324 372.092C468.655 374.315 464.902 376.612 462.254 379.988C459.606 383.363 458.266 388.093 460.011 392.01" fill="#F2F2F2"/>
<path d="M323.509 491.415C324.494 490.181 325.144 488.715 325.396 487.158C325.649 485.601 325.495 484.005 324.95 482.524C323.507 478.734 319.764 476.402 316.263 474.346L305.906 468.266L307.488 474.011C308.625 478.142 309.81 482.375 312.336 485.842C314.862 489.31 319.052 491.891 323.303 491.288" fill="#F2F2F2"/>
<path d="M566.73 670.172C567.714 668.939 568.364 667.473 568.617 665.916C568.869 664.359 568.716 662.763 568.171 661.282C566.727 657.491 562.984 655.16 559.484 653.103L549.127 647.023L550.709 652.769C551.845 656.9 553.03 661.133 555.557 664.6C558.083 668.067 562.272 670.649 566.524 670.046" fill="#F2F2F2"/>
<path d="M371.134 443.345C373.969 443.345 376.268 441.05 376.268 438.219C376.268 435.389 373.969 433.094 371.134 433.094C368.299 433.094 366 435.389 366 438.219C366 441.05 368.299 443.345 371.134 443.345Z" fill="#039F00"/>
<path d="M234.444 594.548C237.28 594.548 239.578 592.253 239.578 589.422C239.578 586.592 237.28 584.297 234.444 584.297C231.609 584.297 229.311 586.592 229.311 589.422C229.311 592.253 231.609 594.548 234.444 594.548Z" fill="#FD6584"/>
<path d="M587.401 552.907C590.237 552.907 592.535 550.613 592.535 547.782C592.535 544.951 590.237 542.656 587.401 542.656C584.566 542.656 582.268 544.951 582.268 547.782C582.268 550.613 584.566 552.907 587.401 552.907Z" fill="#28C76F"/>
<path d="M229.31 465.767C232.145 465.767 234.444 463.472 234.444 460.641C234.444 457.81 232.145 455.516 229.31 455.516C226.474 455.516 224.176 457.81 224.176 460.641C224.176 463.472 226.474 465.767 229.31 465.767Z" fill="#E6E6E6"/>
<path d="M535.722 611.845C538.557 611.845 540.856 609.55 540.856 606.719C540.856 603.889 538.557 601.594 535.722 601.594C532.886 601.594 530.588 603.889 530.588 606.719C530.588 609.55 532.886 611.845 535.722 611.845Z" fill="#E6E6E6"/>
<path d="M540.946 456.868C543.782 456.868 546.08 454.574 546.08 451.743C546.08 448.912 543.782 446.617 540.946 446.617C538.111 446.617 535.812 448.912 535.812 451.743C535.812 454.574 538.111 456.868 540.946 456.868Z" fill="#A9D5BC"/>
<path d="M332.134 537.674C331.69 538.375 330.614 538.273 330.01 537.835C329.171 537.227 329.443 536.055 330.02 535.363C331.856 533.163 334.892 535.486 335.302 537.671C335.454 538.736 335.29 539.823 334.829 540.796C334.369 541.769 333.632 542.586 332.711 543.145C330.617 544.384 327.896 543.762 326.095 542.279C322.339 539.185 323.361 532.991 327.534 530.753C330.197 529.324 333.563 529.951 336.187 531.148C339.14 532.495 341.679 534.559 344.409 536.28C350.401 540.025 357.179 542.335 364.213 543.032C365.445 543.157 365.436 541.234 364.213 541.109C360.315 540.707 356.488 539.787 352.834 538.374C349.218 536.911 345.787 535.03 342.609 532.771C339.394 530.571 336.035 528.433 332.056 528.07C330.45 527.882 328.823 528.123 327.341 528.767C325.858 529.411 324.573 530.435 323.616 531.736C322.764 532.9 322.194 534.245 321.951 535.665C321.707 537.086 321.796 538.543 322.211 539.924C322.711 541.367 323.585 542.653 324.744 543.649C325.904 544.646 327.307 545.318 328.811 545.597C330.259 545.87 331.756 545.686 333.094 545.069C334.432 544.452 335.543 543.433 336.274 542.155C337.738 539.626 337.69 536.229 335.478 534.133C334.844 533.489 334.05 533.025 333.178 532.788C332.306 532.552 331.386 532.55 330.513 532.784C329.708 533.056 329 533.555 328.476 534.222C327.951 534.889 327.632 535.693 327.559 536.538C327.345 539.82 332.012 541.462 333.796 538.645C334.46 537.596 332.795 536.63 332.134 537.674L332.134 537.674Z" fill="#3F3D56"/>
<path d="M496.771 537.674C497.215 538.375 498.291 538.273 498.895 537.835C499.734 537.227 499.462 536.055 498.885 535.363C497.049 533.163 494.013 535.486 493.603 537.671C493.451 538.736 493.615 539.823 494.076 540.796C494.536 541.769 495.273 542.586 496.194 543.145C498.288 544.384 501.009 543.762 502.81 542.279C506.566 539.185 505.544 532.991 501.371 530.753C498.708 529.324 495.342 529.951 492.718 531.148C489.766 532.495 487.226 534.559 484.496 536.28C478.504 540.025 471.726 542.335 464.692 543.032C463.46 543.157 463.469 541.234 464.692 541.109C468.59 540.707 472.417 539.787 476.071 538.374C479.687 536.911 483.118 535.03 486.296 532.771C489.511 530.571 492.87 528.433 496.85 528.07C498.455 527.882 500.082 528.123 501.564 528.767C503.047 529.411 504.332 530.435 505.289 531.736C506.141 532.9 506.711 534.245 506.954 535.665C507.198 537.086 507.109 538.543 506.694 539.924C506.194 541.367 505.32 542.653 504.161 543.649C503.001 544.646 501.598 545.318 500.094 545.597C498.646 545.87 497.149 545.686 495.811 545.069C494.473 544.452 493.362 543.433 492.632 542.155C491.167 539.626 491.215 536.229 493.427 534.133C494.061 533.489 494.855 533.025 495.727 532.788C496.6 532.552 497.519 532.55 498.393 532.784C499.197 533.056 499.905 533.555 500.43 534.222C500.954 534.889 501.273 535.693 501.347 536.538C501.56 539.82 496.893 541.462 495.109 538.645C494.445 537.596 496.11 536.63 496.771 537.674L496.771 537.674Z" fill="#3F3D56"/>
<path d="M265.136 392.296L262.593 395.481L253.6 390.17L256.142 386.984L265.136 392.296Z" fill="#FFED9F"/>
<path d="M278.817 405.984L281.063 409.331L271.615 414.023L269.369 410.677L278.817 405.984Z" fill="#FBE897"/>
<path d="M288.596 391.438L293.084 391.596L292.637 400.972L288.148 400.814L288.596 391.438Z" fill="#FFE89F"/>
<path d="M582.798 588.35L580.255 591.536L571.262 586.224L573.805 583.039L582.798 588.35Z" fill="#E4E4E4"/>
<path d="M592.182 602.039L594.428 605.385L584.98 610.077L582.734 606.731L592.182 602.039Z" fill="#E4E4E4"/>
<path d="M601.963 587.492L606.451 587.651L606.004 597.027L601.516 596.869L601.963 587.492Z" fill="#E4E4E4"/>
<path fill-rule="evenodd" clip-rule="evenodd" d="M377.928 630.73C377.928 610.954 393.96 594.922 413.736 594.922C433.512 594.922 449.545 610.954 449.545 630.73C449.545 650.506 433.512 666.539 413.736 666.539C393.96 666.539 377.928 650.506 377.928 630.73ZM400.715 611.198C399.852 611.198 399.024 611.541 398.413 612.152C397.803 612.762 397.46 613.59 397.46 614.454C397.46 615.317 397.803 616.145 398.413 616.756C399.024 617.366 399.852 617.709 400.715 617.709H410.481C411.588 617.709 413.32 618.067 414.68 619.05C415.299 619.493 415.891 620.095 416.324 620.964H400.705C399.842 620.964 399.014 621.307 398.403 621.918C397.793 622.528 397.45 623.356 397.45 624.22C397.45 625.083 397.793 625.911 398.403 626.522C399.014 627.132 399.842 627.475 400.705 627.475H416.324C415.945 628.239 415.381 628.897 414.684 629.389C413.445 630.239 411.983 630.705 410.481 630.73H400.705C400.03 630.73 399.372 630.939 398.822 631.329C398.271 631.72 397.855 632.271 397.632 632.908C397.409 633.544 397.389 634.235 397.575 634.883C397.761 635.532 398.144 636.107 398.671 636.528L414.957 649.549C415.291 649.817 415.674 650.015 416.085 650.134C416.495 650.254 416.926 650.291 417.351 650.243C417.776 650.196 418.187 650.066 418.562 649.86C418.936 649.653 419.267 649.375 419.534 649.042C419.801 648.708 420 648.324 420.119 647.914C420.238 647.503 420.275 647.073 420.228 646.648C420.181 646.223 420.05 645.811 419.844 645.437C419.638 645.062 419.36 644.732 419.026 644.465L409.986 637.241H410.474C412.626 637.241 415.777 636.622 418.482 634.673C420.892 632.947 422.564 630.377 423.164 627.475H426.757C427.621 627.475 428.449 627.132 429.059 626.522C429.67 625.911 430.013 625.083 430.013 624.22C430.013 623.356 429.67 622.528 429.059 621.918C428.449 621.307 427.621 620.964 426.757 620.964H423.164C422.92 619.829 422.518 618.733 421.969 617.709H426.757C427.621 617.709 428.449 617.366 429.059 616.756C429.67 616.145 430.013 615.317 430.013 614.454C430.013 613.59 429.67 612.762 429.059 612.152C428.449 611.541 427.621 611.198 426.757 611.198H400.715Z" fill="#3FE97C"/>
</g>
</g>
<defs>
<filter id="filter0_d_6790_206831" x="208" y="369" width="402.451" height="310" filterUnits="userSpaceOnUse" color-interpolation-filters="sRGB">
<feFlood flood-opacity="0" result="BackgroundImageFix"/>
<feColorMatrix in="SourceAlpha" type="matrix" values="0 0 0 0 0 0 0 0 0 0 0 0 0 0 0 0 0 0 127 0" result="hardAlpha"/>
<feOffset dx="4" dy="4"/>
<feComposite in2="hardAlpha" operator="out"/>
<feColorMatrix type="matrix" values="0 0 0 0 0.00731134 0 0 0 0 0.3875 0 0 0 0 0 0 0 0 0.4 0"/>
<feBlend mode="normal" in2="BackgroundImageFix" result="effect1_dropShadow_6790_206831"/>
<feBlend mode="normal" in="SourceGraphic" in2="effect1_dropShadow_6790_206831" result="shape"/>
</filter>
<linearGradient id="paint0_linear_6790_206831" x1="2676.54" y1="-2206.16" x2="3100.36" y2="-1726.7" gradientUnits="userSpaceOnUse">
<stop stop-color="#89FFD1"/>
<stop offset="1" stop-color="#BFFF9E"/>
</linearGradient>
<linearGradient id="paint1_linear_6790_206831" x1="2676.54" y1="-2206.16" x2="3100.36" y2="-1726.71" gradientUnits="userSpaceOnUse">
<stop stop-color="#89FFD1"/>
<stop offset="1" stop-color="#BFFF9E"/>
</linearGradient>
</defs>
</svg>
