<!-- width="375" height="1025" -->

<svg preserveAspectRatio="none" viewBox="0 0 375 1025" fill="none" xmlns="http://www.w3.org/2000/svg">
<path d="M755 17L754.895 16.5112L755.5 16.3808V17L755.5 909.846V910.326L755.02 910.345L755 909.846C755.02 910.345 755.019 910.345 755.017 910.346L755.009 910.346L754.975 910.347L754.842 910.352C754.725 910.357 754.549 910.364 754.316 910.373C753.85 910.39 753.156 910.416 752.244 910.448C750.42 910.513 747.724 910.604 744.234 910.709C737.255 910.921 727.102 911.192 714.405 911.43C689.01 911.905 653.437 912.247 612.725 911.714C531.306 910.647 429.306 906.08 347.042 892.07C282.59 881.093 219.965 887.983 149.403 895.745C130.039 897.875 110.077 900.071 89.3154 901.982C-7.07147 910.852 -120.552 913.542 -271.125 874.811C-421.476 836.136 -524.464 873.021 -589.863 919.536C-622.57 942.799 -645.886 968.478 -661.024 988.341C-668.593 998.272 -674.117 1006.75 -677.747 1012.74C-679.562 1015.73 -680.903 1018.11 -681.791 1019.73C-682.234 1020.54 -682.564 1021.17 -682.783 1021.59C-682.892 1021.8 -682.974 1021.96 -683.028 1022.06L-683.088 1022.18L-683.103 1022.21L-683.107 1022.22C-683.107 1022.22 -683.107 1022.22 -683.109 1022.22L-683.108 1022.22L-683.669 1023.35L-684.034 1022.14L-864.479 425.155L-864.574 424.841L-864.323 424.629L-864 425.011C-864.323 424.629 -864.32 424.627 -864.316 424.623L-864.295 424.606L-864.214 424.538L-863.893 424.267C-863.608 424.028 -863.182 423.672 -862.62 423.204C-861.494 422.267 -859.819 420.88 -857.62 419.079C-853.224 415.477 -846.734 410.22 -838.361 403.597C-821.616 390.35 -797.336 371.641 -767.198 349.786C-706.924 306.075 -623.212 249.777 -529.465 199.429C-435.722 149.084 -331.923 104.678 -231.48 84.7696C-131.039 64.8619 -33.897 69.4412 46.4741 117.142C85.0825 140.057 116.965 147.078 146.862 144.759C176.779 142.439 204.755 130.764 235.562 116.183C240.953 113.631 246.429 110.992 252.016 108.299C310.277 80.2132 380.573 46.3267 491.581 46.3267C554.027 46.3267 619.855 38.8738 670.078 31.4188C695.188 27.6915 716.394 23.9643 731.322 21.169C738.785 19.7713 744.68 18.6067 748.707 17.7916C750.721 17.384 752.269 17.0638 753.312 16.8456C753.834 16.7364 754.23 16.6528 754.495 16.5965L754.795 16.5327L754.87 16.5166L754.889 16.5125L754.893 16.5115C754.894 16.5113 754.895 16.5112 755 17Z" fill="url(#paint0_linear_6772_185013)" stroke="#4AFF85"/>
<path opacity="0.6" d="M-444 1.33602L-444.032 0.837061L-444.505 0.867646L-444.5 1.34085L-435.32 950.005L-435.312 950.768L-434.616 950.456L-434.82 950C-434.616 950.456 -434.615 950.456 -434.613 950.455L-434.603 950.451L-434.562 950.432L-434.4 950.361L-434.186 950.266C-434.068 950.213 -433.925 950.15 -433.758 950.077C-433.19 949.826 -432.345 949.455 -431.236 948.973C-429.018 948.009 -425.745 946.6 -421.527 944.822C-413.091 941.267 -400.874 936.239 -385.754 930.343C-355.513 918.552 -313.664 903.297 -267.226 889.438C-220.787 875.579 -169.769 863.119 -121.189 856.916C-72.6011 850.711 -26.4973 850.771 10.1374 861.913C31.1221 868.295 51.2338 875.22 70.9976 882.025C85.8452 887.138 100.496 892.183 115.174 896.879C149.353 907.815 183.573 916.824 220.429 920.264C294.163 927.146 378.367 911.732 493.873 845.047C609.108 778.518 719.009 804.803 800.156 847.765C840.73 869.246 874.101 894.89 897.329 915.166C908.943 925.303 918.019 934.097 924.191 940.356C927.277 943.485 929.637 945.98 931.224 947.692C932.018 948.548 932.619 949.208 933.021 949.654C933.222 949.877 933.373 950.046 933.474 950.16L933.587 950.288L933.615 950.32L933.622 950.327C933.624 950.329 933.624 950.33 934 950L933.624 950.33L934.5 951.328V950L934.5 153.549V153.145L934.105 153.061L934 153.549C934.105 153.061 934.103 153.06 934.099 153.059L934.082 153.056L934.014 153.041L933.745 152.984C933.507 152.933 933.15 152.857 932.679 152.757C931.738 152.558 930.338 152.263 928.505 151.88C924.838 151.114 919.436 149.997 912.498 148.593C898.622 145.784 878.598 141.823 854.005 137.219C804.82 128.01 737.36 116.225 664.259 105.917C591.158 95.6097 512.411 86.7792 440.653 83.4824C368.909 80.1861 304.104 82.4188 258.915 94.2628C214.563 105.887 173.141 120.053 134.659 133.212L132.631 133.906C93.5696 147.263 57.5675 159.509 24.5931 166.928C-8.38107 174.348 -38.2809 176.929 -65.1408 170.991C-91.9834 165.057 -115.828 150.606 -136.688 123.885C-189.82 55.8232 -266.678 25.0697 -330.209 11.3261C-361.978 4.45336 -390.428 1.83105 -410.937 0.926787C-421.192 0.474638 -429.462 0.451988 -435.17 0.542474C-438.024 0.587717 -440.238 0.661246 -441.739 0.723522C-442.49 0.754661 -443.062 0.782986 -443.447 0.803556C-443.64 0.813841 -443.786 0.822188 -443.884 0.827978L-443.994 0.834668L-444.022 0.836431L-444.03 0.836891C-444.031 0.837 -444.032 0.837061 -444 1.33602Z" fill="url(#paint1_linear_6772_185013)" stroke="#4AFF85"/>
<defs>
<linearGradient id="paint0_linear_6772_185013" x1="158.154" y1="14.2564" x2="158.154" y2="1070.65" gradientUnits="userSpaceOnUse">
<stop stop-color="#BAFFD9" stop-opacity="0.31"/>
<stop offset="0.546875" stop-color="#C8FFE1"/>
<stop offset="1" stop-color="#ECFFE9"/>
</linearGradient>
<linearGradient id="paint1_linear_6772_185013" x1="276.431" y1="-122.595" x2="276.431" y2="1101.38" gradientUnits="userSpaceOnUse">
<stop stop-color="#BAFFD9" stop-opacity="0.31"/>
<stop offset="0.546875" stop-color="#BAFFD9"/>
<stop offset="1" stop-color="#ECFFE9"/>
</linearGradient>
</defs>
</svg>
