<!-- width="834" height="855" -->

<svg  preserveAspectRatio="none" viewBox="0 0 834 855" fill="none" xmlns="http://www.w3.org/2000/svg">
<path d="M985 2L984.913 1.50759L985.5 1.40419V2L985.5 757.143V757.627L985.016 757.643L985 757.143C985.016 757.643 985.015 757.643 985.013 757.643L985.005 757.643L984.97 757.644L984.833 757.649C984.711 757.653 984.529 757.659 984.288 757.666C983.806 757.681 983.089 757.702 982.146 757.73C980.261 757.784 977.473 757.861 973.865 757.951C966.65 758.13 956.152 758.359 943.024 758.56C916.767 758.962 879.987 759.251 837.893 758.8C753.71 757.898 648.251 754.035 563.201 742.187C520.757 736.274 480.464 738.949 438.617 744.888C417.75 747.849 396.503 751.621 374.408 755.543L374.223 755.576C352.065 759.51 329.055 763.592 304.74 767.154C207.46 781.407 89.2952 787.33 -79.2744 742.175C-247.658 697.07 -353.333 724.645 -416.893 763.422C-448.681 782.816 -469.955 805.022 -483.28 822.375C-489.942 831.052 -494.617 838.515 -497.625 843.805C-499.129 846.45 -500.216 848.552 -500.926 849.991C-501.281 850.71 -501.542 851.264 -501.714 851.637C-501.8 851.823 -501.863 851.964 -501.905 852.058L-501.952 852.164L-501.963 852.19L-501.966 852.196C-501.966 852.197 -501.966 852.197 -502.011 852.178L-501.966 852.198L-502.461 853.347L-502.895 852.173L-689.469 347.257L-689.603 346.893L-689.284 346.672L-689 347.084C-689.284 346.672 -689.282 346.671 -689.277 346.667L-689.256 346.653L-689.172 346.595L-688.84 346.367C-688.545 346.165 -688.105 345.864 -687.523 345.467C-686.359 344.675 -684.627 343.502 -682.354 341.978C-677.808 338.932 -671.098 334.486 -662.441 328.884C-645.127 317.681 -620.023 301.857 -588.861 283.373C-526.54 246.404 -439.985 198.789 -343.057 156.208C-246.131 113.628 -138.814 76.0744 -34.9718 59.2388C68.8653 42.4041 169.279 46.2775 252.359 86.6113C292.286 105.995 325.271 111.941 356.211 109.978C387.164 108.014 416.104 98.1339 447.957 85.802C453.531 83.644 459.193 81.4114 464.969 79.1337C525.211 55.3797 597.877 26.7265 712.633 26.7265C777.207 26.7265 845.277 20.4224 897.208 14.1169C923.173 10.9643 945.101 7.81176 960.537 5.44741C968.255 4.26525 974.349 3.28015 978.515 2.59067C980.597 2.24592 982.197 1.97508 983.276 1.79047C983.816 1.69816 984.225 1.6274 984.5 1.57974L984.81 1.52577L984.887 1.51213L984.907 1.50871L984.912 1.50786C984.913 1.50768 984.913 1.50759 985 2Z" fill="url(#paint0_linear_6758_230739)" stroke="#4AFF85"/>
<defs>
<linearGradient id="paint0_linear_6758_230739" x1="367.878" y1="-0.320441" x2="367.878" y2="893.149" gradientUnits="userSpaceOnUse">
<stop stop-color="#BAFFD9" stop-opacity="0.31"/>
<stop offset="0.546875" stop-color="#C8FFE1"/>
<stop offset="1" stop-color="#ECFFE9"/>
</linearGradient>
</defs>
</svg>
