<svg width="42" height="31" viewBox="0 0 42 31" fill="none" xmlns="http://www.w3.org/2000/svg">
<path d="M4.2778 4.485C7.14225 1.63312 11.4767 0.1875 17.1587 0.1875H19.2003V5.47312L17.5588 5.775C14.7618 6.28875 12.816 7.29937 11.7748 8.7825C11.2315 9.58149 10.9234 10.4963 10.8805 11.4375H17.1587C17.7002 11.4375 18.2195 11.635 18.6023 11.9867C18.9852 12.3383 19.2003 12.8152 19.2003 13.3125V26.4375C19.2003 28.5056 17.369 30.1875 15.117 30.1875H2.867C2.32552 30.1875 1.80621 29.99 1.42333 29.6383C1.04044 29.2867 0.825338 28.8098 0.825338 28.3125V18.9375L0.831463 13.4644C0.813088 13.2562 0.425171 8.325 4.2778 4.485ZM37.5753 30.1875H25.3253C24.7839 30.1875 24.2645 29.99 23.8817 29.6383C23.4988 29.2867 23.2837 28.8098 23.2837 28.3125V18.9375L23.2898 13.4644C23.2714 13.2562 22.8835 8.325 26.7361 4.485C29.6006 1.63312 33.935 0.1875 39.617 0.1875H41.6587V5.47312L40.0172 5.775C37.2201 6.28875 35.2744 7.29937 34.2331 8.7825C33.6898 9.58149 33.3817 10.4963 33.3389 11.4375H39.617C40.1585 11.4375 40.6778 11.635 41.0607 11.9867C41.4436 12.3383 41.6587 12.8152 41.6587 13.3125V26.4375C41.6587 28.5056 39.8273 30.1875 37.5753 30.1875Z" fill="#0169B6"/>
</svg>
