<svg width="28" height="24" viewBox="0 0 28 24" fill="none" xmlns="http://www.w3.org/2000/svg">
<path d="M28 16V23C28 23.2652 27.8946 23.5196 27.7071 23.7071C27.5196 23.8946 27.2652 24 27 24H1C0.734784 24 0.48043 23.8946 0.292893 23.7071C0.105357 23.5196 0 23.2652 0 23V16C0 15.7348 0.105357 15.4804 0.292893 15.2929C0.48043 15.1054 0.734784 15 1 15H5C5.26522 15 5.51957 15.1054 5.70711 15.2929C5.89464 15.4804 6 15.7348 6 16C6 16.2652 5.89464 16.5196 5.70711 16.7071C5.51957 16.8946 5.26522 17 5 17H2V22H26V17H23C22.7348 17 22.4804 16.8946 22.2929 16.7071C22.1054 16.5196 22 16.2652 22 16C22 15.7348 22.1054 15.4804 22.2929 15.2929C22.4804 15.1054 22.7348 15 23 15H27C27.2652 15 27.5196 15.1054 27.7071 15.2929C27.8946 15.4804 28 15.7348 28 16ZM13.29 19.71C13.3795 19.7913 13.4806 19.8587 13.59 19.91C13.7204 19.9635 13.8592 19.9939 14 20C14.1307 19.9984 14.2598 19.9712 14.38 19.92C14.4247 19.8956 14.4681 19.8689 14.51 19.84C14.5803 19.8026 14.6472 19.7591 14.71 19.71L19.71 14.66C19.8026 14.5668 19.8759 14.4562 19.9257 14.3346C19.9756 14.2131 20.001 14.0829 20.0006 13.9515C20.0001 13.8201 19.9738 13.6901 19.923 13.5688C19.8723 13.4476 19.7982 13.3376 19.705 13.245C19.6118 13.1524 19.5012 13.0791 19.3796 13.0293C19.2581 12.9794 19.1279 12.954 18.9965 12.9544C18.8651 12.9549 18.7351 12.9812 18.6138 13.032C18.4926 13.0827 18.3826 13.1568 18.29 13.25L15 16.56V1C15 0.734784 14.8946 0.48043 14.7071 0.292893C14.5196 0.105357 14.2652 0 14 0C13.7348 0 13.4804 0.105357 13.2929 0.292893C13.1054 0.48043 13 0.734784 13 1V16.58L9.71 13.28C9.61704 13.1863 9.50644 13.1119 9.38458 13.0611C9.26272 13.0103 9.13201 12.9842 9 12.9842C8.86799 12.9842 8.73728 13.0103 8.61542 13.0611C8.49356 13.1119 8.38296 13.1863 8.29 13.28C8.10375 13.4674 7.99921 13.7208 7.99921 13.985C7.99921 14.2492 8.10375 14.5026 8.29 14.69L13.29 19.71Z" fill="white"/>
</svg>
