<svg width="120" height="240" viewBox="0 0 120 240" fill="none" xmlns="http://www.w3.org/2000/svg">
<g opacity="0.3">
<path d="M120 0C53.8327 0 0 53.8327 0 120C0 186.167 53.8327 240 120 240C186.167 240 240 186.167 240 120C240 53.8327 186.167 0 120 0ZM202.5 175.385H176.412C175.603 175.383 174.809 175.169 174.11 174.764C173.41 174.359 172.829 173.777 172.425 173.077L163.113 157.108C162.5 156.064 162.322 154.82 162.617 153.646L171.19 119.077C171.362 118.38 171.694 117.734 172.16 117.188C172.626 116.642 173.212 116.212 173.873 115.933L190.085 109.067C190.877 108.731 191.747 108.624 192.597 108.756C193.448 108.889 194.244 109.256 194.896 109.817L218.913 130.483C219.505 130.992 219.958 131.644 220.23 132.377C220.501 133.109 220.582 133.899 220.465 134.671C218.476 148.317 213.709 161.41 206.458 173.14C206.048 173.824 205.468 174.391 204.775 174.784C204.081 175.177 203.297 175.384 202.5 175.385ZM49.9154 109.113L66.1269 115.979C66.7877 116.258 67.3742 116.688 67.8399 117.234C68.3056 117.78 68.6376 118.427 68.8096 119.123L77.3827 153.692C77.6777 154.867 77.4996 156.11 76.8865 157.154L67.575 173.077C67.1708 173.777 66.5898 174.359 65.8902 174.764C65.1906 175.169 64.3969 175.383 63.5885 175.385H37.5C36.711 175.385 35.935 175.183 35.2462 174.799C34.5573 174.414 33.9786 173.859 33.5654 173.187C26.3143 161.456 21.5468 148.363 19.5577 134.717C19.4407 133.945 19.5218 133.155 19.7932 132.423C20.0646 131.69 20.5176 131.039 21.1096 130.529L45.1269 109.863C45.777 109.307 46.5692 108.942 47.4148 108.809C48.2604 108.677 49.1262 108.782 49.9154 109.113ZM198.15 58.7827L187.725 88.425C187.516 89.0308 187.182 89.5863 186.746 90.0561C186.31 90.526 185.781 90.8998 185.192 91.1539L168.127 98.3827C167.344 98.714 166.484 98.8225 165.643 98.6963C164.803 98.5701 164.013 98.214 163.362 97.6673L130.904 70.4423C130.385 70.0132 129.967 69.4759 129.678 68.8679C129.389 68.26 129.236 67.5962 129.231 66.9231V47.55C129.231 46.7909 129.419 46.0437 129.777 45.3745C130.135 44.7053 130.653 44.1347 131.285 43.7135L155.994 27.2481C156.639 26.8177 157.382 26.5566 158.154 26.4891C158.927 26.4215 159.704 26.5496 160.413 26.8615C174.631 33.0627 187.249 42.4228 197.308 54.2308C197.837 54.8481 198.193 55.5942 198.341 56.3935C198.489 57.1928 198.423 58.017 198.15 58.7827ZM84 27.2481L108.715 43.7135C109.347 44.1347 109.865 44.7053 110.223 45.3745C110.581 46.0437 110.769 46.7909 110.769 47.55V66.9231C110.769 67.5973 110.621 68.2633 110.336 68.8743C110.051 69.4853 109.636 70.0264 109.119 70.4596L76.6615 97.6846C76.0102 98.2313 75.2205 98.5874 74.3796 98.7136C73.5387 98.8398 72.6793 98.7313 71.8962 98.4L54.8077 91.1539C54.2155 90.9031 53.6822 90.5313 53.2421 90.0624C52.802 89.5934 52.4647 89.0377 52.2519 88.4308L41.8269 58.7885C41.556 58.02 41.4934 57.1935 41.6454 56.393C41.7974 55.5925 42.1586 54.8465 42.6923 54.2308C52.7567 42.4109 65.3847 33.0425 79.6154 26.8385C80.3225 26.536 81.094 26.4151 81.8597 26.4866C82.6254 26.5582 83.3612 26.8199 84 27.2481ZM93.9865 216.167L82.6038 187.5C82.3436 186.848 82.2353 186.146 82.2873 185.446C82.3393 184.746 82.5501 184.068 82.9038 183.462L91.6558 168.462C92.06 167.761 92.6409 167.18 93.3406 166.775C94.0402 166.37 94.8339 166.156 95.6423 166.154H144.358C145.166 166.156 145.96 166.37 146.659 166.775C147.359 167.18 147.94 167.761 148.344 168.462L157.102 183.462C157.457 184.067 157.668 184.746 157.721 185.445C157.774 186.145 157.667 186.848 157.408 187.5L146.106 216.156C145.829 216.856 145.386 217.479 144.814 217.968C144.241 218.458 143.558 218.8 142.823 218.965C127.826 222.407 112.244 222.407 97.2462 218.965C96.5167 218.798 95.8388 218.456 95.271 217.969C94.7031 217.481 94.2623 216.863 93.9865 216.167Z" fill="#00862B"/>
</g>
</svg>
