<svg width="375" height="809" viewBox="0 0 375 809" fill="none" xmlns="http://www.w3.org/2000/svg">
<path d="M863 20.2142L863.154 19.7387L863.5 19.8509V20.2142L863.5 788.772V789.435L862.863 789.253L863 788.772C862.863 789.253 862.861 789.252 862.859 789.251L862.847 789.248L862.8 789.235L862.613 789.181C862.447 789.134 862.199 789.064 861.87 788.971C861.214 788.785 860.237 788.511 858.957 788.153C856.396 787.438 852.621 786.393 847.764 785.074C838.048 782.434 824.003 778.695 806.686 774.298C772.052 765.504 724.331 754.077 671.984 743.545C619.636 733.013 562.669 723.378 509.54 718.166C456.401 712.953 407.141 712.169 370.19 719.319C359.323 721.422 349.532 723.359 340.597 725.128C288.671 735.406 265.628 739.967 228.172 737.9C198.473 736.261 159.685 730.454 90.1493 720.045C57.0084 715.084 16.8832 709.077 -32.571 701.977C-185.74 679.989 -289.523 701.804 -354.995 729.089C-387.733 742.732 -410.898 757.745 -425.874 769.341C-433.361 775.139 -438.802 780.083 -442.368 783.574C-444.151 785.319 -445.465 786.702 -446.333 787.646C-446.766 788.119 -447.088 788.481 -447.301 788.725C-447.408 788.847 -447.487 788.94 -447.539 789.001L-447.597 789.07L-447.611 789.086L-447.615 789.09C-447.615 789.091 -447.615 789.091 -447.632 789.077L-447.615 789.091L-448.5 790.157V788.772L-448.5 20.2142V19.7732L-448.062 19.7182L-448 20.2142C-448.062 19.7182 -448.061 19.718 -448.058 19.7176L-448.047 19.7162L-447.999 19.7102L-447.811 19.6869C-447.645 19.6662 -447.396 19.6355 -447.066 19.5952C-446.406 19.5147 -445.422 19.3958 -444.125 19.2427C-441.531 18.9365 -437.688 18.493 -432.685 17.944C-422.681 16.846 -408.041 15.3258 -389.499 13.6368C-352.414 10.2587 -299.718 6.20509 -237.272 3.50269C-112.382 -1.90195 51.5266 -1.90287 207.569 19.719C319.608 35.2436 391.64 52.7182 442.617 65.0851C462.622 69.9383 479.385 74.0048 494.051 76.8582C520.076 81.9218 539.481 83.1643 558.731 78.2625C577.987 73.3589 597.141 62.2929 622.633 42.6278C668.731 7.06669 728.895 1.36876 777.468 4.53202C801.763 6.11423 823.18 9.91477 838.523 13.3196C846.196 15.0221 852.35 16.6259 856.589 17.8046C858.708 18.3939 860.348 18.8769 861.458 19.2129C862.014 19.3808 862.437 19.512 862.722 19.6014C862.864 19.646 862.972 19.6802 863.044 19.7033L863.126 19.7296L863.147 19.7363L863.152 19.738C863.154 19.7384 863.154 19.7387 863 20.2142Z" fill="url(#paint0_linear_8459_143297)" stroke="#4AFF85"/>
<path opacity="0.6" d="M-302 19.7311L-302.155 19.2557L-302.5 19.3681V19.7311L-302.5 782.973V783.601L-301.888 783.46L-302 782.973C-301.888 783.46 -301.887 783.46 -301.886 783.46L-301.878 783.458L-301.848 783.451L-301.729 783.424L-301.257 783.316C-300.839 783.221 -300.218 783.08 -299.402 782.895C-297.771 782.525 -295.363 781.982 -292.26 781.287C-286.052 779.899 -277.059 777.906 -265.918 775.491C-243.634 770.66 -212.757 764.137 -178.381 757.37C-109.62 743.834 -26.8918 729.327 29.0606 725.42C54.8652 723.618 76.8257 719.898 97.9205 716.324C99.7336 716.017 101.54 715.711 103.342 715.407C126.116 711.569 148.173 708.113 173.375 707.665C223.766 706.77 286.795 717.901 393.209 762.188C499.733 806.52 580.466 811.847 634.592 806.073C661.653 803.187 682.057 797.526 695.704 792.583C702.526 790.112 707.66 787.82 711.09 786.144C712.805 785.305 714.095 784.621 714.958 784.146C715.389 783.908 715.713 783.722 715.931 783.596C715.982 783.566 716.027 783.539 716.066 783.516C716.111 783.49 716.147 783.468 716.176 783.451L716.239 783.413L716.255 783.403L716.26 783.4C716.26 783.4 716.261 783.4 716.247 783.377L716.262 783.399L716.5 783.253V782.973L716.5 19.7311V19.2721L716.043 19.2329L716 19.7311C716.043 19.2329 716.042 19.2328 716.04 19.2327L716.031 19.232L715.998 19.2291L715.865 19.2179C715.747 19.2079 715.57 19.1931 715.336 19.1737C714.868 19.135 714.169 19.0778 713.246 19.0041C711.4 18.8567 708.659 18.6433 705.076 18.3791C697.91 17.8507 687.376 17.1191 673.905 16.3063C646.963 14.6806 608.27 12.7299 561.264 11.4294C467.253 8.82842 339.984 8.82825 206.961 19.2326C73.8799 29.6415 7.14169 61.2642 -34.1036 81.4943C-34.9792 81.9238 -35.8432 82.3481 -36.6959 82.7668C-45.883 87.2782 -53.7605 91.1465 -60.8388 93.9941C-68.5721 97.1052 -75.3116 98.9807 -81.7138 99.1484C-94.4666 99.4825 -106.052 93.0407 -121.583 75.506C-161.124 30.8647 -206.264 16.7938 -241.517 13.8905C-259.14 12.4392 -274.292 13.7783 -285.039 15.4806C-290.413 16.3318 -294.687 17.274 -297.62 18.0041C-299.086 18.3692 -300.218 18.6812 -300.983 18.9024C-301.366 19.0131 -301.658 19.1009 -301.854 19.1614C-301.953 19.1916 -302.027 19.215 -302.077 19.2309L-302.134 19.2491L-302.149 19.2539L-302.153 19.2551C-302.154 19.2555 -302.155 19.2557 -302 19.7311Z" fill="url(#paint1_linear_8459_143297)" stroke="#4AFF85"/>
<defs>
<linearGradient id="paint0_linear_8459_143297" x1="211.572" y1="20.2148" x2="211.572" y2="828.077" gradientUnits="userSpaceOnUse">
<stop stop-color="#BAFFD9" stop-opacity="0.31"/>
<stop offset="0.546875" stop-color="#C8FFE1"/>
<stop offset="1" stop-color="#ECFFE9"/>
</linearGradient>
<linearGradient id="paint1_linear_8459_143297" x1="203.838" y1="19.7314" x2="203.838" y2="822.006" gradientUnits="userSpaceOnUse">
<stop stop-color="#BAFFD9" stop-opacity="0.31"/>
<stop offset="0.546875" stop-color="#BAFFD9"/>
<stop offset="1" stop-color="#ECFFE9"/>
</linearGradient>
</defs>
</svg>
