<svg width="108" height="241" viewBox="0 0 108 241" fill="none" xmlns="http://www.w3.org/2000/svg">
<g opacity="0.3">
<path d="M-12.978 0.96875C-79.1574 0.96875 -133 54.8014 -133 120.969C-133 187.136 -79.1574 240.969 -12.978 240.969C53.2014 240.969 107.044 187.136 107.044 120.969C107.044 54.8014 53.2014 0.96875 -12.978 0.96875ZM69.5371 176.353H43.4438C42.6353 176.352 41.8414 176.137 41.1417 175.732C40.4419 175.327 39.8608 174.746 39.4566 174.046L30.1433 158.076C29.5302 157.032 29.352 155.789 29.6471 154.615L38.2217 120.046C38.3938 119.349 38.7259 118.702 39.1916 118.156C39.6574 117.611 40.244 117.181 40.9049 116.901L57.1194 110.036C57.9118 109.7 58.7822 109.592 59.6326 109.725C60.483 109.857 61.2794 110.225 61.9319 110.786L85.9536 131.451C86.5457 131.961 86.9987 132.613 87.2702 133.345C87.5417 134.078 87.6227 134.867 87.5058 135.64C85.5163 149.286 80.7479 162.379 73.4955 174.109C73.0858 174.793 72.5058 175.359 71.8121 175.753C71.1184 176.146 70.3346 176.353 69.5371 176.353ZM-83.0755 110.082L-66.861 116.948C-66.2001 117.227 -65.6134 117.657 -65.1477 118.203C-64.6819 118.748 -64.3498 119.395 -64.1778 120.092L-55.6031 154.661C-55.308 155.835 -55.4863 157.078 -56.0994 158.123L-65.4126 174.046C-65.8169 174.746 -66.398 175.327 -67.0977 175.732C-67.7975 176.137 -68.5914 176.352 -69.3999 176.353H-95.4931C-96.2823 176.354 -97.0584 176.152 -97.7474 175.767C-98.4364 175.382 -99.0151 174.827 -99.4285 174.155C-106.681 162.425 -111.449 149.332 -113.439 135.686C-113.556 134.914 -113.475 134.124 -113.203 133.392C-112.932 132.659 -112.479 132.007 -111.887 131.498L-87.8648 110.832C-87.2146 110.275 -86.4223 109.911 -85.5765 109.778C-84.7308 109.646 -83.8648 109.751 -83.0755 110.082ZM65.1863 59.7514L54.7594 89.3938C54.5498 89.9995 54.2163 90.5551 53.7802 91.0249C53.3441 91.4947 52.8148 91.8686 52.2262 92.1226L35.1577 99.3514C34.3744 99.6828 33.5148 99.7913 32.6738 99.665C31.8327 99.5388 31.0429 99.1827 30.3914 98.6361L-2.07219 71.4111C-2.59091 70.982 -3.00949 70.4446 -3.29857 69.8367C-3.58763 69.2287 -3.74019 68.5649 -3.74556 67.8918V48.5187C-3.74512 47.7597 -3.55742 47.0124 -3.1991 46.3432C-2.84077 45.674 -2.32289 45.1035 -1.69135 44.6822L23.0228 28.2168C23.6678 27.7864 24.4108 27.5254 25.1833 27.4578C25.9558 27.3902 26.7329 27.5184 27.4428 27.8303C41.6634 34.0314 54.2833 43.3916 64.3438 55.1995C64.8727 55.8169 65.2292 56.5629 65.3771 57.3622C65.5251 58.1615 65.4592 58.9857 65.1863 59.7514ZM-48.9846 28.2168L-24.2647 44.6822C-23.6332 45.1035 -23.1153 45.674 -22.757 46.3432C-22.3986 47.0124 -22.2109 47.7597 -22.2105 48.5187V67.8918C-22.2105 68.566 -22.3583 69.2321 -22.6434 69.8431C-22.9285 70.4541 -23.344 70.9952 -23.8608 71.4284L-56.3244 98.6534C-56.9759 99.2 -57.7657 99.5561 -58.6068 99.6823C-59.4478 99.8086 -60.3074 99.7001 -61.0907 99.3688L-78.1823 92.1226C-78.7746 91.8718 -79.308 91.5 -79.7482 91.0311C-80.1884 90.5622 -80.5257 90.0064 -80.7385 89.3995L-91.1654 59.7572C-91.4364 58.9887 -91.499 58.1623 -91.347 57.3617C-91.195 56.5612 -90.8337 55.8152 -90.2999 55.1995C-80.2336 43.3797 -67.6033 34.0113 -53.37 27.8072C-52.6628 27.5048 -51.8912 27.3838 -51.1253 27.4554C-50.3594 27.5269 -49.6236 27.7887 -48.9846 28.2168ZM-38.9962 217.136L-50.381 188.469C-50.6414 187.817 -50.7497 187.115 -50.6977 186.415C-50.6457 185.715 -50.4348 185.036 -50.081 184.43L-41.3275 169.43C-40.9232 168.73 -40.3421 168.149 -39.6423 167.744C-38.9426 167.339 -38.1487 167.124 -37.3402 167.123H11.3841C12.1927 167.124 12.9865 167.339 13.6863 167.744C14.386 168.149 14.9671 168.73 15.3714 169.43L24.1307 184.43C24.4854 185.036 24.6973 185.714 24.7503 186.414C24.8033 187.114 24.696 187.817 24.4365 188.469L13.1325 217.125C12.8561 217.825 12.4123 218.447 11.84 218.937C11.2677 219.427 10.5843 219.769 9.84923 219.934C-5.15086 223.376 -20.7359 223.376 -35.736 219.934C-36.4656 219.767 -37.1436 219.425 -37.7116 218.937C-38.2795 218.45 -38.7204 217.832 -38.9962 217.136Z" fill="#00862B"/>
</g>
</svg>
