<svg width="375" height="4537" viewBox="0 0 375 4537" fill="none" xmlns="http://www.w3.org/2000/svg">
<path d="M1803.91 199.799L1803.91 4434.86C1808.14 4436.31 1811.52 4438.07 1814.16 4440.07C1819.94 4444.46 1822.19 4449.96 1822.27 4455.73C1822.35 4461.47 1820.3 4467.44 1817.56 4472.83C1814.83 4478.23 1811.38 4483.08 1808.62 4486.57C1807.24 4488.32 1806.03 4489.74 1805.16 4490.71C1804.73 4491.2 1804.39 4491.58 1804.15 4491.84C1804.03 4491.97 1803.93 4492.07 1803.87 4492.13L1803.8 4492.21L1803.78 4492.23L1803.78 4492.23C1803.77 4492.23 1803.77 4492.23 1803.41 4491.89L1803.77 4492.23L1802.91 4493.13V4491.89V4435.58C1798.13 4434.01 1792.23 4432.82 1785.01 4432.13C1771.06 4430.8 1752.22 4431.33 1727.12 4434.54C1676.91 4440.96 1601.67 4458.09 1490.3 4492.37C1267.39 4560.96 1047.85 4519.83 821.589 4469.39C804.419 4465.56 787.211 4461.68 769.959 4457.79C559.831 4410.4 343.282 4361.56 112.165 4390.4C23.4781 4401.46 -39.9387 4411.81 -84.26 4421.34V4491.89V4492.46L-84.8246 4492.38L-84.7974 4492.17C-84.8253 4492.38 -84.8265 4492.38 -84.8282 4492.38L-84.8389 4492.38L-84.8805 4492.38L-85.0443 4492.35L-85.6835 4492.27C-85.9425 4492.23 -86.2578 4492.19 -86.626 4492.14C-87.0538 4492.08 -87.5531 4492 -88.1184 4491.92C-90.222 4491.62 -93.2415 4491.16 -96.906 4490.56C-104.235 4489.35 -114.147 4487.56 -124.478 4485.22C-134.807 4482.87 -145.568 4479.97 -154.588 4476.55C-159.098 4474.83 -163.184 4472.98 -166.567 4471C-169.944 4469.02 -172.652 4466.89 -174.375 4464.61C-176.107 4462.31 -176.859 4459.83 -176.261 4457.2C-175.667 4454.59 -173.766 4451.94 -170.398 4449.22C-163.669 4443.79 -150.866 4437.94 -129.902 4431.7C-117.868 4428.11 -103.123 4424.39 -85.26 4420.53L-85.26 161.662V161.045L-84.6567 161.172L-84.76 161.662C-84.6567 161.172 -84.6548 161.173 -84.6508 161.174L-84.6324 161.178L-84.5591 161.193L-84.2665 161.254C-84.007 161.308 -83.6189 161.389 -83.1051 161.495C-82.0778 161.707 -80.5479 162.021 -78.5386 162.426C-74.5201 163.236 -68.5841 164.413 -60.9155 165.88C-45.5784 168.813 -23.3112 172.904 4.40698 177.536C59.8434 186.802 137.081 198.232 224.286 206.893C398.715 224.216 612.949 230.449 772.362 186.152C917.709 145.764 1066.58 188.761 1200.16 227.345C1213.33 231.148 1226.35 234.909 1239.21 238.543C1310.87 258.799 1377.33 275.107 1435.57 272.99C1493.76 270.874 1543.73 250.359 1582.45 196.952C1662.74 86.2046 1716.72 30.9008 1752.56 10.3096C1770.48 0.0121432 1783.98 -1.67079 1793.98 2.90125C1803.98 7.46772 1810.29 18.1898 1814.05 32.2384C1821.58 60.3434 1819.02 102.277 1814.61 137.119C1812.4 154.553 1809.73 170.235 1807.6 181.558C1806.54 187.22 1805.61 191.793 1804.95 194.951C1804.63 196.53 1804.36 197.755 1804.18 198.586C1804.09 199.001 1804.02 199.318 1803.97 199.531L1803.92 199.772L1803.91 199.799Z" fill="url(#paint0_linear_8448_143300)" stroke="#4AFF85"/>
<path opacity="0.6" d="M-64.5121 207.704L-64.505 208.966L-64.2231 258.767C-63.7469 258.869 -63.2589 258.965 -62.7589 259.056C-54.4248 260.58 -42.8024 260.713 -26.9007 258.81C4.90063 255.004 53.7102 243.071 127.334 217.995C320.743 152.121 526.496 186.474 736.07 221.922L738.969 222.413C947.659 257.713 1160.12 293.65 1368.2 232.667C1577.36 171.368 1697 124.831 1764.34 93.6265C1798.01 78.0244 1818.6 66.2575 1830.76 58.3975C1836.85 54.4677 1840.82 51.5154 1843.27 49.5497C1844.5 48.567 1845.34 47.831 1845.88 47.343C1846.15 47.0991 1846.34 46.9171 1846.46 46.7973C1846.52 46.7374 1846.57 46.6931 1846.59 46.6643L1846.62 46.6328L1846.63 46.6258L1846.63 46.6246L1846.63 46.6245C1846.63 46.6244 1846.63 46.6246 1847 46.9687C1847.36 47.3129 1847.36 47.3135 1847.36 47.3145L1847.35 47.3175L1847.34 47.328L1847.31 47.3663C1847.27 47.3996 1847.22 47.4483 1847.16 47.5124C1847.11 47.5574 1847.06 47.6101 1847 47.6704L-64.5121 207.704ZM-64.5121 207.704L-65.3712 208.628L-65.005 208.969M-64.5121 207.704L-65.005 208.969M-65.005 208.969C-65.3712 208.628 -65.3718 208.629 -65.3727 208.63L-65.3765 208.634L-65.391 208.65L-65.4468 208.711C-65.4749 208.741 -65.5106 208.781 -65.5537 208.828C-65.5854 208.863 -65.621 208.903 -65.6605 208.946C-65.8465 209.153 -66.1171 209.458 -66.4569 209.85C-67.1366 210.635 -68.0939 211.772 -69.2066 213.182C-71.4311 216.001 -74.2825 219.92 -76.7809 224.313C-79.2766 228.702 -81.4357 233.589 -82.2509 238.341C-83.0672 243.099 -82.5419 247.767 -79.6051 251.64C-76.9468 255.147 -72.3676 257.929 -65.2186 259.572L-42.1275 4339.25L-65.005 208.969Z" fill="url(#paint1_linear_8448_143300)" stroke="#4AFF85"/>
<defs>
<linearGradient id="paint0_linear_8448_143300" x1="949.5" y1="205.354" x2="949.5" y2="4717" gradientUnits="userSpaceOnUse">
<stop stop-color="#BAFFD9" stop-opacity="0.31"/>
<stop offset="0.546875" stop-color="#C8FFE1"/>
<stop offset="1" stop-color="#ECFFE9"/>
</linearGradient>
<linearGradient id="paint1_linear_8448_143300" x1="917.001" y1="110.082" x2="917.001" y2="4622.46" gradientUnits="userSpaceOnUse">
<stop stop-color="#BAFFD9" stop-opacity="0.31"/>
<stop offset="0.546875" stop-color="#BAFFD9"/>
<stop offset="1" stop-color="#ECFFE9"/>
</linearGradient>
</defs>
</svg>
