<svg width="373" height="4172" viewBox="0 0 373 4172" fill="none" xmlns="http://www.w3.org/2000/svg">
<g clip-path="url(#clip0_8448_143300)">
<path d="M1802.91 -54.2008L1802.91 4180.86C1807.14 4182.31 1810.52 4184.07 1813.16 4186.07C1818.94 4190.46 1821.19 4195.96 1821.27 4201.73C1821.35 4207.47 1819.3 4213.44 1816.56 4218.83C1813.83 4224.23 1810.38 4229.08 1807.62 4232.57C1806.24 4234.32 1805.03 4235.74 1804.16 4236.71C1803.73 4237.2 1803.39 4237.58 1803.15 4237.84C1803.03 4237.97 1802.93 4238.07 1802.87 4238.13L1802.8 4238.21L1802.78 4238.23L1802.78 4238.23C1802.77 4238.23 1802.77 4238.23 1802.41 4237.89L1802.77 4238.23L1801.91 4239.13V4237.89V4181.58C1797.13 4180.01 1791.23 4178.82 1784.01 4178.13C1770.06 4176.8 1751.22 4177.33 1726.12 4180.54C1675.91 4186.96 1600.67 4204.09 1489.3 4238.37C1266.39 4306.96 1046.85 4265.83 820.589 4215.39C803.419 4211.56 786.211 4207.68 768.959 4203.79C558.831 4156.4 342.282 4107.56 111.165 4136.4C22.4781 4147.46 -40.9387 4157.81 -85.26 4167.34V4237.89V4238.46L-85.8246 4238.38L-85.7974 4238.17C-85.8253 4238.38 -85.8265 4238.38 -85.8282 4238.38L-85.8389 4238.38L-85.8805 4238.38L-86.0443 4238.35L-86.6835 4238.27C-86.9425 4238.23 -87.2578 4238.19 -87.626 4238.14C-88.0538 4238.08 -88.5531 4238 -89.1184 4237.92C-91.222 4237.62 -94.2415 4237.16 -97.906 4236.56C-105.235 4235.35 -115.147 4233.56 -125.478 4231.22C-135.807 4228.87 -146.568 4225.97 -155.588 4222.55C-160.098 4220.83 -164.184 4218.98 -167.567 4217C-170.944 4215.02 -173.652 4212.89 -175.375 4210.61C-177.107 4208.31 -177.859 4205.83 -177.261 4203.2C-176.667 4200.59 -174.766 4197.94 -171.398 4195.22C-164.669 4189.79 -151.866 4183.94 -130.902 4177.7C-118.868 4174.11 -104.123 4170.39 -86.26 4166.53L-86.26 -92.3383V-92.9549L-85.6567 -92.8275L-85.76 -92.3383C-85.6567 -92.8275 -85.6548 -92.8271 -85.6508 -92.8263L-85.6324 -92.8224L-85.5591 -92.807L-85.2665 -92.7458C-85.007 -92.6916 -84.6189 -92.6108 -84.1051 -92.5048C-83.0778 -92.2926 -81.5479 -91.9792 -79.5386 -91.5741C-75.5201 -90.7639 -69.5841 -89.587 -61.9155 -88.1205C-46.5784 -85.1875 -24.3112 -81.0962 3.40698 -76.4635C58.8434 -67.1981 136.081 -55.7676 223.286 -47.1069C397.715 -29.7838 611.949 -23.5506 771.362 -67.8479C916.709 -108.236 1065.58 -65.2386 1199.16 -26.6553C1212.33 -22.8517 1225.35 -19.091 1238.21 -15.4573C1309.87 4.79929 1376.33 21.1068 1434.57 18.9896C1492.76 16.8737 1542.73 -3.64085 1581.45 -57.0479C1661.74 -167.795 1715.72 -223.099 1751.56 -243.69C1769.48 -253.988 1782.98 -255.671 1792.98 -251.099C1802.98 -246.532 1809.29 -235.81 1813.05 -221.762C1820.58 -193.657 1818.02 -151.723 1813.61 -116.881C1811.4 -99.4471 1808.73 -83.765 1806.6 -72.4416C1805.54 -66.7796 1804.61 -62.2069 1803.95 -59.0492C1803.63 -57.4703 1803.36 -56.2452 1803.18 -55.4144C1803.09 -54.9991 1803.02 -54.6823 1802.97 -54.4692L1802.92 -54.228L1802.91 -54.2008Z" fill="url(#paint0_linear_8448_143300)" stroke="#4AFF85"/>
<path opacity="0.6" d="M-65.5121 -46.2962L-65.505 -45.0341L-65.2231 4.76747C-64.7469 4.86868 -64.2589 4.96507 -63.7589 5.05649C-55.4248 6.58022 -43.8024 6.71286 -27.9007 4.80995C3.90063 1.00435 52.7102 -10.9285 126.334 -36.0046C319.743 -101.879 525.496 -67.5255 735.07 -32.0779L737.969 -31.5875C946.659 3.71277 1159.12 39.65 1367.2 -21.3331C1576.36 -82.6325 1696 -129.169 1763.34 -160.373C1797.01 -175.976 1817.6 -187.743 1829.76 -195.603C1835.85 -199.532 1839.82 -202.485 1842.27 -204.45C1843.5 -205.433 1844.34 -206.169 1844.88 -206.657C1845.15 -206.901 1845.34 -207.083 1845.46 -207.203C1845.52 -207.263 1845.57 -207.307 1845.59 -207.336L1845.62 -207.367L1845.63 -207.374L1845.63 -207.375L1845.63 -207.376C1845.63 -207.376 1845.63 -207.375 1846 -207.031C1846.36 -206.687 1846.36 -206.686 1846.36 -206.686L1846.35 -206.682L1846.34 -206.672L1846.31 -206.634C1846.27 -206.6 1846.22 -206.552 1846.16 -206.488C1846.11 -206.443 1846.06 -206.39 1846 -206.33L-65.5121 -46.2962ZM-65.5121 -46.2962L-66.3712 -45.3716L-66.005 -45.0313M-65.5121 -46.2962L-66.005 -45.0313M-66.005 -45.0313C-66.3712 -45.3716 -66.3718 -45.371 -66.3727 -45.37L-66.3765 -45.3659L-66.391 -45.3502L-66.4468 -45.2895C-66.4749 -45.2587 -66.5106 -45.2195 -66.5537 -45.172C-66.5854 -45.137 -66.621 -45.0975 -66.6605 -45.0536C-66.8465 -44.8467 -67.1171 -44.5422 -67.4569 -44.1498C-68.1366 -43.365 -69.0939 -42.2284 -70.2066 -40.8181C-72.4311 -37.999 -75.2825 -34.0796 -77.7809 -29.6867C-80.2766 -25.2984 -82.4357 -20.4107 -83.2509 -15.6587C-84.0672 -10.9007 -83.5419 -6.23317 -80.6051 -2.35959C-77.9468 1.14682 -73.3676 3.92892 -66.2186 5.5715L-43.1275 4085.25L-66.005 -45.0313Z" fill="url(#paint1_linear_8448_143300)" stroke="#4AFF85"/>
</g>
<defs>
<linearGradient id="paint0_linear_8448_143300" x1="948.5" y1="-48.6459" x2="948.5" y2="4463" gradientUnits="userSpaceOnUse">
<stop stop-color="#BAFFD9" stop-opacity="0.31"/>
<stop offset="0.546875" stop-color="#C8FFE1"/>
<stop offset="1" stop-color="#ECFFE9"/>
</linearGradient>
<linearGradient id="paint1_linear_8448_143300" x1="916.001" y1="-143.918" x2="916.001" y2="4368.46" gradientUnits="userSpaceOnUse">
<stop stop-color="#BAFFD9" stop-opacity="0.31"/>
<stop offset="0.546875" stop-color="#BAFFD9"/>
<stop offset="1" stop-color="#ECFFE9"/>
</linearGradient>
<clipPath id="clip0_8448_143300">
<rect width="373" height="4172" fill="white"/>
</clipPath>
</defs>
</svg>
