<svg width="834" height="1110" viewBox="0 0 834 1110" fill="none" xmlns="http://www.w3.org/2000/svg">
<g clip-path="url(#clip0_8459_143298)">
<path d="M996.314 1108.68L996.496 1108.21C996.314 1108.68 996.313 1108.68 996.31 1108.68L996.296 1108.67L996.242 1108.65L996.027 1108.57L995.8 1108.48C995.632 1108.41 995.424 1108.33 995.176 1108.24C994.423 1107.95 993.303 1107.52 991.835 1106.96C988.901 1105.84 984.578 1104.21 979.024 1102.16C967.915 1098.06 951.884 1092.27 932.192 1085.5C892.809 1071.98 838.788 1054.58 780.239 1039.08C721.687 1023.58 658.619 1009.99 601.135 1004.07C543.633 998.151 491.795 999.921 455.659 1015.08C383.115 1045.52 301.703 1072.85 197.65 1078.9C93.5984 1084.94 -33.0646 1069.72 -196.119 1015.1C-277.594 987.803 -333.677 980.025 -371.971 983.67C-410.242 987.313 -430.706 1002.36 -441.051 1020.71C-442.581 1023.42 -443.891 1026.21 -445.006 1029.05L-442.005 1108.19L-442.97 1108.39L-442.883 1108.36C-442.97 1108.39 -442.971 1108.39 -442.971 1108.39L-442.974 1108.38L-442.985 1108.35L-443.028 1108.24C-443.065 1108.14 -443.12 1108 -443.191 1107.81C-443.333 1107.42 -443.537 1106.86 -443.79 1106.12C-444.295 1104.66 -444.992 1102.52 -445.762 1099.85C-447.304 1094.5 -449.14 1086.98 -450.322 1078.3C-452.328 1063.57 -452.456 1045.44 -446.013 1028.88L-476.504 224.854L-476.514 224.59L-476.301 224.433L-476.004 224.836C-476.301 224.433 -476.3 224.432 -476.297 224.43L-476.283 224.42L-476.23 224.381L-476.019 224.226C-475.832 224.09 -475.552 223.887 -475.182 223.62C-474.442 223.085 -473.338 222.295 -471.883 221.271C-468.974 219.223 -464.66 216.238 -459.039 212.488C-447.797 204.989 -431.328 194.433 -410.414 182.201C-368.588 157.738 -308.98 126.568 -237.851 99.7432C-95.6035 46.0977 92.7835 9.80694 277.172 79.3661C645.496 218.313 863.369 138.637 975.197 33.4739C987.815 21.6079 997.62 13.4141 1005.12 8.16669C1008.87 5.543 1012.05 3.64901 1014.72 2.40078C1017.39 1.15531 1019.59 0.537374 1021.36 0.50164C1023.16 0.465524 1024.53 1.0265 1025.48 2.14371C1026.42 3.23978 1026.88 4.80446 1027 6.66698C1027.25 10.388 1026.17 15.5624 1024.33 21.4101C1020.63 33.1301 1013.77 47.8041 1007.85 59.5313C1004.89 65.3986 1002.16 70.535 1000.17 74.2048C999.177 76.0397 998.367 77.5082 997.806 78.5181C997.525 79.0231 997.306 79.4135 997.158 79.6777C997.088 79.8019 997.034 79.8983 996.996 79.9656V1108.21V1108.94L996.314 1108.68Z" fill="url(#paint0_linear_8459_143298)" stroke="#4AFF85"/>
<path opacity="0.6" d="M-344.957 67.0763L-344.554 66.7798L-345.457 65.5545V67.0763V1096.93V1097.69L-344.759 1097.38L-344.957 1096.93C-344.759 1097.38 -344.758 1097.38 -344.755 1097.38H-344.745L-344.701 1097.36L-344.526 1097.28C-344.37 1097.22 -344.138 1097.12 -343.831 1096.99C-343.216 1096.73 -342.302 1096.34 -341.102 1095.84C-338.704 1094.83 -335.166 1093.37 -330.612 1091.52C-321.503 1087.84 -308.328 1082.64 -292.065 1076.59C-259.536 1064.48 -214.657 1048.98 -165.249 1035.39C-115.839 1021.79 -61.9123 1010.11 -11.2872 1005.62C39.3488 1001.14 86.6263 1003.87 122.773 1019.06C126.143 1020.47 129.501 1021.89 132.849 1023.3C201.53 1052.21 265.996 1079.36 341.579 1086.15C420.866 1093.28 512.343 1078.02 633.761 1019.05C754.95 960.184 869.919 979.732 954.622 1014.02C996.974 1031.16 1031.75 1051.98 1055.94 1068.52C1068.03 1076.79 1077.48 1083.99 1083.9 1089.12C1087.11 1091.68 1089.56 1093.73 1091.21 1095.13C1092.04 1095.83 1092.66 1096.38 1093.08 1096.74C1093.29 1096.93 1093.45 1097.06 1093.55 1097.16L1093.67 1097.26L1093.7 1097.29H1093.71C1093.71 1097.3 1093.71 1097.3 1094.04 1096.93L1093.71 1097.3L1094.54 1098.05V1096.93V67.0763V67.0268L1094.53 66.9782L1094.04 67.0763C1094.53 66.9782 1094.53 66.9754 1094.53 66.9754V66.9692V66.9469C1094.52 66.9276 1094.52 66.8995 1094.51 66.8629C1094.49 66.7897 1094.47 66.6823 1094.43 66.5425C1094.37 66.2631 1094.26 65.8543 1094.11 65.3313C1093.82 64.2853 1093.34 62.7818 1092.61 60.9408C1091.17 57.259 1088.74 52.225 1084.82 46.8005C1076.98 35.9449 1063.17 23.5447 1039.29 17.2848C991.586 4.77393 903.805 16.8119 743.283 114.408C724.025 126.117 698.683 132.934 668.776 136.18C638.872 139.425 604.44 139.097 567.027 136.541C507.378 132.467 440.201 122.735 371.779 112.822C354.361 110.299 336.863 107.764 319.387 105.308C233.281 93.2049 147.735 83.0121 75.2377 85.5689C2.7645 88.1248 -56.8138 103.425 -90.8339 142.453C-117.669 173.238 -146.896 183.881 -175.641 182.583C-204.418 181.284 -232.773 168.016 -257.817 150.854C-282.855 133.697 -304.541 112.679 -319.971 95.9431C-327.685 87.5765 -333.833 80.2832 -338.051 75.0825C-340.16 72.4822 -341.787 70.4052 -342.886 68.9789C-343.436 68.2657 -343.853 67.7153 -344.133 67.3434C-344.273 67.1575 -344.379 67.0163 -344.449 66.9217L-344.528 66.815L-344.548 66.7883L-344.553 66.7818C-344.553 66.7818 -344.554 66.7798 -344.957 67.0763Z" fill="url(#paint1_linear_8459_143298)" stroke="#4AFF85"/>
</g>
<defs>
<linearGradient id="paint0_linear_8459_143298" x1="379.009" y1="66.9538" x2="379.009" y2="1147.92" gradientUnits="userSpaceOnUse">
<stop stop-color="#BAFFD9" stop-opacity="0.31"/>
<stop offset="0.546875" stop-color="#C8FFE1"/>
<stop offset="1" stop-color="#ECFFE9"/>
</linearGradient>
<linearGradient id="paint1_linear_8459_143298" x1="370.074" y1="67.076" x2="370.074" y2="1149.59" gradientUnits="userSpaceOnUse">
<stop stop-color="#BAFFD9" stop-opacity="0.31"/>
<stop offset="0.546875" stop-color="#BAFFD9"/>
<stop offset="1" stop-color="#ECFFE9"/>
</linearGradient>
<clipPath id="clip0_8459_143298">
<rect width="834" height="1110" fill="white"/>
</clipPath>
</defs>
</svg>
