<svg width="1440" height="759" viewBox="0 0 1440 759" fill="none" xmlns="http://www.w3.org/2000/svg">
<path d="M1439 54.5589L1439.28 54.1464L1439.5 54.2954V54.5589L1439.5 744.589V745.237L1438.87 745.073L1439 744.589C1438.87 745.073 1438.87 745.073 1438.87 745.072L1438.86 745.068L1438.8 745.054L1438.59 744.998C1438.4 744.949 1438.11 744.875 1437.73 744.778C1436.98 744.583 1435.86 744.294 1434.39 743.92C1431.46 743.171 1427.14 742.078 1421.58 740.702C1410.47 737.948 1394.44 734.061 1374.75 729.523C1335.36 720.447 1281.34 708.771 1222.78 698.371C1164.23 687.971 1101.15 678.849 1043.66 674.877C986.146 670.904 934.276 672.09 898.105 682.274C861.895 692.468 836.554 704.859 813.803 716.579C811.673 717.676 809.566 718.767 807.474 719.851C787.224 730.338 768.437 740.067 744.997 746.859C693.26 761.849 618.922 762.512 455.902 725.869C292.955 689.242 179.021 694.049 105.845 707.997C69.2562 714.971 42.8539 724.231 25.6061 731.742C16.9821 735.497 10.6464 738.816 6.46997 741.193C4.38184 742.382 2.8335 743.335 1.80884 743.99C1.29651 744.317 0.915161 744.57 0.662598 744.741C0.536377 744.826 0.442383 744.891 0.380371 744.934L0.311157 744.982L0.294556 744.994L0.290771 744.996C0.290039 744.997 0.289795 744.997 0 744.589L0.289795 744.997L-0.5 745.559V744.589L-0.5 54.5589V54.1801L-0.135376 54.0776L0 54.5589C-0.135376 54.0776 -0.134399 54.0773 -0.132812 54.0769L-0.126221 54.075L-0.100342 54.0679L0.0012207 54.0399C0.0911865 54.0152 0.225464 53.9788 0.404175 53.9312C0.761597 53.8359 1.29639 53.6961 2.00842 53.5168C3.4325 53.1584 5.56519 52.6425 8.4043 52.0118C14.0824 50.7504 22.5859 49.0294 33.8962 47.1888C56.517 43.5075 90.3647 39.3476 135.291 37.4282C225.144 33.5893 359.31 38.7122 536.599 74.5476C713.8 110.365 832.012 108.246 921.893 94.0264C966.838 86.916 1004.71 76.7785 1039.35 66.8356C1045.29 65.1297 1051.14 63.4293 1056.91 61.7507C1084.78 53.6483 1110.89 46.0557 1137.4 40.8177C1246.96 19.1733 1322.39 22.4823 1370.46 31.2161C1394.5 35.583 1411.69 41.3057 1422.88 45.942C1428.47 48.2601 1432.57 50.3065 1435.27 51.7758C1436.62 52.5104 1437.62 53.1007 1438.28 53.5085C1438.61 53.7125 1438.86 53.8708 1439.03 53.9787C1439.11 54.0326 1439.17 54.074 1439.22 54.1021L1439.26 54.1344L1439.28 54.143L1439.28 54.1454C1439.28 54.146 1439.28 54.1464 1439 54.5589Z" fill="url(#paint0_linear_8459_143296)" stroke="#4AFF85"/>
<path opacity="0.6" d="M-32 49.7959L-31.8714 49.3127L-32.5 49.1454V49.7959L-32.5 741.602V742.268L-31.8609 742.083L-32 741.602C-31.8609 742.083 -31.8597 742.082 -31.8573 742.082L-31.8463 742.078L-31.8024 742.066L-31.6272 742.015C-31.4717 741.971 -31.2394 741.904 -30.932 741.816C-30.3172 741.64 -29.4025 741.38 -28.203 741.043C-25.8039 740.368 -22.2659 739.384 -17.7112 738.145C-8.60175 735.667 4.57444 732.174 20.8394 728.109C53.3698 719.98 98.2531 709.567 147.666 700.433C197.081 691.3 251.017 683.447 301.655 680.434C352.303 677.421 399.611 679.254 435.788 689.465C459.285 696.098 482.323 703.539 505.469 711.014C625.119 749.658 747.623 789.223 951.144 722.82C1072.4 683.258 1200.81 688.064 1298.94 702.771C1348 710.125 1389.47 719.951 1418.69 727.939C1433.29 731.933 1444.83 735.468 1452.72 738.003C1456.66 739.271 1459.69 740.288 1461.73 740.989C1462.75 741.339 1463.53 741.611 1464.05 741.794C1464.31 741.886 1464.5 741.955 1464.63 742.002L1464.78 742.055L1464.82 742.068L1464.83 742.071C1464.83 742.072 1464.83 742.072 1464.84 742.035L1464.83 742.072L1465.5 742.316V741.602L1465.5 3V1.70855L1464.63 2.66331L1465 3C1464.63 2.66331 1464.63 2.66332 1464.63 2.66368L1464.63 2.66616L1464.62 2.67739L1464.57 2.72473C1464.53 2.76726 1464.47 2.83161 1464.39 2.91707C1464.22 3.088 1463.97 3.34341 1463.63 3.67765C1462.94 4.34614 1461.89 5.33003 1460.44 6.58429C1457.54 9.0928 1453.03 12.683 1446.63 16.9947C1433.82 25.6179 1413.41 37.1282 1383.07 48.6428C1322.39 71.6722 1221.95 94.7206 1063 94.7206C940.029 94.7206 834.497 93.2097 745.86 91.9407C719.893 91.5689 695.376 91.2179 672.295 90.9317C570.443 89.6689 496.534 89.6676 449.447 94.7231C338.759 106.607 218.433 95.2577 125.764 80.9317C79.4324 73.7693 40.021 65.8639 12.1932 59.7493C-1.72054 56.692 -12.7382 54.0825 -20.2766 52.2374C-24.0459 51.3149 -26.9453 50.5835 -28.9021 50.0829C-29.8804 49.8326 -30.6231 49.6399 -31.1211 49.5099C-31.37 49.4449 -31.5578 49.3955 -31.6832 49.3625L-31.8245 49.3252L-31.8598 49.3158L-31.8686 49.3135C-31.8705 49.313 -31.8714 49.3127 -32 49.7959Z" fill="url(#paint1_linear_8459_143296)" stroke="#4AFF85"/>
<defs>
<linearGradient id="paint0_linear_8459_143296" x1="723.969" y1="54.556" x2="723.969" y2="779.875" gradientUnits="userSpaceOnUse">
<stop stop-color="#BAFFD9" stop-opacity="0.31"/>
<stop offset="0.546875" stop-color="#C8FFE1"/>
<stop offset="1" stop-color="#ECFFE9"/>
</linearGradient>
<linearGradient id="paint1_linear_8459_143296" x1="715.531" y1="54.3195" x2="715.531" y2="781.505" gradientUnits="userSpaceOnUse">
<stop stop-color="#BAFFD9" stop-opacity="0.31"/>
<stop offset="0.546875" stop-color="#BAFFD9"/>
<stop offset="1" stop-color="#ECFFE9"/>
</linearGradient>
</defs>
</svg>
