<svg width="32" height="32" viewBox="0 0 32 32" fill="none" xmlns="http://www.w3.org/2000/svg">
<path d="M25.4269 6.5736C24.1927 5.32968 22.7241 4.34294 21.106 3.67052C19.4879 2.9981 17.7525 2.65336 16.0002 2.65627C14.2476 2.65353 12.5118 2.99833 10.8933 3.67073C9.27476 4.34313 7.80563 5.32978 6.57087 6.5736C1.37221 11.7709 1.37221 20.2309 6.57087 25.4296C7.80566 26.6738 9.27498 27.6606 10.8938 28.333C12.5126 29.0055 14.2487 29.3501 16.0015 29.3469C17.7537 29.35 19.4891 29.0055 21.1072 28.3333C22.7253 27.6611 24.194 26.6746 25.4282 25.4309C30.6269 20.2336 30.6269 11.7736 25.4269 6.5736ZM16.2402 5.33493H15.7615C15.8429 5.3336 15.9202 5.32293 16.0015 5.32293C16.0829 5.32293 16.1589 5.3336 16.2402 5.33493ZM24.3229 22.6683H21.3322L19.6549 26.0229C18.4848 26.4552 17.2476 26.6777 16.0002 26.6803C14.7505 26.678 13.511 26.455 12.3389 26.0216L10.6655 22.6816H7.68554C6.58612 21.3148 5.84262 19.6968 5.52154 17.9723L7.99888 14.6683L6.37754 11.4243C6.89488 10.3237 7.59807 9.32059 8.45621 8.45893C9.65726 7.25368 11.1294 6.35348 12.7495 5.8336L15.9989 8.0016L19.2495 5.83493C20.8692 6.35518 22.3412 7.25482 23.5429 8.45893C24.4001 9.31956 25.1028 10.3213 25.6202 11.4203L23.9989 14.6683L26.4762 17.9723C26.1566 19.6912 25.4169 21.3044 24.3229 22.6683Z" fill="white"/>
<path d="M11.3359 14.6693L13.3359 20.0026H18.6693L20.6693 14.6693L16.0026 11.3359L11.3359 14.6693Z" fill="white"/>
</svg>
