<svg width="32" height="32" viewBox="0 0 32 32" fill="none" xmlns="http://www.w3.org/2000/svg">
<path d="M17.6455 10.5C17.6455 10.2348 17.5401 9.98043 17.3526 9.79289C17.165 9.60536 16.9107 9.5 16.6455 9.5H16.5005V11.5H16.6455C16.9107 11.5 17.165 11.3946 17.3526 11.2071C17.5401 11.0196 17.6455 10.7652 17.6455 10.5ZM15.5005 6.5H15.3555C15.0903 6.5 14.8359 6.60536 14.6484 6.79289C14.4608 6.98043 14.3555 7.23478 14.3555 7.5C14.3555 7.76522 14.4608 8.01957 14.6484 8.20711C14.8359 8.39464 15.0903 8.5 15.3555 8.5H15.5005V6.5Z" fill="#023C1D"/>
<path d="M16 16C17.3845 16 18.7378 15.5895 19.889 14.8203C21.0401 14.0511 21.9373 12.9579 22.4672 11.6788C22.997 10.3997 23.1356 8.99224 22.8655 7.63437C22.5954 6.2765 21.9287 5.02922 20.9497 4.05026C19.9708 3.07129 18.7235 2.4046 17.3656 2.13451C16.0078 1.86441 14.6003 2.00303 13.3212 2.53285C12.0421 3.06266 10.9489 3.95987 10.1797 5.11101C9.41054 6.26216 9 7.61553 9 9C9 10.8565 9.7375 12.637 11.0503 13.9497C12.363 15.2625 14.1435 16 16 16ZM15.355 9.5C14.8246 9.5 14.3159 9.28929 13.9408 8.91422C13.5657 8.53914 13.355 8.03044 13.355 7.5C13.355 6.96957 13.5657 6.46086 13.9408 6.08579C14.3159 5.71072 14.8246 5.5 15.355 5.5H15.5V4.285H16.5V5.5H16.645C17.1754 5.5 17.6841 5.71072 18.0592 6.08579C18.4343 6.46086 18.645 6.96957 18.645 7.5H17.645C17.645 7.23479 17.5396 6.98043 17.3521 6.7929C17.1646 6.60536 16.9102 6.5 16.645 6.5H16.5V8.5H16.645C17.1754 8.5 17.6841 8.71072 18.0592 9.08579C18.4343 9.46086 18.645 9.96957 18.645 10.5C18.645 11.0304 18.4343 11.5391 18.0592 11.9142C17.6841 12.2893 17.1754 12.5 16.645 12.5H16.5V13.715H15.5V12.5H15.355C14.8246 12.5 14.3159 12.2893 13.9408 11.9142C13.5657 11.5391 13.355 11.0304 13.355 10.5H14.355C14.355 10.7652 14.4604 11.0196 14.6479 11.2071C14.8354 11.3946 15.0898 11.5 15.355 11.5H15.5V9.5H15.355ZM12 19.5V22H10C9.86739 22 9.74021 22.0527 9.64645 22.1465C9.55268 22.2402 9.5 22.3674 9.5 22.5V27.5C9.5 27.6326 9.55268 27.7598 9.64645 27.8536C9.74021 27.9473 9.86739 28 10 28H12V30.5H13V28H15C15.1326 28 15.2598 27.9473 15.3536 27.8536C15.4473 27.7598 15.5 27.6326 15.5 27.5V22.5C15.5 22.3674 15.4473 22.2402 15.3536 22.1465C15.2598 22.0527 15.1326 22 15 22H13V19.5H12ZM24 28H26V30.5H27V28H29C29.1326 28 29.2598 27.9473 29.3536 27.8536C29.4473 27.7598 29.5 27.6326 29.5 27.5V22.5C29.5 22.3674 29.4473 22.2402 29.3536 22.1465C29.2598 22.0527 29.1326 22 29 22H27V19.5H26V22H24C23.8674 22 23.7402 22.0527 23.6464 22.1465C23.5527 22.2402 23.5 22.3674 23.5 22.5V27.5C23.5 27.6326 23.5527 27.7598 23.6464 27.8536C23.7402 27.9473 23.8674 28 24 28ZM3 24.5H5V27H6V24.5H8C8.13261 24.5 8.25979 24.4473 8.35355 24.3536C8.44732 24.2598 8.5 24.1326 8.5 24V19C8.5 18.8674 8.44732 18.7402 8.35355 18.6465C8.25979 18.5527 8.13261 18.5 8 18.5H6V16H5V18.5H3C2.86739 18.5 2.74021 18.5527 2.64645 18.6465C2.55268 18.7402 2.5 18.8674 2.5 19V24C2.5 24.1326 2.55268 24.2598 2.64645 24.3536C2.74021 24.4473 2.86739 24.5 3 24.5ZM3.5 19.5H7.5V23.5H3.5V19.5ZM19 16.5V19H17C16.8674 19 16.7402 19.0527 16.6464 19.1465C16.5527 19.2402 16.5 19.3674 16.5 19.5V24.5C16.5 24.6326 16.5527 24.7598 16.6464 24.8536C16.7402 24.9473 16.8674 25 17 25H19V27.5H20V25H22C22.1326 25 22.2598 24.9473 22.3536 24.8536C22.4473 24.7598 22.5 24.6326 22.5 24.5V19.5C22.5 19.3674 22.4473 19.2402 22.3536 19.1465C22.2598 19.0527 22.1326 19 22 19H20V16.5H19ZM21.5 20V24H17.5V20H21.5Z" fill="white"/>
</svg>
