<svg width="373" height="4265" viewBox="0 0 373 4265" fill="none" xmlns="http://www.w3.org/2000/svg">
<g clip-path="url(#clip0_8448_143300)">
<path d="M1802.91 38.7992L1802.91 4273.86C1807.14 4275.31 1810.52 4277.07 1813.16 4279.07C1818.94 4283.46 1821.19 4288.96 1821.27 4294.73C1821.35 4300.47 1819.3 4306.44 1816.56 4311.83C1813.83 4317.23 1810.38 4322.08 1807.62 4325.57C1806.24 4327.32 1805.03 4328.74 1804.16 4329.71C1803.73 4330.2 1803.39 4330.58 1803.15 4330.84C1803.03 4330.97 1802.93 4331.07 1802.87 4331.13L1802.8 4331.21L1802.78 4331.23L1802.78 4331.23C1802.77 4331.23 1802.77 4331.23 1802.41 4330.89L1802.77 4331.23L1801.91 4332.13V4330.89V4274.58C1797.13 4273.01 1791.23 4271.82 1784.01 4271.13C1770.06 4269.8 1751.22 4270.33 1726.12 4273.54C1675.91 4279.96 1600.67 4297.09 1489.3 4331.37C1266.39 4399.96 1046.85 4358.83 820.589 4308.39C803.419 4304.56 786.211 4300.68 768.959 4296.79C558.831 4249.4 342.282 4200.56 111.165 4229.4C22.4781 4240.46 -40.9387 4250.81 -85.26 4260.34V4330.89V4331.46L-85.8246 4331.38L-85.7974 4331.17C-85.8253 4331.38 -85.8265 4331.38 -85.8282 4331.38L-85.8389 4331.38L-85.8805 4331.38L-86.0443 4331.35L-86.6835 4331.27C-86.9425 4331.23 -87.2578 4331.19 -87.626 4331.14C-88.0538 4331.08 -88.5531 4331 -89.1184 4330.92C-91.222 4330.62 -94.2415 4330.16 -97.906 4329.56C-105.235 4328.35 -115.147 4326.56 -125.478 4324.22C-135.807 4321.87 -146.568 4318.97 -155.588 4315.55C-160.098 4313.83 -164.184 4311.98 -167.567 4310C-170.944 4308.02 -173.652 4305.89 -175.375 4303.61C-177.107 4301.31 -177.859 4298.83 -177.261 4296.2C-176.667 4293.59 -174.766 4290.94 -171.398 4288.22C-164.669 4282.79 -151.866 4276.94 -130.902 4270.7C-118.868 4267.11 -104.123 4263.39 -86.26 4259.53L-86.26 0.661667V0.045105L-85.6567 0.172455L-85.76 0.661667C-85.6567 0.172455 -85.6548 0.172867 -85.6508 0.173721L-85.6324 0.177582L-85.5591 0.192993L-85.2665 0.254242C-85.007 0.308426 -84.6189 0.38916 -84.1051 0.495224C-83.0778 0.707352 -81.5479 1.02078 -79.5386 1.42589C-75.5201 2.23611 -69.5841 3.41302 -61.9155 4.87953C-46.5784 7.81253 -24.3112 11.9038 3.40698 16.5365C58.8434 25.8019 136.081 37.2324 223.286 45.8931C397.715 63.2162 611.949 69.4494 771.362 25.1521C916.709 -15.2363 1065.58 27.7614 1199.16 66.3447C1212.33 70.1483 1225.35 73.909 1238.21 77.5427C1309.87 97.7993 1376.33 114.107 1434.57 111.99C1492.76 109.874 1542.73 89.3591 1581.45 35.9521C1661.74 -74.7954 1715.72 -130.099 1751.56 -150.69C1769.48 -160.988 1782.98 -162.671 1792.98 -158.099C1802.98 -153.532 1809.29 -142.81 1813.05 -128.762C1820.58 -100.657 1818.02 -58.7235 1813.61 -23.8814C1811.4 -6.4471 1808.73 9.23502 1806.6 20.5584C1805.54 26.2204 1804.61 30.7931 1803.95 33.9508C1803.63 35.5297 1803.36 36.7548 1803.18 37.5856C1803.09 38.0009 1803.02 38.3177 1802.97 38.5308L1802.92 38.772L1802.91 38.7992Z" fill="url(#paint0_linear_8448_143300)" stroke="#4AFF85"/>
<path opacity="0.6" d="M-65.5121 46.7038L-65.505 47.9659L-65.2231 97.7675C-64.7469 97.8687 -64.2589 97.9651 -63.7589 98.0565C-55.4248 99.5802 -43.8024 99.7129 -27.9007 97.81C3.90063 94.0043 52.7102 82.0715 126.334 56.9954C319.743 -8.87922 525.496 25.4745 735.07 60.9221L737.969 61.4125C946.659 96.7128 1159.12 132.65 1367.2 71.6669C1576.36 10.3675 1696 -36.1689 1763.34 -67.3735C1797.01 -82.9756 1817.6 -94.7425 1829.76 -102.603C1835.85 -106.532 1839.82 -109.485 1842.27 -111.45C1843.5 -112.433 1844.34 -113.169 1844.88 -113.657C1845.15 -113.901 1845.34 -114.083 1845.46 -114.203C1845.52 -114.263 1845.57 -114.307 1845.59 -114.336L1845.62 -114.367L1845.63 -114.374L1845.63 -114.375L1845.63 -114.376C1845.63 -114.376 1845.63 -114.375 1846 -114.031C1846.36 -113.687 1846.36 -113.686 1846.36 -113.686L1846.35 -113.682L1846.34 -113.672L1846.31 -113.634C1846.27 -113.6 1846.22 -113.552 1846.16 -113.488C1846.11 -113.443 1846.06 -113.39 1846 -113.33L-65.5121 46.7038ZM-65.5121 46.7038L-66.3712 47.6284L-66.005 47.9687M-65.5121 46.7038L-66.005 47.9687M-66.005 47.9687C-66.3712 47.6284 -66.3718 47.629 -66.3727 47.63L-66.3765 47.6341L-66.391 47.6498L-66.4468 47.7105C-66.4749 47.7413 -66.5106 47.7805 -66.5537 47.828C-66.5854 47.863 -66.621 47.9025 -66.6605 47.9464C-66.8465 48.1533 -67.1171 48.4578 -67.4569 48.8502C-68.1366 49.635 -69.0939 50.7716 -70.2066 52.1819C-72.4311 55.001 -75.2825 58.9204 -77.7809 63.3133C-80.2766 67.7016 -82.4357 72.5893 -83.2509 77.3413C-84.0672 82.0993 -83.5419 86.7668 -80.6051 90.6404C-77.9468 94.1468 -73.3676 96.9289 -66.2186 98.5715L-43.1275 4178.25L-66.005 47.9687Z" fill="url(#paint1_linear_8448_143300)" stroke="#4AFF85"/>
</g>
<defs>
<linearGradient id="paint0_linear_8448_143300" x1="948.5" y1="44.3541" x2="948.5" y2="4556" gradientUnits="userSpaceOnUse">
<stop stop-color="#BAFFD9" stop-opacity="0.31"/>
<stop offset="0.546875" stop-color="#C8FFE1"/>
<stop offset="1" stop-color="#ECFFE9"/>
</linearGradient>
<linearGradient id="paint1_linear_8448_143300" x1="916.001" y1="-50.9184" x2="916.001" y2="4461.46" gradientUnits="userSpaceOnUse">
<stop stop-color="#BAFFD9" stop-opacity="0.31"/>
<stop offset="0.546875" stop-color="#BAFFD9"/>
<stop offset="1" stop-color="#ECFFE9"/>
</linearGradient>
<clipPath id="clip0_8448_143300">
<rect width="373" height="4265" fill="white"/>
</clipPath>
</defs>
</svg>
