<!-- width="569" height="501" -->



<svg  preserveAspectRatio="none" viewBox="0 0 569 501" fill="none" xmlns="http://www.w3.org/2000/svg">
<path d="M539.677 266.604C539.677 390.434 436.06 500.47 299.392 500.47C162.724 500.47 17.9487 326.169 17.9487 202.339C49.8248 56.0314 191.351 136.518 429.399 54.4148C604.702 -6.04762 539.677 160.51 539.677 266.604Z" fill="url(#paint0_linear_6758_221218)"/>
<mask id="mask0_6758_221218" style="mask-type:alpha" maskUnits="userSpaceOnUse" x="-1" y="0" width="570" height="501">
<path d="M525.332 276.197C525.332 396.988 436.488 500.47 303.174 500.47C169.859 500.47 -78.9354 451.135 24.5561 172.403C55.65 29.685 207.428 121.001 436.55 15.9676C666.278 -60.3872 525.332 155.405 525.332 276.197Z" fill="url(#paint1_linear_6758_221218)"/>
</mask>
<g mask="url(#mask0_6758_221218)">
<g filter="url(#filter0_d_6758_221218)">
<path d="M343.897 406.67C347.51 396.971 356.047 388.591 366.364 387.594C360.161 396.99 357.488 408.274 358.816 419.448C359.344 423.756 360.381 428.492 358.055 432.159C356.607 434.44 354.057 435.845 351.428 436.478C348.798 437.112 346.059 437.063 343.354 437.01L342.749 437.309C340.847 427.136 340.284 416.369 343.897 406.67Z" fill="#F0F0F0"/>
<path d="M366.412 387.802C359.38 392.707 354.074 399.7 351.248 407.787C350.653 409.524 350.201 411.337 350.175 413.18C350.164 414.978 350.635 416.745 351.539 418.3C352.352 419.766 353.355 421.172 353.798 422.81C354.264 424.536 353.884 426.283 352.931 427.775C351.765 429.6 350.011 430.898 348.252 432.108C346.299 433.451 344.249 434.816 343.054 436.926C342.909 437.182 342.52 436.943 342.664 436.687C344.744 433.016 349.107 431.682 351.777 428.563C353.022 427.108 353.836 425.269 353.451 423.332C353.114 421.637 352.082 420.187 351.245 418.709C350.366 417.158 349.792 415.548 349.725 413.753C349.657 411.917 350.039 410.083 350.586 408.339C351.858 404.394 353.743 400.673 356.172 397.312C358.923 393.461 362.314 390.109 366.197 387.399C366.438 387.232 366.651 387.635 366.412 387.802V387.802Z" fill="white"/>
<path d="M352.005 405.133C350.71 404.475 349.692 403.38 349.131 402.042C348.571 400.704 348.505 399.21 348.946 397.828C349.036 397.549 349.475 397.676 349.385 397.955C348.972 399.242 349.033 400.633 349.558 401.877C350.082 403.122 351.035 404.139 352.244 404.744C352.507 404.876 352.266 405.264 352.005 405.133Z" fill="white"/>
<path d="M351.029 417.611C353.86 416.718 356.251 414.793 357.723 412.218C357.869 411.963 358.258 412.202 358.113 412.457C356.575 415.133 354.083 417.132 351.135 418.055C350.854 418.143 350.749 417.698 351.029 417.611V417.611Z" fill="white"/>
<path d="M359.237 393.986C359.685 394.345 360.215 394.587 360.78 394.691C361.345 394.794 361.926 394.756 362.473 394.58C362.752 394.488 362.857 394.933 362.579 395.023C361.974 395.215 361.332 395.257 360.708 395.144C360.083 395.031 359.497 394.767 358.998 394.375C358.948 394.342 358.912 394.291 358.899 394.233C358.885 394.175 358.893 394.113 358.923 394.061C358.955 394.01 359.006 393.973 359.065 393.959C359.124 393.945 359.186 393.955 359.237 393.986V393.986Z" fill="white"/>
<path d="M391.23 412.319C391.057 412.381 390.884 412.443 390.71 412.509C388.387 413.353 386.136 414.385 383.98 415.594C383.812 415.685 383.643 415.779 383.478 415.875C378.315 418.842 373.749 422.741 370.012 427.372C368.527 429.217 367.184 431.171 365.996 433.219C364.354 436.047 362.801 439.244 360.39 441.305C360.141 441.523 359.879 441.725 359.605 441.911L343.161 438.026C343.128 437.998 343.094 437.974 343.061 437.947L342.397 437.822C342.451 437.712 342.509 437.599 342.563 437.489C342.594 437.425 342.629 437.362 342.66 437.298C342.682 437.256 342.704 437.214 342.721 437.174C342.728 437.16 342.735 437.146 342.742 437.136C342.759 437.096 342.779 437.061 342.796 437.026C343.12 436.394 343.449 435.764 343.783 435.135C343.784 435.131 343.784 435.131 343.788 435.128C346.345 430.341 349.325 425.725 352.912 421.707C353.02 421.586 353.129 421.461 353.244 421.342C354.871 419.54 356.643 417.874 358.541 416.36C359.584 415.534 360.667 414.762 361.788 414.046C364.687 412.201 367.859 410.822 371.187 409.961C377.822 408.246 384.932 408.668 390.786 412.056C390.935 412.142 391.081 412.228 391.23 412.319Z" fill="#F0F0F0"/>
<path d="M391.143 412.517C382.57 412.206 374.116 414.6 366.983 419.359C365.461 420.388 364.007 421.564 362.874 423.02C361.781 424.449 361.091 426.143 360.876 427.927C360.641 429.587 360.594 431.312 359.96 432.886C359.291 434.545 357.934 435.711 356.273 436.33C354.241 437.086 352.058 437.068 349.924 436.977C347.555 436.875 345.095 436.733 342.868 437.699C342.598 437.816 342.432 437.392 342.702 437.275C346.576 435.593 350.864 437.151 354.876 436.265C356.748 435.852 358.507 434.873 359.368 433.095C360.121 431.539 360.171 429.76 360.394 428.078C360.628 426.311 361.14 424.68 362.169 423.207C363.222 421.7 364.633 420.465 366.122 419.402C369.516 417.016 373.265 415.178 377.232 413.955C381.75 412.534 386.48 411.895 391.214 412.066C391.507 412.077 391.434 412.528 391.143 412.517L391.143 412.517Z" fill="white"/>
<path d="M369.189 417.691C368.552 416.388 368.399 414.901 368.759 413.496C369.118 412.09 369.966 410.859 371.151 410.02C371.392 409.851 371.666 410.216 371.425 410.385C370.32 411.164 369.53 412.312 369.198 413.621C368.866 414.93 369.014 416.314 369.615 417.524C369.745 417.788 369.319 417.952 369.189 417.691V417.691Z" fill="white"/>
<path d="M360.883 427.067C363.683 428.056 366.752 427.956 369.481 426.786C369.751 426.669 369.917 427.094 369.647 427.21C366.806 428.423 363.611 428.521 360.7 427.485C360.423 427.386 360.607 426.969 360.883 427.067Z" fill="white"/>
<path d="M381.687 413.137C381.829 413.692 382.106 414.204 382.495 414.626C382.883 415.048 383.37 415.367 383.913 415.555C384.191 415.65 384.007 416.068 383.73 415.973C383.132 415.763 382.594 415.41 382.164 414.944C381.733 414.479 381.424 413.915 381.262 413.303C381.242 413.247 381.244 413.185 381.268 413.13C381.292 413.075 381.336 413.031 381.392 413.008C381.448 412.986 381.511 412.987 381.566 413.011C381.622 413.036 381.665 413.081 381.687 413.137V413.137Z" fill="white"/>
<path d="M248.617 495.572C239.203 491.243 231.477 482.111 231.261 471.766C240.177 478.65 251.245 482.163 262.506 481.685C266.848 481.485 271.657 480.81 275.143 483.403C277.313 485.016 278.523 487.661 278.957 490.326C279.392 492.992 279.136 495.715 278.879 498.404L279.131 499.029C268.828 500.154 258.031 499.902 248.617 495.572Z" fill="#F0F0F0"/>
<path d="M231.475 471.729C235.843 479.101 242.427 484.911 250.291 488.335C251.98 489.058 253.757 489.645 255.596 489.81C257.391 489.957 259.192 489.622 260.812 488.839C262.338 488.14 263.818 487.248 265.487 486.931C267.247 486.597 268.963 487.107 270.381 488.169C272.116 489.468 273.28 491.312 274.356 493.154C275.55 495.2 276.758 497.344 278.775 498.693C279.02 498.856 278.751 499.225 278.507 499.062C274.997 496.715 273.995 492.27 271.081 489.377C269.722 488.027 267.947 487.078 265.982 487.315C264.265 487.523 262.738 488.441 261.199 489.163C259.584 489.92 257.932 490.37 256.135 490.301C254.296 490.231 252.492 489.712 250.792 489.035C246.948 487.472 243.373 485.314 240.2 482.642C236.562 479.612 233.47 475.984 231.057 471.913C230.908 471.661 231.327 471.479 231.475 471.729H231.475Z" fill="white"/>
<path d="M247.693 487.384C246.939 488.623 245.768 489.554 244.389 490.011C243.011 490.468 241.514 490.421 240.167 489.878C239.895 489.767 240.055 489.339 240.327 489.45C241.581 489.958 242.975 490.002 244.258 489.574C245.54 489.146 246.628 488.274 247.324 487.116C247.475 486.865 247.844 487.134 247.693 487.384Z" fill="white"/>
<path d="M260.086 489.303C259.408 486.416 257.665 483.891 255.205 482.231C254.961 482.066 255.229 481.697 255.473 481.861C258.03 483.594 259.838 486.226 260.537 489.231C260.603 489.517 260.152 489.588 260.086 489.303Z" fill="white"/>
<path d="M237.103 479.343C237.495 478.924 237.777 478.414 237.923 477.86C238.069 477.306 238.075 476.724 237.94 476.167C237.87 475.881 238.321 475.811 238.391 476.095C238.537 476.711 238.53 477.354 238.37 477.966C238.21 478.579 237.902 479.144 237.473 479.61C237.436 479.658 237.383 479.689 237.324 479.699C237.264 479.708 237.204 479.695 237.154 479.661C237.105 479.625 237.072 479.572 237.063 479.512C237.053 479.453 237.068 479.392 237.103 479.343Z" fill="white"/>
<path d="M257.83 448.875C257.879 449.052 257.927 449.229 257.98 449.407C258.648 451.784 259.509 454.102 260.553 456.34C260.631 456.514 260.713 456.69 260.796 456.861C263.37 462.225 266.919 467.065 271.263 471.135C272.992 472.753 274.843 474.237 276.799 475.575C279.499 477.422 282.575 479.211 284.451 481.766C284.65 482.03 284.832 482.306 284.997 482.593L279.875 498.67C279.845 498.701 279.819 498.733 279.789 498.764L279.613 499.415C279.508 499.353 279.399 499.287 279.294 499.225C279.232 499.189 279.172 499.15 279.111 499.114C279.07 499.089 279.029 499.064 278.991 499.044C278.978 499.036 278.964 499.027 278.954 499.02C278.916 499 278.883 498.977 278.849 498.958C278.242 498.588 277.638 498.213 277.035 497.833C277.031 497.832 277.031 497.832 277.028 497.827C272.44 494.92 268.055 491.605 264.313 487.731C264.2 487.614 264.084 487.496 263.974 487.372C262.297 485.617 260.766 483.727 259.397 481.723C258.652 480.622 257.962 479.485 257.331 478.316C255.707 475.29 254.57 472.029 253.961 468.65C252.749 461.916 253.707 454.869 257.533 449.298C257.631 449.155 257.728 449.016 257.83 448.875Z" fill="#F0F0F0"/>
<path d="M258.023 448.98C257.065 457.492 258.818 466.088 263.032 473.549C263.945 475.141 265.01 476.678 266.379 477.915C267.723 479.112 269.363 479.927 271.129 480.276C272.769 480.634 274.488 480.812 276.012 481.562C277.619 482.353 278.681 483.792 279.173 485.492C279.775 487.572 279.592 489.744 279.34 491.862C279.06 494.213 278.731 496.651 279.529 498.941C279.625 499.218 279.188 499.351 279.092 499.074C277.705 495.091 279.585 490.939 279.003 486.878C278.732 484.983 277.887 483.158 276.176 482.167C274.679 481.3 272.906 481.115 271.243 480.767C269.496 480.4 267.906 479.767 266.512 478.631C265.086 477.47 263.959 475.972 263.01 474.409C260.883 470.85 259.33 466.979 258.408 462.938C257.33 458.332 257.05 453.576 257.578 448.875C257.611 448.584 258.055 448.691 258.023 448.98V448.98Z" fill="white"/>
<path d="M261.534 471.228C260.184 471.764 258.688 471.803 257.312 471.339C255.935 470.875 254.769 469.938 254.021 468.695C253.871 468.443 254.256 468.197 254.407 468.45C255.101 469.609 256.187 470.482 257.47 470.911C258.752 471.341 260.146 471.298 261.4 470.792C261.673 470.682 261.805 471.118 261.534 471.228Z" fill="white"/>
<path d="M270.273 480.203C271.473 477.491 271.604 474.427 270.641 471.623C270.546 471.345 270.982 471.211 271.078 471.489C272.074 474.409 271.931 477.597 270.677 480.416C270.557 480.685 270.154 480.47 270.273 480.203Z" fill="white"/>
<path d="M257.927 458.438C258.492 458.34 259.024 458.102 259.475 457.747C259.926 457.393 260.282 456.931 260.51 456.406C260.626 456.136 261.029 456.351 260.914 456.619C260.659 457.199 260.265 457.708 259.768 458.101C259.271 458.494 258.685 458.76 258.061 458.874C258.003 458.89 257.941 458.883 257.888 458.855C257.835 458.827 257.795 458.78 257.775 458.723C257.758 458.665 257.764 458.603 257.792 458.55C257.821 458.496 257.869 458.456 257.927 458.438Z" fill="white"/>
<path d="M270.293 438.401C261.974 430.226 258.461 421.696 260.4 414.385C262.888 405.002 273.941 398.515 290.725 396.586L290.787 397.124C274.236 399.026 263.352 405.368 260.924 414.523C259.037 421.639 262.5 429.982 270.674 438.015L270.293 438.401Z" fill="#F0F0F0"/>
<path d="M350.553 467.425C340.171 467.425 328.889 465.885 317.682 462.923C303.824 459.26 291.118 453.731 280.937 446.935L281.238 446.484C291.37 453.248 304.02 458.752 317.821 462.399C330.293 465.696 342.857 467.223 354.153 466.82L354.173 467.361C352.98 467.404 351.773 467.425 350.553 467.425Z" fill="#F0F0F0"/>
<path d="M366.281 462.098L366.107 461.585C375.392 458.45 381.2 453.401 382.902 446.983C385.065 438.824 380.365 429.355 369.667 420.322C358.914 411.243 343.408 403.709 326.004 399.11L326.143 398.586C343.623 403.206 359.204 410.778 370.017 419.908C380.884 429.084 385.647 438.749 383.426 447.122C381.676 453.724 375.747 458.903 366.281 462.098Z" fill="#F0F0F0"/>
<path d="M289.109 467.65C268.709 458.617 252.989 446.898 244.846 434.651L245.298 434.352C253.385 446.514 269.022 458.163 289.329 467.155L289.109 467.65Z" fill="#F0F0F0"/>
<path d="M360.835 483.294C358.731 483.294 356.591 483.247 354.415 483.153L354.438 482.612C370.677 483.314 385.005 481.374 395.876 477L396.079 477.503C386.596 481.317 374.509 483.294 360.835 483.294Z" fill="#F0F0F0"/>
<path d="M348.998 397.07C345.626 395.974 342.158 394.954 338.69 394.037C318.732 388.762 299.112 386.889 281.953 388.622L281.898 388.083C299.122 386.344 318.808 388.222 338.829 393.513C342.307 394.433 345.785 395.456 349.166 396.555L348.998 397.07Z" fill="#F0F0F0"/>
<path d="M257.543 439.214C249.224 431.038 245.711 422.509 247.65 415.197C250.138 405.814 261.191 399.327 277.975 397.398L278.037 397.937C261.486 399.838 250.602 406.18 248.174 415.336C246.287 422.451 249.75 430.794 257.924 438.828L257.543 439.214Z" fill="#F0F0F0"/>
<path d="M337.803 468.23C327.421 468.23 316.139 466.689 304.933 463.727C291.075 460.065 278.368 454.536 268.188 447.739L268.489 447.289C278.621 454.053 291.271 459.556 305.072 463.204C317.543 466.5 330.108 468.028 341.404 467.624L341.423 468.166C340.23 468.208 339.024 468.23 337.803 468.23Z" fill="#F0F0F0"/>
<path d="M361.621 464.824L361.448 464.311C370.733 461.177 376.541 456.128 378.243 449.709C380.406 441.55 375.706 432.082 365.008 423.049C354.255 413.969 338.749 406.436 321.345 401.836L321.484 401.312C338.963 405.932 354.545 413.505 365.358 422.635C376.225 431.811 380.987 441.475 378.767 449.848C377.016 456.451 371.087 461.629 361.621 464.824Z" fill="#F0F0F0"/>
<path d="M348.085 479.059C345.981 479.059 343.841 479.013 341.665 478.919L341.688 478.378C357.928 479.08 372.256 477.139 383.127 472.766L383.33 473.268C373.847 477.083 361.76 479.059 348.085 479.059Z" fill="#F0F0F0"/>
<path d="M336.248 397.883C332.877 396.787 329.408 395.766 325.94 394.85C305.982 389.574 286.363 387.702 269.203 389.434L269.148 388.895C286.372 387.157 306.059 389.034 326.079 394.326C329.557 395.245 333.035 396.269 336.416 397.368L336.248 397.883Z" fill="#F0F0F0"/>
<path d="M282.351 438.102C281.236 438.103 280.168 438.545 279.379 439.332C278.591 440.119 278.148 441.186 278.147 442.299C276.548 454.051 276.014 465.922 276.551 477.769C276.583 478.525 276.619 479.217 276.66 479.885C276.719 480.987 276.795 482.151 276.885 483.344C276.936 484.048 276.991 484.754 277.05 485.458C277.15 486.604 277.259 487.769 277.376 488.92C277.449 489.623 277.525 490.329 277.606 491.033C277.762 492.415 277.938 493.831 278.145 495.363C278.143 496.479 278.585 497.55 279.374 498.341C280.163 499.131 281.234 499.577 282.351 499.579H352.881C353.996 499.578 355.065 499.135 355.853 498.348C356.641 497.561 357.084 496.494 357.086 495.381L357.089 495.352C357.403 493.923 357.696 492.467 357.959 491.024C358.099 490.263 358.221 489.572 358.33 488.911C358.528 487.708 358.704 486.544 358.853 485.451C358.955 484.717 359.047 484.006 359.127 483.338C359.258 482.244 359.377 481.113 359.49 479.88C359.551 479.21 359.608 478.519 359.663 477.765V477.765C360.525 465.891 359.658 453.954 357.089 442.328L357.086 442.299C357.084 441.186 356.641 440.119 355.853 439.332C355.065 438.545 353.996 438.103 352.881 438.102L282.351 438.102Z" fill="#305344"/>
<path d="M320.355 456.071C305.073 456.071 288.879 454.685 267.685 451.911H267.683C266.585 451.909 265.525 451.503 264.708 450.77C263.891 450.037 263.373 449.028 263.255 447.937C263.236 447.773 263.226 447.608 263.227 447.443V434.714C263.227 434.687 263.228 434.66 263.231 434.633C263.255 433.463 263.736 432.35 264.572 431.53C265.407 430.71 266.531 430.249 267.703 430.246C304.575 425.241 326.974 425.241 367.547 430.247H367.548C368.719 430.255 369.841 430.719 370.673 431.542C371.506 432.364 371.983 433.479 372.003 434.648C372.006 434.67 372.006 434.692 372.006 434.714V447.443C372.006 447.609 371.997 447.774 371.978 447.939C371.858 449.032 371.337 450.043 370.516 450.776C369.695 451.509 368.632 451.914 367.53 451.912C350.001 454.684 335.633 456.071 320.355 456.071Z" fill="#F9D126"/>
<path d="M322.806 464.918H313.534C312.354 464.917 311.222 464.448 310.388 463.615C309.553 462.782 309.084 461.652 309.083 460.474V426.842C309.084 425.664 309.553 424.535 310.388 423.702C311.222 422.868 312.354 422.4 313.534 422.398H322.806C323.986 422.4 325.118 422.868 325.952 423.702C326.787 424.535 327.256 425.664 327.258 426.842V460.474C327.256 461.652 326.787 462.782 325.952 463.615C325.118 464.448 323.986 464.917 322.806 464.918Z" fill="#EA5455"/>
<path d="M343.857 415.963C343.79 415.333 343.671 414.709 343.503 414.097C343.322 413.485 343.092 412.888 342.816 412.311C341.827 410.192 340.158 408.462 338.074 407.396C335.488 406.125 332.53 406.021 329.749 406.633C327.411 407.156 325.216 408.182 323.317 409.64C322.332 410.38 321.433 411.227 320.634 412.166C319.81 413.153 318.278 415.864 318.167 416.115C317.301 414.151 316.057 412.375 314.507 410.888C312.705 409.181 310.555 407.883 308.203 407.084C306.952 406.664 305.654 406.4 304.339 406.3C302.946 406.184 301.545 406.307 300.194 406.661C297.767 407.34 295.668 408.872 294.284 410.974C292.965 412.929 292.317 415.258 292.438 417.611C292.504 418.799 292.761 419.969 293.198 421.077C293.432 421.676 293.71 422.258 294.029 422.817C294.359 423.369 294.728 423.897 295.133 424.396C296.723 426.345 298.865 427.769 301.279 428.483C303.856 429.278 306.59 429.304 309.24 428.93C311.961 428.547 314.581 427.668 317.144 426.704C317.486 426.576 317.826 426.444 318.167 426.313C320.446 427.188 322.743 428.032 325.129 428.568C327.812 429.214 330.597 429.326 333.323 428.896C335.865 428.479 338.227 427.327 340.119 425.582C341.869 423.938 343.093 421.814 343.639 419.478C343.909 418.327 343.982 417.139 343.857 415.963ZM308.532 426.314C307.061 426.502 305.573 426.511 304.1 426.34C303.045 426.187 302.01 425.912 301.018 425.521C298.68 424.549 296.816 422.701 295.826 420.374C295.53 419.64 295.319 418.875 295.197 418.093C295.119 417.398 295.119 416.696 295.197 416C295.312 415.268 295.51 414.552 295.786 413.865C296.085 413.196 296.456 412.562 296.892 411.974C297.316 411.447 297.794 410.968 298.319 410.543C298.817 410.175 299.353 409.861 299.918 409.607C300.592 409.344 301.293 409.157 302.009 409.049C302.978 408.942 303.956 408.949 304.924 409.072C306.075 409.249 307.201 409.559 308.281 409.996C309.429 410.493 310.515 411.125 311.514 411.877C312.439 412.609 313.277 413.443 314.012 414.364C314.74 415.331 315.351 416.381 315.831 417.491C316.298 418.65 316.626 419.86 316.808 421.096L316.81 421.114C316.739 421.734 316.704 422.359 316.704 422.984C316.704 423.224 316.715 423.465 316.727 423.705C316.612 423.815 316.517 423.943 316.444 424.085C314.555 424.825 312.618 425.438 310.646 425.92C309.948 426.082 309.243 426.213 308.532 426.314ZM341.143 418.093C341.021 418.875 340.81 419.64 340.514 420.374C339.529 422.704 337.663 424.554 335.322 425.521C334.33 425.912 333.295 426.187 332.24 426.34C330.764 426.511 329.273 426.502 327.8 426.313C325.183 425.939 322.658 425.115 320.188 424.194C320.087 424.156 319.986 424.116 319.884 424.078C319.815 423.939 319.724 423.812 319.614 423.703C319.657 422.831 319.63 421.956 319.533 421.089C319.715 419.855 320.043 418.648 320.509 417.491C320.989 416.381 321.6 415.331 322.328 414.364C323.063 413.443 323.901 412.609 324.826 411.877C325.825 411.125 326.911 410.493 328.059 409.996C329.139 409.559 330.265 409.249 331.416 409.072C332.384 408.949 333.362 408.942 334.331 409.049C335.047 409.157 335.748 409.344 336.422 409.607C336.987 409.861 337.523 410.175 338.021 410.543C338.546 410.968 339.024 411.447 339.448 411.974C339.884 412.562 340.255 413.196 340.554 413.865C340.83 414.552 341.028 415.268 341.143 416C341.221 416.696 341.221 417.397 341.143 418.093Z" fill="#EA5455"/>
<path d="M289.947 466.398C290.846 466.398 291.575 465.671 291.575 464.773C291.575 463.876 290.846 463.148 289.947 463.148C289.048 463.148 288.319 463.876 288.319 464.773C288.319 465.671 289.048 466.398 289.947 466.398Z" fill="#F9D126"/>
<path d="M301.612 462.336C302.511 462.336 303.24 461.608 303.24 460.711C303.24 459.813 302.511 459.086 301.612 459.086C300.713 459.086 299.984 459.813 299.984 460.711C299.984 461.608 300.713 462.336 301.612 462.336Z" fill="#F9D126"/>
<path d="M296.457 475.07C297.356 475.07 298.085 474.343 298.085 473.445C298.085 472.548 297.356 471.82 296.457 471.82C295.558 471.82 294.83 472.548 294.83 473.445C294.83 474.343 295.558 475.07 296.457 475.07Z" fill="#F9D126"/>
<path d="M344.743 466.398C345.642 466.398 346.37 465.671 346.37 464.773C346.37 463.876 345.642 463.148 344.743 463.148C343.844 463.148 343.115 463.876 343.115 464.773C343.115 465.671 343.844 466.398 344.743 466.398Z" fill="#F9D126"/>
<path d="M333.078 462.336C333.977 462.336 334.706 461.608 334.706 460.711C334.706 459.813 333.977 459.086 333.078 459.086C332.179 459.086 331.451 459.813 331.451 460.711C331.451 461.608 332.179 462.336 333.078 462.336Z" fill="#F9D126"/>
<path d="M338.233 475.07C339.131 475.07 339.86 474.343 339.86 473.445C339.86 472.548 339.131 471.82 338.233 471.82C337.334 471.82 336.605 472.548 336.605 473.445C336.605 474.343 337.334 475.07 338.233 475.07Z" fill="#F9D126"/>
<path d="M346.099 494.836C346.998 494.836 347.727 494.108 347.727 493.211C347.727 492.313 346.998 491.586 346.099 491.586C345.2 491.586 344.472 492.313 344.472 493.211C344.472 494.108 345.2 494.836 346.099 494.836Z" fill="#F9D126"/>
<path d="M350.169 483.195C351.068 483.195 351.796 482.468 351.796 481.57C351.796 480.673 351.068 479.945 350.169 479.945C349.27 479.945 348.541 480.673 348.541 481.57C348.541 482.468 349.27 483.195 350.169 483.195Z" fill="#F9D126"/>
<path d="M337.419 488.344C338.318 488.344 339.047 487.616 339.047 486.719C339.047 485.821 338.318 485.094 337.419 485.094C336.52 485.094 335.792 485.821 335.792 486.719C335.792 487.616 336.52 488.344 337.419 488.344Z" fill="#F9D126"/>
<path d="M299.441 494.836C300.34 494.836 301.068 494.108 301.068 493.211C301.068 492.313 300.34 491.586 299.441 491.586C298.542 491.586 297.813 492.313 297.813 493.211C297.813 494.108 298.542 494.836 299.441 494.836Z" fill="#F9D126"/>
<path d="M303.51 483.195C304.409 483.195 305.138 482.468 305.138 481.57C305.138 480.673 304.409 479.945 303.51 479.945C302.612 479.945 301.883 480.673 301.883 481.57C301.883 482.468 302.612 483.195 303.51 483.195Z" fill="#F9D126"/>
<path d="M290.761 488.344C291.66 488.344 292.389 487.616 292.389 486.719C292.389 485.821 291.66 485.094 290.761 485.094C289.862 485.094 289.133 485.821 289.133 486.719C289.133 487.616 289.862 488.344 290.761 488.344Z" fill="#F9D126"/>
<path d="M337.525 380.075C338.142 380.332 338.814 380.426 339.477 380.348C340.14 380.27 340.772 380.023 341.312 379.631C342.689 378.606 343.205 376.816 343.637 375.158L344.914 370.25L342.757 371.557C341.207 372.497 339.62 373.468 338.501 374.895C337.381 376.321 336.815 378.321 337.553 379.976" fill="#F2F2F2"/>
<path d="M279.852 421.996C280.268 421.475 280.543 420.855 280.65 420.197C280.756 419.539 280.691 418.864 280.461 418.238C279.851 416.636 278.269 415.65 276.789 414.781L272.411 412.211L273.08 414.639C273.56 416.386 274.061 418.175 275.129 419.641C276.197 421.106 277.968 422.198 279.765 421.943" fill="#F2F2F2"/>
<path d="M382.662 497.559C383.079 497.037 383.353 496.418 383.46 495.759C383.567 495.101 383.502 494.427 383.272 493.801C382.661 492.198 381.079 491.213 379.6 490.344L375.222 487.773L375.89 490.202C376.371 491.948 376.872 493.738 377.94 495.203C379.007 496.669 380.778 497.76 382.575 497.505" fill="#F2F2F2"/>
<path d="M299.983 401.677C301.182 401.677 302.153 400.707 302.153 399.51C302.153 398.314 301.182 397.344 299.983 397.344C298.785 397.344 297.813 398.314 297.813 399.51C297.813 400.707 298.785 401.677 299.983 401.677Z" fill="#039F00"/>
<path d="M242.203 465.591C243.402 465.591 244.374 464.621 244.374 463.424C244.374 462.228 243.402 461.258 242.203 461.258C241.005 461.258 240.033 462.228 240.033 463.424C240.033 464.621 241.005 465.591 242.203 465.591Z" fill="#FD6584"/>
<path d="M391.401 447.989C392.599 447.989 393.571 447.019 393.571 445.823C393.571 444.626 392.599 443.656 391.401 443.656C390.202 443.656 389.23 444.626 389.23 445.823C389.23 447.019 390.202 447.989 391.401 447.989Z" fill="#28C76F"/>
<path d="M240.033 411.154C241.232 411.154 242.204 410.184 242.204 408.987C242.204 407.79 241.232 406.82 240.033 406.82C238.835 406.82 237.863 407.79 237.863 408.987C237.863 410.184 238.835 411.154 240.033 411.154Z" fill="#E6E6E6"/>
<path d="M369.555 472.904C370.754 472.904 371.726 471.934 371.726 470.737C371.726 469.54 370.754 468.57 369.555 468.57C368.357 468.57 367.385 469.54 367.385 470.737C367.385 471.934 368.357 472.904 369.555 472.904Z" fill="#E6E6E6"/>
<path d="M371.765 407.396C372.963 407.396 373.935 406.426 373.935 405.229C373.935 404.033 372.963 403.062 371.765 403.062C370.566 403.062 369.595 404.033 369.595 405.229C369.595 406.426 370.566 407.396 371.765 407.396Z" fill="#A9D5BC"/>
<path d="M283.498 441.555C283.31 441.851 282.856 441.808 282.6 441.623C282.246 441.366 282.36 440.871 282.605 440.578C283.381 439.648 284.664 440.63 284.837 441.553C284.901 442.004 284.832 442.463 284.637 442.874C284.443 443.286 284.131 443.631 283.742 443.867C282.857 444.391 281.707 444.128 280.945 443.501C279.357 442.194 279.79 439.575 281.554 438.629C282.679 438.025 284.102 438.29 285.211 438.796C286.459 439.365 287.533 440.238 288.687 440.966C291.22 442.548 294.085 443.525 297.058 443.819C297.579 443.872 297.575 443.06 297.058 443.007C295.41 442.837 293.793 442.448 292.248 441.851C290.72 441.232 289.269 440.437 287.926 439.482C286.567 438.552 285.147 437.649 283.465 437.495C282.786 437.416 282.099 437.517 281.472 437.79C280.845 438.062 280.302 438.495 279.897 439.045C279.537 439.537 279.297 440.105 279.193 440.706C279.09 441.306 279.128 441.922 279.303 442.506C279.515 443.116 279.884 443.659 280.374 444.081C280.864 444.502 281.458 444.786 282.093 444.904C282.706 445.019 283.338 444.941 283.904 444.68C284.469 444.42 284.939 443.989 285.248 443.449C285.867 442.38 285.847 440.944 284.912 440.058C284.644 439.786 284.308 439.59 283.939 439.49C283.571 439.389 283.182 439.389 282.813 439.488C282.473 439.603 282.173 439.814 281.952 440.095C281.73 440.377 281.595 440.717 281.564 441.075C281.474 442.462 283.447 443.156 284.201 441.965C284.481 441.522 283.777 441.114 283.498 441.555L283.498 441.555Z" fill="#3F3D56"/>
<path d="M353.091 441.555C353.278 441.851 353.733 441.808 353.989 441.623C354.343 441.366 354.228 440.871 353.984 440.578C353.208 439.648 351.925 440.63 351.752 441.553C351.687 442.004 351.757 442.463 351.951 442.874C352.146 443.286 352.457 443.631 352.847 443.867C353.732 444.391 354.882 444.128 355.643 443.501C357.231 442.194 356.799 439.575 355.035 438.629C353.91 438.025 352.487 438.29 351.378 438.796C350.129 439.365 349.056 440.238 347.902 440.966C345.369 442.548 342.504 443.525 339.531 443.819C339.01 443.872 339.014 443.06 339.531 443.007C341.178 442.837 342.796 442.448 344.341 441.851C345.869 441.232 347.32 440.437 348.663 439.482C350.022 438.552 351.442 437.649 353.124 437.495C353.803 437.416 354.49 437.517 355.117 437.79C355.744 438.062 356.287 438.495 356.691 439.045C357.051 439.537 357.292 440.105 357.395 440.706C357.498 441.306 357.461 441.922 357.285 442.506C357.074 443.116 356.704 443.659 356.214 444.081C355.724 444.502 355.131 444.786 354.495 444.904C353.883 445.019 353.25 444.941 352.685 444.68C352.119 444.42 351.65 443.989 351.341 443.449C350.722 442.38 350.742 440.944 351.677 440.058C351.945 439.786 352.281 439.59 352.649 439.49C353.018 439.389 353.407 439.389 353.776 439.488C354.116 439.603 354.415 439.814 354.637 440.095C354.859 440.377 354.994 440.717 355.025 441.075C355.115 442.462 353.142 443.156 352.388 441.965C352.107 441.522 352.811 441.114 353.091 441.555L353.091 441.555Z" fill="#3F3D56"/>
<path d="M255.178 380.097L254.103 381.443L250.301 379.198L251.376 377.852L255.178 380.097Z" fill="#FFED9F"/>
<path d="M260.961 385.883L261.91 387.297L257.916 389.281L256.967 387.866L260.961 385.883Z" fill="#FBE897"/>
<path d="M265.095 379.734L266.992 379.801L266.803 383.765L264.906 383.698L265.095 379.734Z" fill="#FFE89F"/>
<path d="M389.456 462.972L388.381 464.318L384.579 462.073L385.654 460.727L389.456 462.972Z" fill="#E4E4E4"/>
<path d="M393.422 468.758L394.372 470.172L390.378 472.156L389.429 470.741L393.422 468.758Z" fill="#E4E4E4"/>
<path d="M397.556 462.609L399.453 462.676L399.264 466.64L397.367 466.573L397.556 462.609Z" fill="#E4E4E4"/>
<path fill-rule="evenodd" clip-rule="evenodd" d="M302.855 480.879C302.855 472.519 309.633 465.742 317.992 465.742C326.351 465.742 333.129 472.519 333.129 480.879C333.129 489.238 326.351 496.015 317.992 496.015C309.633 496.015 302.855 489.238 302.855 480.879ZM312.488 472.622C312.123 472.622 311.773 472.767 311.515 473.025C311.257 473.284 311.112 473.634 311.112 473.998C311.112 474.363 311.257 474.713 311.515 474.971C311.773 475.23 312.123 475.375 312.488 475.375H316.616C317.084 475.375 317.816 475.526 318.391 475.941C318.652 476.129 318.903 476.383 319.086 476.751H312.484C312.119 476.751 311.769 476.896 311.511 477.154C311.253 477.412 311.108 477.762 311.108 478.127C311.108 478.492 311.253 478.842 311.511 479.1C311.769 479.358 312.119 479.503 312.484 479.503H319.086C318.925 479.826 318.687 480.104 318.392 480.312C317.869 480.671 317.251 480.868 316.616 480.879H312.484C312.198 480.879 311.92 480.967 311.688 481.132C311.455 481.297 311.279 481.53 311.185 481.799C311.09 482.068 311.082 482.36 311.16 482.634C311.239 482.908 311.401 483.151 311.624 483.329L318.508 488.834C318.649 488.947 318.811 489.031 318.985 489.081C319.158 489.131 319.34 489.147 319.52 489.127C319.699 489.107 319.873 489.052 320.032 488.965C320.19 488.878 320.33 488.76 320.443 488.619C320.556 488.478 320.64 488.316 320.69 488.142C320.74 487.969 320.756 487.787 320.736 487.607C320.716 487.427 320.661 487.254 320.574 487.095C320.487 486.937 320.369 486.797 320.228 486.684L316.407 483.631H316.613C317.523 483.631 318.855 483.369 319.998 482.545C321.017 481.816 321.723 480.73 321.977 479.503H323.496C323.861 479.503 324.211 479.358 324.469 479.1C324.727 478.842 324.872 478.492 324.872 478.127C324.872 477.762 324.727 477.412 324.469 477.154C324.211 476.896 323.861 476.751 323.496 476.751H321.977C321.874 476.27 321.704 475.807 321.472 475.375H323.496C323.861 475.375 324.211 475.23 324.469 474.971C324.727 474.713 324.872 474.363 324.872 473.998C324.872 473.634 324.727 473.284 324.469 473.025C324.211 472.767 323.861 472.622 323.496 472.622H312.488Z" fill="#3FE97C"/>
</g>
</g>
<defs>
<filter id="filter0_d_6758_221218" x="231.025" y="370.25" width="170.119" height="131.042" filterUnits="userSpaceOnUse" color-interpolation-filters="sRGB">
<feFlood flood-opacity="0" result="BackgroundImageFix"/>
<feColorMatrix in="SourceAlpha" type="matrix" values="0 0 0 0 0 0 0 0 0 0 0 0 0 0 0 0 0 0 127 0" result="hardAlpha"/>
<feOffset dx="1.69083" dy="1.69083"/>
<feComposite in2="hardAlpha" operator="out"/>
<feColorMatrix type="matrix" values="0 0 0 0 0.00731134 0 0 0 0 0.3875 0 0 0 0 0 0 0 0 0.4 0"/>
<feBlend mode="normal" in2="BackgroundImageFix" result="effect1_dropShadow_6758_221218"/>
<feBlend mode="normal" in="SourceGraphic" in2="effect1_dropShadow_6758_221218" result="shape"/>
</filter>
<linearGradient id="paint0_linear_6758_221218" x1="2023.51" y1="-1690.76" x2="2345.84" y2="-1326.12" gradientUnits="userSpaceOnUse">
<stop stop-color="#89FFD1"/>
<stop offset="1" stop-color="#BFFF9E"/>
</linearGradient>
<linearGradient id="paint1_linear_6758_221218" x1="1984.99" y1="-1636.99" x2="2299.41" y2="-1281.29" gradientUnits="userSpaceOnUse">
<stop stop-color="#89FFD1"/>
<stop offset="1" stop-color="#BFFF9E"/>
</linearGradient>
</defs>
</svg>
