<svg width="1440" height="952" viewBox="0 0 1440 952" fill="none" xmlns="http://www.w3.org/2000/svg">
<g opacity="0.4">
<path d="M0 1H1440V532.5C1440 532.5 1206.42 924.918 999 752.794C791.578 580.669 720.5 1043.95 500 845C279.5 646.055 0 948.5 0 948.5V1Z" fill="url(#paint0_linear_6790_201133)"/>
<path d="M0 0.5H-0.5V1V948.5V949.778L0.367208 948.839L0 948.5C0.367208 948.839 0.368155 948.838 0.370165 948.836L0.379502 948.826L0.41726 948.785C0.450893 948.749 0.50142 948.695 0.568681 948.623C0.703203 948.479 0.904658 948.264 1.17175 947.982C1.70595 947.417 2.50271 946.582 3.5517 945.5C5.64969 943.336 8.75657 940.188 12.7897 936.251C20.8561 928.376 32.627 917.347 47.4413 904.732C77.072 879.502 118.869 847.938 167.543 822.589C264.901 771.888 389.643 746.104 499.665 845.371C527.267 870.275 552.56 884.843 576.104 891.578C599.655 898.315 621.43 897.205 641.972 890.795C683.019 877.987 719.142 844.012 754.753 809.313C756.533 807.578 758.312 805.842 760.09 804.106C793.93 771.075 827.511 738.296 864.723 723.025C884.286 714.997 904.841 711.815 926.957 715.988C949.078 720.163 972.8 731.702 998.681 753.179C1050.66 796.316 1104.32 804.094 1155.53 791.473C1206.71 778.861 1255.43 745.883 1297.62 707.564C1339.81 669.239 1375.51 625.537 1400.66 591.423C1413.24 574.364 1423.18 559.7 1429.98 549.299C1433.38 544.099 1435.99 539.964 1437.75 537.129C1438.31 536.231 1438.78 535.463 1439.17 534.833C1439.39 534.469 1439.59 534.151 1439.75 533.88C1439.98 533.511 1440.14 533.23 1440.26 533.042L1440.39 532.828L1440.42 532.774L1440.43 532.76C1440.43 532.757 1440.43 532.756 1440 532.5L1440.43 532.756L1440.5 532.638V532.5V1V0.5H1440H0Z" stroke="#4AFF85" stroke-opacity="0.6"/>
</g>
<g opacity="0.6">
<path d="M0 1H1440V532.5C1440 532.5 1206.42 924.918 999 752.794C791.578 580.669 732.5 1032.27 500 822.5C267.5 612.728 0 926 0 926V1Z" fill="url(#paint1_linear_6790_201133)"/>
<path d="M0 0.5H-0.5V1V926V927.356L0.380239 926.325L0 926C0.380239 926.325 0.381139 926.324 0.383056 926.321L0.391982 926.311L0.428102 926.269C0.460284 926.231 0.508646 926.175 0.573042 926.101C0.701836 925.952 0.89477 925.729 1.15069 925.437C1.66253 924.852 2.42631 923.987 3.4328 922.867C5.44579 920.627 8.42957 917.368 12.3103 913.294C20.0718 905.145 31.4207 893.735 45.766 880.699C74.4586 854.624 115.129 822.048 163.051 796.025C210.975 770.001 266.126 750.544 323.788 750.674C381.436 750.804 441.63 770.509 499.665 822.871C557.869 875.385 605.319 886.588 647.005 876.387C688.626 866.202 724.381 834.698 759.246 802.13C761.93 799.623 764.609 797.109 767.286 794.598C799.414 764.451 831.113 734.709 866.401 721.036C885.494 713.638 905.627 710.952 927.441 715.464C949.261 719.977 972.798 731.7 998.681 753.179C1050.66 796.316 1104.32 804.094 1155.53 791.473C1206.71 778.861 1255.43 745.883 1297.62 707.564C1339.81 669.239 1375.51 625.537 1400.66 591.423C1413.24 574.364 1423.18 559.7 1429.98 549.299C1433.38 544.099 1435.99 539.964 1437.75 537.129C1438.31 536.231 1438.78 535.463 1439.17 534.833C1439.39 534.469 1439.59 534.151 1439.75 533.88C1439.98 533.511 1440.14 533.23 1440.26 533.042L1440.39 532.828L1440.42 532.774L1440.43 532.76C1440.43 532.757 1440.43 532.756 1440 532.5L1440.43 532.756L1440.5 532.638V532.5V1V0.5H1440H0Z" stroke="#4AFF85" stroke-opacity="0.8"/>
</g>
<path d="M0 0.5H-0.5V1V906V907.454L0.394259 906.307L0 906C0.394259 906.307 0.395107 906.306 0.396921 906.304L0.405383 906.293L0.439654 906.25C0.470196 906.211 0.516108 906.152 0.577264 906.075C0.699575 905.92 0.882863 905.689 1.12613 905.385C1.61266 904.778 2.3391 903.879 3.29746 902.716C5.21419 900.39 8.05856 897.005 11.7667 892.775C19.183 884.316 30.0537 872.476 43.8677 858.962C71.4979 831.93 110.892 798.207 157.962 771.421C205.033 744.633 259.754 724.797 318.048 725.5C376.329 726.203 438.226 747.438 499.665 802.871C561.255 858.44 610.391 872.429 652.711 864.692C694.981 856.964 730.318 827.574 764.338 796.735C767.936 793.473 771.519 790.195 775.094 786.925C805.371 759.231 835.067 732.066 868.307 719.638C886.867 712.698 906.521 710.36 927.992 715.106C949.469 719.854 972.796 731.698 998.681 753.179C1050.66 796.316 1104.32 804.094 1155.53 791.473C1206.71 778.861 1255.43 745.883 1297.62 707.564C1339.81 669.239 1375.51 625.537 1400.66 591.423C1413.24 574.364 1423.18 559.7 1429.98 549.299C1433.38 544.099 1435.99 539.964 1437.75 537.129C1438.31 536.231 1438.78 535.463 1439.17 534.833C1439.39 534.469 1439.59 534.151 1439.75 533.88C1439.98 533.511 1440.14 533.23 1440.26 533.042L1440.39 532.828L1440.42 532.774L1440.43 532.76C1440.43 532.757 1440.43 532.756 1440 532.5L1440.43 532.756L1440.5 532.638V532.5V1V0.5H1440H0Z" fill="url(#paint2_linear_6790_201133)" stroke="#4AFF85"/>
<defs>
<linearGradient id="paint0_linear_6790_201133" x1="720" y1="1" x2="720" y2="888" gradientUnits="userSpaceOnUse">
<stop stop-color="#BAFFD9"/>
<stop offset="1" stop-color="#ECFFE9"/>
</linearGradient>
<linearGradient id="paint1_linear_6790_201133" x1="720" y1="1" x2="720" y2="888" gradientUnits="userSpaceOnUse">
<stop stop-color="#BAFFD9"/>
<stop offset="1" stop-color="#ECFFE9"/>
</linearGradient>
<linearGradient id="paint2_linear_6790_201133" x1="720" y1="-120.5" x2="720" y2="948.5" gradientUnits="userSpaceOnUse">
<stop stop-color="#BAFFD9"/>
<stop offset="1" stop-color="#F5FFE9"/>
</linearGradient>
</defs>
</svg>
