<svg width="1440" height="3731" viewBox="0 0 1440 3731" fill="none" xmlns="http://www.w3.org/2000/svg">
<path d="M1685.5 1.50023L1685.31 1.03745L1686 0.756737L1686 1.49821L1700.48 3581.1C1704.43 3582.27 1707.56 3583.71 1710.02 3585.34C1715.34 3588.87 1717.42 3593.33 1717.5 3598.02C1717.57 3602.68 1715.68 3607.51 1713.17 3611.85C1710.65 3616.2 1707.48 3620.11 1704.95 3622.92C1703.68 3624.33 1702.57 3625.47 1701.78 3626.25C1701.38 3626.65 1701.06 3626.95 1700.84 3627.16L1700.68 3627.31L1700.59 3627.4L1700.53 3627.46L1700.51 3627.47L1700.5 3627.48C1700.5 3627.48 1700.5 3627.48 1700.45 3627.42L1700.5 3627.48L1699.67 3628.23L1699.67 3627.11L1699.48 3581.85C1695.14 3580.62 1689.8 3579.69 1683.29 3579.14C1670.49 3578.07 1653.22 3578.5 1630.2 3581.08C1584.15 3586.25 1515.15 3600.02 1413.02 3627.59C1208.7 3682.74 1022.58 3710.58 822.593 3700.45C622.605 3690.32 408.767 3642.22 148.997 3545.55C71.0391 3516.54 12.4393 3498.09 -30.8601 3487.68V3627.11V3628.16L-31.6754 3627.5L-31.3601 3627.11C-31.6754 3627.5 -31.6768 3627.5 -31.6794 3627.49L-31.6912 3627.48L-31.7375 3627.45L-31.9203 3627.3C-32.0817 3627.16 -32.3213 3626.97 -32.6344 3626.71C-32.8982 3626.49 -33.2144 3626.23 -33.58 3625.93C-34.0823 3625.51 -34.6782 3625.02 -35.3605 3624.45C-37.7181 3622.48 -41.1077 3619.61 -45.2368 3616.03C-53.4949 3608.88 -64.7124 3598.87 -76.55 3587.46C-88.3867 3576.06 -100.848 3563.25 -111.592 3550.5C-122.33 3537.75 -131.375 3525.03 -136.354 3513.8C-141.321 3502.59 -142.318 3492.69 -136.621 3485.76C-130.953 3478.87 -118.827 3475.15 -98.1732 3475.84C-81.8723 3476.38 -60.1484 3479.67 -31.8601 3486.41L-31.8601 144.223V143.412L-31.1353 143.776L-31.3601 144.223C-31.1353 143.776 -31.1345 143.777 -31.1326 143.778L-31.1233 143.782L-31.0853 143.801L-30.9318 143.878C-30.7949 143.945 -30.5891 144.046 -30.3146 144.178C-29.7656 144.443 -28.942 144.835 -27.8456 145.341C-25.6526 146.353 -22.3687 147.823 -18.0092 149.651C-9.29016 153.307 3.73071 158.395 20.9287 164.119C55.3246 175.567 106.429 189.558 173.242 199.723C306.868 220.052 503.336 225.076 754.657 163.823C880.408 133.175 978.553 131.614 1057.84 143.216C1137.13 154.818 1197.54 179.579 1247.8 201.538C1252.02 203.378 1256.16 205.199 1260.24 206.991C1280.47 215.887 1299.07 224.062 1316.67 230.376C1337.81 237.96 1357.49 242.846 1376.81 243.071C1415.41 243.521 1452.72 225.372 1497.52 172.521C1558.92 100.089 1605.84 57.2285 1637.43 32.4709C1653.22 20.0919 1665.18 12.2385 1673.19 7.4774C1677.2 5.09682 1680.23 3.4893 1682.25 2.47569C1683.26 1.96889 1684.02 1.61056 1684.53 1.37832C1684.79 1.26219 1684.98 1.17759 1685.11 1.12172C1685.18 1.09378 1685.23 1.07302 1685.26 1.05909L1685.3 1.04328L1685.31 1.03913L1685.31 1.03799C1685.31 1.03767 1685.31 1.03745 1685.5 1.50023Z" fill="url(#paint0_linear_8448_143296)" stroke="#4AFF85"/>
<path opacity="0.6" d="M-54.9258 32L-54.4289 31.9439L-55.4258 32L-55.4258 3484.58V3484.75L-55.3249 3484.88C-24.1317 3526.23 31.5882 3559.43 103.758 3585.69C175.941 3611.94 264.643 3631.27 361.877 3644.82C556.345 3671.92 785.003 3675.92 984.025 3666C1182.99 3656.08 1347.33 3672.08 1461.92 3690.55C1519.22 3699.79 1564.08 3709.65 1594.61 3717.2C1609.88 3720.97 1621.57 3724.16 1629.43 3726.42C1633.37 3727.54 1636.35 3728.43 1638.34 3729.04C1639.34 3729.35 1640.09 3729.58 1640.59 3729.74C1640.84 3729.82 1641.03 3729.88 1641.16 3729.92L1641.3 3729.96L1641.33 3729.97L1641.34 3729.97C1641.35 3729.98 1641.35 3729.98 1641.5 3729.5L1641.35 3729.98L1641.99 3730.18L1642 3729.5L1677.5 32.0048L1677.51 30.8465L1676.66 31.6326L1676.66 31.6329L1676.66 31.6336L1676.65 31.639L1676.63 31.6639C1676.6 31.6868 1676.56 31.7222 1676.5 31.7701C1676.39 31.8659 1676.22 32.0119 1675.97 32.2077C1675.48 32.5994 1674.71 33.1906 1673.59 33.9805C1671.34 35.5605 1667.7 37.9343 1662.12 41.0945C1650.96 47.4153 1632.08 56.8787 1601.21 69.4269C1539.45 94.5235 1429.74 131.951 1237.93 181.252C1046.96 230.339 886.949 204.278 730.564 178.808L728.761 178.515C571.812 152.954 418.399 128.278 241.042 181.257C173.58 201.409 121.405 202.122 81.0918 191.894C40.7832 181.667 12.2969 160.492 -7.7768 136.801C-27.8551 113.105 -39.5206 86.8881 -46.1662 66.5868C-49.4886 56.4377 -51.555 47.7713 -52.7905 41.6444C-53.4082 38.5811 -53.8182 36.1529 -54.0735 34.492C-54.2012 33.6616 -54.2902 33.023 -54.3473 32.5928C-54.3758 32.3777 -54.3963 32.2147 -54.4096 32.1059C-54.4163 32.0515 -54.4212 32.0106 -54.4243 31.9835L-54.4279 31.9533L-54.4287 31.946C-54.4289 31.9445 -54.4289 31.9439 -54.9258 32Z" fill="url(#paint1_linear_8448_143296)" stroke="#4AFF85"/>
<defs>
<linearGradient id="paint0_linear_8448_143296" x1="853.613" y1="159.282" x2="853.613" y2="3788.09" gradientUnits="userSpaceOnUse">
<stop stop-color="#BAFFD9" stop-opacity="0.31"/>
<stop offset="0.546875" stop-color="#C8FFE1"/>
<stop offset="1" stop-color="#ECFFE9"/>
</linearGradient>
<linearGradient id="paint1_linear_8448_143296" x1="824.165" y1="82.7595" x2="824.165" y2="3711.91" gradientUnits="userSpaceOnUse">
<stop stop-color="#BAFFD9" stop-opacity="0.31"/>
<stop offset="0.546875" stop-color="#BAFFD9"/>
<stop offset="1" stop-color="#ECFFE9"/>
</linearGradient>
</defs>
</svg>
