<svg width="834" height="1244" viewBox="0 0 834 1244" fill="none" xmlns="http://www.w3.org/2000/svg">
<mask id="path-1-outside-1_6758_222672" maskUnits="userSpaceOnUse" x="-527" y="36.125" width="1442" height="1184" fill="black">
<rect fill="white" x="-527" y="36.125" width="1442" height="1184"/>
<path fill-rule="evenodd" clip-rule="evenodd" d="M914 76.4615V619.248V1183.58C914 1183.58 669.537 1080.87 372.594 1132.23C237.923 1155.52 152.094 1139.07 79.1554 1125.09C-8.73212 1108.24 -77.9034 1094.98 -191.254 1159.17C-398.676 1276.61 -526 1183.58 -526 1183.58V619.248L-526 76.4615C-526 76.4615 -230.687 271.578 15.4062 125.859C145.145 49.0364 203.36 75.0807 259.798 100.33C310.414 122.975 359.601 144.981 457.672 91.5712C665.094 -21.3911 914 76.4615 914 76.4615Z"/>
</mask>
<path fill-rule="evenodd" clip-rule="evenodd" d="M914 76.4615V619.248V1183.58C914 1183.58 669.537 1080.87 372.594 1132.23C237.923 1155.52 152.094 1139.07 79.1554 1125.09C-8.73212 1108.24 -77.9034 1094.98 -191.254 1159.17C-398.676 1276.61 -526 1183.58 -526 1183.58V619.248L-526 76.4615C-526 76.4615 -230.687 271.578 15.4062 125.859C145.145 49.0364 203.36 75.0807 259.798 100.33C310.414 122.975 359.601 144.981 457.672 91.5712C665.094 -21.3911 914 76.4615 914 76.4615Z" fill="url(#paint0_linear_6758_222672)"/>
<path d="M914 76.4615H915V75.7801L914.366 75.5308L914 76.4615ZM914 1183.58L913.613 1184.51L915 1185.09V1183.58H914ZM372.594 1132.23L372.764 1133.21L372.594 1132.23ZM79.1554 1125.09L79.3437 1124.11L79.1554 1125.09ZM-191.254 1159.17L-191.747 1158.3L-191.254 1159.17ZM-526 1183.58H-527V1184.09L-526.59 1184.39L-526 1183.58ZM-526 619.248H-527H-526ZM-526 76.4615L-525.449 75.6271L-527 74.6022L-527 76.4615H-526ZM15.4062 125.859L14.8968 124.998L15.4062 125.859ZM259.798 100.33L259.39 101.243L259.798 100.33ZM457.672 91.5712L457.194 90.693L457.672 91.5712ZM915 619.248V76.4615H913V619.248H915ZM915 1183.58V619.248H913V1183.58H915ZM372.764 1133.21C521.083 1107.56 656.307 1120.38 754.458 1139.63C803.532 1149.25 843.331 1160.47 870.858 1169.29C884.621 1173.7 895.316 1177.51 902.566 1180.21C906.192 1181.56 908.956 1182.64 910.813 1183.37C911.741 1183.74 912.443 1184.03 912.911 1184.22C913.146 1184.31 913.322 1184.39 913.439 1184.43C913.497 1184.46 913.541 1184.48 913.57 1184.49C913.585 1184.5 913.595 1184.5 913.603 1184.5C913.606 1184.5 913.609 1184.51 913.61 1184.51C913.612 1184.51 913.613 1184.51 914 1183.58C914.387 1182.66 914.386 1182.66 914.384 1182.66C914.382 1182.66 914.379 1182.66 914.375 1182.66C914.367 1182.65 914.356 1182.65 914.34 1182.64C914.31 1182.63 914.265 1182.61 914.205 1182.59C914.084 1182.54 913.905 1182.46 913.668 1182.37C913.193 1182.17 912.486 1181.89 911.551 1181.51C909.682 1180.77 906.904 1179.69 903.265 1178.33C895.987 1175.62 885.263 1171.8 871.468 1167.39C843.878 1158.55 804.003 1147.3 754.843 1137.67C656.527 1118.39 521.047 1105.54 372.423 1131.24L372.764 1133.21ZM78.9672 1126.07C151.943 1140.06 237.914 1156.54 372.764 1133.21L372.423 1131.24C237.932 1154.5 152.245 1138.08 79.3437 1124.11L78.9672 1126.07ZM-190.762 1160.04C-134.196 1128.01 -88.712 1115.33 -46.4395 1112.74C-4.13788 1110.15 35.004 1117.64 78.9672 1126.07L79.3437 1124.11C35.4193 1115.69 -3.9682 1108.13 -46.5619 1110.74C-89.1846 1113.36 -134.961 1126.14 -191.747 1158.3L-190.762 1160.04ZM-526 1183.58C-526.59 1184.39 -526.589 1184.39 -526.587 1184.39C-526.586 1184.4 -526.584 1184.4 -526.582 1184.4C-526.577 1184.4 -526.571 1184.41 -526.562 1184.41C-526.545 1184.42 -526.521 1184.44 -526.488 1184.47C-526.423 1184.51 -526.327 1184.58 -526.2 1184.67C-525.947 1184.85 -525.571 1185.1 -525.073 1185.43C-524.076 1186.1 -522.594 1187.05 -520.636 1188.21C-516.72 1190.54 -510.903 1193.74 -503.278 1197.2C-488.027 1204.12 -465.541 1212.1 -436.557 1216.41C-378.573 1225.02 -294.662 1218.87 -190.762 1160.04L-191.747 1158.3C-295.268 1216.91 -378.73 1222.97 -436.264 1214.43C-465.039 1210.16 -487.347 1202.23 -502.452 1195.38C-510.004 1191.95 -515.755 1188.79 -519.612 1186.49C-521.541 1185.35 -522.996 1184.41 -523.966 1183.77C-524.451 1183.45 -524.815 1183.2 -525.056 1183.03C-525.177 1182.94 -525.267 1182.88 -525.326 1182.84C-525.355 1182.82 -525.377 1182.8 -525.391 1182.79C-525.398 1182.79 -525.403 1182.78 -525.406 1182.78C-525.408 1182.78 -525.409 1182.78 -525.41 1182.78C-525.41 1182.78 -525.41 1182.78 -526 1183.58ZM-527 619.248V1183.58H-525V619.248H-527ZM-527 76.4615L-527 619.248H-525L-525 76.4615H-527ZM14.8968 124.998C-107.811 197.657 -242.839 185.372 -347.301 154.845C-399.522 139.584 -444.068 119.775 -475.559 103.78C-491.304 95.7829 -503.782 88.7408 -512.322 83.6996C-516.591 81.1791 -519.876 79.1589 -522.092 77.7698C-523.2 77.0753 -524.041 76.5386 -524.604 76.176C-524.885 75.9948 -525.097 75.857 -525.239 75.7648C-525.309 75.7188 -525.362 75.6841 -525.397 75.661C-525.415 75.6495 -525.428 75.6409 -525.436 75.6353C-525.441 75.6324 -525.444 75.6304 -525.446 75.629C-525.448 75.6277 -525.449 75.6271 -526 76.4615C-526.551 77.2958 -526.55 77.2967 -526.547 77.2984C-526.545 77.3 -526.541 77.3024 -526.537 77.3055C-526.527 77.3117 -526.513 77.3208 -526.495 77.3329C-526.458 77.3569 -526.404 77.3927 -526.331 77.4398C-526.187 77.5341 -525.972 77.674 -525.687 77.8574C-525.117 78.2243 -524.27 78.7655 -523.154 79.4644C-520.924 80.8624 -517.624 82.8918 -513.338 85.4219C-504.767 90.482 -492.251 97.5448 -476.465 105.563C-444.894 121.599 -400.231 141.461 -347.862 156.765C-243.145 187.366 -107.47 199.779 15.9158 126.719L14.8968 124.998ZM260.206 99.4174C231.995 86.7961 203.154 73.8824 165.092 73.8175C127.027 73.7526 79.8604 86.5313 14.8968 124.998L15.9158 126.719C80.691 88.3637 127.502 75.7534 165.088 75.8175C202.677 75.8816 231.163 88.6149 259.39 101.243L260.206 99.4174ZM457.194 90.693C408.273 117.335 371.643 125.116 340.993 123.472C310.321 121.828 285.53 110.747 260.206 99.4174L259.39 101.243C284.682 112.559 309.793 123.803 340.886 125.47C372.001 127.138 409 119.217 458.15 92.4494L457.194 90.693ZM914 76.4615C914.366 75.5308 914.365 75.5303 914.362 75.5294C914.36 75.5287 914.357 75.5274 914.353 75.5259C914.345 75.5227 914.333 75.5181 914.318 75.5121C914.287 75.4999 914.241 75.482 914.18 75.4584C914.058 75.4111 913.876 75.3411 913.635 75.2496C913.155 75.0666 912.44 74.7975 911.499 74.4516C909.618 73.7598 906.836 72.7611 903.222 71.5309C895.995 69.0704 885.444 65.6836 872.136 61.9738C845.522 54.5544 807.875 45.841 763.736 40.6623C675.474 30.3067 561.157 34.0745 457.194 90.693L458.15 92.4494C561.609 36.1055 675.456 32.3184 763.503 42.6486C807.518 47.8128 845.061 56.5024 871.599 63.9003C884.867 67.5991 895.382 70.9745 902.577 73.4241C906.175 74.6489 908.942 75.6422 910.809 76.3287C911.742 76.6719 912.45 76.9384 912.924 77.1188C913.161 77.209 913.339 77.2776 913.458 77.3236C913.517 77.3466 913.562 77.3639 913.591 77.3753C913.606 77.3811 913.617 77.3854 913.624 77.3882C913.628 77.3896 913.63 77.3906 913.632 77.3913C913.634 77.3919 913.634 77.3921 914 76.4615Z" fill="#4AFF85" mask="url(#path-1-outside-1_6758_222672)"/>
<g opacity="0.6">
<mask id="path-3-outside-2_6758_222672" maskUnits="userSpaceOnUse" x="-563.906" y="17.1172" width="1516" height="1216" fill="black">
<rect fill="white" x="-563.906" y="17.1172" width="1516" height="1216"/>
<path fill-rule="evenodd" clip-rule="evenodd" d="M-562.904 616.153H-562.906V58.529C-562.906 58.529 -252.455 258.979 6.25372 109.276C142.643 30.3542 203.842 57.1105 263.174 83.0502C316.384 106.314 368.093 128.921 471.191 74.0517C689.246 -41.9986 950.911 58.529 950.911 58.529V616.153H950.914V1195.92C950.914 1195.92 693.919 1090.39 381.754 1143.15C240.18 1167.08 149.951 1150.18 73.2734 1135.82C-19.1194 1118.51 -91.8365 1104.89 -210.998 1170.83C-429.053 1291.49 -562.904 1195.92 -562.904 1195.92V616.153Z"/>
</mask>
<path fill-rule="evenodd" clip-rule="evenodd" d="M-562.904 616.153H-562.906V58.529C-562.906 58.529 -252.455 258.979 6.25372 109.276C142.643 30.3542 203.842 57.1105 263.174 83.0502C316.384 106.314 368.093 128.921 471.191 74.0517C689.246 -41.9986 950.911 58.529 950.911 58.529V616.153H950.914V1195.92C950.914 1195.92 693.919 1090.39 381.754 1143.15C240.18 1167.08 149.951 1150.18 73.2734 1135.82C-19.1194 1118.51 -91.8365 1104.89 -210.998 1170.83C-429.053 1291.49 -562.904 1195.92 -562.904 1195.92V616.153Z" fill="url(#paint1_linear_6758_222672)"/>
<path d="M-562.906 616.153H-563.906V617.153H-562.906V616.153ZM-562.904 616.153H-561.904V615.153H-562.904V616.153ZM-562.906 58.529L-562.364 57.6889L-563.906 56.6929V58.529H-562.906ZM6.25372 109.276L5.75287 108.411L6.25372 109.276ZM263.174 83.0502L262.773 83.9665L263.174 83.0502ZM471.191 74.0517L470.721 73.1689L471.191 74.0517ZM950.911 58.529H951.911V57.8419L951.27 57.5955L950.911 58.529ZM950.911 616.153H949.911V617.153H950.911V616.153ZM950.914 616.153H951.914V615.153H950.914V616.153ZM950.914 1195.92L950.534 1196.84L951.914 1197.41V1195.92H950.914ZM381.754 1143.15L381.587 1142.17H381.587L381.754 1143.15ZM73.2734 1135.82L73.0894 1136.8L73.2734 1135.82ZM-210.998 1170.83L-210.514 1171.71L-210.998 1170.83ZM-562.904 1195.92H-563.904V1196.43L-563.485 1196.73L-562.904 1195.92ZM-562.906 617.153H-562.904V615.153H-562.906V617.153ZM-563.906 58.529V616.153H-561.906V58.529H-563.906ZM5.75287 108.411C-123.267 183.069 -265.241 170.444 -375.068 139.08C-429.971 123.4 -476.804 103.048 -509.911 86.6144C-526.464 78.3982 -539.583 71.1629 -548.562 65.9835C-553.051 63.3937 -556.504 61.3181 -558.834 59.8908C-559.999 59.1772 -560.883 58.6257 -561.475 58.2531C-561.771 58.0668 -561.994 57.9252 -562.143 57.8305C-562.217 57.7831 -562.273 57.7475 -562.31 57.7238C-562.328 57.7119 -562.342 57.7031 -562.351 57.6972C-562.355 57.6943 -562.359 57.6922 -562.361 57.6908C-562.363 57.6894 -562.364 57.6889 -562.906 58.529C-563.449 59.3691 -563.447 59.37 -563.445 59.3717C-563.442 59.3733 -563.438 59.3758 -563.433 59.379C-563.423 59.3853 -563.409 59.3947 -563.39 59.407C-563.351 59.4317 -563.294 59.4684 -563.218 59.5168C-563.066 59.6137 -562.84 59.7573 -562.54 59.9457C-561.942 60.3225 -561.051 60.8783 -559.879 61.5963C-557.535 63.0322 -554.066 65.1169 -549.561 67.7159C-540.551 72.9137 -527.395 80.169 -510.801 88.4059C-477.614 104.879 -430.665 125.282 -375.617 141.003C-265.541 172.438 -122.934 185.187 6.75458 110.142L5.75287 108.411ZM263.574 82.134C233.915 69.1671 203.609 55.9067 163.612 55.8401C123.614 55.7734 74.0418 68.8953 5.75287 108.411L6.75458 110.142C74.8552 70.7353 124.078 57.7742 163.609 57.8401C203.142 57.906 233.1 70.9936 262.773 83.9665L263.574 82.134ZM470.721 73.1689C419.286 100.543 380.766 108.541 348.527 106.852C316.267 105.162 290.194 93.7723 263.574 82.134L262.773 83.9665C289.364 95.5919 315.75 107.138 348.422 108.85C381.115 110.562 419.997 102.43 471.661 74.9345L470.721 73.1689ZM950.911 58.529C951.27 57.5955 951.269 57.595 951.266 57.5941C951.264 57.5933 951.261 57.592 951.257 57.5904C951.249 57.5872 951.236 57.5825 951.22 57.5763C951.187 57.5639 951.139 57.5454 951.075 57.5212C950.946 57.4727 950.755 57.4008 950.503 57.3069C949.998 57.1189 949.246 56.8425 948.258 56.4873C946.281 55.7767 943.356 54.7509 939.558 53.4872C931.961 50.9599 920.871 47.4809 906.882 43.67C878.906 36.0485 839.333 27.0977 792.936 21.778C700.158 11.1404 579.997 15.0114 470.721 73.1689L471.661 74.9345C580.439 17.0417 700.139 13.1514 792.708 23.765C838.984 29.0708 878.456 37.9988 906.356 45.5997C920.306 49.3999 931.361 52.868 938.927 55.3849C942.709 56.6434 945.619 57.664 947.581 58.3694C948.563 58.7221 949.307 58.996 949.806 59.1814C950.055 59.2741 950.242 59.3446 950.367 59.3919C950.43 59.4155 950.477 59.4333 950.508 59.4451C950.523 59.451 950.535 59.4554 950.542 59.4583C950.546 59.4598 950.549 59.4608 950.551 59.4615C950.552 59.4622 950.553 59.4624 950.911 58.529ZM951.911 616.153V58.529H949.911V616.153H951.911ZM950.914 615.153H950.911V617.153H950.914V615.153ZM951.914 1195.92V616.153H949.914V1195.92H951.914ZM381.921 1144.14C537.854 1117.78 680.019 1130.96 783.208 1150.73C834.8 1160.62 876.642 1172.15 905.582 1181.21C920.052 1185.74 931.296 1189.65 938.919 1192.43C942.731 1193.81 945.638 1194.92 947.59 1195.68C948.566 1196.06 949.304 1196.35 949.796 1196.54C950.043 1196.64 950.228 1196.72 950.351 1196.77C950.413 1196.79 950.459 1196.81 950.49 1196.82C950.505 1196.83 950.516 1196.83 950.524 1196.84C950.527 1196.84 950.53 1196.84 950.532 1196.84C950.534 1196.84 950.534 1196.84 950.914 1195.92C951.294 1194.99 951.293 1194.99 951.29 1194.99C951.288 1194.99 951.285 1194.99 951.281 1194.99C951.273 1194.98 951.261 1194.98 951.245 1194.97C951.213 1194.96 951.165 1194.94 951.102 1194.91C950.976 1194.86 950.788 1194.79 950.538 1194.69C950.039 1194.49 949.296 1194.19 948.313 1193.81C946.349 1193.05 943.429 1191.94 939.604 1190.55C931.954 1187.76 920.681 1183.84 906.18 1179.3C877.178 1170.22 835.261 1158.67 783.584 1148.77C680.234 1128.97 537.819 1115.76 381.587 1142.17L381.921 1144.14ZM73.0894 1136.8C149.804 1151.17 240.171 1168.1 381.921 1144.14L381.587 1142.17C240.188 1166.07 150.098 1149.19 73.4575 1134.84L73.0894 1136.8ZM-210.514 1171.71C-151.043 1138.8 -103.217 1125.77 -58.7643 1123.11C-14.2834 1120.44 26.874 1128.15 73.0894 1136.8L73.4575 1134.84C27.28 1126.19 -14.1176 1118.43 -58.8839 1121.11C-103.679 1123.8 -151.792 1136.93 -211.482 1169.96L-210.514 1171.71ZM-562.904 1195.92C-563.485 1196.73 -563.484 1196.73 -563.482 1196.73C-563.481 1196.73 -563.479 1196.73 -563.476 1196.74C-563.472 1196.74 -563.465 1196.74 -563.456 1196.75C-563.438 1196.76 -563.412 1196.78 -563.378 1196.81C-563.31 1196.85 -563.209 1196.92 -563.076 1197.01C-562.81 1197.19 -562.415 1197.46 -561.891 1197.8C-560.845 1198.48 -559.287 1199.45 -557.229 1200.65C-553.114 1203.05 -547.002 1206.33 -538.988 1209.88C-522.96 1216.99 -499.327 1225.19 -468.865 1229.61C-407.926 1238.45 -319.729 1232.14 -210.514 1171.71L-211.482 1169.96C-320.322 1230.18 -408.078 1236.41 -468.578 1227.63C-498.836 1223.24 -522.294 1215.09 -538.177 1208.05C-546.119 1204.53 -552.167 1201.28 -556.223 1198.92C-558.252 1197.74 -559.782 1196.78 -560.803 1196.12C-561.313 1195.79 -561.696 1195.53 -561.95 1195.36C-562.077 1195.27 -562.171 1195.21 -562.233 1195.17C-562.265 1195.14 -562.288 1195.13 -562.302 1195.12C-562.31 1195.11 -562.315 1195.11 -562.319 1195.11C-562.32 1195.1 -562.321 1195.1 -562.322 1195.1C-562.323 1195.1 -562.323 1195.1 -562.904 1195.92ZM-563.904 616.153V1195.92H-561.904V616.153H-563.904Z" fill="#4AFF85" mask="url(#path-3-outside-2_6758_222672)"/>
</g>
<g opacity="0.4">
<mask id="path-5-outside-3_6758_222672" maskUnits="userSpaceOnUse" x="-604" y="0.59375" width="1597" height="1244" fill="black">
<rect fill="white" x="-604" y="0.59375" width="1597" height="1244"/>
<path fill-rule="evenodd" clip-rule="evenodd" d="M-602.996 613.073H-603V42.914C-603 42.914 -276.055 247.87 -3.60077 94.8021C140.035 14.1059 204.486 41.4636 266.969 67.9865C323.007 91.7732 377.463 114.888 486.038 58.7856C715.678 -59.8734 991.246 42.914 991.246 42.914V613.073H991.25V1205.87C991.25 1205.87 720.601 1097.97 391.851 1151.92C242.755 1176.39 147.732 1159.11 66.9805 1144.42C-30.3212 1126.73 -106.902 1112.8 -232.394 1180.22C-462.034 1303.59 -602.996 1205.87 -602.996 1205.87V613.073Z"/>
</mask>
<path fill-rule="evenodd" clip-rule="evenodd" d="M-602.996 613.073H-603V42.914C-603 42.914 -276.055 247.87 -3.60077 94.8021C140.035 14.1059 204.486 41.4636 266.969 67.9865C323.007 91.7732 377.463 114.888 486.038 58.7856C715.678 -59.8734 991.246 42.914 991.246 42.914V613.073H991.25V1205.87C991.25 1205.87 720.601 1097.97 391.851 1151.92C242.755 1176.39 147.732 1159.11 66.9805 1144.42C-30.3212 1126.73 -106.902 1112.8 -232.394 1180.22C-462.034 1303.59 -602.996 1205.87 -602.996 1205.87V613.073Z" fill="url(#paint2_linear_6758_222672)"/>
<path d="M-603 613.073H-604V614.073H-603V613.073ZM-602.996 613.073H-601.996V612.073H-602.996V613.073ZM-603 42.914L-602.469 42.0667L-604 41.1068V42.914H-603ZM-3.60077 94.8021L-4.09058 93.9303L-3.60077 94.8021ZM266.969 67.9865L267.36 67.066L266.969 67.9865ZM486.038 58.7856L486.498 59.674L486.038 58.7856ZM991.246 42.914H992.246V42.2197L991.596 41.977L991.246 42.914ZM991.246 613.073H990.246V614.073H991.246V613.073ZM991.25 613.073H992.25V612.073H991.25V613.073ZM991.25 1205.87L990.88 1206.8L992.25 1207.35V1205.87H991.25ZM391.851 1151.92L391.689 1150.93L391.851 1151.92ZM66.9805 1144.42L67.1594 1143.44L66.9805 1144.42ZM-232.394 1180.22L-231.921 1181.1L-232.394 1180.22ZM-602.996 1205.87H-603.996V1206.39L-603.566 1206.69L-602.996 1205.87ZM-603 614.073H-602.996V612.073H-603V614.073ZM-604 42.914V613.073H-602V42.914H-604ZM-4.09058 93.9303C-139.989 170.28 -289.531 157.367 -405.204 125.295C-463.029 109.262 -512.355 88.4499 -547.224 71.6458C-564.657 63.2442 -578.475 55.8457 -587.931 50.5492C-592.659 47.901 -596.296 45.7785 -598.751 44.3189C-599.978 43.5891 -600.909 43.0251 -601.532 42.644C-601.844 42.4534 -602.079 42.3086 -602.236 42.2117C-602.314 42.1632 -602.373 42.1267 -602.412 42.1025C-602.431 42.0903 -602.446 42.0813 -602.455 42.0753C-602.46 42.0723 -602.463 42.0702 -602.466 42.0687C-602.468 42.0673 -602.469 42.0667 -603 42.914C-603.531 43.7612 -603.53 43.7622 -603.527 43.764C-603.524 43.7656 -603.52 43.7681 -603.515 43.7713C-603.505 43.7778 -603.489 43.7874 -603.469 43.8C-603.429 43.8252 -603.368 43.8627 -603.288 43.9122C-603.129 44.0111 -602.89 44.1579 -602.575 44.3505C-601.945 44.7357 -601.007 45.3038 -599.773 46.0378C-597.305 47.5058 -593.652 49.6371 -588.908 52.2942C-579.42 57.6083 -565.566 65.0261 -548.092 73.4475C-513.145 90.2893 -463.706 111.15 -405.738 127.222C-289.824 159.361 -139.666 172.392 -3.11096 95.674L-4.09058 93.9303ZM267.36 67.066C236.124 53.807 204.221 40.2553 162.118 40.1871C120.014 40.119 67.8213 53.5294 -4.09058 93.9303L-3.11096 95.674C68.613 55.3786 120.464 42.1197 162.115 42.1871C203.767 42.2545 235.331 55.6431 266.578 68.907L267.36 67.066ZM485.579 57.8972C431.405 85.8901 390.823 94.0741 356.853 92.3459C322.863 90.6168 295.393 78.9652 267.36 67.066L266.578 68.907C294.584 80.7945 322.36 92.5939 356.751 94.3434C391.162 96.0939 432.096 87.7841 486.498 59.674L485.579 57.8972ZM991.246 42.914C991.596 41.977 991.594 41.9765 991.592 41.9756C991.59 41.9748 991.586 41.9735 991.582 41.9719C991.573 41.9686 991.56 41.9638 991.543 41.9575C991.509 41.9448 991.458 41.926 991.39 41.9012C991.255 41.8516 991.054 41.7782 990.789 41.6822C990.257 41.4901 989.466 41.2076 988.425 40.8444C986.344 40.1181 983.264 39.0694 979.264 37.7775C971.265 35.1937 959.587 31.6369 944.856 27.7407C915.397 19.9487 873.725 10.7976 824.868 5.35881C727.17 -5.51689 600.644 -1.5586 485.579 57.8972L486.498 59.674C601.073 0.470873 727.151 -3.50668 824.647 7.34653C873.386 12.7722 914.959 21.9017 944.345 29.6742C959.037 33.5603 970.681 37.1068 978.65 39.6807C982.634 40.9676 985.699 42.0113 987.766 42.7327C988.8 43.0935 989.584 43.3736 990.109 43.5632C990.372 43.6581 990.569 43.7303 990.701 43.7786C990.767 43.8028 990.816 43.821 990.849 43.8331C990.865 43.8392 990.877 43.8437 990.885 43.8467C990.889 43.8481 990.892 43.8492 990.894 43.85C990.896 43.8506 990.897 43.8509 991.246 42.914ZM992.246 613.073V42.914H990.246V613.073H992.246ZM991.25 612.073H991.246V614.073H991.25V612.073ZM992.25 1205.87V613.073H990.25V1205.87H992.25ZM392.013 1152.91C556.243 1125.96 705.972 1139.43 814.649 1159.65C868.985 1169.76 913.054 1181.55 943.534 1190.81C958.773 1195.44 970.615 1199.44 978.645 1202.28C982.66 1203.7 985.721 1204.83 987.778 1205.61C988.806 1205.99 989.583 1206.29 990.102 1206.49C990.362 1206.6 990.557 1206.67 990.687 1206.72C990.752 1206.75 990.8 1206.77 990.832 1206.78C990.849 1206.79 990.86 1206.79 990.868 1206.79C990.872 1206.8 990.875 1206.8 990.877 1206.8C990.879 1206.8 990.88 1206.8 991.25 1205.87C991.62 1204.94 991.619 1204.94 991.617 1204.94C991.615 1204.94 991.611 1204.94 991.607 1204.94C991.598 1204.93 991.586 1204.93 991.569 1204.92C991.535 1204.91 991.485 1204.89 991.419 1204.86C991.286 1204.81 991.088 1204.73 990.825 1204.63C990.3 1204.43 989.517 1204.13 988.483 1203.74C986.414 1202.96 983.34 1201.82 979.312 1200.4C971.256 1197.55 959.385 1193.54 944.115 1188.9C913.575 1179.62 869.434 1167.81 815.015 1157.68C706.18 1137.44 556.209 1123.94 391.689 1150.93L392.013 1152.91ZM66.8016 1145.41C147.589 1160.1 242.746 1177.4 392.013 1152.91L391.689 1150.93C242.763 1175.37 147.875 1158.12 67.1594 1143.44L66.8016 1145.41ZM-231.921 1181.1C-169.283 1147.45 -118.906 1134.13 -72.0773 1131.4C-25.2214 1128.68 18.1325 1136.56 66.8016 1145.41L67.1594 1143.44C18.5268 1134.59 -25.0604 1126.66 -72.1934 1129.41C-119.354 1132.15 -170.013 1145.57 -232.868 1179.34L-231.921 1181.1ZM-602.996 1205.87C-603.566 1206.69 -603.565 1206.69 -603.563 1206.69C-603.562 1206.69 -603.56 1206.7 -603.558 1206.7C-603.552 1206.7 -603.545 1206.71 -603.536 1206.71C-603.517 1206.73 -603.49 1206.74 -603.454 1206.77C-603.383 1206.82 -603.277 1206.89 -603.137 1206.98C-602.857 1207.17 -602.441 1207.44 -601.89 1207.78C-600.789 1208.48 -599.149 1209.47 -596.983 1210.7C-592.651 1213.15 -586.216 1216.5 -577.778 1220.13C-560.904 1227.39 -536.022 1235.78 -503.95 1240.3C-439.792 1249.34 -346.927 1242.89 -231.921 1181.1L-232.868 1179.34C-347.502 1240.92 -439.938 1247.3 -503.671 1238.32C-535.545 1233.83 -560.255 1225.5 -576.988 1218.29C-585.354 1214.69 -591.725 1211.37 -595.999 1208.96C-598.136 1207.75 -599.749 1206.77 -600.824 1206.09C-601.362 1205.75 -601.766 1205.49 -602.033 1205.31C-602.167 1205.22 -602.267 1205.16 -602.332 1205.11C-602.365 1205.09 -602.39 1205.07 -602.405 1205.06C-602.413 1205.06 -602.419 1205.05 -602.422 1205.05C-602.424 1205.05 -602.425 1205.05 -602.426 1205.05C-602.427 1205.05 -602.427 1205.05 -602.996 1205.87ZM-603.996 613.073V1205.87H-601.996V613.073H-603.996Z" fill="#4AFF85" mask="url(#path-5-outside-3_6758_222672)"/>
</g>
<defs>
<linearGradient id="paint0_linear_6758_222672" x1="194" y1="302.877" x2="194.069" y2="1164.76" gradientUnits="userSpaceOnUse">
<stop stop-color="#C7FFD8" stop-opacity="0.74"/>
<stop offset="0.0001" stop-color="#B4FFCA" stop-opacity="0.74"/>
<stop offset="0.401042" stop-color="#D7FFF4"/>
<stop offset="0.677083" stop-color="#DBFFE0"/>
<stop offset="1" stop-color="#9AFFA4"/>
</linearGradient>
<linearGradient id="paint1_linear_6758_222672" x1="194.004" y1="291.134" x2="197.744" y2="1202.3" gradientUnits="userSpaceOnUse">
<stop stop-color="#B4FFCA" stop-opacity="0.74"/>
<stop offset="0.0001" stop-color="#B4FFCA" stop-opacity="0.74"/>
<stop offset="0.401042" stop-color="#C8FFF0"/>
<stop offset="0.677083" stop-color="#E7FFEA"/>
<stop offset="1" stop-color="#DFFFDA"/>
</linearGradient>
<linearGradient id="paint2_linear_6758_222672" x1="194.125" y1="280.748" x2="197.838" y2="1212.4" gradientUnits="userSpaceOnUse">
<stop stop-color="#B4FFCA" stop-opacity="0.74"/>
<stop offset="0.0001" stop-color="#B4FFCA" stop-opacity="0.74"/>
<stop offset="0.401042" stop-color="#C8FFF0"/>
<stop offset="0.677083" stop-color="#E7FFEA"/>
<stop offset="1" stop-color="#DFFFDA"/>
</linearGradient>
</defs>
</svg>
