<!-- width="834" height="1184" -->






<svg preserveAspectRatio="none"  viewBox="0 0 834 1184" fill="none" xmlns="http://www.w3.org/2000/svg">
<mask id="path-1-outside-1_6758_222673" maskUnits="userSpaceOnUse" x="-527" y="0.125" width="1442" height="1184" fill="black">
<rect fill="white" x="-527" y="0.125" width="1442" height="1184"/>
<path fill-rule="evenodd" clip-rule="evenodd" d="M914 40.4615V583.248V1147.58C914 1147.58 669.537 1044.87 372.594 1096.23C237.923 1119.52 152.094 1103.07 79.1554 1089.09C-8.73212 1072.24 -77.9034 1058.98 -191.255 1123.17C-398.676 1240.61 -526 1147.58 -526 1147.58L-526 583.248V40.4615C-526 40.4615 -230.687 235.578 15.4062 89.8586C145.145 13.0364 203.36 39.0807 259.798 64.3303C310.414 86.975 359.601 108.981 457.672 55.5712C665.094 -57.3911 914 40.4615 914 40.4615Z"/>
</mask>
<path fill-rule="evenodd" clip-rule="evenodd" d="M914 40.4615V583.248V1147.58C914 1147.58 669.537 1044.87 372.594 1096.23C237.923 1119.52 152.094 1103.07 79.1554 1089.09C-8.73212 1072.24 -77.9034 1058.98 -191.255 1123.17C-398.676 1240.61 -526 1147.58 -526 1147.58L-526 583.248V40.4615C-526 40.4615 -230.687 235.578 15.4062 89.8586C145.145 13.0364 203.36 39.0807 259.798 64.3303C310.414 86.975 359.601 108.981 457.672 55.5712C665.094 -57.3911 914 40.4615 914 40.4615Z" fill="url(#paint0_linear_6758_222673)"/>
<path d="M914 40.4615H915V39.7801L914.366 39.5308L914 40.4615ZM914 1147.58L913.613 1148.51L915 1149.09V1147.58H914ZM372.594 1096.23L372.764 1097.21L372.594 1096.23ZM79.1554 1089.09L79.3437 1088.11L79.1554 1089.09ZM-191.254 1123.17L-191.747 1122.3L-191.254 1123.17ZM-526 1147.58H-527V1148.09L-526.59 1148.39L-526 1147.58ZM-526 583.248H-527H-526ZM-526 40.4615L-525.449 39.6271L-527 38.6022L-527 40.4615H-526ZM15.4062 89.8585L14.8968 88.9981L15.4062 89.8585ZM259.798 64.3303L259.39 65.2431L259.798 64.3303ZM457.672 55.5712L457.194 54.693L457.672 55.5712ZM915 583.248V40.4615H913V583.248H915ZM915 1147.58V583.248H913V1147.58H915ZM372.764 1097.21C521.083 1071.56 656.307 1084.38 754.458 1103.63C803.532 1113.25 843.331 1124.47 870.858 1133.29C884.621 1137.7 895.316 1141.51 902.566 1144.21C906.192 1145.56 908.956 1146.64 910.813 1147.37C911.741 1147.74 912.443 1148.03 912.911 1148.22C913.146 1148.31 913.322 1148.39 913.439 1148.43C913.497 1148.46 913.541 1148.48 913.57 1148.49C913.585 1148.5 913.595 1148.5 913.603 1148.5C913.606 1148.5 913.609 1148.51 913.61 1148.51C913.612 1148.51 913.613 1148.51 914 1147.58C914.387 1146.66 914.386 1146.66 914.384 1146.66C914.382 1146.66 914.379 1146.66 914.375 1146.66C914.367 1146.65 914.356 1146.65 914.34 1146.64C914.31 1146.63 914.265 1146.61 914.205 1146.59C914.084 1146.54 913.905 1146.46 913.668 1146.37C913.193 1146.17 912.486 1145.89 911.551 1145.51C909.682 1144.77 906.904 1143.69 903.265 1142.33C895.987 1139.62 885.263 1135.8 871.468 1131.39C843.878 1122.55 804.003 1111.3 754.843 1101.67C656.527 1082.39 521.047 1069.54 372.423 1095.24L372.764 1097.21ZM78.9672 1090.07C151.943 1104.06 237.914 1120.54 372.764 1097.21L372.423 1095.24C237.932 1118.5 152.245 1102.08 79.3437 1088.11L78.9672 1090.07ZM-190.762 1124.04C-134.196 1092.01 -88.712 1079.33 -46.4395 1076.74C-4.13788 1074.15 35.004 1081.64 78.9672 1090.07L79.3437 1088.11C35.4193 1079.69 -3.9682 1072.13 -46.5619 1074.74C-89.1846 1077.36 -134.961 1090.14 -191.747 1122.3L-190.762 1124.04ZM-526 1147.58C-526.59 1148.39 -526.589 1148.39 -526.587 1148.39C-526.586 1148.4 -526.584 1148.4 -526.582 1148.4C-526.577 1148.4 -526.571 1148.41 -526.562 1148.41C-526.545 1148.42 -526.521 1148.44 -526.488 1148.47C-526.423 1148.51 -526.327 1148.58 -526.2 1148.67C-525.947 1148.85 -525.571 1149.1 -525.073 1149.43C-524.076 1150.1 -522.594 1151.05 -520.636 1152.21C-516.72 1154.54 -510.903 1157.74 -503.278 1161.2C-488.027 1168.12 -465.541 1176.1 -436.557 1180.41C-378.573 1189.02 -294.662 1182.87 -190.762 1124.04L-191.747 1122.3C-295.268 1180.91 -378.73 1186.97 -436.264 1178.43C-465.039 1174.16 -487.347 1166.23 -502.452 1159.38C-510.004 1155.95 -515.755 1152.79 -519.612 1150.49C-521.541 1149.35 -522.996 1148.41 -523.966 1147.77C-524.451 1147.45 -524.815 1147.2 -525.056 1147.03C-525.177 1146.94 -525.267 1146.88 -525.326 1146.84C-525.355 1146.82 -525.377 1146.8 -525.391 1146.79C-525.398 1146.79 -525.403 1146.78 -525.406 1146.78C-525.408 1146.78 -525.409 1146.78 -525.41 1146.78C-525.41 1146.78 -525.41 1146.78 -526 1147.58ZM-527 583.248V1147.58H-525V583.248H-527ZM-527 40.4615L-527 583.248H-525L-525 40.4615H-527ZM14.8968 88.9981C-107.811 161.657 -242.839 149.372 -347.301 118.845C-399.522 103.584 -444.068 83.775 -475.559 67.7799C-491.304 59.7829 -503.782 52.7408 -512.322 47.6996C-516.591 45.1791 -519.876 43.1589 -522.092 41.7698C-523.2 41.0753 -524.041 40.5386 -524.604 40.176C-524.885 39.9948 -525.097 39.857 -525.239 39.7648C-525.309 39.7188 -525.362 39.6841 -525.397 39.661C-525.415 39.6495 -525.428 39.6409 -525.436 39.6353C-525.441 39.6324 -525.444 39.6304 -525.446 39.629C-525.448 39.6277 -525.449 39.6271 -526 40.4615C-526.551 41.2958 -526.55 41.2967 -526.547 41.2984C-526.545 41.3 -526.541 41.3024 -526.537 41.3055C-526.527 41.3117 -526.513 41.3208 -526.495 41.3329C-526.458 41.3569 -526.404 41.3927 -526.331 41.4398C-526.187 41.5341 -525.972 41.674 -525.687 41.8574C-525.117 42.2243 -524.27 42.7655 -523.154 43.4644C-520.924 44.8624 -517.624 46.8918 -513.338 49.4219C-504.767 54.482 -492.251 61.5448 -476.465 69.5631C-444.894 85.5986 -400.231 105.461 -347.862 120.765C-243.145 151.366 -107.47 163.779 15.9158 90.719L14.8968 88.9981ZM260.206 63.4174C231.995 50.7961 203.154 37.8824 165.092 37.8175C127.027 37.7526 79.8604 50.5313 14.8968 88.9981L15.9158 90.719C80.691 52.3637 127.502 39.7534 165.088 39.8175C202.677 39.8816 231.163 52.6149 259.39 65.2431L260.206 63.4174ZM457.194 54.693C408.273 81.3351 371.643 89.1158 340.993 87.4725C310.321 85.8279 285.53 74.7468 260.206 63.4174L259.39 65.2431C284.682 76.5585 309.793 87.8025 340.886 89.4696C372.001 91.1379 409 83.2167 458.15 56.4494L457.194 54.693ZM914 40.4615C914.366 39.5308 914.365 39.5303 914.362 39.5294C914.36 39.5287 914.357 39.5274 914.353 39.5259C914.345 39.5227 914.333 39.5181 914.318 39.5121C914.287 39.4999 914.241 39.482 914.18 39.4584C914.058 39.4111 913.876 39.3411 913.635 39.2496C913.155 39.0666 912.44 38.7975 911.499 38.4516C909.618 37.7598 906.836 36.7611 903.222 35.5309C895.995 33.0704 885.444 29.6836 872.136 25.9738C845.522 18.5544 807.875 9.84097 763.736 4.66226C675.474 -5.69326 561.157 -1.92549 457.194 54.693L458.15 56.4494C561.609 0.105506 675.456 -3.68157 763.503 6.64864C807.518 11.8128 845.061 20.5024 871.599 27.9003C884.867 31.5991 895.382 34.9745 902.577 37.4241C906.175 38.6489 908.942 39.6422 910.809 40.3287C911.742 40.6719 912.45 40.9384 912.924 41.1188C913.161 41.209 913.339 41.2776 913.458 41.3236C913.517 41.3466 913.562 41.3639 913.591 41.3753C913.606 41.3811 913.617 41.3854 913.624 41.3882C913.628 41.3896 913.63 41.3906 913.632 41.3913C913.634 41.3919 913.634 41.3921 914 40.4615Z" fill="#4AFF85" mask="url(#path-1-outside-1_6758_222673)"/>
<defs>
<linearGradient id="paint0_linear_6758_222673" x1="194" y1="266.877" x2="194.069" y2="1128.76" gradientUnits="userSpaceOnUse">
<stop stop-color="#C7FFD8" stop-opacity="0.74"/>
<stop offset="0.0001" stop-color="#B4FFCA" stop-opacity="0.74"/>
<stop offset="0.401042" stop-color="#D7FFF4"/>
<stop offset="0.677083" stop-color="#DBFFE0"/>
<stop offset="1" stop-color="#9AFFA4"/>
</linearGradient>
</defs>
</svg>
