<svg width="375" height="1059" viewBox="0 0 375 1059" fill="none" xmlns="http://www.w3.org/2000/svg">
<mask id="path-1-outside-1_8307_143297" maskUnits="userSpaceOnUse" x="3.51562" y="20.6094" width="1224" height="1025" fill="black">
<rect fill="white" x="3.51562" y="20.6094" width="1224" height="1025"/>
<path fill-rule="evenodd" clip-rule="evenodd" d="M4.51782 525.907H4.51562V55.6868C4.51562 55.6868 255.155 224.717 464.021 98.4798C574.134 31.9283 623.542 54.4907 671.443 76.3645C714.402 95.9818 756.149 115.045 839.384 68.7765C1015.43 -29.0836 1226.68 55.6868 1226.68 55.6868V525.907H1226.68V1014.8C1226.68 1014.8 1019.2 925.811 767.178 970.303C652.879 990.482 580.034 976.23 518.129 964.119C443.537 949.526 384.829 938.04 288.625 993.642C112.581 1095.39 4.51782 1014.8 4.51782 1014.8V525.907Z"/>
</mask>
<path fill-rule="evenodd" clip-rule="evenodd" d="M4.51782 525.907H4.51562V55.6868C4.51562 55.6868 255.155 224.717 464.021 98.4798C574.134 31.9283 623.542 54.4907 671.443 76.3645C714.402 95.9818 756.149 115.045 839.384 68.7765C1015.43 -29.0836 1226.68 55.6868 1226.68 55.6868V525.907H1226.68V1014.8C1226.68 1014.8 1019.2 925.811 767.178 970.303C652.879 990.482 580.034 976.23 518.129 964.119C443.537 949.526 384.829 938.04 288.625 993.642C112.581 1095.39 4.51782 1014.8 4.51782 1014.8V525.907Z" fill="url(#paint0_linear_8307_143297)"/>
<path d="M4.51562 525.907H4.27163V526.151H4.51562V525.907ZM4.51782 525.907H4.76181V525.663H4.51782V525.907ZM4.51562 55.6868L4.65205 55.4845L4.27163 55.228V55.6868H4.51562ZM464.021 98.4798L464.148 98.6887L464.148 98.6887L464.021 98.4798ZM671.443 76.3645L671.544 76.1426L671.544 76.1426L671.443 76.3645ZM839.384 68.7765L839.265 68.5632L839.265 68.5632L839.384 68.7765ZM1226.68 55.6868H1226.93V55.5218L1226.77 55.4604L1226.68 55.6868ZM1226.68 525.907H1226.44V526.151H1226.68V525.907ZM1226.68 525.907H1226.93V525.663H1226.68V525.907ZM1226.68 1014.8L1226.59 1015.02L1226.93 1015.17V1014.8H1226.68ZM767.178 970.303L767.135 970.063L767.135 970.063L767.178 970.303ZM518.129 964.119L518.082 964.359L518.082 964.359L518.129 964.119ZM288.625 993.642L288.747 993.853L288.747 993.853L288.625 993.642ZM4.51782 1014.8H4.27382V1014.92L4.37195 1014.99L4.51782 1014.8ZM4.51562 526.151H4.51782V525.663H4.51562V526.151ZM4.27163 55.6868V525.907H4.75962V55.6868H4.27163ZM463.895 98.271C359.546 161.339 244.75 150.657 156.013 124.189C111.648 110.955 73.8051 93.7779 47.0539 79.9088C33.6785 72.9744 23.0766 66.8673 15.8192 62.4943C12.1905 60.3078 9.39791 58.5549 7.51292 57.3488C6.57042 56.7457 5.85482 56.2794 5.37504 55.964C5.13514 55.8063 4.9542 55.6863 4.83333 55.6058C4.7729 55.5655 4.72748 55.5352 4.69722 55.5149C4.68209 55.5047 4.67075 55.4971 4.66322 55.492C4.65945 55.4895 4.65666 55.4876 4.65477 55.4864C4.65293 55.4851 4.65205 55.4845 4.51562 55.6868C4.3792 55.8891 4.38023 55.8898 4.38221 55.8911C4.38415 55.8924 4.38708 55.8944 4.39095 55.897C4.39868 55.9022 4.41021 55.91 4.42554 55.9202C4.45619 55.9408 4.502 55.9714 4.56283 56.0119C4.6845 56.093 4.86625 56.2135 5.10696 56.3717C5.58838 56.6882 6.30568 57.1557 7.24991 57.7598C9.13838 58.9681 11.9346 60.7234 15.5673 62.9123C22.8326 67.29 33.4436 73.4023 46.8293 80.342C73.6 94.2212 111.472 111.412 155.874 124.656C244.674 151.144 359.631 161.858 464.148 98.6887L463.895 98.271ZM671.544 76.1426C647.596 65.2066 623.225 54.0747 591.062 54.0187C558.899 53.9627 518.974 64.9814 463.895 98.271L464.148 98.6887C519.181 65.4268 559.017 54.4509 591.061 54.5067C623.106 54.5625 647.389 65.6486 671.342 76.5865L671.544 76.1426ZM839.265 68.5632C797.676 91.682 766.476 98.4655 740.323 97.0342C714.165 95.6026 693.028 85.9531 671.544 76.1426L671.342 76.5865C692.817 86.3933 714.033 96.0842 740.297 97.5215C766.565 98.9591 797.857 92.1398 839.502 68.9897L839.265 68.5632ZM1226.68 55.6868C1226.77 55.4604 1226.77 55.46 1226.77 55.4594C1226.77 55.4587 1226.77 55.4577 1226.76 55.4564C1226.76 55.4538 1226.75 55.4499 1226.73 55.4447C1226.71 55.4344 1226.67 55.4191 1226.62 55.3988C1226.51 55.3583 1226.36 55.2981 1226.16 55.2192C1225.75 55.0615 1225.15 54.8291 1224.35 54.5303C1222.76 53.9326 1220.4 53.0691 1217.34 52.005C1211.22 49.8768 1202.27 46.9463 1190.99 43.7358C1168.42 37.315 1136.5 29.7738 1099.08 25.2919C1024.23 16.3285 927.35 19.5986 839.265 68.5632L839.502 68.9897C927.462 20.0943 1024.23 16.8195 1099.02 25.7764C1136.41 30.2546 1168.31 37.7897 1190.86 44.2052C1202.13 47.4129 1211.06 50.3405 1217.18 52.466C1220.24 53.5287 1222.59 54.3908 1224.18 54.9871C1224.97 55.2853 1225.58 55.517 1225.98 55.6741C1226.18 55.7526 1226.34 55.8125 1226.44 55.8527C1226.49 55.8728 1226.53 55.888 1226.55 55.8981C1226.57 55.9032 1226.57 55.907 1226.58 55.9095C1226.58 55.9108 1226.59 55.9117 1226.59 55.9124C1226.59 55.913 1226.59 55.9133 1226.68 55.6868ZM1226.93 525.907V55.6868H1226.44V525.907H1226.93ZM1226.68 525.663H1226.68V526.151H1226.68V525.663ZM1226.93 1014.8V525.907H1226.44V1014.8H1226.93ZM767.22 970.544C893.194 948.304 1008.04 959.424 1091.39 976.104C1133.07 984.444 1166.87 994.174 1190.25 1001.82C1201.94 1005.64 1211.03 1008.94 1217.19 1011.29C1220.27 1012.46 1222.62 1013.39 1224.2 1014.03C1224.99 1014.35 1225.59 1014.6 1225.99 1014.77C1226.19 1014.85 1226.34 1014.91 1226.44 1014.96C1226.49 1014.98 1226.52 1014.99 1226.55 1015C1226.56 1015.01 1226.57 1015.01 1226.58 1015.02C1226.58 1015.02 1226.58 1015.02 1226.59 1015.02C1226.59 1015.02 1226.59 1015.02 1226.68 1014.8C1226.78 1014.57 1226.78 1014.57 1226.78 1014.57C1226.78 1014.57 1226.77 1014.57 1226.77 1014.57C1226.76 1014.56 1226.75 1014.56 1226.74 1014.55C1226.72 1014.54 1226.68 1014.53 1226.63 1014.51C1226.53 1014.46 1226.38 1014.4 1226.17 1014.32C1225.77 1014.15 1225.17 1013.9 1224.38 1013.58C1222.8 1012.94 1220.45 1012 1217.36 1010.83C1211.19 1008.48 1202.1 1005.18 1190.4 1001.35C1167.01 993.705 1133.18 983.97 1091.49 975.626C1008.09 958.937 893.185 947.81 767.135 970.063L767.22 970.544ZM518.082 964.359C579.996 976.471 652.877 990.73 767.22 970.544L767.135 970.063C652.881 990.233 580.071 975.989 518.176 963.88L518.082 964.359ZM288.747 993.853C336.822 966.068 375.514 955.053 411.497 952.801C447.487 950.549 480.781 957.061 518.082 964.359L518.176 963.88C480.885 956.584 447.529 950.057 411.466 952.314C375.396 954.571 336.632 965.614 288.503 993.43L288.747 993.853ZM4.51782 1014.8C4.37195 1014.99 4.3725 1014.99 4.37345 1014.99C4.37432 1014.99 4.37569 1014.99 4.37743 1015C4.3809 1015 4.38602 1015 4.39279 1015.01C4.40632 1015.02 4.42643 1015.03 4.45309 1015.05C4.50643 1015.09 4.58601 1015.15 4.69168 1015.22C4.90302 1015.37 5.21871 1015.59 5.63753 1015.88C6.47516 1016.45 7.72533 1017.26 9.37826 1018.27C12.6841 1020.28 17.601 1023.03 24.0508 1026.02C36.9504 1031.99 55.9818 1038.9 80.5183 1042.61C129.596 1050.05 200.678 1044.75 288.747 993.853L288.503 993.43C200.527 1044.28 129.556 1049.55 80.5914 1042.13C56.1066 1038.42 37.1195 1031.53 24.2559 1025.58C17.8241 1022.6 12.9233 1019.85 9.63171 1017.85C7.98595 1016.85 6.74254 1016.04 5.91127 1015.47C5.49563 1015.19 5.18303 1014.97 4.97469 1014.82C4.87052 1014.75 4.79242 1014.69 4.74053 1014.66C4.71459 1014.64 4.6952 1014.62 4.68239 1014.61C4.67598 1014.61 4.67122 1014.61 4.6681 1014.6C4.66654 1014.6 4.66544 1014.6 4.66466 1014.6C4.66397 1014.6 4.66369 1014.6 4.51782 1014.8ZM4.27382 525.907V1014.8H4.76181V525.907H4.27382Z" fill="#4AFF85" mask="url(#path-1-outside-1_8307_143297)"/>
<g opacity="0.6">
<mask id="path-3-outside-2_8307_143297" maskUnits="userSpaceOnUse" x="3.51367" y="10.8594" width="1224" height="1040" fill="black">
<rect fill="white" x="3.51367" y="10.8594" width="1224" height="1040"/>
<path fill-rule="evenodd" clip-rule="evenodd" d="M1226.71 523.392H1226.7V1019.29C1226.7 1019.29 1019.22 929.033 767.189 974.164C652.888 994.631 580.041 980.176 518.135 967.891C443.541 953.088 384.832 941.438 288.627 997.837C112.579 1101.04 4.51367 1019.29 4.51367 1019.29V523.392H4.51578V46.4257C4.51578 46.4257 255.16 217.881 464.03 89.8327C574.145 22.3264 623.555 45.2124 671.456 67.4001C714.416 87.2988 756.163 106.636 839.4 59.7031C1015.45 -39.5608 1226.71 46.4257 1226.71 46.4257V523.392Z"/>
</mask>
<path fill-rule="evenodd" clip-rule="evenodd" d="M1226.71 523.392H1226.7V1019.29C1226.7 1019.29 1019.22 929.033 767.189 974.164C652.888 994.631 580.041 980.176 518.135 967.891C443.541 953.088 384.832 941.438 288.627 997.837C112.579 1101.04 4.51367 1019.29 4.51367 1019.29V523.392H4.51578V46.4257C4.51578 46.4257 255.16 217.881 464.03 89.8327C574.145 22.3264 623.555 45.2124 671.456 67.4001C714.416 87.2988 756.163 106.636 839.4 59.7031C1015.45 -39.5608 1226.71 46.4257 1226.71 46.4257V523.392Z" fill="url(#paint1_linear_8307_143297)"/>
<path d="M1226.7 523.392V523.148H1226.46V523.392H1226.7ZM1226.71 523.392V523.635H1226.95V523.392H1226.71ZM1226.7 1019.29L1226.61 1019.52L1226.95 1019.67V1019.29H1226.7ZM767.189 974.164L767.146 973.924L767.146 973.924L767.189 974.164ZM518.135 967.891L518.182 967.651L518.182 967.651L518.135 967.891ZM288.627 997.837L288.503 997.626L288.503 997.626L288.627 997.837ZM4.51367 1019.29H4.26968V1019.42L4.36647 1019.49L4.51367 1019.29ZM4.51367 523.392V523.148H4.26968V523.392H4.51367ZM4.51578 523.392V523.635H4.75977V523.392H4.51578ZM4.51578 46.4257L4.65354 46.2243L4.27178 45.9632V46.4257H4.51578ZM464.03 89.8327L464.158 90.0407L464.158 90.0407L464.03 89.8327ZM671.456 67.4001L671.354 67.6215L671.354 67.6215L671.456 67.4001ZM839.4 59.7031L839.52 59.9157L839.52 59.9157L839.4 59.7031ZM1226.71 46.4257H1226.95V46.2616L1226.8 46.1997L1226.71 46.4257ZM1226.7 523.635H1226.71V523.148H1226.7V523.635ZM1226.95 1019.29V523.392H1226.46V1019.29H1226.95ZM767.232 974.404C893.207 951.846 1008.05 963.124 1091.41 980.044C1133.08 988.504 1166.89 998.373 1190.27 1006.13C1201.96 1010 1211.05 1013.35 1217.21 1015.73C1220.29 1016.92 1222.64 1017.87 1224.22 1018.52C1225.01 1018.84 1225.61 1019.09 1226.01 1019.26C1226.21 1019.35 1226.36 1019.41 1226.46 1019.45C1226.51 1019.47 1226.54 1019.49 1226.57 1019.5C1226.58 1019.51 1226.59 1019.51 1226.6 1019.51C1226.6 1019.52 1226.6 1019.52 1226.6 1019.52C1226.61 1019.52 1226.61 1019.52 1226.7 1019.29C1226.8 1019.07 1226.8 1019.07 1226.8 1019.07C1226.8 1019.07 1226.79 1019.07 1226.79 1019.07C1226.78 1019.06 1226.77 1019.06 1226.76 1019.05C1226.74 1019.04 1226.7 1019.03 1226.65 1019C1226.55 1018.96 1226.4 1018.9 1226.2 1018.81C1225.79 1018.64 1225.2 1018.39 1224.4 1018.07C1222.82 1017.42 1220.47 1016.47 1217.38 1015.28C1211.21 1012.89 1202.12 1009.54 1190.42 1005.66C1167.02 997.905 1133.2 988.03 1091.51 979.566C1008.11 962.638 893.198 951.351 767.146 973.924L767.232 974.404ZM518.087 968.13C580.003 980.417 652.885 994.88 767.232 974.404L767.146 973.924C652.89 994.383 580.079 979.934 518.182 967.651L518.087 968.13ZM288.75 998.047C336.826 969.864 375.518 958.691 411.501 956.407C447.491 954.122 480.786 960.728 518.087 968.13L518.182 967.651C480.89 960.251 447.534 953.63 411.47 955.92C375.398 958.209 336.633 969.411 288.503 997.626L288.75 998.047ZM4.51367 1019.29C4.36647 1019.49 4.36702 1019.49 4.36797 1019.49C4.36884 1019.49 4.37021 1019.49 4.37195 1019.49C4.37542 1019.5 4.38054 1019.5 4.3873 1019.5C4.40083 1019.51 4.42094 1019.53 4.44761 1019.55C4.50095 1019.59 4.58054 1019.65 4.68621 1019.72C4.89755 1019.88 5.21324 1020.1 5.63207 1020.39C6.46972 1020.96 7.71992 1021.79 9.37289 1022.81C12.6788 1024.85 17.5959 1027.65 24.0458 1030.68C36.9458 1036.74 55.9778 1043.74 80.5151 1047.51C129.594 1055.05 200.679 1049.68 288.75 998.047L288.503 997.626C200.526 1049.2 129.554 1054.55 80.5892 1047.03C56.1043 1043.26 37.1171 1036.28 24.2533 1030.23C17.8214 1027.21 12.9206 1024.43 9.62898 1022.4C7.9832 1021.38 6.73977 1020.56 5.90848 1019.99C5.49283 1019.7 5.18023 1019.48 4.97189 1019.33C4.86771 1019.25 4.78961 1019.2 4.73772 1019.16C4.71178 1019.14 4.69239 1019.12 4.67958 1019.11C4.67317 1019.11 4.6684 1019.11 4.66529 1019.1C4.66373 1019.1 4.66262 1019.1 4.66184 1019.1C4.66115 1019.1 4.66087 1019.1 4.51367 1019.29ZM4.26968 523.392V1019.29H4.75767V523.392H4.26968ZM4.51578 523.148H4.51367V523.635H4.51578V523.148ZM4.27178 46.4257V523.392H4.75977V46.4257H4.27178ZM463.903 89.6246C359.552 153.597 244.755 142.762 156.017 115.914C111.651 102.491 73.8078 85.067 47.0561 70.9989C33.6805 63.9651 23.0784 57.7704 15.8208 53.3347C12.1921 51.1168 9.39948 49.3387 7.51446 48.1153C6.57195 47.5036 5.85633 47.0306 5.37654 46.7107C5.13664 46.5507 4.9557 46.429 4.83482 46.3473C4.77439 46.3065 4.72897 46.2757 4.69871 46.2551C4.68358 46.2448 4.67224 46.2371 4.6647 46.232C4.66094 46.2294 4.65815 46.2275 4.65626 46.2262C4.65442 46.2249 4.65354 46.2243 4.51578 46.4257C4.37802 46.6271 4.37905 46.6278 4.38103 46.6292C4.38297 46.6305 4.3859 46.6325 4.38977 46.6351C4.3975 46.6404 4.40903 46.6483 4.42436 46.6587C4.45501 46.6795 4.50082 46.7106 4.56166 46.7517C4.68333 46.8339 4.86508 46.9561 5.10579 47.1167C5.58723 47.4377 6.30454 47.9118 7.2488 48.5247C9.13731 49.7503 11.9336 51.5308 15.5664 53.751C22.8318 58.1916 33.4431 64.3915 46.829 71.4308C73.6003 85.5092 111.473 102.946 155.876 116.381C244.678 143.249 359.638 154.117 464.158 90.0407L463.903 89.6246ZM671.559 67.1787C647.61 56.0859 623.238 44.7939 591.074 44.7371C558.909 44.6804 518.983 55.8574 463.903 89.6246L464.158 90.0407C519.192 56.3016 559.029 45.1686 591.073 45.2251C623.117 45.2817 647.401 56.5266 671.354 67.6215L671.559 67.1787ZM839.28 59.4906C797.69 82.941 766.49 89.8215 740.338 88.3698C714.18 86.9177 693.043 77.13 671.559 67.1787L671.354 67.6215C692.829 77.5689 714.046 87.3991 740.311 88.857C766.581 90.3153 797.873 83.398 839.52 59.9157L839.28 59.4906ZM1226.71 46.4257C1226.8 46.1997 1226.8 46.1994 1226.79 46.1987C1226.79 46.198 1226.79 46.197 1226.79 46.1957C1226.78 46.193 1226.77 46.1891 1226.76 46.1839C1226.73 46.1734 1226.69 46.1578 1226.64 46.1373C1226.54 46.0962 1226.39 46.0351 1226.18 45.9551C1225.78 45.7951 1225.17 45.5594 1224.38 45.2563C1222.78 44.65 1220.43 43.7741 1217.37 42.6947C1211.24 40.536 1202.3 37.5634 1191.01 34.3069C1168.45 27.7939 1136.53 20.1444 1099.1 15.5982C1024.25 6.50625 927.367 9.82327 839.28 59.4906L839.52 59.9157C927.481 10.319 1024.25 6.99736 1099.04 16.0827C1136.44 20.6251 1168.33 28.2683 1190.88 34.7757C1202.15 38.0294 1211.09 40.9991 1217.2 43.155C1220.26 44.2329 1222.61 45.1074 1224.2 45.7123C1225 46.0147 1225.6 46.2498 1226 46.4091C1226.21 46.4887 1226.36 46.5495 1226.46 46.5903C1226.51 46.6107 1226.55 46.6261 1226.58 46.6363C1226.59 46.6415 1226.6 46.6453 1226.6 46.6479C1226.61 46.6492 1226.61 46.6501 1226.61 46.6508C1226.61 46.6514 1226.61 46.6517 1226.71 46.4257ZM1226.95 523.392V46.4257H1226.46V523.392H1226.95Z" fill="#4AFF85" mask="url(#path-3-outside-2_8307_143297)"/>
</g>
<g opacity="0.4">
<mask id="path-5-outside-3_8307_143297" maskUnits="userSpaceOnUse" x="-3" y="0" width="1240" height="1059" fill="black">
<rect fill="white" x="-3" width="1240" height="1059"/>
<path fill-rule="evenodd" clip-rule="evenodd" d="M-1.99915 521.817H-2V36.1938C-2 36.1938 251.887 210.761 463.459 80.3886C574.998 11.657 625.046 34.9584 673.568 57.5488C717.083 77.8088 759.371 97.4968 843.684 49.7122C1022.01 -51.3535 1236 36.1938 1236 36.1938V521.817L1236 1026.72C1236 1026.72 1025.83 934.822 770.541 980.771C654.762 1001.61 580.973 986.892 518.266 974.384C442.707 959.313 383.239 947.452 285.789 1004.87C107.464 1109.95 -1.99915 1026.72 -1.99915 1026.72V521.817Z"/>
</mask>
<path fill-rule="evenodd" clip-rule="evenodd" d="M-1.99915 521.817H-2V36.1938C-2 36.1938 251.887 210.761 463.459 80.3886C574.998 11.657 625.046 34.9584 673.568 57.5488C717.083 77.8088 759.371 97.4968 843.684 49.7122C1022.01 -51.3535 1236 36.1938 1236 36.1938V521.817L1236 1026.72C1236 1026.72 1025.83 934.822 770.541 980.771C654.762 1001.61 580.973 986.892 518.266 974.384C442.707 959.313 383.239 947.452 285.789 1004.87C107.464 1109.95 -1.99915 1026.72 -1.99915 1026.72V521.817Z" fill="url(#paint2_linear_8307_143297)"/>
<path d="M-2 521.817H-2.24399V522.061H-2V521.817ZM-1.99915 521.817H-1.75516V521.573H-1.99915V521.817ZM-2 36.1938L-1.86176 35.9927L-2.24399 35.7299V36.1938H-2ZM463.459 80.3886L463.587 80.5963L463.587 80.5963L463.459 80.3886ZM673.568 57.5488L673.465 57.77L673.465 57.77L673.568 57.5488ZM843.684 49.7122L843.804 49.9244L843.804 49.9244L843.684 49.7122ZM1236 36.1938H1236.24V36.03L1236.09 35.9679L1236 36.1938ZM1236 521.817L1235.76 521.817L1235.76 521.817L1236 521.817ZM1236 1026.72L1235.9 1026.94L1236.24 1027.09L1236.24 1026.72L1236 1026.72ZM770.541 980.771L770.498 980.531L770.498 980.531L770.541 980.771ZM518.266 974.384L518.314 974.145L518.314 974.145L518.266 974.384ZM285.789 1004.87L285.913 1005.08L285.913 1005.08L285.789 1004.87ZM-1.99915 1026.72H-2.24315V1026.84L-2.14683 1026.92L-1.99915 1026.72ZM-2 522.061H-1.99915V521.573H-2V522.061ZM-2.24399 36.1938V521.817H-1.75601V36.1938H-2.24399ZM463.331 80.1809C357.629 145.315 241.346 134.283 151.461 106.948C106.52 93.2805 68.1874 75.5406 41.0896 61.2172C27.541 54.0556 16.8016 47.7485 9.45013 43.2322C5.7744 40.9741 2.94566 39.1637 1.03623 37.9181C0.0815153 37.2953 -0.643367 36.8137 -1.12938 36.4879C-1.37239 36.325 -1.55567 36.2011 -1.67811 36.1179C-1.73933 36.0764 -1.78534 36.045 -1.816 36.024C-1.83132 36.0136 -1.84281 36.0057 -1.85045 36.0005C-1.85426 35.9979 -1.85709 35.9959 -1.859 35.9946C-1.86086 35.9933 -1.86176 35.9927 -2 36.1938C-2.13824 36.3948 -2.1372 36.3955 -2.13519 36.3969C-2.13323 36.3983 -2.13026 36.4003 -2.12635 36.403C-2.11852 36.4083 -2.10683 36.4163 -2.09131 36.427C-2.06026 36.4482 -2.01386 36.4798 -1.95224 36.5217C-1.82901 36.6053 -1.64491 36.7298 -1.40108 36.8932C-0.91343 37.2201 -0.186853 37.7028 0.769607 38.3268C2.68252 39.5746 5.51499 41.3874 9.19469 43.648C16.5541 48.1691 27.3025 54.4815 40.8616 61.6486C67.9791 75.9824 106.341 93.7361 151.319 107.414C241.269 134.77 357.716 145.835 463.587 80.5963L463.331 80.1809ZM673.671 57.3276C649.412 46.0335 624.725 34.5368 592.145 34.479C559.565 34.4212 519.123 45.8009 463.331 80.1809L463.587 80.5963C519.333 46.2447 559.686 34.9094 592.144 34.967C624.604 35.0246 649.202 46.4738 673.465 57.77L673.671 57.3276ZM843.564 49.4999C801.435 73.3762 769.832 80.3817 743.34 78.9036C716.843 77.4251 695.433 67.4595 673.671 57.3276L673.465 57.77C695.218 67.898 716.709 77.9064 743.313 79.3908C769.923 80.8755 801.619 73.8328 843.804 49.9244L843.564 49.4999ZM1236 36.1938C1236.09 35.9679 1236.09 35.9676 1236.09 35.9669C1236.09 35.9662 1236.08 35.9652 1236.08 35.9638C1236.07 35.9611 1236.06 35.9571 1236.05 35.9518C1236.03 35.9411 1235.99 35.9253 1235.93 35.9044C1235.83 35.8625 1235.68 35.8003 1235.47 35.7189C1235.06 35.556 1234.45 35.316 1233.64 35.0074C1232.03 34.3901 1229.64 33.4983 1226.54 32.3994C1220.33 30.2015 1211.27 27.175 1199.84 23.8593C1176.99 17.2281 1144.65 9.43986 1106.74 4.81113C1030.93 -4.44586 932.789 -1.06858 843.564 49.4999L843.804 49.9244C932.904 -0.572775 1030.92 -3.9547 1106.68 5.29553C1144.56 9.92041 1176.87 17.7024 1199.71 24.328C1211.13 27.6407 1220.18 30.6643 1226.37 32.8593C1229.47 33.9569 1231.86 34.8473 1233.47 35.4631C1234.27 35.771 1234.88 36.0103 1235.29 36.1725C1235.49 36.2537 1235.65 36.3155 1235.75 36.357C1235.8 36.3778 1235.84 36.3935 1235.87 36.4039C1235.88 36.4092 1235.89 36.4131 1235.9 36.4157C1235.9 36.417 1235.9 36.418 1235.9 36.4187C1235.91 36.4193 1235.91 36.4196 1236 36.1938ZM1236.24 521.817V36.1938H1235.76V521.817H1236.24ZM1236.24 1026.72L1236.24 521.817L1235.76 521.817L1235.76 1026.72L1236.24 1026.72ZM770.585 981.011C898.19 958.044 1014.52 969.527 1098.96 986.754C1141.17 995.367 1175.41 1005.42 1199.09 1013.31C1210.94 1017.26 1220.14 1020.67 1226.38 1023.09C1229.5 1024.3 1231.88 1025.26 1233.48 1025.93C1234.28 1026.26 1234.89 1026.51 1235.29 1026.68C1235.5 1026.77 1235.65 1026.83 1235.75 1026.88C1235.8 1026.9 1235.84 1026.92 1235.86 1026.93C1235.88 1026.93 1235.89 1026.94 1235.89 1026.94C1235.9 1026.94 1235.9 1026.94 1235.9 1026.94C1235.9 1026.94 1235.9 1026.94 1236 1026.72C1236.1 1026.5 1236.1 1026.5 1236.1 1026.5C1236.09 1026.5 1236.09 1026.49 1236.09 1026.49C1236.08 1026.49 1236.07 1026.49 1236.06 1026.48C1236.03 1026.47 1235.99 1026.45 1235.94 1026.43C1235.84 1026.39 1235.69 1026.32 1235.48 1026.23C1235.08 1026.06 1234.47 1025.81 1233.67 1025.47C1232.07 1024.81 1229.68 1023.85 1226.56 1022.63C1220.31 1020.21 1211.1 1016.8 1199.25 1012.85C1175.55 1004.95 1141.29 994.894 1099.05 986.276C1014.58 969.041 898.181 957.55 770.498 980.531L770.585 981.011ZM518.218 974.624C580.934 987.133 654.76 1001.86 770.585 981.011L770.498 980.531C654.764 1001.36 581.011 986.651 518.314 974.145L518.218 974.624ZM285.913 1005.08C334.611 976.389 373.804 965.013 410.252 962.688C446.708 960.362 480.434 967.087 518.218 974.624L518.314 974.145C480.539 966.611 446.751 959.87 410.221 962.201C373.684 964.532 334.417 975.937 285.665 1004.66L285.913 1005.08ZM-1.99915 1026.72C-2.14683 1026.92 -2.14628 1026.92 -2.14532 1026.92C-2.14444 1026.92 -2.14305 1026.92 -2.14129 1026.92C-2.13778 1026.92 -2.13259 1026.93 -2.12574 1026.93C-2.11204 1026.94 -2.09168 1026.96 -2.06467 1026.98C-2.01065 1027.02 -1.93005 1027.08 -1.82302 1027.15C-1.60897 1027.31 -1.28921 1027.54 -0.864982 1027.83C-0.016533 1028.42 1.2498 1029.26 2.9241 1030.3C6.27268 1032.37 11.2533 1035.22 17.7866 1038.3C30.8532 1044.47 50.1312 1051.6 74.9857 1055.44C124.699 1063.13 196.703 1057.65 285.913 1005.08L285.665 1004.66C196.549 1057.18 124.659 1062.63 75.0602 1054.96C50.2583 1051.13 31.0253 1044.02 17.9949 1037.86C11.4798 1034.79 6.5154 1031.95 3.18115 1029.88C1.51403 1028.85 0.254476 1028.01 -0.587609 1027.43C-1.00865 1027.14 -1.32532 1026.91 -1.53638 1026.76C-1.64191 1026.68 -1.72103 1026.62 -1.7736 1026.59C-1.79988 1026.57 -1.81953 1026.55 -1.83251 1026.54C-1.839 1026.54 -1.84383 1026.53 -1.84699 1026.53C-1.84857 1026.53 -1.84969 1026.53 -1.85048 1026.53C-1.85118 1026.53 -1.85147 1026.53 -1.99915 1026.72ZM-2.24315 521.817V1026.72H-1.75516V521.817H-2.24315Z" fill="#4AFF85" mask="url(#path-5-outside-3_8307_143297)"/>
</g>
<defs>
<linearGradient id="paint0_linear_8307_143297" x1="615.6" y1="251.832" x2="615.661" y2="998.489" gradientUnits="userSpaceOnUse">
<stop stop-color="#C7FFD8" stop-opacity="0.74"/>
<stop offset="0.0001" stop-color="#B4FFCA" stop-opacity="0.74"/>
<stop offset="0.401042" stop-color="#D7FFF4"/>
<stop offset="0.677083" stop-color="#DBFFE0"/>
<stop offset="1" stop-color="#9AFFA4"/>
</linearGradient>
<linearGradient id="paint1_linear_8307_143297" x1="615.609" y1="245.385" x2="618.999" y2="1024.75" gradientUnits="userSpaceOnUse">
<stop stop-color="#B4FFCA" stop-opacity="0.74"/>
<stop offset="0.0001" stop-color="#B4FFCA" stop-opacity="0.74"/>
<stop offset="0.401042" stop-color="#C8FFF0"/>
<stop offset="0.677083" stop-color="#E7FFEA"/>
<stop offset="1" stop-color="#DFFFDA"/>
</linearGradient>
<linearGradient id="paint2_linear_8307_143297" x1="617" y1="238.764" x2="620.469" y2="1032.28" gradientUnits="userSpaceOnUse">
<stop stop-color="#B4FFCA" stop-opacity="0.74"/>
<stop offset="0.0001" stop-color="#B4FFCA" stop-opacity="0.74"/>
<stop offset="0.401042" stop-color="#C8FFF0"/>
<stop offset="0.677083" stop-color="#E7FFEA"/>
<stop offset="1" stop-color="#DFFFDA"/>
</linearGradient>
</defs>
</svg>
