<svg width="1440" height="1525" viewBox="0 0 1440 1525" fill="none" xmlns="http://www.w3.org/2000/svg">
<mask id="path-1-outside-1_6790_201015" maskUnits="userSpaceOnUse" x="-1" y="81.0703" width="1442" height="1409" fill="black">
<rect fill="white" x="-1" y="81.0703" width="1442" height="1409"/>
<path fill-rule="evenodd" clip-rule="evenodd" d="M1440 128.898V775.059V1446.87C1440 1446.87 1195.54 1324.59 898.594 1385.73C763.923 1413.46 678.094 1393.88 605.155 1377.24C517.268 1357.18 448.097 1341.4 334.746 1417.81C127.324 1557.62 0 1446.87 0 1446.87V775.059L4.88758e-05 128.898C4.88758e-05 128.898 295.313 361.175 541.406 187.703C671.145 96.2503 729.36 127.255 785.798 157.313C836.414 184.271 885.601 210.467 983.672 146.886C1191.09 12.4098 1440 128.898 1440 128.898Z"/>
</mask>
<path fill-rule="evenodd" clip-rule="evenodd" d="M1440 128.898V775.059V1446.87C1440 1446.87 1195.54 1324.59 898.594 1385.73C763.923 1413.46 678.094 1393.88 605.155 1377.24C517.268 1357.18 448.097 1341.4 334.746 1417.81C127.324 1557.62 0 1446.87 0 1446.87V775.059L4.88758e-05 128.898C4.88758e-05 128.898 295.313 361.175 541.406 187.703C671.145 96.2503 729.36 127.255 785.798 157.313C836.414 184.271 885.601 210.467 983.672 146.886C1191.09 12.4098 1440 128.898 1440 128.898Z" fill="url(#paint0_linear_6790_201015)"/>
<path d="M1440 128.898H1441V128.262L1440.42 127.993L1440 128.898ZM1440 1446.87L1439.55 1447.77L1441 1448.49V1446.87H1440ZM898.594 1385.73L898.392 1384.75L898.594 1385.73ZM605.155 1377.24L604.933 1378.21L605.155 1377.24ZM334.746 1417.81L334.187 1416.98L334.746 1417.81ZM0 1446.87H-1V1447.33L-0.65628 1447.63L0 1446.87ZM0 775.059H-1H0ZM4.88758e-05 128.898L0.618273 128.112L-0.999951 126.84L-0.999951 128.898H4.88758e-05ZM541.406 187.703L540.83 186.886L541.406 187.703ZM785.798 157.313L785.328 158.196L785.798 157.313ZM983.672 146.886L983.128 146.047L983.672 146.886ZM1441 775.059V128.898H1439V775.059H1441ZM1441 1446.87V775.059H1439V1446.87H1441ZM898.795 1386.71C1047.09 1356.18 1182.29 1371.45 1280.42 1394.35C1329.49 1405.8 1369.28 1419.16 1396.81 1429.66C1410.57 1434.9 1421.26 1439.44 1428.51 1442.65C1432.13 1444.26 1434.9 1445.54 1436.75 1446.42C1437.68 1446.86 1438.38 1447.2 1438.85 1447.42C1439.09 1447.54 1439.26 1447.62 1439.38 1447.68C1439.44 1447.71 1439.48 1447.73 1439.51 1447.75C1439.52 1447.75 1439.54 1447.76 1439.54 1447.76C1439.55 1447.76 1439.55 1447.77 1439.55 1447.77C1439.55 1447.77 1439.55 1447.77 1440 1446.87C1440.45 1445.98 1440.45 1445.98 1440.44 1445.98C1440.44 1445.98 1440.44 1445.98 1440.43 1445.97C1440.43 1445.97 1440.42 1445.96 1440.4 1445.96C1440.37 1445.94 1440.32 1445.92 1440.26 1445.89C1440.14 1445.83 1439.96 1445.74 1439.73 1445.63C1439.25 1445.39 1438.54 1445.05 1437.61 1444.61C1435.74 1443.73 1432.96 1442.44 1429.32 1440.82C1422.04 1437.59 1411.32 1433.05 1397.52 1427.79C1369.93 1417.27 1330.05 1403.88 1280.88 1392.4C1182.55 1369.45 1047.04 1354.15 898.392 1384.75L898.795 1386.71ZM604.933 1378.21C677.914 1394.86 763.912 1414.49 898.795 1386.71L898.392 1384.75C763.934 1412.44 678.273 1392.89 605.378 1376.26L604.933 1378.21ZM335.304 1418.63C391.868 1380.51 437.333 1365.43 479.572 1362.35C521.846 1359.26 560.965 1368.18 604.933 1378.21L605.378 1376.26C561.458 1366.24 522.048 1357.24 479.427 1360.35C436.77 1363.46 390.975 1378.7 334.187 1416.98L335.304 1418.63ZM0 1446.87C-0.65628 1447.63 -0.655266 1447.63 -0.653766 1447.63C-0.652618 1447.63 -0.650631 1447.63 -0.648335 1447.64C-0.643743 1447.64 -0.637208 1447.64 -0.628732 1447.65C-0.611781 1447.67 -0.587068 1447.69 -0.554616 1447.72C-0.489713 1447.77 -0.393853 1447.85 -0.267217 1447.96C-0.013946 1448.17 0.362442 1448.47 0.860509 1448.87C1.85663 1449.66 3.33954 1450.79 5.29775 1452.18C9.21403 1454.95 15.0322 1458.75 22.6601 1462.87C37.9156 1471.11 60.4141 1480.63 89.4155 1485.75C147.447 1496.01 231.394 1488.68 335.304 1418.63L334.187 1416.98C230.675 1486.75 147.249 1493.95 89.7636 1483.79C61.0064 1478.7 38.7101 1469.27 23.6105 1461.11C16.0608 1457.04 10.3113 1453.28 6.45437 1450.54C4.52595 1449.18 3.07083 1448.07 2.10058 1447.3C1.61546 1446.92 1.25158 1446.62 1.01037 1446.42C0.88977 1446.32 0.799841 1446.24 0.740765 1446.19C0.711227 1446.17 0.689403 1446.15 0.675314 1446.14C0.66827 1446.13 0.66316 1446.13 0.659987 1446.12C0.6584 1446.12 0.657474 1446.12 0.65668 1446.12C0.656238 1446.12 0.65628 1446.12 0 1446.87ZM-1 775.059V1446.87H1V775.059H-1ZM-0.999951 128.898L-1 775.059H1L1.00005 128.898H-0.999951ZM540.83 186.886C418.155 273.36 283.183 258.74 178.747 222.408C126.535 204.245 81.9946 180.666 50.5053 161.625C34.7619 152.106 22.2842 143.723 13.7449 137.722C9.47531 134.722 6.19055 132.317 3.97469 130.663C2.86677 129.836 2.0261 129.197 1.46319 128.766C1.18173 128.55 0.969718 128.386 0.82846 128.276C0.757831 128.222 0.704892 128.18 0.669806 128.153C0.652263 128.139 0.639183 128.129 0.630588 128.122C0.62629 128.119 0.623212 128.116 0.62106 128.115C0.619105 128.113 0.618273 128.112 4.88758e-05 128.898C-0.618176 129.684 -0.616754 129.686 -0.614208 129.688C-0.611859 129.689 -0.608188 129.692 -0.603494 129.696C-0.594106 129.703 -0.580231 129.714 -0.56189 129.729C-0.525207 129.757 -0.470657 129.8 -0.398404 129.856C-0.253899 129.968 -0.0385837 130.135 0.246228 130.353C0.81585 130.79 1.66347 131.434 2.77856 132.266C5.00874 133.93 8.3089 136.346 12.5949 139.358C21.1668 145.382 33.683 153.791 49.4704 163.337C81.0426 182.427 125.711 206.075 178.089 224.297C282.833 260.736 418.564 275.518 541.982 188.521L540.83 186.886ZM786.268 156.43C758.065 141.41 729.197 126.019 691.092 125.941C652.981 125.864 605.791 141.095 540.83 186.886L541.982 188.521C606.761 142.858 653.547 127.865 691.088 127.941C728.634 128.018 757.093 143.158 785.328 158.196L786.268 156.43ZM983.128 146.047C934.209 177.762 897.606 187.007 867.003 185.053C836.368 183.098 811.6 169.922 786.268 156.43L785.328 158.196C810.613 171.662 835.746 185.062 866.876 187.049C898.038 189.038 935.064 179.591 984.216 147.725L983.128 146.047ZM1440 128.898C1440.42 127.993 1440.42 127.992 1440.42 127.991C1440.42 127.99 1440.42 127.989 1440.41 127.987C1440.4 127.983 1440.39 127.978 1440.38 127.97C1440.34 127.956 1440.3 127.934 1440.24 127.906C1440.11 127.85 1439.93 127.767 1439.69 127.658C1439.21 127.44 1438.5 127.119 1437.56 126.707C1435.67 125.883 1432.89 124.694 1429.28 123.229C1422.05 120.299 1411.49 116.266 1398.18 111.849C1371.56 103.015 1333.91 92.6397 1289.76 86.4732C1201.47 74.1417 1087.11 78.6305 983.128 146.047L984.216 147.725C1087.65 80.665 1201.46 76.1602 1289.48 88.454C1333.48 94.6001 1371.02 104.942 1397.55 113.747C1410.82 118.15 1421.33 122.167 1428.52 125.082C1432.12 126.54 1434.89 127.722 1436.75 128.539C1437.69 128.947 1438.39 129.265 1438.87 129.479C1439.1 129.586 1439.28 129.668 1439.4 129.723C1439.46 129.75 1439.5 129.771 1439.53 129.784C1439.55 129.791 1439.56 129.796 1439.57 129.799C1439.57 129.801 1439.57 129.802 1439.57 129.803C1439.58 129.804 1439.58 129.804 1440 128.898Z" fill="#4AFF85" mask="url(#path-1-outside-1_6790_201015)"/>
<g opacity="0.6">
<mask id="path-3-outside-2_6790_201015" maskUnits="userSpaceOnUse" x="-37.9102" y="44.4844" width="1516" height="1481" fill="black">
<rect fill="white" x="-37.9102" y="44.4844" width="1516" height="1481"/>
<path fill-rule="evenodd" clip-rule="evenodd" d="M1476.91 773.997H1476.91V1480.25C1476.91 1480.25 1219.91 1351.7 907.748 1415.98C766.173 1445.13 675.944 1424.54 599.267 1407.04C506.874 1385.96 434.157 1369.37 314.995 1449.69C96.9404 1596.67 -36.9102 1480.25 -36.9102 1480.25V773.997H-36.9088V94.713C-36.9088 94.713 273.542 338.896 532.251 156.532C668.641 60.3913 729.84 92.985 789.171 124.584C842.382 152.924 894.091 180.463 997.188 113.622C1215.24 -27.7471 1476.91 94.713 1476.91 94.713V773.997Z"/>
</mask>
<path fill-rule="evenodd" clip-rule="evenodd" d="M1476.91 773.997H1476.91V1480.25C1476.91 1480.25 1219.91 1351.7 907.748 1415.98C766.173 1445.13 675.944 1424.54 599.267 1407.04C506.874 1385.96 434.157 1369.37 314.995 1449.69C96.9404 1596.67 -36.9102 1480.25 -36.9102 1480.25V773.997H-36.9088V94.713C-36.9088 94.713 273.542 338.896 532.251 156.532C668.641 60.3913 729.84 92.985 789.171 124.584C842.382 152.924 894.091 180.463 997.188 113.622C1215.24 -27.7471 1476.91 94.713 1476.91 94.713V773.997Z" fill="url(#paint1_linear_6790_201015)"/>
<path d="M1476.91 773.997V772.997H1475.91V773.997H1476.91ZM1476.91 773.997V774.997H1477.91V773.997H1476.91ZM1476.91 1480.25L1476.46 1481.15L1477.91 1481.87V1480.25H1476.91ZM907.748 1415.98L907.949 1416.96L907.748 1415.98ZM599.267 1407.04L599.489 1406.07L599.267 1407.04ZM314.995 1449.69L314.436 1448.86L314.995 1449.69ZM-36.9102 1480.25H-37.9102V1480.71L-37.5664 1481.01L-36.9102 1480.25ZM-36.9102 773.997V772.997H-37.9102V773.997H-36.9102ZM-36.9088 773.997V774.997H-35.9088V773.997H-36.9088ZM-36.9088 94.713L-36.2906 93.927L-37.9088 92.6542V94.713H-36.9088ZM532.251 156.532L532.827 157.35L532.251 156.532ZM789.171 124.584L789.641 123.702L789.171 124.584ZM997.188 113.622L997.732 114.461L997.188 113.622ZM1476.91 94.713H1477.91V94.0769L1477.33 93.8073L1476.91 94.713ZM1476.91 774.997H1476.91V772.997H1476.91V774.997ZM1477.91 1480.25V773.997H1475.91V1480.25H1477.91ZM907.949 1416.96C1063.85 1384.86 1205.99 1400.91 1309.16 1424.99C1360.75 1437.02 1402.58 1451.07 1431.52 1462.1C1445.99 1467.62 1457.23 1472.38 1464.85 1475.77C1468.66 1477.46 1471.57 1478.8 1473.52 1479.73C1474.49 1480.19 1475.23 1480.54 1475.72 1480.78C1475.97 1480.9 1476.15 1480.99 1476.28 1481.05C1476.34 1481.09 1476.39 1481.11 1476.42 1481.12C1476.43 1481.13 1476.44 1481.14 1476.45 1481.14C1476.45 1481.14 1476.46 1481.14 1476.46 1481.14C1476.46 1481.14 1476.46 1481.15 1476.91 1480.25C1477.35 1479.36 1477.35 1479.36 1477.35 1479.35C1477.35 1479.35 1477.35 1479.35 1477.34 1479.35C1477.33 1479.35 1477.32 1479.34 1477.31 1479.33C1477.27 1479.32 1477.23 1479.29 1477.16 1479.26C1477.04 1479.2 1476.85 1479.11 1476.6 1478.98C1476.1 1478.74 1475.36 1478.38 1474.37 1477.92C1472.41 1476.99 1469.49 1475.64 1465.66 1473.94C1458.01 1470.54 1446.73 1465.77 1432.23 1460.24C1403.22 1449.17 1361.3 1435.1 1309.62 1423.04C1206.25 1398.91 1063.81 1382.82 907.546 1415L907.949 1416.96ZM599.044 1408.02C675.765 1425.52 766.163 1446.15 907.949 1416.96L907.546 1415C766.184 1444.1 676.124 1423.55 599.489 1406.07L599.044 1408.02ZM315.554 1450.52C375.023 1410.44 422.827 1394.58 467.242 1391.34C511.692 1388.09 552.824 1397.47 599.044 1408.02L599.489 1406.07C553.317 1395.53 511.894 1386.07 467.097 1389.34C422.264 1392.62 374.13 1408.63 314.436 1448.86L315.554 1450.52ZM-36.9102 1480.25C-37.5664 1481.01 -37.5654 1481.01 -37.5638 1481.01C-37.5627 1481.01 -37.5606 1481.01 -37.5582 1481.01C-37.5534 1481.02 -37.5466 1481.02 -37.5377 1481.03C-37.5199 1481.05 -37.494 1481.07 -37.46 1481.1C-37.3919 1481.15 -37.2913 1481.24 -37.1583 1481.35C-36.8924 1481.57 -36.497 1481.89 -35.9738 1482.31C-34.9272 1483.13 -33.369 1484.32 -31.3112 1485.78C-27.1957 1488.7 -21.081 1492.7 -13.0641 1497.03C2.96941 1505.69 26.6161 1515.69 57.0979 1521.07C118.091 1531.86 206.327 1524.15 315.554 1450.52L314.436 1448.86C205.608 1522.22 117.892 1529.79 57.446 1519.11C27.2084 1513.76 3.76398 1503.84 -12.1137 1495.27C-20.0524 1490.98 -26.0984 1487.03 -30.1546 1484.15C-32.1826 1482.71 -33.713 1481.54 -34.7337 1480.74C-35.244 1480.33 -35.6269 1480.02 -35.8807 1479.81C-36.0077 1479.71 -36.1024 1479.63 -36.1646 1479.57C-36.1957 1479.55 -36.2188 1479.53 -36.2336 1479.51C-36.2411 1479.51 -36.2465 1479.5 -36.2499 1479.5C-36.2516 1479.5 -36.2526 1479.5 -36.2534 1479.5C-36.2539 1479.5 -36.2539 1479.5 -36.9102 1480.25ZM-37.9102 773.997V1480.25H-35.9102V773.997H-37.9102ZM-36.9088 772.997H-36.9102V774.997H-36.9088V772.997ZM-37.9088 94.713V773.997H-35.9088V94.713H-37.9088ZM531.675 155.715C402.692 246.635 260.782 231.262 150.984 193.065C96.0915 173.968 49.2646 149.179 16.1589 129.161C-0.392666 119.153 -13.511 110.34 -22.4889 104.031C-26.9777 100.876 -30.4313 98.3479 -32.7611 96.6093C-33.926 95.74 -34.8099 95.0682 -35.4019 94.6143C-35.6979 94.3874 -35.9208 94.2149 -36.0694 94.0995C-36.1437 94.0418 -36.1994 93.9984 -36.2363 93.9695C-36.2548 93.9551 -36.2686 93.9443 -36.2776 93.9372C-36.2821 93.9337 -36.2854 93.9311 -36.2877 93.9293C-36.2897 93.9277 -36.2906 93.927 -36.9088 94.713C-37.5271 95.499 -37.5256 95.5002 -37.5229 95.5023C-37.5205 95.5042 -37.5166 95.5072 -37.5117 95.5111C-37.5018 95.5188 -37.4873 95.5302 -37.468 95.5452C-37.4295 95.5754 -37.3722 95.6201 -37.2963 95.679C-37.1444 95.797 -36.9182 95.972 -36.6188 96.2015C-36.0202 96.6605 -35.1293 97.3376 -33.9572 98.2122C-31.6131 99.9615 -28.1442 102.501 -23.6388 105.667C-14.6284 111.999 -1.47155 120.838 15.124 130.873C48.3125 150.941 95.2676 175.799 150.327 194.954C260.431 233.257 403.101 248.793 532.827 157.35L531.675 155.715ZM789.641 123.702C759.992 107.911 729.654 91.737 689.61 91.6557C649.56 91.5744 599.961 107.58 531.675 155.715L532.827 157.35C600.931 109.343 650.126 93.5755 689.606 93.6557C729.091 93.7358 759.019 109.659 788.701 125.467L789.641 123.702ZM996.644 112.783C945.212 146.128 906.722 155.852 874.536 153.798C842.317 151.741 816.27 137.884 789.641 123.702L788.701 125.467C815.283 139.624 841.696 153.706 874.408 155.794C907.154 157.884 946.067 147.957 997.732 114.461L996.644 112.783ZM1476.91 94.713C1477.33 93.8073 1477.33 93.8067 1477.33 93.8056C1477.33 93.8046 1477.32 93.803 1477.32 93.8011C1477.31 93.7971 1477.3 93.7914 1477.28 93.7838C1477.25 93.7686 1477.2 93.7461 1477.14 93.7165C1477.01 93.6573 1476.82 93.5697 1476.56 93.4552C1476.06 93.2261 1475.31 92.8891 1474.32 92.4562C1472.34 91.5903 1469.41 90.3402 1465.62 88.8004C1458.02 85.7207 1446.92 81.4818 1432.93 76.8384C1404.95 67.5522 1365.37 56.6459 1318.96 50.1637C1226.15 37.201 1105.95 41.9204 996.644 112.783L997.732 114.461C1106.48 43.9549 1226.14 39.2195 1318.68 52.1445C1364.94 58.6062 1404.41 69.4793 1432.3 78.7366C1446.25 83.365 1457.3 87.5887 1464.86 90.6539C1468.65 92.1865 1471.55 93.4294 1473.52 94.2883C1474.5 94.7177 1475.24 95.0512 1475.74 95.2768C1475.99 95.3897 1476.18 95.4756 1476.3 95.533C1476.36 95.5618 1476.41 95.5834 1476.44 95.5977C1476.46 95.6049 1476.47 95.6103 1476.47 95.6138C1476.48 95.6155 1476.48 95.6168 1476.48 95.6176C1476.48 95.6184 1476.48 95.6187 1476.91 94.713ZM1477.91 773.997V94.713H1475.91V773.997H1477.91Z" fill="#4AFF85" mask="url(#path-3-outside-2_6790_201015)"/>
</g>
<g opacity="0.4">
<mask id="path-5-outside-3_6790_201015" maskUnits="userSpaceOnUse" x="-19" y="0" width="1597" height="1468" fill="black">
<rect fill="white" x="-19" width="1597" height="1468"/>
<path fill-rule="evenodd" clip-rule="evenodd" d="M1576.25 152.469V677.071L1576.25 1420.85C1576.25 1420.85 1305.6 1285.47 976.847 1353.16C827.751 1383.86 732.728 1362.18 651.977 1343.75C554.675 1321.55 478.095 1304.08 352.602 1388.67C122.962 1543.46 -18 1420.85 -18 1420.85V677.071H-17.9991V90.9536C-17.9991 90.9536 314.499 323.235 507.499 152.469C606.677 64.7159 695.557 79.8872 782.958 94.8061C865.639 108.919 946.997 122.807 1034.5 49.1233C1214.5 -102.45 1576.25 152.469 1576.25 152.469Z"/>
</mask>
<path fill-rule="evenodd" clip-rule="evenodd" d="M1576.25 152.469V677.071L1576.25 1420.85C1576.25 1420.85 1305.6 1285.47 976.847 1353.16C827.751 1383.86 732.728 1362.18 651.977 1343.75C554.675 1321.55 478.095 1304.08 352.602 1388.67C122.962 1543.46 -18 1420.85 -18 1420.85V677.071H-17.9991V90.9536C-17.9991 90.9536 314.499 323.235 507.499 152.469C606.677 64.7159 695.557 79.8872 782.958 94.8061C865.639 108.919 946.997 122.807 1034.5 49.1233C1214.5 -102.45 1576.25 152.469 1576.25 152.469Z" fill="url(#paint2_linear_6790_201015)"/>
<path d="M1576.25 677.071H1577.25H1576.25ZM1576.25 152.469H1577.25V151.95L1576.82 151.652L1576.25 152.469ZM1576.25 1420.85L1575.8 1421.74L1577.25 1422.47V1420.85H1576.25ZM976.847 1353.16L976.646 1352.18L976.847 1353.16ZM651.977 1343.75L652.199 1342.78L651.977 1343.75ZM352.602 1388.67L353.161 1389.49L352.602 1388.67ZM-18 1420.85H-19V1421.3L-18.6563 1421.6L-18 1420.85ZM-18 677.071V676.071H-19V677.071H-18ZM-17.9991 677.071V678.071H-16.9991V677.071H-17.9991ZM-17.9991 90.9536L-17.4265 90.1339L-18.9991 89.0352V90.9536H-17.9991ZM507.499 152.469L506.836 151.72L507.499 152.469ZM782.958 94.8061L783.127 93.8204L782.958 94.8061ZM1034.5 49.1233L1033.85 48.3584L1034.5 49.1233ZM1577.25 677.071V152.469H1575.25V677.071H1577.25ZM1577.25 1420.85L1577.25 677.071H1575.25L1575.25 1420.85H1577.25ZM977.049 1354.14C1141.24 1320.33 1290.94 1337.23 1399.6 1362.59C1453.93 1375.27 1497.99 1390.07 1528.46 1401.69C1543.7 1407.5 1555.54 1412.51 1563.57 1416.08C1567.58 1417.86 1570.64 1419.28 1572.7 1420.25C1573.73 1420.73 1574.5 1421.11 1575.02 1421.36C1575.28 1421.49 1575.48 1421.58 1575.61 1421.65C1575.67 1421.68 1575.72 1421.7 1575.75 1421.72C1575.77 1421.73 1575.78 1421.73 1575.79 1421.74C1575.79 1421.74 1575.79 1421.74 1575.8 1421.74C1575.8 1421.74 1575.8 1421.74 1576.25 1420.85C1576.69 1419.95 1576.69 1419.95 1576.69 1419.95C1576.69 1419.95 1576.68 1419.95 1576.68 1419.95C1576.67 1419.94 1576.66 1419.94 1576.64 1419.93C1576.61 1419.91 1576.56 1419.89 1576.49 1419.85C1576.36 1419.79 1576.16 1419.69 1575.9 1419.56C1575.37 1419.31 1574.59 1418.93 1573.55 1418.44C1571.48 1417.46 1568.41 1416.04 1564.38 1414.25C1556.32 1410.67 1544.45 1405.64 1529.18 1399.82C1498.63 1388.17 1454.48 1373.35 1400.06 1360.65C1291.2 1335.24 1141.2 1318.3 976.646 1352.18L977.049 1354.14ZM651.755 1344.73C732.549 1363.16 827.74 1384.88 977.049 1354.14L976.646 1352.18C827.762 1382.83 732.908 1361.19 652.199 1342.78L651.755 1344.73ZM353.161 1389.49C415.795 1347.28 466.149 1330.57 512.934 1327.16C559.755 1323.74 603.08 1333.62 651.755 1344.73L652.199 1342.78C603.573 1331.68 559.957 1321.72 512.788 1325.16C465.585 1328.61 414.902 1345.47 352.043 1387.84L353.161 1389.49ZM-18 1420.85C-18.6563 1421.6 -18.6552 1421.6 -18.6536 1421.6C-18.6524 1421.61 -18.6502 1421.61 -18.6477 1421.61C-18.6427 1421.61 -18.6355 1421.62 -18.6262 1421.63C-18.6076 1421.64 -18.5804 1421.67 -18.5446 1421.7C-18.4731 1421.76 -18.3673 1421.85 -18.2274 1421.96C-17.9477 1422.2 -17.5316 1422.54 -16.9809 1422.97C-15.8795 1423.84 -14.2392 1425.09 -12.0728 1426.63C-7.74023 1429.7 -1.30254 1433.91 7.13821 1438.47C24.0195 1447.58 48.9172 1458.11 81.012 1463.79C145.231 1475.14 238.142 1467.02 353.161 1389.49L352.043 1387.84C237.422 1465.1 145.032 1473.07 81.3601 1461.82C49.5094 1456.19 24.8141 1445.74 8.08869 1436.71C-0.273884 1432.19 -6.64291 1428.03 -10.9162 1425C-13.0528 1423.48 -14.6653 1422.25 -15.7408 1421.4C-16.2786 1420.98 -16.6821 1420.65 -16.9498 1420.43C-17.0837 1420.31 -17.1835 1420.23 -17.2493 1420.17C-17.2821 1420.15 -17.3064 1420.13 -17.3222 1420.11C-17.3301 1420.11 -17.3358 1420.1 -17.3394 1420.1C-17.3412 1420.1 -17.3423 1420.09 -17.3432 1420.09C-17.3437 1420.09 -17.3437 1420.09 -18 1420.85ZM-19 677.071V1420.85H-17V677.071H-19ZM-17.9991 676.071H-18V678.071H-17.9991V676.071ZM-18.9991 90.9536V677.071H-16.9991V90.9536H-18.9991ZM506.836 151.72C410.763 236.725 279.87 221.5 172.699 184.802C119.148 166.465 71.6104 142.796 37.4572 123.706C20.3821 114.163 6.65627 105.766 -2.79877 99.757C-7.52621 96.7524 -11.1857 94.3448 -13.6621 92.6892C-14.9003 91.8615 -15.8427 91.2217 -16.4749 90.7893C-16.791 90.5732 -17.0296 90.4088 -17.1887 90.2988C-17.2683 90.2438 -17.3281 90.2023 -17.3678 90.1747C-17.3876 90.1609 -17.4025 90.1506 -17.4123 90.1438C-17.4172 90.1404 -17.4207 90.1379 -17.4232 90.1362C-17.4254 90.1346 -17.4265 90.1339 -17.9991 90.9536C-18.5718 91.7734 -18.5703 91.7745 -18.5675 91.7764C-18.5649 91.7782 -18.5609 91.7811 -18.5556 91.7847C-18.5452 91.792 -18.5297 91.8028 -18.5092 91.817C-18.4682 91.8455 -18.407 91.8879 -18.3261 91.9439C-18.1642 92.0558 -17.9229 92.2221 -17.6039 92.4402C-16.9661 92.8764 -16.0179 93.5201 -14.7737 94.3519C-12.2853 96.0155 -8.61282 98.4316 -3.87156 101.445C5.61079 107.472 19.3692 115.888 36.4814 125.452C70.7028 144.579 118.353 168.307 172.051 186.695C279.378 223.446 411.234 238.979 508.162 153.218L506.836 151.72ZM783.127 93.8204C739.448 86.3646 695.237 78.8115 649.529 84.1422C603.778 89.478 556.574 107.712 506.836 151.72L508.162 153.218C557.602 109.473 604.427 91.4159 649.761 86.1288C695.138 80.8366 739.068 88.3286 782.79 95.7919L783.127 93.8204ZM1033.85 48.3584C946.733 121.721 865.808 107.934 783.127 93.8204L782.79 95.7919C865.471 109.905 947.261 123.892 1035.14 49.8882L1033.85 48.3584ZM1576.25 152.469C1576.82 151.652 1576.82 151.651 1576.82 151.648C1576.82 151.646 1576.81 151.643 1576.81 151.639C1576.79 151.631 1576.78 151.62 1576.76 151.604C1576.71 151.573 1576.64 151.526 1576.56 151.465C1576.38 151.342 1576.12 151.16 1575.77 150.92C1575.08 150.441 1574.05 149.733 1572.7 148.816C1570 146.983 1566.03 144.315 1560.9 140.974C1550.64 134.292 1535.8 124.918 1517.42 114.144C1480.66 92.5968 1429.77 65.4426 1373.24 43.0265C1316.72 20.6134 1254.51 2.91729 1195.13 0.326897C1135.74 -2.26386 1079.1 10.2547 1033.85 48.3584L1035.14 49.8882C1079.89 12.2051 1135.98 -0.251544 1195.04 2.325C1254.11 4.9019 1316.09 22.5156 1372.5 44.8856C1428.91 67.2527 1479.71 94.3549 1516.41 115.869C1534.75 126.625 1549.57 135.982 1559.81 142.649C1564.92 145.983 1568.89 148.644 1571.58 150.47C1572.92 151.384 1573.95 152.088 1574.63 152.565C1574.98 152.803 1575.24 152.983 1575.41 153.105C1575.5 153.165 1575.56 153.211 1575.61 153.241C1575.63 153.257 1575.64 153.268 1575.66 153.275C1575.66 153.279 1575.66 153.282 1575.67 153.284C1575.67 153.286 1575.67 153.286 1576.25 152.469Z" fill="#4AFF85" mask="url(#path-5-outside-3_6790_201015)"/>
</g>
<defs>
<linearGradient id="paint0_linear_6790_201015" x1="720" y1="398.435" x2="720.098" y2="1424.47" gradientUnits="userSpaceOnUse">
<stop stop-color="#C7FFD8" stop-opacity="0.74"/>
<stop offset="0.0001" stop-color="#B4FFCA" stop-opacity="0.74"/>
<stop offset="0.401042" stop-color="#D7FFF4"/>
<stop offset="0.677083" stop-color="#DBFFE0"/>
<stop offset="1" stop-color="#9AFFA4"/>
</linearGradient>
<linearGradient id="paint1_linear_6790_201015" x1="719.999" y1="378.066" x2="725.55" y2="1488.02" gradientUnits="userSpaceOnUse">
<stop stop-color="#B4FFCA" stop-opacity="0.74"/>
<stop offset="0.0001" stop-color="#B4FFCA" stop-opacity="0.74"/>
<stop offset="0.401042" stop-color="#C8FFF0"/>
<stop offset="0.677083" stop-color="#E7FFEA"/>
<stop offset="1" stop-color="#DFFFDA"/>
</linearGradient>
<linearGradient id="paint2_linear_6790_201015" x1="779.124" y1="330.749" x2="784.304" y2="1431.25" gradientUnits="userSpaceOnUse">
<stop stop-color="#B4FFCA" stop-opacity="0.74"/>
<stop offset="0.0001" stop-color="#B4FFCA" stop-opacity="0.74"/>
<stop offset="0.401042" stop-color="#C8FFF0"/>
<stop offset="0.677083" stop-color="#E7FFEA"/>
<stop offset="1" stop-color="#DFFFDA"/>
</linearGradient>
</defs>
</svg>
