<svg width="32" height="29" viewBox="0 0 32 29" fill="none" xmlns="http://www.w3.org/2000/svg">
<path d="M22.0007 5.29427C23.4734 5.29427 24.6673 4.21229 24.6673 2.8776C24.6673 1.54292 23.4734 0.460938 22.0007 0.460938C20.5279 0.460938 19.334 1.54292 19.334 2.8776C19.334 4.21229 20.5279 5.29427 22.0007 5.29427Z" fill="#023C1D"/>
<path d="M31.9999 14.3544V8.67521L25.2666 6.08938C23.9733 5.59396 22.4799 6.01688 21.7333 7.10438L20.4 9.03771C19.5066 10.4635 17.8533 11.5269 15.8533 11.841L15.9333 11.9135C16.8533 12.7473 17.96 13.2065 19.2133 13.3273C20.28 12.8198 21.24 12.1431 22 11.3456L22.8 14.9706L21.2533 16.2998L20 17.3752V26.4377H22.6666V19.1877L25.4666 16.771L27.8666 26.4377H30.6666L27.7599 13.146L26.9333 9.40021L29.3333 10.246V14.3544H31.9999ZM13.72 9.77479C14.0133 9.95604 14.3466 10.0648 14.68 10.1252C14.8533 10.1494 15.0133 10.1735 15.1866 10.1735C15.36 10.1735 15.5333 10.1615 15.6933 10.1252C15.8666 10.101 16.0266 10.0527 16.1866 9.99229C16.5066 9.87146 16.8133 9.70229 17.0666 9.46062C17.72 8.86854 17.96 8.04688 17.8 7.28563C17.7066 6.83854 17.4666 6.39146 17.0666 6.04104C16.8133 5.81146 16.5066 5.63021 16.1866 5.50938C16.0266 5.44896 15.8666 5.40062 15.6933 5.37646C15.52 5.35229 15.36 5.32812 15.1866 5.32812C15.0266 5.32812 14.88 5.34021 14.72 5.36438C14.5333 5.38854 14.3466 5.43688 14.1733 5.49729C13.8666 5.63021 13.56 5.81146 13.3066 6.04104C12.9066 6.39146 12.6666 6.83854 12.5733 7.28563C12.4133 8.04688 12.6533 8.86854 13.3066 9.46062C13.4266 9.58146 13.5733 9.67812 13.72 9.77479Z" fill="#023C1D"/>
<path d="M14.9864 12.7581L12.3197 10.3415C12.1864 10.2206 12.0531 10.124 11.9064 10.0273C11.6148 9.85703 11.2883 9.74195 10.9464 9.68896C10.7731 9.65271 10.6131 9.64062 10.4397 9.64062C9.75974 9.64062 9.07974 9.88229 8.55974 10.3535L4.10641 14.3894C3.55974 14.8848 3.27974 15.5735 3.33307 16.2502C3.33307 16.4677 3.38641 16.6973 3.47974 16.9148L4.90641 20.4794L0.0664062 24.8656L1.94641 26.5815L7.59974 21.4581V18.7756L9.33307 20.2377V26.4365H11.9997V19.1865L9.17307 16.6248L12.3197 13.7731L13.2664 14.631C14.9864 16.1535 17.2264 17.096 19.9731 17.096L19.7864 14.5948C17.7864 14.5706 16.1864 13.8456 14.9864 12.7581Z" fill="#023C1D"/>
</svg>
