<!-- width="316" height="245" -->

<svg preserveAspectRatio="none" viewBox="0 0 316 245" fill="none" xmlns="http://www.w3.org/2000/svg">
<path fill-rule="evenodd" clip-rule="evenodd" d="M158.041 3.53381L159.403 3.69901L160.761 3.86369L162.115 4.02811L163.465 4.19256L164.813 4.35735L166.158 4.52288L167.502 4.6896L168.845 4.85787L170.186 5.02816L171.527 5.20078L172.868 5.37589L174.209 5.55332L175.551 5.73248L176.894 5.91268L178.24 6.09287L179.589 6.2719L180.942 6.44851L182.3 6.62127L183.665 6.78876L185.037 6.94956L186.419 7.10223L187.811 7.24548L189.216 7.37809L190.634 7.49898L192.068 7.60735L193.519 7.70257L194.988 7.78423L196.479 7.85235L197.99 7.90716L199.525 7.94923L201.085 7.9793L202.67 7.99828L204.282 8.00727L205.921 8.00745L207.589 8.00028L209.287 7.98722L211.014 7.97004L212.772 7.95051L214.56 7.93062L216.38 7.91244L218.23 7.89814L220.111 7.88999L222.023 7.89034L223.964 7.90165L225.934 7.92635L227.933 7.967L229.959 8.02611L232.01 8.10627L234.086 8.21004L236.185 8.33992L238.304 8.49848L240.443 8.68819L242.599 8.91146L244.769 9.17063L246.952 9.46796L249.145 9.80562L251.345 10.1857L253.549 10.6101L255.755 11.0806L257.96 11.599L260.161 12.1667L262.354 12.7851L264.537 13.4555L266.707 14.1789L268.86 14.9561L270.994 15.788L273.105 16.675L275.19 17.6175L277.246 18.6158L279.271 19.6697L281.262 20.7792L283.215 21.9439L285.128 23.1633L286.999 24.4368L288.825 25.7634L290.603 27.1423L292.333 28.5723L294.011 30.0521L295.637 31.5804L297.208 33.1557L298.722 34.7764L300.18 36.4407L301.579 38.147L302.919 39.8933L304.199 41.6778L305.418 43.4987L306.574 45.3541L307.668 47.2423L308.698 49.1615L309.664 51.1097L310.564 53.0852L311.396 55.0862L312.162 57.1108L312.858 59.1571L313.485 61.2232L314.041 63.3073L314.525 65.4074L314.936 67.5215L315.272 69.6476L315.534 71.7838L315.719 73.9278L315.826 76.0778L315.853 78.2314L315.8 80.3866L315.665 82.5408L315.446 84.6919L315.144 86.8373L314.759 88.9744L314.289 91.1009L313.737 93.2142L313.102 95.3117L312.387 97.3911L311.592 99.4498L310.72 101.486L309.773 103.496L308.755 105.48L307.669 107.435L306.518 109.359L305.307 111.251L304.039 113.109L302.721 114.933L301.356 116.722L299.95 118.475L298.509 120.192L297.038 121.874L295.543 123.521L294.031 125.134L292.506 126.714L290.976 128.262L289.447 129.78L287.923 131.27L286.412 132.735L284.918 134.177L283.448 135.6L282.006 137.006L280.598 138.399L279.228 139.782L277.9 141.16L276.619 142.536L275.387 143.914L274.207 145.298L273.083 146.693L272.014 148.102L271.004 149.529L270.052 150.978L269.158 152.453L268.323 153.958L267.545 155.495L266.823 157.068L266.153 158.679L265.535 160.332L264.964 162.026L264.436 163.766L263.947 165.55L263.493 167.38L263.069 169.256L262.668 171.178L262.286 173.144L261.916 175.153L261.552 177.204L261.187 179.293L260.816 181.418L260.432 183.575L260.029 185.76L259.6 187.97L259.139 190.198L258.641 192.441L258.099 194.692L257.508 196.946L256.864 199.197L256.16 201.438L255.395 203.664L254.563 205.867L253.661 208.043L252.688 210.184L251.641 212.285L250.519 214.34L249.322 216.345L248.05 218.295L246.701 220.184L245.279 222.008L243.782 223.763L242.213 225.445L240.574 227.05L238.866 228.575L237.092 230.017L235.255 231.374L233.358 232.643L231.404 233.824L229.397 234.914L227.34 235.914L225.239 236.824L223.095 237.643L220.915 238.374L218.702 239.017L216.461 239.575L214.195 240.05L211.909 240.445L209.607 240.764L207.294 241.011L204.971 241.19L202.645 241.305L200.317 241.362L197.991 241.366L195.67 241.322L193.355 241.237L191.051 241.115L188.757 240.964L186.477 240.788L184.21 240.595L181.958 240.389L179.721 240.177L177.5 239.964L175.293 239.755L173.101 239.556L170.921 239.371L168.754 239.205L166.598 239.061L164.451 238.944L162.31 238.855L160.174 238.797L158.041 238.772L155.908 238.782L153.773 238.827L151.633 238.907L149.486 239.021L147.33 239.169L145.163 239.349L142.981 239.557L140.785 239.793L138.571 240.05L136.338 240.327L134.086 240.619L131.813 240.922L129.519 241.231L127.202 241.544L124.864 241.856L122.503 242.163L120.119 242.461L117.714 242.747L115.286 243.016L112.838 243.266L110.37 243.493L107.882 243.692L105.377 243.861L102.855 243.996L100.318 244.095L97.7668 244.154L95.2037 244.172L92.6301 244.146L90.0475 244.074L87.4574 243.955L84.8615 243.787L82.2615 243.569L79.6596 243.3L77.0577 242.976L74.4581 242.598L71.8632 242.162L69.2756 241.668L66.6979 241.113L64.1328 240.497L61.5834 239.818L59.0526 239.074L56.5434 238.264L54.059 237.387L51.6027 236.443L49.1776 235.43L46.787 234.347L44.4341 233.196L42.1221 231.974L39.8541 230.683L37.6333 229.322L35.4626 227.893L33.3448 226.396L31.2827 224.832L29.2788 223.202L27.3355 221.508L25.455 219.751L23.6393 217.934L21.8902 216.057L20.2093 214.125L18.5979 212.138L17.057 210.1L15.5875 208.013L14.19 205.88L12.8649 203.704L11.6122 201.488L10.4318 199.235L9.32352 196.948L8.28662 194.63L7.32042 192.285L6.42395 189.914L5.59612 187.521L4.83566 185.11L4.14119 182.682L3.5112 180.241L2.94411 177.789L2.43827 175.33L1.99196 172.864L1.60347 170.395L1.27105 167.924L0.99299 165.454L0.767597 162.987L0.593229 160.523L0.468306 158.066L0.391362 155.616L0.361324 153.174L0.37768 150.741L0.440434 148.319L0.550061 145.907L0.707443 143.507L0.913808 141.118L1.17066 138.742L1.47973 136.378L1.84285 134.028L2.26194 131.691L2.73888 129.369L3.27546 127.063L3.87326 124.774L4.53362 122.502L5.25749 120.25L6.0454 118.018L6.89736 115.809L7.81275 113.625L8.79029 111.465L9.82818 109.334L10.9244 107.231L12.0768 105.16L13.283 103.12L14.5404 101.115L15.8465 99.1438L17.1983 97.2092L18.593 95.3117L20.0274 93.4524L21.4982 91.632L23.0023 89.8511L24.5362 88.1102L26.0963 86.4097L27.6792 84.7497L29.2813 83.1301L30.899 81.551L32.5286 80.0118L34.1665 78.5122L35.8093 77.0515L37.4533 75.6288L39.0952 74.2432L40.7314 72.8936L42.3588 71.5787L43.9742 70.2971L45.5745 69.0473L47.1569 67.8276L48.7186 66.6362L50.257 65.4713L51.7699 64.3309L53.2549 63.213L54.7101 62.1156L56.1338 61.0364L57.5244 59.9732L58.8805 58.9239L60.2011 57.8862L61.4852 56.8579L62.7323 55.8368L63.9417 54.8207L65.1134 53.8075L66.2474 52.795L67.3438 51.7812L68.4032 50.7642L69.4262 49.7421L70.4137 48.7131L71.3667 47.6757L72.2866 46.6282L73.1748 45.5692L74.0328 44.4976L74.8625 43.4122L75.6658 42.312L76.4447 41.1962L77.2014 40.0643L77.9382 38.9157L78.6574 37.7501L79.3616 36.5675L80.0535 35.368L80.7362 34.1524L81.4131 32.9218L82.0879 31.6778L82.7643 30.4221L83.4461 29.1571L84.1372 27.8853L84.8413 26.6097L85.562 25.3332L86.3029 24.0593L87.0672 22.7915L87.858 21.5332L88.678 20.2883L89.5297 19.0603L90.4152 17.8531L91.3361 16.6703L92.294 15.5152L93.2898 14.3912L94.3239 13.3016L95.3968 12.2491L96.5082 11.2364L97.6577 10.266L98.8445 9.33987L100.068 8.46003L101.326 7.62803L102.618 6.8451L103.941 6.11224L105.295 5.43008L106.676 4.79898L108.083 4.21894L109.514 3.68974L110.965 3.2108L112.435 2.78128L113.922 2.40011L115.422 2.066L116.934 1.77732L118.455 1.5324L119.982 1.32925L121.515 1.16581L123.051 1.03987L124.587 0.949076L126.123 0.891062L127.656 0.863367L129.185 0.86352L130.709 0.889032L132.227 0.937464L133.738 1.0064L135.24 1.09352L136.733 1.19656L138.218 1.31339L139.693 1.44198L141.158 1.58044L142.613 1.72703L144.058 1.88014L145.494 2.03832L146.92 2.20033L148.337 2.36501L149.746 2.53144L151.146 2.69888L152.538 2.86662L153.923 3.03423L155.302 3.20141L156.674 3.36796L158.041 3.53381Z" fill="url(#paint0_linear_6813_148028)"/>
<defs>
<linearGradient id="paint0_linear_6813_148028" x1="-1225.79" y1="-725.09" x2="-1050.04" y2="-947.418" gradientUnits="userSpaceOnUse">
<stop stop-color="#89FFD1"/>
<stop offset="1" stop-color="#BFFF9E"/>
</linearGradient>
</defs>
</svg>
