<svg width="32" height="29" viewBox="0 0 32 29" fill="none" xmlns="http://www.w3.org/2000/svg">
<path d="M22.0026 5.29427C23.4754 5.29427 24.6693 4.21229 24.6693 2.8776C24.6693 1.54292 23.4754 0.460938 22.0026 0.460938C20.5298 0.460938 19.3359 1.54292 19.3359 2.8776C19.3359 4.21229 20.5298 5.29427 22.0026 5.29427Z" fill="white"/>
<path d="M31.998 14.3544V8.67521L25.2647 6.08938C23.9713 5.59396 22.478 6.01688 21.7313 7.10438L20.398 9.03771C19.5047 10.4635 17.8513 11.5269 15.8513 11.841L15.9313 11.9135C16.8513 12.7473 17.958 13.2065 19.2113 13.3273C20.278 12.8198 21.238 12.1431 21.998 11.3456L22.798 14.9706L21.2513 16.2998L19.998 17.3752V26.4377H22.6647V19.1877L25.4647 16.771L27.8647 26.4377H30.6647L27.758 13.146L26.9313 9.40021L29.3313 10.246V14.3544H31.998ZM13.718 9.77479C14.0113 9.95604 14.3447 10.0648 14.678 10.1252C14.8513 10.1494 15.0113 10.1735 15.1847 10.1735C15.358 10.1735 15.5313 10.1615 15.6913 10.1252C15.8647 10.101 16.0247 10.0527 16.1847 9.99229C16.5047 9.87146 16.8113 9.70229 17.0647 9.46062C17.718 8.86854 17.958 8.04688 17.798 7.28563C17.7047 6.83854 17.4647 6.39146 17.0647 6.04104C16.8113 5.81146 16.5047 5.63021 16.1847 5.50938C16.0247 5.44896 15.8647 5.40062 15.6913 5.37646C15.518 5.35229 15.358 5.32812 15.1847 5.32812C15.0247 5.32812 14.878 5.34021 14.718 5.36438C14.5313 5.38854 14.3447 5.43688 14.1713 5.49729C13.8647 5.63021 13.558 5.81146 13.3047 6.04104C12.9047 6.39146 12.6647 6.83854 12.5713 7.28563C12.4113 8.04688 12.6513 8.86854 13.3047 9.46062C13.4247 9.58146 13.5713 9.67812 13.718 9.77479Z" fill="white"/>
<path d="M14.9864 12.7581L12.3197 10.3415C12.1864 10.2206 12.0531 10.124 11.9064 10.0273C11.6148 9.85703 11.2883 9.74195 10.9464 9.68896C10.7731 9.65271 10.6131 9.64062 10.4397 9.64062C9.75974 9.64062 9.07974 9.88229 8.55974 10.3535L4.10641 14.3894C3.55974 14.8848 3.27974 15.5735 3.33307 16.2502C3.33307 16.4677 3.38641 16.6973 3.47974 16.9148L4.90641 20.4794L0.0664062 24.8656L1.94641 26.5815L7.59974 21.4581V18.7756L9.33307 20.2377V26.4365H11.9997V19.1865L9.17307 16.6248L12.3197 13.7731L13.2664 14.631C14.9864 16.1535 17.2264 17.096 19.9731 17.096L19.7864 14.5948C17.7864 14.5706 16.1864 13.8456 14.9864 12.7581Z" fill="white"/>
</svg>
