<!-- width="375" height="504" -->

<svg preserveAspectRatio="none"  viewBox="0 0 375 504" fill="none" xmlns="http://www.w3.org/2000/svg">
<path d="M0 0.5H-0.5V1V503L0.46877 503.174L0 503C0.46877 503.174 0.468979 503.173 0.469444 503.172L0.471649 503.166L0.480635 503.142L0.51683 503.046C0.549026 502.96 0.597311 502.832 0.661419 502.664C0.789637 502.327 0.98115 501.829 1.23385 501.185C1.73925 499.895 2.48937 498.019 3.46735 495.674C5.42338 490.984 8.29045 484.42 11.9336 476.928C19.2228 461.938 29.6068 443.257 42.0028 428.429C54.4195 413.576 68.7489 402.715 83.9183 403.1C99.0508 403.484 115.291 415.076 131.502 445.822C139.631 461.238 146.961 470.936 153.693 476.242C160.453 481.57 166.646 482.491 172.399 480.281C178.096 478.091 183.271 472.861 188.121 466.107C192.98 459.341 197.564 450.973 202.054 442.418C203.006 440.605 203.953 438.783 204.898 436.967C208.418 430.198 211.905 423.493 215.459 417.514C219.972 409.922 224.558 403.564 229.399 399.759C231.814 397.861 234.274 396.614 236.802 396.154C239.323 395.695 241.945 396.012 244.704 397.295C250.252 399.872 256.362 406.353 263.191 418.266C270.057 430.242 277.073 437.385 284.132 440.633C291.219 443.894 298.281 443.195 305.13 439.647C311.96 436.109 318.591 429.736 324.896 421.618C331.204 413.494 337.211 403.591 342.782 392.955C353.924 371.682 363.348 347.431 369.986 328.506C373.305 319.042 375.928 310.906 377.722 305.136C378.619 302.251 379.308 299.957 379.774 298.384C380.007 297.598 380.183 296.991 380.302 296.581C380.361 296.377 380.406 296.221 380.436 296.116L380.47 295.997L380.478 295.967L380.48 295.96C380.481 295.958 380.481 295.957 380 295.821L380.481 295.957L380.5 295.89V295.821V1V0.5H380H0Z" fill="url(#paint0_linear_6772_182431)" stroke="#4AFF85"/>
<defs>
<linearGradient id="paint0_linear_6772_182431" x1="190" y1="-66.3956" x2="190" y2="526.575" gradientUnits="userSpaceOnUse">
<stop stop-color="#BAFFD9"/>
<stop offset="1" stop-color="#F5FFE9"/>
</linearGradient>
</defs>
</svg>
