<!-- width="1440" height="909" -->

<svg preserveAspectRatio="none"  viewBox="0 0 1440 909" fill="none" xmlns="http://www.w3.org/2000/svg">
<path d="M0 0.5H-0.5V1V906V907.454L0.394259 906.307L0 906C0.394259 906.307 0.395107 906.306 0.396921 906.304L0.405383 906.293L0.439654 906.25C0.470196 906.211 0.516108 906.152 0.577264 906.075C0.699575 905.92 0.882863 905.689 1.12613 905.385C1.61266 904.778 2.3391 903.879 3.29746 902.716C5.21419 900.39 8.05856 897.005 11.7667 892.775C19.183 884.316 30.0537 872.476 43.8677 858.962C71.4979 831.93 110.892 798.207 157.962 771.421C205.033 744.633 259.754 724.797 318.048 725.5C376.329 726.203 438.226 747.438 499.665 802.871C561.255 858.44 610.391 872.429 652.711 864.692C694.981 856.964 730.318 827.574 764.338 796.735C767.936 793.473 771.519 790.195 775.094 786.925C805.371 759.231 835.067 732.066 868.307 719.638C886.867 712.698 906.521 710.36 927.992 715.106C949.469 719.854 972.796 731.698 998.681 753.179C1050.66 796.316 1104.32 804.094 1155.53 791.473C1206.71 778.861 1255.43 745.883 1297.62 707.564C1339.81 669.239 1375.51 625.537 1400.66 591.423C1413.24 574.364 1423.18 559.7 1429.98 549.299C1433.38 544.099 1435.99 539.964 1437.75 537.129C1438.31 536.231 1438.78 535.463 1439.17 534.833C1439.39 534.469 1439.59 534.151 1439.75 533.88C1439.98 533.511 1440.14 533.23 1440.26 533.042L1440.39 532.828L1440.42 532.774L1440.43 532.76C1440.43 532.757 1440.43 532.756 1440 532.5L1440.43 532.756L1440.5 532.638V532.5V1V0.5H1440H0Z" fill="url(#paint0_linear_6790_201136)" stroke="#4AFF85"/>
<defs>
<linearGradient id="paint0_linear_6790_201136" x1="720" y1="-120.5" x2="720" y2="948.5" gradientUnits="userSpaceOnUse">
<stop stop-color="#BAFFD9"/>
<stop offset="1" stop-color="#F5FFE9"/>
</linearGradient>
</defs>
</svg>
