<!-- width="834" height="691" -->

<svg preserveAspectRatio="none" viewBox="0 0 834 691" fill="none" xmlns="http://www.w3.org/2000/svg">
<mask id="path-1-outside-1_8261_143296" maskUnits="userSpaceOnUse" x="-52" y="5" width="937" height="674" fill="black">
<rect fill="white" x="-52" y="5" width="937" height="674"/>
<path fill-rule="evenodd" clip-rule="evenodd" d="M-50.9993 337.124H-51V28.3754C-51 28.3754 140.745 139.362 300.532 56.4735C384.771 12.7755 422.569 27.59 459.214 41.9525C492.079 54.8333 524.016 67.3505 587.693 36.9701C722.37 -27.2852 883.984 28.3754 883.984 28.3754V337.124H883.984V658.13C883.984 658.13 725.256 599.703 532.452 628.916C445.011 642.165 389.283 632.808 341.925 624.856C284.86 615.274 239.947 607.732 166.349 644.24C31.6712 711.047 -50.9993 658.13 -50.9993 658.13V337.124Z"/>
</mask>
<path fill-rule="evenodd" clip-rule="evenodd" d="M-50.9993 337.124H-51V28.3754C-51 28.3754 140.745 139.362 300.532 56.4735C384.771 12.7755 422.569 27.59 459.214 41.9525C492.079 54.8333 524.016 67.3505 587.693 36.9701C722.37 -27.2852 883.984 28.3754 883.984 28.3754V337.124H883.984V658.13C883.984 658.13 725.256 599.703 532.452 628.916C445.011 642.165 389.283 632.808 341.925 624.856C284.86 615.274 239.947 607.732 166.349 644.24C31.6712 711.047 -50.9993 658.13 -50.9993 658.13V337.124Z" fill="url(#paint0_linear_8261_143296)"/>
<path d="M-51 337.124H-51.6493V337.773H-51V337.124ZM-50.9993 337.124H-50.35V336.474H-50.9993V337.124ZM-51 28.3754L-50.6747 27.8134L-51.6493 27.2493V28.3754H-51ZM300.532 56.4735L300.233 55.8971L300.532 56.4735ZM459.214 41.9525L458.977 42.557L459.214 41.9525ZM587.693 36.9701L587.972 37.5561L587.693 36.9701ZM883.984 28.3754H884.633V27.9123L884.195 27.7615L883.984 28.3754ZM883.984 337.124H883.334V337.773H883.984V337.124ZM883.984 337.124H884.634V336.474H883.984V337.124ZM883.984 658.13L883.76 658.739L884.634 659.061V658.13H883.984ZM532.452 628.916L532.55 629.558L532.452 628.916ZM341.925 624.856L341.817 625.496L341.925 624.856ZM166.349 644.24L166.638 644.822L166.349 644.24ZM-50.9993 658.13H-51.6486V658.485L-51.3494 658.677L-50.9993 658.13ZM-51 337.773H-50.9993V336.474H-51V337.773ZM-51.6493 28.3754V337.124H-50.3507V28.3754H-51.6493ZM300.233 55.8971C220.542 97.2361 132.844 90.2455 65.0068 72.8784C31.0954 64.1968 2.16892 52.9275 -18.2792 43.8286C-28.5028 39.2794 -36.6055 35.2734 -42.1506 32.4057C-44.9231 30.9719 -47.0562 29.8226 -48.4951 29.0325C-49.2145 28.6374 -49.7604 28.332 -50.126 28.1258C-50.3088 28.0226 -50.4465 27.9443 -50.5382 27.8918C-50.5841 27.8656 -50.6185 27.8459 -50.6412 27.8327C-50.6526 27.8262 -50.6611 27.8213 -50.6667 27.8181C-50.6695 27.8165 -50.6715 27.8153 -50.6729 27.8145C-50.6742 27.8138 -50.6747 27.8134 -51 28.3754C-51.3253 28.9373 -51.3243 28.9379 -51.3227 28.9388C-51.3212 28.9397 -51.3188 28.9411 -51.3157 28.9428C-51.3097 28.9464 -51.3007 28.9515 -51.2888 28.9584C-51.2649 28.9721 -51.2295 28.9924 -51.1826 29.0192C-51.0888 29.0728 -50.9491 29.1524 -50.7642 29.2567C-50.3944 29.4654 -49.8441 29.7731 -49.1201 30.1707C-47.6723 30.9658 -45.5297 32.1201 -42.7471 33.5592C-37.1821 36.4372 -29.0564 40.4544 -18.8072 45.0151C1.69014 54.1358 30.6865 65.4326 64.6847 74.1365C132.666 91.5404 220.735 98.5989 300.831 57.0498L300.233 55.8971ZM459.451 41.3479C441.131 34.1676 422.417 26.8279 397.722 26.791C373.026 26.7541 342.412 34.0169 300.233 55.8971L300.831 57.0498C342.89 35.232 373.295 28.0531 397.72 28.0896C422.144 28.1261 440.652 35.3749 458.977 42.557L459.451 41.3479ZM587.413 36.3841C555.646 51.5401 531.85 55.9713 511.929 55.0356C491.998 54.0995 475.891 47.7912 459.451 41.3479L458.977 42.557C475.402 48.9945 491.696 55.3853 511.868 56.3328C532.052 57.2808 556.062 52.7805 587.972 37.5561L587.413 36.3841ZM883.984 28.3754C884.195 27.7615 884.194 27.7612 884.193 27.7607C884.192 27.7603 884.19 27.7596 884.187 27.7587C884.182 27.7569 884.174 27.7543 884.164 27.7509C884.144 27.744 884.114 27.7338 884.075 27.7204C883.995 27.6935 883.877 27.6538 883.721 27.6017C883.409 27.4977 882.945 27.3447 882.335 27.148C881.114 26.7546 879.308 26.1867 876.962 25.487C872.27 24.0877 865.421 22.1616 856.781 20.0517C839.503 15.832 815.063 10.8764 786.409 7.93112C729.111 2.04178 654.903 4.1844 587.413 36.3841L587.972 37.5561C655.16 5.50052 729.097 3.34578 786.276 9.22291C814.859 12.1609 839.24 17.1045 856.473 21.3132C865.089 23.4174 871.918 25.3378 876.591 26.7314C878.927 27.4283 880.724 27.9934 881.937 28.384C882.543 28.5793 883.003 28.731 883.311 28.8336C883.464 28.885 883.58 28.924 883.658 28.9502C883.696 28.9633 883.725 28.9732 883.744 28.9797C883.754 28.983 883.761 28.9854 883.766 28.987C883.768 28.9878 883.77 28.9884 883.771 28.9888C883.772 28.9891 883.772 28.9893 883.984 28.3754ZM884.633 337.124V28.3754H883.334V337.124H884.633ZM883.984 336.474H883.984V337.773H883.984V336.474ZM884.634 658.13V337.124H883.335V658.13H884.634ZM532.55 629.558C628.864 614.965 716.675 622.261 780.41 633.208C812.276 638.681 838.12 645.066 855.995 650.082C864.932 652.59 871.877 654.756 876.586 656.294C878.94 657.063 880.736 657.675 881.941 658.094C882.544 658.304 883 658.465 883.304 658.574C883.456 658.629 883.571 658.67 883.647 658.698C883.685 658.712 883.714 658.722 883.732 658.729C883.742 658.733 883.749 658.735 883.753 658.737C883.756 658.738 883.757 658.738 883.759 658.739C883.76 658.739 883.76 658.739 883.984 658.13C884.209 657.521 884.208 657.52 884.207 657.52C884.205 657.519 884.203 657.519 884.201 657.518C884.196 657.516 884.188 657.513 884.178 657.509C884.159 657.502 884.129 657.492 884.09 657.477C884.012 657.449 883.896 657.407 883.742 657.352C883.434 657.242 882.975 657.079 882.368 656.868C881.155 656.445 879.352 655.831 876.989 655.059C872.264 653.516 865.302 651.345 856.346 648.832C838.434 643.806 812.546 637.41 780.63 631.928C716.8 620.965 628.844 613.654 532.355 628.274L532.55 629.558ZM341.817 625.496C389.197 633.452 445.006 642.823 532.55 629.558L532.355 628.274C445.016 641.508 389.369 632.164 342.032 624.215L341.817 625.496ZM166.638 644.822C203.368 626.602 232.91 619.388 260.372 617.913C287.85 616.437 313.274 620.703 341.817 625.496L342.032 624.215C313.51 619.426 287.946 615.131 260.302 616.616C232.642 618.102 202.928 625.371 166.06 643.659L166.638 644.822ZM-50.9993 658.13C-51.3494 658.677 -51.3487 658.677 -51.3477 658.678C-51.347 658.678 -51.3457 658.679 -51.3442 658.68C-51.3412 658.682 -51.3369 658.685 -51.3314 658.688C-51.3204 658.695 -51.3044 658.705 -51.2833 658.718C-51.2411 658.745 -51.1788 658.783 -51.0966 658.834C-50.9321 658.934 -50.6878 659.081 -50.3645 659.269C-49.7178 659.645 -48.7553 660.186 -47.4844 660.849C-44.9425 662.175 -41.167 663.99 -36.2176 665.958C-26.3187 669.892 -11.7238 674.434 7.08689 676.881C44.7159 681.776 99.1827 678.283 166.638 644.822L166.06 643.659C98.8375 677.004 44.6301 680.456 7.2544 675.594C-11.4372 673.162 -25.9274 668.65 -35.7379 664.751C-40.6432 662.801 -44.3784 661.004 -46.8837 659.698C-48.1364 659.044 -49.0815 658.513 -49.7116 658.147C-50.0267 657.963 -50.2629 657.821 -50.4195 657.726C-50.4978 657.678 -50.5562 657.642 -50.5945 657.618C-50.6137 657.606 -50.6279 657.597 -50.637 657.591C-50.6416 657.588 -50.6449 657.586 -50.6469 657.585C-50.6479 657.584 -50.6485 657.583 -50.6491 657.583C-50.6493 657.583 -50.6493 657.583 -50.9993 658.13ZM-51.6486 337.124V658.13H-50.35V337.124H-51.6486Z" fill="#4AFF85" mask="url(#path-1-outside-1_8261_143296)"/>
<g opacity="0.6">
<mask id="path-3-outside-2_8261_143296" maskUnits="userSpaceOnUse" x="-76" y="9" width="985" height="546" fill="black">
<rect fill="white" x="-76" y="9" width="985" height="546"/>
<path fill-rule="evenodd" clip-rule="evenodd" d="M-74.9991 278.046H-75V28.113C-75 28.113 126.574 117.957 294.552 50.8585C383.109 15.4848 422.845 27.4772 461.369 39.1037C495.918 49.5307 529.492 59.6634 596.433 35.0704C738.015 -16.9445 907.913 28.113 907.913 28.113V278.046H907.914V537.902C907.914 537.902 741.049 490.605 538.362 514.253C446.438 524.978 387.853 517.403 338.067 510.966C278.077 503.209 230.862 497.105 153.491 526.658C11.9093 580.738 -74.9991 537.902 -74.9991 537.902V278.046Z"/>
</mask>
<path fill-rule="evenodd" clip-rule="evenodd" d="M-74.9991 278.046H-75V28.113C-75 28.113 126.574 117.957 294.552 50.8585C383.109 15.4848 422.845 27.4772 461.369 39.1037C495.918 49.5307 529.492 59.6634 596.433 35.0704C738.015 -16.9445 907.913 28.113 907.913 28.113V278.046H907.914V537.902C907.914 537.902 741.049 490.605 538.362 514.253C446.438 524.978 387.853 517.403 338.067 510.966C278.077 503.209 230.862 497.105 153.491 526.658C11.9093 580.738 -74.9991 537.902 -74.9991 537.902V278.046Z" fill="url(#paint1_linear_8261_143296)"/>
<path d="M-75 278.046H-75.6493V278.695H-75V278.046ZM-74.9991 278.046H-74.3498V277.397H-74.9991V278.046ZM-75 28.113L-74.7357 27.5199L-75.6493 27.1127V28.113H-75ZM294.552 50.8585L294.311 50.2555L294.552 50.8585ZM461.369 39.1037L461.181 39.7253L461.369 39.1037ZM596.433 35.0704L596.209 34.461L596.433 35.0704ZM907.913 28.113H908.562V27.6134L908.08 27.4854L907.913 28.113ZM907.913 278.046H907.264V278.695H907.913V278.046ZM907.914 278.046H908.563V277.397H907.914V278.046ZM907.914 537.902L907.737 538.526L908.563 538.761V537.902H907.914ZM538.362 514.253L538.437 514.898L538.362 514.253ZM338.067 510.966L337.984 511.61L338.067 510.966ZM153.491 526.658L153.723 527.265L153.491 526.658ZM-74.9991 537.902H-75.6484V538.306L-75.2862 538.484L-74.9991 537.902ZM-75 278.695H-74.9991V277.397H-75V278.695ZM-75.6493 28.113V278.046H-74.3507V28.113H-75.6493ZM294.311 50.2555C210.49 83.7378 118.246 78.0734 46.9099 64.0105C11.2493 56.9806 -19.1679 47.8556 -40.6689 40.4884C-51.4191 36.8049 -59.9393 33.5613 -65.7703 31.2392C-68.6858 30.0781 -70.929 29.1475 -72.4423 28.5076C-73.199 28.1876 -73.7733 27.9403 -74.1579 27.7731C-74.3502 27.6896 -74.4951 27.6261 -74.5917 27.5836C-74.64 27.5623 -74.6762 27.5463 -74.7002 27.5356C-74.7123 27.5303 -74.7212 27.5263 -74.7271 27.5237C-74.7301 27.5224 -74.7322 27.5214 -74.7337 27.5208C-74.7351 27.5202 -74.7357 27.5199 -75 28.113C-75.2643 28.706 -75.2634 28.7064 -75.2617 28.7072C-75.2601 28.7079 -75.2576 28.709 -75.2544 28.7104C-75.2481 28.7133 -75.2386 28.7174 -75.2262 28.723C-75.2012 28.734 -75.1641 28.7504 -75.1148 28.7721C-75.0164 28.8154 -74.8696 28.8798 -74.6754 28.9642C-74.2869 29.1329 -73.7088 29.3819 -72.9481 29.7036C-71.4267 30.3469 -69.1751 31.281 -66.2508 32.4456C-60.4021 34.7747 -51.862 38.0259 -41.0899 41.7169C-19.5464 49.0986 10.9285 58.2409 46.6587 65.2846C118.104 79.369 210.637 85.0774 294.793 51.4614L294.311 50.2555ZM461.557 38.4821C442.294 32.6686 422.648 26.7365 396.724 26.7067C370.801 26.6769 338.644 32.547 294.311 50.2555L294.793 51.4614C339.017 33.7963 371.007 27.9757 396.722 28.0053C422.437 28.0349 441.92 33.9122 461.181 39.7253L461.557 38.4821ZM596.209 34.461C562.801 46.7345 537.757 50.3295 516.778 49.5707C495.792 48.8117 478.835 43.6967 461.557 38.4821L461.181 39.7253C478.452 44.9376 495.557 50.1026 516.731 50.8684C537.911 51.6345 563.124 47.9993 596.657 35.6799L596.209 34.461ZM907.913 28.113C908.08 27.4854 908.079 27.4852 908.077 27.4848C908.076 27.4844 908.074 27.4839 908.071 27.4832C908.066 27.4817 908.058 27.4796 908.047 27.4769C908.026 27.4713 907.995 27.4631 907.953 27.4523C907.87 27.4306 907.747 27.3985 907.583 27.3564C907.255 27.2723 906.768 27.1486 906.127 26.9895C904.844 26.6713 902.947 26.2118 900.482 25.6457C895.552 24.5135 888.354 22.9548 879.274 21.2474C861.116 17.8326 835.431 13.8223 805.318 11.4388C745.102 6.67288 667.125 8.40755 596.209 34.461L596.657 35.6799C667.323 9.71838 745.087 7.97432 805.215 12.7334C835.274 15.1124 860.912 19.1156 879.034 22.5236C888.095 24.2276 895.276 25.7826 900.191 26.9113C902.648 27.4757 904.539 27.9334 905.814 28.2498C906.452 28.4081 906.936 28.531 907.26 28.6142C907.422 28.6558 907.544 28.6875 907.625 28.7088C907.666 28.7194 907.697 28.7274 907.717 28.7327C907.727 28.7354 907.735 28.7374 907.74 28.7387C907.742 28.7393 907.744 28.7398 907.745 28.7401C907.746 28.7404 907.747 28.7406 907.913 28.113ZM908.562 278.046V28.113H907.264V278.046H908.562ZM907.914 277.397H907.913V278.695H907.914V277.397ZM908.563 537.902V278.046H907.265V537.902H908.563ZM538.437 514.898C639.713 503.082 732.045 508.99 799.06 517.853C832.567 522.284 859.742 527.454 878.537 531.516C887.935 533.546 895.238 535.3 900.19 536.545C902.666 537.168 904.554 537.664 905.823 538.004C906.457 538.173 906.936 538.304 907.257 538.393C907.417 538.437 907.537 538.47 907.617 538.493C907.658 538.504 907.688 538.513 907.708 538.518C907.718 538.521 907.725 538.523 907.73 538.524C907.732 538.525 907.734 538.526 907.735 538.526C907.737 538.526 907.737 538.526 907.914 537.902C908.091 537.277 908.09 537.277 908.089 537.276C908.088 537.276 908.086 537.276 908.083 537.275C908.078 537.273 908.07 537.271 908.06 537.268C908.039 537.262 908.008 537.254 907.967 537.242C907.885 537.219 907.763 537.185 907.602 537.141C907.278 537.052 906.796 536.92 906.159 536.749C904.884 536.408 902.989 535.91 900.507 535.286C895.541 534.037 888.224 532.28 878.812 530.246C859.986 526.179 832.776 521.002 799.231 516.566C732.141 507.693 639.697 501.776 538.286 513.608L538.437 514.898ZM337.984 511.61C387.787 518.05 446.435 525.633 538.437 514.898L538.286 513.608C446.442 524.324 387.919 516.757 338.15 510.322L337.984 511.61ZM153.723 527.265C230.939 497.77 278.022 503.857 337.984 511.61L338.15 510.322C278.132 502.562 230.785 496.439 153.259 526.052L153.723 527.265ZM-74.9991 537.902C-75.2862 538.484 -75.2855 538.484 -75.2845 538.485C-75.2838 538.485 -75.2824 538.486 -75.2809 538.487C-75.2778 538.488 -75.2734 538.49 -75.2677 538.493C-75.2562 538.499 -75.2394 538.507 -75.2174 538.518C-75.1733 538.539 -75.1081 538.57 -75.0219 538.611C-74.8495 538.692 -74.5932 538.81 -74.2539 538.962C-73.5753 539.266 -72.5648 539.703 -71.2303 540.239C-68.5612 541.311 -64.596 542.78 -59.3975 544.371C-49.0005 547.553 -33.6706 551.227 -13.9119 553.206C25.6087 557.165 82.8331 554.342 153.723 527.265L153.259 526.052C82.5672 553.054 25.5465 555.853 -13.7825 551.914C-33.4487 549.944 -48.6946 546.289 -59.0174 543.129C-64.1789 541.549 -68.1094 540.094 -70.7462 539.034C-72.0646 538.505 -73.0596 538.074 -73.7232 537.777C-74.055 537.628 -74.3039 537.513 -74.4691 537.435C-74.5516 537.397 -74.6133 537.367 -74.6538 537.348C-74.6741 537.338 -74.6891 537.331 -74.6988 537.326C-74.7036 537.323 -74.7072 537.322 -74.7094 537.321C-74.7105 537.32 -74.7112 537.32 -74.7117 537.32C-74.7121 537.319 -74.7121 537.319 -74.9991 537.902ZM-75.6484 278.046V537.902H-74.3498V278.046H-75.6484Z" fill="#4AFF85" mask="url(#path-3-outside-2_8261_143296)"/>
</g>
<g opacity="0.4">
<mask id="path-5-outside-3_8261_143296" maskUnits="userSpaceOnUse" x="-102" y="0" width="1037" height="691" fill="black">
<rect fill="white" x="-102" width="1037" height="691"/>
<path fill-rule="evenodd" clip-rule="evenodd" d="M-100.998 340.492H-101V23.9409C-101 23.9409 111.284 137.732 288.186 52.7491C381.448 7.94671 423.296 23.1356 463.866 37.8611C500.251 51.0674 535.609 63.9009 606.106 32.7528C755.21 -33.1264 934.135 23.9409 934.135 23.9409V340.492H934.137V669.611C934.137 669.611 758.406 609.707 544.95 639.659C448.143 653.243 386.445 643.649 334.014 635.496C270.836 625.672 221.113 617.94 139.631 655.37C-9.47247 723.865 -100.998 669.611 -100.998 669.611V340.492Z"/>
</mask>
<path fill-rule="evenodd" clip-rule="evenodd" d="M-100.998 340.492H-101V23.9409C-101 23.9409 111.284 137.732 288.186 52.7491C381.448 7.94671 423.296 23.1356 463.866 37.8611C500.251 51.0674 535.609 63.9009 606.106 32.7528C755.21 -33.1264 934.135 23.9409 934.135 23.9409V340.492H934.137V669.611C934.137 669.611 758.406 609.707 544.95 639.659C448.143 653.243 386.445 643.649 334.014 635.496C270.836 625.672 221.113 617.94 139.631 655.37C-9.47247 723.865 -100.998 669.611 -100.998 669.611V340.492Z" fill="url(#paint2_linear_8261_143296)"/>
<path d="M-101 340.492H-101.649V341.141H-101V340.492ZM-100.998 340.492H-100.349V339.843H-100.998V340.492ZM-101 23.9409L-100.693 23.3686L-101.649 22.8561V23.9409H-101ZM288.186 52.7491L287.905 52.1638L288.186 52.7491ZM463.866 37.8611L463.644 38.4714L463.866 37.8611ZM606.106 32.7528L606.369 33.3467L606.106 32.7528ZM934.135 23.9409H934.784V23.4664L934.332 23.3223L934.135 23.9409ZM934.135 340.492H933.486V341.141H934.135V340.492ZM934.137 340.492H934.786V339.843H934.137V340.492ZM934.137 669.611L933.927 670.225L934.786 670.518V669.611H934.137ZM544.95 639.659L545.04 640.302L544.95 639.659ZM334.014 635.496L334.114 634.854L334.014 635.496ZM139.631 655.37L139.36 654.78L139.631 655.37ZM-100.998 669.611H-101.648V669.981L-101.329 670.169L-100.998 669.611ZM-101 341.141H-100.998V339.843H-101V341.141ZM-101.649 23.9409V340.492H-100.351V23.9409H-101.649ZM287.905 52.1638C199.646 94.563 102.522 87.3909 27.4044 69.5818C-10.1467 60.679 -42.1772 49.1228 -64.8192 39.7925C-76.1397 35.1276 -85.112 31.0196 -91.2525 28.0788C-94.3227 26.6083 -96.6848 25.4298 -98.2784 24.6193C-99.0753 24.2141 -99.6799 23.9009 -100.085 23.6892C-100.287 23.5834 -100.44 23.503 -100.542 23.4492C-100.593 23.4223 -100.631 23.402 -100.656 23.3885C-100.669 23.3818 -100.678 23.3767 -100.684 23.3734C-100.687 23.3717 -100.69 23.3705 -100.691 23.3697C-100.693 23.3689 -100.693 23.3686 -101 23.9409C-101.307 24.5131 -101.306 24.5137 -101.304 24.5146C-101.302 24.5155 -101.3 24.5169 -101.296 24.5187C-101.29 24.5223 -101.28 24.5276 -101.267 24.5346C-101.24 24.5486 -101.201 24.5694 -101.149 24.5969C-101.046 24.6518 -100.891 24.7333 -100.686 24.8402C-100.277 25.054 -99.6683 25.3694 -98.8671 25.7768C-97.2647 26.5917 -94.8933 27.7749 -91.8134 29.2499C-85.6536 32.2001 -76.6591 36.3181 -65.314 40.9932C-42.6246 50.343 -10.5278 61.9232 27.1049 70.8453C102.355 88.686 199.824 95.918 288.468 53.3343L287.905 52.1638ZM464.088 37.2507C443.804 29.8884 423.103 22.3706 395.787 22.3328C368.47 22.2951 334.595 29.7343 287.905 52.1638L288.468 53.3343C335.04 30.9614 368.719 23.594 395.785 23.6314C422.85 23.6689 443.358 31.1083 463.644 38.4714L464.088 37.2507ZM605.844 32.1589C570.664 47.7024 544.301 52.2516 522.222 51.2912C500.135 50.3304 482.286 43.8561 464.088 37.2507L463.644 38.4714C481.831 45.0724 499.854 51.618 522.166 52.5885C544.487 53.5595 571.051 48.9514 606.369 33.3467L605.844 32.1589ZM934.135 23.9409C934.332 23.3223 934.331 23.322 934.33 23.3215C934.328 23.3211 934.326 23.3204 934.323 23.3195C934.318 23.3177 934.309 23.315 934.298 23.3115C934.276 23.3044 934.243 23.294 934.199 23.2803C934.112 23.2528 933.981 23.2121 933.809 23.1588C933.464 23.0522 932.95 22.8954 932.275 22.6939C930.924 22.2908 928.925 21.7087 926.328 20.9916C921.136 19.5574 913.554 17.583 903.992 15.4202C884.867 11.0947 857.814 6.01486 826.096 2.99577C762.673 -3.0413 680.539 -0.844059 605.844 32.1589L606.369 33.3467C680.777 0.470462 762.658 -1.73825 825.973 4.28851C857.625 7.30134 884.622 12.3708 903.705 16.6868C913.246 18.8447 920.808 20.814 925.983 22.2433C928.57 22.9579 930.561 23.5376 931.904 23.9383C932.575 24.1386 933.084 24.2942 933.426 24.3996C933.596 24.4522 933.725 24.4924 933.81 24.5192C933.853 24.5327 933.885 24.5428 933.906 24.5495C933.917 24.5529 933.925 24.5554 933.93 24.5571C933.933 24.5579 933.935 24.5585 933.936 24.5589C933.937 24.5593 933.938 24.5595 934.135 23.9409ZM934.784 340.492V23.9409H933.486V340.492H934.784ZM934.137 339.843H934.135V341.141H934.137V339.843ZM934.786 669.611V340.492H933.487V669.611H934.786ZM545.04 640.302C651.688 625.337 748.917 632.819 819.487 644.044C854.771 649.656 883.388 656.204 903.18 661.347C913.076 663.919 920.766 666.14 925.981 667.717C928.588 668.505 930.576 669.133 931.912 669.563C932.58 669.779 933.084 669.944 933.422 670.056C933.59 670.112 933.717 670.155 933.802 670.183C933.844 670.197 933.875 670.208 933.896 670.215C933.907 670.219 933.915 670.221 933.92 670.223C933.922 670.224 933.924 670.224 933.926 670.225C933.927 670.225 933.927 670.225 934.137 669.611C934.346 668.996 934.345 668.996 934.344 668.996C934.343 668.995 934.34 668.994 934.338 668.993C934.332 668.991 934.324 668.989 934.313 668.985C934.291 668.978 934.259 668.967 934.215 668.952C934.129 668.923 934.001 668.88 933.83 668.824C933.49 668.711 932.982 668.544 932.31 668.327C930.967 667.895 928.972 667.265 926.357 666.474C921.127 664.892 913.421 662.667 903.507 660.09C883.679 654.938 855.022 648.381 819.691 642.762C749.033 631.523 651.669 624.029 544.86 639.016L545.04 640.302ZM333.914 636.137C386.366 644.294 448.138 653.899 545.04 640.302L544.86 639.016C448.148 652.587 386.525 643.004 334.114 634.854L333.914 636.137ZM139.902 655.96C180.577 637.275 213.298 629.874 243.719 628.361C274.155 626.847 302.316 631.224 333.914 636.137L334.114 634.854C302.535 629.944 274.245 625.542 243.655 627.064C213.049 628.586 180.168 636.034 139.36 654.78L139.902 655.96ZM-100.998 669.611C-101.329 670.169 -101.329 670.17 -101.328 670.17C-101.327 670.171 -101.325 670.172 -101.324 670.173C-101.321 670.175 -101.316 670.177 -101.31 670.181C-101.298 670.188 -101.28 670.198 -101.257 670.212C-101.21 670.239 -101.142 670.278 -101.051 670.33C-100.869 670.432 -100.599 670.583 -100.242 670.775C-99.527 671.16 -98.4626 671.714 -97.0568 672.393C-94.2452 673.751 -90.0681 675.611 -84.5919 677.627C-73.6395 681.659 -57.4901 686.313 -36.675 688.821C4.961 693.836 65.2393 690.259 139.902 655.96L139.36 654.78C64.9196 688.977 4.8831 692.519 -36.5197 687.531C-57.2241 685.037 -73.2752 680.409 -84.1433 676.409C-89.5774 674.408 -93.7157 672.565 -96.4919 671.224C-97.8799 670.553 -98.9275 670.008 -99.6261 669.632C-99.9755 669.444 -100.238 669.298 -100.411 669.199C-100.498 669.15 -100.563 669.113 -100.606 669.088C-100.627 669.076 -100.643 669.067 -100.653 669.061C-100.658 669.058 -100.662 669.055 -100.664 669.054C-100.666 669.053 -100.666 669.053 -100.667 669.053C-100.667 669.052 -100.667 669.052 -100.998 669.611ZM-101.648 340.492V669.611H-100.349V340.492H-101.648Z" fill="#4AFF85" mask="url(#path-5-outside-3_8261_143296)"/>
</g>
<defs>
<linearGradient id="paint0_linear_8261_143296" x1="416.492" y1="157.165" x2="416.527" y2="647.423" gradientUnits="userSpaceOnUse">
<stop stop-color="#C7FFD8" stop-opacity="0.74"/>
<stop offset="0.0001" stop-color="#B4FFCA" stop-opacity="0.74"/>
<stop offset="0.401042" stop-color="#D7FFF4"/>
<stop offset="0.677083" stop-color="#DBFFE0"/>
<stop offset="1" stop-color="#9AFFA4"/>
</linearGradient>
<linearGradient id="paint1_linear_8261_143296" x1="416.457" y1="132.369" x2="417.614" y2="540.766" gradientUnits="userSpaceOnUse">
<stop stop-color="#B4FFCA" stop-opacity="0.74"/>
<stop offset="0.0001" stop-color="#B4FFCA" stop-opacity="0.74"/>
<stop offset="0.401042" stop-color="#C8FFF0"/>
<stop offset="0.677083" stop-color="#E7FFEA"/>
<stop offset="1" stop-color="#DFFFDA"/>
</linearGradient>
<linearGradient id="paint2_linear_8261_143296" x1="416.568" y1="155.985" x2="418.331" y2="673.236" gradientUnits="userSpaceOnUse">
<stop stop-color="#B4FFCA" stop-opacity="0.74"/>
<stop offset="0.0001" stop-color="#B4FFCA" stop-opacity="0.74"/>
<stop offset="0.401042" stop-color="#C8FFF0"/>
<stop offset="0.677083" stop-color="#E7FFEA"/>
<stop offset="1" stop-color="#DFFFDA"/>
</linearGradient>
</defs>
</svg>
