<!-- width="1440" height="1137" -->


<svg preserveAspectRatio="none"  viewBox="0 0 1440 1137" fill="none" xmlns="http://www.w3.org/2000/svg">
<mask id="path-1-outside-1_8261_143297" maskUnits="userSpaceOnUse" x="-1" y="19" width="1441" height="1105" fill="black">
<rect fill="white" x="-1" y="19" width="1441" height="1105"/>
<path fill-rule="evenodd" clip-rule="evenodd" d="M0.000521421 563.188H0V56.7054C0 56.7054 294.931 238.771 540.707 102.799C670.278 31.1147 728.418 55.4171 784.783 78.9778C835.334 100.108 884.457 120.642 982.401 70.8045C1189.56 -34.6023 1438.14 56.7054 1438.14 56.7054V563.188L1438.14 1089.78C1438.14 1089.78 1193.99 993.932 897.434 1041.86C762.937 1063.59 677.219 1048.24 604.374 1035.19C516.6 1019.48 447.518 1007.1 334.314 1066.99C127.16 1176.59 0.000521421 1089.78 0.000521421 1089.78V563.188Z"/>
</mask>
<path fill-rule="evenodd" clip-rule="evenodd" d="M0.000521421 563.188H0V56.7054C0 56.7054 294.931 238.771 540.707 102.799C670.278 31.1147 728.418 55.4171 784.783 78.9778C835.334 100.108 884.457 120.642 982.401 70.8045C1189.56 -34.6023 1438.14 56.7054 1438.14 56.7054V563.188L1438.14 1089.78C1438.14 1089.78 1193.99 993.932 897.434 1041.86C762.937 1063.59 677.219 1048.24 604.374 1035.19C516.6 1019.48 447.518 1007.1 334.314 1066.99C127.16 1176.59 0.000521421 1089.78 0.000521421 1089.78V563.188Z" fill="url(#paint0_linear_8261_143297)"/>
<path d="M0 563.188H-1V564.188H0V563.188ZM0.000521421 563.188H1.00052V562.188H0.000521421V563.188ZM0 56.7054L0.525289 55.8545L-1 54.9129V56.7054H0ZM540.707 102.799L540.223 101.924L540.707 102.799ZM784.783 78.9778L785.169 78.0551L784.783 78.9778ZM982.401 70.8045L981.948 69.9133L982.401 70.8045ZM1438.14 56.7054H1439.14V56.0074L1438.48 55.7668L1438.14 56.7054ZM1438.14 563.188H1437.14H1438.14ZM1438.14 1089.78L1437.78 1090.71L1439.14 1091.25V1089.78H1438.14ZM897.434 1041.86L897.593 1042.84L897.434 1041.86ZM604.374 1035.19L604.198 1036.18L604.374 1035.19ZM334.314 1066.99L333.846 1066.11L334.314 1066.99ZM0.000521421 1089.78H-0.999479V1090.31L-0.563291 1090.6L0.000521421 1089.78ZM0 564.188H0.000521421V562.188H0V564.188ZM-1 56.7054V563.188H1V56.7054H-1ZM540.223 101.924C417.66 169.73 282.787 158.265 178.451 129.777C126.294 115.536 81.8031 97.0509 50.352 82.1252C34.6273 74.6629 22.1646 68.0915 13.6358 63.3874C9.37146 61.0354 6.09073 59.1502 3.8776 57.854C2.77104 57.2059 1.9314 56.7051 1.36918 56.3668C1.08807 56.1976 0.876314 56.0691 0.735228 55.983C0.664685 55.94 0.611809 55.9077 0.576764 55.8862C0.559242 55.8754 0.546178 55.8674 0.537592 55.8621C0.533299 55.8595 0.530223 55.8576 0.528074 55.8562C0.526121 55.855 0.525289 55.8545 0 56.7054C-0.525289 57.5564 -0.52387 57.5572 -0.521329 57.5588C-0.518983 57.5603 -0.515318 57.5625 -0.510631 57.5654C-0.501257 57.5712 -0.487402 57.5797 -0.469086 57.5909C-0.432453 57.6134 -0.377979 57.6467 -0.305825 57.6907C-0.161518 57.7787 0.053505 57.9092 0.337931 58.0804C0.906781 58.4227 1.75325 58.9276 2.86684 59.5798C5.094 60.8842 8.38969 62.7779 12.6699 65.1387C21.2302 69.8601 33.7291 76.4504 49.4945 83.9321C81.0234 98.8947 125.626 117.427 177.924 131.706C282.498 160.259 417.978 171.84 541.191 103.674L540.223 101.924ZM785.169 78.0551C756.992 66.277 728.198 54.232 690.199 54.1715C652.199 54.1109 605.102 66.0298 540.223 101.924L541.191 103.674C605.883 67.8835 652.642 56.1116 690.196 56.1715C727.751 56.2313 756.209 68.1178 784.397 79.9004L785.169 78.0551ZM981.948 69.9133C933.089 94.7744 896.496 102.039 865.87 100.505C835.225 98.97 810.457 88.6257 785.169 78.0551L784.397 79.9004C809.66 90.46 834.729 100.948 865.77 102.503C896.829 104.059 933.77 96.6718 982.855 71.6958L981.948 69.9133ZM1438.14 56.7054C1438.48 55.7668 1438.48 55.7663 1438.48 55.7655C1438.48 55.7648 1438.48 55.7636 1438.47 55.7622C1438.46 55.7593 1438.45 55.755 1438.44 55.7493C1438.41 55.738 1438.36 55.7213 1438.3 55.6992C1438.18 55.6552 1438 55.5899 1437.76 55.5046C1437.28 55.3338 1436.56 55.0827 1435.62 54.76C1433.74 54.1146 1430.97 53.1828 1427.36 52.035C1420.14 49.7393 1409.6 46.5793 1396.31 43.1179C1369.74 36.1953 1332.14 28.0653 1288.06 23.2334C1199.92 13.5714 1085.77 17.0866 981.948 69.9133L982.855 71.6958C1086.19 19.1156 1199.9 15.5813 1287.84 25.2215C1331.81 30.0407 1369.3 38.1497 1395.81 45.0533C1409.06 48.505 1419.56 51.6549 1426.75 53.9409C1430.34 55.0839 1433.11 56.0108 1434.97 56.6515C1435.91 56.9718 1436.61 57.2205 1437.09 57.3889C1437.32 57.4731 1437.5 57.5372 1437.62 57.5801C1437.68 57.6015 1437.72 57.6177 1437.75 57.6284C1437.77 57.6338 1437.78 57.6378 1437.79 57.6404C1437.79 57.6417 1437.79 57.6426 1437.79 57.6433C1437.79 57.6439 1437.8 57.6441 1438.14 56.7054ZM1439.14 563.188V56.7054H1437.14V563.188H1439.14ZM1439.14 1089.78L1439.14 563.188H1437.14L1437.14 1089.78H1439.14ZM897.593 1042.84C1045.73 1018.9 1180.79 1030.87 1278.82 1048.83C1327.83 1057.81 1367.58 1068.28 1395.07 1076.51C1408.82 1080.62 1419.5 1084.18 1426.74 1086.7C1430.36 1087.96 1433.12 1088.96 1434.98 1089.65C1435.91 1090 1436.61 1090.26 1437.07 1090.44C1437.31 1090.53 1437.48 1090.6 1437.6 1090.64C1437.66 1090.66 1437.7 1090.68 1437.73 1090.69C1437.75 1090.7 1437.76 1090.7 1437.77 1090.71C1437.77 1090.71 1437.77 1090.71 1437.77 1090.71C1437.77 1090.71 1437.78 1090.71 1438.14 1089.78C1438.51 1088.85 1438.5 1088.85 1438.5 1088.85C1438.5 1088.85 1438.5 1088.84 1438.49 1088.84C1438.49 1088.84 1438.47 1088.84 1438.46 1088.83C1438.43 1088.82 1438.38 1088.8 1438.32 1088.78C1438.2 1088.73 1438.02 1088.66 1437.79 1088.57C1437.31 1088.39 1436.61 1088.12 1435.67 1087.78C1433.81 1087.08 1431.03 1086.08 1427.4 1084.81C1420.13 1082.28 1409.42 1078.72 1395.65 1074.59C1368.09 1066.35 1328.27 1055.86 1279.18 1046.86C1180.99 1028.88 1045.7 1016.88 897.274 1040.87L897.593 1042.84ZM604.198 1036.18C677.078 1049.23 762.928 1064.6 897.593 1042.84L897.274 1040.87C762.945 1062.58 677.359 1047.25 604.551 1034.21L604.198 1036.18ZM334.781 1067.88C391.276 1037.99 436.708 1026.16 478.938 1023.74C521.194 1021.32 560.293 1028.32 604.198 1036.18L604.551 1034.21C560.681 1026.35 521.353 1019.31 478.823 1021.74C436.267 1024.18 390.556 1036.11 333.846 1066.11L334.781 1067.88ZM0.000521421 1089.78C-0.563291 1090.6 -0.562262 1090.61 -0.560748 1090.61C-0.559597 1090.61 -0.557597 1090.61 -0.555294 1090.61C-0.550687 1090.61 -0.54414 1090.62 -0.535656 1090.62C-0.518688 1090.63 -0.493972 1090.65 -0.461529 1090.67C-0.396644 1090.72 -0.300852 1090.78 -0.174335 1090.86C0.0786996 1091.03 0.454644 1091.27 0.952059 1091.58C1.94688 1092.19 3.42764 1093.08 5.38281 1094.17C9.2931 1096.34 15.1014 1099.32 22.7156 1102.55C37.9441 1109.01 60.3974 1116.46 89.337 1120.47C147.23 1128.51 231.02 1122.77 334.781 1067.88L333.846 1066.11C230.453 1120.81 147.087 1126.47 89.6118 1118.49C60.8672 1114.5 38.5837 1107.11 23.4962 1100.71C15.9525 1097.51 10.2081 1094.56 6.35517 1092.42C4.42874 1091.35 2.97526 1090.48 2.00625 1089.88C1.52175 1089.58 1.15838 1089.34 0.917572 1089.19C0.797171 1089.11 0.707414 1089.05 0.64848 1089.01C0.619014 1088.99 0.597253 1088.98 0.583221 1088.97C0.576205 1088.96 0.571121 1088.96 0.567973 1088.96C0.566398 1088.95 0.565489 1088.95 0.564701 1088.95C0.564275 1088.95 0.564334 1088.95 0.000521421 1089.78ZM-0.999479 563.188V1089.78H1.00052V563.188H-0.999479Z" fill="#4AFF85" mask="url(#path-1-outside-1_8261_143297)"/>
<g opacity="0.6">
<mask id="path-3-outside-2_8261_143297" maskUnits="userSpaceOnUse" x="-1" y="0" width="1477" height="1137" fill="black">
<rect fill="white" x="-1" width="1477" height="1137"/>
<path fill-rule="evenodd" clip-rule="evenodd" d="M1475 560.25H1475V1102.41C1475 1102.41 1224.59 1003.73 920.433 1053.07C782.489 1075.45 694.574 1059.65 619.863 1046.21C529.84 1030.03 458.987 1017.29 342.881 1078.95C130.418 1191.79 0 1102.41 0 1102.41V560.25H0.00200629V38.7908C0.00200629 38.7908 302.492 226.241 554.567 86.247C687.459 12.4434 747.088 37.4644 804.898 61.7218C856.745 83.4768 907.127 104.618 1007.58 53.3068C1220.04 -55.2169 1475 38.7908 1475 38.7908V560.25Z"/>
</mask>
<path fill-rule="evenodd" clip-rule="evenodd" d="M1475 560.25H1475V1102.41C1475 1102.41 1224.59 1003.73 920.433 1053.07C782.489 1075.45 694.574 1059.65 619.863 1046.21C529.84 1030.03 458.987 1017.29 342.881 1078.95C130.418 1191.79 0 1102.41 0 1102.41V560.25H0.00200629V38.7908C0.00200629 38.7908 302.492 226.241 554.567 86.247C687.459 12.4434 747.088 37.4644 804.898 61.7218C856.745 83.4768 907.127 104.618 1007.58 53.3068C1220.04 -55.2169 1475 38.7908 1475 38.7908V560.25Z" fill="url(#paint1_linear_8261_143297)"/>
<path d="M1475 560.25V559.25H1474V560.25H1475ZM1475 560.25V561.25H1476V560.25H1475ZM1475 1102.41L1474.63 1103.34L1476 1103.88V1102.41H1475ZM920.433 1053.07L920.273 1052.09L920.433 1053.07ZM619.863 1046.21L620.04 1045.23L619.863 1046.21ZM342.881 1078.95L342.412 1078.07L342.881 1078.95ZM0 1102.41H-1V1102.94L-0.565288 1103.24L0 1102.41ZM0 560.25V559.25H-1V560.25H0ZM0.00200629 560.25V561.25H1.00201V560.25H0.00200629ZM0.00200629 38.7908L0.528755 37.9408L-0.997994 36.9947V38.7908H0.00200629ZM554.567 86.247L555.052 87.1212L554.567 86.247ZM804.898 61.7218L804.511 62.6439L804.898 61.7218ZM1007.58 53.3068L1007.13 52.4163L1007.58 53.3068ZM1475 38.7908H1476V38.0938L1475.35 37.8526L1475 38.7908ZM1475 561.25H1475V559.25H1475V561.25ZM1476 1102.41V560.25H1474V1102.41H1476ZM920.594 1054.06C1072.53 1029.41 1211.05 1041.74 1311.59 1060.22C1361.86 1069.47 1402.63 1080.25 1430.83 1088.72C1444.93 1092.96 1455.89 1096.62 1463.31 1099.21C1467.03 1100.51 1469.86 1101.55 1471.76 1102.25C1472.71 1102.61 1473.43 1102.88 1473.91 1103.07C1474.15 1103.16 1474.33 1103.23 1474.45 1103.27C1474.51 1103.3 1474.56 1103.31 1474.59 1103.33C1474.6 1103.33 1474.61 1103.34 1474.62 1103.34C1474.62 1103.34 1474.63 1103.34 1474.63 1103.34C1474.63 1103.34 1474.63 1103.34 1475 1102.41C1475.36 1101.48 1475.36 1101.48 1475.36 1101.48C1475.36 1101.48 1475.36 1101.48 1475.35 1101.48C1475.34 1101.47 1475.33 1101.47 1475.32 1101.46C1475.29 1101.45 1475.24 1101.43 1475.18 1101.41C1475.05 1101.36 1474.87 1101.29 1474.63 1101.2C1474.14 1101.01 1473.42 1100.74 1472.46 1100.38C1470.55 1099.67 1467.7 1098.63 1463.97 1097.33C1456.52 1094.72 1445.54 1091.05 1431.41 1086.81C1403.15 1078.32 1362.31 1067.52 1311.96 1058.26C1211.26 1039.74 1072.5 1027.39 920.273 1052.09L920.594 1054.06ZM619.686 1047.2C694.433 1060.64 782.481 1076.46 920.594 1054.06L920.273 1052.09C782.498 1074.44 694.716 1058.65 620.04 1045.23L619.686 1047.2ZM343.35 1079.84C401.295 1049.06 447.895 1036.88 491.211 1034.39C534.553 1031.9 574.656 1039.1 619.686 1047.2L620.04 1045.23C575.046 1037.14 534.712 1029.89 491.096 1032.39C447.452 1034.9 400.573 1047.18 342.412 1078.07L343.35 1079.84ZM0 1102.41C-0.565288 1103.24 -0.564246 1103.24 -0.562707 1103.24C-0.561531 1103.24 -0.559493 1103.24 -0.557141 1103.24C-0.552434 1103.25 -0.545739 1103.25 -0.537056 1103.26C-0.51969 1103.27 -0.494378 1103.29 -0.461141 1103.31C-0.394668 1103.35 -0.296498 1103.42 -0.166815 1103.5C0.0925495 1103.67 0.477971 1103.92 0.987973 1104.24C2.00797 1104.87 3.52634 1105.79 5.53127 1106.91C9.54107 1109.15 15.4975 1112.21 23.306 1115.53C38.9231 1122.18 61.95 1129.85 91.629 1133.99C151.002 1142.25 236.934 1136.35 343.35 1079.84L342.412 1078.07C236.365 1134.39 150.857 1140.22 91.9049 1132.01C62.4215 1127.9 39.5649 1120.28 24.0891 1113.69C16.3512 1110.4 10.4589 1107.37 6.50648 1105.16C4.53032 1104.06 3.03925 1103.16 2.04508 1102.54C1.548 1102.23 1.17516 1101.99 0.928032 1101.83C0.804468 1101.75 0.712334 1101.69 0.651815 1101.65C0.621555 1101.63 0.599199 1101.61 0.58477 1101.6C0.577556 1101.6 0.572323 1101.59 0.569075 1101.59C0.567451 1101.59 0.566505 1101.59 0.565692 1101.59C0.565241 1101.59 0.565288 1101.59 0 1102.41ZM-1 560.25V1102.41H1V560.25H-1ZM0.00200629 559.25H0V561.25H0.00200629V559.25ZM-0.997994 38.7908V560.25H1.00201V38.7908H-0.997994ZM554.081 85.3728C428.37 155.189 290.033 143.383 183.021 114.052C129.525 99.3898 83.8929 80.3571 51.6348 64.9897C35.5067 57.3064 22.7241 50.5405 13.9763 45.697C9.6025 43.2754 6.2375 41.3344 3.96748 39.9998C2.83247 39.3325 1.97123 38.8168 1.39451 38.4684C1.10616 38.2942 0.888935 38.1618 0.744193 38.0732C0.671822 38.0289 0.617571 37.9956 0.581608 37.9734C0.563627 37.9624 0.550218 37.9541 0.541402 37.9487C0.536994 37.9459 0.533833 37.944 0.531626 37.9426C0.529615 37.9414 0.528755 37.9408 0.00200629 38.7908C-0.524743 39.6409 -0.523295 39.6418 -0.520695 39.6434C-0.518292 39.6449 -0.51454 39.6472 -0.509738 39.6502C-0.500133 39.6561 -0.485933 39.6648 -0.467157 39.6764C-0.429606 39.6995 -0.373755 39.7339 -0.299772 39.7791C-0.151807 39.8697 0.0686861 40.004 0.36036 40.1802C0.943707 40.5326 1.81179 41.0524 2.95383 41.7239C5.23789 43.0667 8.61786 45.0163 13.0076 47.4468C21.7868 52.3076 34.6057 59.0925 50.7746 66.7953C83.1107 82.1998 128.856 101.28 182.492 115.981C289.743 145.377 428.689 157.299 555.052 87.1212L554.081 85.3728ZM805.285 60.7997C776.386 48.6733 746.858 36.2738 707.89 36.2115C668.921 36.1492 620.621 48.4189 554.081 85.3728L555.052 87.1212C621.404 50.2715 669.366 38.1499 707.887 38.2115C746.409 38.2731 775.601 50.5129 804.511 62.6439L805.285 60.7997ZM1007.13 52.4163C957.012 78.014 919.478 85.4951 888.062 83.9153C856.627 82.3345 831.222 71.6828 805.285 60.7997L804.511 62.6439C830.421 73.5158 856.13 84.312 887.962 85.9127C919.812 87.5144 957.696 79.9105 1008.04 54.1974L1007.13 52.4163ZM1475 38.7908C1475.35 37.8526 1475.34 37.8521 1475.34 37.8513C1475.34 37.8506 1475.34 37.8494 1475.33 37.8479C1475.32 37.8449 1475.31 37.8405 1475.3 37.8347C1475.27 37.823 1475.22 37.8058 1475.16 37.7831C1475.03 37.7378 1474.84 37.6706 1474.6 37.5827C1474.11 37.407 1473.37 37.1485 1472.41 36.8163C1470.48 36.1518 1467.64 35.1925 1463.93 34.0108C1456.53 31.6474 1445.73 28.394 1432.1 24.8303C1404.84 17.7033 1366.28 9.33309 1321.07 4.35844C1230.68 -5.58899 1113.6 -1.9696 1007.13 52.4163L1008.04 54.1974C1114.02 0.0595331 1230.66 -3.57907 1320.85 6.34644C1365.95 11.3083 1404.41 19.6573 1431.59 26.7653C1445.18 30.3191 1455.95 33.5623 1463.33 35.916C1467.01 37.0929 1469.85 38.0473 1471.76 38.7069C1472.71 39.0368 1473.44 39.2929 1473.93 39.4663C1474.17 39.5529 1474.35 39.6189 1474.47 39.6631C1474.53 39.6852 1474.58 39.7019 1474.61 39.7129C1474.62 39.7184 1474.64 39.7225 1474.64 39.7253C1474.65 39.7266 1474.65 39.7276 1474.65 39.7282C1474.65 39.7289 1474.65 39.7291 1475 38.7908ZM1476 560.25V38.7908H1474V560.25H1476Z" fill="#4AFF85" mask="url(#path-3-outside-2_8261_143297)"/>
</g>
<defs>
<linearGradient id="paint0_linear_8261_143297" x1="719.07" y1="267.977" x2="719.131" y2="1072.22" gradientUnits="userSpaceOnUse">
<stop stop-color="#C7FFD8" stop-opacity="0.74"/>
<stop offset="0.0001" stop-color="#B4FFCA" stop-opacity="0.74"/>
<stop offset="0.401042" stop-color="#D7FFF4"/>
<stop offset="0.677083" stop-color="#DBFFE0"/>
<stop offset="1" stop-color="#9AFFA4"/>
</linearGradient>
<linearGradient id="paint1_linear_8261_143297" x1="737.5" y1="256.31" x2="740.857" y2="1108.38" gradientUnits="userSpaceOnUse">
<stop stop-color="#B4FFCA" stop-opacity="0.74"/>
<stop offset="0.0001" stop-color="#B4FFCA" stop-opacity="0.74"/>
<stop offset="0.401042" stop-color="#C8FFF0"/>
<stop offset="0.677083" stop-color="#E7FFEA"/>
<stop offset="1" stop-color="#DFFFDA"/>
</linearGradient>
</defs>
</svg>
