<!-- width="375" height="529" -->

<svg preserveAspectRatio="none"  viewBox="0 0 375 529" fill="none" xmlns="http://www.w3.org/2000/svg">
<mask id="path-1-outside-1_6790_193541" maskUnits="userSpaceOnUse" x="-92" y="-0.203125" width="593" height="529" fill="black">
<rect fill="white" x="-92" y="-0.203125" width="593" height="529"/>
<path fill-rule="evenodd" clip-rule="evenodd" d="M-90.9992 260.414H-91V18.3403C-91 18.3403 30.1133 105.359 131.041 40.3706C184.249 6.10918 208.124 17.7245 231.271 28.9854C252.029 39.0846 272.202 48.8987 312.423 25.079C397.49 -25.3004 499.572 18.3403 499.572 18.3403V260.414H499.572V512.099C499.572 512.099 399.313 466.289 277.531 489.194C222.3 499.582 187.1 492.245 157.187 486.01C121.142 478.497 92.7738 472.585 46.2863 501.209C-38.7813 553.588 -90.9992 512.099 -90.9992 512.099V260.414Z"/>
</mask>
<path fill-rule="evenodd" clip-rule="evenodd" d="M-90.9992 260.414H-91V18.3403C-91 18.3403 30.1133 105.359 131.041 40.3706C184.249 6.10918 208.124 17.7245 231.271 28.9854C252.029 39.0846 272.202 48.8987 312.423 25.079C397.49 -25.3004 499.572 18.3403 499.572 18.3403V260.414H499.572V512.099C499.572 512.099 399.313 466.289 277.531 489.194C222.3 499.582 187.1 492.245 157.187 486.01C121.142 478.497 92.7738 472.585 46.2863 501.209C-38.7813 553.588 -90.9992 512.099 -90.9992 512.099V260.414Z" fill="url(#paint0_linear_6790_193541)"/>
<path d="M-91 260.414H-91.5795V260.994H-91V260.414ZM-90.9992 260.414H-90.4197V259.835H-90.9992V260.414ZM-91 18.3403L-90.6619 17.8697L-91.5795 17.2104V18.3403H-91ZM131.041 40.3706L130.727 39.8833L131.041 40.3706ZM231.271 28.9854L231.017 29.5065L231.271 28.9854ZM312.423 25.079L312.127 24.5804L312.423 25.079ZM499.572 18.3403H500.151V17.9578L499.799 17.8075L499.572 18.3403ZM499.572 260.414H498.992V260.994H499.572V260.414ZM499.572 260.414H500.152V259.835H499.572V260.414ZM499.572 512.099L499.331 512.626L500.152 513.001V512.099H499.572ZM277.531 489.194L277.638 489.763L277.531 489.194ZM157.187 486.01L157.068 486.577L157.187 486.01ZM46.2863 501.209L46.5902 501.702L46.2863 501.209ZM-90.9992 512.099H-91.5787V512.379L-91.3597 512.553L-90.9992 512.099ZM-91 260.994H-90.9992V259.835H-91V260.994ZM-91.5795 18.3403V260.414H-90.4205V18.3403H-91.5795ZM130.727 39.8833C80.4692 72.245 25.1616 66.7792 -17.6519 53.1738C-39.0535 46.3727 -57.3111 37.5438 -70.2189 30.4143C-76.6721 26.8499 -81.7863 23.7112 -85.2857 21.4648C-87.0354 20.3416 -88.3813 19.4415 -89.2888 18.8229C-89.7426 18.5135 -90.0868 18.2746 -90.317 18.1133C-90.4322 18.0326 -90.5189 17.9714 -90.5765 17.9305C-90.6053 17.9101 -90.6269 17.8947 -90.6412 17.8845C-90.6483 17.8794 -90.6536 17.8756 -90.657 17.8732C-90.6588 17.8719 -90.66 17.871 -90.6608 17.8704C-90.6616 17.8699 -90.6619 17.8697 -91 18.3403C-91.3381 18.8109 -91.3375 18.8113 -91.3364 18.8121C-91.3354 18.8128 -91.3339 18.8139 -91.3319 18.8154C-91.328 18.8182 -91.3222 18.8223 -91.3146 18.8277C-91.2994 18.8385 -91.2769 18.8546 -91.2472 18.8757C-91.1876 18.918 -91.099 18.9805 -90.9819 19.0626C-90.7477 19.2266 -90.3995 19.4683 -89.9416 19.7805C-89.0257 20.4048 -87.671 21.3108 -85.9118 22.4401C-82.3936 24.6986 -77.2574 27.8506 -70.7792 31.4287C-57.8242 38.5844 -39.4955 47.4483 -18.0029 54.2783C24.9722 67.9351 80.6851 73.4844 131.355 40.8578L130.727 39.8833ZM231.524 28.4643C219.958 22.837 208.092 17.0567 192.43 17.0276C176.766 16.9986 157.386 22.7178 130.727 39.8833L131.355 40.8578C157.905 23.762 177.066 18.1581 192.428 18.1866C207.793 18.2151 219.438 23.8728 231.017 29.5065L231.524 28.4643ZM312.127 24.5804C292.085 36.4502 277.101 39.9031 264.582 39.1733C252.048 38.4425 241.915 33.5192 231.524 28.4643L231.017 29.5065C241.386 34.5507 251.717 39.5841 264.515 40.3302C277.328 41.0773 292.54 37.5274 312.718 25.5776L312.127 24.5804ZM499.572 18.3403C499.799 17.8075 499.799 17.8072 499.798 17.8068C499.797 17.8064 499.796 17.8059 499.794 17.8051C499.791 17.8037 499.786 17.8016 499.779 17.7989C499.766 17.7934 499.747 17.7853 499.722 17.7747C499.672 17.7535 499.597 17.7222 499.498 17.6812C499.3 17.5993 499.006 17.479 498.62 17.3244C497.847 17.0153 496.704 16.5693 495.22 16.0201C492.253 14.9215 487.922 13.4098 482.46 11.7541C471.537 8.44275 456.087 4.5539 437.971 2.24256C401.747 -2.37906 354.814 -0.699753 312.127 24.5804L312.718 25.5776C355.099 0.478358 401.74 -1.21167 437.824 3.3922C455.862 5.69361 471.248 9.56621 482.124 12.8632C487.561 14.5115 491.87 16.0156 494.818 17.1069C496.292 17.6526 497.425 18.095 498.189 18.4005C498.571 18.5533 498.861 18.6719 499.054 18.752C499.151 18.7921 499.224 18.8226 499.272 18.843C499.297 18.8531 499.315 18.8608 499.327 18.8658C499.333 18.8684 499.337 18.8702 499.34 18.8714C499.341 18.8721 499.342 18.8725 499.343 18.8728C499.344 18.873 499.344 18.8731 499.572 18.3403ZM500.151 260.414V18.3403H498.992V260.414H500.151ZM499.572 259.835H499.572V260.994H499.572V259.835ZM500.152 512.099V260.414H498.993V512.099H500.152ZM277.638 489.763C338.434 478.329 393.863 484.045 434.099 492.624C454.216 496.913 470.531 501.916 481.813 505.846C487.455 507.811 491.838 509.508 494.809 510.712C496.294 511.315 497.427 511.794 498.187 512.122C498.567 512.286 498.854 512.413 499.046 512.498C499.141 512.54 499.213 512.573 499.261 512.594C499.285 512.605 499.303 512.613 499.315 512.618C499.32 512.621 499.325 512.623 499.328 512.624C499.329 512.625 499.33 512.625 499.331 512.626C499.331 512.626 499.331 512.626 499.572 512.099C499.813 511.572 499.813 511.572 499.812 511.571C499.811 511.571 499.81 511.57 499.808 511.569C499.805 511.568 499.8 511.566 499.794 511.563C499.781 511.557 499.762 511.549 499.737 511.537C499.688 511.515 499.614 511.482 499.516 511.439C499.321 511.352 499.03 511.224 498.646 511.058C497.878 510.726 496.738 510.244 495.244 509.638C492.257 508.427 487.855 506.724 482.195 504.752C470.873 500.808 454.512 495.791 434.341 491.49C394.002 482.89 338.411 477.154 277.424 488.624L277.638 489.763ZM157.068 486.577C187.005 492.817 222.295 500.173 277.638 489.763L277.424 488.624C222.306 498.991 187.195 491.673 157.305 485.443L157.068 486.577ZM46.5902 501.702C69.769 487.43 88.3931 481.79 105.691 480.636C123.008 479.482 139.034 482.819 157.068 486.577L157.305 485.443C139.295 481.689 123.115 478.313 105.614 479.48C88.095 480.648 69.2911 486.363 45.9825 500.715L46.5902 501.702ZM-90.9992 512.099C-91.3597 512.553 -91.3592 512.553 -91.3585 512.554C-91.358 512.554 -91.3571 512.555 -91.3561 512.555C-91.354 512.557 -91.3512 512.559 -91.3476 512.562C-91.3404 512.568 -91.33 512.576 -91.3165 512.586C-91.2893 512.608 -91.2495 512.638 -91.197 512.678C-91.0921 512.758 -90.9366 512.874 -90.7312 513.022C-90.3204 513.318 -89.7099 513.744 -88.9043 514.266C-87.2932 515.309 -84.9016 516.736 -81.7674 518.283C-75.499 521.376 -66.2583 524.945 -54.3492 526.868C-30.518 530.716 3.94324 527.962 46.5902 501.702L45.9825 500.715C3.56174 526.835 -30.6197 529.526 -54.1645 525.724C-65.9433 523.822 -75.0738 520.293 -81.2546 517.244C-84.345 515.719 -86.6975 514.314 -88.2744 513.293C-89.0628 512.782 -89.6572 512.368 -90.0528 512.082C-90.2507 511.939 -90.3988 511.829 -90.4967 511.755C-90.5456 511.717 -90.5819 511.689 -90.6056 511.671C-90.6175 511.662 -90.6262 511.655 -90.6317 511.651C-90.6345 511.649 -90.6364 511.647 -90.6376 511.646C-90.6382 511.646 -90.6385 511.645 -90.6388 511.645C-90.6388 511.645 -90.6387 511.645 -90.9992 512.099ZM-91.5787 260.414V512.099H-90.4197V260.414H-91.5787Z" fill="#4AFF85" mask="url(#path-1-outside-1_6790_193541)"/>
<defs>
<linearGradient id="paint0_linear_6790_193541" x1="204.286" y1="119.318" x2="204.32" y2="503.704" gradientUnits="userSpaceOnUse">
<stop stop-color="#C7FFD8" stop-opacity="0.74"/>
<stop offset="0.0001" stop-color="#B4FFCA" stop-opacity="0.74"/>
<stop offset="0.401042" stop-color="#D7FFF4"/>
<stop offset="0.677083" stop-color="#DBFFE0"/>
<stop offset="1" stop-color="#9AFFA4"/>
</linearGradient>
</defs>
</svg>
