<!-- width="375" height="856" -->

<svg preserveAspectRatio="none" viewBox="0 0 375 856" fill="none" xmlns="http://www.w3.org/2000/svg">
<mask id="path-1-outside-1_8261_143295" maskUnits="userSpaceOnUse" x="-318.379" y="38.7891" width="837" height="794" fill="black">
<rect fill="white" x="-318.379" y="38.7891" width="837" height="794"/>
<path fill-rule="evenodd" clip-rule="evenodd" d="M-317.378 430.129H-317.379V66.166C-317.379 66.166 -146.252 197 -3.64597 99.2889C71.5348 47.7762 105.269 65.2401 137.974 82.1711C167.305 97.3554 195.807 112.111 252.637 76.2977C372.834 0.551327 517.069 66.166 517.069 66.166V430.129H517.07V808.542C517.07 808.542 375.409 739.666 203.337 774.104C125.299 789.723 75.5625 778.692 33.2963 769.318C-17.6325 758.022 -57.7158 749.132 -123.4 792.169C-243.597 870.923 -317.378 808.542 -317.378 808.542V430.129Z"/>
</mask>
<path fill-rule="evenodd" clip-rule="evenodd" d="M-317.378 430.129H-317.379V66.166C-317.379 66.166 -146.252 197 -3.64597 99.2889C71.5348 47.7762 105.269 65.2401 137.974 82.1711C167.305 97.3554 195.807 112.111 252.637 76.2977C372.834 0.551327 517.069 66.166 517.069 66.166V430.129H517.07V808.542C517.07 808.542 375.409 739.666 203.337 774.104C125.299 789.723 75.5625 778.692 33.2963 769.318C-17.6325 758.022 -57.7158 749.132 -123.4 792.169C-243.597 870.923 -317.378 808.542 -317.378 808.542V430.129Z" fill="url(#paint0_linear_8261_143295)"/>
<path d="M-317.379 430.129H-317.958V430.709H-317.379V430.129ZM-317.378 430.129H-316.798V429.55H-317.378V430.129ZM-317.379 66.1659L-317.027 65.7056L-317.958 64.9935V66.1659H-317.379ZM-3.64597 99.2889L-3.31842 99.767L-3.64597 99.2889ZM137.974 82.1711L138.24 81.6565L137.974 82.1711ZM252.637 76.2977L252.328 75.8074L252.637 76.2977ZM517.069 66.1659H517.649V65.7929L517.309 65.6385L517.069 66.1659ZM517.069 430.129H516.49V430.709H517.069V430.129ZM517.07 430.129H517.65V429.55H517.07V430.129ZM517.07 808.542L516.817 809.064L517.65 809.469V808.542H517.07ZM203.337 774.104L203.224 773.536L203.337 774.104ZM33.2963 769.318L33.1708 769.883L33.2963 769.318ZM-123.4 792.169L-123.718 791.684L-123.4 792.169ZM-317.378 808.542H-317.957V808.811L-317.752 808.985L-317.378 808.542ZM-317.379 430.709H-317.378V429.55H-317.379V430.709ZM-317.958 66.1659V430.129H-316.799V66.1659H-317.958ZM-3.97351 98.8109C-75.0641 147.521 -153.283 139.286 -213.804 118.82C-244.06 108.589 -269.871 95.3074 -288.118 84.5825C-297.241 79.2205 -304.472 74.4986 -309.42 71.1184C-311.895 69.4283 -313.798 68.0737 -315.082 67.1424C-315.724 66.6767 -316.211 66.3168 -316.537 66.0737C-316.7 65.9521 -316.823 65.8597 -316.905 65.7979C-316.946 65.767 -316.977 65.7438 -316.997 65.7283C-317.007 65.7206 -317.015 65.7148 -317.02 65.711C-317.022 65.7091 -317.024 65.7078 -317.025 65.7068C-317.026 65.706 -317.027 65.7056 -317.379 66.1659C-317.731 66.6263 -317.73 66.6269 -317.729 66.6281C-317.727 66.6291 -317.725 66.6307 -317.722 66.6328C-317.717 66.6369 -317.709 66.6431 -317.698 66.6511C-317.677 66.6673 -317.645 66.6913 -317.604 66.7229C-317.52 66.7861 -317.395 66.8799 -317.23 67.0029C-316.9 67.2489 -316.409 67.6118 -315.762 68.0805C-314.47 69.0179 -312.558 70.3788 -310.074 72.0754C-305.107 75.4685 -297.854 80.2047 -288.706 85.5816C-270.41 96.3347 -244.526 109.655 -214.175 119.918C-153.482 140.442 -74.8338 148.768 -3.31842 99.767L-3.97351 98.8109ZM138.24 81.6565C121.896 73.1953 105.17 64.5277 83.0935 64.4841C61.0135 64.4406 33.6702 73.018 -3.97351 98.8109L-3.31842 99.767C34.2186 74.0472 61.3327 65.6002 83.0912 65.6431C104.853 65.686 121.347 74.2159 137.707 82.6857L138.24 81.6565ZM252.328 75.8074C223.981 93.6715 202.768 98.8807 185.029 97.7802C167.273 96.6785 152.918 89.2552 138.24 81.6565L137.707 82.6857C152.36 90.2713 166.922 97.818 184.957 98.9369C203.01 100.057 224.464 94.7373 252.946 76.7879L252.328 75.8074ZM517.069 66.1659C517.309 65.6385 517.308 65.6381 517.307 65.6376C517.306 65.637 517.304 65.6362 517.302 65.6351C517.297 65.633 517.29 65.6299 517.281 65.6259C517.263 65.6177 517.236 65.6057 517.201 65.5898C517.13 65.5581 517.025 65.5111 516.885 65.4497C516.607 65.3269 516.192 65.1464 515.647 64.9144C514.557 64.4503 512.944 63.7805 510.849 62.9554C506.66 61.3052 500.545 59.0338 492.832 56.5457C477.407 51.5699 455.588 45.726 430.005 42.2527C378.846 35.3071 312.584 37.8351 252.328 75.8074L252.946 76.7879C312.887 39.0139 378.841 36.476 429.849 43.4011C455.349 46.8632 477.101 52.6888 492.476 57.6487C500.164 60.1285 506.256 62.3914 510.424 64.0337C512.509 64.8548 514.112 65.5206 515.193 65.9808C515.734 66.2108 516.144 66.3895 516.418 66.5103C516.555 66.5708 516.659 66.6168 516.727 66.6476C516.762 66.6629 516.787 66.6745 516.805 66.6822C516.813 66.686 516.819 66.6889 516.823 66.6908C516.826 66.6917 516.827 66.6924 516.828 66.6928C516.829 66.6932 516.829 66.6934 517.069 66.1659ZM517.649 430.129V66.1659H516.49V430.129H517.649ZM517.07 429.55H517.069V430.709H517.07V429.55ZM517.65 808.542V430.129H516.491V808.542H517.65ZM203.451 774.673C289.385 757.474 367.733 766.072 424.603 778.974C453.036 785.425 476.096 792.95 492.046 798.862C500.02 801.818 506.217 804.37 510.418 806.182C512.518 807.088 514.12 807.81 515.195 808.304C515.733 808.551 516.14 808.741 516.411 808.87C516.547 808.934 516.649 808.983 516.716 809.015C516.75 809.031 516.776 809.044 516.792 809.052C516.801 809.056 516.807 809.059 516.811 809.061C516.813 809.062 516.815 809.062 516.816 809.063C516.817 809.063 516.817 809.064 517.07 808.542C517.324 808.021 517.323 808.021 517.322 808.02C517.321 808.02 517.319 808.019 517.317 808.018C517.312 808.016 517.305 808.012 517.296 808.008C517.279 808 517.252 807.987 517.218 807.97C517.148 807.937 517.044 807.887 516.906 807.822C516.631 807.692 516.221 807.5 515.679 807.251C514.596 806.753 512.986 806.028 510.877 805.118C506.659 803.298 500.443 800.739 492.449 797.775C476.459 791.849 453.35 784.308 424.859 777.844C367.88 764.917 289.361 756.297 203.224 773.536L203.451 774.673ZM33.1708 769.883C75.4614 779.263 125.293 790.315 203.451 774.673L203.224 773.536C125.305 789.131 75.6635 778.121 33.4218 768.752L33.1708 769.883ZM-123.083 792.654C-90.3056 771.178 -63.9574 762.683 -39.4776 760.947C-14.978 759.208 7.69293 764.233 33.1708 769.883L33.4218 768.752C7.97076 763.107 -14.8643 758.038 -39.5596 759.791C-64.2748 761.544 -90.8104 770.123 -123.718 791.684L-123.083 792.654ZM-317.378 808.542C-317.752 808.985 -317.751 808.986 -317.751 808.986C-317.75 808.987 -317.749 808.988 -317.747 808.989C-317.745 808.991 -317.741 808.994 -317.736 808.998C-317.726 809.007 -317.712 809.019 -317.693 809.034C-317.655 809.065 -317.6 809.111 -317.526 809.17C-317.38 809.288 -317.162 809.462 -316.873 809.683C-316.296 810.127 -315.436 810.764 -314.302 811.546C-312.032 813.11 -308.661 815.251 -304.241 817.572C-295.401 822.213 -282.365 827.572 -265.561 830.459C-231.938 836.237 -183.296 832.106 -123.083 792.654L-123.718 791.684C-183.701 830.986 -232.048 835.042 -265.365 829.317C-282.031 826.454 -294.952 821.14 -303.702 816.546C-308.077 814.249 -311.409 812.132 -313.644 810.592C-314.761 809.822 -315.605 809.196 -316.167 808.764C-316.448 808.548 -316.659 808.381 -316.799 808.268C-316.868 808.212 -316.921 808.169 -316.955 808.141C-316.972 808.127 -316.985 808.116 -316.993 808.109C-316.997 808.106 -317 808.103 -317.002 808.102C-317.002 808.101 -317.003 808.101 -317.003 808.1C-317.004 808.1 -317.004 808.1 -317.378 808.542ZM-317.957 430.129V808.542H-316.798V430.129H-317.957Z" fill="#4AFF85" mask="url(#path-1-outside-1_8261_143295)"/>
<g opacity="0.6">
<mask id="path-3-outside-2_8261_143295" maskUnits="userSpaceOnUse" x="-339.766" y="18.1797" width="879" height="826" fill="black">
<rect fill="white" x="-339.766" y="18.1797" width="879" height="826"/>
<path fill-rule="evenodd" clip-rule="evenodd" d="M538.459 425.333H538.458V819.077C538.458 819.077 389.535 747.411 208.643 783.244C126.603 799.495 74.3177 788.017 29.8849 778.263C-23.6547 766.51 -65.7927 757.26 -134.844 802.04C-261.202 883.985 -338.766 819.077 -338.766 819.077V425.333H-338.764V46.6252C-338.764 46.6252 -158.865 182.76 -8.94888 81.09C70.0858 27.4904 105.549 45.6618 139.931 63.2787C170.765 79.0782 200.729 94.4317 260.472 57.1674C386.83 -21.6477 538.459 46.6252 538.459 46.6252V425.333Z"/>
</mask>
<path fill-rule="evenodd" clip-rule="evenodd" d="M538.459 425.333H538.458V819.077C538.458 819.077 389.535 747.411 208.643 783.244C126.603 799.495 74.3177 788.017 29.8849 778.263C-23.6547 766.51 -65.7927 757.26 -134.844 802.04C-261.202 883.985 -338.766 819.077 -338.766 819.077V425.333H-338.764V46.6252C-338.764 46.6252 -158.865 182.76 -8.94888 81.09C70.0858 27.4904 105.549 45.6618 139.931 63.2787C170.765 79.0782 200.729 94.4317 260.472 57.1674C386.83 -21.6477 538.459 46.6252 538.459 46.6252V425.333Z" fill="url(#paint1_linear_8261_143295)"/>
<path d="M538.458 425.333V424.754H537.879V425.333H538.458ZM538.459 425.333V425.913H539.039V425.333H538.459ZM538.458 819.077L538.207 819.599L539.038 819.999V819.077H538.458ZM208.643 783.244L208.755 783.813L208.643 783.244ZM29.8849 778.263L30.0091 777.697L29.8849 778.263ZM-134.844 802.04L-134.529 802.527H-134.529L-134.844 802.04ZM-338.766 819.077H-339.345V819.348L-339.138 819.522L-338.766 819.077ZM-338.766 425.333V424.754H-339.345V425.333H-338.766ZM-338.764 425.333V425.913H-338.185V425.333H-338.764ZM-338.764 46.6252L-338.415 46.1631L-339.344 45.46V46.6252H-338.764ZM-8.94888 81.0901L-9.27414 80.6105L-8.94888 81.0901ZM139.931 63.2787L140.195 62.763L139.931 63.2787ZM260.472 57.1674L260.779 57.6591L260.472 57.1674ZM538.459 46.6252H539.039V46.2506L538.697 46.0968L538.459 46.6252ZM538.458 425.913H538.459V424.754H538.458V425.913ZM539.038 819.077V425.333H537.879V819.077H539.038ZM208.755 783.813C299.101 765.916 381.47 774.863 441.258 788.289C471.151 795.001 495.395 802.832 512.163 808.983C520.547 812.059 527.061 814.715 531.478 816.601C533.687 817.544 535.371 818.294 536.502 818.809C537.067 819.066 537.494 819.264 537.78 819.398C537.922 819.464 538.03 819.515 538.101 819.549C538.137 819.566 538.163 819.579 538.181 819.587C538.19 819.591 538.196 819.594 538.201 819.597C538.203 819.598 538.204 819.598 538.206 819.599C538.207 819.599 538.207 819.599 538.458 819.077C538.709 818.555 538.709 818.555 538.707 818.554C538.706 818.554 538.704 818.553 538.702 818.552C538.697 818.549 538.69 818.546 538.681 818.541C538.662 818.533 538.635 818.519 538.598 818.502C538.525 818.467 538.416 818.416 538.271 818.348C537.982 818.213 537.551 818.013 536.981 817.754C535.843 817.236 534.15 816.482 531.933 815.535C527.499 813.642 520.966 810.978 512.562 807.895C495.754 801.729 471.462 793.883 441.512 787.158C381.616 773.708 299.077 764.739 208.53 782.676L208.755 783.813ZM29.7606 778.829C74.2177 788.589 126.597 800.087 208.755 783.813L208.53 782.676C126.609 798.903 74.4178 787.446 30.0091 777.697L29.7606 778.829ZM-134.529 802.527C-100.068 780.179 -72.364 771.337 -46.6221 769.53C-20.8606 767.721 2.97754 772.95 29.7606 778.829L30.0091 777.697C3.25259 771.824 -20.7481 766.551 -46.7033 768.374C-72.6781 770.198 -100.569 779.122 -135.16 801.554L-134.529 802.527ZM-338.766 819.077C-339.138 819.522 -339.137 819.522 -339.136 819.523C-339.135 819.524 -339.134 819.525 -339.133 819.526C-339.13 819.528 -339.126 819.531 -339.121 819.536C-339.111 819.544 -339.096 819.556 -339.076 819.573C-339.036 819.605 -338.978 819.652 -338.901 819.714C-338.747 819.837 -338.518 820.017 -338.214 820.248C-337.608 820.709 -336.705 821.372 -335.513 822.185C-333.128 823.811 -329.585 826.039 -324.939 828.453C-315.649 833.281 -301.947 838.856 -284.286 841.859C-248.949 847.869 -197.823 843.573 -134.529 802.527L-135.16 801.554C-198.224 842.452 -249.058 846.675 -284.092 840.717C-301.617 837.736 -315.204 832.206 -324.405 827.425C-329.005 825.034 -332.509 822.831 -334.86 821.228C-336.035 820.426 -336.922 819.775 -337.513 819.325C-337.809 819.1 -338.031 818.926 -338.178 818.808C-338.251 818.75 -338.306 818.705 -338.342 818.675C-338.36 818.661 -338.373 818.65 -338.382 818.643C-338.386 818.639 -338.389 818.636 -338.391 818.635C-338.392 818.634 -338.393 818.634 -338.393 818.633C-338.394 818.633 -338.394 818.633 -338.766 819.077ZM-339.345 425.333V819.077H-338.186V425.333H-339.345ZM-338.764 424.754H-338.766V425.913H-338.764V424.754ZM-339.344 46.6252V425.333H-338.185V46.6252H-339.344ZM-9.27414 80.6105C-84.0209 131.302 -166.262 122.731 -229.891 101.434C-261.701 90.7876 -288.837 76.9669 -308.021 65.8068C-317.613 60.2271 -325.215 55.3136 -330.417 51.7961C-333.018 50.0374 -335.019 48.6278 -336.37 47.6585C-337.045 47.1739 -337.557 46.7993 -337.9 46.5463C-338.071 46.4198 -338.201 46.3236 -338.287 46.2593C-338.33 46.2271 -338.362 46.2029 -338.383 46.1868C-338.394 46.1788 -338.402 46.1727 -338.407 46.1688C-338.41 46.1668 -338.412 46.1654 -338.413 46.1644C-338.414 46.1635 -338.415 46.1631 -338.764 46.6252C-339.114 47.0873 -339.113 47.0879 -339.112 47.0891C-339.11 47.0902 -339.108 47.0918 -339.105 47.094C-339.1 47.0983 -339.091 47.1047 -339.08 47.1131C-339.058 47.1299 -339.024 47.1548 -338.98 47.1876C-338.892 47.2534 -338.761 47.351 -338.588 47.4789C-338.241 47.7348 -337.725 48.1123 -337.045 48.5999C-335.687 49.5752 -333.677 50.991 -331.066 52.7562C-325.845 56.2864 -318.221 61.2142 -308.604 66.8085C-289.372 77.9965 -262.163 91.8551 -230.259 102.533C-166.459 123.887 -83.793 132.548 -8.62363 81.5697L-9.27414 80.6105ZM140.195 62.763C123.012 53.9587 105.436 44.944 82.237 44.8987C59.0351 44.8534 30.2968 53.7744 -9.27414 80.6105L-8.62363 81.5697C30.8402 54.8061 59.351 46.013 82.2347 46.0577C105.121 46.1024 122.468 54.9819 139.666 63.7944L140.195 62.763ZM260.165 56.6757C230.361 75.2657 208.054 80.6893 189.396 79.5436C170.721 78.3968 155.624 70.6691 140.195 62.763L139.666 63.7944C155.071 71.6878 170.374 79.5366 189.325 80.7004C208.294 81.8652 230.839 76.3334 260.779 57.6591L260.165 56.6757ZM538.459 46.6252C538.697 46.0968 538.696 46.0964 538.695 46.0958C538.694 46.0953 538.692 46.0944 538.69 46.0933C538.685 46.0912 538.677 46.0879 538.668 46.0837C538.649 46.0752 538.621 46.0627 538.584 46.0462C538.509 46.0132 538.399 45.9644 538.252 45.9006C537.959 45.7728 537.524 45.585 536.951 45.3437C535.805 44.8609 534.109 44.1641 531.908 43.3056C527.505 41.5888 521.077 39.2256 512.969 36.637C496.755 31.4601 473.819 25.38 446.927 21.7663C393.151 14.54 323.501 17.1705 260.165 56.6757L260.779 57.6591C323.801 18.3492 393.145 15.7086 446.773 22.915C473.583 26.5176 496.452 32.5798 512.617 37.7411C520.699 40.3215 527.104 42.6764 531.487 44.3854C533.678 45.2399 535.364 45.9328 536.501 46.4117C537.069 46.6512 537.5 46.8371 537.789 46.9629C537.933 47.0258 538.042 47.0737 538.114 47.1058C538.15 47.1218 538.177 47.1339 538.195 47.1419C538.204 47.1459 538.211 47.1488 538.215 47.1508C538.217 47.1518 538.219 47.1525 538.22 47.153C538.221 47.1534 538.221 47.1536 538.459 46.6252ZM539.039 425.333V46.6252H537.88V425.333H539.039Z" fill="#4AFF85" mask="url(#path-3-outside-2_8261_143295)"/>
</g>
<g opacity="0.4">
<mask id="path-5-outside-3_8261_143295" maskUnits="userSpaceOnUse" x="-363" y="0" width="926" height="856" fill="black">
<rect fill="white" x="-363" width="926" height="856"/>
<path fill-rule="evenodd" clip-rule="evenodd" d="M-361.998 421.793H-362V29.4347C-362 29.4347 -172.543 170.476 -14.6614 65.1418C68.5724 9.6103 105.92 28.4366 142.128 46.6885C174.601 63.0574 206.157 78.9643 269.074 40.3569C402.145 -41.2989 561.83 29.4347 561.83 29.4347V421.793H561.832V829.728C561.832 829.728 404.997 755.479 214.493 792.603C128.096 809.44 73.0319 797.549 26.2384 787.443C-30.1458 775.266 -74.5225 765.683 -147.243 812.077C-280.314 896.975 -361.998 829.728 -361.998 829.728V421.793Z"/>
</mask>
<path fill-rule="evenodd" clip-rule="evenodd" d="M-361.998 421.793H-362V29.4347C-362 29.4347 -172.543 170.476 -14.6614 65.1418C68.5724 9.6103 105.92 28.4366 142.128 46.6885C174.601 63.0574 206.157 78.9643 269.074 40.3569C402.145 -41.2989 561.83 29.4347 561.83 29.4347V421.793H561.832V829.728C561.832 829.728 404.997 755.479 214.493 792.603C128.096 809.44 73.0319 797.549 26.2384 787.443C-30.1458 775.266 -74.5225 765.683 -147.243 812.077C-280.314 896.975 -361.998 829.728 -361.998 829.728V421.793Z" fill="url(#paint2_linear_8261_143295)"/>
<path d="M-362 421.793H-362.579V422.372H-362V421.793ZM-361.998 421.793H-361.419V421.213H-361.998V421.793ZM-362 29.4347L-361.654 28.9699L-362.579 28.2809V29.4347H-362ZM-14.6614 65.1418L-14.983 64.6598L-14.6614 65.1418ZM142.128 46.6885L142.389 46.171L142.128 46.6885ZM269.074 40.3569L268.771 39.863L269.074 40.3569ZM561.83 29.4347H562.41V29.0576L562.065 28.9049L561.83 29.4347ZM561.83 421.793H561.251V422.372H561.83V421.793ZM561.832 421.793H562.411V421.213H561.832V421.793ZM561.832 829.728L561.584 830.252L562.411 830.644V829.728H561.832ZM214.493 792.603L214.604 793.172L214.493 792.603ZM26.2384 787.443L26.1161 788.01L26.2384 787.443ZM-147.243 812.077L-147.554 811.589L-147.243 812.077ZM-361.998 829.728H-362.578V830.002L-362.367 830.176L-361.998 829.728ZM-362 422.372H-361.998V421.213H-362V422.372ZM-362.579 29.4347V421.793H-361.421V29.4347H-362.579ZM-14.983 64.6598C-93.714 117.187 -180.339 108.304 -247.355 86.2382C-280.858 75.2068 -309.438 60.8868 -329.643 49.3237C-339.744 43.5425 -347.751 38.4515 -353.23 34.8069C-355.97 32.9846 -358.077 31.524 -359.499 30.5197C-360.21 30.0175 -360.75 29.6294 -361.111 29.3671C-361.292 29.236 -361.428 29.1364 -361.519 29.0697C-361.564 29.0363 -361.598 29.0112 -361.621 28.9945C-361.632 28.9862 -361.64 28.9799 -361.646 28.9758C-361.649 28.9738 -361.651 28.9723 -361.652 28.9713C-361.653 28.9703 -361.654 28.9699 -362 29.4347C-362.346 29.8995 -362.345 29.9002 -362.344 29.9014C-362.342 29.9025 -362.34 29.9043 -362.337 29.9065C-362.331 29.9109 -362.322 29.9175 -362.31 29.9262C-362.287 29.9436 -362.252 29.9694 -362.205 30.0034C-362.113 30.0715 -361.975 30.1726 -361.792 30.3051C-361.427 30.5702 -360.883 30.9612 -360.168 31.4663C-358.738 32.4765 -356.621 33.9433 -353.872 35.7719C-348.374 39.429 -340.345 44.5339 -330.218 50.3295C-309.966 61.9199 -281.314 76.2769 -247.717 87.3391C-180.534 109.46 -93.49 118.431 -14.3398 65.6239L-14.983 64.6598ZM142.389 46.171C124.292 37.0489 105.79 27.7138 81.3691 27.6669C56.9455 27.62 26.6877 36.8581 -14.983 64.6598L-14.3398 65.6239C27.2233 37.894 57.2562 28.7796 81.3669 28.8259C105.48 28.8722 123.756 38.0762 141.867 47.2059L142.389 46.171ZM268.771 39.863C237.38 59.1252 213.879 64.7481 194.219 63.5604C174.543 62.3717 158.637 54.3615 142.389 46.171L141.867 47.2059C158.091 55.3844 174.2 63.5121 194.149 64.7173C214.115 65.9234 237.851 60.196 269.377 40.8508L268.771 39.863ZM561.83 29.4347C562.065 28.9049 562.064 28.9045 562.063 28.9039C562.062 28.9034 562.06 28.9025 562.057 28.9013C562.052 28.8991 562.044 28.8958 562.034 28.8914C562.015 28.8826 561.985 28.8697 561.946 28.8526C561.867 28.8184 561.751 28.7679 561.597 28.7018C561.288 28.5695 560.83 28.375 560.226 28.125C559.02 27.625 557.235 26.9031 554.917 26.0138C550.28 24.2354 543.511 21.7873 534.974 19.1056C517.9 13.7426 493.748 7.44395 465.43 3.70043C408.802 -3.78563 335.462 -1.06023 268.771 39.863L269.377 40.8508C335.757 0.118274 408.795 -2.61741 465.278 4.84939C493.515 8.58229 517.601 14.8635 534.627 20.2113C543.139 22.8851 549.885 25.3251 554.502 27.0959C556.81 27.9813 558.585 28.6994 559.783 29.1956C560.382 29.4438 560.836 29.6364 561.14 29.7669C561.292 29.8321 561.406 29.8817 561.483 29.915C561.521 29.9316 561.549 29.9441 561.568 29.9524C561.578 29.9565 561.585 29.9596 561.589 29.9617C561.592 29.9627 561.593 29.9634 561.594 29.9639C561.595 29.9644 561.596 29.9646 561.83 29.4347ZM562.41 421.793V29.4347H561.251V421.793H562.41ZM561.832 421.213H561.83V422.372H561.832V421.213ZM562.411 829.728V421.793H561.253V829.728H562.411ZM214.604 793.172C309.757 774.629 396.508 783.9 459.477 797.81C490.96 804.765 516.493 812.878 534.153 819.252C542.983 822.439 549.844 825.19 554.497 827.145C556.823 828.122 558.596 828.899 559.788 829.432C560.383 829.699 560.833 829.904 561.134 830.043C561.284 830.112 561.397 830.165 561.472 830.2C561.51 830.217 561.538 830.23 561.557 830.239C561.566 830.244 561.573 830.247 561.578 830.249C561.58 830.25 561.581 830.251 561.583 830.251C561.584 830.252 561.584 830.252 561.832 829.728C562.08 829.204 562.079 829.204 562.078 829.204C562.077 829.203 562.075 829.202 562.072 829.201C562.067 829.198 562.06 829.195 562.05 829.19C562.03 829.181 562.001 829.168 561.963 829.15C561.886 829.114 561.771 829.06 561.619 828.99C561.314 828.85 560.86 828.643 560.261 828.375C559.062 827.838 557.28 827.057 554.945 826.076C550.276 824.115 543.397 821.356 534.547 818.162C516.847 811.774 491.265 803.645 459.727 796.678C396.652 782.745 309.734 773.453 214.383 792.035L214.604 793.172ZM26.1161 788.01C72.9335 798.12 128.09 810.032 214.604 793.172L214.383 792.035C128.101 808.849 73.1303 796.977 26.3607 786.877L26.1161 788.01ZM-146.931 812.566C-110.636 789.41 -81.4539 780.248 -54.3362 778.374C-27.1992 776.499 -2.08902 781.918 26.1161 788.01L26.3607 786.877C-1.81836 780.791 -27.0886 775.33 -54.4161 777.218C-81.7628 779.107 -111.129 788.35 -147.554 811.589L-146.931 812.566ZM-361.998 829.728C-362.367 830.176 -362.366 830.176 -362.365 830.177C-362.364 830.178 -362.363 830.179 -362.362 830.18C-362.359 830.182 -362.355 830.186 -362.349 830.19C-362.338 830.199 -362.323 830.211 -362.302 830.228C-362.26 830.262 -362.199 830.311 -362.118 830.374C-361.956 830.502 -361.715 830.688 -361.396 830.927C-360.757 831.404 -359.807 832.091 -358.551 832.933C-356.041 834.618 -352.311 836.925 -347.42 839.425C-337.638 844.426 -323.213 850.2 -304.618 853.311C-267.414 859.535 -213.581 855.088 -146.931 812.566L-147.554 811.589C-213.976 853.965 -267.521 858.342 -304.427 852.168C-322.887 849.079 -337.199 843.348 -346.892 838.393C-351.739 835.915 -355.429 833.632 -357.906 831.971C-359.144 831.14 -360.078 830.465 -360.701 829.999C-361.013 829.766 -361.247 829.585 -361.402 829.463C-361.48 829.402 -361.537 829.356 -361.575 829.325C-361.594 829.31 -361.609 829.298 -361.618 829.291C-361.622 829.287 -361.626 829.285 -361.628 829.283C-361.629 829.282 -361.629 829.282 -361.63 829.281C-361.63 829.281 -361.63 829.281 -361.998 829.728ZM-362.578 421.793V829.728H-361.419V421.793H-362.578Z" fill="#4AFF85" mask="url(#path-5-outside-3_8261_143295)"/>
</g>
<defs>
<linearGradient id="paint0_linear_8261_143295" x1="99.8457" y1="217.988" x2="99.8996" y2="795.921" gradientUnits="userSpaceOnUse">
<stop stop-color="#C7FFD8" stop-opacity="0.74"/>
<stop offset="0.0001" stop-color="#B4FFCA" stop-opacity="0.74"/>
<stop offset="0.401042" stop-color="#D7FFF4"/>
<stop offset="0.677083" stop-color="#DBFFE0"/>
<stop offset="1" stop-color="#9AFFA4"/>
</linearGradient>
<linearGradient id="paint1_linear_8261_143295" x1="99.8468" y1="204.598" x2="102.824" y2="823.408" gradientUnits="userSpaceOnUse">
<stop stop-color="#B4FFCA" stop-opacity="0.74"/>
<stop offset="0.0001" stop-color="#B4FFCA" stop-opacity="0.74"/>
<stop offset="0.401042" stop-color="#C8FFF0"/>
<stop offset="0.677083" stop-color="#E7FFEA"/>
<stop offset="1" stop-color="#DFFFDA"/>
</linearGradient>
<linearGradient id="paint2_linear_8261_143295" x1="99.916" y1="193.101" x2="102.95" y2="834.215" gradientUnits="userSpaceOnUse">
<stop stop-color="#B4FFCA" stop-opacity="0.74"/>
<stop offset="0.0001" stop-color="#B4FFCA" stop-opacity="0.74"/>
<stop offset="0.401042" stop-color="#C8FFF0"/>
<stop offset="0.677083" stop-color="#E7FFEA"/>
<stop offset="1" stop-color="#DFFFDA"/>
</linearGradient>
</defs>
</svg>
