<!-- width="834" height="674" -->


<svg preserveAspectRatio="none"  viewBox="0 0 834 674" fill="none" xmlns="http://www.w3.org/2000/svg">
<mask id="path-1-outside-1_6814_151907" maskUnits="userSpaceOnUse" x="-52" y="0" width="937" height="674" fill="black">
<rect fill="white" x="-52" width="937" height="674"/>
<path fill-rule="evenodd" clip-rule="evenodd" d="M-50.9993 332.124H-51V23.3754C-51 23.3754 140.745 134.362 300.532 51.4735C384.771 7.77547 422.569 22.59 459.214 36.9524C492.079 49.8333 524.016 62.3505 587.693 31.9701C722.37 -32.2852 883.984 23.3754 883.984 23.3754V332.124H883.984V653.13C883.984 653.13 725.256 594.703 532.452 623.916C445.011 637.165 389.283 627.808 341.925 619.856C284.86 610.274 239.947 602.732 166.349 639.24C31.6712 706.047 -50.9993 653.13 -50.9993 653.13V332.124Z"/>
</mask>
<path fill-rule="evenodd" clip-rule="evenodd" d="M-50.9993 332.124H-51V23.3754C-51 23.3754 140.745 134.362 300.532 51.4735C384.771 7.77547 422.569 22.59 459.214 36.9524C492.079 49.8333 524.016 62.3505 587.693 31.9701C722.37 -32.2852 883.984 23.3754 883.984 23.3754V332.124H883.984V653.13C883.984 653.13 725.256 594.703 532.452 623.916C445.011 637.165 389.283 627.808 341.925 619.856C284.86 610.274 239.947 602.732 166.349 639.24C31.6712 706.047 -50.9993 653.13 -50.9993 653.13V332.124Z" fill="url(#paint0_linear_6814_151907)"/>
<path d="M-51 332.124H-51.6493V332.773H-51V332.124ZM-50.9993 332.124H-50.35V331.474H-50.9993V332.124ZM-51 23.3754L-50.6747 22.8134L-51.6493 22.2493V23.3754H-51ZM300.532 51.4735L300.233 50.8971L300.532 51.4735ZM459.214 36.9524L458.977 37.557L459.214 36.9524ZM587.693 31.9701L587.972 32.5561L587.693 31.9701ZM883.984 23.3754H884.633V22.9123L884.195 22.7615L883.984 23.3754ZM883.984 332.124H883.334V332.773H883.984V332.124ZM883.984 332.124H884.634V331.474H883.984V332.124ZM883.984 653.13L883.76 653.739L884.634 654.061V653.13H883.984ZM532.452 623.916L532.55 624.558L532.452 623.916ZM341.925 619.856L341.817 620.496L341.925 619.856ZM166.349 639.24L166.638 639.822L166.349 639.24ZM-50.9993 653.13H-51.6486V653.485L-51.3494 653.677L-50.9993 653.13ZM-51 332.773H-50.9993V331.474H-51V332.773ZM-51.6493 23.3754V332.124H-50.3507V23.3754H-51.6493ZM300.233 50.8971C220.542 92.2361 132.844 85.2455 65.0068 67.8784C31.0954 59.1968 2.16892 47.9275 -18.2792 38.8286C-28.5028 34.2794 -36.6055 30.2734 -42.1506 27.4057C-44.9231 25.9719 -47.0562 24.8226 -48.4951 24.0325C-49.2145 23.6374 -49.7604 23.332 -50.126 23.1258C-50.3088 23.0226 -50.4465 22.9443 -50.5382 22.8918C-50.5841 22.8656 -50.6185 22.8459 -50.6412 22.8327C-50.6526 22.8262 -50.6611 22.8213 -50.6667 22.8181C-50.6695 22.8165 -50.6715 22.8153 -50.6729 22.8145C-50.6742 22.8138 -50.6747 22.8134 -51 23.3754C-51.3253 23.9373 -51.3243 23.9379 -51.3227 23.9388C-51.3212 23.9397 -51.3188 23.9411 -51.3157 23.9428C-51.3097 23.9464 -51.3007 23.9515 -51.2888 23.9584C-51.2649 23.9721 -51.2295 23.9924 -51.1826 24.0192C-51.0888 24.0728 -50.9491 24.1524 -50.7642 24.2567C-50.3944 24.4654 -49.8441 24.7731 -49.1201 25.1707C-47.6723 25.9658 -45.5297 27.1201 -42.7471 28.5592C-37.1821 31.4372 -29.0564 35.4544 -18.8072 40.0151C1.69014 49.1358 30.6865 60.4326 64.6847 69.1365C132.666 86.5404 220.735 93.5989 300.831 52.0498L300.233 50.8971ZM459.451 36.3479C441.131 29.1676 422.417 21.8279 397.722 21.791C373.026 21.7541 342.412 29.0169 300.233 50.8971L300.831 52.0498C342.89 30.232 373.295 23.0531 397.72 23.0896C422.144 23.1261 440.652 30.3749 458.977 37.557L459.451 36.3479ZM587.413 31.3841C555.646 46.5401 531.85 50.9713 511.929 50.0356C491.998 49.0995 475.891 42.7912 459.451 36.3479L458.977 37.557C475.402 43.9945 491.696 50.3853 511.868 51.3328C532.052 52.2808 556.062 47.7805 587.972 32.5561L587.413 31.3841ZM883.984 23.3754C884.195 22.7615 884.194 22.7612 884.193 22.7607C884.192 22.7603 884.19 22.7596 884.187 22.7587C884.182 22.7569 884.174 22.7543 884.164 22.7509C884.144 22.744 884.114 22.7338 884.075 22.7204C883.995 22.6935 883.877 22.6538 883.721 22.6017C883.409 22.4977 882.945 22.3447 882.335 22.148C881.114 21.7546 879.308 21.1867 876.962 20.487C872.27 19.0877 865.421 17.1616 856.781 15.0517C839.503 10.832 815.063 5.87638 786.409 2.93112C729.111 -2.95822 654.903 -0.815604 587.413 31.3841L587.972 32.5561C655.16 0.500515 729.097 -1.65422 786.276 4.2229C814.859 7.16088 839.24 12.1045 856.473 16.3132C865.089 18.4174 871.918 20.3378 876.591 21.7314C878.927 22.4283 880.724 22.9934 881.937 23.384C882.543 23.5793 883.003 23.731 883.311 23.8336C883.464 23.885 883.58 23.924 883.658 23.9502C883.696 23.9633 883.725 23.9732 883.744 23.9797C883.754 23.983 883.761 23.9854 883.766 23.987C883.768 23.9878 883.77 23.9884 883.771 23.9888C883.772 23.9891 883.772 23.9893 883.984 23.3754ZM884.633 332.124V23.3754H883.334V332.124H884.633ZM883.984 331.474H883.984V332.773H883.984V331.474ZM884.634 653.13V332.124H883.335V653.13H884.634ZM532.55 624.558C628.864 609.965 716.675 617.261 780.41 628.208C812.276 633.681 838.12 640.066 855.995 645.082C864.932 647.59 871.877 649.756 876.586 651.294C878.94 652.063 880.736 652.675 881.941 653.094C882.544 653.304 883 653.465 883.304 653.574C883.456 653.629 883.571 653.67 883.647 653.698C883.685 653.712 883.714 653.722 883.732 653.729C883.742 653.733 883.749 653.735 883.753 653.737C883.756 653.738 883.757 653.738 883.759 653.739C883.76 653.739 883.76 653.739 883.984 653.13C884.209 652.521 884.208 652.52 884.207 652.52C884.205 652.519 884.203 652.519 884.201 652.518C884.196 652.516 884.188 652.513 884.178 652.509C884.159 652.502 884.129 652.492 884.09 652.477C884.012 652.449 883.896 652.407 883.742 652.352C883.434 652.242 882.975 652.079 882.368 651.868C881.155 651.445 879.352 650.831 876.989 650.059C872.264 648.516 865.302 646.345 856.346 643.832C838.434 638.806 812.546 632.41 780.63 626.928C716.8 615.965 628.844 608.654 532.355 623.274L532.55 624.558ZM341.817 620.496C389.197 628.452 445.006 637.823 532.55 624.558L532.355 623.274C445.016 636.508 389.369 627.164 342.032 619.215L341.817 620.496ZM166.638 639.822C203.368 621.602 232.91 614.388 260.372 612.913C287.85 611.437 313.274 615.703 341.817 620.496L342.032 619.215C313.51 614.426 287.946 610.131 260.302 611.616C232.642 613.102 202.928 620.371 166.06 638.659L166.638 639.822ZM-50.9993 653.13C-51.3494 653.677 -51.3487 653.677 -51.3477 653.678C-51.347 653.678 -51.3457 653.679 -51.3442 653.68C-51.3412 653.682 -51.3369 653.685 -51.3314 653.688C-51.3204 653.695 -51.3044 653.705 -51.2833 653.718C-51.2411 653.745 -51.1788 653.783 -51.0966 653.834C-50.9321 653.934 -50.6878 654.081 -50.3645 654.269C-49.7178 654.645 -48.7553 655.186 -47.4844 655.849C-44.9425 657.175 -41.167 658.99 -36.2176 660.958C-26.3187 664.892 -11.7238 669.434 7.08689 671.881C44.7159 676.776 99.1827 673.283 166.638 639.822L166.06 638.659C98.8375 672.004 44.6301 675.456 7.2544 670.594C-11.4372 668.162 -25.9274 663.65 -35.7379 659.751C-40.6432 657.801 -44.3784 656.004 -46.8837 654.698C-48.1364 654.044 -49.0815 653.513 -49.7116 653.147C-50.0267 652.963 -50.2629 652.821 -50.4195 652.726C-50.4978 652.678 -50.5562 652.642 -50.5945 652.618C-50.6137 652.606 -50.6279 652.597 -50.637 652.591C-50.6416 652.588 -50.6449 652.586 -50.6469 652.585C-50.6479 652.584 -50.6485 652.583 -50.6491 652.583C-50.6493 652.583 -50.6493 652.583 -50.9993 653.13ZM-51.6486 332.124V653.13H-50.35V332.124H-51.6486Z" fill="#4AFF85" mask="url(#path-1-outside-1_6814_151907)"/>
<defs>
<linearGradient id="paint0_linear_6814_151907" x1="416.492" y1="152.165" x2="416.527" y2="642.423" gradientUnits="userSpaceOnUse">
<stop stop-color="#C7FFD8" stop-opacity="0.74"/>
<stop offset="0.0001" stop-color="#B4FFCA" stop-opacity="0.74"/>
<stop offset="0.401042" stop-color="#D7FFF4"/>
<stop offset="0.677083" stop-color="#DBFFE0"/>
<stop offset="1" stop-color="#9AFFA4"/>
</linearGradient>
</defs>
</svg>
