<svg width="111" height="181" viewBox="0 0 111 181" fill="none" xmlns="http://www.w3.org/2000/svg">
<g opacity="0.3">
<path d="M102.938 158.891L52.5 106.391V91.3906H78.75C85.375 91.3906 91.095 89.2331 95.91 84.9181C100.72 80.6081 103.625 75.2656 104.625 68.8906H45V53.8906H102.375C100.25 49.5156 97.095 45.9206 92.91 43.1056C88.72 40.2956 84 38.8906 78.75 38.8906H45V23.8906H135V38.8906H110.625C112.375 41.0156 113.938 43.3281 115.312 45.8281C116.688 48.3281 117.75 51.0156 118.5 53.8906H135V68.8906H119.812C118.812 79.5156 114.438 88.4206 106.688 95.6056C98.9375 102.796 89.625 106.391 78.75 106.391H73.3125L123.75 158.891H102.938Z" fill="#00A547"/>
</g>
</svg>
