<svg width="111" height="180" viewBox="0 0 111 180" fill="none" xmlns="http://www.w3.org/2000/svg">
<g opacity="0.3">
<path d="M112.5 138.75C93.75 138.75 77.4 128.1 69.3 112.5H112.5L120 97.5H64.35C63.975 95.025 63.75 92.55 63.75 90C63.75 87.45 63.975 84.975 64.35 82.5H112.5L120 67.5H69.3C73.4074 59.5889 79.6081 52.9574 87.2259 48.3285C94.8437 43.6996 103.586 41.2511 112.5 41.25C124.575 41.25 135.675 45.675 144.225 53.025L157.5 39.75C145.151 28.631 129.117 22.485 112.5 22.5C83.1 22.5 58.2 41.25 48.75 67.5H22.5L15 82.5H45.45C45 84.975 45 87.45 45 90C45 92.55 45 95.025 45.45 97.5H22.5L15 112.5H48.75C58.2 138.75 83.1 157.5 112.5 157.5C129.825 157.5 145.575 150.975 157.5 140.25L144.15 126.975C135.675 134.325 124.65 138.75 112.5 138.75Z" fill="#00A547"/>
</g>
</svg>
