<!-- width="365" height="441" -->

<svg preserveAspectRatio="none"  viewBox="0 0 365 441" fill="none" xmlns="http://www.w3.org/2000/svg">
<path d="M334.793 216.264C334.793 335.26 271.479 441 187.971 441C104.463 441 16 273.504 16 154.508C35.4773 13.9116 121.954 91.2559 267.409 12.3581C374.526 -45.744 334.793 114.312 334.793 216.264Z" fill="url(#paint0_linear_6790_187657)"/>
<mask id="mask0_6790_187657" style="mask-type:alpha" maskUnits="userSpaceOnUse" x="0" y="121" width="365" height="320">
<path d="M337.51 297.594C337.51 374.826 280.43 440.99 194.78 440.99C109.13 440.99 -50.7133 409.446 15.7769 231.231C35.7537 139.98 133.267 198.365 280.471 131.209C428.063 82.3897 337.51 220.363 337.51 297.594Z" fill="url(#paint1_linear_6790_187657)"/>
</mask>
<g mask="url(#mask0_6790_187657)">
<g filter="url(#filter0_d_6790_187657)">
<path d="M220.944 381.017C223.265 374.816 228.75 369.458 235.378 368.82C231.393 374.828 229.675 382.043 230.529 389.187C230.868 391.942 231.534 394.97 230.039 397.314C229.109 398.773 227.471 399.671 225.782 400.076C224.092 400.481 222.332 400.45 220.595 400.416L220.206 400.607C218.984 394.103 218.622 387.218 220.944 381.017Z" fill="#F0F0F0"/>
<path d="M235.409 368.947C230.89 372.083 227.481 376.554 225.666 381.725C225.284 382.835 224.993 383.995 224.977 385.173C224.969 386.323 225.272 387.453 225.853 388.447C226.375 389.384 227.02 390.283 227.304 391.33C227.604 392.434 227.359 393.551 226.747 394.505C225.998 395.672 224.871 396.502 223.741 397.275C222.486 398.134 221.169 399.007 220.401 400.356C220.308 400.519 220.058 400.366 220.151 400.203C221.487 397.856 224.291 397.003 226.006 395.009C226.806 394.079 227.329 392.903 227.081 391.664C226.865 390.58 226.202 389.653 225.664 388.708C225.099 387.717 224.73 386.687 224.687 385.54C224.643 384.366 224.889 383.193 225.241 382.078C226.058 379.555 227.269 377.176 228.829 375.028C230.597 372.565 232.775 370.422 235.27 368.69C235.425 368.582 235.562 368.84 235.409 368.947V368.947Z" fill="white"/>
<path d="M226.155 380.036C225.323 379.615 224.668 378.915 224.308 378.06C223.948 377.204 223.906 376.249 224.189 375.366C224.247 375.187 224.529 375.268 224.471 375.447C224.206 376.269 224.246 377.159 224.582 377.955C224.919 378.75 225.531 379.401 226.308 379.787C226.477 379.872 226.322 380.12 226.155 380.036Z" fill="white"/>
<path d="M225.528 388.01C227.347 387.439 228.882 386.208 229.829 384.562C229.922 384.399 230.172 384.552 230.079 384.715C229.091 386.426 227.49 387.704 225.596 388.294C225.415 388.35 225.348 388.066 225.528 388.01V388.01Z" fill="white"/>
<path d="M230.802 372.904C231.09 373.133 231.43 373.288 231.793 373.354C232.156 373.421 232.529 373.396 232.88 373.283C233.06 373.225 233.127 373.509 232.949 373.567C232.56 373.69 232.147 373.716 231.746 373.644C231.346 373.572 230.968 373.403 230.648 373.153C230.616 373.131 230.593 373.099 230.584 373.062C230.575 373.024 230.581 372.985 230.6 372.952C230.621 372.919 230.653 372.896 230.691 372.887C230.729 372.878 230.769 372.884 230.802 372.904V372.904Z" fill="white"/>
<path d="M251.354 384.621C251.243 384.661 251.132 384.701 251.02 384.743C249.527 385.283 248.081 385.943 246.696 386.715C246.588 386.774 246.48 386.834 246.374 386.895C243.057 388.792 240.123 391.285 237.722 394.246C236.768 395.426 235.905 396.675 235.142 397.985C234.087 399.793 233.089 401.837 231.541 403.154C231.381 403.294 231.212 403.423 231.036 403.542L220.471 401.058C220.45 401.04 220.428 401.025 220.407 401.007L219.98 400.927C220.015 400.857 220.053 400.785 220.087 400.715C220.107 400.674 220.129 400.633 220.149 400.593C220.163 400.566 220.177 400.539 220.189 400.513C220.193 400.504 220.198 400.495 220.202 400.489C220.213 400.463 220.226 400.441 220.237 400.418C220.445 400.015 220.656 399.612 220.871 399.209C220.871 399.207 220.871 399.207 220.874 399.205C222.517 396.144 224.432 393.193 226.736 390.624C226.805 390.547 226.875 390.467 226.949 390.391C227.995 389.239 229.133 388.173 230.353 387.205C231.022 386.677 231.719 386.183 232.439 385.725C234.301 384.546 236.339 383.664 238.477 383.114C242.74 382.017 247.308 382.287 251.069 384.453C251.165 384.509 251.259 384.564 251.354 384.621Z" fill="#F0F0F0"/>
<path d="M251.296 384.751C245.788 384.552 240.357 386.083 235.774 389.126C234.796 389.783 233.862 390.535 233.134 391.467C232.432 392.38 231.989 393.463 231.85 394.604C231.7 395.665 231.669 396.768 231.262 397.775C230.832 398.835 229.96 399.581 228.893 399.976C227.588 400.46 226.185 400.448 224.814 400.39C223.292 400.325 221.712 400.234 220.281 400.852C220.108 400.927 220.001 400.655 220.174 400.58C222.663 399.505 225.418 400.501 227.996 399.935C229.199 399.671 230.329 399.045 230.882 397.908C231.366 396.913 231.398 395.776 231.541 394.7C231.691 393.57 232.02 392.528 232.682 391.586C233.358 390.622 234.264 389.833 235.221 389.153C237.402 387.627 239.81 386.452 242.359 385.67C245.262 384.762 248.3 384.353 251.342 384.463C251.53 384.47 251.483 384.758 251.296 384.751L251.296 384.751Z" fill="white"/>
<path d="M237.192 388.065C236.782 387.232 236.684 386.281 236.915 385.383C237.146 384.484 237.691 383.697 238.453 383.161C238.607 383.053 238.783 383.286 238.628 383.394C237.918 383.892 237.411 384.626 237.198 385.463C236.984 386.3 237.079 387.185 237.465 387.959C237.549 388.127 237.275 388.232 237.192 388.065V388.065Z" fill="white"/>
<path d="M231.856 394.052C233.655 394.685 235.627 394.62 237.38 393.872C237.553 393.798 237.66 394.069 237.487 394.144C235.661 394.919 233.609 394.982 231.739 394.319C231.56 394.256 231.679 393.989 231.856 394.052Z" fill="white"/>
<path d="M245.223 385.139C245.314 385.494 245.492 385.822 245.742 386.092C245.992 386.361 246.305 386.566 246.653 386.685C246.832 386.746 246.713 387.013 246.536 386.953C246.151 386.818 245.806 386.593 245.529 386.295C245.253 385.997 245.054 385.637 244.95 385.246C244.937 385.21 244.939 385.17 244.954 385.135C244.97 385.1 244.998 385.072 245.033 385.057C245.07 385.043 245.11 385.044 245.145 385.059C245.181 385.075 245.209 385.103 245.223 385.139V385.139Z" fill="white"/>
<path d="M159.729 437.862C153.681 435.094 148.717 429.255 148.578 422.641C154.307 427.042 161.417 429.289 168.652 428.983C171.442 428.855 174.532 428.424 176.771 430.081C178.165 431.113 178.943 432.804 179.222 434.508C179.501 436.212 179.336 437.954 179.171 439.672L179.333 440.072C172.714 440.792 165.777 440.63 159.729 437.862Z" fill="#F0F0F0"/>
<path d="M148.717 422.608C151.523 427.321 155.753 431.036 160.805 433.225C161.891 433.687 163.032 434.063 164.214 434.168C165.367 434.262 166.524 434.048 167.565 433.548C168.545 433.1 169.496 432.53 170.569 432.327C171.699 432.114 172.802 432.44 173.713 433.119C174.827 433.949 175.575 435.128 176.266 436.306C177.033 437.615 177.809 438.985 179.106 439.848C179.263 439.952 179.09 440.188 178.933 440.084C176.678 438.583 176.034 435.741 174.163 433.892C173.289 433.029 172.149 432.422 170.887 432.573C169.783 432.706 168.802 433.293 167.814 433.754C166.775 434.239 165.715 434.527 164.56 434.482C163.378 434.437 162.22 434.106 161.127 433.673C158.657 432.673 156.361 431.294 154.322 429.585C151.985 427.648 149.998 425.328 148.448 422.725C148.352 422.564 148.621 422.448 148.717 422.608H148.717Z" fill="white"/>
<path d="M159.139 432.618C158.654 433.411 157.902 434.006 157.016 434.298C156.13 434.59 155.169 434.56 154.303 434.213C154.129 434.142 154.231 433.869 154.406 433.94C155.211 434.264 156.107 434.292 156.931 434.019C157.756 433.745 158.454 433.188 158.901 432.447C158.998 432.286 159.236 432.458 159.139 432.618Z" fill="white"/>
<path d="M167.098 433.839C166.662 431.993 165.543 430.379 163.962 429.317C163.806 429.212 163.978 428.976 164.134 429.081C165.777 430.189 166.939 431.871 167.388 433.793C167.43 433.976 167.14 434.021 167.098 433.839Z" fill="white"/>
<path d="M152.33 427.481C152.582 427.213 152.763 426.888 152.857 426.533C152.951 426.179 152.955 425.807 152.868 425.451C152.823 425.268 153.113 425.223 153.158 425.405C153.252 425.799 153.247 426.209 153.144 426.601C153.041 426.993 152.844 427.354 152.568 427.652C152.544 427.683 152.51 427.703 152.472 427.709C152.434 427.715 152.395 427.706 152.363 427.685C152.332 427.662 152.311 427.628 152.305 427.59C152.298 427.552 152.308 427.513 152.33 427.481Z" fill="white"/>
<path d="M165.648 407.992C165.68 408.105 165.711 408.219 165.745 408.333C166.174 409.852 166.727 411.334 167.398 412.765C167.448 412.876 167.501 412.989 167.554 413.098C169.208 416.528 171.488 419.622 174.278 422.225C175.39 423.259 176.579 424.208 177.835 425.064C179.57 426.245 181.546 427.388 182.752 429.022C182.879 429.191 182.996 429.367 183.102 429.551L179.812 439.83C179.792 439.85 179.775 439.87 179.756 439.89L179.643 440.307C179.576 440.267 179.506 440.224 179.438 440.185C179.399 440.162 179.36 440.137 179.32 440.114C179.294 440.098 179.268 440.082 179.244 440.069C179.235 440.064 179.226 440.059 179.22 440.054C179.196 440.041 179.174 440.027 179.152 440.014C178.763 439.778 178.374 439.538 177.987 439.295C177.984 439.294 177.984 439.294 177.983 439.291C175.035 437.432 172.217 435.313 169.813 432.836C169.741 432.761 169.666 432.686 169.595 432.607C168.518 431.484 167.535 430.276 166.655 428.994C166.176 428.291 165.733 427.564 165.328 426.816C164.285 424.882 163.554 422.796 163.163 420.636C162.384 416.33 163 411.824 165.458 408.263C165.521 408.171 165.583 408.083 165.648 407.992Z" fill="#F0F0F0"/>
<path d="M165.773 408.06C165.157 413.502 166.283 418.998 168.991 423.768C169.577 424.787 170.261 425.769 171.141 426.561C172.004 427.325 173.058 427.846 174.193 428.07C175.246 428.299 176.351 428.412 177.33 428.892C178.362 429.398 179.045 430.318 179.361 431.405C179.748 432.735 179.63 434.123 179.468 435.477C179.288 436.981 179.077 438.539 179.589 440.004C179.652 440.181 179.371 440.266 179.309 440.089C178.418 437.542 179.626 434.888 179.252 432.291C179.078 431.079 178.535 429.913 177.435 429.279C176.474 428.724 175.335 428.606 174.266 428.383C173.143 428.149 172.122 427.744 171.227 427.018C170.311 426.276 169.586 425.318 168.976 424.319C167.61 422.043 166.613 419.568 166.02 416.984C165.328 414.039 165.147 410.998 165.487 407.993C165.508 407.807 165.794 407.875 165.773 408.06V408.06Z" fill="white"/>
<path d="M168.027 422.289C167.16 422.632 166.198 422.657 165.314 422.361C164.43 422.064 163.68 421.465 163.2 420.67C163.103 420.509 163.351 420.352 163.447 420.513C163.894 421.254 164.592 421.812 165.415 422.087C166.239 422.361 167.135 422.334 167.941 422.01C168.116 421.94 168.201 422.219 168.027 422.289Z" fill="white"/>
<path d="M173.643 428.029C174.413 426.295 174.498 424.336 173.879 422.543C173.818 422.365 174.098 422.28 174.16 422.457C174.8 424.324 174.708 426.363 173.902 428.165C173.825 428.337 173.566 428.2 173.643 428.029Z" fill="white"/>
<path d="M165.709 414.114C166.072 414.05 166.414 413.899 166.704 413.672C166.994 413.445 167.222 413.15 167.369 412.814C167.443 412.641 167.702 412.779 167.628 412.95C167.464 413.321 167.211 413.646 166.892 413.898C166.572 414.149 166.196 414.319 165.795 414.392C165.758 414.402 165.718 414.398 165.684 414.38C165.65 414.362 165.624 414.332 165.612 414.296C165.601 414.259 165.604 414.219 165.623 414.185C165.641 414.151 165.672 414.125 165.709 414.114Z" fill="white"/>
<path d="M173.655 401.306C168.311 396.079 166.054 390.625 167.299 385.95C168.898 379.951 175.999 375.803 186.782 374.57L186.822 374.914C176.189 376.13 169.196 380.185 167.636 386.039C166.424 390.589 168.649 395.923 173.9 401.059L173.655 401.306Z" fill="#F0F0F0"/>
<path d="M225.22 419.858C218.55 419.858 211.301 418.873 204.102 416.979C195.198 414.637 187.035 411.102 180.494 406.757L180.688 406.469C187.197 410.793 195.325 414.312 204.191 416.644C212.204 418.752 220.276 419.729 227.533 419.471L227.546 419.817C226.779 419.844 226.004 419.858 225.22 419.858Z" fill="#F0F0F0"/>
<path d="M235.325 416.444L235.214 416.116C241.179 414.112 244.911 410.884 246.004 406.78C247.394 401.563 244.374 395.509 237.501 389.733C230.592 383.928 220.63 379.112 209.449 376.171L209.538 375.836C220.768 378.79 230.779 383.631 237.726 389.469C244.708 395.336 247.768 401.515 246.341 406.869C245.216 411.09 241.407 414.401 235.325 416.444Z" fill="#F0F0F0"/>
<path d="M185.745 420.001C172.638 414.226 162.539 406.733 157.307 398.903L157.597 398.711C162.793 406.487 172.839 413.936 185.886 419.685L185.745 420.001Z" fill="#F0F0F0"/>
<path d="M231.828 430.001C230.476 430.001 229.101 429.971 227.703 429.911L227.718 429.565C238.151 430.014 247.357 428.773 254.341 425.977L254.471 426.298C248.379 428.737 240.613 430.001 231.828 430.001Z" fill="#F0F0F0"/>
<path d="M224.221 374.876C222.055 374.175 219.827 373.522 217.598 372.936C204.776 369.563 192.171 368.366 181.146 369.474L181.111 369.129C192.177 368.018 204.825 369.218 217.687 372.601C219.922 373.189 222.157 373.843 224.329 374.546L224.221 374.876Z" fill="#F0F0F0"/>
<path d="M165.464 401.822C160.12 396.594 157.862 391.141 159.108 386.466C160.706 380.467 167.808 376.319 178.591 375.086L178.631 375.43C167.998 376.646 161.005 380.701 159.445 386.555C158.233 391.104 160.457 396.439 165.709 401.575L165.464 401.822Z" fill="#F0F0F0"/>
<path d="M217.029 420.366C210.358 420.366 203.11 419.381 195.91 417.487C187.007 415.145 178.844 411.61 172.303 407.264L172.496 406.977C179.006 411.301 187.133 414.82 196 417.152C204.012 419.26 212.085 420.236 219.342 419.979L219.354 420.325C218.588 420.352 217.813 420.366 217.029 420.366Z" fill="#F0F0F0"/>
<path d="M232.333 418.194L232.222 417.866C238.187 415.862 241.918 412.634 243.012 408.53C244.402 403.313 241.382 397.259 234.509 391.483C227.6 385.678 217.638 380.862 206.457 377.921L206.546 377.586C217.776 380.54 227.787 385.381 234.734 391.219C241.716 397.086 244.775 403.265 243.349 408.619C242.224 412.84 238.415 416.151 232.333 418.194Z" fill="#F0F0F0"/>
<path d="M223.635 427.298C222.283 427.298 220.908 427.268 219.51 427.208L219.525 426.862C229.958 427.31 239.163 426.07 246.148 423.273L246.278 423.595C240.185 426.034 232.42 427.298 223.635 427.298Z" fill="#F0F0F0"/>
<path d="M216.03 375.391C213.863 374.69 211.635 374.038 209.407 373.452C196.584 370.079 183.98 368.882 172.955 369.989L172.92 369.645C183.986 368.533 196.634 369.734 209.496 373.117C211.731 373.705 213.965 374.359 216.138 375.062L216.03 375.391Z" fill="#F0F0F0"/>
<path d="M181.401 401.109C180.685 401.11 179.998 401.393 179.492 401.896C178.985 402.4 178.701 403.082 178.7 403.793C177.673 411.307 177.33 418.897 177.675 426.472C177.695 426.955 177.718 427.398 177.744 427.825C177.783 428.529 177.831 429.273 177.889 430.036C177.922 430.487 177.957 430.938 177.995 431.388C178.059 432.121 178.13 432.866 178.204 433.601C178.251 434.051 178.3 434.503 178.352 434.952C178.452 435.836 178.566 436.742 178.699 437.721C178.698 438.435 178.982 439.12 179.488 439.625C179.995 440.131 180.683 440.415 181.401 440.417H226.714C227.431 440.416 228.117 440.133 228.624 439.63C229.13 439.127 229.415 438.445 229.416 437.733L229.418 437.714C229.62 436.801 229.808 435.87 229.977 434.947C230.067 434.46 230.145 434.018 230.215 433.596C230.342 432.827 230.455 432.083 230.551 431.384C230.616 430.914 230.676 430.46 230.727 430.033C230.811 429.333 230.888 428.61 230.96 427.822C231 427.393 231.036 426.951 231.072 426.47V426.469C231.626 418.877 231.069 411.245 229.418 403.812L229.416 403.793C229.415 403.082 229.13 402.4 228.624 401.896C228.117 401.393 227.431 401.11 226.714 401.109L181.401 401.109Z" fill="#305344"/>
<path d="M205.818 412.592C196 412.592 185.596 411.705 171.98 409.932H171.978C171.272 409.931 170.592 409.671 170.067 409.202C169.542 408.733 169.209 408.089 169.133 407.391C169.121 407.286 169.115 407.181 169.115 407.075V398.937C169.115 398.919 169.116 398.902 169.118 398.885C169.133 398.137 169.442 397.425 169.979 396.901C170.516 396.376 171.238 396.082 171.991 396.08C195.68 392.879 210.071 392.88 236.137 396.08H236.139C236.891 396.085 237.611 396.382 238.146 396.908C238.681 397.434 238.988 398.147 239.001 398.894C239.002 398.908 239.003 398.923 239.002 398.937V407.075C239.003 407.181 238.997 407.287 238.984 407.392C238.907 408.091 238.573 408.737 238.045 409.206C237.518 409.675 236.834 409.934 236.127 409.933C224.865 411.705 215.634 412.592 205.818 412.592Z" fill="#F9D126"/>
<path d="M207.393 418.257H201.436C200.678 418.256 199.951 417.956 199.415 417.423C198.879 416.891 198.577 416.169 198.576 415.415V393.912C198.577 393.158 198.879 392.436 199.415 391.904C199.951 391.371 200.678 391.071 201.436 391.07H207.393C208.151 391.071 208.878 391.371 209.414 391.903C209.951 392.436 210.252 393.158 210.253 393.912V415.415C210.252 416.169 209.951 416.891 209.414 417.423C208.878 417.956 208.151 418.256 207.393 418.257Z" fill="#EA5455"/>
<path d="M220.921 386.963C220.878 386.56 220.802 386.161 220.694 385.77C220.578 385.379 220.43 384.997 220.253 384.628C219.617 383.273 218.545 382.167 217.206 381.486C215.545 380.673 213.644 380.606 211.857 380.998C210.356 381.332 208.945 381.988 207.725 382.92C207.093 383.394 206.515 383.935 206.002 384.535C205.472 385.166 204.488 386.9 204.417 387.06C203.86 385.805 203.061 384.669 202.065 383.718C200.908 382.627 199.526 381.797 198.015 381.286C197.211 381.017 196.377 380.849 195.532 380.785C194.638 380.711 193.737 380.789 192.869 381.016C191.31 381.45 189.961 382.429 189.072 383.773C188.225 385.023 187.809 386.512 187.886 388.017C187.929 388.777 188.094 389.525 188.375 390.233C188.525 390.616 188.703 390.988 188.908 391.345C189.12 391.698 189.358 392.036 189.618 392.355C190.64 393.601 192.016 394.512 193.567 394.968C195.222 395.476 196.979 395.493 198.681 395.254C200.429 395.009 202.112 394.447 203.759 393.831C203.979 393.749 204.197 393.664 204.416 393.58C205.88 394.14 207.357 394.68 208.889 395.022C210.613 395.436 212.402 395.507 214.154 395.232C215.787 394.966 217.305 394.229 218.52 393.113C219.644 392.062 220.431 390.704 220.782 389.211C220.955 388.475 221.002 387.715 220.921 386.963ZM198.226 393.581C197.281 393.702 196.325 393.707 195.379 393.598C194.701 393.5 194.036 393.324 193.399 393.074C191.897 392.453 190.699 391.271 190.063 389.783C189.873 389.314 189.737 388.825 189.659 388.325C189.609 387.88 189.609 387.432 189.659 386.987C189.733 386.519 189.86 386.061 190.037 385.621C190.229 385.194 190.468 384.789 190.748 384.412C191.02 384.076 191.327 383.769 191.665 383.497C191.985 383.262 192.329 383.062 192.692 382.899C193.125 382.731 193.576 382.612 194.035 382.542C194.658 382.474 195.287 382.479 195.908 382.557C196.648 382.67 197.371 382.869 198.065 383.148C198.803 383.466 199.5 383.87 200.142 384.351C200.736 384.819 201.275 385.352 201.747 385.941C202.215 386.559 202.607 387.23 202.916 387.94C203.216 388.681 203.426 389.455 203.543 390.245L203.545 390.256C203.499 390.653 203.476 391.052 203.476 391.452C203.477 391.606 203.483 391.76 203.491 391.913C203.418 391.984 203.356 392.066 203.31 392.156C202.096 392.629 200.851 393.021 199.585 393.33C199.136 393.433 198.683 393.517 198.226 393.581ZM219.178 388.325C219.1 388.825 218.964 389.314 218.774 389.783C218.141 391.273 216.942 392.456 215.438 393.074C214.8 393.324 214.136 393.5 213.458 393.598C212.51 393.707 211.552 393.702 210.605 393.581C208.924 393.342 207.302 392.814 205.715 392.226C205.65 392.202 205.585 392.176 205.52 392.152C205.476 392.063 205.417 391.982 205.346 391.912C205.374 391.354 205.357 390.795 205.294 390.24C205.411 389.452 205.622 388.68 205.921 387.94C206.229 387.23 206.622 386.559 207.09 385.941C207.562 385.352 208.101 384.819 208.695 384.351C209.337 383.87 210.034 383.466 210.772 383.148C211.465 382.869 212.189 382.67 212.929 382.557C213.55 382.479 214.179 382.474 214.801 382.542C215.261 382.612 215.712 382.731 216.145 382.899C216.508 383.062 216.852 383.262 217.172 383.497C217.509 383.769 217.817 384.076 218.089 384.412C218.369 384.789 218.608 385.194 218.8 385.621C218.977 386.061 219.104 386.519 219.178 386.987C219.228 387.432 219.228 387.88 219.178 388.325Z" fill="#EA5455"/>
<path d="M186.286 419.211C186.863 419.211 187.332 418.746 187.332 418.172C187.332 417.598 186.863 417.133 186.286 417.133C185.708 417.133 185.24 417.598 185.24 418.172C185.24 418.746 185.708 419.211 186.286 419.211Z" fill="#F9D126"/>
<path d="M193.776 416.609C194.354 416.609 194.822 416.144 194.822 415.57C194.822 414.996 194.354 414.531 193.776 414.531C193.199 414.531 192.73 414.996 192.73 415.57C192.73 416.144 193.199 416.609 193.776 416.609Z" fill="#F9D126"/>
<path d="M190.468 424.734C191.045 424.734 191.513 424.269 191.513 423.695C191.513 423.121 191.045 422.656 190.468 422.656C189.89 422.656 189.422 423.121 189.422 423.695C189.422 424.269 189.89 424.734 190.468 424.734Z" fill="#F9D126"/>
<path d="M221.487 419.211C222.065 419.211 222.533 418.746 222.533 418.172C222.533 417.598 222.065 417.133 221.487 417.133C220.91 417.133 220.441 417.598 220.441 418.172C220.441 418.746 220.91 419.211 221.487 419.211Z" fill="#F9D126"/>
<path d="M213.995 416.609C214.572 416.609 215.041 416.144 215.041 415.57C215.041 414.996 214.572 414.531 213.995 414.531C213.417 414.531 212.949 414.996 212.949 415.57C212.949 416.144 213.417 416.609 213.995 416.609Z" fill="#F9D126"/>
<path d="M217.305 424.734C217.883 424.734 218.351 424.269 218.351 423.695C218.351 423.121 217.883 422.656 217.305 422.656C216.728 422.656 216.26 423.121 216.26 423.695C216.26 424.269 216.728 424.734 217.305 424.734Z" fill="#F9D126"/>
<path d="M222.36 437.39C222.938 437.39 223.406 436.925 223.406 436.351C223.406 435.778 222.938 435.312 222.36 435.312C221.783 435.312 221.314 435.778 221.314 436.351C221.314 436.925 221.783 437.39 222.36 437.39Z" fill="#F9D126"/>
<path d="M224.973 429.945C225.551 429.945 226.019 429.48 226.019 428.906C226.019 428.332 225.551 427.867 224.973 427.867C224.396 427.867 223.928 428.332 223.928 428.906C223.928 429.48 224.396 429.945 224.973 429.945Z" fill="#F9D126"/>
<path d="M216.782 433.219C217.36 433.219 217.828 432.753 217.828 432.18C217.828 431.606 217.36 431.141 216.782 431.141C216.205 431.141 215.736 431.606 215.736 432.18C215.736 432.753 216.205 433.219 216.782 433.219Z" fill="#F9D126"/>
<path d="M192.38 437.39C192.957 437.39 193.425 436.925 193.425 436.351C193.425 435.778 192.957 435.312 192.38 435.312C191.802 435.312 191.334 435.778 191.334 436.351C191.334 436.925 191.802 437.39 192.38 437.39Z" fill="#F9D126"/>
<path d="M194.997 429.945C195.574 429.945 196.043 429.48 196.043 428.906C196.043 428.332 195.574 427.867 194.997 427.867C194.419 427.867 193.951 428.332 193.951 428.906C193.951 429.48 194.419 429.945 194.997 429.945Z" fill="#F9D126"/>
<path d="M186.803 433.219C187.381 433.219 187.849 432.753 187.849 432.18C187.849 431.606 187.381 431.141 186.803 431.141C186.226 431.141 185.758 431.606 185.758 432.18C185.758 432.753 186.226 433.219 186.803 433.219Z" fill="#F9D126"/>
<path d="M216.848 364.008C217.244 364.172 217.676 364.233 218.102 364.183C218.528 364.133 218.934 363.975 219.281 363.724C220.166 363.069 220.497 361.925 220.775 360.864L221.595 357.727L220.21 358.562C219.213 359.163 218.194 359.784 217.475 360.696C216.756 361.608 216.392 362.887 216.866 363.945" fill="#F2F2F2"/>
<path d="M179.798 390.811C180.065 390.478 180.242 390.082 180.311 389.661C180.379 389.24 180.337 388.809 180.19 388.408C179.797 387.384 178.781 386.754 177.83 386.198L175.018 384.555L175.447 386.107C175.756 387.224 176.078 388.368 176.764 389.305C177.45 390.242 178.588 390.94 179.742 390.777" fill="#F2F2F2"/>
<path d="M245.849 439.124C246.116 438.79 246.293 438.394 246.361 437.973C246.43 437.552 246.388 437.121 246.24 436.721C245.848 435.696 244.832 435.066 243.881 434.51L241.068 432.867L241.498 434.42C241.807 435.537 242.128 436.681 242.814 437.618C243.501 438.555 244.638 439.253 245.793 439.09" fill="#F2F2F2"/>
<path d="M192.728 377.817C193.498 377.817 194.122 377.197 194.122 376.432C194.122 375.667 193.498 375.047 192.728 375.047C191.958 375.047 191.334 375.667 191.334 376.432C191.334 377.197 191.958 377.817 192.728 377.817Z" fill="#039F00"/>
<path d="M155.609 418.685C156.379 418.685 157.003 418.064 157.003 417.299C157.003 416.534 156.379 415.914 155.609 415.914C154.839 415.914 154.215 416.534 154.215 417.299C154.215 418.064 154.839 418.685 155.609 418.685Z" fill="#FD6584"/>
<path d="M251.465 407.427C252.235 407.427 252.859 406.807 252.859 406.042C252.859 405.276 252.235 404.656 251.465 404.656C250.695 404.656 250.07 405.276 250.07 406.042C250.07 406.807 250.695 407.427 251.465 407.427Z" fill="#28C76F"/>
<path d="M154.215 383.88C154.985 383.88 155.609 383.26 155.609 382.495C155.609 381.73 154.985 381.109 154.215 381.109C153.445 381.109 152.82 381.73 152.82 382.495C152.82 383.26 153.445 383.88 154.215 383.88Z" fill="#E6E6E6"/>
<path d="M237.429 423.364C238.199 423.364 238.824 422.744 238.824 421.979C238.824 421.214 238.199 420.594 237.429 420.594C236.659 420.594 236.035 421.214 236.035 421.979C236.035 422.744 236.659 423.364 237.429 423.364Z" fill="#E6E6E6"/>
<path d="M238.847 381.474C239.617 381.474 240.242 380.853 240.242 380.088C240.242 379.323 239.617 378.703 238.847 378.703C238.077 378.703 237.453 379.323 237.453 380.088C237.453 380.853 238.077 381.474 238.847 381.474Z" fill="#A9D5BC"/>
<path d="M182.138 403.324C182.017 403.513 181.725 403.485 181.561 403.367C181.333 403.203 181.407 402.886 181.564 402.699C182.062 402.104 182.887 402.732 182.998 403.323C183.04 403.611 182.995 403.904 182.87 404.167C182.745 404.43 182.545 404.651 182.295 404.802C181.726 405.137 180.987 404.969 180.498 404.568C179.478 403.732 179.756 402.058 180.889 401.453C181.612 401.067 182.526 401.236 183.239 401.56C184.04 401.924 184.73 402.482 185.472 402.947C187.099 403.959 188.94 404.583 190.85 404.771C191.184 404.805 191.182 404.286 190.85 404.252C189.791 404.143 188.752 403.895 187.76 403.513C186.778 403.117 185.846 402.609 184.983 401.998C184.11 401.404 183.197 400.826 182.117 400.728C181.681 400.677 181.239 400.742 180.836 400.916C180.434 401.09 180.085 401.367 179.825 401.719C179.593 402.033 179.439 402.397 179.372 402.781C179.306 403.164 179.33 403.558 179.443 403.931C179.579 404.322 179.816 404.669 180.131 404.938C180.446 405.208 180.827 405.389 181.236 405.465C181.629 405.539 182.035 405.489 182.399 405.322C182.762 405.155 183.064 404.88 183.262 404.535C183.66 403.851 183.647 402.933 183.046 402.366C182.874 402.192 182.658 402.067 182.421 402.003C182.185 401.939 181.935 401.939 181.698 402.002C181.479 402.075 181.287 402.21 181.144 402.39C181.002 402.571 180.915 402.788 180.895 403.016C180.837 403.904 182.105 404.347 182.589 403.586C182.77 403.302 182.317 403.041 182.138 403.324L182.138 403.324Z" fill="#3F3D56"/>
<path d="M226.853 403.324C226.973 403.513 227.265 403.485 227.429 403.367C227.657 403.203 227.583 402.886 227.427 402.699C226.928 402.104 226.103 402.732 225.992 403.323C225.951 403.611 225.995 403.904 226.121 404.167C226.246 404.43 226.446 404.651 226.696 404.802C227.265 405.137 228.003 404.969 228.493 404.568C229.513 403.732 229.235 402.058 228.102 401.453C227.379 401.067 226.464 401.236 225.752 401.56C224.95 401.924 224.26 402.482 223.519 402.947C221.892 403.959 220.051 404.583 218.141 404.771C217.806 404.805 217.809 404.286 218.141 404.252C219.199 404.143 220.238 403.895 221.231 403.513C222.213 403.117 223.145 402.609 224.008 401.998C224.881 401.404 225.793 400.826 226.874 400.728C227.31 400.677 227.752 400.742 228.154 400.916C228.557 401.09 228.906 401.367 229.166 401.719C229.397 402.033 229.552 402.397 229.618 402.781C229.684 403.164 229.66 403.558 229.547 403.931C229.412 404.322 229.174 404.669 228.859 404.938C228.545 405.208 228.163 405.389 227.755 405.465C227.362 405.539 226.955 405.489 226.592 405.322C226.229 405.155 225.927 404.88 225.728 404.535C225.331 403.851 225.344 402.933 225.944 402.366C226.116 402.192 226.332 402.067 226.569 402.003C226.806 401.939 227.056 401.939 227.293 402.002C227.511 402.075 227.704 402.21 227.846 402.39C227.989 402.571 228.075 402.788 228.095 403.016C228.153 403.904 226.886 404.347 226.401 403.586C226.221 403.302 226.673 403.041 226.853 403.324L226.853 403.324Z" fill="#3F3D56"/>
<path d="M163.942 364.021L163.251 364.882L160.809 363.447L161.499 362.586L163.942 364.021Z" fill="#FFED9F"/>
<path d="M167.662 367.727L168.271 368.631L165.706 369.899L165.096 368.995L167.662 367.727Z" fill="#FBE897"/>
<path d="M170.317 363.789L171.536 363.832L171.414 366.366L170.195 366.323L170.317 363.789Z" fill="#FFE89F"/>
<path d="M250.213 417.014L249.523 417.875L247.08 416.439L247.771 415.578L250.213 417.014Z" fill="#E4E4E4"/>
<path d="M252.761 420.711L253.371 421.615L250.805 422.883L250.195 421.979L252.761 420.711Z" fill="#E4E4E4"/>
<path d="M255.416 416.781L256.635 416.824L256.514 419.358L255.295 419.315L255.416 416.781Z" fill="#E4E4E4"/>
<g clip-path="url(#clip0_6790_187657)">
<path fill-rule="evenodd" clip-rule="evenodd" d="M194.576 428.459C194.576 423.114 198.93 418.781 204.301 418.781C209.672 418.781 214.026 423.114 214.026 428.459C214.026 433.804 209.672 438.137 204.301 438.137C198.93 438.137 194.576 433.804 194.576 428.459ZM200.765 423.18C200.53 423.18 200.305 423.273 200.14 423.438C199.974 423.603 199.881 423.827 199.881 424.06C199.881 424.293 199.974 424.517 200.14 424.682C200.305 424.847 200.53 424.94 200.765 424.94H203.417C203.717 424.94 204.188 425.037 204.557 425.302C204.725 425.422 204.886 425.585 205.004 425.82H200.762C200.528 425.82 200.303 425.912 200.137 426.077C199.971 426.242 199.878 426.466 199.878 426.7C199.878 426.933 199.971 427.157 200.137 427.322C200.303 427.487 200.528 427.579 200.762 427.579H205.004C204.901 427.786 204.748 427.964 204.558 428.097C204.222 428.326 203.825 428.452 203.417 428.459H200.762C200.579 428.459 200.4 428.516 200.25 428.621C200.101 428.727 199.988 428.876 199.927 429.048C199.867 429.22 199.861 429.406 199.912 429.582C199.962 429.757 200.066 429.912 200.209 430.026L204.632 433.545C204.723 433.618 204.827 433.671 204.939 433.704C205.05 433.736 205.167 433.746 205.283 433.733C205.398 433.72 205.51 433.685 205.611 433.629C205.713 433.574 205.803 433.498 205.875 433.408C205.948 433.318 206.002 433.214 206.034 433.103C206.067 432.992 206.077 432.876 206.064 432.761C206.051 432.646 206.016 432.535 205.96 432.434C205.904 432.333 205.828 432.243 205.738 432.171L203.282 430.219H203.415C203.999 430.219 204.855 430.052 205.59 429.525C206.244 429.058 206.698 428.364 206.861 427.579H207.837C208.072 427.579 208.297 427.487 208.462 427.322C208.628 427.157 208.721 426.933 208.721 426.7C208.721 426.466 208.628 426.242 208.462 426.077C208.297 425.912 208.072 425.82 207.837 425.82H206.861C206.795 425.513 206.686 425.217 206.537 424.94H207.837C208.072 424.94 208.297 424.847 208.462 424.682C208.628 424.517 208.721 424.293 208.721 424.06C208.721 423.827 208.628 423.603 208.462 423.438C208.297 423.273 208.072 423.18 207.837 423.18H200.765Z" fill="#3FE97C"/>
</g>
</g>
</g>
<defs>
<filter id="filter0_d_6790_187657" x="148.428" y="357.727" width="109.296" height="83.7999" filterUnits="userSpaceOnUse" color-interpolation-filters="sRGB">
<feFlood flood-opacity="0" result="BackgroundImageFix"/>
<feColorMatrix in="SourceAlpha" type="matrix" values="0 0 0 0 0 0 0 0 0 0 0 0 0 0 0 0 0 0 127 0" result="hardAlpha"/>
<feOffset dx="1.08897" dy="1.08897"/>
<feComposite in2="hardAlpha" operator="out"/>
<feColorMatrix type="matrix" values="0 0 0 0 0.00731134 0 0 0 0 0.3875 0 0 0 0 0 0 0 0 0.4 0"/>
<feBlend mode="normal" in2="BackgroundImageFix" result="effect1_dropShadow_6790_187657"/>
<feBlend mode="normal" in="SourceGraphic" in2="effect1_dropShadow_6790_187657" result="shape"/>
</filter>
<linearGradient id="paint0_linear_6790_187657" x1="1241.47" y1="-1664.69" x2="1537.37" y2="-1451.84" gradientUnits="userSpaceOnUse">
<stop stop-color="#89FFD1"/>
<stop offset="1" stop-color="#BFFF9E"/>
</linearGradient>
<linearGradient id="paint1_linear_6790_187657" x1="1275.3" y1="-925.656" x2="1476.21" y2="-697.271" gradientUnits="userSpaceOnUse">
<stop stop-color="#89FFD1"/>
<stop offset="1" stop-color="#BFFF9E"/>
</linearGradient>
<clipPath id="clip0_6790_187657">
<rect width="21.2176" height="21.1156" fill="white" transform="translate(193.693 417.906)"/>
</clipPath>
</defs>
</svg>
