<svg width="375" height="598" viewBox="0 0 375 598" fill="none" xmlns="http://www.w3.org/2000/svg">
<path opacity="0.6" d="M-42.7792 1.70015L-42.7035 1.59741L-43.5 1.01078V2L-43.5 593.969V595.281L-42.6268 594.301L-43 593.969C-42.6268 594.301 -42.6266 594.301 -42.6261 594.301L-42.6237 594.298L-42.6137 594.287L-42.5734 594.242C-42.5374 594.202 -42.4835 594.142 -42.412 594.063C-42.269 593.906 -42.0556 593.672 -41.775 593.367C-41.2138 592.759 -40.3838 591.871 -39.3102 590.753C-37.163 588.515 -34.0418 585.357 -30.1488 581.677C-22.3613 574.313 -11.4923 564.865 0.842506 556.512C13.1821 548.156 26.96 540.916 40.5674 537.94C54.1629 534.966 67.5562 536.253 79.2019 544.901L79.5784 545.181C103.078 562.634 131.788 583.956 164.46 592.531C197.357 601.164 234.234 596.867 273.826 562.879C293.479 546.008 312.704 539.554 330.479 539.33C348.265 539.105 364.646 545.117 378.599 553.255C392.552 561.394 404.054 571.648 412.07 579.872C416.078 583.983 419.212 587.584 421.343 590.156C422.408 591.442 423.223 592.471 423.771 593.177C424.045 593.53 424.252 593.803 424.39 593.987C424.459 594.079 424.511 594.148 424.546 594.195L424.584 594.247L424.594 594.26L424.596 594.263C424.596 594.264 424.596 594.264 425 593.969L424.596 594.264L425.5 595.5V593.969L425.5 2V1.26934L424.819 1.53394L425 2C424.819 1.53394 424.818 1.53412 424.818 1.53449L424.813 1.53615L424.796 1.54279L424.728 1.56921L424.458 1.67397L423.399 2.08527C422.467 2.44694 421.092 2.9806 419.317 3.66855C415.769 5.04445 410.624 7.0375 404.242 9.50604C391.476 14.4431 373.758 21.2822 353.946 28.8902C314.321 44.1064 266.324 62.397 232.828 74.6978C199.405 86.9714 174.875 88.1252 150.351 83.0552C132.042 79.2699 113.743 72.0209 91.7261 63.2993C84.1947 60.3158 76.2283 57.16 67.6776 53.9115C27.0264 38.4679 -0.579697 25.3815 -18.0177 16.1598C-26.7366 11.549 -32.9135 7.90442 -36.9079 5.41453C-38.9051 4.16958 -40.3567 3.21331 -41.3077 2.56927C-41.7831 2.24725 -42.1334 2.00329 -42.3642 1.84033C-42.4796 1.75885 -42.5651 1.69762 -42.6214 1.65701L-42.6841 1.61161L-42.6992 1.60059L-42.7027 1.59802L-42.7034 1.59747L-42.7034 1.59747C-42.7035 1.59743 -42.704 1.59806 -42.7792 1.70015Z" fill="url(#paint0_linear_8284_143306)" stroke="#4AFF85"/>
<path d="M416 29.8709L416.294 29.4661L416.5 29.6159V29.8709L416.5 560.23V561.354L415.665 560.601L416 560.23C415.665 560.601 415.665 560.601 415.664 560.6L415.662 560.598L415.651 560.588L415.608 560.55C415.57 560.515 415.512 560.464 415.436 560.396C415.283 560.261 415.056 560.06 414.757 559.798C414.159 559.276 413.276 558.513 412.137 557.553C409.859 555.633 406.555 552.924 402.457 549.77C394.261 543.463 382.894 535.382 370.205 528.282C357.512 521.18 343.522 515.075 330.075 512.694C316.631 510.315 303.782 511.665 293.297 519.402C286.231 524.616 279.605 530.372 273 536.109C269.678 538.995 266.362 541.875 262.998 544.68C252.968 553.042 242.553 560.69 230.455 565.586C206.209 575.4 175.356 574.104 127.476 545.897C79.7923 517.806 46.5405 521.531 25.236 532.174C14.567 537.504 6.86343 544.583 1.82675 550.332C-0.691162 553.206 -2.54089 555.745 -3.75983 557.564C-4.36923 558.473 -4.82077 559.201 -5.11917 559.701C-5.1825 559.807 -5.23892 559.903 -5.28848 559.988C-5.35571 560.104 -5.41031 560.199 -5.45242 560.274C-5.48901 560.338 -5.51617 560.387 -5.53397 560.42L-5.55365 560.456L-5.55826 560.464L-5.55923 560.466C-5.5593 560.466 -5.55933 560.466 -5.59048 560.449L-5.55936 560.466L-6.5 560.23L-6.5 29.8709V29.3709L-6 29.3709V29.8709C-6 29.3709 -5.9996 29.3709 -5.99896 29.3709L-5.99646 29.3709L-5.98697 29.3709L-5.9502 29.3711C-5.91779 29.3712 -5.8696 29.3715 -5.80569 29.3721C-5.67795 29.3733 -5.48743 29.3756 -5.23489 29.3803C-4.72983 29.3896 -3.97668 29.4083 -2.98132 29.4455C-0.99057 29.52 1.96906 29.6688 5.85071 29.9662C13.614 30.5611 25.0653 31.7504 39.8295 34.128C69.358 38.8834 112.138 48.3923 165.169 67.4064C218.182 86.4142 246.18 92.2641 268.554 87.7144C279.731 85.4413 289.535 80.5653 300.382 73.3769C308.041 68.3005 316.199 62.087 325.719 54.8354C329.696 51.806 333.911 48.5954 338.426 45.2109C362.841 26.9126 382.271 22.9308 395.639 23.5619C402.318 23.8773 407.468 25.3436 410.956 26.7361C412.699 27.4323 414.027 28.1098 414.922 28.6158C415.37 28.8687 415.709 29.0788 415.938 29.2269C416.053 29.301 416.14 29.3595 416.199 29.4002C416.229 29.4205 416.252 29.4364 416.267 29.4475L416.286 29.4605L416.291 29.4642L416.293 29.4654C416.293 29.4658 416.294 29.4661 416 29.8709Z" fill="url(#paint1_linear_8284_143306)" stroke="#4AFF85"/>
<defs>
<linearGradient id="paint0_linear_8284_143306" x1="189.547" y1="1.99858" x2="189.547" y2="624.241" gradientUnits="userSpaceOnUse">
<stop stop-color="#BAFFD9" stop-opacity="0.31"/>
<stop offset="0.546875" stop-color="#BAFFD9"/>
<stop offset="1" stop-color="#ECFFE9"/>
</linearGradient>
<linearGradient id="paint1_linear_8284_143306" x1="206.311" y1="29.8701" x2="206.311" y2="587.352" gradientUnits="userSpaceOnUse">
<stop stop-color="#BAFFD9" stop-opacity="0.31"/>
<stop offset="0.546875" stop-color="#C8FFE1"/>
<stop offset="1" stop-color="#ECFFE9"/>
</linearGradient>
</defs>
</svg>
