<!-- width="375" height="549" -->

<svg preserveAspectRatio="none" viewBox="0 0 375 549" fill="none" xmlns="http://www.w3.org/2000/svg">
<path d="M416 6.87092L416.294 6.46613L416.5 6.61586V6.87092L416.5 537.23V538.354L415.665 537.601L416 537.23C415.665 537.601 415.665 537.601 415.664 537.6L415.662 537.598L415.651 537.588L415.608 537.55C415.57 537.515 415.512 537.464 415.436 537.396C415.283 537.261 415.056 537.06 414.757 536.798C414.159 536.276 413.276 535.513 412.137 534.553C409.859 532.633 406.555 529.924 402.457 526.77C394.261 520.463 382.894 512.382 370.205 505.282C357.512 498.18 343.522 492.075 330.075 489.694C316.631 487.315 303.782 488.665 293.297 496.402C286.231 501.616 279.605 507.372 273 513.109C269.678 515.995 266.362 518.875 262.998 521.68C252.968 530.042 242.553 537.69 230.455 542.586C206.209 552.4 175.356 551.104 127.476 522.897C79.7923 494.806 46.5405 498.531 25.236 509.174C14.567 514.504 6.86343 521.583 1.82675 527.332C-0.691162 530.206 -2.54089 532.745 -3.75983 534.564C-4.36923 535.473 -4.82077 536.201 -5.11917 536.701C-5.1825 536.807 -5.23892 536.903 -5.28848 536.988C-5.35571 537.104 -5.41031 537.199 -5.45242 537.274C-5.48901 537.338 -5.51617 537.387 -5.53397 537.42L-5.55365 537.456L-5.55826 537.464L-5.55923 537.466C-5.5593 537.466 -5.55933 537.466 -5.59048 537.449L-5.55936 537.466L-6.5 537.23L-6.5 6.87092V6.37092L-6 6.37092V6.87092C-6 6.37092 -5.9996 6.37092 -5.99896 6.37092L-5.99646 6.37092L-5.98697 6.37094L-5.9502 6.37107C-5.91779 6.37122 -5.8696 6.37151 -5.80569 6.3721C-5.67795 6.37327 -5.48743 6.37561 -5.23489 6.38028C-4.72983 6.38962 -3.97668 6.40826 -2.98132 6.4455C-0.99057 6.51996 1.96906 6.66879 5.85071 6.96622C13.614 7.56108 25.0653 8.75036 39.8295 11.128C69.358 15.8834 112.138 25.3923 165.169 44.4064C218.182 63.4142 246.18 69.2641 268.554 64.7144C279.731 62.4413 289.535 57.5653 300.382 50.3769C308.041 45.3005 316.199 39.087 325.719 31.8354C329.696 28.806 333.911 25.5954 338.426 22.2109C362.841 3.91265 382.271 -0.0691741 395.639 0.561939C402.318 0.877269 407.468 2.34365 410.956 3.73611C412.699 4.43226 414.027 5.10985 414.922 5.61577C415.37 5.86875 415.709 6.07883 415.938 6.22692C416.053 6.30096 416.14 6.35951 416.199 6.40017C416.229 6.4205 416.252 6.43636 416.267 6.44746L416.286 6.46048L416.291 6.46424L416.293 6.46542C416.293 6.46581 416.294 6.46613 416 6.87092Z" fill="url(#paint0_linear_6772_183275)" stroke="#4AFF85"/>
<defs>
<linearGradient id="paint0_linear_6772_183275" x1="206.311" y1="6.87008" x2="206.311" y2="564.352" gradientUnits="userSpaceOnUse">
<stop stop-color="#BAFFD9" stop-opacity="0.31"/>
<stop offset="0.546875" stop-color="#C8FFE1"/>
<stop offset="1" stop-color="#ECFFE9"/>
</linearGradient>
</defs>
</svg>
