<!-- width="1440" height="671" -->


<svg preserveAspectRatio="none"  viewBox="0 0 1440 671" fill="none" xmlns="http://www.w3.org/2000/svg">
<path d="M1440 52.1897L1440.11 51.7028L1440.5 51.7931V52.1897L1440.5 659.95V660.578L1439.89 660.437L1440 659.95C1439.89 660.437 1439.89 660.437 1439.88 660.436L1439.87 660.433L1439.82 660.421L1439.6 660.371C1439.41 660.328 1439.13 660.262 1438.75 660.177C1438 660.005 1436.88 659.751 1435.41 659.421C1432.47 658.762 1428.15 657.799 1422.59 656.587C1411.49 654.162 1395.45 650.737 1375.76 646.74C1336.37 638.746 1282.35 628.462 1223.79 619.302C1165.24 610.142 1102.16 602.107 1044.66 598.609C987.149 595.11 935.27 596.153 899.09 605.125C862.876 614.105 837.532 625.02 814.781 635.342C812.651 636.309 810.543 637.27 808.451 638.225C788.2 647.462 769.417 656.03 745.982 662.01C694.258 675.209 619.933 675.796 456.914 643.522C293.961 611.261 180.019 615.494 106.834 627.78C70.2412 633.924 43.8357 642.08 26.5854 648.697C17.9603 652.005 11.6237 654.929 7.44678 657.023C5.35828 658.07 3.80969 658.909 2.78491 659.487C2.27246 659.775 1.89099 659.998 1.63843 660.148C1.51208 660.223 1.41809 660.28 1.35596 660.318L1.28687 660.36L1.27026 660.371L1.26636 660.373C1.26562 660.373 1.2655 660.374 1 659.95L1.2655 660.374L0.5 660.853V659.95L0.5 52.1897V51.8137L0.861206 51.7094L0.931519 51.9522C0.861938 51.7091 0.863403 51.7087 0.865967 51.708L0.879883 51.704L0.934814 51.6882L1.15308 51.6258C1.34644 51.5707 1.63525 51.4888 2.01782 51.3814C2.78284 51.1666 3.92261 50.8499 5.42249 50.4419C8.42212 49.6257 12.8624 48.4439 18.627 46.981C30.1561 44.0551 46.9829 40.0044 68.1774 35.5039C110.566 26.5028 170.428 15.7018 240.324 8.50102C380.106 -5.89938 560.067 -5.90587 720.669 51.7191C798.018 79.4723 883.972 99.531 964.571 104.876C1045.18 110.222 1120.38 100.846 1176.26 69.7899C1226.82 41.6869 1292.81 37.1833 1346.1 39.6836C1372.76 40.9342 1396.26 43.9384 1413.09 46.6298C1421.51 47.9756 1428.26 49.2433 1432.91 50.1748C1435.24 50.6406 1437.04 51.0223 1438.26 51.2877C1438.86 51.4205 1439.33 51.5241 1439.64 51.5946C1439.8 51.6299 1439.91 51.6569 1439.99 51.6751L1440.08 51.6957L1440.11 51.701L1440.11 51.7023C1440.11 51.7027 1440.11 51.7028 1440 52.1897Z" fill="url(#paint0_linear_6790_201028)" stroke="#4AFF85"/>
<defs>
<linearGradient id="paint0_linear_6790_201028" x1="724.969" y1="52.1891" x2="724.969" y2="691.03" gradientUnits="userSpaceOnUse">
<stop stop-color="#BAFFD9" stop-opacity="0.31"/>
<stop offset="0.546875" stop-color="#C8FFE1"/>
<stop offset="1" stop-color="#ECFFE9"/>
</linearGradient>
</defs>
</svg>
