<svg width="834" height="577" viewBox="0 0 834 577" fill="none" xmlns="http://www.w3.org/2000/svg">
<path opacity="0.6" d="M-393 63.1862L-393.227 62.7407L-393.5 62.8797V63.1862L-393.5 564.121V564.724L-392.907 564.612L-393 564.121C-392.907 564.612 -392.906 564.612 -392.903 564.611L-392.891 564.609L-392.842 564.6L-392.648 564.563C-392.476 564.531 -392.218 564.482 -391.878 564.419C-391.197 564.292 -390.184 564.103 -388.856 563.859C-386.2 563.37 -382.282 562.657 -377.24 561.76C-367.154 559.966 -352.567 557.436 -334.559 554.492C-298.545 548.605 -248.854 541.065 -194.147 534.451C-84.7082 521.219 44.7191 511.706 124.909 526.512C150.929 531.316 176.439 536.705 202.064 542.118C334.513 570.098 470.06 598.733 695.292 550.665C829.567 522.009 955.713 525.492 1048.29 536.142C1094.58 541.467 1132.48 548.582 1158.8 554.367C1171.96 557.258 1182.23 559.818 1189.2 561.653C1192.69 562.571 1195.35 563.308 1197.15 563.815C1198.04 564.069 1198.72 564.265 1199.17 564.398C1199.4 564.464 1199.57 564.515 1199.69 564.548L1199.81 564.587L1199.85 564.596L1199.85 564.599C1199.85 564.599 1199.86 564.599 1200 564.121L1199.86 564.599L1200.5 564.794V564.121L1200.5 63.1862V62.6008L1199.92 62.6924L1200 63.1862C1199.92 62.6924 1199.92 62.6928 1199.91 62.6937L1199.89 62.6976L1199.79 62.7131L1199.4 62.7749C1199.05 62.8295 1198.53 62.9109 1197.84 63.0179C1196.46 63.232 1194.41 63.5486 1191.72 63.9587C1186.34 64.7787 1178.39 65.9724 1168.13 67.4671C1147.61 70.4563 1117.86 74.649 1080.91 79.4626C1007.02 89.0899 904.354 101.201 789.27 111.135C559.084 131.005 279.266 142.162 80.5863 107.347C-18.7956 89.9327 -71.641 78.5616 -96.5465 70.5836C-102.772 68.5894 -107.229 66.8141 -110.224 65.2191C-111.721 64.4216 -112.838 63.6774 -113.623 62.9844C-114.412 62.2884 -114.837 61.6709 -115.005 61.1332C-115.167 60.6169 -115.105 60.1338 -114.827 59.646C-114.54 59.1403 -114.013 58.62 -113.23 58.0915C-111.663 57.0338 -109.216 56.0379 -106.132 55.0732C-101.017 53.4735 -94.2895 51.9993 -87.2461 50.4559C-85.8083 50.1408 -84.3574 49.8229 -82.9044 49.5004C-74.3565 47.6033 -65.7381 45.5496 -59.4108 43.0069C-56.2502 41.7368 -53.6176 40.3281 -51.8482 38.7255C-50.0699 37.1148 -49.1092 35.2521 -49.46 33.1188C-49.8036 31.029 -51.3881 28.8201 -54.3311 26.4406C-57.2862 24.0513 -61.6811 21.4339 -67.786 18.543C-129.677 -10.7642 -211.083 0.331935 -276.922 18.6906C-309.857 27.8746 -338.93 38.8858 -359.769 47.6007C-370.189 51.9583 -378.552 55.7422 -384.31 58.4372C-387.189 59.7847 -389.417 60.86 -390.926 61.5987C-391.68 61.9681 -392.255 62.2533 -392.641 62.4463C-392.835 62.5428 -392.981 62.6162 -393.079 62.6656L-393.189 62.7216L-393.217 62.7358L-393.224 62.7394C-393.226 62.7402 -393.227 62.7407 -393 63.1862Z" fill="url(#paint0_linear_8284_143305)" stroke="#4AFF85"/>
<path d="M1110.5 97.6706L1110.59 97.1787L1111 97.2533V97.6706L1111 570.07V570.624L1110.45 570.568L1110.5 570.07C1110.45 570.568 1110.45 570.567 1110.45 570.567L1110.43 570.566L1110.39 570.561L1110.21 570.543L1109.49 570.469C1108.85 570.405 1107.91 570.309 1106.67 570.183C1104.19 569.933 1100.53 569.565 1095.81 569.097C1086.37 568.161 1072.7 566.824 1055.77 565.22C1021.89 562.011 974.957 557.733 922.709 553.454C818.209 544.897 692.477 536.342 607.5 536.342C555.159 536.342 520.307 539.637 487.601 542.728C414.151 549.672 351.522 555.593 125.924 520.877C-37.0214 495.802 -150.578 508.224 -223.38 526.898C-259.782 536.235 -285.997 547.137 -303.106 555.699C-311.66 559.98 -317.938 563.676 -322.074 566.3C-324.143 567.612 -325.675 568.655 -326.689 569.37C-326.928 569.538 -327.138 569.688 -327.319 569.819C-327.523 569.966 -327.692 570.089 -327.824 570.187C-327.949 570.28 -328.042 570.35 -328.103 570.396L-328.172 570.449L-328.188 570.461L-328.192 570.464C-328.193 570.465 -328.193 570.465 -328.242 570.401L-328.193 570.465L-329 571.092V570.07L-329 138.882V138.433L-328.554 138.385L-328.5 138.882C-328.554 138.385 -328.553 138.384 -328.55 138.384L-328.537 138.383L-328.485 138.377L-328.279 138.355L-327.46 138.266C-326.735 138.188 -325.654 138.072 -324.23 137.922C-321.381 137.62 -317.158 137.177 -311.662 136.613C-300.671 135.486 -284.588 133.877 -264.219 131.945C-223.482 128.081 -165.604 122.929 -97.0375 117.778C40.0935 107.475 219.982 97.1709 391 97.1706C555.295 97.1704 641.153 111.569 698.421 121.174C700.772 121.568 703.074 121.954 705.332 122.331C733.964 127.108 755.351 130.363 776.571 129.412C797.777 128.462 818.842 123.31 846.802 111.232C897.349 89.3957 963.317 85.8953 1016.6 87.8385C1043.25 88.8104 1066.74 91.145 1083.58 93.2366C1091.99 94.2825 1098.74 95.2677 1103.39 95.9916C1105.72 96.3535 1107.51 96.6501 1108.73 96.8563C1109.34 96.9594 1109.81 97.0399 1110.12 97.0947C1110.27 97.1221 1110.39 97.1431 1110.47 97.1572L1110.56 97.1732L1110.58 97.1773L1110.59 97.1783C1110.59 97.1786 1110.59 97.1787 1110.5 97.6706Z" fill="url(#paint1_linear_8284_143305)" stroke="#4AFF85"/>
<defs>
<linearGradient id="paint0_linear_8284_143305" x1="406.553" y1="86.5315" x2="406.553" y2="613.084" gradientUnits="userSpaceOnUse">
<stop stop-color="#BAFFD9" stop-opacity="0.31"/>
<stop offset="0.546875" stop-color="#BAFFD9"/>
<stop offset="1" stop-color="#ECFFE9"/>
</linearGradient>
<linearGradient id="paint1_linear_8284_143305" x1="463.969" y1="84.13" x2="463.969" y2="580.688" gradientUnits="userSpaceOnUse">
<stop stop-color="#BAFFD9" stop-opacity="0.31"/>
<stop offset="0.546875" stop-color="#C8FFE1"/>
<stop offset="1" stop-color="#ECFFE9"/>
</linearGradient>
</defs>
</svg>
