<!-- width="375" height="468" -->

<svg preserveAspectRatio="none" viewBox="0 0 375 468" fill="none" xmlns="http://www.w3.org/2000/svg">
<g clip-path="url(#clip0_8346_143363)">
<path d="M460.018 3.90003V3.58121L460.307 3.44671L460.518 3.90003C460.307 3.44671 460.307 3.44664 460.307 3.44652L460.308 3.44599L460.313 3.44396L460.33 3.43606L460.395 3.40562C460.453 3.37911 460.536 3.34054 460.641 3.2922C460.851 3.19552 461.148 3.0597 461.494 2.903C462.185 2.58993 463.076 2.1922 463.871 1.85669C464.269 1.68904 464.645 1.53553 464.962 1.41546C465.268 1.29936 465.55 1.20249 465.742 1.16251C465.792 1.15216 465.854 1.14174 465.918 1.13931L465.919 1.13926C465.958 1.13776 466.108 1.13201 466.253 1.22242C466.346 1.28036 466.44 1.37977 466.48 1.52353C466.518 1.65597 466.494 1.7696 466.472 1.83651C466.432 1.9561 466.358 2.03922 466.327 2.073C466.19 2.22089 465.911 2.41697 465.533 2.65929C464.766 3.14959 463.351 3.97363 461.018 5.26448L461.018 437.222C462.032 437.363 462.857 437.53 463.519 437.717C464.322 437.945 464.927 438.213 465.345 438.531C465.772 438.857 466.035 439.264 466.053 439.742C466.071 440.198 465.861 440.608 465.597 440.944C465.33 441.286 464.966 441.605 464.574 441.892C463.789 442.469 462.816 442.979 462.052 443.34C461.668 443.522 461.331 443.669 461.09 443.771C460.969 443.822 460.872 443.861 460.805 443.888C460.771 443.902 460.745 443.912 460.727 443.919L460.706 443.927L460.701 443.93L460.699 443.93C460.699 443.93 460.698 443.931 460.518 443.464L460.698 443.931L460.018 444.194V443.464V438.104C456.153 437.669 449.762 437.554 439.593 438.04C425.822 438.697 405.184 440.451 374.631 443.961C252.355 458.008 151.887 458.137 -3.56763 433.514C-26.6703 429.854 -44.0867 427.516 -56.9985 426.184V443.464V444.166L-57.6619 443.937L-57.4985 443.464C-57.6619 443.937 -57.6623 443.937 -57.6631 443.936L-57.6667 443.935L-57.6807 443.93L-57.7357 443.911L-57.95 443.836C-58.1378 443.77 -58.4138 443.673 -58.7669 443.548C-59.4732 443.296 -60.4884 442.931 -61.725 442.475C-64.1978 441.563 -67.5576 440.287 -71.1037 438.833C-74.6486 437.38 -78.3862 435.745 -81.6123 434.115C-84.823 432.493 -87.5788 430.85 -89.1188 429.372C-89.8754 428.645 -90.4333 427.871 -90.4944 427.084C-90.5623 426.211 -90.0195 425.537 -89.1033 425.063C-88.198 424.594 -86.8234 424.254 -84.9373 424.038C-83.0405 423.82 -80.5836 423.723 -77.4847 423.767C-72.6737 423.835 -66.2871 424.243 -57.9985 425.077V0V-0.698915L-57.337 -0.47321L-57.4985 0C-57.337 -0.47321 -57.3365 -0.473045 -57.3354 -0.472686L-57.3305 -0.470997L-57.3104 -0.464148L-57.2294 -0.436737C-57.1575 -0.412434 -57.0497 -0.376161 -56.907 -0.32844C-56.6216 -0.232999 -56.1962 -0.0917701 -55.6374 0.0910623C-54.5198 0.456728 -52.8686 0.9888 -50.7358 1.6538C-46.4703 2.9838 -40.2789 4.84545 -32.5785 6.97091C-17.177 11.222 4.25757 16.5276 28.3904 20.7459C76.6849 29.1875 135.675 33.2538 178.765 15.9046C222.168 -1.57086 267.912 8.52509 308.024 20.1776C313.616 21.8019 319.095 23.4558 324.444 25.0702C338.308 29.2545 351.292 33.1732 363.06 35.6234C379.377 39.0207 393.209 39.5582 403.697 34.1581C436.329 17.3553 452.54 8.79393 460.018 4.67463V3.90003Z" fill="url(#paint0_linear_8346_143363)" stroke="#4AFF85"/>
<path opacity="0.6" d="M-170.547 15.0198L-170.634 14.5276L-171.047 14.601V15.0198L-171.047 434.973L-171.146 434.951C-171.317 434.913 -171.517 434.867 -171.745 434.816C-172.592 434.626 -173.823 434.351 -175.363 434.009C-178.441 433.325 -182.751 432.376 -187.677 431.315C-197.526 429.193 -209.842 426.622 -219.695 424.828C-224.62 423.932 -228.94 423.228 -232.031 422.872C-233.573 422.695 -234.829 422.602 -235.708 422.618C-236.142 422.626 -236.521 422.662 -236.806 422.744C-236.946 422.784 -237.105 422.847 -237.236 422.957C-237.382 423.078 -237.502 423.266 -237.5 423.509C-237.498 423.724 -237.398 423.898 -237.307 424.017C-237.212 424.141 -237.086 424.257 -236.948 424.365C-236.669 424.582 -236.27 424.821 -235.759 425.085C-234.73 425.615 -233.167 426.284 -231.004 427.11C-226.674 428.766 -219.883 431.073 -210.022 434.184C-200.105 437.314 -186.266 439.249 -169.357 440.34C-152.44 441.431 -132.42 441.68 -110.123 441.425C-79.6519 441.075 -44.909 439.784 -8.00624 438.413C9.09305 437.777 26.6561 437.125 44.4727 436.54C157.049 432.849 279.742 431.895 359.968 455.229C440.403 478.625 503.491 467.331 546.477 450.174C567.966 441.596 584.429 431.555 595.521 423.656C601.067 419.706 605.272 416.291 608.091 413.862C609.501 412.647 610.565 411.679 611.277 411.013C611.44 410.861 611.585 410.725 611.711 410.605C611.86 410.462 611.984 410.343 612.082 410.249C612.171 410.161 612.239 410.095 612.285 410.05L612.336 409.998L612.35 409.985L612.353 409.982C612.354 409.981 612.355 409.98 612 409.628L612.355 409.98L612.5 409.834V409.628L612.5 15.0198V14.6156L612.105 14.5309L612 15.0198C612.105 14.5309 612.104 14.5308 612.104 14.5307L612.102 14.5303L612.097 14.5292L612.08 14.5258L612.06 14.522L612.018 14.5142C611.965 14.5043 611.885 14.4904 611.775 14.473C611.555 14.4383 611.214 14.3899 610.722 14.333C609.737 14.2191 608.144 14.0711 605.694 13.9315C600.796 13.6522 592.467 13.4061 578.725 13.5354C551.242 13.7941 502.094 15.5548 415.417 21.5612C360.13 25.3924 309.493 32.7722 261.214 39.8083C233.802 43.8034 207.15 47.6876 180.838 50.7487C108.157 59.2043 37.9798 61.3955 -38.7496 42.3753C-98.9581 27.4505 -131.889 20.4874 -149.773 17.2554C-158.714 15.6394 -163.9 14.9549 -166.857 14.6749C-168.336 14.5348 -169.262 14.4954 -169.824 14.4919C-170.105 14.4901 -170.297 14.4973 -170.424 14.5057C-170.487 14.5099 -170.534 14.5144 -170.568 14.5183C-170.585 14.5202 -170.599 14.5221 -170.61 14.5237L-170.624 14.5258L-170.63 14.5268L-170.632 14.5272C-170.633 14.5274 -170.634 14.5276 -170.547 15.0198Z" fill="url(#paint1_linear_8346_143363)" stroke="#4AFF85"/>
<g opacity="0.2">
<path d="M217.201 257.557L208.484 239.775C248.283 219.736 272.54 207.083 311.054 184.993C324.906 177.059 333.42 165.706 335.041 152.985C336.258 143.342 333.285 133.904 327.068 127.748C315.311 116.19 293.351 111.129 273.621 115.369C266.121 117.011 259.296 119.473 253.283 122.824L243.823 105.384C251.526 101.076 260.175 97.9294 269.567 95.8777C296.122 90.1327 324.095 97.0404 340.785 113.454C351.393 123.918 356.596 139.649 354.569 155.447C352.136 174.46 340.177 191.08 320.784 202.159C281.932 224.455 257.472 237.244 217.268 257.42L217.201 257.557Z" fill="#DCDC00"/>
<path d="M157.732 257.553C117.596 237.377 93.1358 224.588 54.216 202.292C34.8236 191.212 22.8639 174.593 20.4314 155.58C18.4043 139.713 23.6072 124.051 34.2155 113.587C50.9051 97.1732 78.8111 90.2655 105.433 96.0105C114.825 97.9938 123.474 101.208 131.177 105.517L121.718 122.957C115.704 119.606 108.879 117.075 101.379 115.502C81.6491 111.262 59.6891 116.391 47.932 127.881C41.7157 134.037 38.7426 143.406 39.9589 153.118C41.5805 165.771 50.0943 177.124 63.9459 185.125C102.393 207.216 126.65 219.869 166.516 239.908L157.799 257.69L157.732 257.553Z" fill="#DCDC00"/>
<path d="M207.6 319.793C208.816 300.643 217.195 282.656 231.114 269.661C262.128 240.595 282.331 201.611 288.21 159.208L301.251 65.3741C301.994 59.9027 297.805 55.0469 292.399 55.0469H81.3133C75.8402 55.0469 71.7185 59.9027 72.4618 65.3741L85.5026 159.208C91.3812 201.611 111.584 240.595 142.599 269.661C156.518 282.724 164.964 300.643 166.113 319.793V323.418C166.113 354.741 147.193 382.919 118.409 394.409H186.856H255.304C226.519 382.919 207.6 354.741 207.6 323.418V319.793V319.793Z" fill="#FCEB00"/>
<path d="M264.419 390.852H109.213C104.585 390.852 100.834 394.648 100.834 399.332C100.834 404.016 104.585 407.813 109.213 407.813H264.419C269.046 407.813 272.797 404.016 272.797 399.332C272.797 394.648 269.046 390.852 264.419 390.852Z" fill="url(#paint2_linear_8346_143363)"/>
<path d="M304.488 48H69.2795C63.5699 48 58.9414 52.685 58.9414 58.4641V58.5325C58.9414 64.3116 63.5699 68.9964 69.2795 68.9964H304.488C310.197 68.9964 314.826 64.3116 314.826 58.5325V58.4641C314.826 52.685 310.197 48 304.488 48Z" fill="url(#paint3_linear_8346_143363)"/>
<path d="M206.247 313.836H167.395C163.178 313.836 159.76 317.296 159.76 321.564C159.76 325.832 163.178 329.293 167.395 329.293H206.247C210.464 329.293 213.883 325.832 213.883 321.564C213.883 317.296 210.464 313.836 206.247 313.836Z" fill="#00953C"/>
<path d="M117.255 80.9688H95.3627C92.3896 80.9688 90.0247 83.4992 90.1598 86.5085C91.3761 108.12 97.8627 187.387 127.593 227.875C131.039 232.594 138.404 228.833 136.715 223.224C129.755 200.587 121.512 158.389 122.39 86.3033C122.39 83.3625 120.093 81.0371 117.187 81.0371L117.255 80.9688Z" fill="white"/>
<path d="M170.64 350.093C168.546 357.89 163.411 373.209 154.086 381.553C152.735 382.716 153.613 384.973 155.37 384.973H162.329C166.451 384.973 170.032 382.1 170.911 378.065C172.127 372.525 173.276 363.429 172.262 350.298C172.195 349.341 170.911 349.204 170.64 350.161V350.093Z" fill="#FBEFB7"/>
<path d="M178.743 105.453L200.365 135.614L237.19 134.657L215.568 164.817L227.798 200.04L192.797 188.481L163.54 211.119V173.845L133.201 152.712L168.202 141.154L178.743 105.453Z" fill="#93C200"/>
<path d="M178.75 105.453L200.372 135.614L237.197 134.657L215.575 164.817L227.805 200.04L192.804 188.481L178.75 105.453Z" fill="#26AC63"/>
</g>
</g>
<defs>
<linearGradient id="paint0_linear_8346_143363" x1="207.257" y1="1.91717" x2="207.257" y2="463.961" gradientUnits="userSpaceOnUse">
<stop stop-color="#BAFFD9" stop-opacity="0.31"/>
<stop offset="0.546875" stop-color="#C8FFE1"/>
<stop offset="1" stop-color="#ECFFE9"/>
</linearGradient>
<linearGradient id="paint1_linear_8346_143363" x1="222.592" y1="-2.12109" x2="222.592" y2="439.966" gradientUnits="userSpaceOnUse">
<stop stop-color="#BAFFD9" stop-opacity="0.31"/>
<stop offset="0.546875" stop-color="#BAFFD9"/>
<stop offset="1" stop-color="#ECFFE9"/>
</linearGradient>
<linearGradient id="paint2_linear_8346_143363" x1="100.834" y1="399.332" x2="272.865" y2="399.332" gradientUnits="userSpaceOnUse">
<stop stop-color="#008B3E"/>
<stop offset="0.44" stop-color="#009340"/>
<stop offset="1" stop-color="#00A547"/>
</linearGradient>
<linearGradient id="paint3_linear_8346_143363" x1="58.9414" y1="58.464" x2="314.758" y2="58.464" gradientUnits="userSpaceOnUse">
<stop stop-color="#008B3E"/>
<stop offset="0.44" stop-color="#009340"/>
<stop offset="1" stop-color="#00A547"/>
</linearGradient>
<clipPath id="clip0_8346_143363">
<rect width="375" height="468" fill="white"/>
</clipPath>
</defs>
</svg>
