<svg width="180" height="180" viewBox="0 0 180 180" fill="none" xmlns="http://www.w3.org/2000/svg">
<g opacity="0.3" clip-path="url(#clip0_6790_209446)">
<path d="M0.324707 13.6695C0.324707 9.17335 0.324707 4.67715 0.324707 0.180324C60.3118 0.179688 120.299 0.179688 180.305 0.179688C180.305 60.1601 180.305 120.142 180.305 180.151C120.325 180.151 60.3247 180.151 0.324707 180.151C0.324707 176.259 0.324707 172.354 0.427109 168.369C3.73631 168.362 6.95373 168.556 10.1468 168.472C13.0852 168.396 16.0415 168.121 18.9088 167.748C21.8741 167.362 24.7579 166.778 27.6451 166.23C29.0708 165.959 30.4912 165.637 31.7919 165.224C33.1868 164.781 34.4384 164.203 35.8764 163.68C36.3604 163.632 36.8238 163.652 37.065 163.535C40.4112 161.916 43.7364 160.284 47.0433 158.641C47.8632 158.234 48.6452 157.798 49.3653 157.338C51.5495 155.942 53.7113 154.536 55.8389 153.115C56.1846 152.884 56.3121 152.555 56.654 152.27C57.2141 152.085 57.7351 151.937 58.0934 151.712C59.2509 150.986 60.3485 150.231 61.5801 149.477C62.775 148.75 63.8758 148.04 64.9319 147.311C65.2325 147.104 65.4035 146.84 65.7384 146.585C66.4472 146.188 67.0312 145.799 67.6608 145.433C68.611 144.88 69.593 144.343 70.6714 143.779C71.1013 143.512 71.4068 143.259 71.7444 143.02C72.7335 142.318 73.7354 141.623 74.8379 140.912C76.5765 139.927 78.2094 138.955 79.8853 137.92C80.0863 137.708 80.2002 137.536 80.4093 137.412C82.0029 136.466 83.6606 135.552 85.2106 134.586C87.5607 133.121 89.9039 131.65 92.1291 130.129C93.9135 128.91 95.7192 127.675 97.1505 126.331C98.8184 124.765 100.164 123.091 101.512 121.43C102.971 119.634 103.921 117.743 104.311 115.787C104.76 113.534 105.155 111.287 104.854 109C104.527 106.518 103.754 104.1 102.25 101.768C100.993 99.8197 99.635 97.8863 97.3585 96.186C95.8825 95.0836 94.722 93.854 93.2224 92.7626C92.2195 92.0327 90.8991 91.4279 89.6678 90.798C87.6026 89.7416 85.5976 88.6384 83.3772 87.6872C81.0137 86.6747 78.3608 85.8658 75.9589 84.8776C72.9775 83.6509 70.3171 82.2472 67.8334 80.6951C64.2697 78.4681 61.5318 76.0131 59.447 73.3188C57.5465 70.8627 56.4632 68.2873 55.8962 65.6386C55.2846 62.7821 55.5968 59.9432 56.6419 57.1483C57.4063 55.104 58.6229 53.1103 59.6334 51.0933C60.7453 48.8741 61.869 46.6565 62.9562 44.4337C64.036 42.2258 65.1407 40.0205 66.1111 37.798C66.7022 36.4439 67.378 35.064 67.4446 33.6875C67.5332 31.8546 67.4113 29.9754 66.7469 28.1863C65.98 26.1209 64.8438 24.0534 63.2669 22.1342C61.9926 20.5832 59.8944 19.2239 58.0326 17.831C56.7995 16.9085 55.4595 16.007 53.9445 15.2249C52.4983 14.4785 50.7254 13.9248 49.163 13.2408C45.4225 11.6033 41.0371 10.6491 36.5322 9.97516C31.2466 9.18437 25.7785 8.99546 20.2904 9.40401C14.4295 9.8403 8.94719 10.8247 3.98105 12.6228C2.84011 13.0359 1.54751 13.3239 0.324707 13.6695Z" fill="white"/>
<path d="M0.324707 154.441C0.324706 123.312 0.324706 92.1837 0.433655 60.9416C0.686855 60.5163 0.877999 60.2086 0.967927 59.8922C1.68071 57.3847 2.37306 54.8754 3.07391 52.3669C4.98124 45.5401 6.9302 38.7166 8.7763 31.8848C9.44914 29.3949 10.7703 27.1143 14.503 25.3984C17.1764 25.4352 19.1277 26.1999 20.9298 27.0464C25.4148 29.1532 27.5242 31.8406 26.7099 35.0639C26.3221 36.5991 25.4142 38.0964 24.7071 39.606C23.3271 42.5527 21.8594 45.4875 20.5445 48.4427C18.9159 52.103 17.2527 55.7621 15.8887 59.453C14.5983 62.9447 14.858 66.4975 15.6884 70.0056C16.7829 74.629 19.1209 79.089 23.1574 83.2134C25.4374 85.543 27.8862 87.863 30.8265 89.9486C33.6661 91.9627 37.1168 93.7385 40.5219 95.4897C42.9762 96.7519 45.7362 97.8468 48.4693 98.9343C51.2831 100.054 54.3824 100.922 56.7482 102.409C60.2916 104.638 62.9936 107.05 63.9012 109.992C64.922 113.301 64.4388 116.505 61.858 119.6C59.8465 122.012 56.4951 123.864 53.4522 125.846C50.6495 127.671 47.7305 129.443 44.8739 131.243C42.8232 132.536 40.8074 133.845 38.746 135.132C36.0929 136.789 33.384 138.42 30.7479 140.084C28.5943 141.444 26.5347 142.849 24.393 144.214C21.5938 145.999 18.7998 147.788 15.9183 149.533C13.7187 150.865 11.3963 152.137 9.10858 153.425C8.26434 153.9 7.36319 154.345 6.34045 154.816C4.23684 154.699 2.28077 154.57 0.324707 154.441Z" fill="#00862B"/>
<path d="M14.3767 25.3962C10.7705 27.1096 9.44933 29.3901 8.77649 31.88C6.93038 38.7118 4.98142 45.5353 3.07409 52.3621C2.37324 54.8707 1.6809 57.3799 0.968112 59.8874C0.878183 60.2038 0.68704 60.5116 0.43384 60.8546C0.324891 45.9119 0.324891 30.9377 0.445374 15.8691C5.54343 14.812 10.675 14.3095 15.9507 14.4013C17.6618 14.431 19.3575 14.7251 20.9592 14.9361C15.6949 15.3873 10.9726 16.4163 6.6878 18.0364C5.0836 18.6429 4.58477 19.4293 5.11422 20.3263C5.94889 21.7405 8.5267 22.0661 11.2082 21.0741C16.2302 19.2163 21.7615 18.4542 27.7877 18.7403C30.8673 18.8865 32.1712 18.3415 32.7667 16.6953C36.5068 17.6528 39.756 18.9016 42.708 20.3941C43.9535 21.0239 45.2752 21.6087 46.5162 22.2765C45.5572 23.1201 45.6475 23.861 46.5899 24.6371C50.093 27.5217 51.6437 30.6809 51.0762 34.1533C50.7583 36.098 52.646 36.9308 56.1471 36.5567C56.1529 39.5313 55.0395 42.3359 53.5912 45.108C53.1571 45.9389 52.6205 46.7539 52.0832 47.5117C51.5704 46.3443 50.423 45.7127 48.7746 45.6522C47.0512 45.5889 45.5736 46.1247 45.0996 47.1653C43.3824 50.9359 41.746 54.7175 40.1029 58.498C39.7083 59.4058 40.0735 60.2102 41.553 60.7597C42.9745 61.2876 44.4071 61.1505 45.7989 60.7628C45.2645 62.9945 44.5871 65.1467 44.2589 67.3147C44.1078 68.3133 44.6401 69.3428 44.7753 70.3958C42.3051 70.8597 41.4244 71.7055 42.117 73.0236C44.1296 76.8538 47.2988 80.3828 51.4136 83.6705C52.45 84.4985 53.71 84.9713 55.5789 84.9741C55.7149 85.1921 55.771 85.3879 55.978 85.502C58.312 86.7886 60.5442 88.1429 63.0622 89.313C64.8744 90.1551 67.0759 90.7472 69.1056 91.5171C68.9526 92.5385 69.729 93.1773 71.1849 93.7033C76.3994 95.5871 80.6548 97.9785 83.676 100.992C84.6257 101.939 85.8934 102.594 88.058 102.517C88.6177 103.407 89.2766 104.213 89.7153 105.054C90.8338 107.197 91.8541 109.355 92.7725 111.508C89.824 111.388 88.4864 111.889 88.1177 113.359C87.2137 116.966 84.8097 120.227 80.8995 123.172C79.9762 123.867 79.8526 124.648 80.82 125.393C82.4504 126.648 85.4458 126.555 87.068 125.075C89.1352 123.19 90.9305 121.215 92.9327 119.328C93.0491 119.633 93.1766 119.9 93.0857 120.143C92.5692 121.525 92.1301 122.922 91.425 124.276C89.3766 128.21 85.8878 131.724 80.9568 134.82C79.7817 135.557 78.9324 136.45 77.8342 137.243C71.8593 134.72 65.9833 132.225 60.129 129.67C60.9169 129.053 61.6312 128.472 62.4585 127.944C66.0281 125.664 69.6633 123.415 73.2141 121.127C78.9118 117.455 80.8822 113.197 79.518 108.484C78.4081 104.65 74.9596 101.5 69.4345 99.0834C66.7524 97.9101 63.7297 96.9717 60.9976 95.8297C54.93 93.2934 49.4514 90.4473 45.0063 87.0022C42.0074 84.678 39.3056 82.2772 37.2149 79.6895C29.9934 70.7507 28.584 61.5403 33.1882 52.0782C36.022 46.2545 38.8639 40.432 41.7051 34.6094C42.9645 32.0285 42.5885 29.5114 39.9154 27.2762C35.8796 23.9014 30.0765 22.3903 22.6779 23.0775C19.5223 23.3706 16.5632 24.0041 14.3767 25.3962Z" fill="#666068"/>
<path d="M69.1036 91.454C67.0757 90.7503 64.8742 90.1583 63.062 89.3161C60.5441 88.146 58.3119 86.7917 55.9778 85.5052C55.7709 85.3911 55.7148 85.1953 55.688 84.9497C58.4399 84.2291 59.1917 83.0868 57.5712 81.7723C53.7949 78.709 50.7413 75.4691 48.8773 71.9061C48.3127 70.8267 46.8508 70.3723 44.8623 70.3615C44.6399 69.346 44.1076 68.3165 44.2587 67.3178C44.5869 65.1498 45.2643 62.9977 45.8522 60.7123C46.2953 60.1121 46.8032 59.6557 47.0456 59.1606C47.364 58.5103 47.3893 57.8181 47.6869 57.1638C49.1415 53.9654 50.6447 50.7736 52.1307 47.5794C52.6203 46.7571 53.1569 45.9421 53.591 45.1111C55.0394 42.3391 56.1527 39.5344 56.2181 36.5168C56.8639 35.899 57.8522 35.4226 57.9735 34.8875C58.9653 30.5118 57.2066 26.4526 52.7542 22.7724C50.9008 21.2405 49.2223 21.13 46.5621 22.217C45.275 21.6118 43.9533 21.027 42.7078 20.3972C39.7558 18.9047 36.5066 17.6559 32.7286 16.6327C32.134 15.4373 30.746 14.9287 28.7684 14.9026C26.2004 14.8689 23.6297 14.8989 21.0601 14.9014C19.3573 14.7282 17.6616 14.4342 15.9505 14.4044C10.6748 14.3127 5.54325 14.8151 0.44519 15.789C0.324707 15.1448 0.324707 14.4893 0.324707 13.752C1.54751 13.3246 2.84011 13.0365 3.98105 12.6234C8.94719 10.8254 14.4295 9.84096 20.2904 9.40466C25.7785 8.99612 31.2466 9.18502 36.5322 9.97582C41.0371 10.6498 45.4225 11.6039 49.163 13.2415C50.7254 13.9255 52.4983 14.4791 53.9445 15.2256C55.4595 16.0076 56.7995 16.9092 58.0326 17.8317C59.8944 19.2245 61.9926 20.5839 63.2669 22.1349C64.8438 24.0541 65.98 26.1215 66.7469 28.1869C67.4113 29.9761 67.5332 31.8553 67.4446 33.6881C67.378 35.0647 66.7022 36.4445 66.1111 37.7986C65.1407 40.0211 64.036 42.2264 62.9562 44.4343C61.869 46.6572 60.7453 48.8747 59.6334 51.094C58.6229 53.1109 57.4063 55.1046 56.6419 57.1489C55.5968 59.9438 55.2846 62.7828 55.8962 65.6392C56.4632 68.2879 57.5465 70.8634 59.447 73.3195C61.5318 76.0138 64.2697 78.4688 67.8334 80.6957C70.3171 82.2479 72.9775 83.6515 75.9589 84.8782C78.3608 85.8665 81.0137 86.6754 83.3772 87.6879C85.5976 88.639 87.6026 89.7423 89.6678 90.7987C90.8991 91.4285 92.2195 92.0334 93.2224 92.7632C94.722 93.8547 95.8825 95.0842 97.3585 96.1866C99.635 97.8869 100.993 99.8204 102.25 101.768C103.754 104.101 104.527 106.518 104.854 109.001C105.155 111.288 104.76 113.534 104.311 115.788C103.921 117.744 102.971 119.635 101.512 121.431C100.164 123.091 98.8184 124.766 97.1505 126.332C95.7192 127.676 93.9135 128.91 92.1291 130.13C89.9039 131.651 87.5607 133.122 85.2106 134.587C83.6606 135.553 82.0029 136.467 80.4093 137.413C80.2002 137.537 80.0863 137.709 79.7738 137.932C79.0571 137.761 78.4951 137.518 77.933 137.274C78.9322 136.453 79.7815 135.56 80.9566 134.823C85.8876 131.728 89.3764 128.213 91.4249 124.279C92.1299 122.925 92.569 121.529 93.0855 120.147C93.1764 119.904 93.0489 119.636 92.9391 119.271C92.9222 119.089 92.9884 119.017 93.131 118.933C93.2264 118.809 93.2455 118.697 93.2687 118.516C93.8426 117.052 94.3798 115.652 94.9916 114.262C95.5231 113.054 94.9172 112.132 92.9136 111.51C91.854 109.358 90.8337 107.2 89.7151 105.057C89.2764 104.217 88.6175 103.411 88.1558 102.487C90.5215 101.887 91.4654 100.749 90.3987 99.635C86.7483 95.8229 81.6092 92.742 74.9358 90.4511C72.333 89.5576 70.4642 89.9096 69.1036 91.454Z" fill="#555057"/>
<path d="M0.324707 154.519C2.28077 154.564 4.23684 154.693 6.49107 154.826C9.56045 154.627 12.3976 154.565 15.0882 154.19C19.7176 153.545 23.7873 152.232 27.056 150.322C30.5744 148.265 33.882 146.101 37.3486 144.031C40.524 145.387 43.651 146.681 46.7351 148.006C49.432 149.164 52.0808 150.355 54.6467 151.567C54.2941 151.716 54.0115 151.813 53.8021 151.945C48.8598 155.056 43.9053 158.161 39.0044 161.292C37.8264 162.044 36.8316 162.882 35.7525 163.681C34.4384 164.2 33.1868 164.778 31.7919 165.221C30.4912 165.634 29.0708 165.955 27.6451 166.226C24.7579 166.774 21.8741 167.359 18.9088 167.745C16.0415 168.118 13.0852 168.392 10.1468 168.469C6.95372 168.553 3.73631 168.359 0.427109 168.284C0.324706 163.722 0.324706 159.162 0.324707 154.519ZM28.9341 159.866C33.1145 158.524 36.8557 156.889 40.0863 154.907C41.6921 153.922 41.6384 152.777 39.895 151.943C38.4514 151.252 36.3485 151.401 34.8683 152.29C30.5743 154.871 25.4901 156.81 19.4541 157.99C18.6557 158.146 17.8107 158.342 17.1983 158.647C16.0632 159.211 15.8863 160.164 16.5848 160.85C17.457 161.708 18.9799 162.141 20.6922 161.793C23.4147 161.238 26.0438 160.547 28.9341 159.866Z" fill="#665F68"/>
<path d="M54.7513 151.537C52.0813 150.36 49.4325 149.169 46.7356 148.011C43.6515 146.686 40.5245 145.392 37.3975 143.98C38.9147 142.975 40.4507 142.075 42.0863 141.21C44.1937 142.076 46.2013 142.906 48.3417 143.792C49.7718 142.883 51.1825 141.986 52.6703 141.041C50.4639 140.079 48.4167 139.187 46.4085 138.235C47.9675 137.259 49.4874 136.343 51.0885 135.469C52.8705 136.232 54.5857 136.944 56.2651 137.68C56.9625 137.986 57.5316 138.076 58.1748 137.639C59.287 136.885 60.4467 136.151 61.7197 135.322C59.5577 134.403 57.4861 133.523 55.4529 132.579C57.0301 131.589 58.5689 130.662 60.1077 129.734C65.9836 132.229 71.8596 134.724 77.8345 137.247C78.4956 137.519 79.0576 137.762 79.7312 137.995C78.2099 138.957 76.577 139.929 74.8109 140.858C74.1637 140.621 73.6497 140.426 73.0898 140.177C71.1863 139.326 69.3286 138.529 67.3581 137.683C65.884 138.623 64.4733 139.522 62.9539 140.49C64.9063 141.296 66.7018 142.037 68.5516 142.828C69.2579 143.186 69.91 143.494 70.562 143.802C69.5935 144.345 68.6115 144.881 67.6612 145.434C67.0317 145.8 66.4477 146.19 65.705 146.531C63.1691 145.469 60.7717 144.446 58.3243 143.402C56.8571 144.335 55.5025 145.197 54.0409 146.126C54.6155 146.404 55.1103 146.659 55.6348 146.894C57.5744 147.762 59.5239 148.624 61.4696 149.489C60.349 150.233 59.2514 150.988 58.0939 151.714C57.7356 151.939 57.2146 152.086 56.6288 152.215C55.9101 151.953 55.3307 151.745 54.7513 151.537Z" fill="#FCFCFC"/>
<path d="M54.6468 151.57C55.3302 151.743 55.9096 151.951 56.5147 152.215C56.3121 152.555 56.1846 152.883 55.8389 153.114C53.7113 154.535 51.5496 155.942 49.3653 157.337C48.6452 157.797 47.8632 158.233 47.0433 158.641C43.7365 160.284 40.4112 161.916 37.0651 163.535C36.8238 163.651 36.3604 163.631 35.8765 163.679C36.8316 162.885 37.8264 162.047 39.0044 161.295C43.9053 158.164 48.8599 155.059 53.8021 151.948C54.0115 151.816 54.2942 151.719 54.6468 151.57Z" fill="#565158"/>
<path d="M61.5803 149.475C59.5235 148.621 57.574 147.759 55.6344 146.89C55.1099 146.655 54.6152 146.4 54.0405 146.123C55.5021 145.193 56.8568 144.332 58.324 143.398C60.7713 144.443 63.1688 145.466 65.6001 146.545C65.4036 146.838 65.2326 147.102 64.9321 147.309C63.8759 148.038 62.7751 148.748 61.5803 149.475Z" fill="#655E67"/>
<path d="M70.6718 143.776C69.9099 143.489 69.2579 143.181 68.6123 142.769C68.8553 142.47 69.0206 142.226 69.3406 142.091C70.693 141.521 71.0983 140.374 73.1356 140.227C73.6497 140.421 74.1637 140.616 74.7052 140.866C73.7358 141.619 72.7339 142.315 71.7448 143.016C71.4073 143.256 71.1018 143.508 70.6718 143.776Z" fill="#585359"/>
<path d="M60.1289 129.669C58.5685 130.657 57.0297 131.584 55.3741 132.606C53.8404 133.608 52.4236 134.515 51.0068 135.422C49.4869 136.338 47.9671 137.254 46.3148 138.253C45.3637 138.837 44.5129 139.324 43.7362 139.844C43.1067 140.265 42.5662 140.726 41.9863 141.169C40.4503 142.069 38.9143 142.97 37.33 143.926C33.8821 146.1 30.5744 148.265 27.056 150.322C23.7874 152.232 19.7176 153.545 15.0883 154.19C12.3977 154.565 9.56051 154.626 6.63867 154.814C7.36325 154.339 8.26439 153.894 9.10863 153.419C11.3963 152.131 13.7188 150.859 15.9183 149.527C18.7998 147.782 21.5939 145.994 24.3931 144.209C26.5347 142.843 28.5944 141.439 30.7479 140.079C33.3841 138.414 36.093 136.783 38.746 135.127C40.8074 133.839 42.8232 132.53 44.8739 131.237C47.7306 129.437 50.6496 127.665 53.4523 125.84C56.4952 123.859 59.8466 122.006 61.8581 119.594C64.4389 116.5 64.922 113.296 63.9013 109.987C62.9937 107.044 60.2916 104.632 56.7482 102.404C54.3825 100.916 51.2832 100.048 48.4693 98.9285C45.7363 97.841 42.9762 96.7461 40.5219 95.4839C37.1168 93.7327 33.6661 91.9569 30.8265 89.9428C27.8863 87.8572 25.4374 85.5372 23.1574 83.2076C19.1209 79.0832 16.7829 74.6232 15.6885 69.9998C14.858 66.4917 14.5984 62.9389 15.8888 59.4472C17.2528 55.7563 18.916 52.0972 20.5446 48.4369C21.8594 45.4817 23.3272 42.5469 24.7072 39.6002C25.4142 38.0906 26.3222 36.5933 26.71 35.0581C27.5242 31.8348 25.4149 29.1474 20.9298 27.0406C19.1277 26.1941 17.1765 25.4294 14.503 25.3926C16.5631 24.0031 19.5221 23.3695 22.6778 23.0765C30.0763 22.3893 35.8794 23.9004 39.9152 27.2752C42.5883 29.5104 42.9643 32.0274 41.7049 34.6084C38.8638 40.431 36.0219 46.2535 33.1881 52.0772C28.5838 61.5392 29.9932 70.7497 37.2148 79.6884C39.3055 82.2762 42.0073 84.677 45.0061 87.0012C49.4513 90.4463 54.9298 93.2924 60.9974 95.8287C63.7296 96.9707 66.7523 97.9091 69.4344 99.0823C74.9595 101.499 78.408 104.649 79.5178 108.483C80.8821 113.196 78.9116 117.454 73.214 121.126C69.6631 123.414 66.028 125.663 62.4584 127.943C61.6311 128.471 60.9168 129.052 60.1289 129.669Z" fill="#00862B"/>
<path d="M69.1055 91.5181C70.4643 89.9074 72.333 89.5554 74.9358 90.4489C81.6092 92.7398 86.7483 95.8207 90.3987 99.6328C91.4654 100.747 90.5215 101.885 88.1547 102.416C85.8932 102.595 84.6256 101.94 83.6758 100.993C80.6546 97.9794 76.3993 95.588 71.1847 93.7042C69.7288 93.1782 68.9524 92.5394 69.1055 91.5181Z" fill="#F3F1F3"/>
<path d="M44.7754 70.3995C46.8511 70.3729 48.313 70.8273 48.8777 71.9067C50.7416 75.4697 53.7952 78.7096 57.5715 81.7729C59.192 83.0874 58.4402 84.2297 55.6784 84.8902C53.7101 84.9751 52.4501 84.5023 51.4137 83.6743C47.2989 80.3866 44.1297 76.8576 42.1172 73.0274C41.4246 71.7093 42.3052 70.8634 44.7754 70.3995Z" fill="#F3F2F3"/>
<path d="M20.9593 14.934C23.6299 14.8937 26.2007 14.8637 28.7686 14.8974C30.7463 14.9235 32.1342 15.4321 32.6247 16.6142C32.1713 18.3394 30.8673 18.8845 27.7878 18.7382C21.7616 18.4521 16.2302 19.2142 11.2083 21.072C8.52677 22.064 5.94896 21.7384 5.11429 20.3243C4.58484 19.4273 5.08367 18.6409 6.68786 18.0343C10.9726 16.4142 15.695 15.3852 20.9593 14.934Z" fill="#F3F2F3"/>
<path d="M52.0834 47.513C50.645 50.7717 49.1418 53.9635 47.6873 57.162C47.3897 57.8163 47.3644 58.5085 47.046 59.1587C46.8035 59.6539 46.2957 60.1102 45.8523 60.6375C44.4073 61.1518 42.9747 61.2889 41.5532 60.761C40.0736 60.2115 39.7085 59.4071 40.1031 58.4993C41.7462 54.7188 43.3825 50.9372 45.0998 47.1667C45.5737 46.126 47.0513 45.5902 48.7748 45.6535C50.4231 45.714 51.5706 46.3456 52.0834 47.513Z" fill="#F3F2F3"/>
<path d="M93.0545 118.943C92.9883 119.015 92.9221 119.087 92.8493 119.22C90.9303 121.217 89.1349 123.191 87.0677 125.077C85.4455 126.556 82.4501 126.649 80.8197 125.394C79.8524 124.649 79.9759 123.869 80.8992 123.173C84.8095 120.228 87.2134 116.968 88.1175 113.361C88.4861 111.89 89.8237 111.389 92.7722 111.509C94.9171 112.13 95.523 113.052 94.9915 114.26C94.3797 115.65 93.8425 117.05 93.1909 118.544C93.0908 118.742 93.0727 118.842 93.0545 118.943Z" fill="#F3F2F3"/>
<path d="M46.5158 22.2798C49.2222 21.1301 50.9007 21.2406 52.7541 22.7726C57.2064 26.4527 58.9652 30.5119 57.9733 34.8876C57.852 35.4227 56.8637 35.8991 56.2061 36.4457C52.6457 36.9341 50.758 36.1013 51.0759 34.1566C51.6434 30.6842 50.0927 27.525 46.5896 24.6403C45.6471 23.8642 45.5569 23.1234 46.5158 22.2798Z" fill="#F3F2F3"/>
<path d="M93.1313 118.929C93.0731 118.84 93.0913 118.74 93.1872 118.609C93.2458 118.692 93.2268 118.805 93.1313 118.929Z" fill="#666068"/>
<path d="M28.8237 159.888C26.0442 160.546 23.4151 161.237 20.6927 161.791C18.9803 162.139 17.4575 161.706 16.5852 160.849C15.8868 160.162 16.0636 159.21 17.1988 158.645C17.8111 158.341 18.6561 158.144 19.4545 157.988C25.4906 156.809 30.5747 154.869 34.8687 152.289C36.349 151.399 38.4519 151.251 39.8955 151.941C41.6389 152.775 41.6925 153.921 40.0867 154.906C36.8562 156.887 33.115 158.522 28.8237 159.888Z" fill="#F3F2F3"/>
<path d="M51.0884 135.467C52.424 134.518 53.8408 133.611 55.336 132.672C57.486 133.521 59.5576 134.401 61.7196 135.32C60.4466 136.149 59.2869 136.883 58.1747 137.638C57.5315 138.074 56.9625 137.984 56.265 137.678C54.5856 136.942 52.8704 136.23 51.0884 135.467Z" fill="#6B646C"/>
<path d="M42.0859 141.204C42.5662 140.726 43.1067 140.265 43.7362 139.844C44.5129 139.324 45.3637 138.837 46.2757 138.312C48.4162 139.181 50.4635 140.074 52.6699 141.036C51.1821 141.981 49.7713 142.878 48.3413 143.786C46.2009 142.901 44.1933 142.07 42.0859 141.204Z" fill="#69636B"/>
<path d="M73.0895 140.173C71.0981 140.376 70.6928 141.522 69.3403 142.092C69.0204 142.227 68.8551 142.471 68.5578 142.72C66.7015 142.033 64.906 141.292 62.9536 140.486C64.4731 139.518 65.8837 138.619 67.3578 137.68C69.3283 138.525 71.186 139.322 73.0895 140.173Z" fill="#6B646D"/>
</g>
<defs>
<clipPath id="clip0_6790_209446">
<rect width="180" height="180" fill="white"/>
</clipPath>
</defs>
</svg>
