<svg width="180" height="180" viewBox="0 0 180 180" fill="none" xmlns="http://www.w3.org/2000/svg">
<g opacity="0.3" clip-path="url(#clip0_6790_209218)">
<path d="M180.363 86.7506C180.363 117.908 180.363 149.065 180.363 180.236C120.395 180.236 60.4275 180.236 0.362793 180.236C0.362793 136.661 0.362793 93.0719 0.464638 49.2734C1.36197 50.4173 2.25059 51.7484 2.93118 53.1282C3.9586 55.2112 4.84088 57.3281 5.79239 59.5393C6.61096 61.6359 7.39883 63.6283 8.23935 65.6102C9.11887 67.684 10.049 69.7477 11.0357 71.8883C11.7784 73.272 12.5242 74.5666 13.0887 75.8977C14.1489 78.3979 15.095 80.9209 16.1212 83.4281C16.2016 83.6246 16.5363 83.7717 16.7295 84.0442C18.5171 88.3165 20.328 92.4864 22.2611 96.9377C28.7328 93.6209 35.733 91.7539 42.9978 90.0285C44.4232 89.8534 45.6986 89.7138 46.9661 89.5458C49.5318 89.2057 52.0757 88.7588 54.6608 88.5252C57.6625 88.2539 60.7001 88.173 63.7175 87.9764C63.927 87.9627 64.0989 87.6747 64.4543 87.5113C68.7831 87.2579 72.9427 86.9786 77.1096 86.7667C80.107 86.6143 83.1141 86.5518 86.2686 86.4613C88.3693 86.2361 90.3124 85.973 92.2684 85.7681C94.9309 85.4892 97.6216 85.3227 100.266 84.9817C102.805 84.6543 105.301 84.166 107.956 83.7476C108.391 83.7134 108.703 83.7127 108.976 83.6415C111.736 82.9219 114.49 82.1908 117.345 81.532C120.026 87.3184 122.608 93.0356 125.151 98.8459C124.788 99.483 124.398 100.013 124.151 100.573C123.263 102.584 122.459 104.612 121.557 106.62C120.397 109.203 119.128 111.763 117.986 114.35C116.523 117.665 115.127 120.994 113.726 124.322C113.153 125.685 112.709 127.075 112.085 128.426C110.989 130.801 109.785 133.151 108.663 135.519C108.445 135.979 108.47 136.493 108.256 136.953C107.65 138.256 106.966 139.542 106.336 140.84C105.67 142.214 104.807 143.567 104.437 144.979C103.962 146.797 102.242 148.484 103.371 150.505C104.123 151.852 105.912 152.962 107.986 153.007C110.416 153.06 112.405 152.618 113.323 150.899C113.826 149.959 114.269 149.003 114.72 148.05C116.23 144.855 117.76 141.663 119.226 138.458C120.19 136.351 121.064 134.225 121.963 132.105C122.472 130.904 122.905 129.687 123.452 128.495C125.001 125.126 126.586 121.763 128.169 118.401C129.101 116.42 130.058 114.445 131.11 112.53C131.406 113.113 131.562 113.641 131.795 114.152C132.959 116.702 134.152 119.245 135.317 121.794C135.955 123.19 136.557 124.594 137.181 125.992C138.53 129.017 139.893 132.039 141.23 135.066C141.917 136.622 142.527 138.194 143.228 139.746C144.329 142.185 145.445 144.62 146.619 147.042C147.343 148.536 147.942 150.095 149.039 151.455C150.312 153.035 153.399 153.546 155.718 152.675C158.831 151.505 159.37 150.741 158.559 148.261C157.608 145.354 156.395 142.486 155.194 139.622C154.163 137.162 152.978 134.732 151.884 132.284C151.395 131.189 151.004 130.073 150.497 128.982C149.44 126.708 148.272 124.457 147.265 122.172C146.111 119.554 145.154 116.895 143.979 114.281C142.602 111.216 141.064 108.185 139.631 105.131C138.673 103.091 137.776 101.036 136.894 98.8995C137.26 98.1281 137.617 97.4518 137.903 96.7614C138.575 95.1358 139.145 93.4887 139.881 91.8774C140.854 89.7494 141.969 87.6524 142.978 85.5321C143.618 84.1857 144.178 82.8212 144.912 81.4775C145.333 81.5505 145.621 81.6025 145.9 81.6723C148.669 82.3656 151.436 83.0619 154.273 83.8501C155.349 84.1314 156.341 84.3722 157.363 84.4986C160.292 84.8607 163.23 85.1918 166.171 85.5031C167.399 85.6331 168.839 85.4395 169.843 85.8197C171.822 86.5697 173.914 86.1425 176.072 86.4618C177.616 86.5675 178.989 86.6591 180.363 86.7506Z" fill="white"/>
<path d="M0.362794 46.2533C0.362793 30.9282 0.362793 15.6031 0.362793 0.265625C60.3187 0.265625 120.275 0.265625 180.363 0.265625C180.363 11.5917 180.363 22.9303 180.219 34.3872C178.959 34.2554 177.842 34.0053 176.642 33.68C175.796 33.4983 175.005 33.448 174.273 33.2767C168.592 31.9471 163.299 30.045 158.244 27.8544C156.993 27.3124 156.92 27.6539 156.674 28.2657C156.095 29.7068 155.588 31.1628 154.953 32.5918C153.889 34.9842 152.748 37.3603 151.539 39.8062C150.931 41.1242 150.456 42.3862 149.905 43.6321C149.425 44.7177 148.796 45.7728 148.344 46.8632C147.594 48.6728 146.934 50.5 146.101 52.3295C145.581 53.4795 145.195 54.6198 144.675 55.7867C144.217 56.5997 143.895 57.3859 143.455 58.2192C142.367 60.426 141.398 62.5857 140.328 64.809C139.822 65.8101 139.43 66.7507 139.007 67.6844C138.321 69.1966 137.558 70.6934 136.93 72.2167C136.218 73.9431 135.62 75.6916 134.845 77.4717C133.969 79.1391 133.27 80.7774 132.452 82.387C131.958 83.358 131.281 84.2845 130.67 85.1307C129.646 82.5728 128.647 80.1133 127.61 77.6616C127.542 77.5006 127.182 77.3982 126.97 77.1674C125.184 72.9594 123.385 68.8524 121.559 64.6466C121.136 63.5542 120.781 62.552 120.337 61.5689C119.168 58.9808 117.974 56.3979 116.755 53.8208C116.51 53.3023 116.109 52.8188 115.774 52.2122C115.354 51.0913 114.969 50.0711 114.521 49.0644C113.19 46.0742 111.834 43.0892 110.475 40.0184C110.16 39.3729 109.816 38.8201 109.566 38.2478C108.214 35.1523 106.865 32.0562 105.559 28.9517C104.921 27.4361 104.963 27.4261 103.091 28.0728C102.88 28.1456 102.691 28.2485 102.488 28.3333C98.1636 30.1412 93.8255 31.9167 88.8785 32.8531C87.6033 33.0945 86.4341 33.6019 85.0702 33.988C84.5699 34.028 84.2147 34.0635 83.8614 34.1065C77.916 34.8305 71.9708 35.5554 65.8679 36.2703C65.077 36.2698 64.4438 36.2792 63.6529 36.2918C62.05 36.4541 60.6125 36.6813 59.1581 36.7598C53.6188 37.0589 48.074 37.3088 42.5321 37.5853C42.3793 37.593 42.2362 37.6937 41.9352 37.7494C39.7054 37.913 37.6095 38.0032 35.5567 38.2583C30.4476 38.8933 25.3582 39.6033 20.1147 40.2867C16.9128 40.9841 13.8058 41.5886 10.819 42.4026C8.73237 42.9712 6.80442 43.819 4.81666 44.5562C3.32292 45.1103 1.84677 45.6868 0.362794 46.2533Z" fill="white"/>
<path d="M0.362793 46.3682C1.84677 45.6865 3.32292 45.11 4.81666 44.5559C6.80442 43.8187 8.73237 42.9709 10.819 42.4023C13.8058 41.5883 16.9128 40.9838 20.1564 40.375C21.698 43.5889 23.0516 46.7175 24.3856 49.9231C24.4912 50.1702 24.6165 50.3404 24.8185 50.5856C24.9214 50.7802 24.9477 50.8998 24.9124 51.0625C24.9939 51.2402 25.1369 51.3746 25.3267 51.6002C25.4517 51.9423 25.53 52.1932 25.501 52.4825C25.2734 52.6597 25.1531 52.7986 24.904 52.9704C22.3466 53.6017 19.793 54.0321 17.517 54.8356C13.5168 56.2478 9.68638 57.8882 5.78484 59.4331C4.84088 57.3305 3.9586 55.2136 2.93118 53.1306C2.25058 51.7508 1.36197 50.4197 0.464637 49.1599C0.362792 48.3298 0.362792 47.4066 0.362793 46.3682Z" fill="#CBD0D4"/>
<path d="M175.902 86.4487C173.915 86.1437 171.822 86.5708 169.843 85.8208C168.84 85.4407 167.4 85.6342 166.171 85.5042C163.23 85.1929 160.292 84.8618 157.363 84.4997C156.341 84.3733 155.349 84.1325 154.353 83.776C155.447 81.2399 156.53 78.8717 157.731 76.4699C157.933 76.2262 158.019 76.0162 158.076 75.7143C158.623 74.333 159.198 73.0435 159.904 71.754C160.513 71.6806 160.992 71.6072 161.611 71.5234C162.752 71.694 163.754 71.8749 164.785 72.128C165.156 72.2205 165.499 72.2407 165.989 72.2493C166.522 72.2838 166.908 72.3302 167.349 72.4516C167.707 72.5726 168.009 72.6186 168.435 72.634C168.985 72.6593 169.412 72.7152 169.87 72.8509C170.366 72.9518 170.83 72.9729 171.449 72.9787C172.224 73.0057 172.845 73.0478 173.502 73.1624C173.991 73.2557 174.442 73.2765 175.046 73.2767C176.92 73.4213 178.641 73.5865 180.363 73.7517C180.363 74.8409 180.363 75.9302 180.261 77.0536C179.67 77.9101 179.078 78.7113 178.712 79.5587C177.724 81.8448 176.832 84.1507 175.902 86.4487Z" fill="#CFD4D8"/>
<path d="M169.838 72.7678C169.411 72.7119 168.985 72.656 168.37 72.5624C167.886 72.4742 167.59 72.4237 167.294 72.3732C166.908 72.3269 166.521 72.2806 165.901 72.1923C165.364 72.1178 165.06 72.0852 164.756 72.0526C163.754 71.8717 162.751 71.6907 161.539 71.4448C160.858 71.2526 160.387 71.1253 159.985 70.9164C160.267 70.2989 160.48 69.7631 160.789 69.1954C160.937 69.025 160.989 68.8864 161.09 68.6582C161.296 68.0277 161.452 67.4867 161.714 66.903C161.908 66.6562 161.999 66.4521 162.146 66.1718C162.219 65.9829 162.234 65.8702 162.328 65.7109C162.443 65.5256 162.479 65.3869 162.572 65.1632C162.846 64.5492 163.063 64.0201 163.37 63.4527C163.504 63.2755 163.547 63.1368 163.634 62.908C164.062 62.0465 164.445 61.2751 164.924 60.4897C165.038 60.3134 165.057 60.151 165.085 59.9051C165.15 59.717 165.205 59.6125 165.362 59.4861C165.593 59.3029 165.723 59.1416 166.004 58.9688C166.628 59.0157 167.103 59.0733 167.576 59.133C171.838 59.6713 176.1 60.2099 180.363 60.7485C180.363 65.0037 180.363 69.2589 180.363 73.6313C178.641 73.5832 176.919 73.418 174.959 73.2095C174.302 73.1397 173.883 73.1132 173.464 73.0867C172.844 73.0446 172.224 73.0024 171.345 72.9252C170.671 72.8494 170.254 72.8086 169.838 72.7678Z" fill="#00862B"/>
<path d="M180.363 60.6298C176.1 60.2084 171.838 59.6698 167.576 59.1315C167.102 59.0717 166.628 59.0142 165.961 58.882C165.699 58.6976 165.632 58.5869 165.642 58.3889C166.041 57.4211 166.363 56.5406 166.785 55.616C166.988 55.3776 167.091 55.1835 167.232 54.9094C167.276 54.718 167.282 54.6065 167.355 54.4414C167.477 54.2556 167.532 54.1234 167.644 53.9031C168.583 51.8762 169.467 49.9375 170.463 47.9631C170.657 47.7209 170.739 47.5144 170.796 47.2244C170.868 46.9258 170.966 46.7109 171.103 46.5C171.142 46.5041 171.22 46.5108 171.363 46.5129C174.458 46.9256 177.41 47.3363 180.363 47.7469C180.363 52.0022 180.363 56.2574 180.363 60.6298Z" fill="#CDD2D6"/>
<path d="M180.363 47.6308C177.411 47.3373 174.459 46.9267 171.377 46.411C171.303 46.0196 171.3 45.7208 171.423 45.4488C173.181 41.5471 174.955 37.649 176.726 33.75C177.843 34 178.959 34.2501 180.22 34.499C180.363 38.8366 180.363 43.1751 180.363 47.6308Z" fill="#00862B"/>
<path d="M176.072 86.465C176.832 84.1527 177.724 81.8469 178.712 79.5608C179.078 78.7134 179.669 77.9122 180.26 77.1719C180.363 80.3424 180.363 83.4309 180.363 86.6366C178.989 86.6623 177.616 86.5707 176.072 86.465Z" fill="#00862B"/>
<path d="M130.686 85.2267C131.281 84.2802 131.959 83.3537 132.452 82.3828C133.27 80.7731 133.969 79.1348 134.981 77.4766C137.083 78.1968 138.933 78.9381 140.759 79.7052C142.113 80.2739 143.437 80.876 144.775 81.4632C144.179 82.8196 143.619 84.1842 142.978 85.5305C141.969 87.6509 140.854 89.7478 139.882 91.8759C139.145 93.4872 138.575 95.1342 137.903 96.7598C137.618 97.4502 137.26 98.1265 136.765 98.9267C136.462 99.1241 136.253 99.1878 136.208 99.2867C134.969 102.037 133.674 104.778 132.547 107.55C131.892 109.162 131.51 110.826 131.005 112.466C130.059 114.444 129.102 116.419 128.169 118.399C126.586 121.762 125.002 125.124 123.453 128.494C122.905 129.686 122.473 130.902 121.963 132.103C121.064 134.223 120.19 136.349 119.226 138.456C117.76 141.662 116.23 144.853 114.72 148.049C114.27 149.002 113.826 149.957 113.324 150.897C112.405 152.617 110.416 153.059 107.986 153.006C105.912 152.96 104.123 151.85 103.371 150.504C102.242 148.483 103.962 146.796 104.438 144.978C104.807 143.565 105.67 142.213 106.337 140.839C106.966 139.54 107.651 138.255 108.256 136.952C108.471 136.491 108.446 135.977 108.663 135.518C109.785 133.149 110.989 130.799 112.085 128.425C112.709 127.074 113.153 125.683 113.727 124.32C115.128 120.993 116.523 117.663 117.986 114.348C119.128 111.762 120.397 109.201 121.558 106.618C122.46 104.611 123.264 102.582 124.151 100.572C124.398 100.012 124.788 99.4814 125.28 98.8174C125.575 98.6132 125.773 98.5442 125.819 98.4426C127.449 94.8078 129.114 91.1796 130.64 87.524C130.937 86.814 130.685 85.9953 130.686 85.2267Z" fill="#00862B"/>
<path d="M131.11 112.529C131.51 110.826 131.892 109.162 132.547 107.551C133.675 104.778 134.969 102.038 136.208 99.2869C136.253 99.1881 136.462 99.1244 136.723 99.0156C137.776 101.035 138.673 103.089 139.631 105.13C141.064 108.184 142.602 111.215 143.98 114.28C145.154 116.893 146.111 119.553 147.266 122.171C148.273 124.456 149.44 126.707 150.498 128.981C151.005 130.072 151.395 131.188 151.884 132.283C152.978 134.731 154.163 137.16 155.195 139.621C156.395 142.485 157.608 145.353 158.559 148.259C159.371 150.74 158.832 151.504 155.719 152.674C153.4 153.545 150.312 153.033 149.039 151.454C147.942 150.093 147.343 148.534 146.619 147.041C145.445 144.619 144.33 142.183 143.229 139.745C142.528 138.193 141.917 136.62 141.23 135.065C139.894 132.037 138.53 129.016 137.181 125.991C136.557 124.592 135.956 123.189 135.318 121.793C134.152 119.244 132.959 116.7 131.795 114.151C131.562 113.64 131.406 113.112 131.11 112.529Z" fill="#00862B"/>
<path d="M42.8446 90.0463C35.7334 91.7492 28.7332 93.6162 22.2615 96.933C20.3284 92.4817 18.5175 88.3118 16.8486 84.0238C21.0887 82.3915 25.1341 80.8033 29.3055 79.3919C31.6435 78.6008 34.1902 78.1022 36.7532 77.5156C37.084 77.8598 37.3044 78.1602 37.5157 78.556C38.7568 81.503 39.9812 84.36 41.2717 87.2028C41.7103 88.1691 42.3155 89.0995 42.8446 90.0463Z" fill="#00862B"/>
<path d="M36.6429 77.4736C34.1902 78.1039 31.6436 78.6025 29.3056 79.3936C25.1342 80.805 21.0888 82.3932 16.872 83.9231C16.5368 83.7687 16.2021 83.6216 16.1216 83.4251C15.0955 80.9179 14.1493 78.3949 13.0891 75.8947C12.5247 74.5636 11.7789 73.269 11.1562 71.8606C15.6874 70.0684 20.1773 68.3733 24.786 66.6867C25.152 66.5728 25.3991 66.4506 25.7769 66.3298C26.5827 66.1977 27.2579 66.064 28.0505 65.933C28.4207 65.8206 28.6736 65.7056 29.051 65.6003C29.7311 65.4803 30.2867 65.3506 30.976 65.234C31.2723 65.2026 31.4349 65.1581 31.5723 65.2146C31.7041 65.7076 31.861 66.0996 32.009 66.574C32.1799 66.8279 32.3595 66.9995 32.516 67.2642C32.926 68.3869 33.3553 69.4173 33.793 70.4459C34.7527 72.7011 35.7166 74.9553 36.665 77.2755C36.6485 77.3853 36.6457 77.4294 36.6429 77.4736Z" fill="#CCD1D5"/>
<path d="M42.9981 90.0244C42.3154 89.1001 41.7102 88.1697 41.2715 87.2034C39.981 84.3606 38.7566 81.5036 37.5684 78.5045C37.9121 78.0072 38.1939 77.6575 38.6142 77.2837C39.7588 77.1125 40.7649 76.9656 41.8603 76.8666C42.3645 76.7953 42.7793 76.6761 43.3253 76.5316C43.7278 76.5003 43.9991 76.4943 44.3433 76.5438C44.7348 76.5041 45.0534 76.4088 45.5021 76.2787C46.1835 76.2157 46.7349 76.1876 47.4257 76.1843C48.046 76.1087 48.5269 76.0084 49.1479 75.8716C49.6843 75.8288 50.0808 75.8224 50.5859 75.8676C51.4597 75.7918 52.2248 75.6644 53.1456 75.513C54.9889 75.3783 56.6764 75.2675 58.4134 75.2188C58.6323 75.3539 58.8017 75.4269 59.0292 75.5921C59.4014 76.5517 59.7156 77.4193 59.9986 78.3761C60.144 78.6429 60.3205 78.8204 60.5434 79.0895C61.8227 81.9574 63.0556 84.7338 64.2885 87.5102C64.0991 87.6706 63.9273 87.9586 63.7177 87.9723C60.7003 88.1689 57.6627 88.2498 54.661 88.5211C52.0759 88.7547 49.532 89.2016 46.9664 89.5417C45.6989 89.7097 44.4235 89.8494 42.9981 90.0244Z" fill="#CFD4D8"/>
<path d="M24.6668 66.68C20.1769 68.375 15.6871 70.07 11.0771 71.7897C10.0491 69.7463 9.11896 67.6827 8.23944 65.6088C7.39892 63.627 6.61105 61.6345 5.79248 59.538C9.68647 57.8844 13.5169 56.244 17.5171 54.8318C19.7931 54.0283 22.3466 53.5979 25.033 52.9766C25.6435 53.0973 25.9962 53.241 26.3506 53.4784C26.5616 54.1286 26.7709 54.6851 26.9676 55.3146C27.0834 55.4984 27.2118 55.6092 27.3377 55.8116C27.5596 56.4339 27.7838 56.9644 27.9993 57.5684C28.106 57.7586 28.2213 57.8752 28.3403 58.0787C28.4036 58.2734 28.4633 58.3812 28.4965 58.5653C28.6282 58.8094 28.7863 58.9772 28.9364 59.2388C29.1305 59.8853 29.3325 60.4381 29.5351 61.0687C29.6909 61.3219 29.846 61.4972 29.9824 61.7654C30.3105 62.7683 30.6573 63.6785 30.9625 64.6923C30.8947 64.9382 30.8683 65.0803 30.842 65.2225C30.2863 65.3522 29.7307 65.482 28.9226 65.5813C28.4244 65.6779 28.1786 65.8049 27.9328 65.9319C27.2576 66.0656 26.5823 66.1993 25.6501 66.3166C25.1511 66.4268 24.9089 66.5534 24.6668 66.68Z" fill="#00862B"/>
<path d="M144.912 81.4789C143.437 80.879 142.113 80.2768 140.759 79.7082C138.933 78.9411 137.083 78.1998 135.108 77.4383C135.62 75.6903 136.219 73.9418 136.93 72.2153C137.558 70.6921 138.321 69.1953 139.007 67.6831C139.43 66.7494 139.822 65.8088 140.412 64.8672C141.029 64.9918 141.462 65.1204 141.954 65.2968C142.164 65.408 142.315 65.4716 142.528 65.6C142.842 65.7604 143.095 65.856 143.444 66.0062C144.392 66.3863 145.242 66.7119 146.15 67.1122C146.706 67.3637 147.204 67.5405 147.804 67.7594C148.47 67.9779 149.033 68.1543 149.672 68.3965C150.033 68.5453 150.319 68.6283 150.682 68.7452C150.879 68.7829 150.999 68.7869 151.194 68.8634C151.894 69.1082 152.52 69.2803 153.255 69.4888C153.819 69.6158 154.274 69.7066 154.791 69.8684C155.13 70.0174 155.408 70.0954 155.815 70.2118C157.184 70.5017 158.426 70.7532 159.694 71.0977C159.739 71.3786 159.757 71.5665 159.774 71.7543C159.198 73.0438 158.622 74.3332 157.977 75.7615C157.81 76.1015 157.712 76.3027 157.614 76.5038C156.53 78.872 155.446 81.2402 154.283 83.6836C151.436 83.0634 148.669 82.367 145.9 81.6737C145.622 81.6039 145.334 81.5519 144.912 81.4789Z" fill="#00862B"/>
<path d="M107.816 83.7508C105.301 84.1684 102.806 84.6568 100.266 84.9842C97.6218 85.3252 94.9311 85.4917 92.2687 85.7706C90.3127 85.9755 88.3695 86.2386 86.2761 86.3671C86.0586 86.007 85.9856 85.7555 85.9243 85.434C85.8276 85.2467 85.7192 85.1294 85.6169 84.926C85.5876 84.7281 85.5522 84.6165 85.5266 84.4249C85.3529 84.1778 85.1694 84.0105 85.011 83.754C84.851 83.1945 84.6659 82.7243 84.4945 82.1803C84.4001 81.9896 84.2919 81.8728 84.1772 81.6671C84.1012 81.4704 84.0316 81.3626 83.992 81.1776C83.8636 80.9286 83.705 80.7568 83.5626 80.493C83.0315 79.102 82.4843 77.8031 81.947 76.4313C81.84 76.2446 81.7229 76.1306 81.6094 75.9256C81.5434 75.7247 81.4739 75.6148 81.4292 75.4297C81.2997 75.1873 81.1454 75.0201 80.9962 74.7766C80.9559 74.5516 80.9104 74.4028 80.8887 74.1506C82.982 73.796 85.0515 73.5448 87.2067 73.3449C87.7123 73.2942 88.1322 73.1924 88.7035 73.0644C89.477 73.0239 90.0992 73.0094 90.7934 73.0501C91.1824 73.0153 91.4996 72.9254 91.9431 72.7886C92.7215 72.6817 93.3736 72.6216 94.0859 72.6005C94.3385 72.5546 94.531 72.4697 94.8617 72.3492C95.3912 72.2958 95.7823 72.278 96.2486 72.314C96.6359 72.2632 96.948 72.1585 97.3956 72.0218C98.5319 71.8396 99.5328 71.6895 100.632 71.5938C101.234 71.684 101.738 71.7199 102.298 71.8438C102.874 73.2238 103.394 74.5156 103.89 75.8962C104.045 76.1584 104.225 76.3318 104.449 76.5994C105.602 79.046 106.709 81.3984 107.816 83.7508Z" fill="#CFD4D8"/>
<path d="M107.957 83.747C106.709 81.3953 105.602 79.0429 104.46 76.5141C104.255 76.16 104.084 75.9823 103.914 75.8045C103.394 74.5126 102.874 73.2207 102.311 71.7416C102.635 71.3341 102.954 71.0293 103.381 70.9094C104.66 70.551 106.055 70.3634 107.274 69.9332C112.072 68.2395 116.82 66.4783 121.586 64.7422C123.385 68.8491 125.184 72.9561 126.85 77.1762C124.192 78.3433 121.656 79.386 119.146 80.4584C118.471 80.7468 117.878 81.1252 117.247 81.4623C114.491 82.1902 111.737 82.9213 108.976 83.6409C108.703 83.7121 108.391 83.7128 107.957 83.747Z" fill="#00862B"/>
<path d="M85.5168 84.5041C85.5522 84.6157 85.5877 84.7274 85.554 84.9693C85.6274 85.2342 85.77 85.3688 85.9126 85.5034C85.9856 85.7548 86.0586 86.0062 86.1244 86.3543C83.1144 86.5535 80.1073 86.616 77.1099 86.7684C72.943 86.9803 68.7834 87.2596 64.4546 87.513C63.0557 84.7396 61.8228 81.9632 60.553 79.0122C60.354 78.6559 60.1919 78.4742 60.0298 78.2926C59.7156 77.4251 59.4015 76.5576 59.0757 75.4974C59.2943 75.1911 59.5159 74.9881 59.7562 74.977C64.1728 74.7721 68.5916 74.5903 73.1562 74.4298C73.7888 74.3423 74.2751 74.2284 74.9219 74.0881C76.1805 74.0362 77.2788 74.0109 78.4804 74.051C79.3441 74.1621 80.1046 74.2078 80.865 74.2534C80.9105 74.4021 80.9559 74.5508 80.9877 74.8547C81.1175 75.1746 81.2609 75.3393 81.4043 75.504C81.4739 75.614 81.5434 75.724 81.5476 75.9699C81.6339 76.2383 81.7855 76.3708 81.937 76.5034C82.4843 77.8023 83.0315 79.1013 83.5505 80.5736C83.6688 80.916 83.8154 81.085 83.962 81.2541C84.0316 81.3619 84.1012 81.4696 84.1097 81.7096C84.1927 81.979 84.3367 82.1161 84.4808 82.2533C84.6659 82.7235 84.851 83.1937 85.004 83.8394C85.1534 84.1779 85.3351 84.341 85.5168 84.5041Z" fill="#00862B"/>
<path d="M117.345 81.5275C117.877 81.1213 118.471 80.7429 119.146 80.4544C121.655 79.3821 124.191 78.3394 126.837 77.2734C127.182 77.391 127.542 77.4934 127.61 77.6544C128.647 80.1061 129.646 82.5656 130.669 85.1235C130.684 85.9923 130.936 86.811 130.64 87.5211C129.113 91.1767 127.448 94.8048 125.818 98.4397C125.773 98.5412 125.574 98.6103 125.318 98.7214C122.608 93.0311 120.026 87.3139 117.345 81.5275Z" fill="#00862B"/>
<path d="M85.2163 33.9849C86.4342 33.5998 87.6033 33.0924 88.8786 32.851C93.8256 31.9146 98.1637 30.1392 102.488 28.3312C102.691 28.2464 102.88 28.1435 103.091 28.0707C104.963 27.4241 104.921 27.434 105.559 28.9496C106.865 32.0541 108.214 35.1503 109.566 38.2457C109.816 38.818 110.16 39.3708 110.351 40.0364C104.522 42.7533 98.4364 44.8397 91.8605 46.2299C91.5349 46.2987 91.301 46.5736 90.8796 46.7468C90.5438 46.7189 90.3528 46.6968 90.2512 46.6017C90.3956 46.1124 90.6283 45.6616 90.4755 45.2852C89.7336 43.4575 88.9186 41.6429 88.0715 39.8366C87.1532 37.8786 86.1708 35.9349 85.2163 33.9849Z" fill="#CBD0D4"/>
<path d="M176.643 33.6744C174.955 37.6487 173.181 41.5468 171.423 45.4485C171.3 45.7205 171.303 46.0194 171.234 46.4087C171.22 46.5116 171.143 46.5049 170.998 46.4374C166.484 45.1306 162.041 43.9986 157.776 42.6079C155.569 41.8878 153.676 40.7091 151.641 39.7376C152.749 37.3547 153.89 34.9786 154.953 32.5862C155.589 31.1572 156.096 29.7012 156.675 28.2601C156.92 27.6483 156.994 27.3069 158.244 27.8488C163.299 30.0394 168.593 31.9415 174.273 33.2712C175.005 33.4424 175.796 33.4927 176.643 33.6744Z" fill="#CBD0D4"/>
<path d="M42.0889 37.7481C42.2365 37.6907 42.3795 37.59 42.5323 37.5824C48.0742 37.3059 53.6191 37.056 59.1583 36.7569C60.6128 36.6784 62.0503 36.4511 63.7024 36.375C64.3493 37.188 64.7894 37.9182 65.2108 38.7385C65.3839 39.3005 65.5757 39.7722 65.7614 40.3172C65.8547 40.51 65.9541 40.6296 66.0546 40.8349C66.1152 41.0267 66.1745 41.1328 66.2143 41.3164C66.3545 41.5635 66.5142 41.7331 66.6574 41.9934C66.8432 42.5535 67.0455 43.0228 67.2356 43.5652C67.3315 43.7551 67.4396 43.8718 67.5499 44.0822C67.8076 44.7817 68.063 45.3875 68.3107 46.066C68.4111 46.2561 68.5192 46.3736 68.6191 46.5785C68.672 46.7732 68.7331 46.8806 68.7793 47.0629C68.921 47.3017 69.0776 47.4655 69.2293 47.7179C69.3079 48.0336 69.3914 48.2609 69.4494 48.5786C69.3041 48.8311 69.1842 48.9931 68.9323 49.1282C68.2529 49.1364 67.7055 49.1714 67.0513 49.1757C66.4329 49.2254 65.9213 49.3058 65.2617 49.3564C59.8403 49.6101 54.5651 49.8801 49.2961 50.1988C48.779 50.2301 48.2999 50.5604 47.6785 50.7517C47.183 50.6624 46.8122 50.5734 46.5451 50.4366C47.9252 50.1819 47.3724 49.5931 47.1641 49.1221C45.4855 45.328 43.7836 41.5388 42.0889 37.7481Z" fill="#CCD1D5"/>
<path d="M41.9353 37.75C43.7835 41.5424 45.4854 45.3316 47.1639 49.1257C47.3723 49.5967 47.9251 50.1855 46.3913 50.4221C45.5146 50.4947 44.8954 50.5375 44.1413 50.5668C43.5028 50.6383 42.9994 50.7234 42.3445 50.7829C40.1071 50.942 38.0211 51.1265 35.809 51.2986C35.2866 51.3707 34.8903 51.4551 34.356 51.5294C33.9454 51.551 33.6729 51.5828 33.2742 51.5988C32.6916 51.7087 32.2351 51.8343 31.6478 51.9481C31.1758 51.9832 30.8346 52.0302 30.3781 52.0699C29.9769 52.1331 29.691 52.2035 29.2819 52.2686C28.9993 52.2886 28.8398 52.314 28.5618 52.3258C28.1723 52.4061 27.9011 52.4999 27.4956 52.5841C27.1937 52.6161 27.0261 52.6578 26.7293 52.6778C26.2695 52.5859 25.939 52.5155 25.6084 52.4451C25.5301 52.1942 25.4518 51.9432 25.3398 51.5287C25.1954 51.2501 25.0848 51.1352 24.9741 51.0203C24.9478 50.9007 24.9215 50.7811 24.8418 50.513C24.6607 50.192 24.533 50.0196 24.4054 49.8472C23.0517 46.7185 21.6981 43.5898 20.3027 40.3725C25.3583 39.604 30.4478 38.8939 35.5569 38.259C37.6096 38.0039 39.7056 37.9136 41.9353 37.75Z" fill="#00862B"/>
<path d="M121.559 64.64C116.82 66.475 112.072 68.2362 107.274 69.9299C106.055 70.3601 104.66 70.5477 103.382 70.9061C102.954 71.026 102.635 71.3307 102.254 71.6502C101.738 71.7135 101.234 71.6776 100.709 71.5106C101.117 71.2824 101.545 71.1854 102.05 71.0711C101.707 70.4045 101.373 69.828 101.111 69.2364C99.7398 66.1396 98.4116 63.0335 96.9963 59.9464C96.8138 59.5483 96.2128 59.2413 95.8232 58.8298C95.9583 58.675 96.0757 58.5824 96.3362 58.5302C103.602 57.4926 109.96 55.2967 115.78 52.3125C116.109 52.8122 116.51 53.2957 116.756 53.8142C117.975 56.3913 119.168 58.9742 120.337 61.5623C120.782 62.5454 121.136 63.5476 121.559 64.64Z" fill="#CBD0D4"/>
<path d="M69.4748 48.4874C69.3913 48.2602 69.3079 48.033 69.2477 47.6373C69.112 47.3084 68.9531 47.1478 68.7942 46.9872C68.7331 46.8799 68.672 46.7725 68.6865 46.5353C68.6142 46.2678 68.4662 46.1302 68.3183 45.9926C68.0629 45.3868 67.8076 44.781 67.6153 44.0395C67.5348 43.7663 67.3913 43.6289 67.2478 43.4914C67.0455 43.0221 66.8432 42.5528 66.6781 41.9104C66.5549 41.571 66.3943 41.4045 66.2338 41.2381C66.1745 41.1321 66.1151 41.026 66.1267 40.793C66.0542 40.5251 65.9108 40.3842 65.7674 40.2433C65.5756 39.7715 65.3838 39.2998 65.2362 38.6318C65.003 37.6298 64.798 36.8358 66.0257 36.2765C71.971 35.5518 77.9162 34.8268 83.8616 34.1028C84.2149 34.0598 84.5701 34.0243 85.0704 33.9844C86.1709 35.9333 87.1533 37.8771 88.0716 39.835C88.9187 41.6414 89.7337 43.4559 90.4756 45.2837C90.6284 45.6601 90.3957 46.1108 90.1122 46.5862C83.2821 47.3673 76.6804 48.0895 70.0314 48.7504C69.8143 48.6219 69.6445 48.5547 69.4748 48.4874Z" fill="#00862B"/>
<path d="M115.774 52.2072C109.96 55.2984 103.601 57.4942 96.3584 58.4362C96.0652 57.8668 95.8924 57.4334 95.7311 56.9166C95.551 56.663 95.3594 56.4927 95.1998 56.2312C94.888 55.3436 94.5442 54.5474 94.2168 53.6696C94.0735 53.409 93.914 53.23 93.7607 52.9583C93.0652 51.2441 92.3635 49.6226 91.6748 47.9213C91.5156 47.6702 91.3434 47.4989 91.1889 47.2532C91.1459 47.0359 91.0852 46.8928 91.0244 46.7496C91.301 46.5707 91.5348 46.2958 91.8605 46.227C98.4364 44.8368 104.522 42.7504 110.365 40.1172C111.834 43.0842 113.19 46.0692 114.521 49.0594C114.969 50.0662 115.354 51.0863 115.774 52.2072Z" fill="#00862B"/>
<path d="M151.539 39.8047C153.676 40.7132 155.568 41.8919 157.776 42.6119C162.041 44.0027 166.484 45.1347 170.959 46.4373C170.966 46.7157 170.868 46.9307 170.697 47.2745C170.533 47.6034 170.443 47.8034 170.352 48.0035C169.468 49.9423 168.584 51.8811 167.551 53.9203C167.364 54.1804 167.327 54.3401 167.289 54.4999C167.283 54.6114 167.277 54.7229 167.116 54.9444C166.87 55.258 166.778 55.4615 166.686 55.665C166.364 56.5455 166.042 57.4259 165.544 58.3978C165.241 58.5081 165.113 58.5271 164.848 58.5469C163.49 58.3413 162.269 58.1351 160.977 57.8509C160.255 57.6069 159.603 57.4408 158.88 57.2402C158.696 57.1682 158.582 57.1674 158.395 57.1282C157.685 56.8834 157.048 56.7138 156.31 56.5062C155.852 56.3839 155.496 56.2995 155.081 56.1452C154.759 55.985 154.496 55.8948 154.138 55.7558C153.474 55.5298 152.906 55.3527 152.274 55.1037C151.916 54.9501 151.623 54.8684 151.229 54.7355C149.797 54.1063 148.468 53.5284 147.083 52.8836C146.763 52.6506 146.499 52.4844 146.235 52.3182C146.934 50.4985 147.595 48.6713 148.345 46.8617C148.797 45.7712 149.425 44.7161 149.905 43.6306C150.456 42.3847 150.931 41.1227 151.539 39.8047Z" fill="#00862B"/>
<path d="M141.895 65.2431C141.462 65.1144 141.029 64.9858 140.512 64.7976C141.398 62.5784 142.367 60.4188 143.5 58.2387C143.664 58.2183 143.755 58.2718 143.741 58.373C143.285 59.6146 142.743 60.7421 142.428 61.8989C142.128 62.9977 142.063 64.1271 141.895 65.2431Z" fill="#CCD1D5"/>
<path d="M146.101 52.3281C146.499 52.4845 146.763 52.6507 146.945 52.9115C146.532 53.4498 146.192 53.8906 145.872 54.3379C145.527 54.8185 145.201 55.3052 144.852 55.7815C144.838 55.7739 144.81 55.7586 144.81 55.7586C145.196 54.6184 145.581 53.4781 146.101 52.3281Z" fill="#CCD1D5"/>
<path d="M65.868 36.2656C64.798 36.8347 65.003 37.6287 65.2548 38.5406C64.7893 37.9164 64.3492 37.1862 63.8599 36.37C64.4439 36.2745 65.0771 36.2652 65.868 36.2656Z" fill="#43484C"/>
<path d="M143.619 58.1969C143.895 57.384 144.218 56.5978 144.675 55.7849C144.81 55.7581 144.838 55.7734 144.834 55.884C144.472 56.7555 144.113 57.5164 143.755 58.2772C143.755 58.2772 143.664 58.2237 143.619 58.1969Z" fill="#CCD1D5"/>
<path d="M25.5013 52.4766C25.9392 52.5086 26.2697 52.579 26.6933 52.7439C26.6406 53.0198 26.4949 53.2012 26.3492 53.3825C25.9964 53.2388 25.6437 53.0951 25.1621 52.9415C25.1534 52.7926 25.2737 52.6538 25.5013 52.4766Z" fill="#C2C7CB"/>
<path d="M24.9126 51.0625C25.0848 51.1342 25.1955 51.2491 25.2931 51.4365C25.1371 51.3746 24.994 51.2401 24.9126 51.0625Z" fill="#C2C7CB"/>
<path d="M24.3857 49.9219C24.5331 50.0174 24.6608 50.1898 24.7652 50.4358C24.6167 50.3392 24.4914 50.169 24.3857 49.9219Z" fill="#C2C7CB"/>
<path d="M159.904 71.7526C159.757 71.5648 159.739 71.377 159.757 71.0945C159.792 70.9999 159.916 71 159.916 71C160.387 71.1272 160.858 71.2545 161.401 71.4571C160.993 71.6058 160.513 71.6792 159.904 71.7526Z" fill="#CCD1D5"/>
<path d="M173.502 73.1628C173.883 73.1168 174.302 73.1433 174.807 73.2337C174.442 73.2768 173.991 73.256 173.502 73.1628Z" fill="#CCD1D5"/>
<path d="M169.87 72.8507C170.255 72.8117 170.671 72.8525 171.191 72.9435C170.83 72.9727 170.365 72.9516 169.87 72.8507Z" fill="#CCD1D5"/>
<path d="M164.785 72.126C165.06 72.0865 165.364 72.1191 165.755 72.2054C165.499 72.2387 165.156 72.2185 164.785 72.126Z" fill="#CCD1D5"/>
<path d="M167.35 72.4514C167.59 72.4268 167.886 72.4773 168.246 72.5961C168.009 72.6185 167.707 72.5724 167.35 72.4514Z" fill="#CCD1D5"/>
<path d="M157.73 76.4684C157.712 76.3008 157.81 76.0997 158.006 75.8516C158.019 76.0146 157.933 76.2247 157.73 76.4684Z" fill="#CCD1D5"/>
<path d="M159.985 70.918C159.916 70.9997 159.792 70.9996 159.729 71.0012C158.426 70.7513 157.184 70.4998 155.77 70.1316C155.308 69.9416 155.018 69.8685 154.729 69.7954C154.274 69.7047 153.819 69.6139 153.215 69.4039C152.417 69.1193 151.767 68.9541 151.118 68.7889C150.999 68.785 150.879 68.781 150.638 68.659C150.21 68.4702 149.903 68.3995 149.597 68.3288C149.033 68.1524 148.47 67.976 147.77 67.6739C147.12 67.3773 146.606 67.2064 146.092 67.0355C145.242 66.7099 144.392 66.3844 143.409 65.9258C143.006 65.7063 142.736 65.6198 142.466 65.5333C142.315 65.4697 142.164 65.4061 141.954 65.2948C142.063 64.1312 142.128 63.0018 142.428 61.9029C142.744 60.7462 143.285 59.6186 143.741 58.3771C144.113 57.515 144.471 56.7542 144.848 55.8904C145.201 55.3033 145.527 54.8166 145.872 54.3361C146.192 53.8887 146.532 53.4479 147.001 52.9766C148.468 53.5267 149.797 54.1046 151.272 54.8187C151.725 55.0278 152.032 55.1008 152.339 55.1738C152.906 55.351 153.474 55.5281 154.176 55.8332C154.587 56.0452 154.863 56.1294 155.14 56.2135C155.496 56.2978 155.852 56.3822 156.349 56.5887C157.149 56.8745 157.809 57.0381 158.468 57.2017C158.582 57.1657 158.695 57.1665 158.918 57.3251C159.7 57.6064 160.374 57.7668 161.047 57.9271C162.269 58.1334 163.49 58.3396 164.921 58.6329C165.174 58.9832 165.217 59.2464 165.261 59.5096C165.206 59.6141 165.15 59.7187 164.997 59.9494C164.876 60.2188 164.852 60.362 164.829 60.5052C164.445 61.2767 164.062 62.0481 163.543 62.923C163.365 63.1818 163.322 63.3373 163.28 63.4927C163.063 64.0218 162.846 64.5508 162.477 65.1792C162.3 65.4387 162.275 65.5989 162.25 65.7592C162.235 65.8718 162.22 65.9845 162.032 66.2081C161.776 66.5284 161.693 66.7379 161.609 66.9473C161.453 67.4883 161.296 68.0293 161.001 68.6724C160.806 68.926 160.75 69.0774 160.694 69.2289C160.48 69.7647 160.267 70.3005 159.985 70.918Z" fill="#CDD2D6"/>
<path d="M165.362 59.4887C165.217 59.2474 165.174 58.9842 165.057 58.6332C165.113 58.5264 165.241 58.5074 165.467 58.4844C165.632 58.591 165.7 58.7017 165.811 58.8976C165.724 59.1442 165.593 59.3055 165.362 59.4887Z" fill="#43484C"/>
<path d="M164.924 60.4897C164.852 60.3604 164.875 60.2172 164.987 60.0312C165.056 60.151 165.038 60.3134 164.924 60.4897Z" fill="#43484C"/>
<path d="M163.37 63.4569C163.322 63.3399 163.365 63.1845 163.498 63.0156C163.546 63.141 163.503 63.2797 163.37 63.4569Z" fill="#CCD1D5"/>
<path d="M162.329 65.714C162.275 65.6004 162.3 65.4402 162.419 65.2656C162.478 65.39 162.442 65.5286 162.329 65.714Z" fill="#CCD1D5"/>
<path d="M161.714 66.9015C161.692 66.7348 161.776 66.5254 161.974 66.2812C161.999 66.4507 161.908 66.6548 161.714 66.9015Z" fill="#CCD1D5"/>
<path d="M160.79 69.2007C160.75 69.0811 160.807 68.9296 160.952 68.7656C160.989 68.8917 160.937 69.0303 160.79 69.2007Z" fill="#CCD1D5"/>
<path d="M167.355 54.4457C167.327 54.3396 167.364 54.1798 167.494 54.0078C167.532 54.1277 167.477 54.2599 167.355 54.4457Z" fill="#43484C"/>
<path d="M166.785 55.6199C166.778 55.4606 166.869 55.2571 167.078 55.0234C167.091 55.1874 166.988 55.3816 166.785 55.6199Z" fill="#43484C"/>
<path d="M170.463 47.9692C170.443 47.8048 170.533 47.6047 170.723 47.3594C170.74 47.5206 170.657 47.7271 170.463 47.9692Z" fill="#CBD0D4"/>
<path d="M38.4754 77.3082C38.1937 77.6579 37.9119 78.0075 37.5773 78.4093C37.3041 78.1611 37.0836 77.8607 36.7528 77.5166C36.6452 77.4287 36.648 77.3845 36.8059 77.3181C37.4658 77.3 37.9706 77.3041 38.4754 77.3082Z" fill="#C2C7CB"/>
<path d="M38.6138 77.2837C37.9704 77.3038 37.4656 77.2997 36.8195 77.2522C35.716 74.9542 34.7521 72.7 33.7925 70.4449C33.3547 69.4162 32.9254 68.3859 32.54 67.1745C32.3976 66.8253 32.2075 66.6579 32.0173 66.4906C31.8604 66.0986 31.7035 65.7065 31.5635 65.2193C31.5804 65.124 31.565 65.1356 31.7131 65.1105C38.5395 64.2814 45.2179 63.4773 52.0446 62.6875C52.6602 62.9726 53.389 63.1836 53.5528 63.5238C54.7616 66.0342 55.9018 68.5615 56.9709 71.102C57.5316 72.4343 57.9054 73.804 58.3636 75.1568C56.6761 75.2675 54.9885 75.3783 52.9975 75.4974C51.955 75.6093 51.2159 75.7126 50.4768 75.816C50.0804 75.8224 49.684 75.8288 49.0205 75.843C48.2642 75.9537 47.7751 76.0566 47.2859 76.1595C46.7346 76.1876 46.1832 76.2157 45.3858 76.2626C44.8499 76.3505 44.56 76.4194 44.2701 76.4884C43.9988 76.4944 43.7275 76.5004 43.1948 76.5185C42.5458 76.6267 42.1582 76.7227 41.7706 76.8187C40.7645 76.9656 39.7585 77.1125 38.6138 77.2837Z" fill="#00862B"/>
<path d="M28.0503 65.9334C28.1787 65.8037 28.4245 65.6767 28.7983 65.5703C28.6734 65.706 28.4205 65.8211 28.0503 65.9334Z" fill="#43484C"/>
<path d="M31.5649 65.1435C31.5649 65.1435 31.5803 65.1319 31.5886 65.1261C31.4342 65.1649 31.2716 65.2094 30.9753 65.2408C30.868 65.0855 30.8944 64.9433 31.0609 64.75C31.3224 64.8471 31.4436 64.9953 31.5649 65.1435Z" fill="#43484C"/>
<path d="M24.7856 66.6858C24.909 66.5508 25.1511 66.4242 25.5196 66.3125C25.3988 66.4496 25.1516 66.5719 24.7856 66.6858Z" fill="#43484C"/>
<path d="M32.0088 66.5781C32.2078 66.6631 32.398 66.8305 32.5636 67.0865C32.3593 67.0036 32.1796 66.832 32.0088 66.5781Z" fill="#43484C"/>
<path d="M58.4133 75.2208C57.9056 73.806 57.5318 72.4363 56.9711 71.104C55.902 68.5635 54.7617 66.0362 53.553 63.5258C53.3892 63.1856 52.6603 62.9746 52.0767 62.6162C52.2813 62.4354 52.6024 62.3422 53.021 62.3374C55.7448 62.3463 58.3781 62.3242 60.9961 62.1746C65.6556 61.9085 70.3059 61.5652 74.9762 61.2511C74.9923 61.2481 75.016 61.2454 75.1162 61.328C77.0131 65.4707 78.8099 69.5309 80.6218 73.6253C79.7509 73.7636 79.0638 73.8726 78.3768 73.9817C77.2785 74.0071 76.1803 74.0324 74.7863 74.0666C73.9969 74.1835 73.5033 74.2916 73.0097 74.3997C68.5914 74.5865 64.1726 74.7683 59.756 74.9732C59.5157 74.9843 59.2941 75.1873 59.0173 75.4015C58.8015 75.429 58.6321 75.3559 58.4133 75.2208Z" fill="#CDD2D6"/>
<path d="M50.5854 75.8696C51.2158 75.7147 51.9549 75.6113 52.8416 75.5234C52.2243 75.6664 51.4592 75.7938 50.5854 75.8696Z" fill="#C2C7CB"/>
<path d="M47.4253 76.1877C47.7751 76.06 48.2642 75.9571 48.8804 75.8828C48.5265 76.0118 48.0456 76.1121 47.4253 76.1877Z" fill="#C2C7CB"/>
<path d="M41.8599 76.8698C42.1581 76.7258 42.5458 76.6298 43.0635 76.5469C42.7788 76.6792 42.364 76.7985 41.8599 76.8698Z" fill="#C2C7CB"/>
<path d="M44.3433 76.5432C44.5603 76.4187 44.8502 76.3498 45.256 76.2969C45.0534 76.4082 44.7347 76.5034 44.3433 76.5432Z" fill="#C2C7CB"/>
<path d="M59.9985 78.3828C60.1918 78.4751 60.3539 78.6568 60.5064 78.9215C60.3204 78.8271 60.1439 78.6496 59.9985 78.3828Z" fill="#CDD2D6"/>
<path d="M52.9235 62.2532C52.6024 62.3464 52.2813 62.4397 51.9283 62.6062C45.2181 63.4836 38.5397 64.2877 31.7132 65.1168C31.4439 64.9937 31.3226 64.8455 31.1027 64.6447C30.6572 63.682 30.3104 62.7719 30.0087 61.6826C29.8807 61.3337 29.7075 61.164 29.5344 60.9944C29.3324 60.4416 29.1305 59.8889 28.953 59.1622C28.826 58.823 28.6744 58.6578 28.5228 58.4925C28.4632 58.3847 28.4036 58.277 28.4073 58.0383C28.3164 57.771 28.1622 57.6347 28.008 57.4984C27.7837 56.9679 27.5595 56.4374 27.3906 55.7689C27.2907 55.5022 27.1354 55.3737 26.9801 55.2451C26.7709 54.6886 26.5616 54.1322 26.3506 53.482C26.4946 53.2069 26.6404 53.0255 26.8223 52.7712C27.026 52.6566 27.1936 52.615 27.5745 52.6257C28.0853 52.5648 28.3828 52.4515 28.6802 52.3382C28.8397 52.3128 28.9993 52.2875 29.3577 52.3185C29.8688 52.2752 30.181 52.1755 30.4933 52.0759C30.8345 52.029 31.1757 51.9821 31.7853 51.9624C32.5025 51.8642 32.9514 51.7388 33.4002 51.6134C33.6728 51.5816 33.9453 51.5498 34.4427 51.5813C35.09 51.533 35.5125 51.4214 35.9349 51.3099C38.021 51.1253 40.107 50.9408 42.4395 50.8318C43.216 50.7979 43.7461 50.6885 44.2761 50.5791C44.8953 50.5363 45.5145 50.4935 46.2874 50.4688C46.812 50.5758 47.1828 50.6648 47.7521 50.8369C48.7193 52.565 49.5251 54.2022 50.2472 55.8568C51.1745 57.9817 52.0345 60.1204 52.9235 62.2532Z" fill="#CED3D7"/>
<path d="M28.4966 58.5625C28.6745 58.6514 28.8261 58.8167 28.9611 59.062C28.7863 58.9744 28.6283 58.8066 28.4966 58.5625Z" fill="#C2C7CB"/>
<path d="M27.999 57.5703C28.162 57.6331 28.3162 57.7693 28.4034 57.9496C28.221 57.877 28.1057 57.7604 27.999 57.5703Z" fill="#C2C7CB"/>
<path d="M26.9678 55.3125C27.1356 55.368 27.2909 55.4966 27.3932 55.6715C27.2119 55.6071 27.0836 55.4963 26.9678 55.3125Z" fill="#C2C7CB"/>
<path d="M29.5352 61.0703C29.7077 61.1621 29.8808 61.3318 30.0275 61.5878C29.846 61.4989 29.6909 61.3235 29.5352 61.0703Z" fill="#C2C7CB"/>
<path d="M151.193 68.8594C151.767 68.952 152.417 69.1173 153.106 69.3655C152.52 69.2763 151.894 69.1041 151.193 68.8594Z" fill="#CCD1D5"/>
<path d="M146.15 67.1094C146.606 67.2056 147.12 67.3765 147.668 67.6309C147.204 67.5377 146.706 67.3609 146.15 67.1094Z" fill="#CCD1D5"/>
<path d="M154.791 69.8672C155.018 69.8692 155.308 69.9423 155.642 70.0938C155.408 70.0941 155.13 70.0162 154.791 69.8672Z" fill="#CCD1D5"/>
<path d="M142.528 65.5938C142.736 65.6155 143.006 65.702 143.311 65.8669C143.095 65.8497 142.843 65.7541 142.528 65.5938Z" fill="#CCD1D5"/>
<path d="M149.672 68.3906C149.904 68.3955 150.21 68.4662 150.561 68.6212C150.319 68.6224 150.033 68.5394 149.672 68.3906Z" fill="#CCD1D5"/>
<path d="M78.4805 74.0517C79.0642 73.8771 79.7512 73.7681 80.6221 73.6298C78.8102 69.5354 77.0135 65.4752 75.3296 61.3549C80.0522 60.8417 84.662 60.3886 89.3889 59.9461C89.7854 59.8785 90.0647 59.8004 90.484 59.735C91.7455 59.5518 92.8672 59.356 94.0885 59.1722C94.3629 59.1208 94.5378 59.0572 94.8517 59.0007C95.2624 58.9714 95.534 58.9349 95.8057 58.8984C96.2128 59.2476 96.8138 59.5546 96.9963 59.9527C98.4116 63.0398 99.7398 66.1459 101.111 69.2427C101.373 69.8343 101.707 70.4108 102.05 71.0774C101.545 71.1917 101.117 71.2888 100.611 71.4625C99.5329 71.6894 98.5321 71.8395 97.279 72.0139C96.7424 72.1121 96.458 72.1861 96.1736 72.2601C95.7824 72.2779 95.3913 72.2957 94.761 72.3344C94.3565 72.424 94.1912 72.4927 94.0259 72.5615C93.3737 72.6216 92.7216 72.6817 91.8291 72.7705C91.2997 72.8644 91.0106 72.9297 90.7216 72.9949C90.0994 73.0094 89.4772 73.0238 88.5763 73.0504C87.9055 73.1395 87.5134 73.2166 87.1213 73.2937C85.0517 73.5448 82.9821 73.7959 80.8888 74.1506C80.1047 74.2085 79.3443 74.1628 78.4805 74.0517Z" fill="#00862B"/>
<path d="M87.2065 73.3387C87.5131 73.2104 87.9052 73.1334 88.4246 73.0703C88.132 73.1862 87.7121 73.2881 87.2065 73.3387Z" fill="#CBD0D4"/>
<path d="M96.2485 72.3149C96.4577 72.187 96.7421 72.113 97.1433 72.0469C96.9479 72.1594 96.6358 72.2641 96.2485 72.3149Z" fill="#CBD0D4"/>
<path d="M90.793 73.0453C91.0101 72.9249 91.2991 72.8596 91.7023 72.8125C91.4992 72.9205 91.182 73.0105 90.793 73.0453Z" fill="#CBD0D4"/>
<path d="M94.0859 72.5976C94.1911 72.4899 94.3564 72.4212 94.6226 72.3672C94.531 72.4668 94.3386 72.5517 94.0859 72.5976Z" fill="#CBD0D4"/>
<path d="M85.9244 85.4325C85.7701 85.368 85.6275 85.2334 85.5479 85.0547C85.7193 85.1278 85.8277 85.2451 85.9244 85.4325Z" fill="#363B3F"/>
<path d="M81.429 75.4276C81.2608 75.338 81.1174 75.1733 80.9824 74.9297C81.1452 75.018 81.2995 75.1853 81.429 75.4276Z" fill="#363B3F"/>
<path d="M85.5263 84.4253C85.3348 84.3421 85.1531 84.179 84.9785 83.9297C85.1691 84.0108 85.3526 84.1781 85.5263 84.4253Z" fill="#363B3F"/>
<path d="M81.9469 76.4323C81.7853 76.3725 81.6338 76.24 81.5439 76.0625C81.7228 76.1315 81.8399 76.2455 81.9469 76.4323Z" fill="#363B3F"/>
<path d="M103.89 75.8906C104.085 75.9797 104.255 76.1575 104.415 76.4174C104.225 76.3262 104.045 76.1528 103.89 75.8906Z" fill="#CBD0D4"/>
<path d="M84.4941 82.1778C84.3363 82.1145 84.1922 81.9773 84.1157 81.7969C84.2915 81.8704 84.3997 81.9872 84.4941 82.1778Z" fill="#363B3F"/>
<path d="M83.992 81.1753C83.8153 81.0835 83.6686 80.9144 83.5342 80.6641C83.7049 80.7545 83.8635 80.9263 83.992 81.1753Z" fill="#363B3F"/>
<path d="M73.1558 74.4267C73.5031 74.2923 73.9967 74.1842 74.6257 74.0938C74.2747 74.2253 73.7883 74.3392 73.1558 74.4267Z" fill="#363B3F"/>
<path d="M93.9886 59.1539C92.867 59.3498 91.7453 59.5456 90.408 59.6783C89.8855 59.7199 89.5785 59.8247 89.2715 59.9294C84.6618 60.3824 80.052 60.8355 75.2291 61.2661C75.0161 61.2437 74.9923 61.2464 74.961 61.1438C74.2386 59.2521 73.5475 57.4629 72.8701 55.5882C72.7137 55.3333 72.5436 55.164 72.3251 54.9143C72.2661 54.7194 72.2555 54.6047 72.3096 54.4459C72.2291 54.2665 72.0841 54.1311 71.8893 53.9067C71.6669 53.2846 71.4943 52.7516 71.3572 52.1266C71.2061 51.8551 71.0194 51.6756 70.794 51.4349C70.727 51.3337 70.6987 51.2936 70.6755 51.1812C70.5643 50.9938 70.448 50.8787 70.331 50.6749C70.2682 50.477 70.2062 50.3677 70.176 50.1854C70.0587 49.9455 69.9096 49.7787 69.7676 49.5484C69.7367 49.4048 69.6987 49.3247 69.7275 49.1968C69.8891 49.0356 69.9839 48.9222 70.0787 48.8088C76.6804 48.0866 83.2821 47.3644 90.0229 46.6562C90.3529 46.6924 90.5439 46.7145 90.8797 46.7424C91.0853 46.8912 91.146 47.0343 91.1761 47.3374C91.3176 47.6648 91.4897 47.8322 91.6619 47.9997C92.3636 49.6211 93.0653 51.2426 93.7356 53.0439C93.8697 53.399 94.0351 53.5743 94.2005 53.7497C94.5443 54.5459 94.8881 55.3421 95.1875 56.3192C95.3353 56.6661 95.5275 56.8323 95.7197 56.9984C95.8925 57.4319 96.0653 57.8653 96.2155 58.3944C96.0755 58.5825 95.958 58.6751 95.823 58.8299C95.5338 58.9287 95.2621 58.9652 94.7917 58.9489C94.3915 58.9821 94.1901 59.068 93.9886 59.1539Z" fill="#CFD4D8"/>
<path d="M72.245 54.4905C72.2555 54.6052 72.2661 54.7199 72.3122 54.9953C72.5173 55.3288 72.6869 55.5016 72.8564 55.6744C73.5475 57.4635 74.2386 59.2526 74.945 61.1474C70.3061 61.564 65.6558 61.9073 60.9962 62.1735C58.3782 62.323 55.745 62.3452 53.0211 62.3362C52.0346 60.115 51.1746 57.9763 50.2473 55.8514C49.5252 54.1968 48.7194 52.5596 47.877 50.8318C48.2998 50.5574 48.7789 50.2271 49.2961 50.1958C54.565 49.8771 59.8402 49.6071 65.4175 49.3858C66.2003 49.3665 66.6792 49.285 67.1581 49.2034C67.7055 49.1684 68.2528 49.1333 69.0795 49.1552C69.4595 49.2231 69.5602 49.2341 69.6608 49.2451C69.6987 49.3252 69.7367 49.4054 69.7499 49.626C69.8648 49.9306 70.0045 50.0948 70.1442 50.259C70.2062 50.3683 70.2682 50.4775 70.2699 50.7203C70.3633 50.9872 70.5169 51.1206 70.6706 51.2541C70.6988 51.2941 70.727 51.3342 70.7793 51.5229C70.9762 51.8541 71.149 52.0366 71.3217 52.2191C71.4944 52.7521 71.667 53.2851 71.8866 53.9778C72.0374 54.2552 72.1412 54.3728 72.245 54.4905Z" fill="#00862B"/>
<path d="M67.0511 49.1719C66.6791 49.2842 66.2002 49.3658 65.5654 49.4149C65.9211 49.302 66.4327 49.2216 67.0511 49.1719Z" fill="#43484C"/>
<path d="M69.7274 49.1966C69.56 49.2334 69.4594 49.2224 69.2115 49.1814C69.184 48.9893 69.3039 48.8274 69.4492 48.5749C69.6444 48.5516 69.8142 48.6189 70.0313 48.7474C69.9838 48.922 69.889 49.0354 69.7274 49.1966Z" fill="#43484C"/>
<path d="M66.2144 41.3125C66.3944 41.4013 66.5549 41.5678 66.6947 41.8165C66.5142 41.7292 66.3545 41.5596 66.2144 41.3125Z" fill="#43484C"/>
<path d="M67.2358 43.5625C67.3916 43.6269 67.5351 43.7643 67.6133 43.9438C67.4398 43.8691 67.3317 43.7523 67.2358 43.5625Z" fill="#43484C"/>
<path d="M68.3105 46.0625C68.4662 46.1274 68.6141 46.265 68.6946 46.4451C68.5191 46.3701 68.411 46.2527 68.3105 46.0625Z" fill="#43484C"/>
<path d="M68.7788 47.0625C68.9527 47.1481 69.1116 47.3087 69.2521 47.5491C69.0771 47.4651 68.9205 47.3013 68.7788 47.0625Z" fill="#43484C"/>
<path d="M65.7612 40.3125C65.9107 40.3802 66.054 40.5211 66.1253 40.7033C65.9539 40.6249 65.8545 40.5053 65.7612 40.3125Z" fill="#43484C"/>
<path d="M44.1411 50.5625C43.746 50.6854 43.216 50.7948 42.5908 50.8542C42.9992 50.7191 43.5027 50.6341 44.1411 50.5625Z" fill="#CCD1D5"/>
<path d="M35.8087 51.2969C35.5123 51.4209 35.0898 51.5324 34.5806 51.5909C34.89 51.4534 35.2863 51.3689 35.8087 51.2969Z" fill="#C2C7CB"/>
<path d="M33.2745 51.5938C32.9517 51.7349 32.5029 51.8604 31.9165 51.9704C32.2354 51.8293 32.6919 51.7036 33.2745 51.5938Z" fill="#C2C7CB"/>
<path d="M30.3783 52.0625C30.1813 52.1694 29.869 52.269 29.481 52.3176C29.6911 52.1961 29.9771 52.1257 30.3783 52.0625Z" fill="#C2C7CB"/>
<path d="M28.5618 52.3203C28.3829 52.4472 28.0854 52.5605 27.709 52.631C27.9011 52.4944 28.1722 52.4006 28.5618 52.3203Z" fill="#C2C7CB"/>
<path d="M95.7311 56.9186C95.5273 56.8359 95.3351 56.6697 95.1553 56.4141C95.3593 56.4948 95.551 56.665 95.7311 56.9186Z" fill="#CBD0D4"/>
<path d="M94.2169 53.6721C94.0352 53.5784 93.8698 53.403 93.7295 53.1406C93.9141 53.2325 94.0737 53.4115 94.2169 53.6721Z" fill="#CBD0D4"/>
<path d="M91.6748 47.9222C91.4896 47.8346 91.3174 47.6672 91.1582 47.4141C91.3433 47.4997 91.5156 47.671 91.6748 47.9222Z" fill="#CBD0D4"/>
<path d="M158.395 57.1248C157.809 57.0364 157.149 56.8728 156.451 56.625C157.048 56.7104 157.685 56.88 158.395 57.1248Z" fill="#CCD1D5"/>
<path d="M160.977 57.8491C160.374 57.7666 159.701 57.6063 158.99 57.3594C159.604 57.4389 160.255 57.605 160.977 57.8491Z" fill="#CCD1D5"/>
<path d="M155.081 56.1443C154.863 56.1302 154.587 56.046 154.272 55.8828C154.496 55.8939 154.759 55.9841 155.081 56.1443Z" fill="#CCD1D5"/>
<path d="M152.274 55.0994C152.032 55.0982 151.725 55.0252 151.374 54.8673C151.623 54.8641 151.916 54.9458 152.274 55.0994Z" fill="#CCD1D5"/>
<path d="M89.3887 59.9462C89.5786 59.8309 89.8855 59.7262 90.2682 59.6719C90.0645 59.8004 89.7852 59.8786 89.3887 59.9462Z" fill="#CBD0D4"/>
<path d="M94.0884 59.1695C94.1902 59.0715 94.3916 58.9856 94.6528 58.9453C94.5377 59.0545 94.3628 59.1181 94.0884 59.1695Z" fill="#CBD0D4"/>
<path d="M72.8699 55.5913C72.6866 55.5041 72.517 55.3313 72.3604 55.0781C72.5434 55.167 72.7135 55.3364 72.8699 55.5913Z" fill="#CDD2D6"/>
<path d="M72.3098 54.4498C72.1414 54.3762 72.0376 54.2586 71.9365 54.0703C72.0843 54.1351 72.2293 54.2704 72.3098 54.4498Z" fill="#CDD2D6"/>
<path d="M70.1759 50.1919C70.0044 50.1007 69.8647 49.9365 69.7427 49.6953C69.9095 49.7851 70.0586 49.952 70.1759 50.1919Z" fill="#43484C"/>
<path d="M71.357 52.129C71.1487 52.0384 70.976 51.8559 70.8179 51.5859C71.0192 51.678 71.2059 51.8575 71.357 52.129Z" fill="#CDD2D6"/>
<path d="M70.6754 51.1853C70.5167 51.1242 70.3631 50.9908 70.2705 50.8125C70.4478 50.8828 70.5641 50.9979 70.6754 51.1853Z" fill="#43484C"/>
</g>
<defs>
<clipPath id="clip0_6790_209218">
<rect width="180" height="180" fill="white"/>
</clipPath>
</defs>
</svg>
