<svg width="32" height="22" viewBox="0 0 32 22" fill="none" xmlns="http://www.w3.org/2000/svg">
<path d="M20.2617 1.36719L32.1134 4.53994L29.9186 12.7382L18.067 9.56544L20.2617 1.36719Z" stroke="#023C1D" stroke-linecap="round" stroke-linejoin="round"/>
<path d="M18.5859 0.914062L20.2639 1.36325L14.8987 21.4045L13.2208 20.9553L18.5859 0.914062Z" fill="#CAFFDE" stroke="#023C1D" stroke-linecap="round" stroke-linejoin="round"/>
<path d="M19.9812 1.78125L21.8042 2.26925L21.3162 4.09125L19.4922 3.60325L19.9812 1.78125Z" fill="#CAFFDE"/>
<path d="M21.8044 2.26562L23.6284 2.75362L23.1404 4.57563L21.3164 4.08762L21.8044 2.26562Z" fill="#023C1D"/>
<path d="M23.6286 2.75781L25.4526 3.24581L24.9646 5.06781L23.1406 4.57981L23.6286 2.75781Z" fill="#CAFFDE"/>
<path d="M25.4528 3.24219L27.2768 3.73119L26.7878 5.55219L24.9648 5.06419L25.4528 3.24219Z" fill="#023C1D"/>
<path d="M27.2742 3.73438L29.0982 4.22338L28.6092 6.04438L26.7852 5.55638L27.2742 3.73438Z" fill="#CAFFDE"/>
<path d="M29.0979 4.22056L30.9209 4.70856L30.4329 6.53056L28.6089 6.04156L29.0979 4.22056ZM19.4919 3.60156L21.3159 4.08956L20.8269 5.91156L19.0039 5.42256L19.4919 3.60156Z" fill="#023C1D"/>
<path d="M21.3171 4.08594L23.1411 4.57494L22.6521 6.39594L20.8281 5.90794L21.3171 4.08594Z" fill="#CAFFDE"/>
<path d="M23.1374 4.57812L24.9614 5.06612L24.4724 6.88812L22.6484 6.39912L23.1374 4.57812Z" fill="#023C1D"/>
<path d="M24.9656 5.0625L26.7886 5.5505L26.3006 7.3725L24.4766 6.8845L24.9656 5.0625Z" fill="#CAFFDE"/>
<path d="M26.7849 5.55469L28.6089 6.04269L28.1209 7.86469L26.2969 7.37669L26.7849 5.55469Z" fill="#023C1D"/>
<path d="M28.6096 6.04088L30.4336 6.52987L29.9446 8.35087L28.1216 7.86287L28.6096 6.04088ZM19.0046 5.42188L20.8276 5.91088L20.3396 7.73188L18.5156 7.24388L19.0046 5.42188Z" fill="#CAFFDE"/>
<path d="M20.8278 5.90625L22.6518 6.39425L22.1638 8.21625L20.3398 7.72825L20.8278 5.90625Z" fill="#023C1D"/>
<path d="M22.6531 6.39844L24.4761 6.88744L23.9871 8.70844L22.1641 8.22044L22.6531 6.39844Z" fill="#CAFFDE"/>
<path d="M24.4734 6.89062L26.2974 7.37862L25.8084 9.20063L23.9844 8.71163L24.4734 6.89062Z" fill="#023C1D"/>
<path d="M26.2976 7.375L28.1216 7.863L27.6326 9.685L25.8086 9.196L26.2976 7.375Z" fill="#CAFFDE"/>
<path d="M28.1223 7.86119L29.9453 8.34919L29.4573 10.1712L27.6333 9.68319L28.1223 7.86119ZM18.5163 7.24219L20.3403 7.73019L19.8513 9.55219L18.0273 9.06419L18.5163 7.24219Z" fill="#023C1D"/>
<path d="M20.3406 7.73438L22.1646 8.22237L21.6756 10.0444L19.8516 9.55538L20.3406 7.73438Z" fill="#CAFFDE"/>
<path d="M22.1599 8.21875L23.9839 8.70675L23.4959 10.5287L21.6719 10.0407L22.1599 8.21875Z" fill="#023C1D"/>
<path d="M23.988 8.71094L25.812 9.19994L25.324 11.0209L23.5 10.5329L23.988 8.71094Z" fill="#CAFFDE"/>
<path d="M25.8083 9.19531L27.6323 9.68431L27.1433 11.5053L25.3203 11.0173L25.8083 9.19531Z" fill="#023C1D"/>
<path d="M27.6335 9.6875L29.4575 10.1755L28.9685 11.9965L27.1445 11.5085L27.6335 9.6875Z" fill="#CAFFDE"/>
<path d="M12.3594 1.20312L0.507769 4.37589L2.70626 12.5733L14.5579 9.40052L12.3594 1.20312Z" stroke="#023C1D" stroke-linecap="round" stroke-linejoin="round"/>
<path d="M14.0391 0.757812L12.3612 1.207L17.7355 21.246L19.4134 20.7968L14.0391 0.757812Z" fill="#CAFFDE" stroke="#023C1D" stroke-linecap="round" stroke-linejoin="round"/>
<path d="M12.0271 1.78125L10.2031 2.26925L10.6911 4.09125L12.5151 3.60225L12.0271 1.78125Z" fill="#CAFFDE"/>
<path d="M10.199 2.27344L8.375 2.76144L8.864 4.58344L10.687 4.09544L10.199 2.27344Z" fill="#023C1D"/>
<path d="M8.37869 2.75781L6.55469 3.24581L7.04369 5.06781L8.86769 4.57981L8.37869 2.75781Z" fill="#CAFFDE"/>
<path d="M6.55737 3.25L4.73438 3.74L5.22337 5.561L7.04738 5.073L6.55737 3.25Z" fill="#023C1D"/>
<path d="M4.72925 3.73438L2.90625 4.22338L3.39425 6.04438L5.21825 5.55638L4.72925 3.73438Z" fill="#CAFFDE"/>
<path d="M2.90994 4.22156L1.08594 4.70956L1.57394 6.53056L3.39794 6.04256L2.90994 4.22156ZM12.5149 3.60156L10.6909 4.09056L11.1799 5.91156L13.0029 5.42456L12.5149 3.60156Z" fill="#023C1D"/>
<path d="M10.6902 4.09375L8.86719 4.58175L9.35519 6.40375L11.1792 5.91475L10.6902 4.09375Z" fill="#CAFFDE"/>
<path d="M8.86697 4.57812L7.04297 5.06612L7.53097 6.88813L9.35497 6.39913L8.86697 4.57812Z" fill="#023C1D"/>
<path d="M7.04275 5.07031L5.21875 5.55831L5.70775 7.38031L7.53075 6.89231L7.04275 5.07031Z" fill="#CAFFDE"/>
<path d="M5.22244 5.55469L3.39844 6.04269L3.88744 7.86469L5.71144 7.37669L5.22244 5.55469Z" fill="#023C1D"/>
<path d="M3.39431 6.04769L1.57031 6.53569L2.05931 8.35769L3.88331 7.86969L3.39431 6.04769ZM12.9993 5.42969L11.1763 5.91669L11.6643 7.73869L13.4883 7.25069L12.9993 5.42969Z" fill="#CAFFDE"/>
<path d="M11.1795 5.91406L9.35547 6.40306L9.84447 8.22406L11.6675 7.73606L11.1795 5.91406Z" fill="#023C1D"/>
<path d="M9.35525 6.40625L7.53125 6.89525L8.02025 8.71625L9.84425 8.22825L9.35525 6.40625Z" fill="#CAFFDE"/>
<path d="M7.53394 6.89062L5.71094 7.37862L6.19894 9.19963L8.02294 8.71163L7.53394 6.89062Z" fill="#023C1D"/>
<path d="M5.71072 7.38281L3.88672 7.87081L4.37472 9.69181L6.19872 9.20381L5.71072 7.38281Z" fill="#CAFFDE"/>
<path d="M3.8865 7.87L2.0625 8.358L2.5515 10.18L4.3745 9.691L3.8865 7.87ZM13.4925 7.25L11.6675 7.739L12.1565 9.561L13.9805 9.072L13.4925 7.25Z" fill="#023C1D"/>
<path d="M11.6667 7.73438L9.84375 8.22237L10.3317 10.0444L12.1558 9.55637L11.6667 7.73438Z" fill="#CAFFDE"/>
<path d="M9.84744 8.22656L8.02344 8.71456L8.51144 10.5366L10.3354 10.0486L9.84744 8.22656Z" fill="#023C1D"/>
<path d="M8.01931 8.71094L6.19531 9.19894L6.68431 11.0209L8.50731 10.5329L8.01931 8.71094Z" fill="#CAFFDE"/>
<path d="M6.199 9.20312L4.375 9.69112L4.864 11.5131L6.688 11.0251L6.199 9.20312Z" fill="#023C1D"/>
<path d="M4.37378 9.6875L2.55078 10.1765L3.03878 11.9965L4.86278 11.5085L4.37378 9.6875Z" fill="#CAFFDE"/>
</svg>
