<svg width="38" height="76" viewBox="0 0 38 76" fill="none" xmlns="http://www.w3.org/2000/svg">
<path d="M72.1053 3.8925C70.8378 2.62625 67.4841 0.5 59.2778 0.5C55.8516 0.5 51.9541 0.88375 47.6903 1.64C43.7746 2.3245 39.9226 3.33339 36.1741 4.65625C28.3878 7.4325 21.7841 11.4937 16.5516 16.7288C11.3141 21.9688 7.2541 28.5712 4.4841 36.355C3.19535 39.9663 2.18035 43.84 1.46785 47.8688C-1.2084 62.9738 2.2716 69.11 4.58535 71.4225C6.10785 72.945 9.9091 75.5 18.2553 75.5H18.2566C21.2178 75.5 24.5428 75.175 28.1366 74.5387C32.1816 73.8213 36.0553 72.805 39.6466 71.5225C47.4353 68.7475 54.0391 64.6862 59.2741 59.4512C64.5091 54.2125 68.5704 47.6075 71.3428 39.8225C72.6241 36.2238 73.6378 32.3487 74.3566 28.31C77.4541 10.8425 73.4154 5.20625 72.1053 3.8925ZM39.3016 29.04C38.0678 27.805 39.9816 25.89 41.2166 27.125L44.0904 29.9988C45.5066 28.585 46.8053 27.2862 47.9203 26.1688L45.0453 23.295C43.8103 22.06 45.7266 20.145 46.9628 21.3787L49.8353 24.2537L51.5566 22.5325C52.7891 21.2962 54.7041 23.2113 53.4716 24.4462L51.7491 26.1688L54.6191 29.0413C55.8553 30.275 53.9403 32.19 52.7078 30.9562L49.8341 28.0837L46.0053 31.9137L48.8778 34.7863C50.1128 36.0213 48.1954 37.9362 46.9641 36.7025L44.0904 33.83L40.2603 37.6613L43.1316 40.5325C44.3653 41.7688 42.4529 43.6812 41.2178 42.4475L38.3466 39.575L34.5166 43.405C35.4741 44.3625 36.4316 45.3188 37.3878 46.2775C38.6228 47.5113 36.7066 49.4262 35.4728 48.1937L32.6016 45.32L28.7716 49.15L31.6428 52.0238C32.8778 53.2575 30.9641 55.1725 29.7291 53.9362L26.8578 51.065C26.0391 51.88 25.4378 52.4837 25.1341 52.7862C23.9003 54.02 21.9866 52.1063 23.2191 50.87L24.9416 49.1488C23.9828 48.19 23.0253 47.2337 22.0703 46.2762C20.8353 45.0412 22.7491 43.125 23.9816 44.36L26.8553 47.235L30.6841 43.405L27.8103 40.5312C26.5778 39.2963 28.4928 37.38 29.7266 38.615L32.6003 41.4875L36.4291 37.6575L33.5578 34.7863C32.3216 33.55 34.2378 31.6362 35.4691 32.87L38.3428 35.745L42.1753 31.9137L39.3016 29.04ZM27.7066 72.1175C27.1891 72.21 26.6903 72.2812 26.1853 72.3587C21.6666 69.7425 17.3666 66.445 13.4653 62.54C9.56285 58.64 6.2641 54.3363 3.6491 49.82C3.72785 49.3162 3.7966 48.8262 3.89035 48.2975C4.46599 45.0358 5.27345 41.8193 6.3066 38.6725C8.7316 45.3675 12.9066 51.8688 18.5228 57.485C24.1353 63.1 30.6341 67.2763 37.3303 69.7025C34.1834 70.7334 30.9674 71.5404 27.7066 72.1175ZM69.5241 37.5037C67.0966 30.8088 62.9216 24.3112 57.3053 18.6962C51.6928 13.08 45.1928 8.905 38.4953 6.4775C41.6431 5.44595 44.8599 4.63852 48.1216 4.06125C48.6391 3.96875 49.1341 3.9 49.6404 3.81875C54.1578 6.43625 58.4604 9.73375 62.3653 13.6362C66.2678 17.5437 69.5678 21.8487 72.1841 26.37C72.1053 26.8687 72.0303 27.3625 71.9379 27.88C71.3602 31.1406 70.5537 34.3565 69.5241 37.5037Z" fill="#b0d8bd"/>
</svg>
