<svg width="104" height="208" viewBox="0 0 104 208" fill="none" xmlns="http://www.w3.org/2000/svg">
<path d="M93.7897 10.2044C90.3041 6.72219 81.0813 0.875 58.5141 0.875C49.0919 0.875 38.3738 1.93031 26.6485 4.01C15.8802 5.89236 5.28719 8.66681 -5.02124 12.3047C-26.4334 19.9394 -44.5937 31.1078 -58.9831 45.5041C-73.3862 59.9141 -84.5512 78.0709 -92.1687 99.4762C-95.7128 109.407 -98.504 120.06 -100.463 131.139C-107.823 172.678 -98.2531 189.552 -91.8903 195.912C-87.7034 200.099 -77.25 207.125 -54.2978 207.125H-54.2944C-46.1509 207.125 -37.0072 206.231 -27.1244 204.482C-16.0006 202.508 -5.34779 199.714 4.52814 196.187C25.9472 188.556 44.1075 177.387 58.5038 162.991C72.9 148.584 84.0685 130.421 91.6928 109.012C95.2163 99.1153 98.0041 88.4591 99.9806 77.3525C108.499 29.3169 97.3922 13.8172 93.7897 10.2044ZM3.57939 79.36C0.186577 75.9638 5.4494 70.6975 8.84565 74.0938L16.7485 81.9966C20.6432 78.1087 24.2147 74.5372 27.281 71.4641L19.3747 63.5612C15.9785 60.165 21.2481 54.8987 24.6478 58.2916L32.5472 66.1978L37.2807 61.4644C40.67 58.0647 45.9363 63.3309 42.5469 66.7272L37.81 71.4641L45.7025 79.3634C49.1022 82.7562 43.836 88.0225 40.4466 84.6297L32.5438 76.7303L22.0147 87.2628L29.9141 95.1622C33.3103 98.5584 28.0372 103.825 24.6513 100.432L16.7485 92.5325L6.21594 103.068L14.1119 110.964C17.5047 114.364 12.2453 119.623 8.84909 116.231L0.95314 108.331L-9.57936 118.864C-6.94624 121.497 -4.31311 124.127 -1.68343 126.763C1.71283 130.156 -3.55686 135.422 -6.94967 132.033L-14.8456 124.13L-25.3781 134.662L-17.4822 142.565C-14.0859 145.958 -19.3487 151.224 -22.745 147.825L-30.6409 139.929C-32.8925 142.17 -34.5459 143.83 -35.3812 144.662C-38.774 148.055 -44.0369 142.792 -40.6475 139.393L-35.9106 134.659C-38.5472 132.022 -41.1803 129.393 -43.8065 126.76C-47.2028 123.363 -41.94 118.094 -38.5506 121.49L-30.6478 129.396L-20.1187 118.864L-28.0216 110.961C-31.4109 107.565 -26.1447 102.295 -22.7519 105.691L-14.849 113.591L-4.31998 103.058L-12.2159 95.1622C-15.6156 91.7625 -10.3459 86.4997 -6.95998 89.8925L0.942818 97.7987L11.4822 87.2628L3.57939 79.36ZM-28.3069 197.823C-29.73 198.077 -31.1015 198.273 -32.4903 198.487C-44.9169 191.292 -56.7419 182.224 -67.4703 171.485C-78.2022 160.76 -87.2737 148.925 -94.465 136.505C-94.2484 135.12 -94.0594 133.772 -93.8015 132.318C-92.2185 123.348 -89.998 114.503 -87.1569 105.849C-80.4881 124.261 -69.0069 142.139 -53.5622 157.584C-38.1278 173.025 -20.2562 184.51 -1.84155 191.182C-10.4957 194.017 -19.3396 196.236 -28.3069 197.823ZM86.6913 102.635C80.0157 84.2241 68.5344 66.3559 53.0897 50.9147C37.6553 35.47 19.7803 23.9888 1.3622 17.3131C10.0184 14.4764 18.8646 12.2559 27.8344 10.6684C29.2575 10.4141 30.6188 10.225 32.011 10.0016C44.4341 17.1997 56.266 26.2678 67.0047 36.9997C77.7366 47.7453 86.8116 59.5841 94.0063 72.0175C93.7897 73.3891 93.5835 74.7469 93.3291 76.17C91.7406 85.1367 89.5226 93.9803 86.6913 102.635Z" fill="#b0d8bd"/>
</svg>
