<svg width="375" height="456" viewBox="0 0 375 456" fill="none" xmlns="http://www.w3.org/2000/svg">
<path d="M460.018 5.90003V5.58121L460.307 5.44671L460.518 5.90003C460.307 5.44671 460.307 5.44664 460.307 5.44652L460.308 5.44599L460.313 5.44396L460.33 5.43606L460.395 5.40562C460.453 5.37911 460.536 5.34054 460.641 5.2922C460.851 5.19552 461.148 5.0597 461.494 4.903C462.185 4.58993 463.076 4.1922 463.871 3.85669C464.269 3.68904 464.645 3.53553 464.962 3.41546C465.268 3.29936 465.55 3.20249 465.742 3.16251C465.792 3.15216 465.854 3.14174 465.918 3.13931L465.919 3.13926C465.958 3.13776 466.108 3.13201 466.253 3.22242C466.346 3.28036 466.44 3.37977 466.48 3.52353C466.518 3.65597 466.494 3.7696 466.472 3.83651C466.432 3.9561 466.358 4.03922 466.327 4.073C466.19 4.22089 465.911 4.41697 465.533 4.65929C464.766 5.14959 463.351 5.97363 461.018 7.26448L461.018 439.222C462.032 439.363 462.857 439.53 463.519 439.717C464.322 439.945 464.927 440.213 465.345 440.531C465.772 440.857 466.035 441.264 466.053 441.742C466.071 442.198 465.861 442.608 465.597 442.944C465.33 443.286 464.966 443.605 464.574 443.892C463.789 444.469 462.816 444.979 462.052 445.34C461.668 445.522 461.331 445.669 461.09 445.771C460.969 445.822 460.872 445.861 460.805 445.888C460.771 445.902 460.745 445.912 460.727 445.919L460.706 445.927L460.701 445.93L460.699 445.93C460.699 445.93 460.698 445.931 460.518 445.464L460.698 445.931L460.018 446.194V445.464V440.104C456.153 439.669 449.762 439.554 439.593 440.04C425.822 440.697 405.184 442.451 374.631 445.961C252.355 460.008 151.887 460.137 -3.5676 435.514C-26.6703 431.854 -44.0867 429.516 -56.9985 428.184V445.464V446.166L-57.6619 445.937L-57.4985 445.464C-57.6619 445.937 -57.6623 445.937 -57.6631 445.936L-57.6667 445.935L-57.6807 445.93L-57.7357 445.911L-57.95 445.836C-58.1378 445.77 -58.4138 445.673 -58.7669 445.548C-59.4732 445.296 -60.4884 444.931 -61.725 444.475C-64.1978 443.563 -67.5576 442.287 -71.1038 440.833C-74.6487 439.38 -78.3862 437.745 -81.6123 436.115C-84.823 434.493 -87.5788 432.85 -89.1188 431.372C-89.8754 430.645 -90.4333 429.871 -90.4944 429.084C-90.5623 428.211 -90.0195 427.537 -89.1033 427.063C-88.198 426.594 -86.8234 426.254 -84.9373 426.038C-83.0405 425.82 -80.5836 425.723 -77.4847 425.767C-72.6737 425.835 -66.2871 426.243 -57.9985 427.077V2V1.30108L-57.337 1.52679L-57.4985 2C-57.337 1.52679 -57.3365 1.52695 -57.3354 1.52731L-57.3305 1.529L-57.3104 1.53585L-57.2294 1.56326C-57.1575 1.58757 -57.0497 1.62384 -56.907 1.67156C-56.6216 1.767 -56.1962 1.90823 -55.6374 2.09106C-54.5198 2.45673 -52.8686 2.9888 -50.7358 3.6538C-46.4703 4.9838 -40.2789 6.84545 -32.5785 8.97091C-17.177 13.222 4.25757 18.5276 28.3904 22.7459C76.6849 31.1875 135.675 35.2538 178.765 17.9046C222.168 0.429135 267.912 10.5251 308.024 22.1776C313.616 23.8019 319.095 25.4558 324.444 27.0702C338.308 31.2545 351.292 35.1732 363.06 37.6234C379.377 41.0207 393.209 41.5582 403.697 36.1581C436.329 19.3553 452.54 10.7939 460.018 6.67463V5.90003Z" fill="url(#paint0_linear_7531_59607)" stroke="#4AFF85"/>
<defs>
<linearGradient id="paint0_linear_7531_59607" x1="207.257" y1="3.91717" x2="207.257" y2="465.961" gradientUnits="userSpaceOnUse">
<stop stop-color="#BAFFD9" stop-opacity="0.31"/>
<stop offset="0.546875" stop-color="#C8FFE1"/>
<stop offset="1" stop-color="#ECFFE9"/>
</linearGradient>
</defs>
</svg>
