<svg width="32" height="32" viewBox="0 0 32 32" fill="none" xmlns="http://www.w3.org/2000/svg">
<g clip-path="url(#clip0_7126_143299)">
<path d="M10.875 14.5714L16 10.8571L21.125 14.5714L19.1786 20.5714H12.8393L10.875 14.5714ZM16 0C18.1667 0 20.2381 0.422619 22.2143 1.26786C24.1905 2.1131 25.8929 3.25 27.3214 4.67857C28.75 6.10714 29.8869 7.80952 30.7321 9.78572C31.5774 11.7619 32 13.8333 32 16C32 18.1667 31.5774 20.2381 30.7321 22.2143C29.8869 24.1905 28.75 25.8929 27.3214 27.3214C25.8929 28.75 24.1905 29.8869 22.2143 30.7321C20.2381 31.5774 18.1667 32 16 32C13.8333 32 11.7619 31.5774 9.78572 30.7321C7.80952 29.8869 6.10714 28.75 4.67857 27.3214C3.25 25.8929 2.1131 24.1905 1.26786 22.2143C0.422619 20.2381 0 18.1667 0 16C0 13.8333 0.422619 11.7619 1.26786 9.78572C2.1131 7.80952 3.25 6.10714 4.67857 4.67857C6.10714 3.25 7.80952 2.1131 9.78572 1.26786C11.7619 0.422619 13.8333 0 16 0ZM27.0536 24.1071C28.8274 21.6905 29.7143 18.9881 29.7143 16V15.9464L27.8929 17.5357L23.6071 13.5357L24.7321 7.76786L27.125 7.98214C25.3393 5.52976 23.0238 3.85119 20.1786 2.94643L21.125 5.16071L16 8L10.875 5.16071L11.8214 2.94643C8.97619 3.85119 6.66071 5.52976 4.875 7.98214L7.28571 7.76786L8.39286 13.5357L4.10714 17.5357L2.28571 15.9464V16C2.28571 18.9881 3.17262 21.6905 4.94643 24.1071L5.48214 21.75L11.3036 22.4643L13.7857 27.7857L11.7143 29.0179C13.1071 29.4821 14.5357 29.7143 16 29.7143C17.4643 29.7143 18.8929 29.4821 20.2857 29.0179L18.2143 27.7857L20.6964 22.4643L26.5179 21.75L27.0536 24.1071Z" fill="white"/>
</g>
<defs>
<clipPath id="clip0_7126_143299">
<rect width="32" height="32" fill="white"/>
</clipPath>
</defs>
</svg>
