<svg width="1440" height="1311" viewBox="0 0 1440 1311" fill="none" xmlns="http://www.w3.org/2000/svg">
<g opacity="0.6">
<mask id="path-1-outside-1_6790_203989" maskUnits="userSpaceOnUse" x="-11.707" y="0.523438" width="1463" height="1310" fill="black">
<rect fill="white" x="-11.707" y="0.523438" width="1463" height="1310"/>
<path fill-rule="evenodd" clip-rule="evenodd" d="M-10.7063 653.893H-10.707V23.9428C-10.707 23.9428 48.6461 110.399 457.523 32.3828C679.015 -9.87934 744.961 19.255 797.37 42.4088C841.708 61.9973 876.358 77.3053 987.31 41.4789C1229.41 -36.6948 1450.29 23.9428 1450.29 23.9428L1450.29 653.893V1308.85C1450.29 1308.85 1192.4 1201.8 891.974 1241.86C591.55 1281.93 375.849 1287.02 183.078 1241.86L-9.69247 1196.71L-10.7063 653.893Z"/>
</mask>
<path fill-rule="evenodd" clip-rule="evenodd" d="M-10.7063 653.893H-10.707V23.9428C-10.707 23.9428 48.6461 110.399 457.523 32.3828C679.015 -9.87934 744.961 19.255 797.37 42.4088C841.708 61.9973 876.358 77.3053 987.31 41.4789C1229.41 -36.6948 1450.29 23.9428 1450.29 23.9428L1450.29 653.893V1308.85C1450.29 1308.85 1192.4 1201.8 891.974 1241.86C591.55 1281.93 375.849 1287.02 183.078 1241.86L-9.69247 1196.71L-10.7063 653.893Z" fill="url(#paint0_linear_6790_203989)"/>
<path d="M-10.707 653.893H-11.707V654.893H-10.707V653.893ZM-10.7063 653.893L-9.70631 653.891L-9.70818 652.893H-10.7063V653.893ZM-10.707 23.9428L-9.88261 23.3768L-11.707 20.7193V23.9428H-10.707ZM457.523 32.3828L457.711 33.3651L457.523 32.3828ZM797.37 42.4088L797.774 41.4941L797.37 42.4088ZM987.31 41.4789L987.002 40.5272L987.31 41.4789ZM1450.29 23.9428H1451.29V23.1803L1450.56 22.9784L1450.29 23.9428ZM1450.29 653.893H1451.29H1450.29ZM1450.29 1308.85L1449.91 1309.78L1451.29 1310.35V1308.85H1450.29ZM891.974 1241.86L892.106 1242.86L891.974 1241.86ZM183.078 1241.86L182.85 1242.84L183.078 1241.86ZM-9.69247 1196.71L-10.6925 1196.71L-10.691 1197.5L-9.92053 1197.68L-9.69247 1196.71ZM-10.707 654.893H-10.7063V652.893H-10.707V654.893ZM-11.707 23.9428V653.893H-9.70703V23.9428H-11.707ZM457.336 31.4005C252.958 70.3971 136.036 68.2665 70.2562 56.4348C37.3721 50.5199 17.2892 42.1841 5.45479 35.3661C-0.462093 31.9573 -4.31846 28.9272 -6.68373 26.7669C-7.8665 25.6867 -8.67702 24.8233 -9.18632 24.2382C-9.441 23.9455 -9.62044 23.7224 -9.73351 23.5763C-9.79005 23.5033 -9.83001 23.4495 -9.85448 23.4159C-9.86672 23.3991 -9.87509 23.3874 -9.87973 23.3808C-9.88205 23.3776 -9.88344 23.3756 -9.88392 23.3749C-9.88415 23.3746 -9.88382 23.375 -9.88394 23.3749C-9.88339 23.3757 -9.88261 23.3768 -10.707 23.9428C-11.5315 24.5087 -11.5302 24.5105 -11.5288 24.5127C-11.528 24.5138 -11.5263 24.5162 -11.5247 24.5185C-11.5215 24.5231 -11.5174 24.529 -11.5123 24.5361C-11.5022 24.5504 -11.4883 24.5699 -11.4704 24.5944C-11.4347 24.6433 -11.3833 24.7123 -11.3151 24.8005C-11.1786 24.9768 -10.9748 25.2296 -10.695 25.5512C-10.1352 26.1943 -9.27125 27.1123 -8.0325 28.2437C-5.55472 30.5068 -1.57977 33.6216 4.4564 37.0991C16.5281 44.0537 36.8383 52.456 69.9021 58.4032C136.018 70.2955 253.211 72.385 457.711 33.3651L457.336 31.4005ZM797.774 41.4941C771.539 29.9036 741.833 16.78 690.949 11.8694C640.096 6.96195 568.134 10.2595 457.336 31.4005L457.711 33.3651C568.404 12.2439 640.161 8.97759 690.756 13.8602C741.32 18.7397 770.792 31.7602 796.966 43.3235L797.774 41.4941ZM987.002 40.5272C931.585 58.4217 895.32 63.5124 867.424 61.7265C839.546 59.9418 819.944 51.2889 797.774 41.4941L796.966 43.3235C819.134 53.1172 839.027 61.9126 867.296 63.7224C895.547 65.531 932.083 60.3624 987.617 42.4305L987.002 40.5272ZM1450.29 23.9428C1450.56 22.9784 1450.56 22.9781 1450.55 22.9776C1450.55 22.9771 1450.55 22.9763 1450.55 22.9754C1450.54 22.9734 1450.53 22.9706 1450.51 22.9668C1450.49 22.9593 1450.45 22.9482 1450.39 22.9335C1450.28 22.9043 1450.12 22.861 1449.91 22.8044C1449.48 22.6912 1448.84 22.5249 1448 22.3115C1446.31 21.8848 1443.82 21.2699 1440.55 20.5156C1434.03 19.007 1424.44 16.9405 1412.18 14.7058C1387.65 10.2366 1352.44 5.09433 1309.65 2.39766C1224.08 -2.99534 1108.2 1.39102 987.002 40.5272L987.617 42.4305C1108.51 3.39302 1224.13 -0.988662 1309.52 4.3937C1352.22 7.08473 1387.36 12.216 1411.82 16.6734C1424.05 18.9021 1433.6 20.9621 1440.1 22.4642C1443.35 23.2153 1445.84 23.8268 1447.51 24.2502C1448.34 24.4619 1448.97 24.6265 1449.4 24.738C1449.61 24.7938 1449.77 24.8363 1449.87 24.8647C1449.92 24.8789 1449.96 24.8896 1449.99 24.8967C1450 24.9003 1450.01 24.9029 1450.02 24.9046C1450.02 24.9055 1450.02 24.9061 1450.03 24.9066C1450.03 24.9069 1450.03 24.9071 1450.29 23.9428ZM1451.29 653.893L1451.29 23.9428L1449.29 23.9428L1449.29 653.893H1451.29ZM1451.29 1308.85V653.893H1449.29V1308.85H1451.29ZM892.106 1242.86C1042.17 1222.84 1181.63 1239.57 1283.58 1261.31C1334.56 1272.18 1376.15 1284.3 1404.99 1293.7C1419.41 1298.4 1430.65 1302.42 1438.28 1305.27C1442.09 1306.69 1445 1307.82 1446.96 1308.59C1447.93 1308.98 1448.67 1309.27 1449.17 1309.48C1449.42 1309.58 1449.6 1309.65 1449.73 1309.7C1449.79 1309.73 1449.83 1309.75 1449.86 1309.76C1449.88 1309.77 1449.89 1309.77 1449.9 1309.77C1449.9 1309.77 1449.91 1309.78 1449.91 1309.78C1449.91 1309.78 1449.91 1309.78 1450.29 1308.85C1450.68 1307.93 1450.68 1307.93 1450.67 1307.93C1450.67 1307.93 1450.67 1307.93 1450.66 1307.93C1450.66 1307.92 1450.64 1307.92 1450.63 1307.91C1450.6 1307.9 1450.55 1307.88 1450.48 1307.85C1450.36 1307.8 1450.17 1307.72 1449.92 1307.62C1449.42 1307.42 1448.67 1307.12 1447.69 1306.73C1445.72 1305.95 1442.8 1304.82 1438.97 1303.4C1431.32 1300.54 1420.06 1296.51 1405.61 1291.8C1376.71 1282.38 1335.05 1270.24 1284 1259.36C1181.9 1237.58 1042.2 1220.82 891.841 1240.87L892.106 1242.86ZM182.85 1242.84C375.8 1288.03 591.646 1282.93 892.106 1242.86L891.841 1240.87C591.454 1280.94 375.898 1286 183.306 1240.89L182.85 1242.84ZM-9.92053 1197.68L182.85 1242.84L183.306 1240.89L-9.46441 1195.74L-9.92053 1197.68ZM-11.7063 653.895L-10.6925 1196.71L-8.69247 1196.71L-9.70631 653.891L-11.7063 653.895Z" fill="#4AFF85" mask="url(#path-1-outside-1_6790_203989)"/>
</g>
<defs>
<linearGradient id="paint0_linear_6790_203989" x1="719.793" y1="295.598" x2="719.877" y2="1249.34" gradientUnits="userSpaceOnUse">
<stop stop-color="#B4FFCA" stop-opacity="0.74"/>
<stop offset="0.401042" stop-color="#D7FFF4"/>
<stop offset="0.677083" stop-color="#DBFFE0"/>
<stop offset="1" stop-color="#B4FFBB"/>
</linearGradient>
</defs>
</svg>
