<svg width="32" height="32" viewBox="0 0 32 32" fill="none" xmlns="http://www.w3.org/2000/svg">
<path d="M8.375 17.0234H7.125V15.2734C7.125 15.2071 7.09866 15.1435 7.05178 15.0967C7.00489 15.0498 6.9413 15.0234 6.875 15.0234C6.8087 15.0234 6.74511 15.0498 6.69822 15.0967C6.65134 15.1435 6.625 15.2071 6.625 15.2734V17.0234H5.375C5.24239 17.0234 5.11521 17.0761 5.02145 17.1699C4.92768 17.2637 4.875 17.3908 4.875 17.5234V21.5234C4.875 21.656 4.92768 21.7832 5.02145 21.877C5.11521 21.9708 5.24239 22.0234 5.375 22.0234H6.625V23.7734C6.625 23.8397 6.65134 23.9033 6.69822 23.9502C6.74511 23.9971 6.8087 24.0234 6.875 24.0234C6.9413 24.0234 7.00489 23.9971 7.05178 23.9502C7.09866 23.9033 7.125 23.8397 7.125 23.7734V22.0234H8.375C8.50761 22.0234 8.63479 21.9708 8.72855 21.877C8.82232 21.7832 8.875 21.656 8.875 21.5234V17.5234C8.875 17.3908 8.82232 17.2637 8.72855 17.1699C8.63479 17.0761 8.50761 17.0234 8.375 17.0234ZM7.875 21.0234H5.875V18.0234H7.875V21.0234ZM13.375 9.52344H12.125V7.77344C12.125 7.70713 12.0987 7.64354 12.0518 7.59666C12.0049 7.54978 11.9413 7.52344 11.875 7.52344C11.8087 7.52344 11.7451 7.54978 11.6982 7.59666C11.6513 7.64354 11.625 7.70713 11.625 7.77344V9.52344H10.375C10.2424 9.52344 10.1152 9.57612 10.0214 9.66988C9.92768 9.76365 9.875 9.89083 9.875 10.0234V18.5234C9.875 18.656 9.92768 18.7832 10.0214 18.877C10.1152 18.9708 10.2424 19.0234 10.375 19.0234H11.625V20.7734C11.625 20.8397 11.6513 20.9033 11.6982 20.9502C11.7451 20.9971 11.8087 21.0234 11.875 21.0234C11.9413 21.0234 12.0049 20.9971 12.0518 20.9502C12.0987 20.9033 12.125 20.8397 12.125 20.7734V19.0234H13.375C13.5076 19.0234 13.6348 18.9708 13.7286 18.877C13.8223 18.7832 13.875 18.656 13.875 18.5234V10.0234C13.875 9.89083 13.8223 9.76365 13.7286 9.66988C13.6348 9.57612 13.5076 9.52344 13.375 9.52344ZM12.875 18.0234H10.875V10.5234H12.875V14.2734V18.0234ZM18.375 4.02344H17.125V2.27344C17.125 2.20713 17.0987 2.14354 17.0518 2.09666C17.0049 2.04978 16.9413 2.02344 16.875 2.02344C16.8087 2.02344 16.7451 2.04978 16.6982 2.09666C16.6513 2.14354 16.625 2.20713 16.625 2.27344V4.02344H15.375C15.2424 4.02344 15.1152 4.07612 15.0214 4.16988C14.9277 4.26365 14.875 4.39083 14.875 4.52344V10.0234C14.875 10.156 14.9277 10.2832 15.0214 10.377C15.1152 10.4708 15.2424 10.5234 15.375 10.5234H16.625V12.2734C16.625 12.3397 16.6513 12.4033 16.6982 12.4502C16.7451 12.4971 16.8087 12.5234 16.875 12.5234C16.9413 12.5234 17.0049 12.4971 17.0518 12.4502C17.0987 12.4033 17.125 12.3397 17.125 12.2734V10.5234H18.375C18.5076 10.5234 18.6348 10.4708 18.7286 10.377C18.8223 10.2832 18.875 10.156 18.875 10.0234V4.52344C18.875 4.39083 18.8223 4.26365 18.7286 4.16988C18.6348 4.07612 18.5076 4.02344 18.375 4.02344ZM17.875 9.52344H15.875V5.02344H17.875V9.52344ZM23.375 7.52344H22.125V5.77344C22.125 5.70713 22.0987 5.64354 22.0518 5.59666C22.0049 5.54978 21.9413 5.52344 21.875 5.52344C21.8087 5.52344 21.7451 5.54978 21.6982 5.59666C21.6513 5.64354 21.625 5.70713 21.625 5.77344V7.52344H20.375C20.2424 7.52344 20.1152 7.57612 20.0214 7.66988C19.9277 7.76365 19.875 7.89083 19.875 8.02344V12.0234C19.875 12.156 19.9277 12.2832 20.0214 12.377C20.1152 12.4708 20.2424 12.5234 20.375 12.5234H21.625V14.2734C21.625 14.3397 21.6513 14.4033 21.6982 14.4502C21.7451 14.4971 21.8087 14.5234 21.875 14.5234C21.9413 14.5234 22.0049 14.4971 22.0518 14.4502C22.0987 14.4033 22.125 14.3397 22.125 14.2734V12.5234H23.375C23.5076 12.5234 23.6348 12.4708 23.7286 12.377C23.8223 12.2832 23.875 12.156 23.875 12.0234V8.02344C23.875 7.89083 23.8223 7.76365 23.7286 7.66988C23.6348 7.57612 23.5076 7.52344 23.375 7.52344ZM22.875 11.5234H20.875V8.52344H22.875V11.5234ZM28.375 9.52344H27.125V7.77344C27.125 7.70713 27.0987 7.64354 27.0518 7.59666C27.0049 7.54978 26.9413 7.52344 26.875 7.52344C26.8087 7.52344 26.7451 7.54978 26.6982 7.59666C26.6513 7.64354 26.625 7.70713 26.625 7.77344V9.52344H25.375C25.2424 9.52344 25.1152 9.57612 25.0214 9.66988C24.9277 9.76365 24.875 9.89083 24.875 10.0234V17.5234C24.875 17.656 24.9277 17.7832 25.0214 17.877C25.1152 17.9708 25.2424 18.0234 25.375 18.0234H26.625V19.7734C26.625 19.8397 26.6513 19.9033 26.6982 19.9502C26.7451 19.9971 26.8087 20.0234 26.875 20.0234C26.9413 20.0234 27.0049 19.9971 27.0518 19.9502C27.0987 19.9033 27.125 19.8397 27.125 19.7734V18.0234H28.375C28.5076 18.0234 28.6348 17.9708 28.7286 17.877C28.8223 17.7832 28.875 17.656 28.875 17.5234V10.0234C28.875 9.89083 28.8223 9.76365 28.7286 9.66988C28.6348 9.57612 28.5076 9.52344 28.375 9.52344ZM27.875 17.0234H25.875V10.5234H27.875V17.0234Z" fill="white"/>
<path d="M3.375 30.0234C3.24239 30.0234 3.11521 29.9708 3.02145 29.877C2.92768 29.7832 2.875 29.656 2.875 29.5234V2.52344C2.875 2.39083 2.92768 2.26365 3.02145 2.16988C3.11521 2.07612 3.24239 2.02344 3.375 2.02344C3.50761 2.02344 3.63479 2.07612 3.72855 2.16988C3.82232 2.26365 3.875 2.39083 3.875 2.52344V29.5234C3.875 29.656 3.82232 29.7832 3.72855 29.877C3.63479 29.9708 3.50761 30.0234 3.375 30.0234Z" fill="white"/>
<path d="M2.375 29.0239C2.24239 29.0239 2.11521 28.9713 2.02145 28.8775C1.92768 28.7837 1.875 28.6565 1.875 28.5239C1.875 28.3913 1.92768 28.2642 2.02145 28.1704C2.11521 28.0766 2.24239 28.0239 2.375 28.0239L29.375 28.0234C29.5076 28.0234 29.6348 28.0761 29.7286 28.1699C29.8223 28.2637 29.875 28.3908 29.875 28.5234C29.875 28.656 29.8223 28.7832 29.7286 28.877C29.6348 28.9708 29.5076 29.0234 29.375 29.0234L2.375 29.0239Z" fill="white"/>
</svg>
