<svg width="375" height="402" viewBox="0 0 375 402" fill="none" xmlns="http://www.w3.org/2000/svg">
<mask id="path-1-outside-1_6772_184712" maskUnits="userSpaceOnUse" x="-299.25" y="7.79688" width="892" height="389" fill="black">
<rect fill="white" x="-299.25" y="7.79688" width="892" height="389"/>
<path fill-rule="evenodd" clip-rule="evenodd" d="M-298.244 199.638H-298.25V21.6928C-298.25 21.6928 -115.635 85.6589 36.5433 37.8869C116.771 12.7019 152.77 21.2401 187.67 29.5178C218.969 36.9416 249.386 44.1558 310.03 26.6463C438.295 -10.3868 592.213 21.6928 592.213 21.6928V199.638H592.219V384.648C592.219 384.648 441.048 350.974 257.425 367.811C174.148 375.447 121.073 370.054 75.9698 365.47C21.6222 359.948 -21.1517 355.601 -91.2455 376.643C-219.51 415.146 -298.244 384.648 -298.244 384.648V199.638Z"/>
</mask>
<path fill-rule="evenodd" clip-rule="evenodd" d="M-298.244 199.638H-298.25V21.6928C-298.25 21.6928 -115.635 85.6589 36.5433 37.8869C116.771 12.7019 152.77 21.2401 187.67 29.5178C218.969 36.9416 249.386 44.1558 310.03 26.6463C438.295 -10.3868 592.213 21.6928 592.213 21.6928V199.638H592.219V384.648C592.219 384.648 441.048 350.974 257.425 367.811C174.148 375.447 121.073 370.054 75.9698 365.47C21.6222 359.948 -21.1517 355.601 -91.2455 376.643C-219.51 415.146 -298.244 384.648 -298.244 384.648V199.638Z" fill="url(#paint0_linear_6772_184712)"/>
<path d="M-298.25 199.638H-298.494V199.882H-298.25V199.638ZM-298.244 199.638H-298V199.394H-298.244V199.638ZM-298.25 21.6928L-298.169 21.4625L-298.494 21.3488V21.6928H-298.25ZM36.5433 37.8869L36.4702 37.6541L36.5433 37.8869ZM187.67 29.5178L187.726 29.2804L187.67 29.5178ZM310.03 26.6463L310.098 26.8807L310.03 26.6463ZM592.213 21.6928H592.457V21.4944L592.263 21.4539L592.213 21.6928ZM592.213 199.638H591.969V199.882H592.213V199.638ZM592.219 199.638H592.463V199.394H592.219V199.638ZM592.219 384.648L592.166 384.886L592.463 384.952V384.648H592.219ZM257.425 367.811L257.448 368.054L257.425 367.811ZM75.9698 365.47L75.9452 365.713L75.9698 365.47ZM-91.2455 376.643L-91.3156 376.409L-91.2455 376.643ZM-298.244 384.648H-298.488V384.815L-298.333 384.875L-298.244 384.648ZM-298.25 199.882H-298.244V199.394H-298.25V199.882ZM-298.494 21.6928V199.638H-298.006V21.6928H-298.494ZM36.4702 37.6541C-39.5677 61.524 -123.223 57.4808 -187.883 47.4632C-220.21 42.4549 -247.784 35.954 -267.275 30.7055C-277.021 28.0812 -284.745 25.7701 -290.033 24.1152C-292.677 23.2877 -294.712 22.6244 -296.085 22.168C-296.772 21.9397 -297.293 21.7633 -297.643 21.6439C-297.817 21.5842 -297.949 21.5388 -298.037 21.5084C-298.081 21.4932 -298.114 21.4817 -298.136 21.474C-298.147 21.4701 -298.156 21.4673 -298.161 21.4654C-298.164 21.4644 -298.166 21.4637 -298.167 21.4632C-298.169 21.4627 -298.169 21.4625 -298.25 21.6928C-298.331 21.9231 -298.33 21.9233 -298.328 21.9238C-298.327 21.9243 -298.325 21.9251 -298.322 21.9261C-298.316 21.928 -298.308 21.931 -298.297 21.9349C-298.275 21.9426 -298.241 21.9542 -298.197 21.9696C-298.108 22.0002 -297.976 22.0458 -297.8 22.1057C-297.45 22.2255 -296.927 22.4024 -296.239 22.631C-294.863 23.0883 -292.826 23.7526 -290.179 24.5809C-284.886 26.2375 -277.155 28.5505 -267.402 31.1767C-247.898 36.4289 -220.306 42.9338 -187.958 47.9455C-123.266 57.968 -39.5245 62.0219 36.6164 38.1197L36.4702 37.6541ZM187.726 29.2804C170.275 25.1414 152.526 20.931 129.104 20.9099C105.683 20.8887 76.6016 25.0561 36.4702 37.6541L36.6164 38.1197C76.7126 25.5327 105.744 21.3767 129.104 21.3978C152.464 21.419 170.164 25.6166 187.613 29.7553L187.726 29.2804ZM309.963 26.4119C279.66 35.1609 256.92 37.7302 237.853 37.1882C218.783 36.6461 203.377 32.9925 187.726 29.2804L187.613 29.7553C203.262 33.4669 218.714 37.1323 237.839 37.676C256.965 38.2196 279.756 35.6412 310.098 26.8807L309.963 26.4119ZM592.213 21.6928C592.263 21.4539 592.262 21.4538 592.261 21.4535C592.26 21.4533 592.258 21.4529 592.256 21.4524C592.251 21.4514 592.244 21.45 592.235 21.448C592.216 21.4441 592.188 21.4383 592.15 21.4307C592.076 21.4153 591.964 21.3926 591.816 21.3627C591.52 21.3031 591.08 21.2151 590.5 21.1021C589.34 20.876 587.623 20.5492 585.392 20.1466C580.931 19.3413 574.415 18.2324 566.195 17.0176C549.756 14.588 526.501 11.7345 499.236 10.0386C444.711 6.64705 374.134 7.88418 309.963 26.4119L310.098 26.8807C374.192 8.37528 444.706 7.13566 499.206 10.5256C526.454 12.2205 549.695 15.0723 566.124 17.5004C574.338 18.7144 580.849 19.8224 585.306 20.6268C587.534 21.029 589.249 21.3553 590.407 21.581C590.985 21.6939 591.425 21.7816 591.72 21.8411C591.867 21.8708 591.978 21.8935 592.052 21.9087C592.089 21.9163 592.117 21.9221 592.136 21.9259C592.145 21.9278 592.152 21.9293 592.157 21.9302C592.159 21.9307 592.161 21.9311 592.162 21.9313C592.163 21.9315 592.163 21.9317 592.213 21.6928ZM592.457 199.638V21.6928H591.969V199.638H592.457ZM592.219 199.394H592.213V199.882H592.219V199.394ZM592.463 384.648V199.638H591.975V384.648H592.463ZM257.448 368.054C349.239 359.637 432.921 363.845 493.655 370.158C524.022 373.314 548.652 376.997 565.688 379.89C574.207 381.336 580.827 382.586 585.317 383.473C587.562 383.917 589.275 384.27 590.426 384.513C591.001 384.634 591.437 384.727 591.728 384.79C591.873 384.822 591.983 384.846 592.056 384.862C592.093 384.87 592.12 384.876 592.138 384.88C592.148 384.882 592.154 384.883 592.159 384.884C592.161 384.885 592.163 384.885 592.164 384.886C592.165 384.886 592.166 384.886 592.219 384.648C592.272 384.41 592.271 384.41 592.27 384.409C592.269 384.409 592.267 384.409 592.265 384.408C592.26 384.407 592.253 384.406 592.244 384.403C592.225 384.399 592.198 384.393 592.161 384.385C592.087 384.369 591.977 384.345 591.831 384.313C591.539 384.25 591.103 384.156 590.526 384.035C589.373 383.792 587.659 383.439 585.412 382.994C580.918 382.106 574.293 380.856 565.77 379.409C548.724 376.514 524.084 372.83 493.706 369.673C432.949 363.358 349.235 359.147 257.403 367.568L257.448 368.054ZM75.9452 365.713C121.054 370.297 174.147 375.692 257.448 368.054L257.403 367.568C174.149 375.202 121.093 369.81 75.9945 365.228L75.9452 365.713ZM-91.1753 376.876C-21.1291 355.849 21.6055 360.191 75.9452 365.713L75.9945 365.228C21.6389 359.704 -21.1744 355.354 -91.3156 376.409L-91.1753 376.876ZM-298.244 384.648C-298.333 384.875 -298.332 384.876 -298.331 384.876C-298.331 384.876 -298.33 384.876 -298.329 384.877C-298.326 384.878 -298.322 384.879 -298.317 384.881C-298.307 384.885 -298.293 384.891 -298.273 384.898C-298.234 384.913 -298.176 384.935 -298.099 384.963C-297.945 385.02 -297.715 385.104 -297.41 385.211C-296.799 385.426 -295.889 385.736 -294.684 386.116C-292.276 386.876 -288.694 387.919 -283.995 389.049C-274.598 391.309 -260.736 393.92 -242.863 395.327C-207.119 398.141 -155.339 396.137 -91.1753 376.876L-91.3156 376.409C-155.417 395.651 -207.137 397.65 -242.825 394.841C-260.67 393.436 -274.507 390.829 -283.881 388.574C-288.568 387.447 -292.139 386.408 -294.537 385.65C-295.736 385.272 -296.642 384.964 -297.248 384.751C-297.551 384.644 -297.778 384.561 -297.93 384.505C-298.006 384.477 -298.063 384.456 -298.101 384.442C-298.119 384.434 -298.133 384.429 -298.143 384.426C-298.147 384.424 -298.151 384.422 -298.153 384.422C-298.154 384.421 -298.155 384.421 -298.156 384.421C-298.156 384.42 -298.156 384.42 -298.244 384.648ZM-298.488 199.638V384.648H-298V199.638H-298.488Z" fill="#4AFF85" mask="url(#path-1-outside-1_6772_184712)"/>
<g opacity="0.6">
<mask id="path-3-outside-2_6772_184712" maskUnits="userSpaceOnUse" x="-299.258" y="4.11719" width="892" height="395" fill="black">
<rect fill="white" x="-299.258" y="4.11719" width="892" height="395"/>
<path fill-rule="evenodd" clip-rule="evenodd" d="M-298.254 198.696H-298.258V18.1981C-298.258 18.1981 -115.64 83.082 36.542 34.6246C116.771 9.07821 152.77 17.739 187.671 26.1354C218.972 33.6657 249.389 40.9834 310.034 23.2227C438.302 -14.3417 592.223 18.1981 592.223 18.1981V198.696H592.227V386.36C592.227 386.36 441.053 352.203 257.427 369.282C174.148 377.027 121.072 371.557 75.9676 366.908C21.6189 361.306 -21.1559 356.897 -91.2509 378.24C-219.518 417.296 -298.254 386.36 -298.254 386.36V198.696Z"/>
</mask>
<path fill-rule="evenodd" clip-rule="evenodd" d="M-298.254 198.696H-298.258V18.1981C-298.258 18.1981 -115.64 83.082 36.542 34.6246C116.771 9.07821 152.77 17.739 187.671 26.1354C218.972 33.6657 249.389 40.9834 310.034 23.2227C438.302 -14.3417 592.223 18.1981 592.223 18.1981V198.696H592.227V386.36C592.227 386.36 441.053 352.203 257.427 369.282C174.148 377.027 121.072 371.557 75.9676 366.908C21.6189 361.306 -21.1559 356.897 -91.2509 378.24C-219.518 417.296 -298.254 386.36 -298.254 386.36V198.696Z" fill="url(#paint1_linear_6772_184712)"/>
<path d="M-298.258 198.696H-298.502V198.94H-298.258V198.696ZM-298.254 198.696H-298.01V198.452H-298.254V198.696ZM-298.258 18.1981L-298.176 17.9682L-298.502 17.8525V18.1981H-298.258ZM36.542 34.6246L36.6161 34.8571L36.542 34.6246ZM187.671 26.1354L187.614 26.3727L187.671 26.1354ZM310.034 23.2227L309.966 22.9885L310.034 23.2227ZM592.223 18.1981H592.467V18.0003L592.273 17.9594L592.223 18.1981ZM592.223 198.696H591.979V198.94H592.223V198.696ZM592.227 198.696H592.471V198.452H592.227V198.696ZM592.227 386.36L592.173 386.598L592.471 386.666V386.36H592.227ZM257.427 369.282L257.404 369.039L257.427 369.282ZM75.9676 366.908L75.9425 367.15L75.9676 366.908ZM-91.2509 378.24L-91.322 378.007L-91.2509 378.24ZM-298.254 386.36H-298.498V386.527L-298.343 386.587L-298.254 386.36ZM-298.258 198.94H-298.254V198.452H-298.258V198.94ZM-298.502 18.1981V198.696H-298.014V18.1981H-298.502ZM36.468 34.3921C-39.5707 58.6042 -123.227 54.5031 -187.888 44.3418C-220.216 39.2616 -247.79 32.6676 -267.282 27.3437C-277.027 24.6818 -284.752 22.3375 -290.04 20.6589C-292.684 19.8196 -294.718 19.1467 -296.092 18.6837C-296.779 18.4523 -297.3 18.2733 -297.649 18.1522C-297.824 18.0917 -297.956 18.0456 -298.044 18.0147C-298.088 17.9993 -298.121 17.9876 -298.143 17.9798C-298.154 17.9759 -298.163 17.973 -298.168 17.9711C-298.171 17.9701 -298.173 17.9694 -298.174 17.9689C-298.175 17.9684 -298.176 17.9682 -298.258 18.1981C-298.34 18.428 -298.339 18.4283 -298.337 18.4288C-298.336 18.4293 -298.334 18.4301 -298.331 18.4311C-298.325 18.4331 -298.317 18.436 -298.306 18.44C-298.283 18.4479 -298.25 18.4596 -298.206 18.4752C-298.117 18.5063 -297.985 18.5526 -297.809 18.6133C-297.458 18.7348 -296.936 18.9143 -296.248 19.1462C-294.872 19.61 -292.834 20.2838 -290.188 21.124C-284.894 22.8044 -277.163 25.1506 -267.41 27.8144C-247.905 33.142 -220.313 39.7403 -187.964 44.8239C-123.27 54.9903 -39.5269 59.1024 36.6161 34.8571L36.468 34.3921ZM187.728 25.8982C170.277 21.6998 152.528 17.4289 129.105 17.4075C105.683 17.386 76.6003 21.6133 36.468 34.3921L36.6161 34.8571C76.7129 22.0895 105.744 17.874 129.105 17.8954C152.464 17.9169 170.164 22.1746 187.614 26.3727L187.728 25.8982ZM309.966 22.9885C279.663 31.863 256.923 34.469 237.855 33.9193C218.786 33.3695 203.379 29.6635 187.728 25.8982L187.614 26.3727C203.264 30.1376 218.715 33.8556 237.841 34.4071C256.969 34.9586 279.76 32.3431 310.103 23.4568L309.966 22.9885ZM592.223 18.1981C592.273 17.9594 592.273 17.9593 592.271 17.959C592.27 17.9587 592.268 17.9584 592.266 17.9579C592.261 17.9569 592.254 17.9554 592.245 17.9534C592.226 17.9495 592.198 17.9436 592.16 17.9358C592.086 17.9202 591.974 17.8971 591.826 17.8669C591.531 17.8063 591.09 17.7172 590.51 17.6025C589.35 17.3731 587.633 17.0417 585.402 16.6333C580.941 15.8165 574.425 14.6917 566.205 13.4594C549.765 10.9949 526.509 8.10046 499.244 6.38023C444.718 2.94002 374.139 4.19489 309.966 22.9885L310.103 23.4568C374.198 4.68606 444.713 3.42864 499.214 6.86725C526.462 8.58643 549.703 11.4792 566.132 13.942C574.347 15.1734 580.858 16.2973 585.315 17.1133C587.543 17.5213 589.258 17.8523 590.416 18.0812C590.994 18.1957 591.434 18.2846 591.728 18.3449C591.876 18.3751 591.987 18.3981 592.061 18.4135C592.098 18.4213 592.126 18.4271 592.145 18.431C592.154 18.4329 592.161 18.4344 592.165 18.4354C592.168 18.4359 592.169 18.4362 592.171 18.4365C592.172 18.4367 592.172 18.4368 592.223 18.1981ZM592.467 198.696V18.1981H591.979V198.696H592.467ZM592.227 198.452H592.223V198.94H592.227V198.452ZM592.471 386.36V198.696H591.983V386.36H592.471ZM257.449 369.525C349.242 360.987 432.926 365.256 493.661 371.659C524.028 374.861 548.658 378.596 565.695 381.53C574.214 382.998 580.834 384.265 585.324 385.165C587.569 385.615 589.282 385.974 590.433 386.219C591.009 386.342 591.444 386.437 591.735 386.501C591.88 386.533 591.99 386.557 592.063 386.574C592.1 386.582 592.127 386.588 592.146 386.592C592.155 386.594 592.161 386.596 592.166 386.597C592.168 386.597 592.17 386.598 592.171 386.598C592.172 386.598 592.173 386.598 592.227 386.36C592.28 386.122 592.28 386.122 592.279 386.122C592.277 386.122 592.276 386.121 592.273 386.121C592.269 386.12 592.262 386.118 592.252 386.116C592.234 386.112 592.206 386.106 592.169 386.097C592.096 386.081 591.986 386.057 591.84 386.024C591.548 385.96 591.111 385.865 590.535 385.742C589.382 385.496 587.667 385.137 585.42 384.687C580.926 383.786 574.301 382.518 565.778 381.05C548.732 378.113 524.091 374.377 493.712 371.174C432.954 364.768 349.238 360.497 257.404 369.039L257.449 369.525ZM75.9425 367.15C121.052 371.8 174.147 377.272 257.449 369.525L257.404 369.039C174.149 376.782 121.092 371.313 75.9926 366.665L75.9425 367.15ZM-91.1798 378.474C-21.1328 357.145 21.602 361.549 75.9425 367.15L75.9926 366.665C21.6358 361.062 -21.1789 356.649 -91.322 378.007L-91.1798 378.474ZM-298.254 386.36C-298.343 386.587 -298.343 386.587 -298.342 386.588C-298.341 386.588 -298.34 386.588 -298.339 386.589C-298.337 386.59 -298.333 386.591 -298.328 386.593C-298.318 386.597 -298.303 386.603 -298.284 386.61C-298.245 386.625 -298.187 386.647 -298.11 386.676C-297.956 386.734 -297.726 386.819 -297.42 386.928C-296.81 387.146 -295.899 387.46 -294.695 387.846C-292.286 388.617 -288.704 389.674 -284.005 390.821C-274.608 393.114 -260.745 395.762 -242.872 397.189C-207.126 400.044 -155.345 398.011 -91.1798 378.474L-91.322 378.007C-155.424 397.525 -207.144 399.553 -242.833 396.703C-260.678 395.278 -274.516 392.634 -283.89 390.347C-288.577 389.203 -292.148 388.149 -294.546 387.381C-295.745 386.997 -296.651 386.685 -297.256 386.468C-297.559 386.36 -297.787 386.276 -297.939 386.219C-298.014 386.191 -298.071 386.169 -298.109 386.155C-298.128 386.147 -298.142 386.142 -298.151 386.138C-298.156 386.137 -298.159 386.135 -298.162 386.134C-298.163 386.134 -298.163 386.134 -298.164 386.133C-298.165 386.133 -298.165 386.133 -298.254 386.36ZM-298.498 198.696V386.36H-298.01V198.696H-298.498Z" fill="#4AFF85" mask="url(#path-3-outside-2_6772_184712)"/>
</g>
<g opacity="0.4">
<mask id="path-5-outside-3_6772_184712" maskUnits="userSpaceOnUse" x="-304" y="0" width="904" height="402" fill="black">
<rect fill="white" x="-304" width="904" height="402"/>
<path fill-rule="evenodd" clip-rule="evenodd" d="M-302.999 198.093H-303V14.3184C-303 14.3184 -118.02 80.3799 36.1306 31.043C117.398 5.03291 153.863 13.8509 189.215 22.3997C220.92 30.0667 251.73 37.5172 313.161 19.4341C443.087 -18.8121 598.999 14.3184 598.999 14.3184V198.093H599V389.163C599 389.163 445.871 354.386 259.869 371.774C175.513 379.661 121.751 374.091 76.063 369.357C21.0113 363.654 -22.3168 359.165 -93.3187 380.896C-223.245 420.66 -302.999 389.163 -302.999 389.163V198.093Z"/>
</mask>
<path fill-rule="evenodd" clip-rule="evenodd" d="M-302.999 198.093H-303V14.3184C-303 14.3184 -118.02 80.3799 36.1306 31.043C117.398 5.03291 153.863 13.8509 189.215 22.3997C220.92 30.0667 251.73 37.5172 313.161 19.4341C443.087 -18.8121 598.999 14.3184 598.999 14.3184V198.093H599V389.163C599 389.163 445.871 354.386 259.869 371.774C175.513 379.661 121.751 374.091 76.063 369.357C21.0113 363.654 -22.3168 359.165 -93.3187 380.896C-223.245 420.66 -302.999 389.163 -302.999 389.163V198.093Z" fill="url(#paint2_linear_6772_184712)"/>
<path d="M-303 198.093H-303.244V198.337H-303V198.093ZM-302.999 198.093H-302.755V197.849H-302.999V198.093ZM-303 14.3184L-302.918 14.0886L-303.244 13.9721V14.3184H-303ZM36.1306 31.043L36.0563 30.8106L36.1306 31.043ZM189.215 22.3997L189.272 22.1626L189.215 22.3997ZM313.161 19.4341L313.23 19.6682L313.161 19.4341ZM598.999 14.3184H599.243V14.1208L599.05 14.0797L598.999 14.3184ZM598.999 198.093H598.755V198.337H598.999V198.093ZM599 198.093H599.244V197.849H599V198.093ZM599 389.163L598.946 389.401L599.244 389.469V389.163H599ZM259.869 371.774L259.847 371.531L259.869 371.774ZM76.063 369.357L76.0881 369.115L76.063 369.357ZM-93.3187 380.896L-93.2473 381.129L-93.3187 380.896ZM-302.999 389.163H-303.243V389.329L-303.089 389.39L-302.999 389.163ZM-303 198.337H-302.999V197.849H-303V198.337ZM-303.244 14.3184V198.093H-302.756V14.3184H-303.244ZM36.0563 30.8106C-40.9665 55.4623 -125.705 51.2867 -191.203 40.941C-223.949 35.7686 -251.88 29.0548 -271.624 23.6343C-281.495 20.9241 -289.32 18.5372 -294.676 16.8281C-297.355 15.9736 -299.415 15.2885 -300.807 14.8171C-301.502 14.5814 -302.03 14.3992 -302.384 14.2759C-302.561 14.2143 -302.695 14.1674 -302.784 14.1359C-302.829 14.1202 -302.862 14.1083 -302.885 14.1004C-302.896 14.0965 -302.904 14.0935 -302.91 14.0915C-302.912 14.0905 -302.915 14.0898 -302.916 14.0893C-302.917 14.0888 -302.918 14.0886 -303 14.3184C-303.082 14.5481 -303.081 14.5484 -303.08 14.5489C-303.078 14.5494 -303.076 14.5502 -303.073 14.5512C-303.068 14.5533 -303.059 14.5563 -303.048 14.5603C-303.025 14.5683 -302.991 14.5803 -302.946 14.5962C-302.857 14.6278 -302.723 14.6749 -302.545 14.7368C-302.19 14.8605 -301.66 15.0432 -300.963 15.2793C-299.569 15.7516 -297.506 16.4376 -294.825 17.293C-289.463 19.004 -281.632 21.3927 -271.753 24.1049C-251.996 29.5291 -224.047 36.2472 -191.279 41.423C-125.749 51.7739 -40.9225 55.9606 36.205 31.2754L36.0563 30.8106ZM189.272 22.1626C171.595 17.888 153.616 13.5396 129.891 13.5178C106.166 13.4959 76.7076 17.7999 36.0563 30.8106L36.205 31.2754C76.8207 18.276 106.228 13.9839 129.891 14.0058C153.553 14.0276 171.482 18.3626 189.158 22.6369L189.272 22.1626ZM313.092 19.2001C282.397 28.2357 259.362 30.8891 240.048 30.3293C220.732 29.7695 205.126 25.9963 189.272 22.1626L189.158 22.6369C205.009 26.4702 220.661 30.2557 240.034 30.8171C259.408 31.3786 282.494 28.7157 313.23 19.6682L313.092 19.2001ZM598.999 14.3184C599.05 14.0797 599.049 14.0796 599.048 14.0793C599.047 14.079 599.045 14.0786 599.043 14.0781C599.038 14.0771 599.031 14.0756 599.021 14.0736C599.002 14.0696 598.974 14.0636 598.936 14.0557C598.86 14.0398 598.747 14.0163 598.597 13.9855C598.298 13.9239 597.852 13.8331 597.264 13.7163C596.09 13.4828 594.35 13.1453 592.09 12.7295C587.571 11.8979 580.971 10.7527 572.644 9.49805C555.992 6.98883 532.436 4.04184 504.818 2.29039C449.586 -1.21226 378.094 0.0654018 313.092 19.2001L313.23 19.6682C378.154 0.556603 449.581 -0.723625 504.787 2.7774C532.388 4.5278 555.93 7.47303 572.572 9.98059C580.892 11.2344 587.487 12.3787 592.002 13.2094C594.259 13.6248 595.997 13.9618 597.169 14.1949C597.755 14.3115 598.201 14.4021 598.499 14.4635C598.648 14.4942 598.761 14.5176 598.836 14.5333C598.874 14.5412 598.902 14.5471 598.921 14.5511C598.93 14.5531 598.937 14.5546 598.942 14.5556C598.944 14.556 598.946 14.5564 598.947 14.5567C598.948 14.5569 598.949 14.557 598.999 14.3184ZM599.243 198.093V14.3184H598.755V198.093H599.243ZM599 197.849H598.999V198.337H599V197.849ZM599.244 389.163V198.093H598.756V389.163H599.244ZM259.892 372.017C352.873 363.325 437.638 367.671 499.16 374.191C529.92 377.45 554.868 381.253 572.126 384.241C580.754 385.735 587.46 387.025 592.009 387.942C594.283 388.4 596.018 388.765 597.184 389.015C597.767 389.14 598.207 389.237 598.502 389.302C598.65 389.335 598.761 389.359 598.835 389.376C598.872 389.384 598.9 389.391 598.918 389.395C598.928 389.397 598.935 389.398 598.939 389.399C598.941 389.4 598.943 389.4 598.944 389.401C598.945 389.401 598.946 389.401 599 389.163C599.054 388.925 599.053 388.925 599.052 388.925C599.051 388.924 599.049 388.924 599.047 388.924C599.042 388.922 599.035 388.921 599.026 388.919C599.007 388.915 598.979 388.908 598.942 388.9C598.867 388.883 598.756 388.858 598.608 388.826C598.312 388.76 597.87 388.664 597.286 388.538C596.118 388.288 594.381 387.922 592.105 387.464C587.553 386.546 580.842 385.255 572.209 383.76C554.942 380.771 529.983 376.966 499.211 373.705C437.667 367.183 352.868 362.835 259.847 371.531L259.892 372.017ZM76.0378 369.6C121.731 374.334 175.512 379.906 259.892 372.017L259.847 371.531C175.514 379.415 121.771 373.847 76.0881 369.115L76.0378 369.6ZM-93.2473 381.129C-22.2937 359.413 20.9943 363.898 76.0378 369.6L76.0881 369.115C21.0283 363.41 -22.34 358.917 -93.3901 380.662L-93.2473 381.129ZM-302.999 389.163C-303.089 389.39 -303.089 389.39 -303.088 389.39C-303.087 389.391 -303.086 389.391 -303.085 389.392C-303.082 389.393 -303.079 389.394 -303.074 389.396C-303.064 389.4 -303.049 389.406 -303.029 389.413C-302.99 389.429 -302.931 389.451 -302.853 389.481C-302.697 389.539 -302.464 389.626 -302.154 389.737C-301.536 389.959 -300.613 390.278 -299.393 390.671C-296.954 391.456 -293.325 392.533 -288.566 393.7C-279.047 396.035 -265.005 398.731 -246.901 400.184C-210.693 403.09 -158.242 401.021 -93.2473 381.129L-93.3901 380.662C-158.322 400.535 -210.711 402.599 -246.862 399.698C-264.938 398.247 -278.954 395.555 -288.45 393.226C-293.197 392.062 -296.815 390.988 -299.244 390.207C-300.459 389.816 -301.376 389.498 -301.99 389.277C-302.296 389.167 -302.527 389.082 -302.681 389.024C-302.757 388.995 -302.815 388.973 -302.853 388.958C-302.872 388.951 -302.887 388.945 -302.896 388.942C-302.901 388.94 -302.904 388.938 -302.907 388.937C-302.908 388.937 -302.908 388.937 -302.909 388.936C-302.91 388.936 -302.91 388.936 -302.999 389.163ZM-303.243 198.093V389.163H-302.755V198.093H-303.243Z" fill="#4AFF85" mask="url(#path-5-outside-3_6772_184712)"/>
</g>
<defs>
<linearGradient id="paint0_linear_6772_184712" x1="146.984" y1="95.9199" x2="146.996" y2="378.477" gradientUnits="userSpaceOnUse">
<stop stop-color="#C7FFD8" stop-opacity="0.74"/>
<stop offset="0.0001" stop-color="#B4FFCA" stop-opacity="0.74"/>
<stop offset="0.401042" stop-color="#D7FFF4"/>
<stop offset="0.677083" stop-color="#DBFFE0"/>
<stop offset="1" stop-color="#9AFFA4"/>
</linearGradient>
<linearGradient id="paint1_linear_6772_184712" x1="146.984" y1="93.4901" x2="147.651" y2="388.429" gradientUnits="userSpaceOnUse">
<stop stop-color="#B4FFCA" stop-opacity="0.74"/>
<stop offset="0.0001" stop-color="#B4FFCA" stop-opacity="0.74"/>
<stop offset="0.401042" stop-color="#C8FFF0"/>
<stop offset="0.677083" stop-color="#E7FFEA"/>
<stop offset="1" stop-color="#DFFFDA"/>
</linearGradient>
<linearGradient id="paint2_linear_6772_184712" x1="148" y1="90.9771" x2="148.682" y2="391.27" gradientUnits="userSpaceOnUse">
<stop stop-color="#B4FFCA" stop-opacity="0.74"/>
<stop offset="0.0001" stop-color="#B4FFCA" stop-opacity="0.74"/>
<stop offset="0.401042" stop-color="#C8FFF0"/>
<stop offset="0.677083" stop-color="#E7FFEA"/>
<stop offset="1" stop-color="#DFFFDA"/>
</linearGradient>
</defs>
</svg>
