<svg width="834" height="688" viewBox="0 0 834 688" fill="none" xmlns="http://www.w3.org/2000/svg">
<mask id="path-1-outside-1_6758_227792" maskUnits="userSpaceOnUse" x="-1" y="19.6406" width="836" height="656" fill="black">
<rect fill="white" x="-1" y="19.6406" width="836" height="656"/>
<path fill-rule="evenodd" clip-rule="evenodd" d="M0.00138152 342.427H0V42.385C0 42.385 171.035 150.241 313.564 69.6908C388.704 27.225 422.42 41.6218 455.107 55.5792C484.422 68.0968 512.91 80.261 569.709 50.7374C689.841 -11.7059 833.999 42.385 833.999 42.385V342.427H834V654.381C834 654.381 692.415 597.601 520.436 625.991C442.439 638.866 392.73 629.773 350.487 622.045C299.585 612.733 259.524 605.404 193.875 640.883C73.7429 705.805 0.00138152 654.381 0.00138152 654.381V342.427Z"/>
</mask>
<path fill-rule="evenodd" clip-rule="evenodd" d="M0.00138152 342.427H0V42.385C0 42.385 171.035 150.241 313.564 69.6908C388.704 27.225 422.42 41.6218 455.107 55.5792C484.422 68.0968 512.91 80.261 569.709 50.7374C689.841 -11.7059 833.999 42.385 833.999 42.385V342.427H834V654.381C834 654.381 692.415 597.601 520.436 625.991C442.439 638.866 392.73 629.773 350.487 622.045C299.585 612.733 259.524 605.404 193.875 640.883C73.7429 705.805 0.00138152 654.381 0.00138152 654.381V342.427Z" fill="url(#paint0_linear_6758_227792)"/>
<path d="M0 342.427H-1V343.427H0V342.427ZM0.00138152 342.427H1.00138V341.427H0.00138152V342.427ZM0 42.385L0.533407 41.5392L-1 40.5722V42.385H0ZM313.564 69.6908L313.072 68.8202L313.564 69.6908ZM455.107 55.5792L455.5 54.6596L455.107 55.5792ZM569.709 50.7374L570.17 51.6247L569.709 50.7374ZM833.999 42.385H834.999V41.6922L834.35 41.4488L833.999 42.385ZM833.999 342.427H832.999V343.427H833.999V342.427ZM834 342.427H835V341.427H834V342.427ZM834 654.381L833.628 655.309L835 655.859V654.381H834ZM520.436 625.991L520.273 625.004L520.436 625.991ZM350.487 622.045L350.307 623.028L350.487 622.045ZM193.875 640.883L194.35 641.763L193.875 640.883ZM0.00138152 654.381H-0.998618V654.902L-0.570628 655.201L0.00138152 654.381ZM0 343.427H0.00138152V341.427H0V343.427ZM-1 42.385V342.427H1V42.385H-1ZM313.072 68.8202C242.137 108.909 164.056 102.143 103.602 85.2812C73.3862 76.8534 47.6098 65.9131 29.3874 57.0792C20.2772 52.6627 13.0577 48.7739 8.11841 45.9909C5.64883 44.5995 3.74946 43.4846 2.46902 42.7185C1.8288 42.3355 1.34333 42.0397 1.0187 41.8401C0.856378 41.7403 0.734271 41.6646 0.653136 41.614C0.612568 41.5888 0.582243 41.5698 0.562257 41.5573C0.552263 41.551 0.544855 41.5464 0.540043 41.5434C0.537636 41.5418 0.535978 41.5408 0.534773 41.54C0.533765 41.5394 0.533407 41.5392 0 42.385C-0.533407 43.2309 -0.53246 43.2315 -0.530861 43.2325C-0.529459 43.2334 -0.527209 43.2348 -0.524408 43.2366C-0.518804 43.2401 -0.510602 43.2452 -0.499812 43.252C-0.478232 43.2655 -0.446303 43.2855 -0.404119 43.3118C-0.31975 43.3643 -0.194363 43.442 -0.0287169 43.5439C0.302573 43.7475 0.794903 44.0475 1.44218 44.4348C2.73673 45.2093 4.65113 46.333 7.13665 47.7334C12.1076 50.5342 19.3637 54.4424 28.515 58.8788C46.8157 67.7508 72.7061 78.7401 103.065 87.2076C163.761 104.137 242.462 111.023 314.056 70.5613L313.072 68.8202ZM455.5 54.6596C439.163 47.6834 422.391 40.5123 400.257 40.4763C378.122 40.4403 350.736 47.5342 313.072 68.8202L314.056 70.5613C351.532 49.3816 378.575 42.441 400.254 42.4763C421.935 42.5116 438.365 49.5176 454.715 56.4989L455.5 54.6596ZM569.248 49.8501C540.962 64.5529 519.817 68.829 502.153 67.9251C484.468 67.0201 470.171 60.9243 455.5 54.6596L454.715 56.4989C469.358 62.7517 483.963 68.9968 502.051 69.9225C520.158 70.8491 541.657 66.4455 570.17 51.6247L569.248 49.8501ZM833.999 42.385C834.35 41.4488 834.349 41.4485 834.348 41.4479C834.346 41.4475 834.345 41.4468 834.342 41.4459C834.337 41.4441 834.33 41.4415 834.321 41.4381C834.303 41.4312 834.276 41.4212 834.24 41.408C834.169 41.3816 834.063 41.3427 833.923 41.2919C833.643 41.1902 833.228 41.041 832.682 40.8493C831.589 40.4659 829.975 39.9128 827.879 39.2317C823.687 37.8696 817.569 35.9954 809.854 33.9426C794.425 29.8374 772.602 25.0165 747.015 22.1512C695.857 16.4225 629.559 18.5009 569.248 49.8501L570.17 51.6247C629.991 20.5306 695.838 18.4328 746.792 24.1388C772.261 26.9908 793.985 31.7899 809.34 35.8754C817.017 37.918 823.1 39.7818 827.261 41.1338C829.341 41.8098 830.941 42.3579 832.019 42.7364C832.558 42.9256 832.967 43.0724 833.24 43.1717C833.376 43.2213 833.479 43.259 833.547 43.2841C833.581 43.2967 833.607 43.3062 833.623 43.3124C833.632 43.3155 833.638 43.3178 833.642 43.3193C833.644 43.32 833.645 43.3205 833.646 43.3209C833.647 43.3212 833.647 43.3213 833.999 42.385ZM834.999 342.427V42.385H832.999V342.427H834.999ZM834 341.427H833.999V343.427H834V341.427ZM835 654.381V342.427H833V654.381H835ZM520.599 626.977C606.443 612.807 684.712 619.891 741.526 630.523C769.931 635.838 792.967 642.039 808.898 646.909C816.863 649.344 823.051 651.446 827.245 652.938C829.342 653.685 830.941 654.278 832.014 654.685C832.55 654.888 832.955 655.045 833.225 655.15C833.36 655.203 833.462 655.243 833.529 655.269C833.562 655.283 833.588 655.293 833.604 655.299C833.612 655.303 833.618 655.305 833.622 655.307C833.624 655.307 833.626 655.308 833.627 655.308C833.628 655.309 833.628 655.309 834 654.381C834.372 653.453 834.371 653.452 834.37 653.452C834.369 653.451 834.367 653.45 834.365 653.45C834.36 653.448 834.353 653.445 834.344 653.441C834.326 653.434 834.3 653.424 834.265 653.41C834.194 653.382 834.09 653.341 833.952 653.287C833.676 653.179 833.265 653.02 832.722 652.815C831.637 652.404 830.026 651.805 827.916 651.054C823.695 649.552 817.478 647.441 809.483 644.996C793.492 640.107 770.383 633.888 741.894 628.557C684.922 617.896 606.409 610.785 520.273 625.004L520.599 626.977ZM350.307 623.028C392.586 630.763 442.431 639.881 520.599 626.977L520.273 625.004C442.448 637.851 392.874 628.782 350.667 621.061L350.307 623.028ZM194.35 641.763C227.066 624.082 253.352 617.095 277.769 615.666C302.214 614.235 324.838 618.369 350.307 623.028L350.667 621.061C325.234 616.409 302.376 612.222 277.652 613.669C252.901 615.117 226.332 622.205 193.399 640.003L194.35 641.763ZM0.00138152 654.381C-0.570628 655.201 -0.569803 655.201 -0.568696 655.202C-0.567951 655.203 -0.566562 655.204 -0.565073 655.205C-0.562095 655.207 -0.55799 655.21 -0.552761 655.213C-0.542303 655.221 -0.527347 655.231 -0.507906 655.244C-0.469024 655.271 -0.4122 655.309 -0.33754 655.359C-0.188221 655.458 0.0324518 655.603 0.323644 655.787C0.90602 656.156 1.77052 656.685 2.91048 657.333C5.19033 658.629 8.57237 660.4 13.0032 662.319C21.8648 666.156 34.9229 670.583 51.7483 672.968C85.4142 677.739 134.098 674.324 194.35 641.763L193.399 640.003C133.519 672.364 85.2666 675.698 52.0289 670.988C35.4025 668.631 22.517 664.259 13.7979 660.484C9.4384 658.596 6.12086 656.857 3.89871 655.594C2.78766 654.963 1.95056 654.45 1.39408 654.098C1.11584 653.921 0.907777 653.785 0.770713 653.694C0.702181 653.648 0.651402 653.614 0.61848 653.591C0.602019 653.58 0.590022 653.572 0.582503 653.567C0.578743 653.564 0.576103 653.562 0.574584 653.561C0.573824 653.561 0.573527 653.56 0.573146 653.56C0.573128 653.56 0.573391 653.56 0.00138152 654.381ZM-0.998618 342.427V654.381H1.00138V342.427H-0.998618Z" fill="#4AFF85" mask="url(#path-1-outside-1_6758_227792)"/>
<g opacity="0.6">
<mask id="path-3-outside-2_6758_227792" maskUnits="userSpaceOnUse" x="-1.70703" y="9.14062" width="839" height="673" fill="black">
<rect fill="white" x="-1.70703" y="9.14062" width="839" height="673"/>
<path fill-rule="evenodd" clip-rule="evenodd" d="M-0.706567 340.723H-0.707031V32.4794C-0.707031 32.4794 170.904 143.284 313.913 60.5316C389.307 16.905 423.136 31.6953 455.933 46.0343C485.347 58.8941 513.931 71.3908 570.921 41.0601C691.457 -23.0901 836.101 32.4794 836.101 32.4794V340.723H836.102V661.205C836.102 661.205 694.04 602.873 521.481 632.039C443.222 645.266 393.345 635.924 350.959 627.985C299.886 618.418 259.69 610.889 193.82 647.338C73.2833 714.035 -0.706567 661.205 -0.706567 661.205V340.723Z"/>
</mask>
<path fill-rule="evenodd" clip-rule="evenodd" d="M-0.706567 340.723H-0.707031V32.4794C-0.707031 32.4794 170.904 143.284 313.913 60.5316C389.307 16.905 423.136 31.6953 455.933 46.0343C485.347 58.8941 513.931 71.3908 570.921 41.0601C691.457 -23.0901 836.101 32.4794 836.101 32.4794V340.723H836.102V661.205C836.102 661.205 694.04 602.873 521.481 632.039C443.222 645.266 393.345 635.924 350.959 627.985C299.886 618.418 259.69 610.889 193.82 647.338C73.2833 714.035 -0.706567 661.205 -0.706567 661.205V340.723Z" fill="url(#paint1_linear_6758_227792)"/>
<path d="M-0.707031 340.723H-1.70703V341.723H-0.707031V340.723ZM-0.706567 340.723H0.293433V339.723H-0.706567V340.723ZM-0.707031 32.4794L-0.164601 31.6393L-1.70703 30.6434V32.4794H-0.707031ZM313.913 60.5316L314.414 61.3971L313.913 60.5316ZM455.933 46.0343L455.533 46.9506L455.933 46.0343ZM570.921 41.0601L571.391 41.9429L570.921 41.0601ZM836.101 32.4794H837.101V31.7924L836.46 31.546L836.101 32.4794ZM836.101 340.723H835.101V341.723H836.101V340.723ZM836.102 340.723H837.102V339.723H836.102V340.723ZM836.102 661.205L835.722 662.13L837.102 662.696V661.205H836.102ZM521.481 632.039L521.648 633.025L521.481 632.039ZM350.959 627.985L350.775 628.968L350.959 627.985ZM193.82 647.338L194.304 648.213L193.82 647.338ZM-0.706567 661.205H-1.70657V661.719L-1.28766 662.018L-0.706567 661.205ZM-0.707031 341.723H-0.706567V339.723H-0.707031V341.723ZM-1.70703 32.4794V340.723H0.292969V32.4794H-1.70703ZM313.412 59.666C242.242 100.849 163.904 93.8977 103.249 76.5762C72.9325 67.9184 47.0698 56.6792 28.7863 47.6039C19.6456 43.0668 12.4018 39.0718 7.4459 36.2128C4.96802 34.7833 3.06227 33.6379 1.77752 32.8509C1.13515 32.4574 0.648049 32.1535 0.322321 31.9485C0.159458 31.846 0.0369403 31.7682 -0.0444684 31.7163C-0.0851727 31.6903 -0.1156 31.6708 -0.135653 31.658C-0.14568 31.6515 -0.153114 31.6467 -0.157943 31.6436C-0.160357 31.6421 -0.162021 31.641 -0.16323 31.6402C-0.164242 31.6396 -0.164601 31.6393 -0.707031 32.4794C-1.24946 33.3195 -1.24851 33.3202 -1.24691 33.3212C-1.2455 33.3221 -1.24324 33.3235 -1.24043 33.3254C-1.23481 33.329 -1.22658 33.3343 -1.21575 33.3412C-1.1941 33.3551 -1.16206 33.3756 -1.11974 33.4026C-1.03509 33.4566 -0.909275 33.5365 -0.74307 33.6411C-0.410662 33.8503 0.0833288 34.1585 0.732792 34.5563C2.03171 35.352 3.95257 36.5064 6.44649 37.9452C11.4342 40.8225 18.7148 44.8376 27.8971 49.3954C46.2597 58.51 72.2379 69.8 102.7 78.4993C163.603 95.8919 242.575 102.967 314.414 61.3971L313.412 59.666ZM456.334 45.118C439.942 37.9516 423.111 30.5829 400.899 30.5459C378.684 30.5089 351.203 37.7983 313.412 59.666L314.414 61.3971C352.017 39.6383 379.148 32.5096 400.895 32.5459C422.645 32.5821 439.127 39.7781 455.533 46.9506L456.334 45.118ZM570.451 40.1773C542.07 55.2818 520.858 59.6734 503.138 58.745C485.398 57.8155 471.056 51.5544 456.334 45.118L455.533 46.9506C470.225 53.374 484.881 59.7911 503.034 60.7422C521.207 61.6945 542.781 57.169 571.391 41.9429L570.451 40.1773ZM836.101 32.4794C836.46 31.546 836.459 31.5456 836.457 31.5451C836.456 31.5446 836.454 31.5439 836.452 31.543C836.447 31.5411 836.44 31.5384 836.431 31.5349C836.412 31.5279 836.385 31.5176 836.349 31.5041C836.278 31.477 836.172 31.437 836.031 31.3847C835.75 31.2803 835.333 31.1269 834.785 30.93C833.69 30.5361 832.069 29.9678 829.966 29.2681C825.76 27.8687 819.621 25.9432 811.88 23.8342C796.399 19.6166 774.501 14.6637 748.826 11.7199C697.493 5.8343 630.968 7.9698 570.451 40.1773L571.391 41.9429C631.41 10.0001 697.475 7.84532 748.598 13.7069C774.152 16.6368 795.948 21.5668 811.354 25.7639C819.057 27.8622 825.16 29.7769 829.335 31.1658C831.422 31.8603 833.027 32.4233 834.109 32.8121C834.65 33.0065 835.06 33.1573 835.334 33.2592C835.471 33.3102 835.574 33.3489 835.642 33.3748C835.676 33.3877 835.702 33.3974 835.719 33.4038C835.727 33.407 835.733 33.4093 835.737 33.4109C835.739 33.4116 835.74 33.4121 835.741 33.4125C835.742 33.4128 835.742 33.4129 836.101 32.4794ZM837.101 340.723V32.4794H835.101V340.723H837.101ZM836.102 339.723H836.101V341.723H836.102V339.723ZM837.102 661.205V340.723H835.102V661.205H837.102ZM521.648 633.025C607.778 618.467 686.308 625.745 743.313 636.667C771.813 642.127 794.926 648.497 810.909 653.5C818.901 656.002 825.11 658.161 829.318 659.695C831.422 660.461 833.026 661.071 834.102 661.489C834.64 661.698 835.047 661.858 835.318 661.967C835.453 662.021 835.555 662.062 835.622 662.089C835.656 662.103 835.681 662.113 835.698 662.12C835.706 662.123 835.712 662.126 835.716 662.127C835.718 662.128 835.72 662.129 835.721 662.129C835.721 662.13 835.722 662.13 836.102 661.205C836.481 660.279 836.481 660.279 836.479 660.279C836.478 660.278 836.476 660.277 836.474 660.276C836.469 660.274 836.462 660.272 836.453 660.268C836.435 660.261 836.409 660.25 836.373 660.236C836.303 660.207 836.198 660.165 836.06 660.109C835.783 659.999 835.37 659.836 834.826 659.624C833.737 659.202 832.12 658.587 830.003 657.815C825.768 656.273 819.53 654.103 811.507 651.592C795.462 646.569 772.274 640.179 743.689 634.702C686.523 623.75 607.743 616.444 521.315 631.053L521.648 633.025ZM350.775 628.968C393.198 636.914 443.213 646.282 521.648 633.025L521.315 631.053C443.231 644.25 393.492 634.934 351.143 627.002L350.775 628.968ZM194.304 648.213C227.129 630.049 253.502 622.872 277.998 621.404C302.523 619.934 325.22 624.181 350.775 628.968L351.143 627.002C325.626 622.222 302.688 617.921 277.879 619.407C253.041 620.896 226.38 628.178 193.336 646.463L194.304 648.213ZM-0.706567 661.205C-1.28766 662.018 -1.28684 662.019 -1.28573 662.02C-1.28498 662.02 -1.28359 662.021 -1.2821 662.022C-1.27911 662.024 -1.27499 662.027 -1.26975 662.031C-1.25926 662.039 -1.24426 662.049 -1.22475 662.063C-1.18575 662.09 -1.12874 662.129 -1.05384 662.18C-0.904025 662.282 -0.682616 662.431 -0.390445 662.62C0.193887 663 1.06132 663.543 2.20515 664.209C4.49275 665.54 7.88638 667.36 12.3324 669.331C21.2245 673.274 34.3279 677.822 51.2118 680.272C84.9961 685.174 133.848 681.665 194.304 648.213L193.336 646.463C133.255 679.707 84.8438 683.131 51.499 678.293C34.8185 675.872 21.8909 671.382 13.1431 667.503C8.76916 665.564 5.44063 663.777 3.21107 662.48C2.09632 661.831 1.25641 661.305 0.69805 660.943C0.418874 660.762 0.210098 660.621 0.0725611 660.528C0.00379306 660.481 -0.0471638 660.446 -0.0802048 660.423C-0.0967252 660.411 -0.108766 660.403 -0.116315 660.397C-0.12009 660.395 -0.122741 660.393 -0.124268 660.392C-0.125031 660.391 -0.125331 660.391 -0.125714 660.391C-0.125734 660.391 -0.125472 660.391 -0.706567 661.205ZM-1.70657 340.723V661.205H0.293433V340.723H-1.70657Z" fill="#4AFF85" mask="url(#path-3-outside-2_6758_227792)"/>
</g>
<g opacity="0.4">
<mask id="path-5-outside-3_6758_227792" maskUnits="userSpaceOnUse" x="-23.877" y="0" width="884" height="688" fill="black">
<rect fill="white" x="-23.877" width="884" height="688"/>
<path fill-rule="evenodd" clip-rule="evenodd" d="M858.396 339.014H858.391V666.7C858.391 666.7 708.781 607.057 527.055 636.878C444.637 650.403 392.111 640.851 347.473 632.733C293.686 622.952 251.354 615.253 181.984 652.521C55.044 720.718 -22.877 666.7 -22.877 666.7V339.014H-22.8712V23.841C-22.8712 23.841 157.857 137.137 308.465 52.5237C387.864 7.91646 423.491 23.0393 458.03 37.7006C489.007 50.8494 519.109 63.6271 579.127 32.6145C706.068 -32.9778 858.396 23.841 858.396 23.841V339.014Z"/>
</mask>
<path fill-rule="evenodd" clip-rule="evenodd" d="M858.396 339.014H858.391V666.7C858.391 666.7 708.781 607.057 527.055 636.878C444.637 650.403 392.111 640.851 347.473 632.733C293.686 622.952 251.354 615.253 181.984 652.521C55.044 720.718 -22.877 666.7 -22.877 666.7V339.014H-22.8712V23.841C-22.8712 23.841 157.857 137.137 308.465 52.5237C387.864 7.91646 423.491 23.0393 458.03 37.7006C489.007 50.8494 519.109 63.6271 579.127 32.6145C706.068 -32.9778 858.396 23.841 858.396 23.841V339.014Z" fill="url(#paint2_linear_6758_227792)"/>
<path d="M858.391 339.014V338.014H857.391V339.014H858.391ZM858.396 339.014V340.014H859.396V339.014H858.396ZM858.391 666.7L858.02 667.629L859.391 668.175V666.7H858.391ZM527.055 636.878L527.217 637.865L527.055 636.878ZM347.473 632.733L347.294 633.717L347.473 632.733ZM181.984 652.521L182.458 653.402L181.984 652.521ZM-22.877 666.7H-23.877V667.223L-23.4467 667.522L-22.877 666.7ZM-22.877 339.014V338.014H-23.877V339.014H-22.877ZM-22.8712 339.014V340.014H-21.8712V339.014H-22.8712ZM-22.8712 23.841L-22.3401 22.9937L-23.8712 22.0339V23.841H-22.8712ZM308.465 52.5237L307.975 51.6519L308.465 52.5237ZM458.03 37.7006L457.64 38.6211L458.03 37.7006ZM579.127 32.6145L578.668 31.7261L579.127 32.6145ZM858.396 23.841H859.396V23.1467L858.746 22.904L858.396 23.841ZM858.391 340.014H858.396V338.014H858.391V340.014ZM859.391 666.7V339.014H857.391V666.7H859.391ZM527.217 637.865C617.935 622.978 700.648 630.421 760.687 641.589C790.705 647.173 815.049 653.687 831.884 658.803C840.301 661.361 846.841 663.57 851.274 665.138C853.49 665.922 855.179 666.546 856.313 666.973C856.88 667.187 857.308 667.351 857.594 667.462C857.737 667.517 857.844 667.559 857.915 667.587C857.951 667.601 857.977 667.612 857.995 667.619C858.004 667.622 858.01 667.625 858.014 667.626C858.016 667.627 858.018 667.628 858.019 667.628C858.02 667.628 858.02 667.629 858.391 666.7C858.761 665.771 858.76 665.77 858.759 665.77C858.757 665.769 858.755 665.769 858.753 665.768C858.748 665.766 858.741 665.763 858.731 665.759C858.712 665.752 858.684 665.741 858.647 665.726C858.573 665.697 858.463 665.654 858.317 665.597C858.026 665.484 857.592 665.317 857.018 665.101C855.872 664.669 854.17 664.041 851.94 663.252C847.482 661.675 840.913 659.457 832.465 656.89C815.57 651.755 791.153 645.222 761.053 639.623C700.856 628.425 617.901 620.957 526.893 635.891L527.217 637.865ZM347.294 633.717C391.968 641.841 444.629 651.418 527.217 637.865L526.893 635.891C444.646 649.388 392.254 639.86 347.652 631.749L347.294 633.717ZM182.458 653.402C217.034 634.826 244.819 627.484 270.631 625.982C296.47 624.479 320.383 628.823 347.294 633.717L347.652 631.749C320.777 626.862 296.631 622.466 270.514 623.985C244.371 625.506 216.305 632.948 181.511 651.64L182.458 653.402ZM-22.877 666.7C-23.4467 667.522 -23.4458 667.522 -23.4447 667.523C-23.4439 667.523 -23.4425 667.524 -23.4409 667.526C-23.4378 667.528 -23.4335 667.531 -23.428 667.534C-23.4171 667.542 -23.4014 667.553 -23.3809 667.566C-23.34 667.594 -23.2801 667.634 -23.2014 667.687C-23.044 667.791 -22.8112 667.942 -22.5038 668.136C-21.8892 668.523 -20.9765 669.078 -19.7728 669.758C-17.3654 671.118 -13.7935 672.978 -9.11376 674.993C0.245834 679.022 14.0388 683.67 31.8116 686.174C67.3721 691.184 118.802 687.6 182.458 653.402L181.511 651.64C118.227 685.639 67.2256 689.144 32.0906 684.194C14.5156 681.718 0.894516 677.124 -8.32295 673.156C-12.9317 671.172 -16.4392 669.344 -18.789 668.017C-19.9638 667.353 -20.8492 666.814 -21.4379 666.444C-21.7323 666.258 -21.9525 666.115 -22.0977 666.019C-22.1703 665.971 -22.2241 665.934 -22.2591 665.911C-22.2766 665.899 -22.2893 665.89 -22.2973 665.885C-22.3014 665.882 -22.3042 665.88 -22.3058 665.879C-22.3067 665.878 -22.307 665.878 -22.3074 665.878C-22.3075 665.878 -22.3072 665.878 -22.877 666.7ZM-23.877 339.014V666.7H-21.877V339.014H-23.877ZM-22.8712 338.014H-22.877V340.014H-22.8712V338.014ZM-23.8712 23.841V339.014H-21.8712V23.841H-23.8712ZM307.975 51.6519C232.999 93.7739 150.474 86.6624 86.5862 68.9485C54.6533 60.0946 27.4124 48.601 8.155 39.3205C-1.47277 34.6807 -9.10255 30.5952 -14.3227 27.6714C-16.9327 26.2096 -18.9402 25.0382 -20.2936 24.2332C-20.9703 23.8307 -21.4835 23.5199 -21.8267 23.3101C-21.9983 23.2053 -22.1275 23.1257 -22.2133 23.0725C-22.2562 23.046 -22.2883 23.026 -22.3095 23.0128C-22.32 23.0062 -22.3279 23.0013 -22.333 22.9981C-22.3356 22.9965 -22.3373 22.9954 -22.3386 22.9946C-22.3397 22.994 -22.3401 22.9937 -22.8712 23.841C-23.4024 24.6883 -23.4014 24.6889 -23.3997 24.6899C-23.3982 24.6909 -23.3959 24.6923 -23.3929 24.6942C-23.387 24.6979 -23.3784 24.7033 -23.367 24.7103C-23.3443 24.7245 -23.3106 24.7455 -23.266 24.773C-23.177 24.8282 -23.0446 24.9098 -22.8696 25.0167C-22.5198 25.2305 -21.9997 25.5455 -21.316 25.9522C-19.9485 26.7655 -17.926 27.9456 -15.3001 29.4164C-10.0483 32.3579 -2.38206 36.4626 7.28673 41.1222C26.6224 50.4404 53.9767 61.9825 86.0518 70.8758C150.181 88.6566 233.323 95.8864 308.954 53.3956L307.975 51.6519ZM458.421 36.7801C441.157 29.4519 423.446 21.9242 400.071 21.8864C376.696 21.8486 347.768 29.2955 307.975 51.6519L308.954 53.3956C348.56 31.1447 377.146 23.8493 400.068 23.8864C422.992 23.9235 440.364 31.2879 457.64 38.6211L458.421 36.7801ZM578.668 31.7261C548.773 47.1738 526.419 51.6696 507.739 50.7193C489.04 49.7681 473.923 43.3603 458.421 36.7801L457.64 38.6211C473.114 45.1897 488.537 51.7451 507.637 52.7168C526.758 53.6894 549.464 49.0678 579.586 33.5029L578.668 31.7261ZM858.396 23.841C858.746 22.904 858.745 22.9037 858.743 22.9032C858.742 22.9027 858.74 22.9019 858.738 22.901C858.732 22.8991 858.725 22.8964 858.716 22.8928C858.696 22.8857 858.668 22.8752 858.63 22.8613C858.555 22.8337 858.443 22.7928 858.295 22.7395C858 22.6328 857.561 22.476 856.984 22.2747C855.83 21.8722 854.125 21.2913 851.91 20.5761C847.482 19.1456 841.018 17.1771 832.867 15.0212C816.566 10.7096 793.509 5.64616 766.475 2.63678C712.424 -3.38012 642.383 -1.19637 578.668 31.7261L579.586 33.5029C642.812 0.833108 712.405 -1.36991 766.254 4.6245C793.17 7.62077 816.128 12.6625 832.356 16.9547C840.469 19.1006 846.898 21.0587 851.296 22.4792C853.494 23.1895 855.185 23.7654 856.325 24.1631C856.895 24.3619 857.327 24.5162 857.616 24.6205C857.76 24.6727 857.869 24.7123 857.941 24.7388C857.977 24.752 858.004 24.7619 858.021 24.7685C858.03 24.7718 858.037 24.7742 858.041 24.7758C858.043 24.7766 858.045 24.7771 858.046 24.7775C858.046 24.7778 858.047 24.7779 858.396 23.841ZM859.396 339.014V23.841H857.396V339.014H859.396Z" fill="#4AFF85" mask="url(#path-5-outside-3_6758_227792)"/>
</g>
<defs>
<linearGradient id="paint0_linear_6758_227792" x1="417" y1="167.543" x2="417.037" y2="643.976" gradientUnits="userSpaceOnUse">
<stop stop-color="#C7FFD8" stop-opacity="0.74"/>
<stop offset="0.0001" stop-color="#B4FFCA" stop-opacity="0.74"/>
<stop offset="0.401042" stop-color="#D7FFF4"/>
<stop offset="0.677083" stop-color="#DBFFE0"/>
<stop offset="1" stop-color="#9AFFA4"/>
</linearGradient>
<linearGradient id="paint1_linear_6758_227792" x1="417.697" y1="161.059" x2="419.765" y2="664.732" gradientUnits="userSpaceOnUse">
<stop stop-color="#B4FFCA" stop-opacity="0.74"/>
<stop offset="0.0001" stop-color="#B4FFCA" stop-opacity="0.74"/>
<stop offset="0.401042" stop-color="#C8FFF0"/>
<stop offset="0.677083" stop-color="#E7FFEA"/>
<stop offset="1" stop-color="#DFFFDA"/>
</linearGradient>
<linearGradient id="paint2_linear_6758_227792" x1="417.76" y1="155.311" x2="419.812" y2="670.307" gradientUnits="userSpaceOnUse">
<stop stop-color="#B4FFCA" stop-opacity="0.74"/>
<stop offset="0.0001" stop-color="#B4FFCA" stop-opacity="0.74"/>
<stop offset="0.401042" stop-color="#C8FFF0"/>
<stop offset="0.677083" stop-color="#E7FFEA"/>
<stop offset="1" stop-color="#DFFFDA"/>
</linearGradient>
</defs>
</svg>
