<!-- width="375" height="601" -->

<svg  preserveAspectRatio="none"  viewBox="0 0 375 966" fill="none" xmlns="http://www.w3.org/2000/svg">
<path opacity="0.5" d="M-12 30.4039L-12.4997 30.3861L-12.5 30.395V30.4039L-12.5 965L-11.5252 965.157L-12 965C-11.5252 965.157 -11.5251 965.156 -11.525 965.156L-11.5241 965.153L-11.5202 965.142L-11.5042 965.094C-11.4898 965.052 -11.468 964.988 -11.4387 964.903C-11.3801 964.734 -11.2916 964.482 -11.1725 964.155C-10.9343 963.501 -10.574 962.545 -10.0866 961.34C-9.11186 958.93 -7.62959 955.527 -5.60169 951.559C-1.54441 943.621 4.68948 933.441 13.4008 924.441C22.1111 915.442 33.2834 907.639 47.2218 904.421C61.1536 901.204 77.8999 902.557 97.7864 911.955C137.974 930.947 180.185 914.167 219.497 894.245C225.699 891.102 231.827 887.882 237.866 884.708C251.005 877.803 263.723 871.12 275.86 865.938C293.576 858.375 309.933 854.068 324.403 856.923C353.417 862.645 374.696 889.6 388.749 915.283C395.765 928.106 400.959 940.571 404.398 949.833C406.118 954.463 407.399 958.291 408.249 960.96C408.674 962.294 408.992 963.339 409.203 964.05C409.309 964.405 409.388 964.677 409.44 964.859C409.466 964.951 409.486 965.02 409.499 965.066L409.514 965.117L409.517 965.13L409.518 965.133C409.518 965.133 409.518 965.134 409.546 965.126L409.518 965.134L410.5 965L410.5 30.4039V30.1221L410.259 29.9762L410 30.4039C410.259 29.9762 410.258 29.9758 410.257 29.9753L410.254 29.9734L410.242 29.9661L410.195 29.9382C410.154 29.9138 410.093 29.8778 410.013 29.8309C409.852 29.7371 409.613 29.5995 409.299 29.4233C408.671 29.0708 407.741 28.5636 406.531 27.9418C404.111 26.6983 400.569 24.9966 396.074 23.1589C387.085 19.484 374.279 15.2632 359.006 13.0794C328.451 8.7104 288.024 12.4964 248.578 45.0945C209.278 77.5716 182.07 89.8849 155.544 86.1307C142.268 84.2518 129.113 78.3427 114.653 68.8354C100.19 59.3267 84.4495 46.2381 65.9987 30.0283C47.1494 13.4684 32.8162 5.14339 21.9015 2.01255C10.96 -1.12595 3.42674 0.951401 -1.72366 5.20899C-6.84221 9.44026 -9.52742 15.7602 -10.9367 20.9698C-11.6432 23.5814 -12.0336 25.9308 -12.2474 27.6279C-12.3544 28.4768 -12.4174 29.1634 -12.4536 29.6391C-12.4718 29.877 -12.4832 30.0622 -12.4902 30.1887C-12.4936 30.252 -12.496 30.3006 -12.4975 30.3337L-12.4991 30.3718L-12.4995 30.3819L-12.4996 30.3848C-12.4997 30.3855 -12.4997 30.3861 -12 30.4039Z" fill="url(#paint0_linear_8261_143294)" stroke="#4AFF85"/>
<path d="M416 54.6571L416.335 54.2857L416.5 54.4346V54.6571L416.5 925.406L415.547 925.618L416 925.406C415.547 925.618 415.547 925.617 415.547 925.617L415.545 925.614L415.54 925.602L415.517 925.554C415.497 925.511 415.466 925.447 415.425 925.362C415.343 925.191 415.22 924.938 415.056 924.607C414.728 923.945 414.237 922.974 413.584 921.739C412.279 919.27 410.329 915.749 407.753 911.546C402.601 903.138 394.948 892.006 384.944 881.105C364.927 859.293 335.57 838.481 298.048 842.127C266.976 845.147 249.1 854.206 230.95 863.404C227.114 865.348 223.265 867.298 219.278 869.199C196.389 880.108 169.055 889.295 113.472 886.146C58.0656 883.007 13.019 895.824 -18.1752 909.424C-33.7723 916.224 -45.905 923.219 -54.1358 928.512C-58.2511 931.159 -61.3907 933.38 -63.4998 934.938C-64.5544 935.717 -65.3513 936.33 -65.8838 936.747C-66.15 936.956 -66.3501 937.116 -66.4832 937.224C-66.5498 937.278 -66.5996 937.318 -66.6326 937.345L-66.6694 937.375L-66.6783 937.383L-66.6803 937.384C-66.6807 937.385 -66.6808 937.385 -67 937L-66.6808 937.385L-67.5 938.064V937L-67.5 54.6571V54.2896L-67.1493 54.1799L-67 54.6571C-67.1493 54.1799 -67.1487 54.1797 -67.1476 54.1794L-67.143 54.178L-67.1252 54.1724L-67.0549 54.1507C-67.0177 54.1392 -66.9697 54.1244 -66.9108 54.1064L-66.7779 54.0659C-66.5331 53.9916 -66.1688 53.882 -65.6896 53.741C-64.7312 53.4589 -63.3132 53.0507 -61.4719 52.5454C-57.7895 51.535 -52.4141 50.1365 -45.6378 48.5829C-32.0857 45.4758 -12.9278 41.7475 9.49966 39.262C54.3446 34.2919 112.308 34.2851 164.669 54.1897C216.937 74.0591 245.68 82.4927 267.614 82.6661C289.471 82.8388 304.598 74.8113 329.648 61.5177L329.766 61.4551C359.434 45.7108 381.041 43.8707 395.267 46.0051C402.377 47.0718 407.631 49.1296 411.114 50.9275C412.856 51.8263 414.154 52.6598 415.02 53.2716C415.454 53.5775 415.779 53.828 415.997 54.0035C416.107 54.0913 416.189 54.1603 416.246 54.2081C416.274 54.232 416.295 54.2507 416.31 54.2637L416.327 54.279L416.332 54.2834L416.334 54.2848C416.334 54.2853 416.335 54.2857 416 54.6571Z" fill="url(#paint1_linear_8261_143294)" stroke="#4AFF85"/>
<defs>
<linearGradient id="paint0_linear_8261_143294" x1="192.394" y1="-132.764" x2="192.394" y2="849.628" gradientUnits="userSpaceOnUse">
<stop stop-color="#BAFFD9" stop-opacity="0.31"/>
<stop offset="0.546875" stop-color="#BAFFD9"/>
<stop offset="1" stop-color="#ECFFE9"/>
</linearGradient>
<linearGradient id="paint1_linear_8261_143294" x1="262.3" y1="28.4722" x2="262.3" y2="955.939" gradientUnits="userSpaceOnUse">
<stop stop-color="#BAFFD9" stop-opacity="0.31"/>
<stop offset="0.546875" stop-color="#C8FFE1"/>
<stop offset="1" stop-color="#ECFFE9"/>
</linearGradient>
</defs>
</svg>
