<!-- width="375" height="565" -->

<svg preserveAspectRatio="none" viewBox="0 0 375 565" fill="none" xmlns="http://www.w3.org/2000/svg">
<path d="M429 12.0259L429.245 11.5901L429.5 11.7335V12.0259L429.5 555.76V557.265L428.599 556.06L429 555.76C428.599 556.06 428.599 556.06 428.599 556.059L428.598 556.058L428.593 556.051L428.57 556.021C428.55 555.995 428.52 555.955 428.479 555.902C428.398 555.797 428.276 555.639 428.113 555.433C427.786 555.022 427.296 554.417 426.645 553.648C425.342 552.109 423.395 549.914 420.823 547.292C415.677 542.049 408.03 535.103 398.031 528.299C378.034 514.692 348.642 501.664 311.03 503.946C279.924 505.833 262.02 511.499 243.869 517.243C240.034 518.457 236.189 519.674 232.205 520.859C209.337 527.665 182.033 533.398 126.482 531.433C71.0401 529.471 25.9657 537.48 -5.24365 545.976C-20.8483 550.225 -32.9861 554.595 -41.2199 557.901C-45.3368 559.555 -48.4775 560.942 -50.5875 561.915C-51.6424 562.402 -52.4397 562.785 -52.9724 563.046C-53.2388 563.176 -53.439 563.276 -53.5722 563.343C-53.6388 563.377 -53.6887 563.402 -53.7217 563.419L-53.7585 563.438L-53.7675 563.443L-53.7696 563.444C-53.77 563.444 -53.7701 563.444 -54 563L-53.7701 563.444L-54.5 563.822V563L-54.5 12.0259V11.6141L-54.0959 11.5352L-54 12.0259C-54.0959 11.5352 -54.0953 11.535 -54.0943 11.5348L-54.0898 11.534L-54.072 11.5305L-54.0021 11.517L-53.8803 11.4937L-53.7257 11.4642C-53.4814 11.4179 -53.1175 11.3496 -52.6388 11.2616C-51.6813 11.0856 -50.2643 10.8308 -48.424 10.5155C-44.7437 9.88494 -39.3706 9.01205 -32.5969 8.04227C-19.0498 6.10276 0.101196 3.7755 22.5202 2.22399C67.3507 -0.87852 125.281 -0.881584 177.607 11.5394C229.868 23.9451 258.64 29.2197 280.612 29.3282C302.514 29.4363 317.674 24.4125 342.695 16.1209L342.843 16.0721C372.492 6.24673 394.062 5.10581 408.239 6.43413C415.328 7.09822 420.565 8.37921 424.038 9.49849C425.775 10.0581 427.069 10.5771 427.934 10.9583C428.366 11.1488 428.69 11.3049 428.908 11.4142C429.018 11.4689 429.1 11.5119 429.156 11.5418C429.184 11.5567 429.206 11.5683 429.22 11.5764L429.238 11.586L429.243 11.5887L429.244 11.5896C429.245 11.5899 429.245 11.5901 429 12.0259Z" fill="url(#paint0_linear_6790_193483)" stroke="#4AFF85"/>
<defs>
<linearGradient id="paint0_linear_6790_193483" x1="275.3" y1="-4.32512" x2="275.3" y2="574.826" gradientUnits="userSpaceOnUse">
<stop stop-color="#BAFFD9" stop-opacity="0.31"/>
<stop offset="0.546875" stop-color="#C8FFE1"/>
<stop offset="1" stop-color="#ECFFE9"/>
</linearGradient>
</defs>
</svg>
