<svg width="109" height="103" viewBox="0 0 109 103" fill="none" xmlns="http://www.w3.org/2000/svg">
<g opacity="0.3">
<path d="M64.1642 59.9862L61.3281 54.8959C74.2774 49.1596 82.1701 45.5377 94.7016 39.214C99.2086 36.9429 101.979 33.693 102.506 30.0515C102.902 27.291 101.935 24.5892 99.9121 22.8272C96.0867 19.5185 88.9415 18.0698 82.5218 19.2836C80.0815 19.7535 77.861 20.4583 75.9043 21.4176L72.8264 16.4252C75.3327 15.1918 78.1468 14.2912 81.2027 13.7039C89.8429 12.0593 98.9448 14.0367 104.375 18.7354C107.827 21.7308 109.52 26.2338 108.86 30.7563C108.069 36.199 104.177 40.9564 97.8675 44.128C85.226 50.5105 77.2674 54.1716 64.1862 59.9471L64.1642 59.9862Z" fill="#DCDC00"/>
<path d="M44.8142 59.9861C31.755 54.2106 23.7964 50.5495 11.133 44.1671C4.82321 40.9955 0.931838 36.238 0.140372 30.7953C-0.519183 26.2533 1.17368 21.7699 4.62535 18.7745C10.0557 14.0758 19.1356 12.0984 27.7977 13.7429C30.8537 14.3107 33.6678 15.2308 36.1741 16.4643L33.0961 21.4566C31.1395 20.4973 28.919 19.7729 26.4786 19.3227C20.0589 18.1088 12.9138 19.5772 9.08834 22.8663C7.0657 24.6283 6.09835 27.3105 6.49408 30.0905C7.02173 33.7125 9.79187 36.9624 14.2988 39.253C26.8084 45.5767 34.7011 49.1986 47.6723 54.935L44.8362 60.0252L44.8142 59.9861Z" fill="#DCDC00"/>
<path d="M61.0454 77.8019C61.4412 72.3201 64.1673 67.1711 68.6963 63.4513C78.7875 55.1306 85.361 43.9712 87.2737 31.8329L91.5169 4.97189C91.7587 3.40565 90.3956 2.01562 88.6368 2.01562H19.9552C18.1744 2.01562 16.8333 3.40565 17.0751 4.97189L21.3183 31.8329C23.231 43.9712 29.8045 55.1306 39.8957 63.4513C44.4247 67.1907 47.1728 72.3201 47.5465 77.8019V78.8396C47.5465 87.8063 41.3907 95.8724 32.025 99.1615H54.296H76.567C67.2013 95.8724 61.0454 87.8063 61.0454 78.8396V77.8019Z" fill="#FCEB00"/>
<path d="M79.5269 98.1484H29.0269C27.5213 98.1484 26.3008 99.2353 26.3008 100.576C26.3008 101.917 27.5213 103.004 29.0269 103.004H79.5269C81.0325 103.004 82.253 101.917 82.253 100.576C82.253 99.2353 81.0325 98.1484 79.5269 98.1484Z" fill="url(#paint0_linear_6772_186119)"/>
<path d="M92.5699 0H16.0395C14.1818 0 12.6758 1.34113 12.6758 2.99546V3.01502C12.6758 4.66935 14.1818 6.01045 16.0395 6.01045H92.5699C94.4276 6.01045 95.9336 4.66935 95.9336 3.01502V2.99546C95.9336 1.34113 94.4276 0 92.5699 0Z" fill="url(#paint1_linear_6772_186119)"/>
<path d="M60.6063 76.1016H47.9648C46.5927 76.1016 45.4805 77.092 45.4805 78.3139C45.4805 79.5357 46.5927 80.5262 47.9648 80.5262H60.6063C61.9783 80.5262 63.0906 79.5357 63.0906 78.3139C63.0906 77.092 61.9783 76.1016 60.6063 76.1016Z" fill="#00953C"/>
<path d="M31.6421 9.4375H24.5189C23.5515 9.4375 22.782 10.1619 22.826 11.0233C23.2217 17.2099 25.3323 39.9008 35.0058 51.491C36.127 52.8419 38.5234 51.7651 37.9738 50.1597C35.7093 43.6794 33.0271 31.5998 33.3129 10.9646C33.3129 10.1227 32.5654 9.45707 31.6201 9.45707L31.6421 9.4375Z" fill="white"/>
<path d="M49.0146 86.48C48.3331 88.7119 46.6622 93.0973 43.6282 95.4859C43.1885 95.8187 43.4744 96.4648 44.046 96.4648H46.3104C47.6515 96.4648 48.8168 95.6425 49.1026 94.4874C49.4983 92.9015 49.872 90.2977 49.5423 86.5387C49.5203 86.2646 49.1026 86.2254 49.0146 86.4995V86.48Z" fill="#FBEFB7"/>
<path d="M51.6539 16.4453L58.6892 25.0792L70.6711 24.8051L63.6359 33.439L67.6152 43.5217L56.2269 40.213L46.7073 46.6933V36.0233L36.8359 29.9737L48.2243 26.665L51.6539 16.4453Z" fill="#93C200"/>
<path d="M51.6484 16.4453L58.6837 25.0792L70.6656 24.8051L63.6304 33.439L67.6097 43.5217L56.2214 40.213L51.6484 16.4453Z" fill="#26AC63"/>
</g>
<defs>
<linearGradient id="paint0_linear_6772_186119" x1="26.3008" y1="100.576" x2="82.275" y2="100.576" gradientUnits="userSpaceOnUse">
<stop stop-color="#008B3E"/>
<stop offset="0.44" stop-color="#009340"/>
<stop offset="1" stop-color="#00A547"/>
</linearGradient>
<linearGradient id="paint1_linear_6772_186119" x1="12.6758" y1="2.99544" x2="95.9116" y2="2.99544" gradientUnits="userSpaceOnUse">
<stop stop-color="#008B3E"/>
<stop offset="0.44" stop-color="#009340"/>
<stop offset="1" stop-color="#00A547"/>
</linearGradient>
</defs>
</svg>
